G04 #@! TF.GenerationSoftware,KiCad,Pcbnew,(5.1.9)-1*
G04 #@! TF.CreationDate,2021-06-30T17:08:45-04:00*
G04 #@! TF.ProjectId,Motor Controller 2020,4d6f746f-7220-4436-9f6e-74726f6c6c65,rev?*
G04 #@! TF.SameCoordinates,Original*
G04 #@! TF.FileFunction,Legend,Top*
G04 #@! TF.FilePolarity,Positive*
%FSLAX46Y46*%
G04 Gerber Fmt 4.6, Leading zero omitted, Abs format (unit mm)*
G04 Created by KiCad (PCBNEW (5.1.9)-1) date 2021-06-30 17:08:45*
%MOMM*%
%LPD*%
G01*
G04 APERTURE LIST*
%ADD10C,0.120000*%
G04 #@! TA.AperFunction,Profile*
%ADD11C,0.050000*%
G04 #@! TD*
%ADD12C,0.150000*%
G04 APERTURE END LIST*
D10*
X105800000Y-75900000D02*
G75*
G03*
X105800000Y-75900000I-200000J0D01*
G01*
X106200000Y-72800000D02*
G75*
G03*
X106200000Y-72800000I-200000J0D01*
G01*
X123200000Y-82000000D02*
G75*
G03*
X123200000Y-82000000I-200000J0D01*
G01*
X119800000Y-90800000D02*
G75*
G03*
X119800000Y-90800000I-200000J0D01*
G01*
D11*
X174700000Y-102900000D02*
X174700000Y-42900000D01*
X88700000Y-42900000D02*
X174700000Y-42900000D01*
X88700000Y-102900000D02*
X88700000Y-42900000D01*
X88700000Y-102900000D02*
X174700000Y-102900000D01*
D10*
G04 #@! TO.C,J4*
X163500000Y-59800000D02*
X164500000Y-59800000D01*
X167900000Y-59800000D02*
X168900000Y-59800000D01*
X171400000Y-63300000D02*
X171400000Y-62300000D01*
X171400000Y-67700000D02*
X171400000Y-66700000D01*
X167900000Y-70200000D02*
X168900000Y-70200000D01*
X163500000Y-70200000D02*
X164500000Y-70200000D01*
X161000000Y-66700000D02*
X161000000Y-67700000D01*
X161000000Y-62300000D02*
X161000000Y-63300000D01*
G04 #@! TO.C,SW1*
X129503333Y-88095000D02*
X129503333Y-86825000D01*
X130710000Y-86895000D02*
X129503333Y-86895000D01*
X130710000Y-87015000D02*
X129503333Y-87015000D01*
X130710000Y-87135000D02*
X129503333Y-87135000D01*
X130710000Y-87255000D02*
X129503333Y-87255000D01*
X130710000Y-87375000D02*
X129503333Y-87375000D01*
X130710000Y-87495000D02*
X129503333Y-87495000D01*
X130710000Y-87615000D02*
X129503333Y-87615000D01*
X130710000Y-87735000D02*
X129503333Y-87735000D01*
X130710000Y-87855000D02*
X129503333Y-87855000D01*
X130710000Y-87975000D02*
X129503333Y-87975000D01*
X127090000Y-88095000D02*
X130710000Y-88095000D01*
X127090000Y-86825000D02*
X127090000Y-88095000D01*
X130710000Y-86825000D02*
X127090000Y-86825000D01*
X130710000Y-88095000D02*
X130710000Y-86825000D01*
X129503333Y-90635000D02*
X129503333Y-89365000D01*
X130710000Y-89435000D02*
X129503333Y-89435000D01*
X130710000Y-89555000D02*
X129503333Y-89555000D01*
X130710000Y-89675000D02*
X129503333Y-89675000D01*
X130710000Y-89795000D02*
X129503333Y-89795000D01*
X130710000Y-89915000D02*
X129503333Y-89915000D01*
X130710000Y-90035000D02*
X129503333Y-90035000D01*
X130710000Y-90155000D02*
X129503333Y-90155000D01*
X130710000Y-90275000D02*
X129503333Y-90275000D01*
X130710000Y-90395000D02*
X129503333Y-90395000D01*
X130710000Y-90515000D02*
X129503333Y-90515000D01*
X127090000Y-90635000D02*
X130710000Y-90635000D01*
X127090000Y-89365000D02*
X127090000Y-90635000D01*
X130710000Y-89365000D02*
X127090000Y-89365000D01*
X130710000Y-90635000D02*
X130710000Y-89365000D01*
X129503333Y-93175000D02*
X129503333Y-91905000D01*
X130710000Y-91975000D02*
X129503333Y-91975000D01*
X130710000Y-92095000D02*
X129503333Y-92095000D01*
X130710000Y-92215000D02*
X129503333Y-92215000D01*
X130710000Y-92335000D02*
X129503333Y-92335000D01*
X130710000Y-92455000D02*
X129503333Y-92455000D01*
X130710000Y-92575000D02*
X129503333Y-92575000D01*
X130710000Y-92695000D02*
X129503333Y-92695000D01*
X130710000Y-92815000D02*
X129503333Y-92815000D01*
X130710000Y-92935000D02*
X129503333Y-92935000D01*
X130710000Y-93055000D02*
X129503333Y-93055000D01*
X127090000Y-93175000D02*
X130710000Y-93175000D01*
X127090000Y-91905000D02*
X127090000Y-93175000D01*
X130710000Y-91905000D02*
X127090000Y-91905000D01*
X130710000Y-93175000D02*
X130710000Y-91905000D01*
X132550000Y-94890000D02*
X132550000Y-93507000D01*
X132550000Y-94890000D02*
X131167000Y-94890000D01*
X125490000Y-91740000D02*
X125490000Y-90800000D01*
X125490000Y-94650000D02*
X125490000Y-93340000D01*
X125490000Y-89200000D02*
X125490000Y-88260000D01*
X125490000Y-86660000D02*
X125490000Y-85350000D01*
X132310000Y-86660000D02*
X132310000Y-85350000D01*
X132310000Y-89200000D02*
X132310000Y-88260000D01*
X132310000Y-91740000D02*
X132310000Y-90800000D01*
X132310000Y-94650000D02*
X132310000Y-93340000D01*
X132310000Y-85350000D02*
X125490000Y-85350000D01*
X132310000Y-94650000D02*
X125490000Y-94650000D01*
G04 #@! TO.C,J3*
X106170000Y-81640000D02*
X105570000Y-81640000D01*
X106170000Y-83240000D02*
X106170000Y-81640000D01*
X105570000Y-83240000D02*
X106170000Y-83240000D01*
X106170000Y-84180000D02*
X105570000Y-84180000D01*
X106170000Y-85780000D02*
X106170000Y-84180000D01*
X105570000Y-85780000D02*
X106170000Y-85780000D01*
X106170000Y-86720000D02*
X105570000Y-86720000D01*
X106170000Y-88320000D02*
X106170000Y-86720000D01*
X105570000Y-88320000D02*
X106170000Y-88320000D01*
X106170000Y-89260000D02*
X105570000Y-89260000D01*
X106170000Y-90860000D02*
X106170000Y-89260000D01*
X105570000Y-90860000D02*
X106170000Y-90860000D01*
X106170000Y-91800000D02*
X105570000Y-91800000D01*
X106170000Y-93400000D02*
X106170000Y-91800000D01*
X105570000Y-93400000D02*
X106170000Y-93400000D01*
X111590000Y-82690000D02*
X110590000Y-82690000D01*
X111590000Y-92350000D02*
X110590000Y-92350000D01*
X110060000Y-82690000D02*
X110590000Y-82440000D01*
X110060000Y-92350000D02*
X110060000Y-82690000D01*
X110590000Y-92600000D02*
X110060000Y-92350000D01*
X110590000Y-82440000D02*
X111590000Y-82440000D01*
X110590000Y-92600000D02*
X110590000Y-82440000D01*
X111590000Y-92600000D02*
X110590000Y-92600000D01*
X106600000Y-94270000D02*
X110600000Y-94270000D01*
X105570000Y-81060000D02*
X105570000Y-93980000D01*
X111590000Y-81060000D02*
X105570000Y-81060000D01*
X111590000Y-93980000D02*
X111590000Y-81060000D01*
X105570000Y-93980000D02*
X111590000Y-93980000D01*
G04 #@! TO.C,C9*
X122035000Y-45825000D02*
X119785000Y-45825000D01*
X120910000Y-44700000D02*
X120910000Y-46950000D01*
X105054437Y-47190000D02*
X103990000Y-48254437D01*
X122145563Y-47190000D02*
X123210000Y-48254437D01*
X122145563Y-47190000D02*
X118660000Y-47190000D01*
X105054437Y-47190000D02*
X108540000Y-47190000D01*
X103990000Y-48254437D02*
X103990000Y-66410000D01*
X123210000Y-48254437D02*
X123210000Y-66410000D01*
X123210000Y-66410000D02*
X118660000Y-66410000D01*
X103990000Y-66410000D02*
X108540000Y-66410000D01*
G04 #@! TO.C,J1*
X91193000Y-49000000D02*
X91193000Y-50000000D01*
X91193000Y-53400000D02*
X91193000Y-54400000D01*
X93693000Y-56900000D02*
X94693000Y-56900000D01*
X98093000Y-56900000D02*
X99093000Y-56900000D01*
X101593000Y-54400000D02*
X101593000Y-53400000D01*
X101593000Y-50000000D02*
X101593000Y-49000000D01*
X98093000Y-46500000D02*
X99093000Y-46500000D01*
X93693000Y-46500000D02*
X94693000Y-46500000D01*
G04 #@! TO.C,J2*
X93700000Y-88900000D02*
X94700000Y-88900000D01*
X98100000Y-88900000D02*
X99100000Y-88900000D01*
X101600000Y-92400000D02*
X101600000Y-91400000D01*
X101600000Y-96800000D02*
X101600000Y-95800000D01*
X98100000Y-99300000D02*
X99100000Y-99300000D01*
X93700000Y-99300000D02*
X94700000Y-99300000D01*
X91200000Y-95800000D02*
X91200000Y-96800000D01*
X91200000Y-91400000D02*
X91200000Y-92400000D01*
G04 #@! TO.C,J5*
X161000000Y-85000000D02*
X161000000Y-86000000D01*
X161000000Y-89400000D02*
X161000000Y-90400000D01*
X163500000Y-92900000D02*
X164500000Y-92900000D01*
X167900000Y-92900000D02*
X168900000Y-92900000D01*
X171400000Y-90400000D02*
X171400000Y-89400000D01*
X171400000Y-86000000D02*
X171400000Y-85000000D01*
X167900000Y-82500000D02*
X168900000Y-82500000D01*
X163500000Y-82500000D02*
X164500000Y-82500000D01*
G04 #@! TO.C,JP1*
X167910000Y-56577064D02*
X167910000Y-52222936D01*
X164490000Y-56577064D02*
X164490000Y-52222936D01*
G04 #@! TO.C,R3*
X123872936Y-72560000D02*
X126927064Y-72560000D01*
X123872936Y-69840000D02*
X126927064Y-69840000D01*
G04 #@! TO.C,R4*
X126972936Y-74640000D02*
X130027064Y-74640000D01*
X126972936Y-77360000D02*
X130027064Y-77360000D01*
G04 #@! TO.C,C5*
X118610000Y-70338748D02*
X118610000Y-72661252D01*
X115190000Y-70338748D02*
X115190000Y-72661252D01*
G04 #@! TO.C,R1*
X129427064Y-84460000D02*
X126372936Y-84460000D01*
X129427064Y-81740000D02*
X126372936Y-81740000D01*
G04 #@! TO.C,U2*
X118815000Y-81710000D02*
X118090000Y-81710000D01*
X118090000Y-81710000D02*
X118090000Y-80985000D01*
X121585000Y-77490000D02*
X122310000Y-77490000D01*
X122310000Y-77490000D02*
X122310000Y-78215000D01*
X118815000Y-77490000D02*
X118090000Y-77490000D01*
X118090000Y-77490000D02*
X118090000Y-78215000D01*
X121585000Y-81710000D02*
X122310000Y-81710000D01*
G04 #@! TO.C,C4*
X107038748Y-72010000D02*
X109361252Y-72010000D01*
X107038748Y-68590000D02*
X109361252Y-68590000D01*
G04 #@! TO.C,U3*
X118381000Y-90510000D02*
X118831000Y-90510000D01*
X115611000Y-87290000D02*
X115611000Y-87740000D01*
X116061000Y-87290000D02*
X115611000Y-87290000D01*
X118831000Y-87290000D02*
X118831000Y-87740000D01*
X118381000Y-87290000D02*
X118831000Y-87290000D01*
X115611000Y-90510000D02*
X115611000Y-90060000D01*
X116061000Y-90510000D02*
X115611000Y-90510000D01*
G04 #@! TO.C,TP1*
X121800000Y-83800000D02*
G75*
G03*
X121800000Y-83800000I-700000J0D01*
G01*
G04 #@! TO.C,TP2*
X114300000Y-84700000D02*
G75*
G03*
X114300000Y-84700000I-700000J0D01*
G01*
G04 #@! TO.C,TP3*
X121100000Y-86300000D02*
G75*
G03*
X121100000Y-86300000I-700000J0D01*
G01*
G04 #@! TO.C,TP4*
X129600000Y-79500000D02*
G75*
G03*
X129600000Y-79500000I-700000J0D01*
G01*
G04 #@! TO.C,C1*
X105511252Y-72540000D02*
X104088748Y-72540000D01*
X105511252Y-75260000D02*
X104088748Y-75260000D01*
G04 #@! TO.C,C7*
X102140000Y-77188748D02*
X102140000Y-78611252D01*
X104860000Y-77188748D02*
X104860000Y-78611252D01*
G04 #@! TO.C,L1*
X110840000Y-76297936D02*
X110840000Y-77502064D01*
X113560000Y-76297936D02*
X113560000Y-77502064D01*
G04 #@! TO.C,U1*
X107500000Y-76300000D02*
X108500000Y-76300000D01*
X106500000Y-78500000D02*
X108500000Y-78500000D01*
G04 #@! TO.C,Q1*
X143725000Y-62551000D02*
X143725000Y-63651000D01*
X145535000Y-62551000D02*
X143725000Y-62551000D01*
X145535000Y-61051000D02*
X145535000Y-62551000D01*
X136945000Y-62551000D02*
X136945000Y-67676000D01*
X135135000Y-62551000D02*
X136945000Y-62551000D01*
X135135000Y-61051000D02*
X135135000Y-62551000D01*
G04 #@! TO.C,Q2*
X143744000Y-81105000D02*
X143744000Y-82205000D01*
X145554000Y-81105000D02*
X143744000Y-81105000D01*
X145554000Y-79605000D02*
X145554000Y-81105000D01*
X136964000Y-81105000D02*
X136964000Y-86230000D01*
X135154000Y-81105000D02*
X136964000Y-81105000D01*
X135154000Y-79605000D02*
X135154000Y-81105000D01*
G04 #@! TO.C,Q3*
X146673000Y-61063000D02*
X146673000Y-62563000D01*
X146673000Y-62563000D02*
X148483000Y-62563000D01*
X148483000Y-62563000D02*
X148483000Y-67688000D01*
X157073000Y-61063000D02*
X157073000Y-62563000D01*
X157073000Y-62563000D02*
X155263000Y-62563000D01*
X155263000Y-62563000D02*
X155263000Y-63663000D01*
G04 #@! TO.C,Q4*
X146692000Y-79593000D02*
X146692000Y-81093000D01*
X146692000Y-81093000D02*
X148502000Y-81093000D01*
X148502000Y-81093000D02*
X148502000Y-86218000D01*
X157092000Y-79593000D02*
X157092000Y-81093000D01*
X157092000Y-81093000D02*
X155282000Y-81093000D01*
X155282000Y-81093000D02*
X155282000Y-82193000D01*
G04 #@! TD*
G04 #@! TO.C,J4*
D12*
X171366666Y-57152380D02*
X171366666Y-57866666D01*
X171319047Y-58009523D01*
X171223809Y-58104761D01*
X171080952Y-58152380D01*
X170985714Y-58152380D01*
X172271428Y-57485714D02*
X172271428Y-58152380D01*
X172033333Y-57104761D02*
X171795238Y-57819047D01*
X172414285Y-57819047D01*
G04 #@! TO.C,SW1*
X127566666Y-96054761D02*
X127709523Y-96102380D01*
X127947619Y-96102380D01*
X128042857Y-96054761D01*
X128090476Y-96007142D01*
X128138095Y-95911904D01*
X128138095Y-95816666D01*
X128090476Y-95721428D01*
X128042857Y-95673809D01*
X127947619Y-95626190D01*
X127757142Y-95578571D01*
X127661904Y-95530952D01*
X127614285Y-95483333D01*
X127566666Y-95388095D01*
X127566666Y-95292857D01*
X127614285Y-95197619D01*
X127661904Y-95150000D01*
X127757142Y-95102380D01*
X127995238Y-95102380D01*
X128138095Y-95150000D01*
X128471428Y-95102380D02*
X128709523Y-96102380D01*
X128900000Y-95388095D01*
X129090476Y-96102380D01*
X129328571Y-95102380D01*
X130233333Y-96102380D02*
X129661904Y-96102380D01*
X129947619Y-96102380D02*
X129947619Y-95102380D01*
X129852380Y-95245238D01*
X129757142Y-95340476D01*
X129661904Y-95388095D01*
G04 #@! TO.C,J3*
X103932380Y-87853333D02*
X104646666Y-87853333D01*
X104789523Y-87900952D01*
X104884761Y-87996190D01*
X104932380Y-88139047D01*
X104932380Y-88234285D01*
X103932380Y-87472380D02*
X103932380Y-86853333D01*
X104313333Y-87186666D01*
X104313333Y-87043809D01*
X104360952Y-86948571D01*
X104408571Y-86900952D01*
X104503809Y-86853333D01*
X104741904Y-86853333D01*
X104837142Y-86900952D01*
X104884761Y-86948571D01*
X104932380Y-87043809D01*
X104932380Y-87329523D01*
X104884761Y-87424761D01*
X104837142Y-87472380D01*
G04 #@! TO.C,C9*
X124507142Y-56966666D02*
X124554761Y-57014285D01*
X124602380Y-57157142D01*
X124602380Y-57252380D01*
X124554761Y-57395238D01*
X124459523Y-57490476D01*
X124364285Y-57538095D01*
X124173809Y-57585714D01*
X124030952Y-57585714D01*
X123840476Y-57538095D01*
X123745238Y-57490476D01*
X123650000Y-57395238D01*
X123602380Y-57252380D01*
X123602380Y-57157142D01*
X123650000Y-57014285D01*
X123697619Y-56966666D01*
X124602380Y-56490476D02*
X124602380Y-56300000D01*
X124554761Y-56204761D01*
X124507142Y-56157142D01*
X124364285Y-56061904D01*
X124173809Y-56014285D01*
X123792857Y-56014285D01*
X123697619Y-56061904D01*
X123650000Y-56109523D01*
X123602380Y-56204761D01*
X123602380Y-56395238D01*
X123650000Y-56490476D01*
X123697619Y-56538095D01*
X123792857Y-56585714D01*
X124030952Y-56585714D01*
X124126190Y-56538095D01*
X124173809Y-56490476D01*
X124221428Y-56395238D01*
X124221428Y-56204761D01*
X124173809Y-56109523D01*
X124126190Y-56061904D01*
X124030952Y-56014285D01*
G04 #@! TO.C,J1*
X90471666Y-58899380D02*
X90471666Y-59613666D01*
X90424047Y-59756523D01*
X90328809Y-59851761D01*
X90185952Y-59899380D01*
X90090714Y-59899380D01*
X91471666Y-59899380D02*
X90900238Y-59899380D01*
X91185952Y-59899380D02*
X91185952Y-58899380D01*
X91090714Y-59042238D01*
X90995476Y-59137476D01*
X90900238Y-59185095D01*
G04 #@! TO.C,J2*
X96066666Y-86052380D02*
X96066666Y-86766666D01*
X96019047Y-86909523D01*
X95923809Y-87004761D01*
X95780952Y-87052380D01*
X95685714Y-87052380D01*
X96495238Y-86147619D02*
X96542857Y-86100000D01*
X96638095Y-86052380D01*
X96876190Y-86052380D01*
X96971428Y-86100000D01*
X97019047Y-86147619D01*
X97066666Y-86242857D01*
X97066666Y-86338095D01*
X97019047Y-86480952D01*
X96447619Y-87052380D01*
X97066666Y-87052380D01*
G04 #@! TO.C,J5*
X165866666Y-79652380D02*
X165866666Y-80366666D01*
X165819047Y-80509523D01*
X165723809Y-80604761D01*
X165580952Y-80652380D01*
X165485714Y-80652380D01*
X166819047Y-79652380D02*
X166342857Y-79652380D01*
X166295238Y-80128571D01*
X166342857Y-80080952D01*
X166438095Y-80033333D01*
X166676190Y-80033333D01*
X166771428Y-80080952D01*
X166819047Y-80128571D01*
X166866666Y-80223809D01*
X166866666Y-80461904D01*
X166819047Y-80557142D01*
X166771428Y-80604761D01*
X166676190Y-80652380D01*
X166438095Y-80652380D01*
X166342857Y-80604761D01*
X166295238Y-80557142D01*
G04 #@! TO.C,JP1*
X163032380Y-55233333D02*
X163746666Y-55233333D01*
X163889523Y-55280952D01*
X163984761Y-55376190D01*
X164032380Y-55519047D01*
X164032380Y-55614285D01*
X164032380Y-54757142D02*
X163032380Y-54757142D01*
X163032380Y-54376190D01*
X163080000Y-54280952D01*
X163127619Y-54233333D01*
X163222857Y-54185714D01*
X163365714Y-54185714D01*
X163460952Y-54233333D01*
X163508571Y-54280952D01*
X163556190Y-54376190D01*
X163556190Y-54757142D01*
X164032380Y-53233333D02*
X164032380Y-53804761D01*
X164032380Y-53519047D02*
X163032380Y-53519047D01*
X163175238Y-53614285D01*
X163270476Y-53709523D01*
X163318095Y-53804761D01*
G04 #@! TO.C,R3*
X123333333Y-74052380D02*
X123000000Y-73576190D01*
X122761904Y-74052380D02*
X122761904Y-73052380D01*
X123142857Y-73052380D01*
X123238095Y-73100000D01*
X123285714Y-73147619D01*
X123333333Y-73242857D01*
X123333333Y-73385714D01*
X123285714Y-73480952D01*
X123238095Y-73528571D01*
X123142857Y-73576190D01*
X122761904Y-73576190D01*
X123666666Y-73052380D02*
X124285714Y-73052380D01*
X123952380Y-73433333D01*
X124095238Y-73433333D01*
X124190476Y-73480952D01*
X124238095Y-73528571D01*
X124285714Y-73623809D01*
X124285714Y-73861904D01*
X124238095Y-73957142D01*
X124190476Y-74004761D01*
X124095238Y-74052380D01*
X123809523Y-74052380D01*
X123714285Y-74004761D01*
X123666666Y-73957142D01*
G04 #@! TO.C,R4*
X128333333Y-74172380D02*
X128000000Y-73696190D01*
X127761904Y-74172380D02*
X127761904Y-73172380D01*
X128142857Y-73172380D01*
X128238095Y-73220000D01*
X128285714Y-73267619D01*
X128333333Y-73362857D01*
X128333333Y-73505714D01*
X128285714Y-73600952D01*
X128238095Y-73648571D01*
X128142857Y-73696190D01*
X127761904Y-73696190D01*
X129190476Y-73505714D02*
X129190476Y-74172380D01*
X128952380Y-73124761D02*
X128714285Y-73839047D01*
X129333333Y-73839047D01*
G04 #@! TO.C,C5*
X114757142Y-71966666D02*
X114804761Y-72014285D01*
X114852380Y-72157142D01*
X114852380Y-72252380D01*
X114804761Y-72395238D01*
X114709523Y-72490476D01*
X114614285Y-72538095D01*
X114423809Y-72585714D01*
X114280952Y-72585714D01*
X114090476Y-72538095D01*
X113995238Y-72490476D01*
X113900000Y-72395238D01*
X113852380Y-72252380D01*
X113852380Y-72157142D01*
X113900000Y-72014285D01*
X113947619Y-71966666D01*
X113852380Y-71061904D02*
X113852380Y-71538095D01*
X114328571Y-71585714D01*
X114280952Y-71538095D01*
X114233333Y-71442857D01*
X114233333Y-71204761D01*
X114280952Y-71109523D01*
X114328571Y-71061904D01*
X114423809Y-71014285D01*
X114661904Y-71014285D01*
X114757142Y-71061904D01*
X114804761Y-71109523D01*
X114852380Y-71204761D01*
X114852380Y-71442857D01*
X114804761Y-71538095D01*
X114757142Y-71585714D01*
G04 #@! TO.C,R1*
X132233333Y-83752380D02*
X131900000Y-83276190D01*
X131661904Y-83752380D02*
X131661904Y-82752380D01*
X132042857Y-82752380D01*
X132138095Y-82800000D01*
X132185714Y-82847619D01*
X132233333Y-82942857D01*
X132233333Y-83085714D01*
X132185714Y-83180952D01*
X132138095Y-83228571D01*
X132042857Y-83276190D01*
X131661904Y-83276190D01*
X133185714Y-83752380D02*
X132614285Y-83752380D01*
X132900000Y-83752380D02*
X132900000Y-82752380D01*
X132804761Y-82895238D01*
X132709523Y-82990476D01*
X132614285Y-83038095D01*
G04 #@! TO.C,U2*
X116538095Y-76152380D02*
X116538095Y-76961904D01*
X116585714Y-77057142D01*
X116633333Y-77104761D01*
X116728571Y-77152380D01*
X116919047Y-77152380D01*
X117014285Y-77104761D01*
X117061904Y-77057142D01*
X117109523Y-76961904D01*
X117109523Y-76152380D01*
X117538095Y-76247619D02*
X117585714Y-76200000D01*
X117680952Y-76152380D01*
X117919047Y-76152380D01*
X118014285Y-76200000D01*
X118061904Y-76247619D01*
X118109523Y-76342857D01*
X118109523Y-76438095D01*
X118061904Y-76580952D01*
X117490476Y-77152380D01*
X118109523Y-77152380D01*
G04 #@! TO.C,C4*
X106833333Y-68057142D02*
X106785714Y-68104761D01*
X106642857Y-68152380D01*
X106547619Y-68152380D01*
X106404761Y-68104761D01*
X106309523Y-68009523D01*
X106261904Y-67914285D01*
X106214285Y-67723809D01*
X106214285Y-67580952D01*
X106261904Y-67390476D01*
X106309523Y-67295238D01*
X106404761Y-67200000D01*
X106547619Y-67152380D01*
X106642857Y-67152380D01*
X106785714Y-67200000D01*
X106833333Y-67247619D01*
X107690476Y-67485714D02*
X107690476Y-68152380D01*
X107452380Y-67104761D02*
X107214285Y-67819047D01*
X107833333Y-67819047D01*
G04 #@! TO.C,U3*
X113938095Y-86152380D02*
X113938095Y-86961904D01*
X113985714Y-87057142D01*
X114033333Y-87104761D01*
X114128571Y-87152380D01*
X114319047Y-87152380D01*
X114414285Y-87104761D01*
X114461904Y-87057142D01*
X114509523Y-86961904D01*
X114509523Y-86152380D01*
X114890476Y-86152380D02*
X115509523Y-86152380D01*
X115176190Y-86533333D01*
X115319047Y-86533333D01*
X115414285Y-86580952D01*
X115461904Y-86628571D01*
X115509523Y-86723809D01*
X115509523Y-86961904D01*
X115461904Y-87057142D01*
X115414285Y-87104761D01*
X115319047Y-87152380D01*
X115033333Y-87152380D01*
X114938095Y-87104761D01*
X114890476Y-87057142D01*
G04 #@! TO.C,TP1*
X121938095Y-84052380D02*
X122509523Y-84052380D01*
X122223809Y-85052380D02*
X122223809Y-84052380D01*
X122842857Y-85052380D02*
X122842857Y-84052380D01*
X123223809Y-84052380D01*
X123319047Y-84100000D01*
X123366666Y-84147619D01*
X123414285Y-84242857D01*
X123414285Y-84385714D01*
X123366666Y-84480952D01*
X123319047Y-84528571D01*
X123223809Y-84576190D01*
X122842857Y-84576190D01*
X124366666Y-85052380D02*
X123795238Y-85052380D01*
X124080952Y-85052380D02*
X124080952Y-84052380D01*
X123985714Y-84195238D01*
X123890476Y-84290476D01*
X123795238Y-84338095D01*
G04 #@! TO.C,TP2*
X112338095Y-82704380D02*
X112909523Y-82704380D01*
X112623809Y-83704380D02*
X112623809Y-82704380D01*
X113242857Y-83704380D02*
X113242857Y-82704380D01*
X113623809Y-82704380D01*
X113719047Y-82752000D01*
X113766666Y-82799619D01*
X113814285Y-82894857D01*
X113814285Y-83037714D01*
X113766666Y-83132952D01*
X113719047Y-83180571D01*
X113623809Y-83228190D01*
X113242857Y-83228190D01*
X114195238Y-82799619D02*
X114242857Y-82752000D01*
X114338095Y-82704380D01*
X114576190Y-82704380D01*
X114671428Y-82752000D01*
X114719047Y-82799619D01*
X114766666Y-82894857D01*
X114766666Y-82990095D01*
X114719047Y-83132952D01*
X114147619Y-83704380D01*
X114766666Y-83704380D01*
G04 #@! TO.C,TP3*
X119952380Y-89761904D02*
X119952380Y-89190476D01*
X120952380Y-89476190D02*
X119952380Y-89476190D01*
X120952380Y-88857142D02*
X119952380Y-88857142D01*
X119952380Y-88476190D01*
X120000000Y-88380952D01*
X120047619Y-88333333D01*
X120142857Y-88285714D01*
X120285714Y-88285714D01*
X120380952Y-88333333D01*
X120428571Y-88380952D01*
X120476190Y-88476190D01*
X120476190Y-88857142D01*
X119952380Y-87952380D02*
X119952380Y-87333333D01*
X120333333Y-87666666D01*
X120333333Y-87523809D01*
X120380952Y-87428571D01*
X120428571Y-87380952D01*
X120523809Y-87333333D01*
X120761904Y-87333333D01*
X120857142Y-87380952D01*
X120904761Y-87428571D01*
X120952380Y-87523809D01*
X120952380Y-87809523D01*
X120904761Y-87904761D01*
X120857142Y-87952380D01*
G04 #@! TO.C,TP4*
X127638095Y-77504380D02*
X128209523Y-77504380D01*
X127923809Y-78504380D02*
X127923809Y-77504380D01*
X128542857Y-78504380D02*
X128542857Y-77504380D01*
X128923809Y-77504380D01*
X129019047Y-77552000D01*
X129066666Y-77599619D01*
X129114285Y-77694857D01*
X129114285Y-77837714D01*
X129066666Y-77932952D01*
X129019047Y-77980571D01*
X128923809Y-78028190D01*
X128542857Y-78028190D01*
X129971428Y-77837714D02*
X129971428Y-78504380D01*
X129733333Y-77456761D02*
X129495238Y-78171047D01*
X130114285Y-78171047D01*
G04 #@! TO.C,H1*
X157038095Y-48452380D02*
X157038095Y-47452380D01*
X157038095Y-47928571D02*
X157609523Y-47928571D01*
X157609523Y-48452380D02*
X157609523Y-47452380D01*
X158609523Y-48452380D02*
X158038095Y-48452380D01*
X158323809Y-48452380D02*
X158323809Y-47452380D01*
X158228571Y-47595238D01*
X158133333Y-47690476D01*
X158038095Y-47738095D01*
G04 #@! TO.C,H2*
X148538095Y-98452380D02*
X148538095Y-97452380D01*
X148538095Y-97928571D02*
X149109523Y-97928571D01*
X149109523Y-98452380D02*
X149109523Y-97452380D01*
X149538095Y-97547619D02*
X149585714Y-97500000D01*
X149680952Y-97452380D01*
X149919047Y-97452380D01*
X150014285Y-97500000D01*
X150061904Y-97547619D01*
X150109523Y-97642857D01*
X150109523Y-97738095D01*
X150061904Y-97880952D01*
X149490476Y-98452380D01*
X150109523Y-98452380D01*
G04 #@! TO.C,H3*
X92438095Y-68552380D02*
X92438095Y-67552380D01*
X92438095Y-68028571D02*
X93009523Y-68028571D01*
X93009523Y-68552380D02*
X93009523Y-67552380D01*
X93390476Y-67552380D02*
X94009523Y-67552380D01*
X93676190Y-67933333D01*
X93819047Y-67933333D01*
X93914285Y-67980952D01*
X93961904Y-68028571D01*
X94009523Y-68123809D01*
X94009523Y-68361904D01*
X93961904Y-68457142D01*
X93914285Y-68504761D01*
X93819047Y-68552380D01*
X93533333Y-68552380D01*
X93438095Y-68504761D01*
X93390476Y-68457142D01*
G04 #@! TO.C,C1*
X101433333Y-74257142D02*
X101385714Y-74304761D01*
X101242857Y-74352380D01*
X101147619Y-74352380D01*
X101004761Y-74304761D01*
X100909523Y-74209523D01*
X100861904Y-74114285D01*
X100814285Y-73923809D01*
X100814285Y-73780952D01*
X100861904Y-73590476D01*
X100909523Y-73495238D01*
X101004761Y-73400000D01*
X101147619Y-73352380D01*
X101242857Y-73352380D01*
X101385714Y-73400000D01*
X101433333Y-73447619D01*
X102385714Y-74352380D02*
X101814285Y-74352380D01*
X102100000Y-74352380D02*
X102100000Y-73352380D01*
X102004761Y-73495238D01*
X101909523Y-73590476D01*
X101814285Y-73638095D01*
G04 #@! TO.C,C7*
X104157142Y-81366666D02*
X104204761Y-81414285D01*
X104252380Y-81557142D01*
X104252380Y-81652380D01*
X104204761Y-81795238D01*
X104109523Y-81890476D01*
X104014285Y-81938095D01*
X103823809Y-81985714D01*
X103680952Y-81985714D01*
X103490476Y-81938095D01*
X103395238Y-81890476D01*
X103300000Y-81795238D01*
X103252380Y-81652380D01*
X103252380Y-81557142D01*
X103300000Y-81414285D01*
X103347619Y-81366666D01*
X103252380Y-81033333D02*
X103252380Y-80366666D01*
X104252380Y-80795238D01*
G04 #@! TO.C,L1*
X112552380Y-79966666D02*
X112552380Y-80442857D01*
X111552380Y-80442857D01*
X112552380Y-79109523D02*
X112552380Y-79680952D01*
X112552380Y-79395238D02*
X111552380Y-79395238D01*
X111695238Y-79490476D01*
X111790476Y-79585714D01*
X111838095Y-79680952D01*
G04 #@! TO.C,U1*
X106738095Y-78852380D02*
X106738095Y-79661904D01*
X106785714Y-79757142D01*
X106833333Y-79804761D01*
X106928571Y-79852380D01*
X107119047Y-79852380D01*
X107214285Y-79804761D01*
X107261904Y-79757142D01*
X107309523Y-79661904D01*
X107309523Y-78852380D01*
X108309523Y-79852380D02*
X107738095Y-79852380D01*
X108023809Y-79852380D02*
X108023809Y-78852380D01*
X107928571Y-78995238D01*
X107833333Y-79090476D01*
X107738095Y-79138095D01*
G04 #@! TO.C,Q1*
X134232619Y-59696238D02*
X134185000Y-59791476D01*
X134089761Y-59886714D01*
X133946904Y-60029571D01*
X133899285Y-60124809D01*
X133899285Y-60220047D01*
X134137380Y-60172428D02*
X134089761Y-60267666D01*
X133994523Y-60362904D01*
X133804047Y-60410523D01*
X133470714Y-60410523D01*
X133280238Y-60362904D01*
X133185000Y-60267666D01*
X133137380Y-60172428D01*
X133137380Y-59981952D01*
X133185000Y-59886714D01*
X133280238Y-59791476D01*
X133470714Y-59743857D01*
X133804047Y-59743857D01*
X133994523Y-59791476D01*
X134089761Y-59886714D01*
X134137380Y-59981952D01*
X134137380Y-60172428D01*
X134137380Y-58791476D02*
X134137380Y-59362904D01*
X134137380Y-59077190D02*
X133137380Y-59077190D01*
X133280238Y-59172428D01*
X133375476Y-59267666D01*
X133423095Y-59362904D01*
G04 #@! TO.C,Q2*
X134251619Y-78250238D02*
X134204000Y-78345476D01*
X134108761Y-78440714D01*
X133965904Y-78583571D01*
X133918285Y-78678809D01*
X133918285Y-78774047D01*
X134156380Y-78726428D02*
X134108761Y-78821666D01*
X134013523Y-78916904D01*
X133823047Y-78964523D01*
X133489714Y-78964523D01*
X133299238Y-78916904D01*
X133204000Y-78821666D01*
X133156380Y-78726428D01*
X133156380Y-78535952D01*
X133204000Y-78440714D01*
X133299238Y-78345476D01*
X133489714Y-78297857D01*
X133823047Y-78297857D01*
X134013523Y-78345476D01*
X134108761Y-78440714D01*
X134156380Y-78535952D01*
X134156380Y-78726428D01*
X133251619Y-77916904D02*
X133204000Y-77869285D01*
X133156380Y-77774047D01*
X133156380Y-77535952D01*
X133204000Y-77440714D01*
X133251619Y-77393095D01*
X133346857Y-77345476D01*
X133442095Y-77345476D01*
X133584952Y-77393095D01*
X134156380Y-77964523D01*
X134156380Y-77345476D01*
G04 #@! TO.C,Q3*
X145770619Y-59708238D02*
X145723000Y-59803476D01*
X145627761Y-59898714D01*
X145484904Y-60041571D01*
X145437285Y-60136809D01*
X145437285Y-60232047D01*
X145675380Y-60184428D02*
X145627761Y-60279666D01*
X145532523Y-60374904D01*
X145342047Y-60422523D01*
X145008714Y-60422523D01*
X144818238Y-60374904D01*
X144723000Y-60279666D01*
X144675380Y-60184428D01*
X144675380Y-59993952D01*
X144723000Y-59898714D01*
X144818238Y-59803476D01*
X145008714Y-59755857D01*
X145342047Y-59755857D01*
X145532523Y-59803476D01*
X145627761Y-59898714D01*
X145675380Y-59993952D01*
X145675380Y-60184428D01*
X144675380Y-59422523D02*
X144675380Y-58803476D01*
X145056333Y-59136809D01*
X145056333Y-58993952D01*
X145103952Y-58898714D01*
X145151571Y-58851095D01*
X145246809Y-58803476D01*
X145484904Y-58803476D01*
X145580142Y-58851095D01*
X145627761Y-58898714D01*
X145675380Y-58993952D01*
X145675380Y-59279666D01*
X145627761Y-59374904D01*
X145580142Y-59422523D01*
G04 #@! TO.C,Q4*
X145789619Y-78238238D02*
X145742000Y-78333476D01*
X145646761Y-78428714D01*
X145503904Y-78571571D01*
X145456285Y-78666809D01*
X145456285Y-78762047D01*
X145694380Y-78714428D02*
X145646761Y-78809666D01*
X145551523Y-78904904D01*
X145361047Y-78952523D01*
X145027714Y-78952523D01*
X144837238Y-78904904D01*
X144742000Y-78809666D01*
X144694380Y-78714428D01*
X144694380Y-78523952D01*
X144742000Y-78428714D01*
X144837238Y-78333476D01*
X145027714Y-78285857D01*
X145361047Y-78285857D01*
X145551523Y-78333476D01*
X145646761Y-78428714D01*
X145694380Y-78523952D01*
X145694380Y-78714428D01*
X145027714Y-77428714D02*
X145694380Y-77428714D01*
X144646761Y-77666809D02*
X145361047Y-77904904D01*
X145361047Y-77285857D01*
G04 #@! TD*
M02*
