G04 #@! TF.GenerationSoftware,KiCad,Pcbnew,(5.1.9)-1*
G04 #@! TF.CreationDate,2021-06-30T16:08:22-04:00*
G04 #@! TF.ProjectId,Motor Controller 2020,4d6f746f-7220-4436-9f6e-74726f6c6c65,rev?*
G04 #@! TF.SameCoordinates,Original*
G04 #@! TF.FileFunction,Soldermask,Bot*
G04 #@! TF.FilePolarity,Negative*
%FSLAX46Y46*%
G04 Gerber Fmt 4.6, Leading zero omitted, Abs format (unit mm)*
G04 Created by KiCad (PCBNEW (5.1.9)-1) date 2021-06-30 16:08:22*
%MOMM*%
%LPD*%
G01*
G04 APERTURE LIST*
G04 #@! TA.AperFunction,Profile*
%ADD10C,0.050000*%
G04 #@! TD*
%ADD11C,3.200000*%
%ADD12O,2.190000X1.740000*%
%ADD13R,10.800000X9.400000*%
%ADD14R,1.100000X4.600000*%
G04 APERTURE END LIST*
D10*
X174700000Y-102900000D02*
X174700000Y-42900000D01*
X88700000Y-42900000D02*
X174700000Y-42900000D01*
X88700000Y-102900000D02*
X88700000Y-42900000D01*
X88700000Y-102900000D02*
X174700000Y-102900000D01*
G04 #@! TO.C,C3*
G36*
G01*
X110275000Y-74850002D02*
X110275000Y-71949998D01*
G75*
G02*
X110524998Y-71700000I249998J0D01*
G01*
X111600002Y-71700000D01*
G75*
G02*
X111850000Y-71949998I0J-249998D01*
G01*
X111850000Y-74850002D01*
G75*
G02*
X111600002Y-75100000I-249998J0D01*
G01*
X110524998Y-75100000D01*
G75*
G02*
X110275000Y-74850002I0J249998D01*
G01*
G37*
G36*
G01*
X114550000Y-74850002D02*
X114550000Y-71949998D01*
G75*
G02*
X114799998Y-71700000I249998J0D01*
G01*
X115875002Y-71700000D01*
G75*
G02*
X116125000Y-71949998I0J-249998D01*
G01*
X116125000Y-74850002D01*
G75*
G02*
X115875002Y-75100000I-249998J0D01*
G01*
X114799998Y-75100000D01*
G75*
G02*
X114550000Y-74850002I0J249998D01*
G01*
G37*
G04 #@! TD*
D11*
G04 #@! TO.C,J4*
X166200000Y-65000000D03*
X166200000Y-69435000D03*
X170635000Y-65000000D03*
X166200000Y-60565000D03*
X161765000Y-65000000D03*
X161765000Y-69435000D03*
X161765000Y-60565000D03*
X170635000Y-60565000D03*
X170635000Y-69435000D03*
G04 #@! TD*
G04 #@! TO.C,R6*
G36*
G01*
X132225000Y-78124999D02*
X132225000Y-80275001D01*
G75*
G02*
X131975001Y-80525000I-249999J0D01*
G01*
X131249999Y-80525000D01*
G75*
G02*
X131000000Y-80275001I0J249999D01*
G01*
X131000000Y-78124999D01*
G75*
G02*
X131249999Y-77875000I249999J0D01*
G01*
X131975001Y-77875000D01*
G75*
G02*
X132225000Y-78124999I0J-249999D01*
G01*
G37*
G36*
G01*
X127600000Y-78124999D02*
X127600000Y-80275001D01*
G75*
G02*
X127350001Y-80525000I-249999J0D01*
G01*
X126624999Y-80525000D01*
G75*
G02*
X126375000Y-80275001I0J249999D01*
G01*
X126375000Y-78124999D01*
G75*
G02*
X126624999Y-77875000I249999J0D01*
G01*
X127350001Y-77875000D01*
G75*
G02*
X127600000Y-78124999I0J-249999D01*
G01*
G37*
G04 #@! TD*
G04 #@! TO.C,J3*
G36*
G01*
X109445001Y-93470000D02*
X107754999Y-93470000D01*
G75*
G02*
X107505000Y-93220001I0J249999D01*
G01*
X107505000Y-91979999D01*
G75*
G02*
X107754999Y-91730000I249999J0D01*
G01*
X109445001Y-91730000D01*
G75*
G02*
X109695000Y-91979999I0J-249999D01*
G01*
X109695000Y-93220001D01*
G75*
G02*
X109445001Y-93470000I-249999J0D01*
G01*
G37*
D12*
X108600000Y-90060000D03*
X108600000Y-87520000D03*
X108600000Y-84980000D03*
X108600000Y-82440000D03*
G04 #@! TD*
G04 #@! TO.C,C11*
G36*
G01*
X112649998Y-81275000D02*
X115550002Y-81275000D01*
G75*
G02*
X115800000Y-81524998I0J-249998D01*
G01*
X115800000Y-82600002D01*
G75*
G02*
X115550002Y-82850000I-249998J0D01*
G01*
X112649998Y-82850000D01*
G75*
G02*
X112400000Y-82600002I0J249998D01*
G01*
X112400000Y-81524998D01*
G75*
G02*
X112649998Y-81275000I249998J0D01*
G01*
G37*
G36*
G01*
X112649998Y-85550000D02*
X115550002Y-85550000D01*
G75*
G02*
X115800000Y-85799998I0J-249998D01*
G01*
X115800000Y-86875002D01*
G75*
G02*
X115550002Y-87125000I-249998J0D01*
G01*
X112649998Y-87125000D01*
G75*
G02*
X112400000Y-86875002I0J249998D01*
G01*
X112400000Y-85799998D01*
G75*
G02*
X112649998Y-85550000I249998J0D01*
G01*
G37*
G04 #@! TD*
D11*
G04 #@! TO.C,J1*
X100828000Y-56135000D03*
X100828000Y-47265000D03*
X91958000Y-47265000D03*
X91958000Y-56135000D03*
X91958000Y-51700000D03*
X96393000Y-47265000D03*
X100828000Y-51700000D03*
X96393000Y-56135000D03*
X96393000Y-51700000D03*
G04 #@! TD*
G04 #@! TO.C,J2*
X96400000Y-94100000D03*
X96400000Y-98535000D03*
X100835000Y-94100000D03*
X96400000Y-89665000D03*
X91965000Y-94100000D03*
X91965000Y-98535000D03*
X91965000Y-89665000D03*
X100835000Y-89665000D03*
X100835000Y-98535000D03*
G04 #@! TD*
G04 #@! TO.C,J5*
X170635000Y-92135000D03*
X170635000Y-83265000D03*
X161765000Y-83265000D03*
X161765000Y-92135000D03*
X161765000Y-87700000D03*
X166200000Y-83265000D03*
X170635000Y-87700000D03*
X166200000Y-92135000D03*
X166200000Y-87700000D03*
G04 #@! TD*
D13*
G04 #@! TO.C,Q5*
X151892000Y-74653000D03*
D14*
X149352000Y-83803000D03*
X151892000Y-83803000D03*
X154432000Y-83803000D03*
G04 #@! TD*
G04 #@! TO.C,Q6*
X142748000Y-65376000D03*
X140208000Y-65376000D03*
X137668000Y-65376000D03*
D13*
X140208000Y-56226000D03*
G04 #@! TD*
D14*
G04 #@! TO.C,Q8*
X142875000Y-83791000D03*
X140335000Y-83791000D03*
X137795000Y-83791000D03*
D13*
X140335000Y-74641000D03*
G04 #@! TD*
D14*
G04 #@! TO.C,Q7*
X154432000Y-65376000D03*
X151892000Y-65376000D03*
X149352000Y-65376000D03*
D13*
X151892000Y-56226000D03*
G04 #@! TD*
G04 #@! TO.C,JP2*
G36*
G01*
X152950000Y-89774999D02*
X152950000Y-92625001D01*
G75*
G02*
X152700001Y-92875000I-249999J0D01*
G01*
X151974999Y-92875000D01*
G75*
G02*
X151725000Y-92625001I0J249999D01*
G01*
X151725000Y-89774999D01*
G75*
G02*
X151974999Y-89525000I249999J0D01*
G01*
X152700001Y-89525000D01*
G75*
G02*
X152950000Y-89774999I0J-249999D01*
G01*
G37*
G36*
G01*
X158875000Y-89774999D02*
X158875000Y-92625001D01*
G75*
G02*
X158625001Y-92875000I-249999J0D01*
G01*
X157899999Y-92875000D01*
G75*
G02*
X157650000Y-92625001I0J249999D01*
G01*
X157650000Y-89774999D01*
G75*
G02*
X157899999Y-89525000I249999J0D01*
G01*
X158625001Y-89525000D01*
G75*
G02*
X158875000Y-89774999I0J-249999D01*
G01*
G37*
G04 #@! TD*
G04 #@! TO.C,R5*
G36*
G01*
X128100000Y-64224999D02*
X128100000Y-66375001D01*
G75*
G02*
X127850001Y-66625000I-249999J0D01*
G01*
X127124999Y-66625000D01*
G75*
G02*
X126875000Y-66375001I0J249999D01*
G01*
X126875000Y-64224999D01*
G75*
G02*
X127124999Y-63975000I249999J0D01*
G01*
X127850001Y-63975000D01*
G75*
G02*
X128100000Y-64224999I0J-249999D01*
G01*
G37*
G36*
G01*
X132725000Y-64224999D02*
X132725000Y-66375001D01*
G75*
G02*
X132475001Y-66625000I-249999J0D01*
G01*
X131749999Y-66625000D01*
G75*
G02*
X131500000Y-66375001I0J249999D01*
G01*
X131500000Y-64224999D01*
G75*
G02*
X131749999Y-63975000I249999J0D01*
G01*
X132475001Y-63975000D01*
G75*
G02*
X132725000Y-64224999I0J-249999D01*
G01*
G37*
G04 #@! TD*
G04 #@! TO.C,C6*
G36*
G01*
X124950000Y-89000001D02*
X124950000Y-86799999D01*
G75*
G02*
X125199999Y-86550000I249999J0D01*
G01*
X125850001Y-86550000D01*
G75*
G02*
X126100000Y-86799999I0J-249999D01*
G01*
X126100000Y-89000001D01*
G75*
G02*
X125850001Y-89250000I-249999J0D01*
G01*
X125199999Y-89250000D01*
G75*
G02*
X124950000Y-89000001I0J249999D01*
G01*
G37*
G36*
G01*
X127900000Y-89000001D02*
X127900000Y-86799999D01*
G75*
G02*
X128149999Y-86550000I249999J0D01*
G01*
X128800001Y-86550000D01*
G75*
G02*
X129050000Y-86799999I0J-249999D01*
G01*
X129050000Y-89000001D01*
G75*
G02*
X128800001Y-89250000I-249999J0D01*
G01*
X128149999Y-89250000D01*
G75*
G02*
X127900000Y-89000001I0J249999D01*
G01*
G37*
G04 #@! TD*
G04 #@! TO.C,R2*
G36*
G01*
X131075001Y-83530000D02*
X131075001Y-85680002D01*
G75*
G02*
X130825002Y-85930001I-249999J0D01*
G01*
X129925000Y-85930001D01*
G75*
G02*
X129675001Y-85680002I0J249999D01*
G01*
X129675001Y-83530000D01*
G75*
G02*
X129925000Y-83280001I249999J0D01*
G01*
X130825002Y-83280001D01*
G75*
G02*
X131075001Y-83530000I0J-249999D01*
G01*
G37*
G36*
G01*
X126275001Y-83530000D02*
X126275001Y-85680002D01*
G75*
G02*
X126025002Y-85930001I-249999J0D01*
G01*
X125125000Y-85930001D01*
G75*
G02*
X124875001Y-85680002I0J249999D01*
G01*
X124875001Y-83530000D01*
G75*
G02*
X125125000Y-83280001I249999J0D01*
G01*
X126025002Y-83280001D01*
G75*
G02*
X126275001Y-83530000I0J-249999D01*
G01*
G37*
G04 #@! TD*
D11*
G04 #@! TO.C,H1*
X160900000Y-47900000D03*
G04 #@! TD*
G04 #@! TO.C,H2*
X152300000Y-97900000D03*
G04 #@! TD*
G04 #@! TO.C,H3*
X93200000Y-72300000D03*
G04 #@! TD*
G04 #@! TO.C,C2*
G36*
G01*
X107900001Y-76400000D02*
X105699999Y-76400000D01*
G75*
G02*
X105450000Y-76150001I0J249999D01*
G01*
X105450000Y-75499999D01*
G75*
G02*
X105699999Y-75250000I249999J0D01*
G01*
X107900001Y-75250000D01*
G75*
G02*
X108150000Y-75499999I0J-249999D01*
G01*
X108150000Y-76150001D01*
G75*
G02*
X107900001Y-76400000I-249999J0D01*
G01*
G37*
G36*
G01*
X107900001Y-79350000D02*
X105699999Y-79350000D01*
G75*
G02*
X105450000Y-79100001I0J249999D01*
G01*
X105450000Y-78449999D01*
G75*
G02*
X105699999Y-78200000I249999J0D01*
G01*
X107900001Y-78200000D01*
G75*
G02*
X108150000Y-78449999I0J-249999D01*
G01*
X108150000Y-79100001D01*
G75*
G02*
X107900001Y-79350000I-249999J0D01*
G01*
G37*
G04 #@! TD*
M02*
