M48
INCH
T1C0.0118
T2C0.0157
T3C0.0315
T4C0.0469
T5C0.0728
T6C0.1260
%
G90
G05
T1
X4.5914Y-3.4213
X4.5914Y-3.4685
X4.6386Y-3.4213
X4.6386Y-3.4685
X4.6909Y-3.0925
X4.6909Y-3.1752
X4.7736Y-3.0925
X4.7736Y-3.1752
T2
X3.585Y-2.9988
X3.585Y-3.0488
X3.585Y-3.0988
X3.585Y-3.1488
X3.585Y-3.1988
X3.585Y-3.2488
X3.585Y-3.2988
X3.585Y-3.3488
X3.585Y-3.398
X3.6342Y-3.3488
X3.6342Y-3.398
X3.635Y-2.9988
X3.635Y-3.0488
X3.635Y-3.0988
X3.635Y-3.1488
X3.635Y-3.1988
X3.635Y-3.2488
X3.635Y-3.2988
X3.6834Y-3.3488
X3.6834Y-3.398
X3.685Y-2.9988
X3.685Y-3.0488
X3.685Y-3.0988
X3.685Y-3.1488
X3.685Y-3.1988
X3.685Y-3.2488
X3.685Y-3.2988
X3.7326Y-3.3488
X3.7326Y-3.398
X3.735Y-2.9988
X3.735Y-3.0488
X3.735Y-3.0988
X3.735Y-3.1488
X3.735Y-3.1988
X3.735Y-3.2488
X3.735Y-3.2988
X3.7819Y-3.3488
X3.7819Y-3.398
X3.785Y-2.9988
X3.785Y-3.0488
X3.785Y-3.0988
X3.785Y-3.1488
X3.785Y-3.1988
X3.785Y-3.2488
X3.785Y-3.2988
X3.8311Y-3.3488
X3.8311Y-3.398
X3.835Y-2.9988
X3.835Y-3.0488
X3.835Y-3.0988
X3.835Y-3.1488
X3.835Y-3.1988
X3.835Y-3.2488
X3.835Y-3.2988
X3.8803Y-3.3488
X3.8803Y-3.398
X3.885Y-2.9988
X3.885Y-3.0488
X3.885Y-3.0988
X3.885Y-3.1488
X3.885Y-3.1988
X3.885Y-3.2488
X3.885Y-3.2988
X3.935Y-2.9988
X3.935Y-3.0488
X3.935Y-3.0988
X3.935Y-3.1488
X3.935Y-3.1988
X3.935Y-3.248
X3.935Y-3.2972
X3.935Y-3.3465
X3.935Y-3.3957
X3.9842Y-3.1988
X3.9842Y-3.248
X3.9842Y-3.2972
X3.9842Y-3.3465
X3.9842Y-3.3957
X4.0334Y-3.1988
X4.0334Y-3.248
X4.0334Y-3.2972
X4.0334Y-3.3465
X4.0334Y-3.3957
X4.0748Y-1.7441
X4.0748Y-1.7933
X4.0748Y-1.8425
X4.0748Y-1.8917
X4.0748Y-1.9409
X4.0748Y-1.9902
X4.0748Y-2.0394
X4.0748Y-2.0886
X4.0826Y-3.1988
X4.0826Y-3.248
X4.0826Y-3.2972
X4.0826Y-3.3465
X4.0826Y-3.3957
X4.124Y-1.7441
X4.124Y-1.7933
X4.124Y-1.8425
X4.124Y-1.8917
X4.124Y-1.9409
X4.124Y-1.9902
X4.124Y-2.0394
X4.124Y-2.0886
X4.1496Y-2.3406
X4.1496Y-2.3898
X4.1496Y-2.439
X4.1496Y-2.4882
X4.1496Y-2.5374
X4.1732Y-1.7441
X4.1732Y-1.7933
X4.1732Y-1.8425
X4.1732Y-1.8917
X4.1732Y-1.9409
X4.1732Y-1.9902
X4.1732Y-2.0394
X4.1732Y-2.0886
X4.1988Y-2.3406
X4.1988Y-2.3898
X4.1988Y-2.439
X4.1988Y-2.4882
X4.1988Y-2.5374
X4.2224Y-1.7441
X4.2224Y-1.7933
X4.2224Y-1.8425
X4.2224Y-1.8917
X4.2224Y-1.9409
X4.2224Y-1.9902
X4.2224Y-2.0394
X4.2224Y-2.0886
X4.248Y-2.3406
X4.248Y-2.3898
X4.248Y-2.439
X4.248Y-2.4882
X4.248Y-2.5374
X4.2717Y-1.7441
X4.2717Y-1.7933
X4.2717Y-1.8425
X4.2717Y-1.8917
X4.2717Y-1.9409
X4.2717Y-1.9902
X4.2717Y-2.0394
X4.2717Y-2.0886
X4.2972Y-2.3406
X4.2972Y-2.3898
X4.2972Y-2.439
X4.2972Y-2.4882
X4.2972Y-2.5374
X4.315Y-3.1142
X4.3209Y-1.7441
X4.3209Y-1.7933
X4.3209Y-1.8425
X4.3209Y-1.8917
X4.3209Y-1.9409
X4.3209Y-1.9902
X4.3209Y-2.0394
X4.3209Y-2.0886
X4.3268Y-3.0512
X4.3465Y-2.3406
X4.3465Y-2.3898
X4.3465Y-2.439
X4.3465Y-2.4882
X4.3465Y-2.5374
X4.3701Y-1.7441
X4.3701Y-1.7933
X4.3701Y-1.8425
X4.3701Y-1.8917
X4.3701Y-1.9409
X4.3701Y-1.9902
X4.3701Y-2.0394
X4.3701Y-2.0886
X4.3819Y-3.3031
X4.3957Y-2.3406
X4.3957Y-2.3898
X4.3957Y-2.439
X4.3957Y-2.4882
X4.3957Y-2.5374
X4.4193Y-1.7441
X4.4193Y-1.7933
X4.4193Y-1.8425
X4.4193Y-1.8917
X4.4193Y-1.9409
X4.4193Y-1.9902
X4.4193Y-2.0394
X4.4193Y-2.0886
X4.4488Y-3.5984
X4.5079Y-3.0079
X4.6024Y-3.0079
X4.6417Y-3.2362
X4.6496Y-3.3307
X4.7126Y-2.9528
X4.8307Y-3.2874
X4.8386Y-2.8504
X4.8386Y-2.9134
X4.8465Y-3.2008
X4.8819Y-3.4252
X4.8858Y-3.2717
X4.9016Y-3.0
X4.9016Y-3.1102
X4.9094Y-2.8543
X5.2441Y-2.5394
X5.248Y-3.2304
X5.248Y-3.2776
X5.248Y-3.3268
X5.248Y-3.376
X5.248Y-3.4272
X5.248Y-3.4764
X5.248Y-3.5256
X5.248Y-3.5748
X5.248Y-3.6241
X5.248Y-3.6733
X5.248Y-3.7225
X5.252Y-2.9291
X5.2756Y-3.0984
X5.2953Y-3.2304
X5.2972Y-3.2776
X5.2972Y-3.3268
X5.2972Y-3.376
X5.2972Y-3.4272
X5.2972Y-3.4764
X5.2972Y-3.5256
X5.2972Y-3.5748
X5.2972Y-3.6241
X5.2972Y-3.6733
X5.2972Y-3.7225
X5.2992Y-1.7441
X5.2992Y-1.7933
X5.2992Y-1.8425
X5.2992Y-1.8917
X5.2992Y-1.9409
X5.2992Y-1.9902
X5.3465Y-3.2304
X5.3465Y-3.2776
X5.3465Y-3.3268
X5.3465Y-3.376
X5.3465Y-3.4272
X5.3465Y-3.4764
X5.3465Y-3.5256
X5.3465Y-3.5748
X5.3465Y-3.6241
X5.3465Y-3.6733
X5.3465Y-3.7225
X5.3484Y-1.7441
X5.3484Y-1.7933
X5.3484Y-1.8425
X5.3484Y-1.8917
X5.3484Y-1.9409
X5.3484Y-1.9902
X5.3957Y-3.4272
X5.3957Y-3.4764
X5.3957Y-3.5256
X5.3957Y-3.5748
X5.3957Y-3.6241
X5.3957Y-3.6733
X5.3957Y-3.7225
X5.3976Y-1.7441
X5.3976Y-1.7933
X5.3976Y-1.8425
X5.3976Y-1.8917
X5.3976Y-1.9409
X5.3976Y-1.9902
X5.4449Y-3.4272
X5.4449Y-3.4764
X5.4449Y-3.5256
X5.4449Y-3.5748
X5.4449Y-3.6241
X5.4449Y-3.6733
X5.4449Y-3.7225
X5.4469Y-1.7441
X5.4469Y-1.7933
X5.4469Y-1.8425
X5.4469Y-1.8917
X5.4469Y-1.9409
X5.4469Y-1.9902
X5.4941Y-3.4272
X5.4941Y-3.4764
X5.4941Y-3.5256
X5.4941Y-3.5748
X5.4941Y-3.6241
X5.4941Y-3.6733
X5.4941Y-3.7225
X5.4961Y-1.7441
X5.4961Y-1.7933
X5.4961Y-1.8425
X5.4961Y-1.8917
X5.4961Y-1.9409
X5.4961Y-1.9902
X5.5433Y-3.4272
X5.5433Y-3.4764
X5.5433Y-3.5256
X5.5433Y-3.5748
X5.5433Y-3.6241
X5.5433Y-3.6733
X5.5433Y-3.7225
X5.5453Y-1.7441
X5.5453Y-1.7933
X5.5453Y-1.8425
X5.5453Y-1.8917
X5.5453Y-1.9409
X5.5453Y-1.9902
X5.5925Y-3.4272
X5.5925Y-3.4764
X5.5925Y-3.5256
X5.5925Y-3.5748
X5.5925Y-3.6241
X5.5925Y-3.6733
X5.5925Y-3.7225
X5.5945Y-1.7441
X5.5945Y-1.7933
X5.5945Y-1.8425
X5.5945Y-1.8917
X5.5945Y-1.9409
X5.5945Y-1.9902
X5.6417Y-3.4272
X5.6417Y-3.4764
X5.6417Y-3.5256
X5.6417Y-3.5748
X5.6417Y-3.6241
X5.6417Y-3.6733
X5.6417Y-3.7225
X5.6437Y-1.7441
X5.6437Y-1.7933
X5.6437Y-1.8425
X5.6437Y-1.8917
X5.6437Y-1.9409
X5.6437Y-1.9902
X5.6909Y-3.4272
X5.6909Y-3.4764
X5.6909Y-3.5256
X5.6909Y-3.5748
X5.6909Y-3.6241
X5.6909Y-3.6733
X5.6909Y-3.7225
X5.6929Y-1.7441
X5.6929Y-1.7933
X5.6929Y-1.8425
X5.6929Y-1.8917
X5.6929Y-1.9409
X5.6929Y-1.9902
X5.7421Y-1.7441
X5.7421Y-1.7933
X5.7421Y-1.8425
X5.7421Y-1.8917
X5.7421Y-1.9409
X5.7421Y-1.9902
X5.7913Y-1.7441
X5.7913Y-1.7933
X5.7913Y-1.8425
X5.7913Y-1.8917
X5.7913Y-1.9409
X5.7913Y-1.9902
X5.8406Y-1.7441
X5.8406Y-1.7933
X5.8406Y-1.8425
X5.8406Y-1.8917
X5.8406Y-1.9409
X5.8406Y-1.9902
X5.8898Y-1.7441
X5.8898Y-1.7933
X5.8898Y-1.8425
X5.8898Y-1.8917
X5.8898Y-1.9409
X5.8898Y-1.9902
X5.939Y-1.7441
X5.939Y-1.7933
X5.939Y-1.8425
X5.939Y-1.8917
X5.939Y-1.9409
X5.939Y-1.9902
X5.9882Y-1.7441
X5.9882Y-1.7933
X5.9882Y-1.8425
X5.9882Y-1.8917
X5.9882Y-1.9409
X5.9882Y-1.9902
X6.0374Y-1.7441
X6.0374Y-1.7933
X6.0374Y-1.8425
X6.0374Y-1.8917
X6.0374Y-1.9409
X6.0374Y-1.9902
X6.0866Y-1.7441
X6.0866Y-1.7933
X6.0866Y-1.8425
X6.0866Y-1.8917
X6.0866Y-1.9409
X6.0866Y-1.9902
X6.1358Y-1.7441
X6.1358Y-1.7933
X6.1358Y-1.8425
X6.1358Y-1.8917
X6.1358Y-1.9409
X6.1358Y-1.9902
T3
X6.685Y-2.9646
X6.685Y-3.063
T4
X4.2756Y-3.2457
X4.2756Y-3.3457
X4.2756Y-3.4457
X4.2756Y-3.5457
X4.2756Y-3.6457
T5
X3.6204Y-1.8608
X3.6204Y-2.0354
X3.6204Y-2.21
X3.6207Y-3.5301
X3.6207Y-3.7047
X3.6207Y-3.8793
X3.795Y-1.8608
X3.795Y-2.0354
X3.795Y-2.21
X3.7953Y-3.5301
X3.7953Y-3.7047
X3.7953Y-3.8793
X3.9696Y-1.8608
X3.9696Y-2.0354
X3.9696Y-2.21
X3.9699Y-3.5301
X3.9699Y-3.7047
X3.9699Y-3.8793
X6.3687Y-2.3844
X6.3687Y-2.5591
X6.3687Y-2.7337
X6.3687Y-3.2781
X6.3687Y-3.4528
X6.3687Y-3.6274
X6.5433Y-2.3844
X6.5433Y-2.5591
X6.5433Y-2.7337
X6.5433Y-3.2781
X6.5433Y-3.4528
X6.5433Y-3.6274
X6.7179Y-2.3844
X6.7179Y-2.5591
X6.7179Y-2.7337
X6.7179Y-3.2781
X6.7179Y-3.4528
X6.7179Y-3.6274
T6
X3.6693Y-2.8465
X5.9961Y-3.8543
X6.3346Y-1.8858
T0
M30
