G04 #@! TF.GenerationSoftware,KiCad,Pcbnew,(5.1.9)-1*
G04 #@! TF.CreationDate,2021-07-02T11:04:45-04:00*
G04 #@! TF.ProjectId,Motor Controller 2020,4d6f746f-7220-4436-9f6e-74726f6c6c65,rev?*
G04 #@! TF.SameCoordinates,Original*
G04 #@! TF.FileFunction,Soldermask,Bot*
G04 #@! TF.FilePolarity,Negative*
%FSLAX46Y46*%
G04 Gerber Fmt 4.6, Leading zero omitted, Abs format (unit mm)*
G04 Created by KiCad (PCBNEW (5.1.9)-1) date 2021-07-02 11:04:45*
%MOMM*%
%LPD*%
G01*
G04 APERTURE LIST*
G04 #@! TA.AperFunction,Profile*
%ADD10C,0.050000*%
G04 #@! TD*
%ADD11C,1.000000*%
%ADD12C,3.200000*%
%ADD13O,2.190000X1.740000*%
%ADD14R,10.800000X9.400000*%
%ADD15R,1.100000X4.600000*%
%ADD16C,1.600000*%
G04 APERTURE END LIST*
D10*
X174700000Y-102900000D02*
X174700000Y-42900000D01*
X88700000Y-42900000D02*
X174700000Y-42900000D01*
X88700000Y-102900000D02*
X88700000Y-42900000D01*
X88700000Y-102900000D02*
X174700000Y-102900000D01*
D11*
G04 #@! TO.C,TP5*
X120500000Y-73100000D03*
G04 #@! TD*
G04 #@! TO.C,C3*
G36*
G01*
X112775000Y-76250002D02*
X112775000Y-73349998D01*
G75*
G02*
X113024998Y-73100000I249998J0D01*
G01*
X114100002Y-73100000D01*
G75*
G02*
X114350000Y-73349998I0J-249998D01*
G01*
X114350000Y-76250002D01*
G75*
G02*
X114100002Y-76500000I-249998J0D01*
G01*
X113024998Y-76500000D01*
G75*
G02*
X112775000Y-76250002I0J249998D01*
G01*
G37*
G36*
G01*
X117050000Y-76250002D02*
X117050000Y-73349998D01*
G75*
G02*
X117299998Y-73100000I249998J0D01*
G01*
X118375002Y-73100000D01*
G75*
G02*
X118625000Y-73349998I0J-249998D01*
G01*
X118625000Y-76250002D01*
G75*
G02*
X118375002Y-76500000I-249998J0D01*
G01*
X117299998Y-76500000D01*
G75*
G02*
X117050000Y-76250002I0J249998D01*
G01*
G37*
G04 #@! TD*
D12*
G04 #@! TO.C,J4*
X166200000Y-65000000D03*
X166200000Y-69435000D03*
X170635000Y-65000000D03*
X166200000Y-60565000D03*
X161765000Y-65000000D03*
X161765000Y-69435000D03*
X161765000Y-60565000D03*
X170635000Y-60565000D03*
X170635000Y-69435000D03*
G04 #@! TD*
G04 #@! TO.C,R6*
G36*
G01*
X131425000Y-76324999D02*
X131425000Y-78475001D01*
G75*
G02*
X131175001Y-78725000I-249999J0D01*
G01*
X130449999Y-78725000D01*
G75*
G02*
X130200000Y-78475001I0J249999D01*
G01*
X130200000Y-76324999D01*
G75*
G02*
X130449999Y-76075000I249999J0D01*
G01*
X131175001Y-76075000D01*
G75*
G02*
X131425000Y-76324999I0J-249999D01*
G01*
G37*
G36*
G01*
X126800000Y-76324999D02*
X126800000Y-78475001D01*
G75*
G02*
X126550001Y-78725000I-249999J0D01*
G01*
X125824999Y-78725000D01*
G75*
G02*
X125575000Y-78475001I0J249999D01*
G01*
X125575000Y-76324999D01*
G75*
G02*
X125824999Y-76075000I249999J0D01*
G01*
X126550001Y-76075000D01*
G75*
G02*
X126800000Y-76324999I0J-249999D01*
G01*
G37*
G04 #@! TD*
G04 #@! TO.C,J3*
G36*
G01*
X109445001Y-93470000D02*
X107754999Y-93470000D01*
G75*
G02*
X107505000Y-93220001I0J249999D01*
G01*
X107505000Y-91979999D01*
G75*
G02*
X107754999Y-91730000I249999J0D01*
G01*
X109445001Y-91730000D01*
G75*
G02*
X109695000Y-91979999I0J-249999D01*
G01*
X109695000Y-93220001D01*
G75*
G02*
X109445001Y-93470000I-249999J0D01*
G01*
G37*
D13*
X108600000Y-90060000D03*
X108600000Y-87520000D03*
X108600000Y-84980000D03*
X108600000Y-82440000D03*
G04 #@! TD*
G04 #@! TO.C,C11*
G36*
G01*
X112375000Y-86850002D02*
X112375000Y-83949998D01*
G75*
G02*
X112624998Y-83700000I249998J0D01*
G01*
X113700002Y-83700000D01*
G75*
G02*
X113950000Y-83949998I0J-249998D01*
G01*
X113950000Y-86850002D01*
G75*
G02*
X113700002Y-87100000I-249998J0D01*
G01*
X112624998Y-87100000D01*
G75*
G02*
X112375000Y-86850002I0J249998D01*
G01*
G37*
G36*
G01*
X116650000Y-86850002D02*
X116650000Y-83949998D01*
G75*
G02*
X116899998Y-83700000I249998J0D01*
G01*
X117975002Y-83700000D01*
G75*
G02*
X118225000Y-83949998I0J-249998D01*
G01*
X118225000Y-86850002D01*
G75*
G02*
X117975002Y-87100000I-249998J0D01*
G01*
X116899998Y-87100000D01*
G75*
G02*
X116650000Y-86850002I0J249998D01*
G01*
G37*
G04 #@! TD*
D12*
G04 #@! TO.C,J1*
X100828000Y-56135000D03*
X100828000Y-47265000D03*
X91958000Y-47265000D03*
X91958000Y-56135000D03*
X91958000Y-51700000D03*
X96393000Y-47265000D03*
X100828000Y-51700000D03*
X96393000Y-56135000D03*
X96393000Y-51700000D03*
G04 #@! TD*
G04 #@! TO.C,J2*
X96400000Y-94100000D03*
X96400000Y-98535000D03*
X100835000Y-94100000D03*
X96400000Y-89665000D03*
X91965000Y-94100000D03*
X91965000Y-98535000D03*
X91965000Y-89665000D03*
X100835000Y-89665000D03*
X100835000Y-98535000D03*
G04 #@! TD*
G04 #@! TO.C,J5*
X170635000Y-92135000D03*
X170635000Y-83265000D03*
X161765000Y-83265000D03*
X161765000Y-92135000D03*
X161765000Y-87700000D03*
X166200000Y-83265000D03*
X170635000Y-87700000D03*
X166200000Y-92135000D03*
X166200000Y-87700000D03*
G04 #@! TD*
G04 #@! TO.C,JP2*
G36*
G01*
X152950000Y-89774999D02*
X152950000Y-92625001D01*
G75*
G02*
X152700001Y-92875000I-249999J0D01*
G01*
X151974999Y-92875000D01*
G75*
G02*
X151725000Y-92625001I0J249999D01*
G01*
X151725000Y-89774999D01*
G75*
G02*
X151974999Y-89525000I249999J0D01*
G01*
X152700001Y-89525000D01*
G75*
G02*
X152950000Y-89774999I0J-249999D01*
G01*
G37*
G36*
G01*
X158875000Y-89774999D02*
X158875000Y-92625001D01*
G75*
G02*
X158625001Y-92875000I-249999J0D01*
G01*
X157899999Y-92875000D01*
G75*
G02*
X157650000Y-92625001I0J249999D01*
G01*
X157650000Y-89774999D01*
G75*
G02*
X157899999Y-89525000I249999J0D01*
G01*
X158625001Y-89525000D01*
G75*
G02*
X158875000Y-89774999I0J-249999D01*
G01*
G37*
G04 #@! TD*
G04 #@! TO.C,R5*
G36*
G01*
X126800000Y-69924999D02*
X126800000Y-72075001D01*
G75*
G02*
X126550001Y-72325000I-249999J0D01*
G01*
X125824999Y-72325000D01*
G75*
G02*
X125575000Y-72075001I0J249999D01*
G01*
X125575000Y-69924999D01*
G75*
G02*
X125824999Y-69675000I249999J0D01*
G01*
X126550001Y-69675000D01*
G75*
G02*
X126800000Y-69924999I0J-249999D01*
G01*
G37*
G36*
G01*
X131425000Y-69924999D02*
X131425000Y-72075001D01*
G75*
G02*
X131175001Y-72325000I-249999J0D01*
G01*
X130449999Y-72325000D01*
G75*
G02*
X130200000Y-72075001I0J249999D01*
G01*
X130200000Y-69924999D01*
G75*
G02*
X130449999Y-69675000I249999J0D01*
G01*
X131175001Y-69675000D01*
G75*
G02*
X131425000Y-69924999I0J-249999D01*
G01*
G37*
G04 #@! TD*
G04 #@! TO.C,C6*
G36*
G01*
X128999999Y-83650000D02*
X131200001Y-83650000D01*
G75*
G02*
X131450000Y-83899999I0J-249999D01*
G01*
X131450000Y-84550001D01*
G75*
G02*
X131200001Y-84800000I-249999J0D01*
G01*
X128999999Y-84800000D01*
G75*
G02*
X128750000Y-84550001I0J249999D01*
G01*
X128750000Y-83899999D01*
G75*
G02*
X128999999Y-83650000I249999J0D01*
G01*
G37*
G36*
G01*
X128999999Y-86600000D02*
X131200001Y-86600000D01*
G75*
G02*
X131450000Y-86849999I0J-249999D01*
G01*
X131450000Y-87500001D01*
G75*
G02*
X131200001Y-87750000I-249999J0D01*
G01*
X128999999Y-87750000D01*
G75*
G02*
X128750000Y-87500001I0J249999D01*
G01*
X128750000Y-86849999D01*
G75*
G02*
X128999999Y-86600000I249999J0D01*
G01*
G37*
G04 #@! TD*
G04 #@! TO.C,R2*
G36*
G01*
X127975001Y-88700000D02*
X125824999Y-88700000D01*
G75*
G02*
X125575000Y-88450001I0J249999D01*
G01*
X125575000Y-87549999D01*
G75*
G02*
X125824999Y-87300000I249999J0D01*
G01*
X127975001Y-87300000D01*
G75*
G02*
X128225000Y-87549999I0J-249999D01*
G01*
X128225000Y-88450001D01*
G75*
G02*
X127975001Y-88700000I-249999J0D01*
G01*
G37*
G36*
G01*
X127975001Y-83900000D02*
X125824999Y-83900000D01*
G75*
G02*
X125575000Y-83650001I0J249999D01*
G01*
X125575000Y-82749999D01*
G75*
G02*
X125824999Y-82500000I249999J0D01*
G01*
X127975001Y-82500000D01*
G75*
G02*
X128225000Y-82749999I0J-249999D01*
G01*
X128225000Y-83650001D01*
G75*
G02*
X127975001Y-83900000I-249999J0D01*
G01*
G37*
G04 #@! TD*
G04 #@! TO.C,H1*
X160900000Y-47900000D03*
G04 #@! TD*
G04 #@! TO.C,H2*
X152300000Y-97900000D03*
G04 #@! TD*
G04 #@! TO.C,H3*
X93200000Y-72300000D03*
G04 #@! TD*
G04 #@! TO.C,C2*
G36*
G01*
X108700001Y-75300000D02*
X106499999Y-75300000D01*
G75*
G02*
X106250000Y-75050001I0J249999D01*
G01*
X106250000Y-74399999D01*
G75*
G02*
X106499999Y-74150000I249999J0D01*
G01*
X108700001Y-74150000D01*
G75*
G02*
X108950000Y-74399999I0J-249999D01*
G01*
X108950000Y-75050001D01*
G75*
G02*
X108700001Y-75300000I-249999J0D01*
G01*
G37*
G36*
G01*
X108700001Y-78250000D02*
X106499999Y-78250000D01*
G75*
G02*
X106250000Y-78000001I0J249999D01*
G01*
X106250000Y-77349999D01*
G75*
G02*
X106499999Y-77100000I249999J0D01*
G01*
X108700001Y-77100000D01*
G75*
G02*
X108950000Y-77349999I0J-249999D01*
G01*
X108950000Y-78000001D01*
G75*
G02*
X108700001Y-78250000I-249999J0D01*
G01*
G37*
G04 #@! TD*
D14*
G04 #@! TO.C,Q5*
X151892000Y-74653000D03*
D15*
X149352000Y-83803000D03*
X154432000Y-83803000D03*
G04 #@! TD*
D14*
G04 #@! TO.C,Q6*
X140208000Y-56226000D03*
D15*
X137668000Y-65376000D03*
X142748000Y-65376000D03*
G04 #@! TD*
G04 #@! TO.C,Q7*
X154432000Y-65376000D03*
X149352000Y-65376000D03*
D14*
X151892000Y-56226000D03*
G04 #@! TD*
D15*
G04 #@! TO.C,Q8*
X142875000Y-83791000D03*
X137795000Y-83791000D03*
D14*
X140335000Y-74641000D03*
G04 #@! TD*
D16*
G04 #@! TO.C,C10*
X169800000Y-77800000D03*
X169800000Y-75300000D03*
G04 #@! TD*
D11*
G04 #@! TO.C,TP6*
X111300000Y-76000000D03*
G04 #@! TD*
M02*
