G04 #@! TF.GenerationSoftware,KiCad,Pcbnew,(5.1.9)-1*
G04 #@! TF.CreationDate,2021-06-30T17:08:45-04:00*
G04 #@! TF.ProjectId,Motor Controller 2020,4d6f746f-7220-4436-9f6e-74726f6c6c65,rev?*
G04 #@! TF.SameCoordinates,Original*
G04 #@! TF.FileFunction,Paste,Top*
G04 #@! TF.FilePolarity,Positive*
%FSLAX46Y46*%
G04 Gerber Fmt 4.6, Leading zero omitted, Abs format (unit mm)*
G04 Created by KiCad (PCBNEW (5.1.9)-1) date 2021-06-30 17:08:45*
%MOMM*%
%LPD*%
G01*
G04 APERTURE LIST*
G04 #@! TA.AperFunction,Profile*
%ADD10C,0.050000*%
G04 #@! TD*
%ADD12R,2.440000X1.120000*%
%ADD13C,0.150000*%
%ADD14R,0.850000X0.300000*%
%ADD15R,5.250000X4.550000*%
%ADD16R,1.100000X4.600000*%
G04 APERTURE END LIST*
D10*
X174700000Y-102900000D02*
X174700000Y-42900000D01*
X88700000Y-42900000D02*
X174700000Y-42900000D01*
X88700000Y-102900000D02*
X88700000Y-42900000D01*
X88700000Y-102900000D02*
X174700000Y-102900000D01*
D12*
G04 #@! TO.C,SW1*
X133205000Y-92540000D03*
X124595000Y-87460000D03*
X133205000Y-90000000D03*
X124595000Y-90000000D03*
X133205000Y-87460000D03*
X124595000Y-92540000D03*
G04 #@! TD*
G04 #@! TO.C,C9*
G36*
G01*
X109049997Y-59150000D02*
X118150003Y-59150000D01*
G75*
G02*
X118400000Y-59399997I0J-249997D01*
G01*
X118400000Y-67700003D01*
G75*
G02*
X118150003Y-67950000I-249997J0D01*
G01*
X109049997Y-67950000D01*
G75*
G02*
X108800000Y-67700003I0J249997D01*
G01*
X108800000Y-59399997D01*
G75*
G02*
X109049997Y-59150000I249997J0D01*
G01*
G37*
G36*
G01*
X109049997Y-45650000D02*
X118150003Y-45650000D01*
G75*
G02*
X118400000Y-45899997I0J-249997D01*
G01*
X118400000Y-54200003D01*
G75*
G02*
X118150003Y-54450000I-249997J0D01*
G01*
X109049997Y-54450000D01*
G75*
G02*
X108800000Y-54200003I0J249997D01*
G01*
X108800000Y-45899997D01*
G75*
G02*
X109049997Y-45650000I249997J0D01*
G01*
G37*
G04 #@! TD*
D13*
G04 #@! TO.C,U3*
G36*
X118361956Y-89799039D02*
G01*
X118352577Y-89796194D01*
X118343932Y-89791573D01*
X118336356Y-89785355D01*
X118285645Y-89734644D01*
X118279427Y-89727068D01*
X118274806Y-89718423D01*
X118271961Y-89709044D01*
X118271000Y-89699289D01*
X118271000Y-89650000D01*
X118271961Y-89640245D01*
X118274806Y-89630866D01*
X118279427Y-89622221D01*
X118285645Y-89614645D01*
X118293221Y-89608427D01*
X118301866Y-89603806D01*
X118311245Y-89600961D01*
X118321000Y-89600000D01*
X119021000Y-89600000D01*
X119030755Y-89600961D01*
X119040134Y-89603806D01*
X119048779Y-89608427D01*
X119056355Y-89614645D01*
X119062573Y-89622221D01*
X119067194Y-89630866D01*
X119070039Y-89640245D01*
X119071000Y-89650000D01*
X119071000Y-89750000D01*
X119070039Y-89759755D01*
X119067194Y-89769134D01*
X119062573Y-89777779D01*
X119056355Y-89785355D01*
X119048779Y-89791573D01*
X119040134Y-89796194D01*
X119030755Y-89799039D01*
X119021000Y-89800000D01*
X118371711Y-89800000D01*
X118361956Y-89799039D01*
G37*
G36*
G01*
X119071000Y-89250000D02*
X119071000Y-89350000D01*
G75*
G02*
X119021000Y-89400000I-50000J0D01*
G01*
X118321000Y-89400000D01*
G75*
G02*
X118271000Y-89350000I0J50000D01*
G01*
X118271000Y-89250000D01*
G75*
G02*
X118321000Y-89200000I50000J0D01*
G01*
X119021000Y-89200000D01*
G75*
G02*
X119071000Y-89250000I0J-50000D01*
G01*
G37*
G36*
G01*
X119071000Y-88850000D02*
X119071000Y-88950000D01*
G75*
G02*
X119021000Y-89000000I-50000J0D01*
G01*
X118321000Y-89000000D01*
G75*
G02*
X118271000Y-88950000I0J50000D01*
G01*
X118271000Y-88850000D01*
G75*
G02*
X118321000Y-88800000I50000J0D01*
G01*
X119021000Y-88800000D01*
G75*
G02*
X119071000Y-88850000I0J-50000D01*
G01*
G37*
G36*
G01*
X119071000Y-88450000D02*
X119071000Y-88550000D01*
G75*
G02*
X119021000Y-88600000I-50000J0D01*
G01*
X118321000Y-88600000D01*
G75*
G02*
X118271000Y-88550000I0J50000D01*
G01*
X118271000Y-88450000D01*
G75*
G02*
X118321000Y-88400000I50000J0D01*
G01*
X119021000Y-88400000D01*
G75*
G02*
X119071000Y-88450000I0J-50000D01*
G01*
G37*
G36*
X118311245Y-88199039D02*
G01*
X118301866Y-88196194D01*
X118293221Y-88191573D01*
X118285645Y-88185355D01*
X118279427Y-88177779D01*
X118274806Y-88169134D01*
X118271961Y-88159755D01*
X118271000Y-88150000D01*
X118271000Y-88100711D01*
X118271961Y-88090956D01*
X118274806Y-88081577D01*
X118279427Y-88072932D01*
X118285645Y-88065356D01*
X118336356Y-88014645D01*
X118343932Y-88008427D01*
X118352577Y-88003806D01*
X118361956Y-88000961D01*
X118371711Y-88000000D01*
X119021000Y-88000000D01*
X119030755Y-88000961D01*
X119040134Y-88003806D01*
X119048779Y-88008427D01*
X119056355Y-88014645D01*
X119062573Y-88022221D01*
X119067194Y-88030866D01*
X119070039Y-88040245D01*
X119071000Y-88050000D01*
X119071000Y-88150000D01*
X119070039Y-88159755D01*
X119067194Y-88169134D01*
X119062573Y-88177779D01*
X119056355Y-88185355D01*
X119048779Y-88191573D01*
X119040134Y-88196194D01*
X119030755Y-88199039D01*
X119021000Y-88200000D01*
X118321000Y-88200000D01*
X118311245Y-88199039D01*
G37*
G36*
X117961245Y-87849039D02*
G01*
X117951866Y-87846194D01*
X117943221Y-87841573D01*
X117935645Y-87835355D01*
X117929427Y-87827779D01*
X117924806Y-87819134D01*
X117921961Y-87809755D01*
X117921000Y-87800000D01*
X117921000Y-87100000D01*
X117921961Y-87090245D01*
X117924806Y-87080866D01*
X117929427Y-87072221D01*
X117935645Y-87064645D01*
X117943221Y-87058427D01*
X117951866Y-87053806D01*
X117961245Y-87050961D01*
X117971000Y-87050000D01*
X118071000Y-87050000D01*
X118080755Y-87050961D01*
X118090134Y-87053806D01*
X118098779Y-87058427D01*
X118106355Y-87064645D01*
X118112573Y-87072221D01*
X118117194Y-87080866D01*
X118120039Y-87090245D01*
X118121000Y-87100000D01*
X118121000Y-87749289D01*
X118120039Y-87759044D01*
X118117194Y-87768423D01*
X118112573Y-87777068D01*
X118106355Y-87784644D01*
X118055644Y-87835355D01*
X118048068Y-87841573D01*
X118039423Y-87846194D01*
X118030044Y-87849039D01*
X118020289Y-87850000D01*
X117971000Y-87850000D01*
X117961245Y-87849039D01*
G37*
G36*
G01*
X117721000Y-87100000D02*
X117721000Y-87800000D01*
G75*
G02*
X117671000Y-87850000I-50000J0D01*
G01*
X117571000Y-87850000D01*
G75*
G02*
X117521000Y-87800000I0J50000D01*
G01*
X117521000Y-87100000D01*
G75*
G02*
X117571000Y-87050000I50000J0D01*
G01*
X117671000Y-87050000D01*
G75*
G02*
X117721000Y-87100000I0J-50000D01*
G01*
G37*
G36*
G01*
X117321000Y-87100000D02*
X117321000Y-87800000D01*
G75*
G02*
X117271000Y-87850000I-50000J0D01*
G01*
X117171000Y-87850000D01*
G75*
G02*
X117121000Y-87800000I0J50000D01*
G01*
X117121000Y-87100000D01*
G75*
G02*
X117171000Y-87050000I50000J0D01*
G01*
X117271000Y-87050000D01*
G75*
G02*
X117321000Y-87100000I0J-50000D01*
G01*
G37*
G36*
G01*
X116921000Y-87100000D02*
X116921000Y-87800000D01*
G75*
G02*
X116871000Y-87850000I-50000J0D01*
G01*
X116771000Y-87850000D01*
G75*
G02*
X116721000Y-87800000I0J50000D01*
G01*
X116721000Y-87100000D01*
G75*
G02*
X116771000Y-87050000I50000J0D01*
G01*
X116871000Y-87050000D01*
G75*
G02*
X116921000Y-87100000I0J-50000D01*
G01*
G37*
G36*
X116411956Y-87849039D02*
G01*
X116402577Y-87846194D01*
X116393932Y-87841573D01*
X116386356Y-87835355D01*
X116335645Y-87784644D01*
X116329427Y-87777068D01*
X116324806Y-87768423D01*
X116321961Y-87759044D01*
X116321000Y-87749289D01*
X116321000Y-87100000D01*
X116321961Y-87090245D01*
X116324806Y-87080866D01*
X116329427Y-87072221D01*
X116335645Y-87064645D01*
X116343221Y-87058427D01*
X116351866Y-87053806D01*
X116361245Y-87050961D01*
X116371000Y-87050000D01*
X116471000Y-87050000D01*
X116480755Y-87050961D01*
X116490134Y-87053806D01*
X116498779Y-87058427D01*
X116506355Y-87064645D01*
X116512573Y-87072221D01*
X116517194Y-87080866D01*
X116520039Y-87090245D01*
X116521000Y-87100000D01*
X116521000Y-87800000D01*
X116520039Y-87809755D01*
X116517194Y-87819134D01*
X116512573Y-87827779D01*
X116506355Y-87835355D01*
X116498779Y-87841573D01*
X116490134Y-87846194D01*
X116480755Y-87849039D01*
X116471000Y-87850000D01*
X116421711Y-87850000D01*
X116411956Y-87849039D01*
G37*
G36*
X115411245Y-88199039D02*
G01*
X115401866Y-88196194D01*
X115393221Y-88191573D01*
X115385645Y-88185355D01*
X115379427Y-88177779D01*
X115374806Y-88169134D01*
X115371961Y-88159755D01*
X115371000Y-88150000D01*
X115371000Y-88050000D01*
X115371961Y-88040245D01*
X115374806Y-88030866D01*
X115379427Y-88022221D01*
X115385645Y-88014645D01*
X115393221Y-88008427D01*
X115401866Y-88003806D01*
X115411245Y-88000961D01*
X115421000Y-88000000D01*
X116070289Y-88000000D01*
X116080044Y-88000961D01*
X116089423Y-88003806D01*
X116098068Y-88008427D01*
X116105644Y-88014645D01*
X116156355Y-88065356D01*
X116162573Y-88072932D01*
X116167194Y-88081577D01*
X116170039Y-88090956D01*
X116171000Y-88100711D01*
X116171000Y-88150000D01*
X116170039Y-88159755D01*
X116167194Y-88169134D01*
X116162573Y-88177779D01*
X116156355Y-88185355D01*
X116148779Y-88191573D01*
X116140134Y-88196194D01*
X116130755Y-88199039D01*
X116121000Y-88200000D01*
X115421000Y-88200000D01*
X115411245Y-88199039D01*
G37*
G36*
G01*
X116171000Y-88450000D02*
X116171000Y-88550000D01*
G75*
G02*
X116121000Y-88600000I-50000J0D01*
G01*
X115421000Y-88600000D01*
G75*
G02*
X115371000Y-88550000I0J50000D01*
G01*
X115371000Y-88450000D01*
G75*
G02*
X115421000Y-88400000I50000J0D01*
G01*
X116121000Y-88400000D01*
G75*
G02*
X116171000Y-88450000I0J-50000D01*
G01*
G37*
G36*
G01*
X116171000Y-88850000D02*
X116171000Y-88950000D01*
G75*
G02*
X116121000Y-89000000I-50000J0D01*
G01*
X115421000Y-89000000D01*
G75*
G02*
X115371000Y-88950000I0J50000D01*
G01*
X115371000Y-88850000D01*
G75*
G02*
X115421000Y-88800000I50000J0D01*
G01*
X116121000Y-88800000D01*
G75*
G02*
X116171000Y-88850000I0J-50000D01*
G01*
G37*
G36*
G01*
X116171000Y-89250000D02*
X116171000Y-89350000D01*
G75*
G02*
X116121000Y-89400000I-50000J0D01*
G01*
X115421000Y-89400000D01*
G75*
G02*
X115371000Y-89350000I0J50000D01*
G01*
X115371000Y-89250000D01*
G75*
G02*
X115421000Y-89200000I50000J0D01*
G01*
X116121000Y-89200000D01*
G75*
G02*
X116171000Y-89250000I0J-50000D01*
G01*
G37*
G36*
X115411245Y-89799039D02*
G01*
X115401866Y-89796194D01*
X115393221Y-89791573D01*
X115385645Y-89785355D01*
X115379427Y-89777779D01*
X115374806Y-89769134D01*
X115371961Y-89759755D01*
X115371000Y-89750000D01*
X115371000Y-89650000D01*
X115371961Y-89640245D01*
X115374806Y-89630866D01*
X115379427Y-89622221D01*
X115385645Y-89614645D01*
X115393221Y-89608427D01*
X115401866Y-89603806D01*
X115411245Y-89600961D01*
X115421000Y-89600000D01*
X116121000Y-89600000D01*
X116130755Y-89600961D01*
X116140134Y-89603806D01*
X116148779Y-89608427D01*
X116156355Y-89614645D01*
X116162573Y-89622221D01*
X116167194Y-89630866D01*
X116170039Y-89640245D01*
X116171000Y-89650000D01*
X116171000Y-89699289D01*
X116170039Y-89709044D01*
X116167194Y-89718423D01*
X116162573Y-89727068D01*
X116156355Y-89734644D01*
X116105644Y-89785355D01*
X116098068Y-89791573D01*
X116089423Y-89796194D01*
X116080044Y-89799039D01*
X116070289Y-89800000D01*
X115421000Y-89800000D01*
X115411245Y-89799039D01*
G37*
G36*
X116361245Y-90749039D02*
G01*
X116351866Y-90746194D01*
X116343221Y-90741573D01*
X116335645Y-90735355D01*
X116329427Y-90727779D01*
X116324806Y-90719134D01*
X116321961Y-90709755D01*
X116321000Y-90700000D01*
X116321000Y-90050711D01*
X116321961Y-90040956D01*
X116324806Y-90031577D01*
X116329427Y-90022932D01*
X116335645Y-90015356D01*
X116386356Y-89964645D01*
X116393932Y-89958427D01*
X116402577Y-89953806D01*
X116411956Y-89950961D01*
X116421711Y-89950000D01*
X116471000Y-89950000D01*
X116480755Y-89950961D01*
X116490134Y-89953806D01*
X116498779Y-89958427D01*
X116506355Y-89964645D01*
X116512573Y-89972221D01*
X116517194Y-89980866D01*
X116520039Y-89990245D01*
X116521000Y-90000000D01*
X116521000Y-90700000D01*
X116520039Y-90709755D01*
X116517194Y-90719134D01*
X116512573Y-90727779D01*
X116506355Y-90735355D01*
X116498779Y-90741573D01*
X116490134Y-90746194D01*
X116480755Y-90749039D01*
X116471000Y-90750000D01*
X116371000Y-90750000D01*
X116361245Y-90749039D01*
G37*
G36*
G01*
X116921000Y-90000000D02*
X116921000Y-90700000D01*
G75*
G02*
X116871000Y-90750000I-50000J0D01*
G01*
X116771000Y-90750000D01*
G75*
G02*
X116721000Y-90700000I0J50000D01*
G01*
X116721000Y-90000000D01*
G75*
G02*
X116771000Y-89950000I50000J0D01*
G01*
X116871000Y-89950000D01*
G75*
G02*
X116921000Y-90000000I0J-50000D01*
G01*
G37*
G36*
G01*
X117321000Y-90000000D02*
X117321000Y-90700000D01*
G75*
G02*
X117271000Y-90750000I-50000J0D01*
G01*
X117171000Y-90750000D01*
G75*
G02*
X117121000Y-90700000I0J50000D01*
G01*
X117121000Y-90000000D01*
G75*
G02*
X117171000Y-89950000I50000J0D01*
G01*
X117271000Y-89950000D01*
G75*
G02*
X117321000Y-90000000I0J-50000D01*
G01*
G37*
G36*
G01*
X117721000Y-90000000D02*
X117721000Y-90700000D01*
G75*
G02*
X117671000Y-90750000I-50000J0D01*
G01*
X117571000Y-90750000D01*
G75*
G02*
X117521000Y-90700000I0J50000D01*
G01*
X117521000Y-90000000D01*
G75*
G02*
X117571000Y-89950000I50000J0D01*
G01*
X117671000Y-89950000D01*
G75*
G02*
X117721000Y-90000000I0J-50000D01*
G01*
G37*
G36*
X117961245Y-90749039D02*
G01*
X117951866Y-90746194D01*
X117943221Y-90741573D01*
X117935645Y-90735355D01*
X117929427Y-90727779D01*
X117924806Y-90719134D01*
X117921961Y-90709755D01*
X117921000Y-90700000D01*
X117921000Y-90000000D01*
X117921961Y-89990245D01*
X117924806Y-89980866D01*
X117929427Y-89972221D01*
X117935645Y-89964645D01*
X117943221Y-89958427D01*
X117951866Y-89953806D01*
X117961245Y-89950961D01*
X117971000Y-89950000D01*
X118020289Y-89950000D01*
X118030044Y-89950961D01*
X118039423Y-89953806D01*
X118048068Y-89958427D01*
X118055644Y-89964645D01*
X118106355Y-90015356D01*
X118112573Y-90022932D01*
X118117194Y-90031577D01*
X118120039Y-90040956D01*
X118121000Y-90050711D01*
X118121000Y-90700000D01*
X118120039Y-90709755D01*
X118117194Y-90719134D01*
X118112573Y-90727779D01*
X118106355Y-90735355D01*
X118098779Y-90741573D01*
X118090134Y-90746194D01*
X118080755Y-90749039D01*
X118071000Y-90750000D01*
X117971000Y-90750000D01*
X117961245Y-90749039D01*
G37*
G36*
G01*
X118016000Y-89140000D02*
X118016000Y-89510000D01*
G75*
G02*
X117831000Y-89695000I-185000J0D01*
G01*
X117461000Y-89695000D01*
G75*
G02*
X117276000Y-89510000I0J185000D01*
G01*
X117276000Y-89140000D01*
G75*
G02*
X117461000Y-88955000I185000J0D01*
G01*
X117831000Y-88955000D01*
G75*
G02*
X118016000Y-89140000I0J-185000D01*
G01*
G37*
G36*
G01*
X118016000Y-88290000D02*
X118016000Y-88660000D01*
G75*
G02*
X117831000Y-88845000I-185000J0D01*
G01*
X117461000Y-88845000D01*
G75*
G02*
X117276000Y-88660000I0J185000D01*
G01*
X117276000Y-88290000D01*
G75*
G02*
X117461000Y-88105000I185000J0D01*
G01*
X117831000Y-88105000D01*
G75*
G02*
X118016000Y-88290000I0J-185000D01*
G01*
G37*
G36*
G01*
X117166000Y-89140000D02*
X117166000Y-89510000D01*
G75*
G02*
X116981000Y-89695000I-185000J0D01*
G01*
X116611000Y-89695000D01*
G75*
G02*
X116426000Y-89510000I0J185000D01*
G01*
X116426000Y-89140000D01*
G75*
G02*
X116611000Y-88955000I185000J0D01*
G01*
X116981000Y-88955000D01*
G75*
G02*
X117166000Y-89140000I0J-185000D01*
G01*
G37*
G36*
G01*
X117166000Y-88290000D02*
X117166000Y-88660000D01*
G75*
G02*
X116981000Y-88845000I-185000J0D01*
G01*
X116611000Y-88845000D01*
G75*
G02*
X116426000Y-88660000I0J185000D01*
G01*
X116426000Y-88290000D01*
G75*
G02*
X116611000Y-88105000I185000J0D01*
G01*
X116981000Y-88105000D01*
G75*
G02*
X117166000Y-88290000I0J-185000D01*
G01*
G37*
G04 #@! TD*
G04 #@! TO.C,C1*
G36*
G01*
X106850000Y-72799999D02*
X106850000Y-75000001D01*
G75*
G02*
X106600001Y-75250000I-249999J0D01*
G01*
X105949999Y-75250000D01*
G75*
G02*
X105700000Y-75000001I0J249999D01*
G01*
X105700000Y-72799999D01*
G75*
G02*
X105949999Y-72550000I249999J0D01*
G01*
X106600001Y-72550000D01*
G75*
G02*
X106850000Y-72799999I0J-249999D01*
G01*
G37*
G36*
G01*
X103900000Y-72799999D02*
X103900000Y-75000001D01*
G75*
G02*
X103650001Y-75250000I-249999J0D01*
G01*
X102999999Y-75250000D01*
G75*
G02*
X102750000Y-75000001I0J249999D01*
G01*
X102750000Y-72799999D01*
G75*
G02*
X102999999Y-72550000I249999J0D01*
G01*
X103650001Y-72550000D01*
G75*
G02*
X103900000Y-72799999I0J-249999D01*
G01*
G37*
G04 #@! TD*
G04 #@! TO.C,C7*
G36*
G01*
X102399999Y-75850000D02*
X104600001Y-75850000D01*
G75*
G02*
X104850000Y-76099999I0J-249999D01*
G01*
X104850000Y-76750001D01*
G75*
G02*
X104600001Y-77000000I-249999J0D01*
G01*
X102399999Y-77000000D01*
G75*
G02*
X102150000Y-76750001I0J249999D01*
G01*
X102150000Y-76099999D01*
G75*
G02*
X102399999Y-75850000I249999J0D01*
G01*
G37*
G36*
G01*
X102399999Y-78800000D02*
X104600001Y-78800000D01*
G75*
G02*
X104850000Y-79049999I0J-249999D01*
G01*
X104850000Y-79700001D01*
G75*
G02*
X104600001Y-79950000I-249999J0D01*
G01*
X102399999Y-79950000D01*
G75*
G02*
X102150000Y-79700001I0J249999D01*
G01*
X102150000Y-79049999D01*
G75*
G02*
X102399999Y-78800000I249999J0D01*
G01*
G37*
G04 #@! TD*
G04 #@! TO.C,L1*
G36*
G01*
X111125000Y-74875000D02*
X113275000Y-74875000D01*
G75*
G02*
X113525000Y-75125000I0J-250000D01*
G01*
X113525000Y-75875000D01*
G75*
G02*
X113275000Y-76125000I-250000J0D01*
G01*
X111125000Y-76125000D01*
G75*
G02*
X110875000Y-75875000I0J250000D01*
G01*
X110875000Y-75125000D01*
G75*
G02*
X111125000Y-74875000I250000J0D01*
G01*
G37*
G36*
G01*
X111125000Y-77675000D02*
X113275000Y-77675000D01*
G75*
G02*
X113525000Y-77925000I0J-250000D01*
G01*
X113525000Y-78675000D01*
G75*
G02*
X113275000Y-78925000I-250000J0D01*
G01*
X111125000Y-78925000D01*
G75*
G02*
X110875000Y-78675000I0J250000D01*
G01*
X110875000Y-77925000D01*
G75*
G02*
X111125000Y-77675000I250000J0D01*
G01*
G37*
G04 #@! TD*
D14*
G04 #@! TO.C,U1*
X106550000Y-76650000D03*
X106550000Y-77150000D03*
X106550000Y-77650000D03*
X106550000Y-78150000D03*
X108450000Y-78150000D03*
X108450000Y-77650000D03*
X108450000Y-77150000D03*
X108450000Y-76650000D03*
G04 #@! TD*
D15*
G04 #@! TO.C,Q1*
X143110000Y-58651000D03*
X137560000Y-53801000D03*
X137560000Y-58651000D03*
X143110000Y-53801000D03*
D16*
X142875000Y-65376000D03*
X137795000Y-65376000D03*
G04 #@! TD*
D15*
G04 #@! TO.C,Q2*
X143129000Y-77205000D03*
X137579000Y-72355000D03*
X137579000Y-77205000D03*
X143129000Y-72355000D03*
D16*
X142894000Y-83930000D03*
X137814000Y-83930000D03*
G04 #@! TD*
G04 #@! TO.C,Q3*
X149333000Y-65388000D03*
X154413000Y-65388000D03*
D15*
X154648000Y-53813000D03*
X149098000Y-58663000D03*
X149098000Y-53813000D03*
X154648000Y-58663000D03*
G04 #@! TD*
D16*
G04 #@! TO.C,Q4*
X149352000Y-83918000D03*
X154432000Y-83918000D03*
D15*
X154667000Y-72343000D03*
X149117000Y-77193000D03*
X149117000Y-72343000D03*
X154667000Y-77193000D03*
G04 #@! TD*
M02*
