G04 #@! TF.GenerationSoftware,KiCad,Pcbnew,(5.1.10)-1*
G04 #@! TF.CreationDate,2021-10-21T21:57:41-04:00*
G04 #@! TF.ProjectId,Motor Controller 2020,4d6f746f-7220-4436-9f6e-74726f6c6c65,rev?*
G04 #@! TF.SameCoordinates,Original*
G04 #@! TF.FileFunction,Soldermask,Bot*
G04 #@! TF.FilePolarity,Negative*
%FSLAX46Y46*%
G04 Gerber Fmt 4.6, Leading zero omitted, Abs format (unit mm)*
G04 Created by KiCad (PCBNEW (5.1.10)-1) date 2021-10-21 21:57:41*
%MOMM*%
%LPD*%
G01*
G04 APERTURE LIST*
G04 #@! TA.AperFunction,Profile*
%ADD10C,0.050000*%
G04 #@! TD*
%ADD11C,1.000000*%
%ADD12O,2.190000X1.740000*%
%ADD13C,3.200000*%
%ADD14R,9.400000X10.800000*%
%ADD15R,4.600000X1.100000*%
%ADD16R,1.100000X4.600000*%
%ADD17R,10.800000X9.400000*%
%ADD18C,1.600000*%
%ADD19C,2.000000*%
G04 APERTURE END LIST*
D10*
X174700000Y-102900000D02*
X174700000Y-42900000D01*
X88700000Y-42900000D02*
X174700000Y-42900000D01*
X88700000Y-102900000D02*
X88700000Y-42900000D01*
X88700000Y-102900000D02*
X174700000Y-102900000D01*
D11*
G04 #@! TO.C,TP5*
X120500000Y-73100000D03*
G04 #@! TD*
G04 #@! TO.C,C10*
G36*
G01*
X112775000Y-75350002D02*
X112775000Y-72449998D01*
G75*
G02*
X113024998Y-72200000I249998J0D01*
G01*
X114100002Y-72200000D01*
G75*
G02*
X114350000Y-72449998I0J-249998D01*
G01*
X114350000Y-75350002D01*
G75*
G02*
X114100002Y-75600000I-249998J0D01*
G01*
X113024998Y-75600000D01*
G75*
G02*
X112775000Y-75350002I0J249998D01*
G01*
G37*
G36*
G01*
X117050000Y-75350002D02*
X117050000Y-72449998D01*
G75*
G02*
X117299998Y-72200000I249998J0D01*
G01*
X118375002Y-72200000D01*
G75*
G02*
X118625000Y-72449998I0J-249998D01*
G01*
X118625000Y-75350002D01*
G75*
G02*
X118375002Y-75600000I-249998J0D01*
G01*
X117299998Y-75600000D01*
G75*
G02*
X117050000Y-75350002I0J249998D01*
G01*
G37*
G04 #@! TD*
G04 #@! TO.C,R6*
G36*
G01*
X131425000Y-78624999D02*
X131425000Y-80775001D01*
G75*
G02*
X131175001Y-81025000I-249999J0D01*
G01*
X130449999Y-81025000D01*
G75*
G02*
X130200000Y-80775001I0J249999D01*
G01*
X130200000Y-78624999D01*
G75*
G02*
X130449999Y-78375000I249999J0D01*
G01*
X131175001Y-78375000D01*
G75*
G02*
X131425000Y-78624999I0J-249999D01*
G01*
G37*
G36*
G01*
X126800000Y-78624999D02*
X126800000Y-80775001D01*
G75*
G02*
X126550001Y-81025000I-249999J0D01*
G01*
X125824999Y-81025000D01*
G75*
G02*
X125575000Y-80775001I0J249999D01*
G01*
X125575000Y-78624999D01*
G75*
G02*
X125824999Y-78375000I249999J0D01*
G01*
X126550001Y-78375000D01*
G75*
G02*
X126800000Y-78624999I0J-249999D01*
G01*
G37*
G04 #@! TD*
G04 #@! TO.C,J3*
G36*
G01*
X109445001Y-93470000D02*
X107754999Y-93470000D01*
G75*
G02*
X107505000Y-93220001I0J249999D01*
G01*
X107505000Y-91979999D01*
G75*
G02*
X107754999Y-91730000I249999J0D01*
G01*
X109445001Y-91730000D01*
G75*
G02*
X109695000Y-91979999I0J-249999D01*
G01*
X109695000Y-93220001D01*
G75*
G02*
X109445001Y-93470000I-249999J0D01*
G01*
G37*
D12*
X108600000Y-90060000D03*
X108600000Y-87520000D03*
X108600000Y-84980000D03*
X108600000Y-82440000D03*
G04 #@! TD*
G04 #@! TO.C,C7*
G36*
G01*
X112549998Y-80275000D02*
X115450002Y-80275000D01*
G75*
G02*
X115700000Y-80524998I0J-249998D01*
G01*
X115700000Y-81600002D01*
G75*
G02*
X115450002Y-81850000I-249998J0D01*
G01*
X112549998Y-81850000D01*
G75*
G02*
X112300000Y-81600002I0J249998D01*
G01*
X112300000Y-80524998D01*
G75*
G02*
X112549998Y-80275000I249998J0D01*
G01*
G37*
G36*
G01*
X112549998Y-84550000D02*
X115450002Y-84550000D01*
G75*
G02*
X115700000Y-84799998I0J-249998D01*
G01*
X115700000Y-85875002D01*
G75*
G02*
X115450002Y-86125000I-249998J0D01*
G01*
X112549998Y-86125000D01*
G75*
G02*
X112300000Y-85875002I0J249998D01*
G01*
X112300000Y-84799998D01*
G75*
G02*
X112549998Y-84550000I249998J0D01*
G01*
G37*
G04 #@! TD*
G04 #@! TO.C,JP2*
G36*
G01*
X164674999Y-95050000D02*
X167525001Y-95050000D01*
G75*
G02*
X167775000Y-95299999I0J-249999D01*
G01*
X167775000Y-96025001D01*
G75*
G02*
X167525001Y-96275000I-249999J0D01*
G01*
X164674999Y-96275000D01*
G75*
G02*
X164425000Y-96025001I0J249999D01*
G01*
X164425000Y-95299999D01*
G75*
G02*
X164674999Y-95050000I249999J0D01*
G01*
G37*
G36*
G01*
X164674999Y-89125000D02*
X167525001Y-89125000D01*
G75*
G02*
X167775000Y-89374999I0J-249999D01*
G01*
X167775000Y-90100001D01*
G75*
G02*
X167525001Y-90350000I-249999J0D01*
G01*
X164674999Y-90350000D01*
G75*
G02*
X164425000Y-90100001I0J249999D01*
G01*
X164425000Y-89374999D01*
G75*
G02*
X164674999Y-89125000I249999J0D01*
G01*
G37*
G04 #@! TD*
G04 #@! TO.C,R1*
G36*
G01*
X125575000Y-68175001D02*
X125575000Y-66024999D01*
G75*
G02*
X125824999Y-65775000I249999J0D01*
G01*
X126550001Y-65775000D01*
G75*
G02*
X126800000Y-66024999I0J-249999D01*
G01*
X126800000Y-68175001D01*
G75*
G02*
X126550001Y-68425000I-249999J0D01*
G01*
X125824999Y-68425000D01*
G75*
G02*
X125575000Y-68175001I0J249999D01*
G01*
G37*
G36*
G01*
X130200000Y-68175001D02*
X130200000Y-66024999D01*
G75*
G02*
X130449999Y-65775000I249999J0D01*
G01*
X131175001Y-65775000D01*
G75*
G02*
X131425000Y-66024999I0J-249999D01*
G01*
X131425000Y-68175001D01*
G75*
G02*
X131175001Y-68425000I-249999J0D01*
G01*
X130449999Y-68425000D01*
G75*
G02*
X130200000Y-68175001I0J249999D01*
G01*
G37*
G04 #@! TD*
G04 #@! TO.C,R2*
G36*
G01*
X130100000Y-77375001D02*
X130100000Y-75224999D01*
G75*
G02*
X130349999Y-74975000I249999J0D01*
G01*
X131075001Y-74975000D01*
G75*
G02*
X131325000Y-75224999I0J-249999D01*
G01*
X131325000Y-77375001D01*
G75*
G02*
X131075001Y-77625000I-249999J0D01*
G01*
X130349999Y-77625000D01*
G75*
G02*
X130100000Y-77375001I0J249999D01*
G01*
G37*
G36*
G01*
X125475000Y-77375001D02*
X125475000Y-75224999D01*
G75*
G02*
X125724999Y-74975000I249999J0D01*
G01*
X126450001Y-74975000D01*
G75*
G02*
X126700000Y-75224999I0J-249999D01*
G01*
X126700000Y-77375001D01*
G75*
G02*
X126450001Y-77625000I-249999J0D01*
G01*
X125724999Y-77625000D01*
G75*
G02*
X125475000Y-77375001I0J249999D01*
G01*
G37*
G04 #@! TD*
G04 #@! TO.C,R5*
G36*
G01*
X126800000Y-69924999D02*
X126800000Y-72075001D01*
G75*
G02*
X126550001Y-72325000I-249999J0D01*
G01*
X125824999Y-72325000D01*
G75*
G02*
X125575000Y-72075001I0J249999D01*
G01*
X125575000Y-69924999D01*
G75*
G02*
X125824999Y-69675000I249999J0D01*
G01*
X126550001Y-69675000D01*
G75*
G02*
X126800000Y-69924999I0J-249999D01*
G01*
G37*
G36*
G01*
X131425000Y-69924999D02*
X131425000Y-72075001D01*
G75*
G02*
X131175001Y-72325000I-249999J0D01*
G01*
X130449999Y-72325000D01*
G75*
G02*
X130200000Y-72075001I0J249999D01*
G01*
X130200000Y-69924999D01*
G75*
G02*
X130449999Y-69675000I249999J0D01*
G01*
X131175001Y-69675000D01*
G75*
G02*
X131425000Y-69924999I0J-249999D01*
G01*
G37*
G04 #@! TD*
G04 #@! TO.C,C9*
G36*
G01*
X128999999Y-84850000D02*
X131200001Y-84850000D01*
G75*
G02*
X131450000Y-85099999I0J-249999D01*
G01*
X131450000Y-85750001D01*
G75*
G02*
X131200001Y-86000000I-249999J0D01*
G01*
X128999999Y-86000000D01*
G75*
G02*
X128750000Y-85750001I0J249999D01*
G01*
X128750000Y-85099999D01*
G75*
G02*
X128999999Y-84850000I249999J0D01*
G01*
G37*
G36*
G01*
X128999999Y-87800000D02*
X131200001Y-87800000D01*
G75*
G02*
X131450000Y-88049999I0J-249999D01*
G01*
X131450000Y-88700001D01*
G75*
G02*
X131200001Y-88950000I-249999J0D01*
G01*
X128999999Y-88950000D01*
G75*
G02*
X128750000Y-88700001I0J249999D01*
G01*
X128750000Y-88049999D01*
G75*
G02*
X128999999Y-87800000I249999J0D01*
G01*
G37*
G04 #@! TD*
G04 #@! TO.C,R3*
G36*
G01*
X127975001Y-89000000D02*
X125824999Y-89000000D01*
G75*
G02*
X125575000Y-88750001I0J249999D01*
G01*
X125575000Y-87849999D01*
G75*
G02*
X125824999Y-87600000I249999J0D01*
G01*
X127975001Y-87600000D01*
G75*
G02*
X128225000Y-87849999I0J-249999D01*
G01*
X128225000Y-88750001D01*
G75*
G02*
X127975001Y-89000000I-249999J0D01*
G01*
G37*
G36*
G01*
X127975001Y-84200000D02*
X125824999Y-84200000D01*
G75*
G02*
X125575000Y-83950001I0J249999D01*
G01*
X125575000Y-83049999D01*
G75*
G02*
X125824999Y-82800000I249999J0D01*
G01*
X127975001Y-82800000D01*
G75*
G02*
X128225000Y-83049999I0J-249999D01*
G01*
X128225000Y-83950001D01*
G75*
G02*
X127975001Y-84200000I-249999J0D01*
G01*
G37*
G04 #@! TD*
D13*
G04 #@! TO.C,H1*
X160900000Y-47900000D03*
G04 #@! TD*
G04 #@! TO.C,H2*
X152300000Y-97900000D03*
G04 #@! TD*
G04 #@! TO.C,H3*
X93200000Y-72300000D03*
G04 #@! TD*
G04 #@! TO.C,C6*
G36*
G01*
X108700001Y-75300000D02*
X106499999Y-75300000D01*
G75*
G02*
X106250000Y-75050001I0J249999D01*
G01*
X106250000Y-74399999D01*
G75*
G02*
X106499999Y-74150000I249999J0D01*
G01*
X108700001Y-74150000D01*
G75*
G02*
X108950000Y-74399999I0J-249999D01*
G01*
X108950000Y-75050001D01*
G75*
G02*
X108700001Y-75300000I-249999J0D01*
G01*
G37*
G36*
G01*
X108700001Y-78250000D02*
X106499999Y-78250000D01*
G75*
G02*
X106250000Y-78000001I0J249999D01*
G01*
X106250000Y-77349999D01*
G75*
G02*
X106499999Y-77100000I249999J0D01*
G01*
X108700001Y-77100000D01*
G75*
G02*
X108950000Y-77349999I0J-249999D01*
G01*
X108950000Y-78000001D01*
G75*
G02*
X108700001Y-78250000I-249999J0D01*
G01*
G37*
G04 #@! TD*
D14*
G04 #@! TO.C,Q4*
X151875000Y-73800000D03*
D15*
X142725000Y-71260000D03*
X142725000Y-76340000D03*
G04 #@! TD*
D16*
G04 #@! TO.C,Q3*
X154432000Y-65376000D03*
X149352000Y-65376000D03*
D17*
X151892000Y-56226000D03*
G04 #@! TD*
D18*
G04 #@! TO.C,C8*
X167200000Y-73600000D03*
X164700000Y-73600000D03*
G04 #@! TD*
D11*
G04 #@! TO.C,TP6*
X111300000Y-76000000D03*
G04 #@! TD*
D19*
G04 #@! TO.C,C3*
X113600000Y-52600000D03*
X113600000Y-60100000D03*
G04 #@! TD*
G04 #@! TO.C,C4*
X132400000Y-52700000D03*
X132400000Y-60200000D03*
G04 #@! TD*
D13*
G04 #@! TO.C,J4*
X166200000Y-65000000D03*
X166200000Y-69435000D03*
X170635000Y-65000000D03*
X166200000Y-60565000D03*
X161765000Y-65000000D03*
X161765000Y-69435000D03*
X161765000Y-60565000D03*
X170635000Y-60565000D03*
X170635000Y-69435000D03*
G04 #@! TD*
G04 #@! TO.C,J1*
X101435000Y-55535000D03*
X101435000Y-46665000D03*
X92565000Y-46665000D03*
X92565000Y-55535000D03*
X92565000Y-51100000D03*
X97000000Y-46665000D03*
X101435000Y-51100000D03*
X97000000Y-55535000D03*
X97000000Y-51100000D03*
G04 #@! TD*
G04 #@! TO.C,J2*
X101335000Y-99135000D03*
X101335000Y-90265000D03*
X92465000Y-90265000D03*
X92465000Y-99135000D03*
X92465000Y-94700000D03*
X96900000Y-90265000D03*
X101335000Y-94700000D03*
X96900000Y-99135000D03*
X96900000Y-94700000D03*
G04 #@! TD*
G04 #@! TO.C,J5*
X166100000Y-82200000D03*
X166100000Y-86635000D03*
X170535000Y-82200000D03*
X166100000Y-77765000D03*
X161665000Y-82200000D03*
X161665000Y-86635000D03*
X161665000Y-77765000D03*
X170535000Y-77765000D03*
X170535000Y-86635000D03*
G04 #@! TD*
G04 #@! TO.C,R7*
G36*
G01*
X115600000Y-93725001D02*
X115600000Y-92474999D01*
G75*
G02*
X115849999Y-92225000I249999J0D01*
G01*
X116475001Y-92225000D01*
G75*
G02*
X116725000Y-92474999I0J-249999D01*
G01*
X116725000Y-93725001D01*
G75*
G02*
X116475001Y-93975000I-249999J0D01*
G01*
X115849999Y-93975000D01*
G75*
G02*
X115600000Y-93725001I0J249999D01*
G01*
G37*
G36*
G01*
X112675000Y-93725001D02*
X112675000Y-92474999D01*
G75*
G02*
X112924999Y-92225000I249999J0D01*
G01*
X113550001Y-92225000D01*
G75*
G02*
X113800000Y-92474999I0J-249999D01*
G01*
X113800000Y-93725001D01*
G75*
G02*
X113550001Y-93975000I-249999J0D01*
G01*
X112924999Y-93975000D01*
G75*
G02*
X112675000Y-93725001I0J249999D01*
G01*
G37*
G04 #@! TD*
G04 #@! TO.C,R8*
G36*
G01*
X112675000Y-95975001D02*
X112675000Y-94724999D01*
G75*
G02*
X112924999Y-94475000I249999J0D01*
G01*
X113550001Y-94475000D01*
G75*
G02*
X113800000Y-94724999I0J-249999D01*
G01*
X113800000Y-95975001D01*
G75*
G02*
X113550001Y-96225000I-249999J0D01*
G01*
X112924999Y-96225000D01*
G75*
G02*
X112675000Y-95975001I0J249999D01*
G01*
G37*
G36*
G01*
X115600000Y-95975001D02*
X115600000Y-94724999D01*
G75*
G02*
X115849999Y-94475000I249999J0D01*
G01*
X116475001Y-94475000D01*
G75*
G02*
X116725000Y-94724999I0J-249999D01*
G01*
X116725000Y-95975001D01*
G75*
G02*
X116475001Y-96225000I-249999J0D01*
G01*
X115849999Y-96225000D01*
G75*
G02*
X115600000Y-95975001I0J249999D01*
G01*
G37*
G04 #@! TD*
G04 #@! TO.C,R9*
G36*
G01*
X112074999Y-87075000D02*
X113325001Y-87075000D01*
G75*
G02*
X113575000Y-87324999I0J-249999D01*
G01*
X113575000Y-87950001D01*
G75*
G02*
X113325001Y-88200000I-249999J0D01*
G01*
X112074999Y-88200000D01*
G75*
G02*
X111825000Y-87950001I0J249999D01*
G01*
X111825000Y-87324999D01*
G75*
G02*
X112074999Y-87075000I249999J0D01*
G01*
G37*
G36*
G01*
X112074999Y-90000000D02*
X113325001Y-90000000D01*
G75*
G02*
X113575000Y-90249999I0J-249999D01*
G01*
X113575000Y-90875001D01*
G75*
G02*
X113325001Y-91125000I-249999J0D01*
G01*
X112074999Y-91125000D01*
G75*
G02*
X111825000Y-90875001I0J249999D01*
G01*
X111825000Y-90249999D01*
G75*
G02*
X112074999Y-90000000I249999J0D01*
G01*
G37*
G04 #@! TD*
M02*
