G04 #@! TF.GenerationSoftware,KiCad,Pcbnew,(5.1.10)-1*
G04 #@! TF.CreationDate,2021-06-17T19:52:21-04:00*
G04 #@! TF.ProjectId,Motor Controller 2020,4d6f746f-7220-4436-9f6e-74726f6c6c65,rev?*
G04 #@! TF.SameCoordinates,Original*
G04 #@! TF.FileFunction,Legend,Bot*
G04 #@! TF.FilePolarity,Positive*
%FSLAX46Y46*%
G04 Gerber Fmt 4.6, Leading zero omitted, Abs format (unit mm)*
G04 Created by KiCad (PCBNEW (5.1.10)-1) date 2021-06-17 19:52:21*
%MOMM*%
%LPD*%
G01*
G04 APERTURE LIST*
%ADD10C,0.120000*%
%ADD11C,0.150000*%
G04 APERTURE END LIST*
D10*
X130827064Y-77840000D02*
X127772936Y-77840000D01*
X130827064Y-80560000D02*
X127772936Y-80560000D01*
X105861252Y-80510000D02*
X103538748Y-80510000D01*
X105861252Y-77090000D02*
X103538748Y-77090000D01*
X116210000Y-83038748D02*
X116210000Y-85361252D01*
X112790000Y-83038748D02*
X112790000Y-85361252D01*
X148502000Y-80978000D02*
X148502000Y-82078000D01*
X146692000Y-80978000D02*
X148502000Y-80978000D01*
X146692000Y-79478000D02*
X146692000Y-80978000D01*
X155282000Y-80978000D02*
X155282000Y-86103000D01*
X157092000Y-80978000D02*
X155282000Y-80978000D01*
X157092000Y-79478000D02*
X157092000Y-80978000D01*
X145408000Y-61051000D02*
X145408000Y-62551000D01*
X145408000Y-62551000D02*
X143598000Y-62551000D01*
X143598000Y-62551000D02*
X143598000Y-67676000D01*
X135008000Y-61051000D02*
X135008000Y-62551000D01*
X135008000Y-62551000D02*
X136818000Y-62551000D01*
X136818000Y-62551000D02*
X136818000Y-63651000D01*
X145535000Y-79466000D02*
X145535000Y-80966000D01*
X145535000Y-80966000D02*
X143725000Y-80966000D01*
X143725000Y-80966000D02*
X143725000Y-86091000D01*
X135135000Y-79466000D02*
X135135000Y-80966000D01*
X135135000Y-80966000D02*
X136945000Y-80966000D01*
X136945000Y-80966000D02*
X136945000Y-82066000D01*
X157092000Y-61051000D02*
X157092000Y-62551000D01*
X157092000Y-62551000D02*
X155282000Y-62551000D01*
X155282000Y-62551000D02*
X155282000Y-67676000D01*
X146692000Y-61051000D02*
X146692000Y-62551000D01*
X146692000Y-62551000D02*
X148502000Y-62551000D01*
X148502000Y-62551000D02*
X148502000Y-63651000D01*
X157477064Y-92910000D02*
X153122936Y-92910000D01*
X157477064Y-89490000D02*
X153122936Y-89490000D01*
X131327064Y-66660000D02*
X128272936Y-66660000D01*
X131327064Y-63940000D02*
X128272936Y-63940000D01*
X108590000Y-75423752D02*
X108590000Y-73101248D01*
X112010000Y-75423752D02*
X112010000Y-73101248D01*
X126288748Y-86540000D02*
X127711252Y-86540000D01*
X126288748Y-89260000D02*
X127711252Y-89260000D01*
X129502065Y-85965001D02*
X126447937Y-85965001D01*
X129502065Y-83245001D02*
X126447937Y-83245001D01*
X104670000Y-81530000D02*
X103400000Y-81530000D01*
X104670000Y-82800000D02*
X104670000Y-81530000D01*
X102357071Y-85720000D02*
X101960000Y-85720000D01*
X102357071Y-84960000D02*
X101960000Y-84960000D01*
X93300000Y-85720000D02*
X99300000Y-85720000D01*
X93300000Y-84960000D02*
X93300000Y-85720000D01*
X99300000Y-84960000D02*
X93300000Y-84960000D01*
X101960000Y-84070000D02*
X99300000Y-84070000D01*
X102290000Y-83180000D02*
X101960000Y-83180000D01*
X102290000Y-82420000D02*
X101960000Y-82420000D01*
X99300000Y-83080000D02*
X93300000Y-83080000D01*
X99300000Y-82960000D02*
X93300000Y-82960000D01*
X99300000Y-82840000D02*
X93300000Y-82840000D01*
X99300000Y-82720000D02*
X93300000Y-82720000D01*
X99300000Y-82600000D02*
X93300000Y-82600000D01*
X99300000Y-82480000D02*
X93300000Y-82480000D01*
X93300000Y-83180000D02*
X99300000Y-83180000D01*
X93300000Y-82420000D02*
X93300000Y-83180000D01*
X99300000Y-82420000D02*
X93300000Y-82420000D01*
X99300000Y-81470000D02*
X101960000Y-81470000D01*
X99300000Y-86670000D02*
X99300000Y-81470000D01*
X101960000Y-86670000D02*
X99300000Y-86670000D01*
X101960000Y-81470000D02*
X101960000Y-86670000D01*
D11*
X129466666Y-77372380D02*
X129800000Y-76896190D01*
X130038095Y-77372380D02*
X130038095Y-76372380D01*
X129657142Y-76372380D01*
X129561904Y-76420000D01*
X129514285Y-76467619D01*
X129466666Y-76562857D01*
X129466666Y-76705714D01*
X129514285Y-76800952D01*
X129561904Y-76848571D01*
X129657142Y-76896190D01*
X130038095Y-76896190D01*
X128609523Y-76372380D02*
X128800000Y-76372380D01*
X128895238Y-76420000D01*
X128942857Y-76467619D01*
X129038095Y-76610476D01*
X129085714Y-76800952D01*
X129085714Y-77181904D01*
X129038095Y-77277142D01*
X128990476Y-77324761D01*
X128895238Y-77372380D01*
X128704761Y-77372380D01*
X128609523Y-77324761D01*
X128561904Y-77277142D01*
X128514285Y-77181904D01*
X128514285Y-76943809D01*
X128561904Y-76848571D01*
X128609523Y-76800952D01*
X128704761Y-76753333D01*
X128895238Y-76753333D01*
X128990476Y-76800952D01*
X129038095Y-76848571D01*
X129085714Y-76943809D01*
X100705666Y-79553142D02*
X100753285Y-79600761D01*
X100896142Y-79648380D01*
X100991380Y-79648380D01*
X101134238Y-79600761D01*
X101229476Y-79505523D01*
X101277095Y-79410285D01*
X101324714Y-79219809D01*
X101324714Y-79076952D01*
X101277095Y-78886476D01*
X101229476Y-78791238D01*
X101134238Y-78696000D01*
X100991380Y-78648380D01*
X100896142Y-78648380D01*
X100753285Y-78696000D01*
X100705666Y-78743619D01*
X100324714Y-78743619D02*
X100277095Y-78696000D01*
X100181857Y-78648380D01*
X99943761Y-78648380D01*
X99848523Y-78696000D01*
X99800904Y-78743619D01*
X99753285Y-78838857D01*
X99753285Y-78934095D01*
X99800904Y-79076952D01*
X100372333Y-79648380D01*
X99753285Y-79648380D01*
X112207142Y-83557142D02*
X112254761Y-83509523D01*
X112302380Y-83366666D01*
X112302380Y-83271428D01*
X112254761Y-83128571D01*
X112159523Y-83033333D01*
X112064285Y-82985714D01*
X111873809Y-82938095D01*
X111730952Y-82938095D01*
X111540476Y-82985714D01*
X111445238Y-83033333D01*
X111350000Y-83128571D01*
X111302380Y-83271428D01*
X111302380Y-83366666D01*
X111350000Y-83509523D01*
X111397619Y-83557142D01*
X112302380Y-84509523D02*
X112302380Y-83938095D01*
X112302380Y-84223809D02*
X111302380Y-84223809D01*
X111445238Y-84128571D01*
X111540476Y-84033333D01*
X111588095Y-83938095D01*
X112302380Y-85461904D02*
X112302380Y-84890476D01*
X112302380Y-85176190D02*
X111302380Y-85176190D01*
X111445238Y-85080952D01*
X111540476Y-84985714D01*
X111588095Y-84890476D01*
X156884619Y-83689761D02*
X156837000Y-83594523D01*
X156741761Y-83499285D01*
X156598904Y-83356428D01*
X156551285Y-83261190D01*
X156551285Y-83165952D01*
X156789380Y-83213571D02*
X156741761Y-83118333D01*
X156646523Y-83023095D01*
X156456047Y-82975476D01*
X156122714Y-82975476D01*
X155932238Y-83023095D01*
X155837000Y-83118333D01*
X155789380Y-83213571D01*
X155789380Y-83404047D01*
X155837000Y-83499285D01*
X155932238Y-83594523D01*
X156122714Y-83642142D01*
X156456047Y-83642142D01*
X156646523Y-83594523D01*
X156741761Y-83499285D01*
X156789380Y-83404047D01*
X156789380Y-83213571D01*
X155789380Y-84546904D02*
X155789380Y-84070714D01*
X156265571Y-84023095D01*
X156217952Y-84070714D01*
X156170333Y-84165952D01*
X156170333Y-84404047D01*
X156217952Y-84499285D01*
X156265571Y-84546904D01*
X156360809Y-84594523D01*
X156598904Y-84594523D01*
X156694142Y-84546904D01*
X156741761Y-84499285D01*
X156789380Y-84404047D01*
X156789380Y-84165952D01*
X156741761Y-84070714D01*
X156694142Y-84023095D01*
X145200619Y-65257762D02*
X145153000Y-65162524D01*
X145057761Y-65067286D01*
X144914904Y-64924429D01*
X144867285Y-64829191D01*
X144867285Y-64733953D01*
X145105380Y-64781572D02*
X145057761Y-64686334D01*
X144962523Y-64591096D01*
X144772047Y-64543477D01*
X144438714Y-64543477D01*
X144248238Y-64591096D01*
X144153000Y-64686334D01*
X144105380Y-64781572D01*
X144105380Y-64972048D01*
X144153000Y-65067286D01*
X144248238Y-65162524D01*
X144438714Y-65210143D01*
X144772047Y-65210143D01*
X144962523Y-65162524D01*
X145057761Y-65067286D01*
X145105380Y-64972048D01*
X145105380Y-64781572D01*
X144105380Y-66067286D02*
X144105380Y-65876810D01*
X144153000Y-65781572D01*
X144200619Y-65733953D01*
X144343476Y-65638715D01*
X144533952Y-65591096D01*
X144914904Y-65591096D01*
X145010142Y-65638715D01*
X145057761Y-65686334D01*
X145105380Y-65781572D01*
X145105380Y-65972048D01*
X145057761Y-66067286D01*
X145010142Y-66114905D01*
X144914904Y-66162524D01*
X144676809Y-66162524D01*
X144581571Y-66114905D01*
X144533952Y-66067286D01*
X144486333Y-65972048D01*
X144486333Y-65781572D01*
X144533952Y-65686334D01*
X144581571Y-65638715D01*
X144676809Y-65591096D01*
X145327619Y-83689761D02*
X145280000Y-83594523D01*
X145184761Y-83499285D01*
X145041904Y-83356428D01*
X144994285Y-83261190D01*
X144994285Y-83165952D01*
X145232380Y-83213571D02*
X145184761Y-83118333D01*
X145089523Y-83023095D01*
X144899047Y-82975476D01*
X144565714Y-82975476D01*
X144375238Y-83023095D01*
X144280000Y-83118333D01*
X144232380Y-83213571D01*
X144232380Y-83404047D01*
X144280000Y-83499285D01*
X144375238Y-83594523D01*
X144565714Y-83642142D01*
X144899047Y-83642142D01*
X145089523Y-83594523D01*
X145184761Y-83499285D01*
X145232380Y-83404047D01*
X145232380Y-83213571D01*
X144660952Y-84213571D02*
X144613333Y-84118333D01*
X144565714Y-84070714D01*
X144470476Y-84023095D01*
X144422857Y-84023095D01*
X144327619Y-84070714D01*
X144280000Y-84118333D01*
X144232380Y-84213571D01*
X144232380Y-84404047D01*
X144280000Y-84499285D01*
X144327619Y-84546904D01*
X144422857Y-84594523D01*
X144470476Y-84594523D01*
X144565714Y-84546904D01*
X144613333Y-84499285D01*
X144660952Y-84404047D01*
X144660952Y-84213571D01*
X144708571Y-84118333D01*
X144756190Y-84070714D01*
X144851428Y-84023095D01*
X145041904Y-84023095D01*
X145137142Y-84070714D01*
X145184761Y-84118333D01*
X145232380Y-84213571D01*
X145232380Y-84404047D01*
X145184761Y-84499285D01*
X145137142Y-84546904D01*
X145041904Y-84594523D01*
X144851428Y-84594523D01*
X144756190Y-84546904D01*
X144708571Y-84499285D01*
X144660952Y-84404047D01*
X156884619Y-65347761D02*
X156837000Y-65252523D01*
X156741761Y-65157285D01*
X156598904Y-65014428D01*
X156551285Y-64919190D01*
X156551285Y-64823952D01*
X156789380Y-64871571D02*
X156741761Y-64776333D01*
X156646523Y-64681095D01*
X156456047Y-64633476D01*
X156122714Y-64633476D01*
X155932238Y-64681095D01*
X155837000Y-64776333D01*
X155789380Y-64871571D01*
X155789380Y-65062047D01*
X155837000Y-65157285D01*
X155932238Y-65252523D01*
X156122714Y-65300142D01*
X156456047Y-65300142D01*
X156646523Y-65252523D01*
X156741761Y-65157285D01*
X156789380Y-65062047D01*
X156789380Y-64871571D01*
X155789380Y-65633476D02*
X155789380Y-66300142D01*
X156789380Y-65871571D01*
X156133333Y-88032380D02*
X156133333Y-88746666D01*
X156180952Y-88889523D01*
X156276190Y-88984761D01*
X156419047Y-89032380D01*
X156514285Y-89032380D01*
X155657142Y-89032380D02*
X155657142Y-88032380D01*
X155276190Y-88032380D01*
X155180952Y-88080000D01*
X155133333Y-88127619D01*
X155085714Y-88222857D01*
X155085714Y-88365714D01*
X155133333Y-88460952D01*
X155180952Y-88508571D01*
X155276190Y-88556190D01*
X155657142Y-88556190D01*
X154704761Y-88127619D02*
X154657142Y-88080000D01*
X154561904Y-88032380D01*
X154323809Y-88032380D01*
X154228571Y-88080000D01*
X154180952Y-88127619D01*
X154133333Y-88222857D01*
X154133333Y-88318095D01*
X154180952Y-88460952D01*
X154752380Y-89032380D01*
X154133333Y-89032380D01*
X129966666Y-63472380D02*
X130300000Y-62996190D01*
X130538095Y-63472380D02*
X130538095Y-62472380D01*
X130157142Y-62472380D01*
X130061904Y-62520000D01*
X130014285Y-62567619D01*
X129966666Y-62662857D01*
X129966666Y-62805714D01*
X130014285Y-62900952D01*
X130061904Y-62948571D01*
X130157142Y-62996190D01*
X130538095Y-62996190D01*
X129061904Y-62472380D02*
X129538095Y-62472380D01*
X129585714Y-62948571D01*
X129538095Y-62900952D01*
X129442857Y-62853333D01*
X129204761Y-62853333D01*
X129109523Y-62900952D01*
X129061904Y-62948571D01*
X129014285Y-63043809D01*
X129014285Y-63281904D01*
X129061904Y-63377142D01*
X129109523Y-63424761D01*
X129204761Y-63472380D01*
X129442857Y-63472380D01*
X129538095Y-63424761D01*
X129585714Y-63377142D01*
X113307142Y-74095833D02*
X113354761Y-74048214D01*
X113402380Y-73905357D01*
X113402380Y-73810119D01*
X113354761Y-73667261D01*
X113259523Y-73572023D01*
X113164285Y-73524404D01*
X112973809Y-73476785D01*
X112830952Y-73476785D01*
X112640476Y-73524404D01*
X112545238Y-73572023D01*
X112450000Y-73667261D01*
X112402380Y-73810119D01*
X112402380Y-73905357D01*
X112450000Y-74048214D01*
X112497619Y-74095833D01*
X112402380Y-74429166D02*
X112402380Y-75048214D01*
X112783333Y-74714880D01*
X112783333Y-74857738D01*
X112830952Y-74952976D01*
X112878571Y-75000595D01*
X112973809Y-75048214D01*
X113211904Y-75048214D01*
X113307142Y-75000595D01*
X113354761Y-74952976D01*
X113402380Y-74857738D01*
X113402380Y-74572023D01*
X113354761Y-74476785D01*
X113307142Y-74429166D01*
X127166666Y-90557142D02*
X127214285Y-90604761D01*
X127357142Y-90652380D01*
X127452380Y-90652380D01*
X127595238Y-90604761D01*
X127690476Y-90509523D01*
X127738095Y-90414285D01*
X127785714Y-90223809D01*
X127785714Y-90080952D01*
X127738095Y-89890476D01*
X127690476Y-89795238D01*
X127595238Y-89700000D01*
X127452380Y-89652380D01*
X127357142Y-89652380D01*
X127214285Y-89700000D01*
X127166666Y-89747619D01*
X126309523Y-89652380D02*
X126500000Y-89652380D01*
X126595238Y-89700000D01*
X126642857Y-89747619D01*
X126738095Y-89890476D01*
X126785714Y-90080952D01*
X126785714Y-90461904D01*
X126738095Y-90557142D01*
X126690476Y-90604761D01*
X126595238Y-90652380D01*
X126404761Y-90652380D01*
X126309523Y-90604761D01*
X126261904Y-90557142D01*
X126214285Y-90461904D01*
X126214285Y-90223809D01*
X126261904Y-90128571D01*
X126309523Y-90080952D01*
X126404761Y-90033333D01*
X126595238Y-90033333D01*
X126690476Y-90080952D01*
X126738095Y-90128571D01*
X126785714Y-90223809D01*
X128141667Y-82777381D02*
X128475001Y-82301191D01*
X128713096Y-82777381D02*
X128713096Y-81777381D01*
X128332143Y-81777381D01*
X128236905Y-81825001D01*
X128189286Y-81872620D01*
X128141667Y-81967858D01*
X128141667Y-82110715D01*
X128189286Y-82205953D01*
X128236905Y-82253572D01*
X128332143Y-82301191D01*
X128713096Y-82301191D01*
X127760715Y-81872620D02*
X127713096Y-81825001D01*
X127617858Y-81777381D01*
X127379762Y-81777381D01*
X127284524Y-81825001D01*
X127236905Y-81872620D01*
X127189286Y-81967858D01*
X127189286Y-82063096D01*
X127236905Y-82205953D01*
X127808334Y-82777381D01*
X127189286Y-82777381D01*
X98433333Y-80852380D02*
X98433333Y-81566666D01*
X98480952Y-81709523D01*
X98576190Y-81804761D01*
X98719047Y-81852380D01*
X98814285Y-81852380D01*
X97957142Y-81852380D02*
X97957142Y-80852380D01*
X97576190Y-80852380D01*
X97480952Y-80900000D01*
X97433333Y-80947619D01*
X97385714Y-81042857D01*
X97385714Y-81185714D01*
X97433333Y-81280952D01*
X97480952Y-81328571D01*
X97576190Y-81376190D01*
X97957142Y-81376190D01*
X97052380Y-80852380D02*
X96433333Y-80852380D01*
X96766666Y-81233333D01*
X96623809Y-81233333D01*
X96528571Y-81280952D01*
X96480952Y-81328571D01*
X96433333Y-81423809D01*
X96433333Y-81661904D01*
X96480952Y-81757142D01*
X96528571Y-81804761D01*
X96623809Y-81852380D01*
X96909523Y-81852380D01*
X97004761Y-81804761D01*
X97052380Y-81757142D01*
M02*
