G04 #@! TF.GenerationSoftware,KiCad,Pcbnew,(5.1.10)-1*
G04 #@! TF.CreationDate,2021-07-22T17:30:02-04:00*
G04 #@! TF.ProjectId,Motor Controller 2020,4d6f746f-7220-4436-9f6e-74726f6c6c65,rev?*
G04 #@! TF.SameCoordinates,Original*
G04 #@! TF.FileFunction,Copper,L1,Top*
G04 #@! TF.FilePolarity,Positive*
%FSLAX46Y46*%
G04 Gerber Fmt 4.6, Leading zero omitted, Abs format (unit mm)*
G04 Created by KiCad (PCBNEW (5.1.10)-1) date 2021-07-22 17:30:02*
%MOMM*%
%LPD*%
G01*
G04 APERTURE LIST*
G04 #@! TA.AperFunction,Profile*
%ADD10C,0.050000*%
G04 #@! TD*
G04 #@! TA.AperFunction,SMDPad,CuDef*
%ADD11R,1.120000X2.440000*%
G04 #@! TD*
G04 #@! TA.AperFunction,ComponentPad*
%ADD12O,2.190000X1.740000*%
G04 #@! TD*
G04 #@! TA.AperFunction,SMDPad,CuDef*
%ADD13R,2.600000X2.600000*%
G04 #@! TD*
G04 #@! TA.AperFunction,ComponentPad*
%ADD14C,0.500000*%
G04 #@! TD*
G04 #@! TA.AperFunction,SMDPad,CuDef*
%ADD15C,0.150000*%
G04 #@! TD*
G04 #@! TA.AperFunction,SMDPad,CuDef*
%ADD16R,1.700000X1.700000*%
G04 #@! TD*
G04 #@! TA.AperFunction,SMDPad,CuDef*
%ADD17C,1.000000*%
G04 #@! TD*
G04 #@! TA.AperFunction,SMDPad,CuDef*
%ADD18R,0.850000X0.300000*%
G04 #@! TD*
G04 #@! TA.AperFunction,SMDPad,CuDef*
%ADD19R,1.100000X4.600000*%
G04 #@! TD*
G04 #@! TA.AperFunction,SMDPad,CuDef*
%ADD20R,10.800000X9.400000*%
G04 #@! TD*
G04 #@! TA.AperFunction,SMDPad,CuDef*
%ADD21R,4.600000X1.100000*%
G04 #@! TD*
G04 #@! TA.AperFunction,SMDPad,CuDef*
%ADD22R,9.400000X10.800000*%
G04 #@! TD*
G04 #@! TA.AperFunction,ComponentPad*
%ADD23C,1.600000*%
G04 #@! TD*
G04 #@! TA.AperFunction,ComponentPad*
%ADD24C,2.000000*%
G04 #@! TD*
G04 #@! TA.AperFunction,ComponentPad*
%ADD25C,3.200000*%
G04 #@! TD*
G04 #@! TA.AperFunction,ViaPad*
%ADD26C,0.800000*%
G04 #@! TD*
G04 #@! TA.AperFunction,Conductor*
%ADD27C,0.300000*%
G04 #@! TD*
G04 #@! TA.AperFunction,Conductor*
%ADD28C,0.250000*%
G04 #@! TD*
G04 #@! TA.AperFunction,Conductor*
%ADD29C,0.350000*%
G04 #@! TD*
G04 #@! TA.AperFunction,Conductor*
%ADD30C,0.200000*%
G04 #@! TD*
G04 #@! TA.AperFunction,Conductor*
%ADD31C,0.508000*%
G04 #@! TD*
G04 #@! TA.AperFunction,Conductor*
%ADD32C,0.254000*%
G04 #@! TD*
G04 #@! TA.AperFunction,Conductor*
%ADD33C,0.150000*%
G04 #@! TD*
G04 APERTURE END LIST*
D10*
X174700000Y-102900000D02*
X174700000Y-42900000D01*
X88700000Y-42900000D02*
X174700000Y-42900000D01*
X88700000Y-102900000D02*
X88700000Y-42900000D01*
X88700000Y-102900000D02*
X174700000Y-102900000D01*
G04 #@! TO.P,R4,1*
G04 #@! TO.N,GND*
G04 #@! TA.AperFunction,SMDPad,CuDef*
G36*
G01*
X131400000Y-81724999D02*
X131400000Y-83875001D01*
G75*
G02*
X131150001Y-84125000I-249999J0D01*
G01*
X130249999Y-84125000D01*
G75*
G02*
X130000000Y-83875001I0J249999D01*
G01*
X130000000Y-81724999D01*
G75*
G02*
X130249999Y-81475000I249999J0D01*
G01*
X131150001Y-81475000D01*
G75*
G02*
X131400000Y-81724999I0J-249999D01*
G01*
G37*
G04 #@! TD.AperFunction*
G04 #@! TO.P,R4,2*
G04 #@! TO.N,Net-(R4-Pad2)*
G04 #@! TA.AperFunction,SMDPad,CuDef*
G36*
G01*
X126600000Y-81724999D02*
X126600000Y-83875001D01*
G75*
G02*
X126350001Y-84125000I-249999J0D01*
G01*
X125449999Y-84125000D01*
G75*
G02*
X125200000Y-83875001I0J249999D01*
G01*
X125200000Y-81724999D01*
G75*
G02*
X125449999Y-81475000I249999J0D01*
G01*
X126350001Y-81475000D01*
G75*
G02*
X126600000Y-81724999I0J-249999D01*
G01*
G37*
G04 #@! TD.AperFunction*
G04 #@! TD*
D11*
G04 #@! TO.P,SW1,1*
G04 #@! TO.N,GND*
X121960000Y-98505000D03*
G04 #@! TO.P,SW1,4*
G04 #@! TO.N,ADDR_Select_1*
X127040000Y-89895000D03*
G04 #@! TO.P,SW1,2*
G04 #@! TO.N,GND*
X124500000Y-98505000D03*
G04 #@! TO.P,SW1,5*
G04 #@! TO.N,ADDR_Select_2*
X124500000Y-89895000D03*
G04 #@! TO.P,SW1,3*
G04 #@! TO.N,GND*
X127040000Y-98505000D03*
G04 #@! TO.P,SW1,6*
G04 #@! TO.N,ADDR_Select_3*
X121960000Y-89895000D03*
G04 #@! TD*
G04 #@! TO.P,J3,1*
G04 #@! TO.N,A_RESET*
G04 #@! TA.AperFunction,ComponentPad*
G36*
G01*
X109445001Y-93470000D02*
X107754999Y-93470000D01*
G75*
G02*
X107505000Y-93220001I0J249999D01*
G01*
X107505000Y-91979999D01*
G75*
G02*
X107754999Y-91730000I249999J0D01*
G01*
X109445001Y-91730000D01*
G75*
G02*
X109695000Y-91979999I0J-249999D01*
G01*
X109695000Y-93220001D01*
G75*
G02*
X109445001Y-93470000I-249999J0D01*
G01*
G37*
G04 #@! TD.AperFunction*
D12*
G04 #@! TO.P,J3,2*
G04 #@! TO.N,SCK_SCL*
X108600000Y-90060000D03*
G04 #@! TO.P,J3,3*
G04 #@! TO.N,MISO*
X108600000Y-87520000D03*
G04 #@! TO.P,J3,4*
G04 #@! TO.N,SDA_MOSI*
X108600000Y-84980000D03*
G04 #@! TO.P,J3,5*
G04 #@! TO.N,GNDD*
X108600000Y-82440000D03*
G04 #@! TD*
G04 #@! TO.P,JP1,1*
G04 #@! TO.N,MOTOR+*
G04 #@! TA.AperFunction,SMDPad,CuDef*
G36*
G01*
X167625001Y-57975000D02*
X164774999Y-57975000D01*
G75*
G02*
X164525000Y-57725001I0J249999D01*
G01*
X164525000Y-56999999D01*
G75*
G02*
X164774999Y-56750000I249999J0D01*
G01*
X167625001Y-56750000D01*
G75*
G02*
X167875000Y-56999999I0J-249999D01*
G01*
X167875000Y-57725001D01*
G75*
G02*
X167625001Y-57975000I-249999J0D01*
G01*
G37*
G04 #@! TD.AperFunction*
G04 #@! TO.P,JP1,2*
G04 #@! TO.N,VCC*
G04 #@! TA.AperFunction,SMDPad,CuDef*
G36*
G01*
X167625001Y-52050000D02*
X164774999Y-52050000D01*
G75*
G02*
X164525000Y-51800001I0J249999D01*
G01*
X164525000Y-51074999D01*
G75*
G02*
X164774999Y-50825000I249999J0D01*
G01*
X167625001Y-50825000D01*
G75*
G02*
X167875000Y-51074999I0J-249999D01*
G01*
X167875000Y-51800001D01*
G75*
G02*
X167625001Y-52050000I-249999J0D01*
G01*
G37*
G04 #@! TD.AperFunction*
G04 #@! TD*
G04 #@! TO.P,C11,1*
G04 #@! TO.N,VCC*
G04 #@! TA.AperFunction,SMDPad,CuDef*
G36*
G01*
X115375000Y-73350002D02*
X115375000Y-70449998D01*
G75*
G02*
X115624998Y-70200000I249998J0D01*
G01*
X116700002Y-70200000D01*
G75*
G02*
X116950000Y-70449998I0J-249998D01*
G01*
X116950000Y-73350002D01*
G75*
G02*
X116700002Y-73600000I-249998J0D01*
G01*
X115624998Y-73600000D01*
G75*
G02*
X115375000Y-73350002I0J249998D01*
G01*
G37*
G04 #@! TD.AperFunction*
G04 #@! TO.P,C11,2*
G04 #@! TO.N,Net-(C11-Pad2)*
G04 #@! TA.AperFunction,SMDPad,CuDef*
G36*
G01*
X119650000Y-73350002D02*
X119650000Y-70449998D01*
G75*
G02*
X119899998Y-70200000I249998J0D01*
G01*
X120975002Y-70200000D01*
G75*
G02*
X121225000Y-70449998I0J-249998D01*
G01*
X121225000Y-73350002D01*
G75*
G02*
X120975002Y-73600000I-249998J0D01*
G01*
X119899998Y-73600000D01*
G75*
G02*
X119650000Y-73350002I0J249998D01*
G01*
G37*
G04 #@! TD.AperFunction*
G04 #@! TD*
G04 #@! TO.P,U3,1*
G04 #@! TO.N,Net-(R4-Pad2)*
G04 #@! TA.AperFunction,SMDPad,CuDef*
G36*
G01*
X122550000Y-80537500D02*
X122550000Y-80662500D01*
G75*
G02*
X122487500Y-80725000I-62500J0D01*
G01*
X121762500Y-80725000D01*
G75*
G02*
X121700000Y-80662500I0J62500D01*
G01*
X121700000Y-80537500D01*
G75*
G02*
X121762500Y-80475000I62500J0D01*
G01*
X122487500Y-80475000D01*
G75*
G02*
X122550000Y-80537500I0J-62500D01*
G01*
G37*
G04 #@! TD.AperFunction*
G04 #@! TO.P,U3,2*
G04 #@! TO.N,Mode*
G04 #@! TA.AperFunction,SMDPad,CuDef*
G36*
G01*
X122550000Y-80037500D02*
X122550000Y-80162500D01*
G75*
G02*
X122487500Y-80225000I-62500J0D01*
G01*
X121762500Y-80225000D01*
G75*
G02*
X121700000Y-80162500I0J62500D01*
G01*
X121700000Y-80037500D01*
G75*
G02*
X121762500Y-79975000I62500J0D01*
G01*
X122487500Y-79975000D01*
G75*
G02*
X122550000Y-80037500I0J-62500D01*
G01*
G37*
G04 #@! TD.AperFunction*
G04 #@! TO.P,U3,3*
G04 #@! TO.N,GND*
G04 #@! TA.AperFunction,SMDPad,CuDef*
G36*
G01*
X122550000Y-79537500D02*
X122550000Y-79662500D01*
G75*
G02*
X122487500Y-79725000I-62500J0D01*
G01*
X121762500Y-79725000D01*
G75*
G02*
X121700000Y-79662500I0J62500D01*
G01*
X121700000Y-79537500D01*
G75*
G02*
X121762500Y-79475000I62500J0D01*
G01*
X122487500Y-79475000D01*
G75*
G02*
X122550000Y-79537500I0J-62500D01*
G01*
G37*
G04 #@! TD.AperFunction*
G04 #@! TO.P,U3,4*
G04 #@! TO.N,GLB*
G04 #@! TA.AperFunction,SMDPad,CuDef*
G36*
G01*
X122550000Y-79037500D02*
X122550000Y-79162500D01*
G75*
G02*
X122487500Y-79225000I-62500J0D01*
G01*
X121762500Y-79225000D01*
G75*
G02*
X121700000Y-79162500I0J62500D01*
G01*
X121700000Y-79037500D01*
G75*
G02*
X121762500Y-78975000I62500J0D01*
G01*
X122487500Y-78975000D01*
G75*
G02*
X122550000Y-79037500I0J-62500D01*
G01*
G37*
G04 #@! TD.AperFunction*
G04 #@! TO.P,U3,5*
G04 #@! TO.N,GLA*
G04 #@! TA.AperFunction,SMDPad,CuDef*
G36*
G01*
X122550000Y-78537500D02*
X122550000Y-78662500D01*
G75*
G02*
X122487500Y-78725000I-62500J0D01*
G01*
X121762500Y-78725000D01*
G75*
G02*
X121700000Y-78662500I0J62500D01*
G01*
X121700000Y-78537500D01*
G75*
G02*
X121762500Y-78475000I62500J0D01*
G01*
X122487500Y-78475000D01*
G75*
G02*
X122550000Y-78537500I0J-62500D01*
G01*
G37*
G04 #@! TD.AperFunction*
G04 #@! TO.P,U3,6*
G04 #@! TO.N,GHB*
G04 #@! TA.AperFunction,SMDPad,CuDef*
G36*
G01*
X121325000Y-77312500D02*
X121325000Y-78037500D01*
G75*
G02*
X121262500Y-78100000I-62500J0D01*
G01*
X121137500Y-78100000D01*
G75*
G02*
X121075000Y-78037500I0J62500D01*
G01*
X121075000Y-77312500D01*
G75*
G02*
X121137500Y-77250000I62500J0D01*
G01*
X121262500Y-77250000D01*
G75*
G02*
X121325000Y-77312500I0J-62500D01*
G01*
G37*
G04 #@! TD.AperFunction*
G04 #@! TO.P,U3,7*
G04 #@! TO.N,MOTOR-*
G04 #@! TA.AperFunction,SMDPad,CuDef*
G36*
G01*
X120825000Y-77312500D02*
X120825000Y-78037500D01*
G75*
G02*
X120762500Y-78100000I-62500J0D01*
G01*
X120637500Y-78100000D01*
G75*
G02*
X120575000Y-78037500I0J62500D01*
G01*
X120575000Y-77312500D01*
G75*
G02*
X120637500Y-77250000I62500J0D01*
G01*
X120762500Y-77250000D01*
G75*
G02*
X120825000Y-77312500I0J-62500D01*
G01*
G37*
G04 #@! TD.AperFunction*
G04 #@! TO.P,U3,8*
G04 #@! TO.N,GHA*
G04 #@! TA.AperFunction,SMDPad,CuDef*
G36*
G01*
X120325000Y-77312500D02*
X120325000Y-78037500D01*
G75*
G02*
X120262500Y-78100000I-62500J0D01*
G01*
X120137500Y-78100000D01*
G75*
G02*
X120075000Y-78037500I0J62500D01*
G01*
X120075000Y-77312500D01*
G75*
G02*
X120137500Y-77250000I62500J0D01*
G01*
X120262500Y-77250000D01*
G75*
G02*
X120325000Y-77312500I0J-62500D01*
G01*
G37*
G04 #@! TD.AperFunction*
G04 #@! TO.P,U3,9*
G04 #@! TO.N,MOTOR+*
G04 #@! TA.AperFunction,SMDPad,CuDef*
G36*
G01*
X119825000Y-77312500D02*
X119825000Y-78037500D01*
G75*
G02*
X119762500Y-78100000I-62500J0D01*
G01*
X119637500Y-78100000D01*
G75*
G02*
X119575000Y-78037500I0J62500D01*
G01*
X119575000Y-77312500D01*
G75*
G02*
X119637500Y-77250000I62500J0D01*
G01*
X119762500Y-77250000D01*
G75*
G02*
X119825000Y-77312500I0J-62500D01*
G01*
G37*
G04 #@! TD.AperFunction*
G04 #@! TO.P,U3,10*
G04 #@! TO.N,Net-(C11-Pad2)*
G04 #@! TA.AperFunction,SMDPad,CuDef*
G36*
G01*
X119325000Y-77312500D02*
X119325000Y-78037500D01*
G75*
G02*
X119262500Y-78100000I-62500J0D01*
G01*
X119137500Y-78100000D01*
G75*
G02*
X119075000Y-78037500I0J62500D01*
G01*
X119075000Y-77312500D01*
G75*
G02*
X119137500Y-77250000I62500J0D01*
G01*
X119262500Y-77250000D01*
G75*
G02*
X119325000Y-77312500I0J-62500D01*
G01*
G37*
G04 #@! TD.AperFunction*
G04 #@! TO.P,U3,11*
G04 #@! TO.N,Net-(C10-Pad2)*
G04 #@! TA.AperFunction,SMDPad,CuDef*
G36*
G01*
X118700000Y-78537500D02*
X118700000Y-78662500D01*
G75*
G02*
X118637500Y-78725000I-62500J0D01*
G01*
X117912500Y-78725000D01*
G75*
G02*
X117850000Y-78662500I0J62500D01*
G01*
X117850000Y-78537500D01*
G75*
G02*
X117912500Y-78475000I62500J0D01*
G01*
X118637500Y-78475000D01*
G75*
G02*
X118700000Y-78537500I0J-62500D01*
G01*
G37*
G04 #@! TD.AperFunction*
G04 #@! TO.P,U3,12*
G04 #@! TO.N,VCC*
G04 #@! TA.AperFunction,SMDPad,CuDef*
G36*
G01*
X118700000Y-79037500D02*
X118700000Y-79162500D01*
G75*
G02*
X118637500Y-79225000I-62500J0D01*
G01*
X117912500Y-79225000D01*
G75*
G02*
X117850000Y-79162500I0J62500D01*
G01*
X117850000Y-79037500D01*
G75*
G02*
X117912500Y-78975000I62500J0D01*
G01*
X118637500Y-78975000D01*
G75*
G02*
X118700000Y-79037500I0J-62500D01*
G01*
G37*
G04 #@! TD.AperFunction*
G04 #@! TO.P,U3,13*
G04 #@! TO.N,Net-(C10-Pad1)*
G04 #@! TA.AperFunction,SMDPad,CuDef*
G36*
G01*
X118700000Y-79537500D02*
X118700000Y-79662500D01*
G75*
G02*
X118637500Y-79725000I-62500J0D01*
G01*
X117912500Y-79725000D01*
G75*
G02*
X117850000Y-79662500I0J62500D01*
G01*
X117850000Y-79537500D01*
G75*
G02*
X117912500Y-79475000I62500J0D01*
G01*
X118637500Y-79475000D01*
G75*
G02*
X118700000Y-79537500I0J-62500D01*
G01*
G37*
G04 #@! TD.AperFunction*
G04 #@! TO.P,U3,14*
G04 #@! TO.N,GND*
G04 #@! TA.AperFunction,SMDPad,CuDef*
G36*
G01*
X118700000Y-80037500D02*
X118700000Y-80162500D01*
G75*
G02*
X118637500Y-80225000I-62500J0D01*
G01*
X117912500Y-80225000D01*
G75*
G02*
X117850000Y-80162500I0J62500D01*
G01*
X117850000Y-80037500D01*
G75*
G02*
X117912500Y-79975000I62500J0D01*
G01*
X118637500Y-79975000D01*
G75*
G02*
X118700000Y-80037500I0J-62500D01*
G01*
G37*
G04 #@! TD.AperFunction*
G04 #@! TO.P,U3,15*
G04 #@! TO.N,Net-(U3-Pad15)*
G04 #@! TA.AperFunction,SMDPad,CuDef*
G36*
G01*
X118700000Y-80537500D02*
X118700000Y-80662500D01*
G75*
G02*
X118637500Y-80725000I-62500J0D01*
G01*
X117912500Y-80725000D01*
G75*
G02*
X117850000Y-80662500I0J62500D01*
G01*
X117850000Y-80537500D01*
G75*
G02*
X117912500Y-80475000I62500J0D01*
G01*
X118637500Y-80475000D01*
G75*
G02*
X118700000Y-80537500I0J-62500D01*
G01*
G37*
G04 #@! TD.AperFunction*
G04 #@! TO.P,U3,16*
G04 #@! TO.N,Fault*
G04 #@! TA.AperFunction,SMDPad,CuDef*
G36*
G01*
X119325000Y-81162500D02*
X119325000Y-81887500D01*
G75*
G02*
X119262500Y-81950000I-62500J0D01*
G01*
X119137500Y-81950000D01*
G75*
G02*
X119075000Y-81887500I0J62500D01*
G01*
X119075000Y-81162500D01*
G75*
G02*
X119137500Y-81100000I62500J0D01*
G01*
X119262500Y-81100000D01*
G75*
G02*
X119325000Y-81162500I0J-62500D01*
G01*
G37*
G04 #@! TD.AperFunction*
G04 #@! TO.P,U3,17*
G04 #@! TO.N,+5V*
G04 #@! TA.AperFunction,SMDPad,CuDef*
G36*
G01*
X119825000Y-81162500D02*
X119825000Y-81887500D01*
G75*
G02*
X119762500Y-81950000I-62500J0D01*
G01*
X119637500Y-81950000D01*
G75*
G02*
X119575000Y-81887500I0J62500D01*
G01*
X119575000Y-81162500D01*
G75*
G02*
X119637500Y-81100000I62500J0D01*
G01*
X119762500Y-81100000D01*
G75*
G02*
X119825000Y-81162500I0J-62500D01*
G01*
G37*
G04 #@! TD.AperFunction*
G04 #@! TO.P,U3,18*
G04 #@! TO.N,PWM*
G04 #@! TA.AperFunction,SMDPad,CuDef*
G36*
G01*
X120325000Y-81162500D02*
X120325000Y-81887500D01*
G75*
G02*
X120262500Y-81950000I-62500J0D01*
G01*
X120137500Y-81950000D01*
G75*
G02*
X120075000Y-81887500I0J62500D01*
G01*
X120075000Y-81162500D01*
G75*
G02*
X120137500Y-81100000I62500J0D01*
G01*
X120262500Y-81100000D01*
G75*
G02*
X120325000Y-81162500I0J-62500D01*
G01*
G37*
G04 #@! TD.AperFunction*
G04 #@! TO.P,U3,19*
G04 #@! TO.N,Dir*
G04 #@! TA.AperFunction,SMDPad,CuDef*
G36*
G01*
X120825000Y-81162500D02*
X120825000Y-81887500D01*
G75*
G02*
X120762500Y-81950000I-62500J0D01*
G01*
X120637500Y-81950000D01*
G75*
G02*
X120575000Y-81887500I0J62500D01*
G01*
X120575000Y-81162500D01*
G75*
G02*
X120637500Y-81100000I62500J0D01*
G01*
X120762500Y-81100000D01*
G75*
G02*
X120825000Y-81162500I0J-62500D01*
G01*
G37*
G04 #@! TD.AperFunction*
G04 #@! TO.P,U3,20*
G04 #@! TO.N,Net-(C9-Pad1)*
G04 #@! TA.AperFunction,SMDPad,CuDef*
G36*
G01*
X121325000Y-81162500D02*
X121325000Y-81887500D01*
G75*
G02*
X121262500Y-81950000I-62500J0D01*
G01*
X121137500Y-81950000D01*
G75*
G02*
X121075000Y-81887500I0J62500D01*
G01*
X121075000Y-81162500D01*
G75*
G02*
X121137500Y-81100000I62500J0D01*
G01*
X121262500Y-81100000D01*
G75*
G02*
X121325000Y-81162500I0J-62500D01*
G01*
G37*
G04 #@! TD.AperFunction*
D13*
G04 #@! TO.P,U3,21*
G04 #@! TO.N,GND*
X120200000Y-79600000D03*
D14*
X121250000Y-80650000D03*
X119150000Y-80650000D03*
X121250000Y-78550000D03*
X119150000Y-78550000D03*
G04 #@! TD*
G04 #@! TO.P,C12,1*
G04 #@! TO.N,GND*
G04 #@! TA.AperFunction,SMDPad,CuDef*
G36*
G01*
X111549998Y-68475000D02*
X114450002Y-68475000D01*
G75*
G02*
X114700000Y-68724998I0J-249998D01*
G01*
X114700000Y-69800002D01*
G75*
G02*
X114450002Y-70050000I-249998J0D01*
G01*
X111549998Y-70050000D01*
G75*
G02*
X111300000Y-69800002I0J249998D01*
G01*
X111300000Y-68724998D01*
G75*
G02*
X111549998Y-68475000I249998J0D01*
G01*
G37*
G04 #@! TD.AperFunction*
G04 #@! TO.P,C12,2*
G04 #@! TO.N,VCC*
G04 #@! TA.AperFunction,SMDPad,CuDef*
G36*
G01*
X111549998Y-72750000D02*
X114450002Y-72750000D01*
G75*
G02*
X114700000Y-72999998I0J-249998D01*
G01*
X114700000Y-74075002D01*
G75*
G02*
X114450002Y-74325000I-249998J0D01*
G01*
X111549998Y-74325000D01*
G75*
G02*
X111300000Y-74075002I0J249998D01*
G01*
X111300000Y-72999998D01*
G75*
G02*
X111549998Y-72750000I249998J0D01*
G01*
G37*
G04 #@! TD.AperFunction*
G04 #@! TD*
G04 #@! TA.AperFunction,SMDPad,CuDef*
D15*
G04 #@! TO.P,U2,1*
G04 #@! TO.N,Net-(U2-Pad1)*
G36*
X118361956Y-88399039D02*
G01*
X118352577Y-88396194D01*
X118343932Y-88391573D01*
X118336356Y-88385355D01*
X118285645Y-88334644D01*
X118279427Y-88327068D01*
X118274806Y-88318423D01*
X118271961Y-88309044D01*
X118271000Y-88299289D01*
X118271000Y-88250000D01*
X118271961Y-88240245D01*
X118274806Y-88230866D01*
X118279427Y-88222221D01*
X118285645Y-88214645D01*
X118293221Y-88208427D01*
X118301866Y-88203806D01*
X118311245Y-88200961D01*
X118321000Y-88200000D01*
X119021000Y-88200000D01*
X119030755Y-88200961D01*
X119040134Y-88203806D01*
X119048779Y-88208427D01*
X119056355Y-88214645D01*
X119062573Y-88222221D01*
X119067194Y-88230866D01*
X119070039Y-88240245D01*
X119071000Y-88250000D01*
X119071000Y-88350000D01*
X119070039Y-88359755D01*
X119067194Y-88369134D01*
X119062573Y-88377779D01*
X119056355Y-88385355D01*
X119048779Y-88391573D01*
X119040134Y-88396194D01*
X119030755Y-88399039D01*
X119021000Y-88400000D01*
X118371711Y-88400000D01*
X118361956Y-88399039D01*
G37*
G04 #@! TD.AperFunction*
G04 #@! TO.P,U2,2*
G04 #@! TO.N,ADDR_Select_3*
G04 #@! TA.AperFunction,SMDPad,CuDef*
G36*
G01*
X119071000Y-87850000D02*
X119071000Y-87950000D01*
G75*
G02*
X119021000Y-88000000I-50000J0D01*
G01*
X118321000Y-88000000D01*
G75*
G02*
X118271000Y-87950000I0J50000D01*
G01*
X118271000Y-87850000D01*
G75*
G02*
X118321000Y-87800000I50000J0D01*
G01*
X119021000Y-87800000D01*
G75*
G02*
X119071000Y-87850000I0J-50000D01*
G01*
G37*
G04 #@! TD.AperFunction*
G04 #@! TO.P,U2,3*
G04 #@! TO.N,ADDR_Select_2*
G04 #@! TA.AperFunction,SMDPad,CuDef*
G36*
G01*
X119071000Y-87450000D02*
X119071000Y-87550000D01*
G75*
G02*
X119021000Y-87600000I-50000J0D01*
G01*
X118321000Y-87600000D01*
G75*
G02*
X118271000Y-87550000I0J50000D01*
G01*
X118271000Y-87450000D01*
G75*
G02*
X118321000Y-87400000I50000J0D01*
G01*
X119021000Y-87400000D01*
G75*
G02*
X119071000Y-87450000I0J-50000D01*
G01*
G37*
G04 #@! TD.AperFunction*
G04 #@! TO.P,U2,4*
G04 #@! TO.N,ADDR_Select_1*
G04 #@! TA.AperFunction,SMDPad,CuDef*
G36*
G01*
X119071000Y-87050000D02*
X119071000Y-87150000D01*
G75*
G02*
X119021000Y-87200000I-50000J0D01*
G01*
X118321000Y-87200000D01*
G75*
G02*
X118271000Y-87150000I0J50000D01*
G01*
X118271000Y-87050000D01*
G75*
G02*
X118321000Y-87000000I50000J0D01*
G01*
X119021000Y-87000000D01*
G75*
G02*
X119071000Y-87050000I0J-50000D01*
G01*
G37*
G04 #@! TD.AperFunction*
G04 #@! TA.AperFunction,SMDPad,CuDef*
G04 #@! TO.P,U2,5*
G04 #@! TO.N,Mode*
G36*
X118311245Y-86799039D02*
G01*
X118301866Y-86796194D01*
X118293221Y-86791573D01*
X118285645Y-86785355D01*
X118279427Y-86777779D01*
X118274806Y-86769134D01*
X118271961Y-86759755D01*
X118271000Y-86750000D01*
X118271000Y-86700711D01*
X118271961Y-86690956D01*
X118274806Y-86681577D01*
X118279427Y-86672932D01*
X118285645Y-86665356D01*
X118336356Y-86614645D01*
X118343932Y-86608427D01*
X118352577Y-86603806D01*
X118361956Y-86600961D01*
X118371711Y-86600000D01*
X119021000Y-86600000D01*
X119030755Y-86600961D01*
X119040134Y-86603806D01*
X119048779Y-86608427D01*
X119056355Y-86614645D01*
X119062573Y-86622221D01*
X119067194Y-86630866D01*
X119070039Y-86640245D01*
X119071000Y-86650000D01*
X119071000Y-86750000D01*
X119070039Y-86759755D01*
X119067194Y-86769134D01*
X119062573Y-86777779D01*
X119056355Y-86785355D01*
X119048779Y-86791573D01*
X119040134Y-86796194D01*
X119030755Y-86799039D01*
X119021000Y-86800000D01*
X118321000Y-86800000D01*
X118311245Y-86799039D01*
G37*
G04 #@! TD.AperFunction*
G04 #@! TA.AperFunction,SMDPad,CuDef*
G04 #@! TO.P,U2,6*
G04 #@! TO.N,Net-(U2-Pad6)*
G36*
X117961245Y-86449039D02*
G01*
X117951866Y-86446194D01*
X117943221Y-86441573D01*
X117935645Y-86435355D01*
X117929427Y-86427779D01*
X117924806Y-86419134D01*
X117921961Y-86409755D01*
X117921000Y-86400000D01*
X117921000Y-85700000D01*
X117921961Y-85690245D01*
X117924806Y-85680866D01*
X117929427Y-85672221D01*
X117935645Y-85664645D01*
X117943221Y-85658427D01*
X117951866Y-85653806D01*
X117961245Y-85650961D01*
X117971000Y-85650000D01*
X118071000Y-85650000D01*
X118080755Y-85650961D01*
X118090134Y-85653806D01*
X118098779Y-85658427D01*
X118106355Y-85664645D01*
X118112573Y-85672221D01*
X118117194Y-85680866D01*
X118120039Y-85690245D01*
X118121000Y-85700000D01*
X118121000Y-86349289D01*
X118120039Y-86359044D01*
X118117194Y-86368423D01*
X118112573Y-86377068D01*
X118106355Y-86384644D01*
X118055644Y-86435355D01*
X118048068Y-86441573D01*
X118039423Y-86446194D01*
X118030044Y-86449039D01*
X118020289Y-86450000D01*
X117971000Y-86450000D01*
X117961245Y-86449039D01*
G37*
G04 #@! TD.AperFunction*
G04 #@! TO.P,U2,7*
G04 #@! TO.N,Net-(U2-Pad7)*
G04 #@! TA.AperFunction,SMDPad,CuDef*
G36*
G01*
X117721000Y-85700000D02*
X117721000Y-86400000D01*
G75*
G02*
X117671000Y-86450000I-50000J0D01*
G01*
X117571000Y-86450000D01*
G75*
G02*
X117521000Y-86400000I0J50000D01*
G01*
X117521000Y-85700000D01*
G75*
G02*
X117571000Y-85650000I50000J0D01*
G01*
X117671000Y-85650000D01*
G75*
G02*
X117721000Y-85700000I0J-50000D01*
G01*
G37*
G04 #@! TD.AperFunction*
G04 #@! TO.P,U2,8*
G04 #@! TO.N,GNDD*
G04 #@! TA.AperFunction,SMDPad,CuDef*
G36*
G01*
X117321000Y-85700000D02*
X117321000Y-86400000D01*
G75*
G02*
X117271000Y-86450000I-50000J0D01*
G01*
X117171000Y-86450000D01*
G75*
G02*
X117121000Y-86400000I0J50000D01*
G01*
X117121000Y-85700000D01*
G75*
G02*
X117171000Y-85650000I50000J0D01*
G01*
X117271000Y-85650000D01*
G75*
G02*
X117321000Y-85700000I0J-50000D01*
G01*
G37*
G04 #@! TD.AperFunction*
G04 #@! TO.P,U2,9*
G04 #@! TO.N,Fault*
G04 #@! TA.AperFunction,SMDPad,CuDef*
G36*
G01*
X116921000Y-85700000D02*
X116921000Y-86400000D01*
G75*
G02*
X116871000Y-86450000I-50000J0D01*
G01*
X116771000Y-86450000D01*
G75*
G02*
X116721000Y-86400000I0J50000D01*
G01*
X116721000Y-85700000D01*
G75*
G02*
X116771000Y-85650000I50000J0D01*
G01*
X116871000Y-85650000D01*
G75*
G02*
X116921000Y-85700000I0J-50000D01*
G01*
G37*
G04 #@! TD.AperFunction*
G04 #@! TA.AperFunction,SMDPad,CuDef*
G04 #@! TO.P,U2,10*
G04 #@! TO.N,Net-(U2-Pad10)*
G36*
X116411956Y-86449039D02*
G01*
X116402577Y-86446194D01*
X116393932Y-86441573D01*
X116386356Y-86435355D01*
X116335645Y-86384644D01*
X116329427Y-86377068D01*
X116324806Y-86368423D01*
X116321961Y-86359044D01*
X116321000Y-86349289D01*
X116321000Y-85700000D01*
X116321961Y-85690245D01*
X116324806Y-85680866D01*
X116329427Y-85672221D01*
X116335645Y-85664645D01*
X116343221Y-85658427D01*
X116351866Y-85653806D01*
X116361245Y-85650961D01*
X116371000Y-85650000D01*
X116471000Y-85650000D01*
X116480755Y-85650961D01*
X116490134Y-85653806D01*
X116498779Y-85658427D01*
X116506355Y-85664645D01*
X116512573Y-85672221D01*
X116517194Y-85680866D01*
X116520039Y-85690245D01*
X116521000Y-85700000D01*
X116521000Y-86400000D01*
X116520039Y-86409755D01*
X116517194Y-86419134D01*
X116512573Y-86427779D01*
X116506355Y-86435355D01*
X116498779Y-86441573D01*
X116490134Y-86446194D01*
X116480755Y-86449039D01*
X116471000Y-86450000D01*
X116421711Y-86450000D01*
X116411956Y-86449039D01*
G37*
G04 #@! TD.AperFunction*
G04 #@! TA.AperFunction,SMDPad,CuDef*
G04 #@! TO.P,U2,11*
G04 #@! TO.N,Net-(U2-Pad11)*
G36*
X115411245Y-86799039D02*
G01*
X115401866Y-86796194D01*
X115393221Y-86791573D01*
X115385645Y-86785355D01*
X115379427Y-86777779D01*
X115374806Y-86769134D01*
X115371961Y-86759755D01*
X115371000Y-86750000D01*
X115371000Y-86650000D01*
X115371961Y-86640245D01*
X115374806Y-86630866D01*
X115379427Y-86622221D01*
X115385645Y-86614645D01*
X115393221Y-86608427D01*
X115401866Y-86603806D01*
X115411245Y-86600961D01*
X115421000Y-86600000D01*
X116070289Y-86600000D01*
X116080044Y-86600961D01*
X116089423Y-86603806D01*
X116098068Y-86608427D01*
X116105644Y-86614645D01*
X116156355Y-86665356D01*
X116162573Y-86672932D01*
X116167194Y-86681577D01*
X116170039Y-86690956D01*
X116171000Y-86700711D01*
X116171000Y-86750000D01*
X116170039Y-86759755D01*
X116167194Y-86769134D01*
X116162573Y-86777779D01*
X116156355Y-86785355D01*
X116148779Y-86791573D01*
X116140134Y-86796194D01*
X116130755Y-86799039D01*
X116121000Y-86800000D01*
X115421000Y-86800000D01*
X115411245Y-86799039D01*
G37*
G04 #@! TD.AperFunction*
G04 #@! TO.P,U2,12*
G04 #@! TO.N,Net-(U2-Pad12)*
G04 #@! TA.AperFunction,SMDPad,CuDef*
G36*
G01*
X116171000Y-87050000D02*
X116171000Y-87150000D01*
G75*
G02*
X116121000Y-87200000I-50000J0D01*
G01*
X115421000Y-87200000D01*
G75*
G02*
X115371000Y-87150000I0J50000D01*
G01*
X115371000Y-87050000D01*
G75*
G02*
X115421000Y-87000000I50000J0D01*
G01*
X116121000Y-87000000D01*
G75*
G02*
X116171000Y-87050000I0J-50000D01*
G01*
G37*
G04 #@! TD.AperFunction*
G04 #@! TO.P,U2,13*
G04 #@! TO.N,Dir*
G04 #@! TA.AperFunction,SMDPad,CuDef*
G36*
G01*
X116171000Y-87450000D02*
X116171000Y-87550000D01*
G75*
G02*
X116121000Y-87600000I-50000J0D01*
G01*
X115421000Y-87600000D01*
G75*
G02*
X115371000Y-87550000I0J50000D01*
G01*
X115371000Y-87450000D01*
G75*
G02*
X115421000Y-87400000I50000J0D01*
G01*
X116121000Y-87400000D01*
G75*
G02*
X116171000Y-87450000I0J-50000D01*
G01*
G37*
G04 #@! TD.AperFunction*
G04 #@! TO.P,U2,14*
G04 #@! TO.N,PWM*
G04 #@! TA.AperFunction,SMDPad,CuDef*
G36*
G01*
X116171000Y-87850000D02*
X116171000Y-87950000D01*
G75*
G02*
X116121000Y-88000000I-50000J0D01*
G01*
X115421000Y-88000000D01*
G75*
G02*
X115371000Y-87950000I0J50000D01*
G01*
X115371000Y-87850000D01*
G75*
G02*
X115421000Y-87800000I50000J0D01*
G01*
X116121000Y-87800000D01*
G75*
G02*
X116171000Y-87850000I0J-50000D01*
G01*
G37*
G04 #@! TD.AperFunction*
G04 #@! TA.AperFunction,SMDPad,CuDef*
G04 #@! TO.P,U2,15*
G04 #@! TO.N,SDA_MOSI*
G36*
X115411245Y-88399039D02*
G01*
X115401866Y-88396194D01*
X115393221Y-88391573D01*
X115385645Y-88385355D01*
X115379427Y-88377779D01*
X115374806Y-88369134D01*
X115371961Y-88359755D01*
X115371000Y-88350000D01*
X115371000Y-88250000D01*
X115371961Y-88240245D01*
X115374806Y-88230866D01*
X115379427Y-88222221D01*
X115385645Y-88214645D01*
X115393221Y-88208427D01*
X115401866Y-88203806D01*
X115411245Y-88200961D01*
X115421000Y-88200000D01*
X116121000Y-88200000D01*
X116130755Y-88200961D01*
X116140134Y-88203806D01*
X116148779Y-88208427D01*
X116156355Y-88214645D01*
X116162573Y-88222221D01*
X116167194Y-88230866D01*
X116170039Y-88240245D01*
X116171000Y-88250000D01*
X116171000Y-88299289D01*
X116170039Y-88309044D01*
X116167194Y-88318423D01*
X116162573Y-88327068D01*
X116156355Y-88334644D01*
X116105644Y-88385355D01*
X116098068Y-88391573D01*
X116089423Y-88396194D01*
X116080044Y-88399039D01*
X116070289Y-88400000D01*
X115421000Y-88400000D01*
X115411245Y-88399039D01*
G37*
G04 #@! TD.AperFunction*
G04 #@! TA.AperFunction,SMDPad,CuDef*
G04 #@! TO.P,U2,16*
G04 #@! TO.N,MISO*
G36*
X116361245Y-89349039D02*
G01*
X116351866Y-89346194D01*
X116343221Y-89341573D01*
X116335645Y-89335355D01*
X116329427Y-89327779D01*
X116324806Y-89319134D01*
X116321961Y-89309755D01*
X116321000Y-89300000D01*
X116321000Y-88650711D01*
X116321961Y-88640956D01*
X116324806Y-88631577D01*
X116329427Y-88622932D01*
X116335645Y-88615356D01*
X116386356Y-88564645D01*
X116393932Y-88558427D01*
X116402577Y-88553806D01*
X116411956Y-88550961D01*
X116421711Y-88550000D01*
X116471000Y-88550000D01*
X116480755Y-88550961D01*
X116490134Y-88553806D01*
X116498779Y-88558427D01*
X116506355Y-88564645D01*
X116512573Y-88572221D01*
X116517194Y-88580866D01*
X116520039Y-88590245D01*
X116521000Y-88600000D01*
X116521000Y-89300000D01*
X116520039Y-89309755D01*
X116517194Y-89319134D01*
X116512573Y-89327779D01*
X116506355Y-89335355D01*
X116498779Y-89341573D01*
X116490134Y-89346194D01*
X116480755Y-89349039D01*
X116471000Y-89350000D01*
X116371000Y-89350000D01*
X116361245Y-89349039D01*
G37*
G04 #@! TD.AperFunction*
G04 #@! TO.P,U2,17*
G04 #@! TO.N,SCK_SCL*
G04 #@! TA.AperFunction,SMDPad,CuDef*
G36*
G01*
X116921000Y-88600000D02*
X116921000Y-89300000D01*
G75*
G02*
X116871000Y-89350000I-50000J0D01*
G01*
X116771000Y-89350000D01*
G75*
G02*
X116721000Y-89300000I0J50000D01*
G01*
X116721000Y-88600000D01*
G75*
G02*
X116771000Y-88550000I50000J0D01*
G01*
X116871000Y-88550000D01*
G75*
G02*
X116921000Y-88600000I0J-50000D01*
G01*
G37*
G04 #@! TD.AperFunction*
G04 #@! TO.P,U2,18*
G04 #@! TO.N,+5V*
G04 #@! TA.AperFunction,SMDPad,CuDef*
G36*
G01*
X117321000Y-88600000D02*
X117321000Y-89300000D01*
G75*
G02*
X117271000Y-89350000I-50000J0D01*
G01*
X117171000Y-89350000D01*
G75*
G02*
X117121000Y-89300000I0J50000D01*
G01*
X117121000Y-88600000D01*
G75*
G02*
X117171000Y-88550000I50000J0D01*
G01*
X117271000Y-88550000D01*
G75*
G02*
X117321000Y-88600000I0J-50000D01*
G01*
G37*
G04 #@! TD.AperFunction*
G04 #@! TO.P,U2,19*
G04 #@! TO.N,A_RESET*
G04 #@! TA.AperFunction,SMDPad,CuDef*
G36*
G01*
X117721000Y-88600000D02*
X117721000Y-89300000D01*
G75*
G02*
X117671000Y-89350000I-50000J0D01*
G01*
X117571000Y-89350000D01*
G75*
G02*
X117521000Y-89300000I0J50000D01*
G01*
X117521000Y-88600000D01*
G75*
G02*
X117571000Y-88550000I50000J0D01*
G01*
X117671000Y-88550000D01*
G75*
G02*
X117721000Y-88600000I0J-50000D01*
G01*
G37*
G04 #@! TD.AperFunction*
G04 #@! TA.AperFunction,SMDPad,CuDef*
G04 #@! TO.P,U2,20*
G04 #@! TO.N,Net-(U2-Pad20)*
G36*
X117961245Y-89349039D02*
G01*
X117951866Y-89346194D01*
X117943221Y-89341573D01*
X117935645Y-89335355D01*
X117929427Y-89327779D01*
X117924806Y-89319134D01*
X117921961Y-89309755D01*
X117921000Y-89300000D01*
X117921000Y-88600000D01*
X117921961Y-88590245D01*
X117924806Y-88580866D01*
X117929427Y-88572221D01*
X117935645Y-88564645D01*
X117943221Y-88558427D01*
X117951866Y-88553806D01*
X117961245Y-88550961D01*
X117971000Y-88550000D01*
X118020289Y-88550000D01*
X118030044Y-88550961D01*
X118039423Y-88553806D01*
X118048068Y-88558427D01*
X118055644Y-88564645D01*
X118106355Y-88615356D01*
X118112573Y-88622932D01*
X118117194Y-88631577D01*
X118120039Y-88640956D01*
X118121000Y-88650711D01*
X118121000Y-89300000D01*
X118120039Y-89309755D01*
X118117194Y-89319134D01*
X118112573Y-89327779D01*
X118106355Y-89335355D01*
X118098779Y-89341573D01*
X118090134Y-89346194D01*
X118080755Y-89349039D01*
X118071000Y-89350000D01*
X117971000Y-89350000D01*
X117961245Y-89349039D01*
G37*
G04 #@! TD.AperFunction*
D16*
G04 #@! TO.P,U2,21*
G04 #@! TO.N,GNDD*
X117221000Y-87500000D03*
D14*
X117821000Y-88100000D03*
X116621000Y-88100000D03*
X117821000Y-86900000D03*
X116621000Y-86900000D03*
G04 #@! TD*
D17*
G04 #@! TO.P,TP1,1*
G04 #@! TO.N,Dir*
X121100000Y-84300000D03*
G04 #@! TD*
G04 #@! TO.P,TP2,1*
G04 #@! TO.N,PWM*
X113100000Y-85400000D03*
G04 #@! TD*
G04 #@! TO.P,TP4,1*
G04 #@! TO.N,Fault*
X116300000Y-81500000D03*
G04 #@! TD*
G04 #@! TO.P,TP3,1*
G04 #@! TO.N,Mode*
X126500000Y-80000000D03*
G04 #@! TD*
G04 #@! TO.P,C1,1*
G04 #@! TO.N,VCC*
G04 #@! TA.AperFunction,SMDPad,CuDef*
G36*
G01*
X110100001Y-74950000D02*
X107899999Y-74950000D01*
G75*
G02*
X107650000Y-74700001I0J249999D01*
G01*
X107650000Y-74049999D01*
G75*
G02*
X107899999Y-73800000I249999J0D01*
G01*
X110100001Y-73800000D01*
G75*
G02*
X110350000Y-74049999I0J-249999D01*
G01*
X110350000Y-74700001D01*
G75*
G02*
X110100001Y-74950000I-249999J0D01*
G01*
G37*
G04 #@! TD.AperFunction*
G04 #@! TO.P,C1,2*
G04 #@! TO.N,GND*
G04 #@! TA.AperFunction,SMDPad,CuDef*
G36*
G01*
X110100001Y-72000000D02*
X107899999Y-72000000D01*
G75*
G02*
X107650000Y-71750001I0J249999D01*
G01*
X107650000Y-71099999D01*
G75*
G02*
X107899999Y-70850000I249999J0D01*
G01*
X110100001Y-70850000D01*
G75*
G02*
X110350000Y-71099999I0J-249999D01*
G01*
X110350000Y-71750001D01*
G75*
G02*
X110100001Y-72000000I-249999J0D01*
G01*
G37*
G04 #@! TD.AperFunction*
G04 #@! TD*
G04 #@! TO.P,C2,1*
G04 #@! TO.N,Net-(C2-Pad1)*
G04 #@! TA.AperFunction,SMDPad,CuDef*
G36*
G01*
X102399999Y-75850000D02*
X104600001Y-75850000D01*
G75*
G02*
X104850000Y-76099999I0J-249999D01*
G01*
X104850000Y-76750001D01*
G75*
G02*
X104600001Y-77000000I-249999J0D01*
G01*
X102399999Y-77000000D01*
G75*
G02*
X102150000Y-76750001I0J249999D01*
G01*
X102150000Y-76099999D01*
G75*
G02*
X102399999Y-75850000I249999J0D01*
G01*
G37*
G04 #@! TD.AperFunction*
G04 #@! TO.P,C2,2*
G04 #@! TO.N,GND*
G04 #@! TA.AperFunction,SMDPad,CuDef*
G36*
G01*
X102399999Y-78800000D02*
X104600001Y-78800000D01*
G75*
G02*
X104850000Y-79049999I0J-249999D01*
G01*
X104850000Y-79700001D01*
G75*
G02*
X104600001Y-79950000I-249999J0D01*
G01*
X102399999Y-79950000D01*
G75*
G02*
X102150000Y-79700001I0J249999D01*
G01*
X102150000Y-79049999D01*
G75*
G02*
X102399999Y-78800000I249999J0D01*
G01*
G37*
G04 #@! TD.AperFunction*
G04 #@! TD*
G04 #@! TO.P,L1,1*
G04 #@! TO.N,Net-(L1-Pad1)*
G04 #@! TA.AperFunction,SMDPad,CuDef*
G36*
G01*
X111125000Y-74875000D02*
X113275000Y-74875000D01*
G75*
G02*
X113525000Y-75125000I0J-250000D01*
G01*
X113525000Y-75875000D01*
G75*
G02*
X113275000Y-76125000I-250000J0D01*
G01*
X111125000Y-76125000D01*
G75*
G02*
X110875000Y-75875000I0J250000D01*
G01*
X110875000Y-75125000D01*
G75*
G02*
X111125000Y-74875000I250000J0D01*
G01*
G37*
G04 #@! TD.AperFunction*
G04 #@! TO.P,L1,2*
G04 #@! TO.N,+5V*
G04 #@! TA.AperFunction,SMDPad,CuDef*
G36*
G01*
X111125000Y-77675000D02*
X113275000Y-77675000D01*
G75*
G02*
X113525000Y-77925000I0J-250000D01*
G01*
X113525000Y-78675000D01*
G75*
G02*
X113275000Y-78925000I-250000J0D01*
G01*
X111125000Y-78925000D01*
G75*
G02*
X110875000Y-78675000I0J250000D01*
G01*
X110875000Y-77925000D01*
G75*
G02*
X111125000Y-77675000I250000J0D01*
G01*
G37*
G04 #@! TD.AperFunction*
G04 #@! TD*
D18*
G04 #@! TO.P,U1,1*
G04 #@! TO.N,VCC*
X106550000Y-76650000D03*
G04 #@! TO.P,U1,2*
X106550000Y-77150000D03*
G04 #@! TO.P,U1,3*
G04 #@! TO.N,Net-(C2-Pad1)*
X106550000Y-77650000D03*
G04 #@! TO.P,U1,4*
G04 #@! TO.N,+5V*
X106550000Y-78150000D03*
G04 #@! TO.P,U1,5*
G04 #@! TO.N,Net-(U1-Pad5)*
X108450000Y-78150000D03*
G04 #@! TO.P,U1,6*
G04 #@! TO.N,Net-(U1-Pad6)*
X108450000Y-77650000D03*
G04 #@! TO.P,U1,7*
G04 #@! TO.N,GND*
X108450000Y-77150000D03*
G04 #@! TO.P,U1,8*
G04 #@! TO.N,Net-(L1-Pad1)*
X108450000Y-76650000D03*
G04 #@! TD*
D19*
G04 #@! TO.P,Q1,1*
G04 #@! TO.N,Net-(Q1-Pad1)*
X149360000Y-65375000D03*
G04 #@! TO.P,Q1,3*
G04 #@! TO.N,MOTOR+*
X154440000Y-65375000D03*
D20*
G04 #@! TO.P,Q1,2*
G04 #@! TO.N,VCC*
X151900000Y-56225000D03*
G04 #@! TD*
D21*
G04 #@! TO.P,Q2,1*
G04 #@! TO.N,Net-(Q2-Pad1)*
X142725000Y-71260000D03*
G04 #@! TO.P,Q2,3*
G04 #@! TO.N,GND*
X142725000Y-76340000D03*
D22*
G04 #@! TO.P,Q2,2*
G04 #@! TO.N,MOTOR+*
X151875000Y-73800000D03*
G04 #@! TD*
G04 #@! TO.P,C5,2*
G04 #@! TO.N,GND*
G04 #@! TA.AperFunction,SMDPad,CuDef*
G36*
G01*
X142699999Y-57600000D02*
X144900001Y-57600000D01*
G75*
G02*
X145150000Y-57849999I0J-249999D01*
G01*
X145150000Y-58500001D01*
G75*
G02*
X144900001Y-58750000I-249999J0D01*
G01*
X142699999Y-58750000D01*
G75*
G02*
X142450000Y-58500001I0J249999D01*
G01*
X142450000Y-57849999D01*
G75*
G02*
X142699999Y-57600000I249999J0D01*
G01*
G37*
G04 #@! TD.AperFunction*
G04 #@! TO.P,C5,1*
G04 #@! TO.N,VCC*
G04 #@! TA.AperFunction,SMDPad,CuDef*
G36*
G01*
X142699999Y-54650000D02*
X144900001Y-54650000D01*
G75*
G02*
X145150000Y-54899999I0J-249999D01*
G01*
X145150000Y-55550001D01*
G75*
G02*
X144900001Y-55800000I-249999J0D01*
G01*
X142699999Y-55800000D01*
G75*
G02*
X142450000Y-55550001I0J249999D01*
G01*
X142450000Y-54899999D01*
G75*
G02*
X142699999Y-54650000I249999J0D01*
G01*
G37*
G04 #@! TD.AperFunction*
G04 #@! TD*
D23*
G04 #@! TO.P,C8,1*
G04 #@! TO.N,MOTOR-*
X167200000Y-73600000D03*
G04 #@! TO.P,C8,2*
G04 #@! TO.N,MOTOR+*
X164700000Y-73600000D03*
G04 #@! TD*
D17*
G04 #@! TO.P,TP7,1*
G04 #@! TO.N,Net-(C11-Pad2)*
X117000000Y-68900000D03*
G04 #@! TD*
D24*
G04 #@! TO.P,C3,1*
G04 #@! TO.N,VCC*
X113600000Y-52600000D03*
G04 #@! TO.P,C3,2*
G04 #@! TO.N,GND*
X113600000Y-60100000D03*
G04 #@! TD*
G04 #@! TO.P,C4,1*
G04 #@! TO.N,VCC*
X132400000Y-52700000D03*
G04 #@! TO.P,C4,2*
G04 #@! TO.N,GND*
X132400000Y-60200000D03*
G04 #@! TD*
D25*
G04 #@! TO.P,J4,1*
G04 #@! TO.N,MOTOR+*
X166200000Y-65000000D03*
X166200000Y-69435000D03*
X170635000Y-65000000D03*
X166200000Y-60565000D03*
X161765000Y-65000000D03*
X161765000Y-69435000D03*
X161765000Y-60565000D03*
X170635000Y-60565000D03*
X170635000Y-69435000D03*
G04 #@! TD*
G04 #@! TO.P,J1,1*
G04 #@! TO.N,VCC*
X101435000Y-55535000D03*
X101435000Y-46665000D03*
X92565000Y-46665000D03*
X92565000Y-55535000D03*
X92565000Y-51100000D03*
X97000000Y-46665000D03*
X101435000Y-51100000D03*
X97000000Y-55535000D03*
X97000000Y-51100000D03*
G04 #@! TD*
G04 #@! TO.P,J2,1*
G04 #@! TO.N,GND*
X101335000Y-99135000D03*
X101335000Y-90265000D03*
X92465000Y-90265000D03*
X92465000Y-99135000D03*
X92465000Y-94700000D03*
X96900000Y-90265000D03*
X101335000Y-94700000D03*
X96900000Y-99135000D03*
X96900000Y-94700000D03*
G04 #@! TD*
G04 #@! TO.P,J5,1*
G04 #@! TO.N,MOTOR-*
X166100000Y-82200000D03*
X166100000Y-86635000D03*
X170535000Y-82200000D03*
X166100000Y-77765000D03*
X161665000Y-82200000D03*
X161665000Y-86635000D03*
X161665000Y-77765000D03*
X170535000Y-77765000D03*
X170535000Y-86635000D03*
G04 #@! TD*
D26*
G04 #@! TO.N,GND*
X135000000Y-65900000D03*
X134800000Y-78500000D03*
X101800000Y-62450000D03*
X109900000Y-77500000D03*
X91059000Y-76170000D03*
X92329000Y-76170000D03*
X93599000Y-76170000D03*
X94869000Y-76170000D03*
X96139000Y-76170000D03*
X97409000Y-76170000D03*
X98679000Y-76170000D03*
X99949000Y-76170000D03*
X91059000Y-77440000D03*
X92329000Y-77440000D03*
X93599000Y-77440000D03*
X94869000Y-77440000D03*
X96139000Y-77440000D03*
X97409000Y-77440000D03*
X98679000Y-77440000D03*
X99949000Y-77440000D03*
X91059000Y-78710000D03*
X92329000Y-78710000D03*
X93599000Y-78710000D03*
X94869000Y-78710000D03*
X96139000Y-78710000D03*
X97409000Y-78710000D03*
X98679000Y-78710000D03*
X99949000Y-78710000D03*
X91059000Y-79980000D03*
X92329000Y-79980000D03*
X93599000Y-79980000D03*
X94869000Y-79980000D03*
X96139000Y-79980000D03*
X97409000Y-79980000D03*
X98679000Y-79980000D03*
X99949000Y-79980000D03*
X91059000Y-81250000D03*
X92329000Y-81250000D03*
X93599000Y-81250000D03*
X94869000Y-81250000D03*
X96139000Y-81250000D03*
X97409000Y-81250000D03*
X98679000Y-81250000D03*
X99949000Y-81250000D03*
X91059000Y-82520000D03*
X92329000Y-82520000D03*
X93599000Y-82520000D03*
X94869000Y-82520000D03*
X96139000Y-82520000D03*
X97409000Y-82520000D03*
X98679000Y-82520000D03*
X91059000Y-83790000D03*
X92329000Y-83790000D03*
X93599000Y-83790000D03*
X94869000Y-83790000D03*
X96139000Y-83790000D03*
X97409000Y-83790000D03*
X98679000Y-83790000D03*
X91059000Y-85060000D03*
X92309000Y-85060000D03*
X93559000Y-85060000D03*
X94809000Y-85060000D03*
X96059000Y-85060000D03*
X97309000Y-85060000D03*
X98559000Y-85060000D03*
X91059000Y-86310000D03*
X92309000Y-86310000D03*
X93559000Y-86310000D03*
X94809000Y-86310000D03*
X96059000Y-86310000D03*
X97309000Y-86310000D03*
X98559000Y-86310000D03*
X101199000Y-81250000D03*
X102449000Y-81250000D03*
X103699000Y-81250000D03*
X99949000Y-82500000D03*
X101199000Y-82500000D03*
X102449000Y-82500000D03*
X103699000Y-82500000D03*
X99949000Y-83750000D03*
X101199000Y-83750000D03*
X102449000Y-83750000D03*
X103699000Y-83750000D03*
X99949000Y-85000000D03*
X101199000Y-85000000D03*
X102449000Y-85000000D03*
X103699000Y-85000000D03*
X99949000Y-86250000D03*
X101199000Y-86250000D03*
X102449000Y-86250000D03*
X103699000Y-86250000D03*
X103050000Y-62450000D03*
X104300000Y-62450000D03*
X101800000Y-63700000D03*
X103050000Y-63700000D03*
X101800000Y-64950000D03*
X103050000Y-64950000D03*
X105550000Y-62450000D03*
X104300000Y-63700000D03*
X104300000Y-64950000D03*
X104300000Y-66200000D03*
X104300000Y-67450000D03*
X121800000Y-62450000D03*
X123050000Y-62450000D03*
X105550000Y-63700000D03*
X106800000Y-63700000D03*
X120550000Y-63700000D03*
X121800000Y-63700000D03*
X105550000Y-64950000D03*
X106800000Y-64950000D03*
X108050000Y-64950000D03*
X119300000Y-64950000D03*
X120550000Y-64950000D03*
X121800000Y-64950000D03*
X105550000Y-66200000D03*
X106800000Y-66200000D03*
X108050000Y-66200000D03*
X109300000Y-66200000D03*
X110550000Y-66200000D03*
X111800000Y-66200000D03*
X113050000Y-66200000D03*
X114300000Y-66200000D03*
X115550000Y-66200000D03*
X116800000Y-66200000D03*
X118050000Y-66200000D03*
X119300000Y-66200000D03*
X120550000Y-66200000D03*
X121800000Y-66200000D03*
X105550000Y-67450000D03*
X106800000Y-67450000D03*
X108050000Y-67450000D03*
X109300000Y-67450000D03*
X110550000Y-67450000D03*
X111800000Y-67450000D03*
X113050000Y-67450000D03*
X114300000Y-67450000D03*
X115550000Y-67450000D03*
X116800000Y-67450000D03*
X118050000Y-67450000D03*
X119300000Y-67450000D03*
X120550000Y-67450000D03*
X121800000Y-67450000D03*
X124300000Y-62450000D03*
X123050000Y-63700000D03*
X124300000Y-63700000D03*
X123050000Y-64950000D03*
X124300000Y-64950000D03*
X123050000Y-66200000D03*
X124300000Y-66200000D03*
X123050000Y-67450000D03*
X124300000Y-67450000D03*
X136050000Y-78500000D03*
X137300000Y-78500000D03*
X138550000Y-78500000D03*
X139800000Y-78500000D03*
X141050000Y-78500000D03*
X142300000Y-78500000D03*
X143550000Y-78500000D03*
X144800000Y-78500000D03*
X134800000Y-79750000D03*
X136050000Y-79750000D03*
X137300000Y-79750000D03*
X138550000Y-79750000D03*
X139800000Y-79750000D03*
X141050000Y-79750000D03*
X142300000Y-79750000D03*
X143550000Y-79750000D03*
X144800000Y-79750000D03*
X134800000Y-81000000D03*
X136050000Y-81000000D03*
X137300000Y-81000000D03*
X138550000Y-81000000D03*
X139800000Y-81000000D03*
X141050000Y-81000000D03*
X142300000Y-81000000D03*
X143550000Y-81000000D03*
X144800000Y-81000000D03*
X134800000Y-82250000D03*
X136050000Y-82250000D03*
X137300000Y-82250000D03*
X138550000Y-82250000D03*
X139800000Y-82250000D03*
X141050000Y-82250000D03*
X142300000Y-82250000D03*
X143550000Y-82250000D03*
X134800000Y-83500000D03*
X136050000Y-83500000D03*
X137300000Y-83500000D03*
X138550000Y-83500000D03*
X139800000Y-83500000D03*
X141050000Y-83500000D03*
X142300000Y-83500000D03*
X143550000Y-83500000D03*
X134800000Y-84750000D03*
X136050000Y-84750000D03*
X137300000Y-84750000D03*
X138550000Y-84750000D03*
X139800000Y-84750000D03*
X141050000Y-84750000D03*
X142300000Y-84750000D03*
X143550000Y-84750000D03*
X144800000Y-84750000D03*
X144800000Y-83500000D03*
X144800000Y-82250000D03*
X136250000Y-65900000D03*
X137500000Y-65900000D03*
X138750000Y-65900000D03*
X140000000Y-65900000D03*
X141250000Y-65900000D03*
X142500000Y-65900000D03*
X143750000Y-65900000D03*
X135000000Y-67150000D03*
X136250000Y-67150000D03*
X137500000Y-67150000D03*
X138750000Y-67150000D03*
X140000000Y-67150000D03*
X141250000Y-67150000D03*
X142500000Y-67150000D03*
X143750000Y-67150000D03*
X135000000Y-68400000D03*
X136250000Y-68400000D03*
X137500000Y-68400000D03*
X138750000Y-68400000D03*
X140000000Y-68400000D03*
X141250000Y-68400000D03*
X142500000Y-68400000D03*
X143750000Y-68400000D03*
X135000000Y-69650000D03*
X136250000Y-69650000D03*
X137500000Y-69650000D03*
X138750000Y-69650000D03*
X140000000Y-69650000D03*
X141250000Y-69650000D03*
X142500000Y-69650000D03*
X143750000Y-69650000D03*
X135000000Y-70900000D03*
X136250000Y-70900000D03*
X137500000Y-70900000D03*
X138750000Y-70900000D03*
G04 #@! TO.N,+5V*
X116900000Y-90400000D03*
X109600000Y-79100000D03*
X111500000Y-84600000D03*
G04 #@! TO.N,MOTOR+*
X144500000Y-73700000D03*
X119700000Y-75000000D03*
G04 #@! TO.N,MOTOR-*
X122900000Y-74000000D03*
G04 #@! TO.N,GHA*
X122900000Y-72400000D03*
G04 #@! TO.N,GLA*
X124500000Y-76200000D03*
G04 #@! TO.N,GHB*
X124700000Y-72500000D03*
G04 #@! TO.N,GLB*
X124500000Y-79000000D03*
G04 #@! TO.N,Net-(Q1-Pad1)*
X144700000Y-62500000D03*
G04 #@! TO.N,Net-(Q2-Pad1)*
X142700000Y-74600000D03*
G04 #@! TO.N,Fault*
X118100000Y-84600000D03*
X117900000Y-82200000D03*
G04 #@! TO.N,Mode*
X123100000Y-81300000D03*
X122700000Y-83500000D03*
G04 #@! TO.N,VCC*
X134600000Y-44300000D03*
X135850000Y-44300000D03*
X137100000Y-44300000D03*
X138350000Y-44300000D03*
X139600000Y-44300000D03*
X140850000Y-44300000D03*
X142100000Y-44300000D03*
X143350000Y-44300000D03*
X144600000Y-44300000D03*
X145850000Y-44300000D03*
X147100000Y-44300000D03*
X148350000Y-44300000D03*
X149600000Y-44300000D03*
X150850000Y-44300000D03*
X152100000Y-44300000D03*
X134600000Y-45550000D03*
X135850000Y-45550000D03*
X137100000Y-45550000D03*
X138350000Y-45550000D03*
X139600000Y-45550000D03*
X140850000Y-45550000D03*
X142100000Y-45550000D03*
X143350000Y-45550000D03*
X144600000Y-45550000D03*
X145850000Y-45550000D03*
X147100000Y-45550000D03*
X148350000Y-45550000D03*
X149600000Y-45550000D03*
X150850000Y-45550000D03*
X134600000Y-46800000D03*
X135850000Y-46800000D03*
X137100000Y-46800000D03*
X138350000Y-46800000D03*
X139600000Y-46800000D03*
X140850000Y-46800000D03*
X142100000Y-46800000D03*
X143350000Y-46800000D03*
X144600000Y-46800000D03*
X145850000Y-46800000D03*
X147100000Y-46800000D03*
X148350000Y-46800000D03*
X149600000Y-46800000D03*
X150850000Y-46800000D03*
X153350000Y-44300000D03*
X154600000Y-44300000D03*
X155850000Y-44300000D03*
X152100000Y-45550000D03*
X153350000Y-45550000D03*
X154600000Y-45550000D03*
X155850000Y-45550000D03*
X152100000Y-46800000D03*
X153350000Y-46800000D03*
X154600000Y-46800000D03*
X155850000Y-46800000D03*
X152100000Y-48050000D03*
X153350000Y-48050000D03*
X154600000Y-48050000D03*
X155850000Y-48050000D03*
X152100000Y-49300000D03*
X153350000Y-49300000D03*
X154600000Y-49300000D03*
X155850000Y-49300000D03*
X152100000Y-50550000D03*
X153350000Y-50550000D03*
X154600000Y-50550000D03*
X155850000Y-50550000D03*
X140850000Y-48050000D03*
X142100000Y-48050000D03*
X143350000Y-48050000D03*
X144600000Y-48050000D03*
X145850000Y-48050000D03*
X147100000Y-48050000D03*
X148350000Y-48050000D03*
X149600000Y-48050000D03*
X150850000Y-48050000D03*
X140850000Y-49300000D03*
X142100000Y-49300000D03*
X143350000Y-49300000D03*
X144600000Y-49300000D03*
X145850000Y-49300000D03*
X147100000Y-49300000D03*
X148350000Y-49300000D03*
X149600000Y-49300000D03*
X150850000Y-49300000D03*
X140850000Y-50550000D03*
X142100000Y-50550000D03*
X143350000Y-50550000D03*
X144600000Y-50550000D03*
X145850000Y-50550000D03*
X147100000Y-50550000D03*
X148350000Y-50550000D03*
X149600000Y-50550000D03*
X150850000Y-50550000D03*
X138350000Y-48050000D03*
X139600000Y-49300000D03*
X139600000Y-48050000D03*
G04 #@! TO.N,Net-(C9-Pad1)*
X124100000Y-83100000D03*
G04 #@! TO.N,Net-(C10-Pad1)*
X114500000Y-76400000D03*
G04 #@! TO.N,Net-(C10-Pad2)*
X116900000Y-76400000D03*
G04 #@! TD*
D27*
G04 #@! TO.N,GND*
X109550000Y-77150000D02*
X109900000Y-77500000D01*
X108450000Y-77150000D02*
X109550000Y-77150000D01*
X122125000Y-79600000D02*
X120200000Y-79600000D01*
X122300000Y-79600000D02*
X122125000Y-79600000D01*
X122400000Y-79600000D02*
X122300000Y-79600000D01*
X119700000Y-80100000D02*
X120200000Y-79600000D01*
X118275000Y-80100000D02*
X119700000Y-80100000D01*
X118100000Y-80100000D02*
X118275000Y-80100000D01*
X117900000Y-80100000D02*
X118275000Y-80100000D01*
D28*
G04 #@! TO.N,+5V*
X106550000Y-78150000D02*
X106550000Y-78450000D01*
D29*
X111400000Y-79100000D02*
X112200000Y-78300000D01*
X109600000Y-79100000D02*
X111400000Y-79100000D01*
X107200000Y-79100000D02*
X106550000Y-78450000D01*
X109600000Y-79100000D02*
X107200000Y-79100000D01*
X106550000Y-78450000D02*
X106550000Y-78175001D01*
D27*
X119700000Y-81525000D02*
X119700000Y-81250001D01*
D29*
X112200000Y-80100000D02*
X112400000Y-80300000D01*
X112200000Y-78300000D02*
X112200000Y-80100000D01*
D27*
X119700000Y-82033378D02*
X119700000Y-81525000D01*
X118733378Y-83000000D02*
X119700000Y-82033378D01*
X115100000Y-83000000D02*
X118733378Y-83000000D01*
X112400000Y-80300000D02*
X115100000Y-83000000D01*
D30*
X117221000Y-89679000D02*
X117221000Y-88950000D01*
X117221000Y-90079000D02*
X117221000Y-88950000D01*
X116900000Y-90400000D02*
X117221000Y-90079000D01*
D27*
X111500000Y-80800000D02*
X111650000Y-80650000D01*
X111500000Y-84600000D02*
X111500000Y-80800000D01*
X111650000Y-80650000D02*
X112200000Y-80100000D01*
D28*
G04 #@! TO.N,MOTOR+*
X119700000Y-77675000D02*
X119700000Y-74900000D01*
D27*
X119700000Y-77675000D02*
X119700000Y-75000000D01*
X119700000Y-77675000D02*
X119700000Y-77700000D01*
X119700000Y-77700000D02*
X119700000Y-77949999D01*
X151880000Y-74780000D02*
X151892000Y-74768000D01*
X151867000Y-74600000D02*
X151892000Y-74625000D01*
X151775000Y-73700000D02*
X151875000Y-73800000D01*
X144500000Y-73700000D02*
X151775000Y-73700000D01*
D28*
G04 #@! TO.N,MOTOR-*
X120700000Y-77675000D02*
X120700000Y-77201978D01*
D27*
X120700000Y-77949999D02*
X120700000Y-77675000D01*
X120700000Y-76300000D02*
X120700000Y-77675000D01*
X120700000Y-76200000D02*
X120700000Y-76300000D01*
X122900000Y-74000000D02*
X120700000Y-76200000D01*
G04 #@! TO.N,GHA*
X120200000Y-77949999D02*
X120200000Y-77675000D01*
X120200000Y-77675000D02*
X120200000Y-75610002D01*
X120450001Y-75360001D02*
X120450001Y-75349999D01*
X120200000Y-75610002D02*
X120450001Y-75360001D01*
X121400000Y-74410002D02*
X120450001Y-75360001D01*
X121400000Y-74410002D02*
X121400000Y-74400000D01*
X122900000Y-72900000D02*
X122900000Y-72400000D01*
X121400000Y-74400000D02*
X122900000Y-72900000D01*
G04 #@! TO.N,GLA*
X121850001Y-78600000D02*
X122125000Y-78600000D01*
X122125000Y-78600000D02*
X122125000Y-78475000D01*
X124400000Y-76200000D02*
X124500000Y-76200000D01*
X122125000Y-78475000D02*
X124400000Y-76200000D01*
G04 #@! TO.N,GHB*
X121200000Y-77949999D02*
X121200000Y-77675000D01*
X124700000Y-73500000D02*
X124700000Y-72500000D01*
X121200000Y-77000000D02*
X124700000Y-73500000D01*
X121200000Y-77675000D02*
X121200000Y-77000000D01*
G04 #@! TO.N,GLB*
X122125000Y-79100000D02*
X122100000Y-79100000D01*
D28*
X123300000Y-79100000D02*
X124400000Y-79100000D01*
D27*
X124400000Y-79100000D02*
X124500000Y-79000000D01*
X122125000Y-79100000D02*
X124400000Y-79100000D01*
X122125000Y-79100000D02*
X121850001Y-79100000D01*
G04 #@! TO.N,Net-(Q1-Pad1)*
X149360000Y-62860000D02*
X149360000Y-65375000D01*
X149000000Y-62500000D02*
X149360000Y-62860000D01*
X144700000Y-62500000D02*
X149000000Y-62500000D01*
G04 #@! TO.N,Net-(Q2-Pad1)*
X142700000Y-73100000D02*
X142700000Y-71285000D01*
X142700000Y-74600000D02*
X142700000Y-73100000D01*
D30*
G04 #@! TO.N,ADDR_Select_3*
X121960000Y-88560000D02*
X121960000Y-89895000D01*
X121300000Y-87900000D02*
X121960000Y-88560000D01*
X118671000Y-87900000D02*
X121300000Y-87900000D01*
G04 #@! TO.N,ADDR_Select_2*
X124500000Y-89895000D02*
X124500000Y-89100000D01*
X124500000Y-89100000D02*
X123600000Y-88200000D01*
X118671000Y-87500000D02*
X121500000Y-87500000D01*
X122200000Y-88200000D02*
X123600000Y-88200000D01*
X121500000Y-87500000D02*
X122200000Y-88200000D01*
D28*
G04 #@! TO.N,ADDR_Select_1*
X127040000Y-89595000D02*
X127040000Y-89040000D01*
X127040000Y-89895000D02*
X127040000Y-88840000D01*
D30*
X127040000Y-88740000D02*
X127040000Y-89895000D01*
X126400000Y-88100000D02*
X127040000Y-88740000D01*
X124500000Y-88100000D02*
X126400000Y-88100000D01*
X124200000Y-87800000D02*
X124500000Y-88100000D01*
X122400000Y-87800000D02*
X124200000Y-87800000D01*
X121700000Y-87100000D02*
X122400000Y-87800000D01*
X118671000Y-87100000D02*
X121700000Y-87100000D01*
G04 #@! TO.N,SCK_SCL*
X108600000Y-90060000D02*
X112460000Y-90060000D01*
X116821000Y-88950000D02*
X116821000Y-89479000D01*
X116240000Y-90060000D02*
X112460000Y-90060000D01*
X116821000Y-89479000D02*
X116240000Y-90060000D01*
G04 #@! TO.N,MISO*
X108814302Y-87734302D02*
X108600000Y-87520000D01*
X113234302Y-87734302D02*
X108814302Y-87734302D01*
X114450000Y-88950000D02*
X113234302Y-87734302D01*
X116421000Y-88950000D02*
X114450000Y-88950000D01*
G04 #@! TO.N,SDA_MOSI*
X110480000Y-84980000D02*
X108600000Y-84980000D01*
X112000000Y-86500000D02*
X110480000Y-84980000D01*
X112600000Y-86500000D02*
X112000000Y-86500000D01*
X114400000Y-88300000D02*
X112600000Y-86500000D01*
X115771000Y-88300000D02*
X114400000Y-88300000D01*
G04 #@! TO.N,A_RESET*
X110700000Y-92600000D02*
X108600000Y-92600000D01*
X113200000Y-92600000D02*
X110700000Y-92600000D01*
X116600000Y-91800000D02*
X114000000Y-91800000D01*
X114000000Y-91800000D02*
X113200000Y-92600000D01*
X117621000Y-90779000D02*
X116600000Y-91800000D01*
X117621000Y-88950000D02*
X117621000Y-90779000D01*
D28*
G04 #@! TO.N,Fault*
X118525000Y-82200000D02*
X119200000Y-81525000D01*
X117900000Y-82200000D02*
X118525000Y-82200000D01*
D30*
X117200000Y-81500000D02*
X117900000Y-82200000D01*
X116300000Y-81500000D02*
X117200000Y-81500000D01*
X116821000Y-86050000D02*
X116821000Y-85279000D01*
X117500000Y-84600000D02*
X117600000Y-84600000D01*
X116821000Y-85279000D02*
X117500000Y-84600000D01*
X118000000Y-84600000D02*
X118100000Y-84500000D01*
X117500000Y-84600000D02*
X118000000Y-84600000D01*
G04 #@! TO.N,Mode*
X122125000Y-80100000D02*
X122300000Y-80100000D01*
X123100000Y-81300000D02*
X123100000Y-80400000D01*
X122800000Y-80100000D02*
X122125000Y-80100000D01*
X123100000Y-80400000D02*
X122800000Y-80100000D01*
X123500000Y-80000000D02*
X123100000Y-80400000D01*
X126500000Y-80000000D02*
X123500000Y-80000000D01*
X118671000Y-86700000D02*
X119200000Y-86700000D01*
X119200000Y-86700000D02*
X120400000Y-85500000D01*
X120400000Y-85500000D02*
X122200000Y-85500000D01*
X122200000Y-85500000D02*
X122700000Y-85000000D01*
X122700000Y-85000000D02*
X122700000Y-83500000D01*
G04 #@! TO.N,Dir*
X115715678Y-83850020D02*
X114700000Y-84865698D01*
X119085467Y-83850020D02*
X115715678Y-83850020D01*
X120700000Y-82235486D02*
X119085467Y-83850020D01*
X120700000Y-81525000D02*
X120700000Y-82235486D01*
X120700000Y-83300000D02*
X120700000Y-81525000D01*
X121100000Y-83700000D02*
X120700000Y-83300000D01*
X121100000Y-84300000D02*
X121100000Y-83700000D01*
X115771000Y-87500000D02*
X114965698Y-87500000D01*
X114700010Y-84865708D02*
X114700000Y-84865698D01*
X114700010Y-87234312D02*
X114700010Y-84865708D01*
X114965698Y-87500000D02*
X114700010Y-87234312D01*
G04 #@! TO.N,PWM*
X115549990Y-83450010D02*
X114300000Y-84700000D01*
X118919778Y-83450010D02*
X115549990Y-83450010D01*
X120200000Y-82169788D02*
X118919778Y-83450010D01*
X120200000Y-81525000D02*
X120200000Y-82169788D01*
X114000000Y-85400000D02*
X114300000Y-85700000D01*
X113100000Y-85400000D02*
X114000000Y-85400000D01*
X114300000Y-84700000D02*
X114300000Y-85700000D01*
X114300000Y-85700000D02*
X114300000Y-87400000D01*
X114300000Y-87400000D02*
X114800000Y-87900000D01*
X114800000Y-87900000D02*
X115771000Y-87900000D01*
D28*
G04 #@! TO.N,Net-(L1-Pad1)*
X111800000Y-75800000D02*
X112100000Y-75500000D01*
D27*
X109650000Y-76650000D02*
X110800000Y-75500000D01*
X108450000Y-76650000D02*
X109650000Y-76650000D01*
X112200000Y-75500000D02*
X110800000Y-75500000D01*
D30*
G04 #@! TO.N,GNDD*
X117221000Y-86050000D02*
X117221000Y-87500000D01*
D27*
G04 #@! TO.N,VCC*
X151861000Y-56226000D02*
X151873000Y-56238000D01*
D31*
X106275000Y-76375000D02*
X106550000Y-76650000D01*
D27*
X106550000Y-77150000D02*
X106550000Y-76650000D01*
D29*
X100828000Y-57228000D02*
X100828000Y-56135000D01*
D31*
X106275000Y-71375000D02*
X106275000Y-73900000D01*
X100828000Y-65928000D02*
X106275000Y-71375000D01*
X100828000Y-56135000D02*
X100828000Y-65928000D01*
X109000000Y-74375000D02*
X106675000Y-74375000D01*
X106275000Y-73975000D02*
X106275000Y-76375000D01*
X106675000Y-74375000D02*
X106275000Y-73975000D01*
X106275000Y-73900000D02*
X106275000Y-73975000D01*
X109837500Y-73537500D02*
X109000000Y-74375000D01*
X113000000Y-73537500D02*
X109837500Y-73537500D01*
X114525000Y-73537500D02*
X116162500Y-71900000D01*
X113000000Y-73537500D02*
X114525000Y-73537500D01*
D27*
X114537500Y-73537500D02*
X113000000Y-73537500D01*
X116100000Y-75100000D02*
X114537500Y-73537500D01*
X117528236Y-79100000D02*
X116100000Y-77671764D01*
X116100000Y-77671764D02*
X116100000Y-75100000D01*
X118275000Y-79100000D02*
X117528236Y-79100000D01*
G04 #@! TO.N,Net-(C2-Pad1)*
X106550000Y-77650000D02*
X104725000Y-77650000D01*
X103500000Y-76425000D02*
X104725000Y-77650000D01*
D30*
G04 #@! TO.N,Net-(C9-Pad1)*
X121200000Y-81800000D02*
X121200000Y-81525000D01*
D28*
X121200000Y-81525000D02*
X121200000Y-81836410D01*
X123600000Y-82600000D02*
X124100000Y-83100000D01*
X121800000Y-82600000D02*
X123600000Y-82600000D01*
X121200000Y-82000000D02*
X121800000Y-82600000D01*
X121200000Y-81525000D02*
X121200000Y-82000000D01*
D27*
G04 #@! TO.N,Net-(C10-Pad1)*
X114500000Y-76400000D02*
X115474990Y-77374990D01*
X115474990Y-77753874D02*
X115474990Y-77374990D01*
X117321116Y-79600000D02*
X115474990Y-77753874D01*
X118275000Y-79600000D02*
X117321116Y-79600000D01*
D28*
G04 #@! TO.N,Net-(C10-Pad2)*
X117700000Y-78600000D02*
X118275000Y-78600000D01*
X116900000Y-77800000D02*
X117700000Y-78600000D01*
X116900000Y-76400000D02*
X116900000Y-77800000D01*
D27*
G04 #@! TO.N,Net-(C11-Pad2)*
X119200000Y-77949999D02*
X119200000Y-77675000D01*
X119200000Y-75800000D02*
X118700000Y-75300000D01*
X119200000Y-77675000D02*
X119200000Y-75800000D01*
X120000000Y-71900000D02*
X120437500Y-71900000D01*
X117000000Y-68900000D02*
X120000000Y-71900000D01*
X118700000Y-74889998D02*
X120437500Y-73152498D01*
X120437500Y-73152498D02*
X120437500Y-71900000D01*
X118700000Y-75300000D02*
X118700000Y-74889998D01*
D28*
G04 #@! TO.N,Net-(R4-Pad2)*
X122125000Y-80600000D02*
X122100000Y-80625000D01*
X122125000Y-81825000D02*
X122125000Y-80600000D01*
X122400000Y-82100000D02*
X122125000Y-81825000D01*
X125249990Y-82149990D02*
X125900000Y-82800000D01*
X122549990Y-82149990D02*
X125249990Y-82149990D01*
X122500000Y-82100000D02*
X122549990Y-82149990D01*
X122400000Y-82100000D02*
X122500000Y-82100000D01*
G04 #@! TD*
D32*
G04 #@! TO.N,MOTOR+*
X173670189Y-56344376D02*
X173833850Y-56394022D01*
X173913001Y-56436329D01*
X173913000Y-75163671D01*
X173833850Y-75205978D01*
X173670189Y-75255624D01*
X173493766Y-75273000D01*
X158800000Y-75273000D01*
X158787552Y-75273612D01*
X158592462Y-75292827D01*
X158568044Y-75297683D01*
X158380451Y-75354588D01*
X158357450Y-75364116D01*
X158184563Y-75456526D01*
X158163862Y-75470358D01*
X158012325Y-75594721D01*
X157994721Y-75612325D01*
X157870358Y-75763862D01*
X157856526Y-75784563D01*
X157764116Y-75957450D01*
X157754588Y-75980451D01*
X157697683Y-76168044D01*
X157692827Y-76192462D01*
X157673612Y-76387552D01*
X157673000Y-76400000D01*
X157673000Y-78960509D01*
X157655653Y-79136795D01*
X157606096Y-79300314D01*
X157525619Y-79451035D01*
X157417300Y-79583187D01*
X157285305Y-79691688D01*
X157134693Y-79772378D01*
X156971244Y-79822162D01*
X156794989Y-79839755D01*
X146907469Y-79853590D01*
X146730851Y-79836428D01*
X146567000Y-79786928D01*
X146415965Y-79706385D01*
X146283561Y-79597898D01*
X146174895Y-79465653D01*
X146094138Y-79314727D01*
X146044407Y-79150940D01*
X146027000Y-78974359D01*
X146027000Y-73446156D01*
X165638000Y-73446156D01*
X165638000Y-73753844D01*
X165698027Y-74055619D01*
X165815773Y-74339885D01*
X165986715Y-74595717D01*
X166204283Y-74813285D01*
X166460115Y-74984227D01*
X166744381Y-75101973D01*
X167046156Y-75162000D01*
X167353844Y-75162000D01*
X167655619Y-75101973D01*
X167939885Y-74984227D01*
X168195717Y-74813285D01*
X168413285Y-74595717D01*
X168584227Y-74339885D01*
X168701973Y-74055619D01*
X168762000Y-73753844D01*
X168762000Y-73446156D01*
X168701973Y-73144381D01*
X168584227Y-72860115D01*
X168413285Y-72604283D01*
X168195717Y-72386715D01*
X167939885Y-72215773D01*
X167655619Y-72098027D01*
X167353844Y-72038000D01*
X167046156Y-72038000D01*
X166744381Y-72098027D01*
X166460115Y-72215773D01*
X166204283Y-72386715D01*
X165986715Y-72604283D01*
X165815773Y-72860115D01*
X165698027Y-73144381D01*
X165638000Y-73446156D01*
X146027000Y-73446156D01*
X146027000Y-64222897D01*
X146044348Y-64046605D01*
X146093908Y-63883080D01*
X146174394Y-63732351D01*
X146282714Y-63600203D01*
X146414719Y-63491702D01*
X146563501Y-63412000D01*
X148044314Y-63412000D01*
X148044314Y-67675000D01*
X148059026Y-67824378D01*
X148102598Y-67968015D01*
X148173355Y-68100392D01*
X148268578Y-68216422D01*
X148384608Y-68311645D01*
X148516985Y-68382402D01*
X148660622Y-68425974D01*
X148810000Y-68440686D01*
X149910000Y-68440686D01*
X150059378Y-68425974D01*
X150203015Y-68382402D01*
X150335392Y-68311645D01*
X150451422Y-68216422D01*
X150546645Y-68100392D01*
X150617402Y-67968015D01*
X150660974Y-67824378D01*
X150675686Y-67675000D01*
X150675686Y-63338586D01*
X158301514Y-63328341D01*
X158313950Y-63327714D01*
X158508850Y-63308271D01*
X158533242Y-63303389D01*
X158720613Y-63246327D01*
X158743585Y-63236785D01*
X158916239Y-63144294D01*
X158936910Y-63130457D01*
X159088224Y-63006086D01*
X159105802Y-62988484D01*
X159229969Y-62837004D01*
X159243778Y-62816315D01*
X159336037Y-62643537D01*
X159345549Y-62620551D01*
X159402359Y-62433103D01*
X159407208Y-62408706D01*
X159426390Y-62213780D01*
X159427000Y-62201342D01*
X159427000Y-57206234D01*
X159444376Y-57029811D01*
X159494022Y-56866150D01*
X159574638Y-56715328D01*
X159683130Y-56583130D01*
X159815328Y-56474638D01*
X159966150Y-56394022D01*
X160129811Y-56344376D01*
X160306234Y-56327000D01*
X173493766Y-56327000D01*
X173670189Y-56344376D01*
G04 #@! TA.AperFunction,Conductor*
D33*
G36*
X173670189Y-56344376D02*
G01*
X173833850Y-56394022D01*
X173913001Y-56436329D01*
X173913000Y-75163671D01*
X173833850Y-75205978D01*
X173670189Y-75255624D01*
X173493766Y-75273000D01*
X158800000Y-75273000D01*
X158787552Y-75273612D01*
X158592462Y-75292827D01*
X158568044Y-75297683D01*
X158380451Y-75354588D01*
X158357450Y-75364116D01*
X158184563Y-75456526D01*
X158163862Y-75470358D01*
X158012325Y-75594721D01*
X157994721Y-75612325D01*
X157870358Y-75763862D01*
X157856526Y-75784563D01*
X157764116Y-75957450D01*
X157754588Y-75980451D01*
X157697683Y-76168044D01*
X157692827Y-76192462D01*
X157673612Y-76387552D01*
X157673000Y-76400000D01*
X157673000Y-78960509D01*
X157655653Y-79136795D01*
X157606096Y-79300314D01*
X157525619Y-79451035D01*
X157417300Y-79583187D01*
X157285305Y-79691688D01*
X157134693Y-79772378D01*
X156971244Y-79822162D01*
X156794989Y-79839755D01*
X146907469Y-79853590D01*
X146730851Y-79836428D01*
X146567000Y-79786928D01*
X146415965Y-79706385D01*
X146283561Y-79597898D01*
X146174895Y-79465653D01*
X146094138Y-79314727D01*
X146044407Y-79150940D01*
X146027000Y-78974359D01*
X146027000Y-73446156D01*
X165638000Y-73446156D01*
X165638000Y-73753844D01*
X165698027Y-74055619D01*
X165815773Y-74339885D01*
X165986715Y-74595717D01*
X166204283Y-74813285D01*
X166460115Y-74984227D01*
X166744381Y-75101973D01*
X167046156Y-75162000D01*
X167353844Y-75162000D01*
X167655619Y-75101973D01*
X167939885Y-74984227D01*
X168195717Y-74813285D01*
X168413285Y-74595717D01*
X168584227Y-74339885D01*
X168701973Y-74055619D01*
X168762000Y-73753844D01*
X168762000Y-73446156D01*
X168701973Y-73144381D01*
X168584227Y-72860115D01*
X168413285Y-72604283D01*
X168195717Y-72386715D01*
X167939885Y-72215773D01*
X167655619Y-72098027D01*
X167353844Y-72038000D01*
X167046156Y-72038000D01*
X166744381Y-72098027D01*
X166460115Y-72215773D01*
X166204283Y-72386715D01*
X165986715Y-72604283D01*
X165815773Y-72860115D01*
X165698027Y-73144381D01*
X165638000Y-73446156D01*
X146027000Y-73446156D01*
X146027000Y-64222897D01*
X146044348Y-64046605D01*
X146093908Y-63883080D01*
X146174394Y-63732351D01*
X146282714Y-63600203D01*
X146414719Y-63491702D01*
X146563501Y-63412000D01*
X148044314Y-63412000D01*
X148044314Y-67675000D01*
X148059026Y-67824378D01*
X148102598Y-67968015D01*
X148173355Y-68100392D01*
X148268578Y-68216422D01*
X148384608Y-68311645D01*
X148516985Y-68382402D01*
X148660622Y-68425974D01*
X148810000Y-68440686D01*
X149910000Y-68440686D01*
X150059378Y-68425974D01*
X150203015Y-68382402D01*
X150335392Y-68311645D01*
X150451422Y-68216422D01*
X150546645Y-68100392D01*
X150617402Y-67968015D01*
X150660974Y-67824378D01*
X150675686Y-67675000D01*
X150675686Y-63338586D01*
X158301514Y-63328341D01*
X158313950Y-63327714D01*
X158508850Y-63308271D01*
X158533242Y-63303389D01*
X158720613Y-63246327D01*
X158743585Y-63236785D01*
X158916239Y-63144294D01*
X158936910Y-63130457D01*
X159088224Y-63006086D01*
X159105802Y-62988484D01*
X159229969Y-62837004D01*
X159243778Y-62816315D01*
X159336037Y-62643537D01*
X159345549Y-62620551D01*
X159402359Y-62433103D01*
X159407208Y-62408706D01*
X159426390Y-62213780D01*
X159427000Y-62201342D01*
X159427000Y-57206234D01*
X159444376Y-57029811D01*
X159494022Y-56866150D01*
X159574638Y-56715328D01*
X159683130Y-56583130D01*
X159815328Y-56474638D01*
X159966150Y-56394022D01*
X160129811Y-56344376D01*
X160306234Y-56327000D01*
X173493766Y-56327000D01*
X173670189Y-56344376D01*
G37*
G04 #@! TD.AperFunction*
G04 #@! TD*
D32*
G04 #@! TO.N,GND*
X144970606Y-57345027D02*
X145038506Y-57365623D01*
X145101077Y-57399069D01*
X145155922Y-57444078D01*
X145200931Y-57498923D01*
X145234377Y-57561494D01*
X145254973Y-57629394D01*
X145265000Y-57731194D01*
X145265000Y-60995231D01*
X145268076Y-61057660D01*
X145287407Y-61253333D01*
X145311838Y-61375775D01*
X145369083Y-61563884D01*
X145417002Y-61679183D01*
X145509949Y-61852454D01*
X145579500Y-61956144D01*
X145593392Y-61973000D01*
X145271845Y-61973000D01*
X145195309Y-61896464D01*
X145068048Y-61811431D01*
X144926643Y-61752859D01*
X144776528Y-61723000D01*
X144623472Y-61723000D01*
X144473357Y-61752859D01*
X144331952Y-61811431D01*
X144204691Y-61896464D01*
X144096464Y-62004691D01*
X144011431Y-62131952D01*
X143952859Y-62273357D01*
X143923000Y-62423472D01*
X143923000Y-62576528D01*
X143952859Y-62726643D01*
X144011431Y-62868048D01*
X144096464Y-62995309D01*
X144204691Y-63103536D01*
X144331952Y-63188569D01*
X144473357Y-63247141D01*
X144623472Y-63277000D01*
X144776528Y-63277000D01*
X144926643Y-63247141D01*
X145068048Y-63188569D01*
X145195309Y-63103536D01*
X145271845Y-63027000D01*
X145603071Y-63027000D01*
X145478932Y-63178446D01*
X145396077Y-63302582D01*
X145303818Y-63475360D01*
X145246748Y-63613271D01*
X145189938Y-63800719D01*
X145160845Y-63947107D01*
X145141663Y-64142033D01*
X145138000Y-64216658D01*
X145138000Y-70350314D01*
X145098905Y-70338455D01*
X145025000Y-70331176D01*
X140425000Y-70331176D01*
X140351095Y-70338455D01*
X140280030Y-70360012D01*
X140214537Y-70395019D01*
X140157131Y-70442131D01*
X140110019Y-70499537D01*
X140075012Y-70565030D01*
X140053455Y-70636095D01*
X140046176Y-70710000D01*
X140046176Y-71810000D01*
X140053455Y-71883905D01*
X140075012Y-71954970D01*
X140110019Y-72020463D01*
X140157131Y-72077869D01*
X140214537Y-72124981D01*
X140280030Y-72159988D01*
X140351095Y-72181545D01*
X140425000Y-72188824D01*
X142173001Y-72188824D01*
X142173000Y-73125880D01*
X142173001Y-73125890D01*
X142173000Y-74028155D01*
X142096464Y-74104691D01*
X142011431Y-74231952D01*
X141952859Y-74373357D01*
X141923000Y-74523472D01*
X141923000Y-74676528D01*
X141952859Y-74826643D01*
X142011431Y-74968048D01*
X142096464Y-75095309D01*
X142204691Y-75203536D01*
X142331952Y-75288569D01*
X142473357Y-75347141D01*
X142623472Y-75377000D01*
X142776528Y-75377000D01*
X142926643Y-75347141D01*
X143068048Y-75288569D01*
X143195309Y-75203536D01*
X143303536Y-75095309D01*
X143388569Y-74968048D01*
X143447141Y-74826643D01*
X143477000Y-74676528D01*
X143477000Y-74523472D01*
X143447141Y-74373357D01*
X143388569Y-74231952D01*
X143303536Y-74104691D01*
X143227000Y-74028155D01*
X143227000Y-72188824D01*
X145025000Y-72188824D01*
X145098905Y-72181545D01*
X145138000Y-72169686D01*
X145138000Y-73173000D01*
X145071845Y-73173000D01*
X144995309Y-73096464D01*
X144868048Y-73011431D01*
X144726643Y-72952859D01*
X144576528Y-72923000D01*
X144423472Y-72923000D01*
X144273357Y-72952859D01*
X144131952Y-73011431D01*
X144004691Y-73096464D01*
X143896464Y-73204691D01*
X143811431Y-73331952D01*
X143752859Y-73473357D01*
X143723000Y-73623472D01*
X143723000Y-73776528D01*
X143752859Y-73926643D01*
X143811431Y-74068048D01*
X143896464Y-74195309D01*
X144004691Y-74303536D01*
X144131952Y-74388569D01*
X144273357Y-74447141D01*
X144423472Y-74477000D01*
X144576528Y-74477000D01*
X144726643Y-74447141D01*
X144868048Y-74388569D01*
X144995309Y-74303536D01*
X145071845Y-74227000D01*
X145138000Y-74227000D01*
X145138000Y-78980600D01*
X145141676Y-79055356D01*
X145160925Y-79250618D01*
X145190118Y-79397249D01*
X145247123Y-79584993D01*
X145304388Y-79723105D01*
X145396956Y-79896105D01*
X145480084Y-80020374D01*
X145604650Y-80171969D01*
X145710444Y-80277615D01*
X145862213Y-80401969D01*
X145986600Y-80484925D01*
X146159729Y-80577250D01*
X146297918Y-80634320D01*
X146485743Y-80691063D01*
X146632415Y-80720051D01*
X146827703Y-80739027D01*
X146902465Y-80742598D01*
X156379393Y-80729337D01*
X156473005Y-91401114D01*
X156475440Y-91424776D01*
X156482667Y-91448601D01*
X156494403Y-91470557D01*
X156510197Y-91489803D01*
X156529443Y-91505597D01*
X156551399Y-91517333D01*
X156575224Y-91524560D01*
X156600000Y-91527000D01*
X174298000Y-91527000D01*
X174298000Y-102048776D01*
X174225362Y-102184672D01*
X174116870Y-102316870D01*
X173984672Y-102425362D01*
X173848776Y-102498000D01*
X89551224Y-102498000D01*
X89415328Y-102425362D01*
X89283130Y-102316870D01*
X89174638Y-102184672D01*
X89102000Y-102048776D01*
X89102000Y-97611716D01*
X149373000Y-97611716D01*
X149373000Y-98188284D01*
X149485482Y-98753775D01*
X149706126Y-99286455D01*
X150026450Y-99765854D01*
X150434146Y-100173550D01*
X150913545Y-100493874D01*
X151446225Y-100714518D01*
X152011716Y-100827000D01*
X152588284Y-100827000D01*
X153153775Y-100714518D01*
X153686455Y-100493874D01*
X154165854Y-100173550D01*
X154573550Y-99765854D01*
X154893874Y-99286455D01*
X155114518Y-98753775D01*
X155227000Y-98188284D01*
X155227000Y-97611716D01*
X155114518Y-97046225D01*
X154893874Y-96513545D01*
X154573550Y-96034146D01*
X154165854Y-95626450D01*
X153686455Y-95306126D01*
X153153775Y-95085482D01*
X152588284Y-94973000D01*
X152011716Y-94973000D01*
X151446225Y-95085482D01*
X150913545Y-95306126D01*
X150434146Y-95626450D01*
X150026450Y-96034146D01*
X149706126Y-96513545D01*
X149485482Y-97046225D01*
X149373000Y-97611716D01*
X89102000Y-97611716D01*
X89102000Y-82440000D01*
X107121967Y-82440000D01*
X107146044Y-82684455D01*
X107217348Y-82919515D01*
X107333141Y-83136148D01*
X107488972Y-83326028D01*
X107678852Y-83481859D01*
X107895485Y-83597652D01*
X108130545Y-83668956D01*
X108313747Y-83687000D01*
X108886253Y-83687000D01*
X109069455Y-83668956D01*
X109304515Y-83597652D01*
X109521148Y-83481859D01*
X109711028Y-83326028D01*
X109866859Y-83136148D01*
X109982652Y-82919515D01*
X110053956Y-82684455D01*
X110078033Y-82440000D01*
X110053956Y-82195545D01*
X109982652Y-81960485D01*
X109866859Y-81743852D01*
X109711028Y-81553972D01*
X109521148Y-81398141D01*
X109304515Y-81282348D01*
X109069455Y-81211044D01*
X108886253Y-81193000D01*
X108313747Y-81193000D01*
X108130545Y-81211044D01*
X107895485Y-81282348D01*
X107678852Y-81398141D01*
X107488972Y-81553972D01*
X107333141Y-81743852D01*
X107217348Y-81960485D01*
X107146044Y-82195545D01*
X107121967Y-82440000D01*
X89102000Y-82440000D01*
X89102000Y-72011716D01*
X90273000Y-72011716D01*
X90273000Y-72588284D01*
X90385482Y-73153775D01*
X90606126Y-73686455D01*
X90926450Y-74165854D01*
X91334146Y-74573550D01*
X91813545Y-74893874D01*
X92346225Y-75114518D01*
X92911716Y-75227000D01*
X93488284Y-75227000D01*
X94053775Y-75114518D01*
X94586455Y-74893874D01*
X95065854Y-74573550D01*
X95473550Y-74165854D01*
X95793874Y-73686455D01*
X96014518Y-73153775D01*
X96127000Y-72588284D01*
X96127000Y-72011716D01*
X96014518Y-71446225D01*
X95793874Y-70913545D01*
X95473550Y-70434146D01*
X95065854Y-70026450D01*
X94586455Y-69706126D01*
X94053775Y-69485482D01*
X93488284Y-69373000D01*
X92911716Y-69373000D01*
X92346225Y-69485482D01*
X91813545Y-69706126D01*
X91334146Y-70026450D01*
X90926450Y-70434146D01*
X90606126Y-70913545D01*
X90385482Y-71446225D01*
X90273000Y-72011716D01*
X89102000Y-72011716D01*
X89102000Y-61527199D01*
X89207825Y-61583789D01*
X89322869Y-61631461D01*
X89510526Y-61688408D01*
X89632658Y-61712711D01*
X89827820Y-61731940D01*
X89890084Y-61735000D01*
X100197001Y-61735000D01*
X100197001Y-65897000D01*
X100193948Y-65928000D01*
X100206130Y-66051697D01*
X100242211Y-66170641D01*
X100300804Y-66280260D01*
X100359897Y-66352265D01*
X100359900Y-66352268D01*
X100379658Y-66376343D01*
X100403733Y-66396101D01*
X105644000Y-71636369D01*
X105644001Y-73868993D01*
X105644000Y-73869003D01*
X105644000Y-73944010D01*
X105640948Y-73975000D01*
X105644000Y-74005991D01*
X105644001Y-76344000D01*
X105640948Y-76375000D01*
X105653130Y-76498697D01*
X105689211Y-76617641D01*
X105746176Y-76724214D01*
X105746176Y-76800000D01*
X105753455Y-76873905D01*
X105761371Y-76900000D01*
X105753455Y-76926095D01*
X105746176Y-77000000D01*
X105746176Y-77123000D01*
X105103444Y-77123000D01*
X105122848Y-77099356D01*
X105180958Y-76990641D01*
X105216741Y-76872678D01*
X105228824Y-76750001D01*
X105228824Y-76099999D01*
X105216741Y-75977322D01*
X105180958Y-75859359D01*
X105122848Y-75750644D01*
X105044646Y-75655354D01*
X104949356Y-75577152D01*
X104840641Y-75519042D01*
X104722678Y-75483259D01*
X104600001Y-75471176D01*
X102399999Y-75471176D01*
X102277322Y-75483259D01*
X102159359Y-75519042D01*
X102050644Y-75577152D01*
X101955354Y-75655354D01*
X101877152Y-75750644D01*
X101819042Y-75859359D01*
X101783259Y-75977322D01*
X101771176Y-76099999D01*
X101771176Y-76750001D01*
X101783259Y-76872678D01*
X101819042Y-76990641D01*
X101877152Y-77099356D01*
X101955354Y-77194646D01*
X102050644Y-77272848D01*
X102159359Y-77330958D01*
X102277322Y-77366741D01*
X102399999Y-77378824D01*
X103708534Y-77378824D01*
X104334053Y-78004344D01*
X104350552Y-78024448D01*
X104430798Y-78090304D01*
X104522350Y-78139239D01*
X104621690Y-78169374D01*
X104625366Y-78169736D01*
X104725000Y-78179549D01*
X104750881Y-78177000D01*
X105746176Y-78177000D01*
X105746176Y-78300000D01*
X105753455Y-78373905D01*
X105775012Y-78444970D01*
X105810019Y-78510463D01*
X105857131Y-78567869D01*
X105914537Y-78614981D01*
X105980030Y-78649988D01*
X106040853Y-78668438D01*
X106088809Y-78758158D01*
X106157789Y-78842211D01*
X106178856Y-78859500D01*
X106790508Y-79471154D01*
X106807789Y-79492211D01*
X106828845Y-79509491D01*
X106828846Y-79509492D01*
X106891842Y-79561191D01*
X106987737Y-79612448D01*
X107091789Y-79644012D01*
X107200000Y-79654670D01*
X107227108Y-79652000D01*
X109053155Y-79652000D01*
X109104691Y-79703536D01*
X109231952Y-79788569D01*
X109373357Y-79847141D01*
X109523472Y-79877000D01*
X109676528Y-79877000D01*
X109826643Y-79847141D01*
X109968048Y-79788569D01*
X110095309Y-79703536D01*
X110146845Y-79652000D01*
X111372894Y-79652000D01*
X111400000Y-79654670D01*
X111427106Y-79652000D01*
X111427109Y-79652000D01*
X111508211Y-79644012D01*
X111612263Y-79612448D01*
X111648001Y-79593346D01*
X111648001Y-79906709D01*
X111295656Y-80259055D01*
X111145662Y-80409049D01*
X111125553Y-80425552D01*
X111085331Y-80474563D01*
X111059696Y-80505799D01*
X111010761Y-80597351D01*
X110980626Y-80696691D01*
X110970451Y-80800000D01*
X110973001Y-80825891D01*
X110973000Y-84028155D01*
X110896464Y-84104691D01*
X110811431Y-84231952D01*
X110752859Y-84373357D01*
X110723000Y-84523472D01*
X110723000Y-84569023D01*
X110663423Y-84537178D01*
X110573508Y-84509903D01*
X110503423Y-84503000D01*
X110503415Y-84503000D01*
X110480000Y-84500694D01*
X110456585Y-84503000D01*
X109983415Y-84503000D01*
X109982652Y-84500485D01*
X109866859Y-84283852D01*
X109711028Y-84093972D01*
X109521148Y-83938141D01*
X109304515Y-83822348D01*
X109069455Y-83751044D01*
X108886253Y-83733000D01*
X108313747Y-83733000D01*
X108130545Y-83751044D01*
X107895485Y-83822348D01*
X107678852Y-83938141D01*
X107488972Y-84093972D01*
X107333141Y-84283852D01*
X107217348Y-84500485D01*
X107146044Y-84735545D01*
X107121967Y-84980000D01*
X107146044Y-85224455D01*
X107217348Y-85459515D01*
X107333141Y-85676148D01*
X107488972Y-85866028D01*
X107678852Y-86021859D01*
X107895485Y-86137652D01*
X108130545Y-86208956D01*
X108313747Y-86227000D01*
X108886253Y-86227000D01*
X109069455Y-86208956D01*
X109304515Y-86137652D01*
X109521148Y-86021859D01*
X109711028Y-85866028D01*
X109866859Y-85676148D01*
X109982652Y-85459515D01*
X109983415Y-85457000D01*
X110282421Y-85457000D01*
X111646147Y-86820727D01*
X111661079Y-86838921D01*
X111733711Y-86898529D01*
X111816577Y-86942822D01*
X111906492Y-86970097D01*
X111976577Y-86977000D01*
X111976585Y-86977000D01*
X112000000Y-86979306D01*
X112023415Y-86977000D01*
X112402421Y-86977000D01*
X112682723Y-87257302D01*
X110048422Y-87257302D01*
X109982652Y-87040485D01*
X109866859Y-86823852D01*
X109711028Y-86633972D01*
X109521148Y-86478141D01*
X109304515Y-86362348D01*
X109069455Y-86291044D01*
X108886253Y-86273000D01*
X108313747Y-86273000D01*
X108130545Y-86291044D01*
X107895485Y-86362348D01*
X107678852Y-86478141D01*
X107488972Y-86633972D01*
X107333141Y-86823852D01*
X107217348Y-87040485D01*
X107146044Y-87275545D01*
X107121967Y-87520000D01*
X107146044Y-87764455D01*
X107217348Y-87999515D01*
X107333141Y-88216148D01*
X107488972Y-88406028D01*
X107678852Y-88561859D01*
X107895485Y-88677652D01*
X108130545Y-88748956D01*
X108313747Y-88767000D01*
X108886253Y-88767000D01*
X109069455Y-88748956D01*
X109304515Y-88677652D01*
X109521148Y-88561859D01*
X109711028Y-88406028D01*
X109866859Y-88216148D01*
X109869449Y-88211302D01*
X113036723Y-88211302D01*
X114096149Y-89270729D01*
X114111079Y-89288921D01*
X114129270Y-89303850D01*
X114129272Y-89303852D01*
X114181720Y-89346895D01*
X114183711Y-89348529D01*
X114266577Y-89392822D01*
X114356492Y-89420097D01*
X114426577Y-89427000D01*
X114426585Y-89427000D01*
X114450000Y-89429306D01*
X114473415Y-89427000D01*
X115961657Y-89427000D01*
X115962293Y-89429098D01*
X115990715Y-89497715D01*
X115995336Y-89506360D01*
X116036602Y-89568115D01*
X116042820Y-89575691D01*
X116046275Y-89579146D01*
X116042421Y-89583000D01*
X109983415Y-89583000D01*
X109982652Y-89580485D01*
X109866859Y-89363852D01*
X109711028Y-89173972D01*
X109521148Y-89018141D01*
X109304515Y-88902348D01*
X109069455Y-88831044D01*
X108886253Y-88813000D01*
X108313747Y-88813000D01*
X108130545Y-88831044D01*
X107895485Y-88902348D01*
X107678852Y-89018141D01*
X107488972Y-89173972D01*
X107333141Y-89363852D01*
X107217348Y-89580485D01*
X107146044Y-89815545D01*
X107121967Y-90060000D01*
X107146044Y-90304455D01*
X107217348Y-90539515D01*
X107333141Y-90756148D01*
X107488972Y-90946028D01*
X107678852Y-91101859D01*
X107895485Y-91217652D01*
X108130545Y-91288956D01*
X108313747Y-91307000D01*
X108886253Y-91307000D01*
X109069455Y-91288956D01*
X109304515Y-91217652D01*
X109521148Y-91101859D01*
X109711028Y-90946028D01*
X109866859Y-90756148D01*
X109982652Y-90539515D01*
X109983415Y-90537000D01*
X116135028Y-90537000D01*
X116152859Y-90626643D01*
X116211431Y-90768048D01*
X116296464Y-90895309D01*
X116404691Y-91003536D01*
X116531952Y-91088569D01*
X116606127Y-91119293D01*
X116402421Y-91323000D01*
X114023415Y-91323000D01*
X114000000Y-91320694D01*
X113976585Y-91323000D01*
X113976577Y-91323000D01*
X113906492Y-91329903D01*
X113816577Y-91357178D01*
X113733711Y-91401471D01*
X113661079Y-91461079D01*
X113646149Y-91479271D01*
X113002421Y-92123000D01*
X110073824Y-92123000D01*
X110073824Y-91979999D01*
X110061741Y-91857322D01*
X110025958Y-91739359D01*
X109967848Y-91630644D01*
X109889646Y-91535354D01*
X109794356Y-91457152D01*
X109685641Y-91399042D01*
X109567678Y-91363259D01*
X109445001Y-91351176D01*
X107754999Y-91351176D01*
X107632322Y-91363259D01*
X107514359Y-91399042D01*
X107405644Y-91457152D01*
X107310354Y-91535354D01*
X107232152Y-91630644D01*
X107174042Y-91739359D01*
X107138259Y-91857322D01*
X107126176Y-91979999D01*
X107126176Y-93220001D01*
X107138259Y-93342678D01*
X107174042Y-93460641D01*
X107232152Y-93569356D01*
X107310354Y-93664646D01*
X107405644Y-93742848D01*
X107514359Y-93800958D01*
X107632322Y-93836741D01*
X107754999Y-93848824D01*
X109445001Y-93848824D01*
X109567678Y-93836741D01*
X109685641Y-93800958D01*
X109794356Y-93742848D01*
X109889646Y-93664646D01*
X109967848Y-93569356D01*
X110025958Y-93460641D01*
X110061741Y-93342678D01*
X110073824Y-93220001D01*
X110073824Y-93077000D01*
X113176585Y-93077000D01*
X113200000Y-93079306D01*
X113223415Y-93077000D01*
X113223423Y-93077000D01*
X113293508Y-93070097D01*
X113383423Y-93042822D01*
X113466289Y-92998529D01*
X113538921Y-92938921D01*
X113553855Y-92920724D01*
X114197580Y-92277000D01*
X116576585Y-92277000D01*
X116600000Y-92279306D01*
X116623415Y-92277000D01*
X116623423Y-92277000D01*
X116693508Y-92270097D01*
X116783423Y-92242822D01*
X116866289Y-92198529D01*
X116938921Y-92138921D01*
X116953855Y-92120724D01*
X117941729Y-91132851D01*
X117959921Y-91117921D01*
X118019529Y-91045289D01*
X118063822Y-90962423D01*
X118091097Y-90872508D01*
X118098000Y-90802423D01*
X118098000Y-90802416D01*
X118100306Y-90779001D01*
X118098000Y-90755586D01*
X118098000Y-89727497D01*
X118108140Y-89726999D01*
X118117895Y-89726038D01*
X118190719Y-89711552D01*
X118200098Y-89708707D01*
X118268715Y-89680285D01*
X118277360Y-89675664D01*
X118339115Y-89634398D01*
X118346691Y-89628180D01*
X118399180Y-89575691D01*
X118405398Y-89568115D01*
X118446664Y-89506360D01*
X118451285Y-89497715D01*
X118479707Y-89429098D01*
X118482552Y-89419719D01*
X118497038Y-89346895D01*
X118497999Y-89337140D01*
X118499824Y-89300000D01*
X118499824Y-88778824D01*
X119021000Y-88778824D01*
X119058140Y-88776999D01*
X119067895Y-88776038D01*
X119140719Y-88761552D01*
X119150098Y-88758707D01*
X119218715Y-88730285D01*
X119227360Y-88725664D01*
X119289115Y-88684398D01*
X119296691Y-88678180D01*
X119349180Y-88625691D01*
X119355398Y-88618115D01*
X119396664Y-88556360D01*
X119401285Y-88547715D01*
X119429707Y-88479098D01*
X119432552Y-88469719D01*
X119447038Y-88396895D01*
X119447999Y-88387140D01*
X119448497Y-88377000D01*
X121102421Y-88377000D01*
X121132362Y-88406941D01*
X121132131Y-88407131D01*
X121085019Y-88464537D01*
X121050012Y-88530030D01*
X121028455Y-88601095D01*
X121021176Y-88675000D01*
X121021176Y-91115000D01*
X121028455Y-91188905D01*
X121050012Y-91259970D01*
X121085019Y-91325463D01*
X121132131Y-91382869D01*
X121189537Y-91429981D01*
X121255030Y-91464988D01*
X121326095Y-91486545D01*
X121400000Y-91493824D01*
X122520000Y-91493824D01*
X122593905Y-91486545D01*
X122664970Y-91464988D01*
X122730463Y-91429981D01*
X122787869Y-91382869D01*
X122834981Y-91325463D01*
X122869988Y-91259970D01*
X122891545Y-91188905D01*
X122898824Y-91115000D01*
X122898824Y-88677000D01*
X123402421Y-88677000D01*
X123561176Y-88835755D01*
X123561176Y-91115000D01*
X123568455Y-91188905D01*
X123590012Y-91259970D01*
X123625019Y-91325463D01*
X123672131Y-91382869D01*
X123729537Y-91429981D01*
X123795030Y-91464988D01*
X123866095Y-91486545D01*
X123940000Y-91493824D01*
X125060000Y-91493824D01*
X125133905Y-91486545D01*
X125204970Y-91464988D01*
X125270463Y-91429981D01*
X125327869Y-91382869D01*
X125374981Y-91325463D01*
X125409988Y-91259970D01*
X125431545Y-91188905D01*
X125438824Y-91115000D01*
X125438824Y-88675000D01*
X125431545Y-88601095D01*
X125424236Y-88577000D01*
X126115764Y-88577000D01*
X126108455Y-88601095D01*
X126101176Y-88675000D01*
X126101176Y-91115000D01*
X126108455Y-91188905D01*
X126130012Y-91259970D01*
X126165019Y-91325463D01*
X126212131Y-91382869D01*
X126269537Y-91429981D01*
X126335030Y-91464988D01*
X126406095Y-91486545D01*
X126480000Y-91493824D01*
X127600000Y-91493824D01*
X127673905Y-91486545D01*
X127744970Y-91464988D01*
X127810463Y-91429981D01*
X127867869Y-91382869D01*
X127914981Y-91325463D01*
X127949988Y-91259970D01*
X127971545Y-91188905D01*
X127978824Y-91115000D01*
X127978824Y-88675000D01*
X127971545Y-88601095D01*
X127949988Y-88530030D01*
X127914981Y-88464537D01*
X127867869Y-88407131D01*
X127810463Y-88360019D01*
X127744970Y-88325012D01*
X127673905Y-88303455D01*
X127600000Y-88296176D01*
X127270756Y-88296176D01*
X126753855Y-87779276D01*
X126738921Y-87761079D01*
X126666289Y-87701471D01*
X126583423Y-87657178D01*
X126493508Y-87629903D01*
X126423423Y-87623000D01*
X126423415Y-87623000D01*
X126400000Y-87620694D01*
X126376585Y-87623000D01*
X124697579Y-87623000D01*
X124553855Y-87479276D01*
X124538921Y-87461079D01*
X124466289Y-87401471D01*
X124383423Y-87357178D01*
X124293508Y-87329903D01*
X124223423Y-87323000D01*
X124223415Y-87323000D01*
X124200000Y-87320694D01*
X124176585Y-87323000D01*
X122597580Y-87323000D01*
X122053855Y-86779276D01*
X122038921Y-86761079D01*
X121966289Y-86701471D01*
X121883423Y-86657178D01*
X121793508Y-86629903D01*
X121723423Y-86623000D01*
X121723415Y-86623000D01*
X121700000Y-86620694D01*
X121676585Y-86623000D01*
X119951579Y-86623000D01*
X120597580Y-85977000D01*
X122176585Y-85977000D01*
X122200000Y-85979306D01*
X122223415Y-85977000D01*
X122223423Y-85977000D01*
X122293508Y-85970097D01*
X122383423Y-85942822D01*
X122466289Y-85898529D01*
X122538921Y-85838921D01*
X122553855Y-85820724D01*
X123020729Y-85353851D01*
X123038921Y-85338921D01*
X123057259Y-85316577D01*
X123098529Y-85266289D01*
X123142822Y-85183423D01*
X123170097Y-85093508D01*
X123171496Y-85079306D01*
X123177000Y-85023423D01*
X123177000Y-85023415D01*
X123179306Y-85000000D01*
X123177000Y-84976585D01*
X123177000Y-84115770D01*
X123195309Y-84103536D01*
X123303536Y-83995309D01*
X123388569Y-83868048D01*
X123447141Y-83726643D01*
X123477000Y-83576528D01*
X123477000Y-83566179D01*
X123496464Y-83595309D01*
X123604691Y-83703536D01*
X123731952Y-83788569D01*
X123873357Y-83847141D01*
X124023472Y-83877000D01*
X124176528Y-83877000D01*
X124326643Y-83847141D01*
X124468048Y-83788569D01*
X124595309Y-83703536D01*
X124703536Y-83595309D01*
X124788569Y-83468048D01*
X124821176Y-83389328D01*
X124821176Y-83875001D01*
X124833259Y-83997678D01*
X124869042Y-84115641D01*
X124927152Y-84224356D01*
X125005354Y-84319646D01*
X125100644Y-84397848D01*
X125209359Y-84455958D01*
X125327322Y-84491741D01*
X125449999Y-84503824D01*
X126350001Y-84503824D01*
X126472678Y-84491741D01*
X126590641Y-84455958D01*
X126699356Y-84397848D01*
X126794646Y-84319646D01*
X126872848Y-84224356D01*
X126930958Y-84115641D01*
X126966741Y-83997678D01*
X126978824Y-83875001D01*
X126978824Y-81724999D01*
X126966741Y-81602322D01*
X126930958Y-81484359D01*
X126872848Y-81375644D01*
X126794646Y-81280354D01*
X126699356Y-81202152D01*
X126590641Y-81144042D01*
X126472678Y-81108259D01*
X126350001Y-81096176D01*
X125449999Y-81096176D01*
X125327322Y-81108259D01*
X125209359Y-81144042D01*
X125100644Y-81202152D01*
X125005354Y-81280354D01*
X124927152Y-81375644D01*
X124869042Y-81484359D01*
X124833259Y-81602322D01*
X124828761Y-81647990D01*
X123796877Y-81647990D01*
X123847141Y-81526643D01*
X123877000Y-81376528D01*
X123877000Y-81223472D01*
X123847141Y-81073357D01*
X123788569Y-80931952D01*
X123703536Y-80804691D01*
X123595309Y-80696464D01*
X123577000Y-80684230D01*
X123577000Y-80597579D01*
X123697580Y-80477000D01*
X125763963Y-80477000D01*
X125818790Y-80559055D01*
X125940945Y-80681210D01*
X126084585Y-80777187D01*
X126244189Y-80843297D01*
X126413623Y-80877000D01*
X126586377Y-80877000D01*
X126755811Y-80843297D01*
X126915415Y-80777187D01*
X127059055Y-80681210D01*
X127181210Y-80559055D01*
X127277187Y-80415415D01*
X127343297Y-80255811D01*
X127377000Y-80086377D01*
X127377000Y-79913623D01*
X127343297Y-79744189D01*
X127277187Y-79584585D01*
X127181210Y-79440945D01*
X127059055Y-79318790D01*
X126915415Y-79222813D01*
X126755811Y-79156703D01*
X126586377Y-79123000D01*
X126413623Y-79123000D01*
X126244189Y-79156703D01*
X126084585Y-79222813D01*
X125940945Y-79318790D01*
X125818790Y-79440945D01*
X125763963Y-79523000D01*
X125075845Y-79523000D01*
X125103536Y-79495309D01*
X125188569Y-79368048D01*
X125247141Y-79226643D01*
X125277000Y-79076528D01*
X125277000Y-78923472D01*
X125247141Y-78773357D01*
X125188569Y-78631952D01*
X125103536Y-78504691D01*
X124995309Y-78396464D01*
X124868048Y-78311431D01*
X124726643Y-78252859D01*
X124576528Y-78223000D01*
X124423472Y-78223000D01*
X124273357Y-78252859D01*
X124131952Y-78311431D01*
X124004691Y-78396464D01*
X123896464Y-78504691D01*
X123850821Y-78573000D01*
X122928824Y-78573000D01*
X122928824Y-78537500D01*
X122920344Y-78451402D01*
X122914186Y-78431103D01*
X124377446Y-76967845D01*
X124423472Y-76977000D01*
X124576528Y-76977000D01*
X124726643Y-76947141D01*
X124868048Y-76888569D01*
X124995309Y-76803536D01*
X125103536Y-76695309D01*
X125188569Y-76568048D01*
X125247141Y-76426643D01*
X125277000Y-76276528D01*
X125277000Y-76123472D01*
X125247141Y-75973357D01*
X125188569Y-75831952D01*
X125103536Y-75704691D01*
X124995309Y-75596464D01*
X124868048Y-75511431D01*
X124726643Y-75452859D01*
X124576528Y-75423000D01*
X124423472Y-75423000D01*
X124273357Y-75452859D01*
X124131952Y-75511431D01*
X124004691Y-75596464D01*
X123896464Y-75704691D01*
X123811431Y-75831952D01*
X123752859Y-75973357D01*
X123723000Y-76123472D01*
X123723000Y-76131709D01*
X121777078Y-78077633D01*
X121746691Y-78080626D01*
X121707479Y-78092521D01*
X121719374Y-78053309D01*
X121727000Y-77975880D01*
X121727000Y-77218289D01*
X125054339Y-73890951D01*
X125074448Y-73874448D01*
X125140304Y-73794202D01*
X125189239Y-73702650D01*
X125219374Y-73603310D01*
X125227000Y-73525881D01*
X125227000Y-73525879D01*
X125229549Y-73500001D01*
X125227000Y-73474123D01*
X125227000Y-73071845D01*
X125303536Y-72995309D01*
X125388569Y-72868048D01*
X125447141Y-72726643D01*
X125477000Y-72576528D01*
X125477000Y-72423472D01*
X125447141Y-72273357D01*
X125388569Y-72131952D01*
X125303536Y-72004691D01*
X125195309Y-71896464D01*
X125068048Y-71811431D01*
X124926643Y-71752859D01*
X124776528Y-71723000D01*
X124623472Y-71723000D01*
X124473357Y-71752859D01*
X124331952Y-71811431D01*
X124204691Y-71896464D01*
X124096464Y-72004691D01*
X124011431Y-72131952D01*
X123952859Y-72273357D01*
X123923000Y-72423472D01*
X123923000Y-72576528D01*
X123952859Y-72726643D01*
X124011431Y-72868048D01*
X124096464Y-72995309D01*
X124173000Y-73071845D01*
X124173000Y-73281710D01*
X123652817Y-73801893D01*
X123647141Y-73773357D01*
X123588569Y-73631952D01*
X123503536Y-73504691D01*
X123395309Y-73396464D01*
X123268048Y-73311431D01*
X123243873Y-73301417D01*
X123254339Y-73290951D01*
X123274448Y-73274448D01*
X123340304Y-73194202D01*
X123389239Y-73102650D01*
X123419374Y-73003310D01*
X123421978Y-72976867D01*
X123503536Y-72895309D01*
X123588569Y-72768048D01*
X123647141Y-72626643D01*
X123677000Y-72476528D01*
X123677000Y-72323472D01*
X123647141Y-72173357D01*
X123588569Y-72031952D01*
X123503536Y-71904691D01*
X123395309Y-71796464D01*
X123268048Y-71711431D01*
X123126643Y-71652859D01*
X122976528Y-71623000D01*
X122823472Y-71623000D01*
X122673357Y-71652859D01*
X122531952Y-71711431D01*
X122404691Y-71796464D01*
X122296464Y-71904691D01*
X122211431Y-72031952D01*
X122152859Y-72173357D01*
X122123000Y-72323472D01*
X122123000Y-72476528D01*
X122152859Y-72626643D01*
X122211431Y-72768048D01*
X122241564Y-72813146D01*
X121592802Y-73461909D01*
X121603824Y-73350002D01*
X121603824Y-70449998D01*
X121591741Y-70327321D01*
X121555958Y-70209358D01*
X121497848Y-70100643D01*
X121419646Y-70005354D01*
X121324357Y-69927152D01*
X121215642Y-69869042D01*
X121097679Y-69833259D01*
X120975002Y-69821176D01*
X119899998Y-69821176D01*
X119777321Y-69833259D01*
X119659358Y-69869042D01*
X119550643Y-69927152D01*
X119455354Y-70005354D01*
X119377152Y-70100643D01*
X119319042Y-70209358D01*
X119283259Y-70327321D01*
X119273338Y-70428048D01*
X117869479Y-69024189D01*
X117877000Y-68986377D01*
X117877000Y-68813623D01*
X117843297Y-68644189D01*
X117777187Y-68484585D01*
X117681210Y-68340945D01*
X117559055Y-68218790D01*
X117415415Y-68122813D01*
X117255811Y-68056703D01*
X117086377Y-68023000D01*
X116913623Y-68023000D01*
X116744189Y-68056703D01*
X116584585Y-68122813D01*
X116440945Y-68218790D01*
X116318790Y-68340945D01*
X116222813Y-68484585D01*
X116156703Y-68644189D01*
X116123000Y-68813623D01*
X116123000Y-68986377D01*
X116156703Y-69155811D01*
X116222813Y-69315415D01*
X116318790Y-69459055D01*
X116440945Y-69581210D01*
X116584585Y-69677187D01*
X116744189Y-69743297D01*
X116913623Y-69777000D01*
X117086377Y-69777000D01*
X117124189Y-69769479D01*
X119271176Y-71916467D01*
X119271176Y-73350002D01*
X119283259Y-73472679D01*
X119303920Y-73540789D01*
X118345662Y-74499047D01*
X118325553Y-74515550D01*
X118272147Y-74580626D01*
X118259696Y-74595797D01*
X118210761Y-74687349D01*
X118180626Y-74786689D01*
X118170451Y-74889998D01*
X118173000Y-74915879D01*
X118173000Y-75274119D01*
X118170451Y-75300000D01*
X118178910Y-75385882D01*
X118180626Y-75403309D01*
X118210761Y-75502649D01*
X118259696Y-75594202D01*
X118325552Y-75674448D01*
X118345666Y-75690955D01*
X118673001Y-76018291D01*
X118673000Y-77649119D01*
X118673000Y-77975879D01*
X118680626Y-78053308D01*
X118695359Y-78101875D01*
X118637500Y-78096176D01*
X117912500Y-78096176D01*
X117906684Y-78096749D01*
X117402000Y-77592066D01*
X117402000Y-76996845D01*
X117503536Y-76895309D01*
X117588569Y-76768048D01*
X117647141Y-76626643D01*
X117677000Y-76476528D01*
X117677000Y-76323472D01*
X117647141Y-76173357D01*
X117588569Y-76031952D01*
X117503536Y-75904691D01*
X117395309Y-75796464D01*
X117268048Y-75711431D01*
X117126643Y-75652859D01*
X116976528Y-75623000D01*
X116823472Y-75623000D01*
X116673357Y-75652859D01*
X116627000Y-75672061D01*
X116627000Y-75125881D01*
X116629549Y-75100000D01*
X116619374Y-74996690D01*
X116602041Y-74939551D01*
X116589239Y-74897350D01*
X116540304Y-74805798D01*
X116474448Y-74725552D01*
X116454344Y-74709053D01*
X115724114Y-73978824D01*
X116700002Y-73978824D01*
X116822679Y-73966741D01*
X116940642Y-73930958D01*
X117049357Y-73872848D01*
X117144646Y-73794646D01*
X117222848Y-73699357D01*
X117280958Y-73590642D01*
X117316741Y-73472679D01*
X117328824Y-73350002D01*
X117328824Y-70449998D01*
X117316741Y-70327321D01*
X117280958Y-70209358D01*
X117222848Y-70100643D01*
X117144646Y-70005354D01*
X117049357Y-69927152D01*
X116940642Y-69869042D01*
X116822679Y-69833259D01*
X116700002Y-69821176D01*
X115624998Y-69821176D01*
X115502321Y-69833259D01*
X115384358Y-69869042D01*
X115275643Y-69927152D01*
X115180354Y-70005354D01*
X115102152Y-70100643D01*
X115044042Y-70209358D01*
X115008259Y-70327321D01*
X114996176Y-70449998D01*
X114996176Y-72173955D01*
X114730034Y-72440098D01*
X114690642Y-72419042D01*
X114572679Y-72383259D01*
X114450002Y-72371176D01*
X111549998Y-72371176D01*
X111427321Y-72383259D01*
X111309358Y-72419042D01*
X111200643Y-72477152D01*
X111105354Y-72555354D01*
X111027152Y-72650643D01*
X110969042Y-72759358D01*
X110933259Y-72877321D01*
X110930385Y-72906500D01*
X109868490Y-72906500D01*
X109837500Y-72903448D01*
X109806509Y-72906500D01*
X109806502Y-72906500D01*
X109713802Y-72915630D01*
X109594858Y-72951711D01*
X109485239Y-73010304D01*
X109425054Y-73059697D01*
X109389157Y-73089157D01*
X109369399Y-73113232D01*
X109061455Y-73421176D01*
X107899999Y-73421176D01*
X107777322Y-73433259D01*
X107659359Y-73469042D01*
X107550644Y-73527152D01*
X107455354Y-73605354D01*
X107377152Y-73700644D01*
X107353977Y-73744000D01*
X106936367Y-73744000D01*
X106906000Y-73713632D01*
X106906000Y-71405987D01*
X106909052Y-71374999D01*
X106906000Y-71344011D01*
X106906000Y-71344002D01*
X106896870Y-71251302D01*
X106860789Y-71132358D01*
X106802196Y-71022739D01*
X106723343Y-70926657D01*
X106699269Y-70906900D01*
X101459000Y-65666632D01*
X101459000Y-61735000D01*
X103400000Y-61735000D01*
X103462242Y-61731942D01*
X103657332Y-61712727D01*
X103779419Y-61688443D01*
X103967012Y-61631538D01*
X104082020Y-61583900D01*
X104254907Y-61491490D01*
X104358409Y-61422332D01*
X104509946Y-61297969D01*
X104597969Y-61209946D01*
X104722332Y-61058409D01*
X104791490Y-60954907D01*
X104883900Y-60782020D01*
X104931538Y-60667012D01*
X104988443Y-60479419D01*
X105012727Y-60357332D01*
X105031942Y-60162242D01*
X105035000Y-60100000D01*
X105035000Y-57731194D01*
X105045027Y-57629394D01*
X105065623Y-57561494D01*
X105099069Y-57498923D01*
X105144078Y-57444078D01*
X105198923Y-57399069D01*
X105261494Y-57365623D01*
X105329394Y-57345027D01*
X105431194Y-57335000D01*
X144868806Y-57335000D01*
X144970606Y-57345027D01*
G04 #@! TA.AperFunction,Conductor*
D33*
G36*
X144970606Y-57345027D02*
G01*
X145038506Y-57365623D01*
X145101077Y-57399069D01*
X145155922Y-57444078D01*
X145200931Y-57498923D01*
X145234377Y-57561494D01*
X145254973Y-57629394D01*
X145265000Y-57731194D01*
X145265000Y-60995231D01*
X145268076Y-61057660D01*
X145287407Y-61253333D01*
X145311838Y-61375775D01*
X145369083Y-61563884D01*
X145417002Y-61679183D01*
X145509949Y-61852454D01*
X145579500Y-61956144D01*
X145593392Y-61973000D01*
X145271845Y-61973000D01*
X145195309Y-61896464D01*
X145068048Y-61811431D01*
X144926643Y-61752859D01*
X144776528Y-61723000D01*
X144623472Y-61723000D01*
X144473357Y-61752859D01*
X144331952Y-61811431D01*
X144204691Y-61896464D01*
X144096464Y-62004691D01*
X144011431Y-62131952D01*
X143952859Y-62273357D01*
X143923000Y-62423472D01*
X143923000Y-62576528D01*
X143952859Y-62726643D01*
X144011431Y-62868048D01*
X144096464Y-62995309D01*
X144204691Y-63103536D01*
X144331952Y-63188569D01*
X144473357Y-63247141D01*
X144623472Y-63277000D01*
X144776528Y-63277000D01*
X144926643Y-63247141D01*
X145068048Y-63188569D01*
X145195309Y-63103536D01*
X145271845Y-63027000D01*
X145603071Y-63027000D01*
X145478932Y-63178446D01*
X145396077Y-63302582D01*
X145303818Y-63475360D01*
X145246748Y-63613271D01*
X145189938Y-63800719D01*
X145160845Y-63947107D01*
X145141663Y-64142033D01*
X145138000Y-64216658D01*
X145138000Y-70350314D01*
X145098905Y-70338455D01*
X145025000Y-70331176D01*
X140425000Y-70331176D01*
X140351095Y-70338455D01*
X140280030Y-70360012D01*
X140214537Y-70395019D01*
X140157131Y-70442131D01*
X140110019Y-70499537D01*
X140075012Y-70565030D01*
X140053455Y-70636095D01*
X140046176Y-70710000D01*
X140046176Y-71810000D01*
X140053455Y-71883905D01*
X140075012Y-71954970D01*
X140110019Y-72020463D01*
X140157131Y-72077869D01*
X140214537Y-72124981D01*
X140280030Y-72159988D01*
X140351095Y-72181545D01*
X140425000Y-72188824D01*
X142173001Y-72188824D01*
X142173000Y-73125880D01*
X142173001Y-73125890D01*
X142173000Y-74028155D01*
X142096464Y-74104691D01*
X142011431Y-74231952D01*
X141952859Y-74373357D01*
X141923000Y-74523472D01*
X141923000Y-74676528D01*
X141952859Y-74826643D01*
X142011431Y-74968048D01*
X142096464Y-75095309D01*
X142204691Y-75203536D01*
X142331952Y-75288569D01*
X142473357Y-75347141D01*
X142623472Y-75377000D01*
X142776528Y-75377000D01*
X142926643Y-75347141D01*
X143068048Y-75288569D01*
X143195309Y-75203536D01*
X143303536Y-75095309D01*
X143388569Y-74968048D01*
X143447141Y-74826643D01*
X143477000Y-74676528D01*
X143477000Y-74523472D01*
X143447141Y-74373357D01*
X143388569Y-74231952D01*
X143303536Y-74104691D01*
X143227000Y-74028155D01*
X143227000Y-72188824D01*
X145025000Y-72188824D01*
X145098905Y-72181545D01*
X145138000Y-72169686D01*
X145138000Y-73173000D01*
X145071845Y-73173000D01*
X144995309Y-73096464D01*
X144868048Y-73011431D01*
X144726643Y-72952859D01*
X144576528Y-72923000D01*
X144423472Y-72923000D01*
X144273357Y-72952859D01*
X144131952Y-73011431D01*
X144004691Y-73096464D01*
X143896464Y-73204691D01*
X143811431Y-73331952D01*
X143752859Y-73473357D01*
X143723000Y-73623472D01*
X143723000Y-73776528D01*
X143752859Y-73926643D01*
X143811431Y-74068048D01*
X143896464Y-74195309D01*
X144004691Y-74303536D01*
X144131952Y-74388569D01*
X144273357Y-74447141D01*
X144423472Y-74477000D01*
X144576528Y-74477000D01*
X144726643Y-74447141D01*
X144868048Y-74388569D01*
X144995309Y-74303536D01*
X145071845Y-74227000D01*
X145138000Y-74227000D01*
X145138000Y-78980600D01*
X145141676Y-79055356D01*
X145160925Y-79250618D01*
X145190118Y-79397249D01*
X145247123Y-79584993D01*
X145304388Y-79723105D01*
X145396956Y-79896105D01*
X145480084Y-80020374D01*
X145604650Y-80171969D01*
X145710444Y-80277615D01*
X145862213Y-80401969D01*
X145986600Y-80484925D01*
X146159729Y-80577250D01*
X146297918Y-80634320D01*
X146485743Y-80691063D01*
X146632415Y-80720051D01*
X146827703Y-80739027D01*
X146902465Y-80742598D01*
X156379393Y-80729337D01*
X156473005Y-91401114D01*
X156475440Y-91424776D01*
X156482667Y-91448601D01*
X156494403Y-91470557D01*
X156510197Y-91489803D01*
X156529443Y-91505597D01*
X156551399Y-91517333D01*
X156575224Y-91524560D01*
X156600000Y-91527000D01*
X174298000Y-91527000D01*
X174298000Y-102048776D01*
X174225362Y-102184672D01*
X174116870Y-102316870D01*
X173984672Y-102425362D01*
X173848776Y-102498000D01*
X89551224Y-102498000D01*
X89415328Y-102425362D01*
X89283130Y-102316870D01*
X89174638Y-102184672D01*
X89102000Y-102048776D01*
X89102000Y-97611716D01*
X149373000Y-97611716D01*
X149373000Y-98188284D01*
X149485482Y-98753775D01*
X149706126Y-99286455D01*
X150026450Y-99765854D01*
X150434146Y-100173550D01*
X150913545Y-100493874D01*
X151446225Y-100714518D01*
X152011716Y-100827000D01*
X152588284Y-100827000D01*
X153153775Y-100714518D01*
X153686455Y-100493874D01*
X154165854Y-100173550D01*
X154573550Y-99765854D01*
X154893874Y-99286455D01*
X155114518Y-98753775D01*
X155227000Y-98188284D01*
X155227000Y-97611716D01*
X155114518Y-97046225D01*
X154893874Y-96513545D01*
X154573550Y-96034146D01*
X154165854Y-95626450D01*
X153686455Y-95306126D01*
X153153775Y-95085482D01*
X152588284Y-94973000D01*
X152011716Y-94973000D01*
X151446225Y-95085482D01*
X150913545Y-95306126D01*
X150434146Y-95626450D01*
X150026450Y-96034146D01*
X149706126Y-96513545D01*
X149485482Y-97046225D01*
X149373000Y-97611716D01*
X89102000Y-97611716D01*
X89102000Y-82440000D01*
X107121967Y-82440000D01*
X107146044Y-82684455D01*
X107217348Y-82919515D01*
X107333141Y-83136148D01*
X107488972Y-83326028D01*
X107678852Y-83481859D01*
X107895485Y-83597652D01*
X108130545Y-83668956D01*
X108313747Y-83687000D01*
X108886253Y-83687000D01*
X109069455Y-83668956D01*
X109304515Y-83597652D01*
X109521148Y-83481859D01*
X109711028Y-83326028D01*
X109866859Y-83136148D01*
X109982652Y-82919515D01*
X110053956Y-82684455D01*
X110078033Y-82440000D01*
X110053956Y-82195545D01*
X109982652Y-81960485D01*
X109866859Y-81743852D01*
X109711028Y-81553972D01*
X109521148Y-81398141D01*
X109304515Y-81282348D01*
X109069455Y-81211044D01*
X108886253Y-81193000D01*
X108313747Y-81193000D01*
X108130545Y-81211044D01*
X107895485Y-81282348D01*
X107678852Y-81398141D01*
X107488972Y-81553972D01*
X107333141Y-81743852D01*
X107217348Y-81960485D01*
X107146044Y-82195545D01*
X107121967Y-82440000D01*
X89102000Y-82440000D01*
X89102000Y-72011716D01*
X90273000Y-72011716D01*
X90273000Y-72588284D01*
X90385482Y-73153775D01*
X90606126Y-73686455D01*
X90926450Y-74165854D01*
X91334146Y-74573550D01*
X91813545Y-74893874D01*
X92346225Y-75114518D01*
X92911716Y-75227000D01*
X93488284Y-75227000D01*
X94053775Y-75114518D01*
X94586455Y-74893874D01*
X95065854Y-74573550D01*
X95473550Y-74165854D01*
X95793874Y-73686455D01*
X96014518Y-73153775D01*
X96127000Y-72588284D01*
X96127000Y-72011716D01*
X96014518Y-71446225D01*
X95793874Y-70913545D01*
X95473550Y-70434146D01*
X95065854Y-70026450D01*
X94586455Y-69706126D01*
X94053775Y-69485482D01*
X93488284Y-69373000D01*
X92911716Y-69373000D01*
X92346225Y-69485482D01*
X91813545Y-69706126D01*
X91334146Y-70026450D01*
X90926450Y-70434146D01*
X90606126Y-70913545D01*
X90385482Y-71446225D01*
X90273000Y-72011716D01*
X89102000Y-72011716D01*
X89102000Y-61527199D01*
X89207825Y-61583789D01*
X89322869Y-61631461D01*
X89510526Y-61688408D01*
X89632658Y-61712711D01*
X89827820Y-61731940D01*
X89890084Y-61735000D01*
X100197001Y-61735000D01*
X100197001Y-65897000D01*
X100193948Y-65928000D01*
X100206130Y-66051697D01*
X100242211Y-66170641D01*
X100300804Y-66280260D01*
X100359897Y-66352265D01*
X100359900Y-66352268D01*
X100379658Y-66376343D01*
X100403733Y-66396101D01*
X105644000Y-71636369D01*
X105644001Y-73868993D01*
X105644000Y-73869003D01*
X105644000Y-73944010D01*
X105640948Y-73975000D01*
X105644000Y-74005991D01*
X105644001Y-76344000D01*
X105640948Y-76375000D01*
X105653130Y-76498697D01*
X105689211Y-76617641D01*
X105746176Y-76724214D01*
X105746176Y-76800000D01*
X105753455Y-76873905D01*
X105761371Y-76900000D01*
X105753455Y-76926095D01*
X105746176Y-77000000D01*
X105746176Y-77123000D01*
X105103444Y-77123000D01*
X105122848Y-77099356D01*
X105180958Y-76990641D01*
X105216741Y-76872678D01*
X105228824Y-76750001D01*
X105228824Y-76099999D01*
X105216741Y-75977322D01*
X105180958Y-75859359D01*
X105122848Y-75750644D01*
X105044646Y-75655354D01*
X104949356Y-75577152D01*
X104840641Y-75519042D01*
X104722678Y-75483259D01*
X104600001Y-75471176D01*
X102399999Y-75471176D01*
X102277322Y-75483259D01*
X102159359Y-75519042D01*
X102050644Y-75577152D01*
X101955354Y-75655354D01*
X101877152Y-75750644D01*
X101819042Y-75859359D01*
X101783259Y-75977322D01*
X101771176Y-76099999D01*
X101771176Y-76750001D01*
X101783259Y-76872678D01*
X101819042Y-76990641D01*
X101877152Y-77099356D01*
X101955354Y-77194646D01*
X102050644Y-77272848D01*
X102159359Y-77330958D01*
X102277322Y-77366741D01*
X102399999Y-77378824D01*
X103708534Y-77378824D01*
X104334053Y-78004344D01*
X104350552Y-78024448D01*
X104430798Y-78090304D01*
X104522350Y-78139239D01*
X104621690Y-78169374D01*
X104625366Y-78169736D01*
X104725000Y-78179549D01*
X104750881Y-78177000D01*
X105746176Y-78177000D01*
X105746176Y-78300000D01*
X105753455Y-78373905D01*
X105775012Y-78444970D01*
X105810019Y-78510463D01*
X105857131Y-78567869D01*
X105914537Y-78614981D01*
X105980030Y-78649988D01*
X106040853Y-78668438D01*
X106088809Y-78758158D01*
X106157789Y-78842211D01*
X106178856Y-78859500D01*
X106790508Y-79471154D01*
X106807789Y-79492211D01*
X106828845Y-79509491D01*
X106828846Y-79509492D01*
X106891842Y-79561191D01*
X106987737Y-79612448D01*
X107091789Y-79644012D01*
X107200000Y-79654670D01*
X107227108Y-79652000D01*
X109053155Y-79652000D01*
X109104691Y-79703536D01*
X109231952Y-79788569D01*
X109373357Y-79847141D01*
X109523472Y-79877000D01*
X109676528Y-79877000D01*
X109826643Y-79847141D01*
X109968048Y-79788569D01*
X110095309Y-79703536D01*
X110146845Y-79652000D01*
X111372894Y-79652000D01*
X111400000Y-79654670D01*
X111427106Y-79652000D01*
X111427109Y-79652000D01*
X111508211Y-79644012D01*
X111612263Y-79612448D01*
X111648001Y-79593346D01*
X111648001Y-79906709D01*
X111295656Y-80259055D01*
X111145662Y-80409049D01*
X111125553Y-80425552D01*
X111085331Y-80474563D01*
X111059696Y-80505799D01*
X111010761Y-80597351D01*
X110980626Y-80696691D01*
X110970451Y-80800000D01*
X110973001Y-80825891D01*
X110973000Y-84028155D01*
X110896464Y-84104691D01*
X110811431Y-84231952D01*
X110752859Y-84373357D01*
X110723000Y-84523472D01*
X110723000Y-84569023D01*
X110663423Y-84537178D01*
X110573508Y-84509903D01*
X110503423Y-84503000D01*
X110503415Y-84503000D01*
X110480000Y-84500694D01*
X110456585Y-84503000D01*
X109983415Y-84503000D01*
X109982652Y-84500485D01*
X109866859Y-84283852D01*
X109711028Y-84093972D01*
X109521148Y-83938141D01*
X109304515Y-83822348D01*
X109069455Y-83751044D01*
X108886253Y-83733000D01*
X108313747Y-83733000D01*
X108130545Y-83751044D01*
X107895485Y-83822348D01*
X107678852Y-83938141D01*
X107488972Y-84093972D01*
X107333141Y-84283852D01*
X107217348Y-84500485D01*
X107146044Y-84735545D01*
X107121967Y-84980000D01*
X107146044Y-85224455D01*
X107217348Y-85459515D01*
X107333141Y-85676148D01*
X107488972Y-85866028D01*
X107678852Y-86021859D01*
X107895485Y-86137652D01*
X108130545Y-86208956D01*
X108313747Y-86227000D01*
X108886253Y-86227000D01*
X109069455Y-86208956D01*
X109304515Y-86137652D01*
X109521148Y-86021859D01*
X109711028Y-85866028D01*
X109866859Y-85676148D01*
X109982652Y-85459515D01*
X109983415Y-85457000D01*
X110282421Y-85457000D01*
X111646147Y-86820727D01*
X111661079Y-86838921D01*
X111733711Y-86898529D01*
X111816577Y-86942822D01*
X111906492Y-86970097D01*
X111976577Y-86977000D01*
X111976585Y-86977000D01*
X112000000Y-86979306D01*
X112023415Y-86977000D01*
X112402421Y-86977000D01*
X112682723Y-87257302D01*
X110048422Y-87257302D01*
X109982652Y-87040485D01*
X109866859Y-86823852D01*
X109711028Y-86633972D01*
X109521148Y-86478141D01*
X109304515Y-86362348D01*
X109069455Y-86291044D01*
X108886253Y-86273000D01*
X108313747Y-86273000D01*
X108130545Y-86291044D01*
X107895485Y-86362348D01*
X107678852Y-86478141D01*
X107488972Y-86633972D01*
X107333141Y-86823852D01*
X107217348Y-87040485D01*
X107146044Y-87275545D01*
X107121967Y-87520000D01*
X107146044Y-87764455D01*
X107217348Y-87999515D01*
X107333141Y-88216148D01*
X107488972Y-88406028D01*
X107678852Y-88561859D01*
X107895485Y-88677652D01*
X108130545Y-88748956D01*
X108313747Y-88767000D01*
X108886253Y-88767000D01*
X109069455Y-88748956D01*
X109304515Y-88677652D01*
X109521148Y-88561859D01*
X109711028Y-88406028D01*
X109866859Y-88216148D01*
X109869449Y-88211302D01*
X113036723Y-88211302D01*
X114096149Y-89270729D01*
X114111079Y-89288921D01*
X114129270Y-89303850D01*
X114129272Y-89303852D01*
X114181720Y-89346895D01*
X114183711Y-89348529D01*
X114266577Y-89392822D01*
X114356492Y-89420097D01*
X114426577Y-89427000D01*
X114426585Y-89427000D01*
X114450000Y-89429306D01*
X114473415Y-89427000D01*
X115961657Y-89427000D01*
X115962293Y-89429098D01*
X115990715Y-89497715D01*
X115995336Y-89506360D01*
X116036602Y-89568115D01*
X116042820Y-89575691D01*
X116046275Y-89579146D01*
X116042421Y-89583000D01*
X109983415Y-89583000D01*
X109982652Y-89580485D01*
X109866859Y-89363852D01*
X109711028Y-89173972D01*
X109521148Y-89018141D01*
X109304515Y-88902348D01*
X109069455Y-88831044D01*
X108886253Y-88813000D01*
X108313747Y-88813000D01*
X108130545Y-88831044D01*
X107895485Y-88902348D01*
X107678852Y-89018141D01*
X107488972Y-89173972D01*
X107333141Y-89363852D01*
X107217348Y-89580485D01*
X107146044Y-89815545D01*
X107121967Y-90060000D01*
X107146044Y-90304455D01*
X107217348Y-90539515D01*
X107333141Y-90756148D01*
X107488972Y-90946028D01*
X107678852Y-91101859D01*
X107895485Y-91217652D01*
X108130545Y-91288956D01*
X108313747Y-91307000D01*
X108886253Y-91307000D01*
X109069455Y-91288956D01*
X109304515Y-91217652D01*
X109521148Y-91101859D01*
X109711028Y-90946028D01*
X109866859Y-90756148D01*
X109982652Y-90539515D01*
X109983415Y-90537000D01*
X116135028Y-90537000D01*
X116152859Y-90626643D01*
X116211431Y-90768048D01*
X116296464Y-90895309D01*
X116404691Y-91003536D01*
X116531952Y-91088569D01*
X116606127Y-91119293D01*
X116402421Y-91323000D01*
X114023415Y-91323000D01*
X114000000Y-91320694D01*
X113976585Y-91323000D01*
X113976577Y-91323000D01*
X113906492Y-91329903D01*
X113816577Y-91357178D01*
X113733711Y-91401471D01*
X113661079Y-91461079D01*
X113646149Y-91479271D01*
X113002421Y-92123000D01*
X110073824Y-92123000D01*
X110073824Y-91979999D01*
X110061741Y-91857322D01*
X110025958Y-91739359D01*
X109967848Y-91630644D01*
X109889646Y-91535354D01*
X109794356Y-91457152D01*
X109685641Y-91399042D01*
X109567678Y-91363259D01*
X109445001Y-91351176D01*
X107754999Y-91351176D01*
X107632322Y-91363259D01*
X107514359Y-91399042D01*
X107405644Y-91457152D01*
X107310354Y-91535354D01*
X107232152Y-91630644D01*
X107174042Y-91739359D01*
X107138259Y-91857322D01*
X107126176Y-91979999D01*
X107126176Y-93220001D01*
X107138259Y-93342678D01*
X107174042Y-93460641D01*
X107232152Y-93569356D01*
X107310354Y-93664646D01*
X107405644Y-93742848D01*
X107514359Y-93800958D01*
X107632322Y-93836741D01*
X107754999Y-93848824D01*
X109445001Y-93848824D01*
X109567678Y-93836741D01*
X109685641Y-93800958D01*
X109794356Y-93742848D01*
X109889646Y-93664646D01*
X109967848Y-93569356D01*
X110025958Y-93460641D01*
X110061741Y-93342678D01*
X110073824Y-93220001D01*
X110073824Y-93077000D01*
X113176585Y-93077000D01*
X113200000Y-93079306D01*
X113223415Y-93077000D01*
X113223423Y-93077000D01*
X113293508Y-93070097D01*
X113383423Y-93042822D01*
X113466289Y-92998529D01*
X113538921Y-92938921D01*
X113553855Y-92920724D01*
X114197580Y-92277000D01*
X116576585Y-92277000D01*
X116600000Y-92279306D01*
X116623415Y-92277000D01*
X116623423Y-92277000D01*
X116693508Y-92270097D01*
X116783423Y-92242822D01*
X116866289Y-92198529D01*
X116938921Y-92138921D01*
X116953855Y-92120724D01*
X117941729Y-91132851D01*
X117959921Y-91117921D01*
X118019529Y-91045289D01*
X118063822Y-90962423D01*
X118091097Y-90872508D01*
X118098000Y-90802423D01*
X118098000Y-90802416D01*
X118100306Y-90779001D01*
X118098000Y-90755586D01*
X118098000Y-89727497D01*
X118108140Y-89726999D01*
X118117895Y-89726038D01*
X118190719Y-89711552D01*
X118200098Y-89708707D01*
X118268715Y-89680285D01*
X118277360Y-89675664D01*
X118339115Y-89634398D01*
X118346691Y-89628180D01*
X118399180Y-89575691D01*
X118405398Y-89568115D01*
X118446664Y-89506360D01*
X118451285Y-89497715D01*
X118479707Y-89429098D01*
X118482552Y-89419719D01*
X118497038Y-89346895D01*
X118497999Y-89337140D01*
X118499824Y-89300000D01*
X118499824Y-88778824D01*
X119021000Y-88778824D01*
X119058140Y-88776999D01*
X119067895Y-88776038D01*
X119140719Y-88761552D01*
X119150098Y-88758707D01*
X119218715Y-88730285D01*
X119227360Y-88725664D01*
X119289115Y-88684398D01*
X119296691Y-88678180D01*
X119349180Y-88625691D01*
X119355398Y-88618115D01*
X119396664Y-88556360D01*
X119401285Y-88547715D01*
X119429707Y-88479098D01*
X119432552Y-88469719D01*
X119447038Y-88396895D01*
X119447999Y-88387140D01*
X119448497Y-88377000D01*
X121102421Y-88377000D01*
X121132362Y-88406941D01*
X121132131Y-88407131D01*
X121085019Y-88464537D01*
X121050012Y-88530030D01*
X121028455Y-88601095D01*
X121021176Y-88675000D01*
X121021176Y-91115000D01*
X121028455Y-91188905D01*
X121050012Y-91259970D01*
X121085019Y-91325463D01*
X121132131Y-91382869D01*
X121189537Y-91429981D01*
X121255030Y-91464988D01*
X121326095Y-91486545D01*
X121400000Y-91493824D01*
X122520000Y-91493824D01*
X122593905Y-91486545D01*
X122664970Y-91464988D01*
X122730463Y-91429981D01*
X122787869Y-91382869D01*
X122834981Y-91325463D01*
X122869988Y-91259970D01*
X122891545Y-91188905D01*
X122898824Y-91115000D01*
X122898824Y-88677000D01*
X123402421Y-88677000D01*
X123561176Y-88835755D01*
X123561176Y-91115000D01*
X123568455Y-91188905D01*
X123590012Y-91259970D01*
X123625019Y-91325463D01*
X123672131Y-91382869D01*
X123729537Y-91429981D01*
X123795030Y-91464988D01*
X123866095Y-91486545D01*
X123940000Y-91493824D01*
X125060000Y-91493824D01*
X125133905Y-91486545D01*
X125204970Y-91464988D01*
X125270463Y-91429981D01*
X125327869Y-91382869D01*
X125374981Y-91325463D01*
X125409988Y-91259970D01*
X125431545Y-91188905D01*
X125438824Y-91115000D01*
X125438824Y-88675000D01*
X125431545Y-88601095D01*
X125424236Y-88577000D01*
X126115764Y-88577000D01*
X126108455Y-88601095D01*
X126101176Y-88675000D01*
X126101176Y-91115000D01*
X126108455Y-91188905D01*
X126130012Y-91259970D01*
X126165019Y-91325463D01*
X126212131Y-91382869D01*
X126269537Y-91429981D01*
X126335030Y-91464988D01*
X126406095Y-91486545D01*
X126480000Y-91493824D01*
X127600000Y-91493824D01*
X127673905Y-91486545D01*
X127744970Y-91464988D01*
X127810463Y-91429981D01*
X127867869Y-91382869D01*
X127914981Y-91325463D01*
X127949988Y-91259970D01*
X127971545Y-91188905D01*
X127978824Y-91115000D01*
X127978824Y-88675000D01*
X127971545Y-88601095D01*
X127949988Y-88530030D01*
X127914981Y-88464537D01*
X127867869Y-88407131D01*
X127810463Y-88360019D01*
X127744970Y-88325012D01*
X127673905Y-88303455D01*
X127600000Y-88296176D01*
X127270756Y-88296176D01*
X126753855Y-87779276D01*
X126738921Y-87761079D01*
X126666289Y-87701471D01*
X126583423Y-87657178D01*
X126493508Y-87629903D01*
X126423423Y-87623000D01*
X126423415Y-87623000D01*
X126400000Y-87620694D01*
X126376585Y-87623000D01*
X124697579Y-87623000D01*
X124553855Y-87479276D01*
X124538921Y-87461079D01*
X124466289Y-87401471D01*
X124383423Y-87357178D01*
X124293508Y-87329903D01*
X124223423Y-87323000D01*
X124223415Y-87323000D01*
X124200000Y-87320694D01*
X124176585Y-87323000D01*
X122597580Y-87323000D01*
X122053855Y-86779276D01*
X122038921Y-86761079D01*
X121966289Y-86701471D01*
X121883423Y-86657178D01*
X121793508Y-86629903D01*
X121723423Y-86623000D01*
X121723415Y-86623000D01*
X121700000Y-86620694D01*
X121676585Y-86623000D01*
X119951579Y-86623000D01*
X120597580Y-85977000D01*
X122176585Y-85977000D01*
X122200000Y-85979306D01*
X122223415Y-85977000D01*
X122223423Y-85977000D01*
X122293508Y-85970097D01*
X122383423Y-85942822D01*
X122466289Y-85898529D01*
X122538921Y-85838921D01*
X122553855Y-85820724D01*
X123020729Y-85353851D01*
X123038921Y-85338921D01*
X123057259Y-85316577D01*
X123098529Y-85266289D01*
X123142822Y-85183423D01*
X123170097Y-85093508D01*
X123171496Y-85079306D01*
X123177000Y-85023423D01*
X123177000Y-85023415D01*
X123179306Y-85000000D01*
X123177000Y-84976585D01*
X123177000Y-84115770D01*
X123195309Y-84103536D01*
X123303536Y-83995309D01*
X123388569Y-83868048D01*
X123447141Y-83726643D01*
X123477000Y-83576528D01*
X123477000Y-83566179D01*
X123496464Y-83595309D01*
X123604691Y-83703536D01*
X123731952Y-83788569D01*
X123873357Y-83847141D01*
X124023472Y-83877000D01*
X124176528Y-83877000D01*
X124326643Y-83847141D01*
X124468048Y-83788569D01*
X124595309Y-83703536D01*
X124703536Y-83595309D01*
X124788569Y-83468048D01*
X124821176Y-83389328D01*
X124821176Y-83875001D01*
X124833259Y-83997678D01*
X124869042Y-84115641D01*
X124927152Y-84224356D01*
X125005354Y-84319646D01*
X125100644Y-84397848D01*
X125209359Y-84455958D01*
X125327322Y-84491741D01*
X125449999Y-84503824D01*
X126350001Y-84503824D01*
X126472678Y-84491741D01*
X126590641Y-84455958D01*
X126699356Y-84397848D01*
X126794646Y-84319646D01*
X126872848Y-84224356D01*
X126930958Y-84115641D01*
X126966741Y-83997678D01*
X126978824Y-83875001D01*
X126978824Y-81724999D01*
X126966741Y-81602322D01*
X126930958Y-81484359D01*
X126872848Y-81375644D01*
X126794646Y-81280354D01*
X126699356Y-81202152D01*
X126590641Y-81144042D01*
X126472678Y-81108259D01*
X126350001Y-81096176D01*
X125449999Y-81096176D01*
X125327322Y-81108259D01*
X125209359Y-81144042D01*
X125100644Y-81202152D01*
X125005354Y-81280354D01*
X124927152Y-81375644D01*
X124869042Y-81484359D01*
X124833259Y-81602322D01*
X124828761Y-81647990D01*
X123796877Y-81647990D01*
X123847141Y-81526643D01*
X123877000Y-81376528D01*
X123877000Y-81223472D01*
X123847141Y-81073357D01*
X123788569Y-80931952D01*
X123703536Y-80804691D01*
X123595309Y-80696464D01*
X123577000Y-80684230D01*
X123577000Y-80597579D01*
X123697580Y-80477000D01*
X125763963Y-80477000D01*
X125818790Y-80559055D01*
X125940945Y-80681210D01*
X126084585Y-80777187D01*
X126244189Y-80843297D01*
X126413623Y-80877000D01*
X126586377Y-80877000D01*
X126755811Y-80843297D01*
X126915415Y-80777187D01*
X127059055Y-80681210D01*
X127181210Y-80559055D01*
X127277187Y-80415415D01*
X127343297Y-80255811D01*
X127377000Y-80086377D01*
X127377000Y-79913623D01*
X127343297Y-79744189D01*
X127277187Y-79584585D01*
X127181210Y-79440945D01*
X127059055Y-79318790D01*
X126915415Y-79222813D01*
X126755811Y-79156703D01*
X126586377Y-79123000D01*
X126413623Y-79123000D01*
X126244189Y-79156703D01*
X126084585Y-79222813D01*
X125940945Y-79318790D01*
X125818790Y-79440945D01*
X125763963Y-79523000D01*
X125075845Y-79523000D01*
X125103536Y-79495309D01*
X125188569Y-79368048D01*
X125247141Y-79226643D01*
X125277000Y-79076528D01*
X125277000Y-78923472D01*
X125247141Y-78773357D01*
X125188569Y-78631952D01*
X125103536Y-78504691D01*
X124995309Y-78396464D01*
X124868048Y-78311431D01*
X124726643Y-78252859D01*
X124576528Y-78223000D01*
X124423472Y-78223000D01*
X124273357Y-78252859D01*
X124131952Y-78311431D01*
X124004691Y-78396464D01*
X123896464Y-78504691D01*
X123850821Y-78573000D01*
X122928824Y-78573000D01*
X122928824Y-78537500D01*
X122920344Y-78451402D01*
X122914186Y-78431103D01*
X124377446Y-76967845D01*
X124423472Y-76977000D01*
X124576528Y-76977000D01*
X124726643Y-76947141D01*
X124868048Y-76888569D01*
X124995309Y-76803536D01*
X125103536Y-76695309D01*
X125188569Y-76568048D01*
X125247141Y-76426643D01*
X125277000Y-76276528D01*
X125277000Y-76123472D01*
X125247141Y-75973357D01*
X125188569Y-75831952D01*
X125103536Y-75704691D01*
X124995309Y-75596464D01*
X124868048Y-75511431D01*
X124726643Y-75452859D01*
X124576528Y-75423000D01*
X124423472Y-75423000D01*
X124273357Y-75452859D01*
X124131952Y-75511431D01*
X124004691Y-75596464D01*
X123896464Y-75704691D01*
X123811431Y-75831952D01*
X123752859Y-75973357D01*
X123723000Y-76123472D01*
X123723000Y-76131709D01*
X121777078Y-78077633D01*
X121746691Y-78080626D01*
X121707479Y-78092521D01*
X121719374Y-78053309D01*
X121727000Y-77975880D01*
X121727000Y-77218289D01*
X125054339Y-73890951D01*
X125074448Y-73874448D01*
X125140304Y-73794202D01*
X125189239Y-73702650D01*
X125219374Y-73603310D01*
X125227000Y-73525881D01*
X125227000Y-73525879D01*
X125229549Y-73500001D01*
X125227000Y-73474123D01*
X125227000Y-73071845D01*
X125303536Y-72995309D01*
X125388569Y-72868048D01*
X125447141Y-72726643D01*
X125477000Y-72576528D01*
X125477000Y-72423472D01*
X125447141Y-72273357D01*
X125388569Y-72131952D01*
X125303536Y-72004691D01*
X125195309Y-71896464D01*
X125068048Y-71811431D01*
X124926643Y-71752859D01*
X124776528Y-71723000D01*
X124623472Y-71723000D01*
X124473357Y-71752859D01*
X124331952Y-71811431D01*
X124204691Y-71896464D01*
X124096464Y-72004691D01*
X124011431Y-72131952D01*
X123952859Y-72273357D01*
X123923000Y-72423472D01*
X123923000Y-72576528D01*
X123952859Y-72726643D01*
X124011431Y-72868048D01*
X124096464Y-72995309D01*
X124173000Y-73071845D01*
X124173000Y-73281710D01*
X123652817Y-73801893D01*
X123647141Y-73773357D01*
X123588569Y-73631952D01*
X123503536Y-73504691D01*
X123395309Y-73396464D01*
X123268048Y-73311431D01*
X123243873Y-73301417D01*
X123254339Y-73290951D01*
X123274448Y-73274448D01*
X123340304Y-73194202D01*
X123389239Y-73102650D01*
X123419374Y-73003310D01*
X123421978Y-72976867D01*
X123503536Y-72895309D01*
X123588569Y-72768048D01*
X123647141Y-72626643D01*
X123677000Y-72476528D01*
X123677000Y-72323472D01*
X123647141Y-72173357D01*
X123588569Y-72031952D01*
X123503536Y-71904691D01*
X123395309Y-71796464D01*
X123268048Y-71711431D01*
X123126643Y-71652859D01*
X122976528Y-71623000D01*
X122823472Y-71623000D01*
X122673357Y-71652859D01*
X122531952Y-71711431D01*
X122404691Y-71796464D01*
X122296464Y-71904691D01*
X122211431Y-72031952D01*
X122152859Y-72173357D01*
X122123000Y-72323472D01*
X122123000Y-72476528D01*
X122152859Y-72626643D01*
X122211431Y-72768048D01*
X122241564Y-72813146D01*
X121592802Y-73461909D01*
X121603824Y-73350002D01*
X121603824Y-70449998D01*
X121591741Y-70327321D01*
X121555958Y-70209358D01*
X121497848Y-70100643D01*
X121419646Y-70005354D01*
X121324357Y-69927152D01*
X121215642Y-69869042D01*
X121097679Y-69833259D01*
X120975002Y-69821176D01*
X119899998Y-69821176D01*
X119777321Y-69833259D01*
X119659358Y-69869042D01*
X119550643Y-69927152D01*
X119455354Y-70005354D01*
X119377152Y-70100643D01*
X119319042Y-70209358D01*
X119283259Y-70327321D01*
X119273338Y-70428048D01*
X117869479Y-69024189D01*
X117877000Y-68986377D01*
X117877000Y-68813623D01*
X117843297Y-68644189D01*
X117777187Y-68484585D01*
X117681210Y-68340945D01*
X117559055Y-68218790D01*
X117415415Y-68122813D01*
X117255811Y-68056703D01*
X117086377Y-68023000D01*
X116913623Y-68023000D01*
X116744189Y-68056703D01*
X116584585Y-68122813D01*
X116440945Y-68218790D01*
X116318790Y-68340945D01*
X116222813Y-68484585D01*
X116156703Y-68644189D01*
X116123000Y-68813623D01*
X116123000Y-68986377D01*
X116156703Y-69155811D01*
X116222813Y-69315415D01*
X116318790Y-69459055D01*
X116440945Y-69581210D01*
X116584585Y-69677187D01*
X116744189Y-69743297D01*
X116913623Y-69777000D01*
X117086377Y-69777000D01*
X117124189Y-69769479D01*
X119271176Y-71916467D01*
X119271176Y-73350002D01*
X119283259Y-73472679D01*
X119303920Y-73540789D01*
X118345662Y-74499047D01*
X118325553Y-74515550D01*
X118272147Y-74580626D01*
X118259696Y-74595797D01*
X118210761Y-74687349D01*
X118180626Y-74786689D01*
X118170451Y-74889998D01*
X118173000Y-74915879D01*
X118173000Y-75274119D01*
X118170451Y-75300000D01*
X118178910Y-75385882D01*
X118180626Y-75403309D01*
X118210761Y-75502649D01*
X118259696Y-75594202D01*
X118325552Y-75674448D01*
X118345666Y-75690955D01*
X118673001Y-76018291D01*
X118673000Y-77649119D01*
X118673000Y-77975879D01*
X118680626Y-78053308D01*
X118695359Y-78101875D01*
X118637500Y-78096176D01*
X117912500Y-78096176D01*
X117906684Y-78096749D01*
X117402000Y-77592066D01*
X117402000Y-76996845D01*
X117503536Y-76895309D01*
X117588569Y-76768048D01*
X117647141Y-76626643D01*
X117677000Y-76476528D01*
X117677000Y-76323472D01*
X117647141Y-76173357D01*
X117588569Y-76031952D01*
X117503536Y-75904691D01*
X117395309Y-75796464D01*
X117268048Y-75711431D01*
X117126643Y-75652859D01*
X116976528Y-75623000D01*
X116823472Y-75623000D01*
X116673357Y-75652859D01*
X116627000Y-75672061D01*
X116627000Y-75125881D01*
X116629549Y-75100000D01*
X116619374Y-74996690D01*
X116602041Y-74939551D01*
X116589239Y-74897350D01*
X116540304Y-74805798D01*
X116474448Y-74725552D01*
X116454344Y-74709053D01*
X115724114Y-73978824D01*
X116700002Y-73978824D01*
X116822679Y-73966741D01*
X116940642Y-73930958D01*
X117049357Y-73872848D01*
X117144646Y-73794646D01*
X117222848Y-73699357D01*
X117280958Y-73590642D01*
X117316741Y-73472679D01*
X117328824Y-73350002D01*
X117328824Y-70449998D01*
X117316741Y-70327321D01*
X117280958Y-70209358D01*
X117222848Y-70100643D01*
X117144646Y-70005354D01*
X117049357Y-69927152D01*
X116940642Y-69869042D01*
X116822679Y-69833259D01*
X116700002Y-69821176D01*
X115624998Y-69821176D01*
X115502321Y-69833259D01*
X115384358Y-69869042D01*
X115275643Y-69927152D01*
X115180354Y-70005354D01*
X115102152Y-70100643D01*
X115044042Y-70209358D01*
X115008259Y-70327321D01*
X114996176Y-70449998D01*
X114996176Y-72173955D01*
X114730034Y-72440098D01*
X114690642Y-72419042D01*
X114572679Y-72383259D01*
X114450002Y-72371176D01*
X111549998Y-72371176D01*
X111427321Y-72383259D01*
X111309358Y-72419042D01*
X111200643Y-72477152D01*
X111105354Y-72555354D01*
X111027152Y-72650643D01*
X110969042Y-72759358D01*
X110933259Y-72877321D01*
X110930385Y-72906500D01*
X109868490Y-72906500D01*
X109837500Y-72903448D01*
X109806509Y-72906500D01*
X109806502Y-72906500D01*
X109713802Y-72915630D01*
X109594858Y-72951711D01*
X109485239Y-73010304D01*
X109425054Y-73059697D01*
X109389157Y-73089157D01*
X109369399Y-73113232D01*
X109061455Y-73421176D01*
X107899999Y-73421176D01*
X107777322Y-73433259D01*
X107659359Y-73469042D01*
X107550644Y-73527152D01*
X107455354Y-73605354D01*
X107377152Y-73700644D01*
X107353977Y-73744000D01*
X106936367Y-73744000D01*
X106906000Y-73713632D01*
X106906000Y-71405987D01*
X106909052Y-71374999D01*
X106906000Y-71344011D01*
X106906000Y-71344002D01*
X106896870Y-71251302D01*
X106860789Y-71132358D01*
X106802196Y-71022739D01*
X106723343Y-70926657D01*
X106699269Y-70906900D01*
X101459000Y-65666632D01*
X101459000Y-61735000D01*
X103400000Y-61735000D01*
X103462242Y-61731942D01*
X103657332Y-61712727D01*
X103779419Y-61688443D01*
X103967012Y-61631538D01*
X104082020Y-61583900D01*
X104254907Y-61491490D01*
X104358409Y-61422332D01*
X104509946Y-61297969D01*
X104597969Y-61209946D01*
X104722332Y-61058409D01*
X104791490Y-60954907D01*
X104883900Y-60782020D01*
X104931538Y-60667012D01*
X104988443Y-60479419D01*
X105012727Y-60357332D01*
X105031942Y-60162242D01*
X105035000Y-60100000D01*
X105035000Y-57731194D01*
X105045027Y-57629394D01*
X105065623Y-57561494D01*
X105099069Y-57498923D01*
X105144078Y-57444078D01*
X105198923Y-57399069D01*
X105261494Y-57365623D01*
X105329394Y-57345027D01*
X105431194Y-57335000D01*
X144868806Y-57335000D01*
X144970606Y-57345027D01*
G37*
G04 #@! TD.AperFunction*
D32*
X113723000Y-76323472D02*
X113723000Y-76476528D01*
X113752859Y-76626643D01*
X113811431Y-76768048D01*
X113896464Y-76895309D01*
X114004691Y-77003536D01*
X114131952Y-77088569D01*
X114273357Y-77147141D01*
X114423472Y-77177000D01*
X114531711Y-77177000D01*
X114947990Y-77593280D01*
X114947990Y-77727993D01*
X114945441Y-77753874D01*
X114949326Y-77793316D01*
X114955616Y-77857183D01*
X114985751Y-77956523D01*
X115034686Y-78048076D01*
X115100542Y-78128322D01*
X115120656Y-78144829D01*
X116930165Y-79954339D01*
X116946668Y-79974448D01*
X117026914Y-80040304D01*
X117118466Y-80089239D01*
X117217806Y-80119374D01*
X117295235Y-80127000D01*
X117295237Y-80127000D01*
X117321115Y-80129549D01*
X117346993Y-80127000D01*
X117752744Y-80127000D01*
X117743613Y-80129770D01*
X117667314Y-80170553D01*
X117600437Y-80225437D01*
X117545553Y-80292314D01*
X117504770Y-80368613D01*
X117479656Y-80451402D01*
X117471176Y-80537500D01*
X117471176Y-80662500D01*
X117479656Y-80748598D01*
X117504770Y-80831387D01*
X117545553Y-80907686D01*
X117600437Y-80974563D01*
X117667314Y-81029447D01*
X117743613Y-81070230D01*
X117826402Y-81095344D01*
X117912500Y-81103824D01*
X118637500Y-81103824D01*
X118702587Y-81097413D01*
X118696176Y-81162500D01*
X118696176Y-81318889D01*
X118406955Y-81608110D01*
X118395309Y-81596464D01*
X118268048Y-81511431D01*
X118126643Y-81452859D01*
X117976528Y-81423000D01*
X117823472Y-81423000D01*
X117801875Y-81427296D01*
X117553855Y-81179276D01*
X117538921Y-81161079D01*
X117466289Y-81101471D01*
X117383423Y-81057178D01*
X117293508Y-81029903D01*
X117223423Y-81023000D01*
X117223415Y-81023000D01*
X117200000Y-81020694D01*
X117176585Y-81023000D01*
X117036037Y-81023000D01*
X116981210Y-80940945D01*
X116859055Y-80818790D01*
X116715415Y-80722813D01*
X116555811Y-80656703D01*
X116386377Y-80623000D01*
X116213623Y-80623000D01*
X116044189Y-80656703D01*
X115884585Y-80722813D01*
X115740945Y-80818790D01*
X115618790Y-80940945D01*
X115522813Y-81084585D01*
X115456703Y-81244189D01*
X115423000Y-81413623D01*
X115423000Y-81586377D01*
X115456703Y-81755811D01*
X115522813Y-81915415D01*
X115618790Y-82059055D01*
X115740945Y-82181210D01*
X115884585Y-82277187D01*
X116044189Y-82343297D01*
X116213623Y-82377000D01*
X116386377Y-82377000D01*
X116555811Y-82343297D01*
X116715415Y-82277187D01*
X116859055Y-82181210D01*
X116981210Y-82059055D01*
X117022572Y-81997152D01*
X117127296Y-82101875D01*
X117123000Y-82123472D01*
X117123000Y-82276528D01*
X117152859Y-82426643D01*
X117172061Y-82473000D01*
X115318291Y-82473000D01*
X112888817Y-80043528D01*
X112861191Y-79991843D01*
X112809492Y-79928847D01*
X112752000Y-79871355D01*
X112752000Y-79303824D01*
X113275000Y-79303824D01*
X113397677Y-79291741D01*
X113515641Y-79255958D01*
X113624356Y-79197848D01*
X113719646Y-79119646D01*
X113797848Y-79024356D01*
X113855958Y-78915641D01*
X113891741Y-78797677D01*
X113903824Y-78675000D01*
X113903824Y-77925000D01*
X113891741Y-77802323D01*
X113855958Y-77684359D01*
X113797848Y-77575644D01*
X113719646Y-77480354D01*
X113624356Y-77402152D01*
X113515641Y-77344042D01*
X113397677Y-77308259D01*
X113275000Y-77296176D01*
X111125000Y-77296176D01*
X111002323Y-77308259D01*
X110884359Y-77344042D01*
X110775644Y-77402152D01*
X110680354Y-77480354D01*
X110602152Y-77575644D01*
X110544042Y-77684359D01*
X110508259Y-77802323D01*
X110496176Y-77925000D01*
X110496176Y-78548000D01*
X110146845Y-78548000D01*
X110095309Y-78496464D01*
X109968048Y-78411431D01*
X109826643Y-78352859D01*
X109676528Y-78323000D01*
X109523472Y-78323000D01*
X109373357Y-78352859D01*
X109235623Y-78409910D01*
X109246545Y-78373905D01*
X109253824Y-78300000D01*
X109253824Y-78000000D01*
X109246545Y-77926095D01*
X109238629Y-77900000D01*
X109246545Y-77873905D01*
X109253824Y-77800000D01*
X109253824Y-77500000D01*
X109246545Y-77426095D01*
X109224988Y-77355030D01*
X109189981Y-77289537D01*
X109142869Y-77232131D01*
X109085463Y-77185019D01*
X109070461Y-77177000D01*
X109624119Y-77177000D01*
X109650000Y-77179549D01*
X109675881Y-77177000D01*
X109753310Y-77169374D01*
X109852650Y-77139239D01*
X109944202Y-77090304D01*
X110024448Y-77024448D01*
X110040955Y-77004334D01*
X110705230Y-76340061D01*
X110775644Y-76397848D01*
X110884359Y-76455958D01*
X111002323Y-76491741D01*
X111125000Y-76503824D01*
X113275000Y-76503824D01*
X113397677Y-76491741D01*
X113515641Y-76455958D01*
X113624356Y-76397848D01*
X113719646Y-76319646D01*
X113725077Y-76313028D01*
X113723000Y-76323472D01*
G04 #@! TA.AperFunction,Conductor*
D33*
G36*
X113723000Y-76323472D02*
G01*
X113723000Y-76476528D01*
X113752859Y-76626643D01*
X113811431Y-76768048D01*
X113896464Y-76895309D01*
X114004691Y-77003536D01*
X114131952Y-77088569D01*
X114273357Y-77147141D01*
X114423472Y-77177000D01*
X114531711Y-77177000D01*
X114947990Y-77593280D01*
X114947990Y-77727993D01*
X114945441Y-77753874D01*
X114949326Y-77793316D01*
X114955616Y-77857183D01*
X114985751Y-77956523D01*
X115034686Y-78048076D01*
X115100542Y-78128322D01*
X115120656Y-78144829D01*
X116930165Y-79954339D01*
X116946668Y-79974448D01*
X117026914Y-80040304D01*
X117118466Y-80089239D01*
X117217806Y-80119374D01*
X117295235Y-80127000D01*
X117295237Y-80127000D01*
X117321115Y-80129549D01*
X117346993Y-80127000D01*
X117752744Y-80127000D01*
X117743613Y-80129770D01*
X117667314Y-80170553D01*
X117600437Y-80225437D01*
X117545553Y-80292314D01*
X117504770Y-80368613D01*
X117479656Y-80451402D01*
X117471176Y-80537500D01*
X117471176Y-80662500D01*
X117479656Y-80748598D01*
X117504770Y-80831387D01*
X117545553Y-80907686D01*
X117600437Y-80974563D01*
X117667314Y-81029447D01*
X117743613Y-81070230D01*
X117826402Y-81095344D01*
X117912500Y-81103824D01*
X118637500Y-81103824D01*
X118702587Y-81097413D01*
X118696176Y-81162500D01*
X118696176Y-81318889D01*
X118406955Y-81608110D01*
X118395309Y-81596464D01*
X118268048Y-81511431D01*
X118126643Y-81452859D01*
X117976528Y-81423000D01*
X117823472Y-81423000D01*
X117801875Y-81427296D01*
X117553855Y-81179276D01*
X117538921Y-81161079D01*
X117466289Y-81101471D01*
X117383423Y-81057178D01*
X117293508Y-81029903D01*
X117223423Y-81023000D01*
X117223415Y-81023000D01*
X117200000Y-81020694D01*
X117176585Y-81023000D01*
X117036037Y-81023000D01*
X116981210Y-80940945D01*
X116859055Y-80818790D01*
X116715415Y-80722813D01*
X116555811Y-80656703D01*
X116386377Y-80623000D01*
X116213623Y-80623000D01*
X116044189Y-80656703D01*
X115884585Y-80722813D01*
X115740945Y-80818790D01*
X115618790Y-80940945D01*
X115522813Y-81084585D01*
X115456703Y-81244189D01*
X115423000Y-81413623D01*
X115423000Y-81586377D01*
X115456703Y-81755811D01*
X115522813Y-81915415D01*
X115618790Y-82059055D01*
X115740945Y-82181210D01*
X115884585Y-82277187D01*
X116044189Y-82343297D01*
X116213623Y-82377000D01*
X116386377Y-82377000D01*
X116555811Y-82343297D01*
X116715415Y-82277187D01*
X116859055Y-82181210D01*
X116981210Y-82059055D01*
X117022572Y-81997152D01*
X117127296Y-82101875D01*
X117123000Y-82123472D01*
X117123000Y-82276528D01*
X117152859Y-82426643D01*
X117172061Y-82473000D01*
X115318291Y-82473000D01*
X112888817Y-80043528D01*
X112861191Y-79991843D01*
X112809492Y-79928847D01*
X112752000Y-79871355D01*
X112752000Y-79303824D01*
X113275000Y-79303824D01*
X113397677Y-79291741D01*
X113515641Y-79255958D01*
X113624356Y-79197848D01*
X113719646Y-79119646D01*
X113797848Y-79024356D01*
X113855958Y-78915641D01*
X113891741Y-78797677D01*
X113903824Y-78675000D01*
X113903824Y-77925000D01*
X113891741Y-77802323D01*
X113855958Y-77684359D01*
X113797848Y-77575644D01*
X113719646Y-77480354D01*
X113624356Y-77402152D01*
X113515641Y-77344042D01*
X113397677Y-77308259D01*
X113275000Y-77296176D01*
X111125000Y-77296176D01*
X111002323Y-77308259D01*
X110884359Y-77344042D01*
X110775644Y-77402152D01*
X110680354Y-77480354D01*
X110602152Y-77575644D01*
X110544042Y-77684359D01*
X110508259Y-77802323D01*
X110496176Y-77925000D01*
X110496176Y-78548000D01*
X110146845Y-78548000D01*
X110095309Y-78496464D01*
X109968048Y-78411431D01*
X109826643Y-78352859D01*
X109676528Y-78323000D01*
X109523472Y-78323000D01*
X109373357Y-78352859D01*
X109235623Y-78409910D01*
X109246545Y-78373905D01*
X109253824Y-78300000D01*
X109253824Y-78000000D01*
X109246545Y-77926095D01*
X109238629Y-77900000D01*
X109246545Y-77873905D01*
X109253824Y-77800000D01*
X109253824Y-77500000D01*
X109246545Y-77426095D01*
X109224988Y-77355030D01*
X109189981Y-77289537D01*
X109142869Y-77232131D01*
X109085463Y-77185019D01*
X109070461Y-77177000D01*
X109624119Y-77177000D01*
X109650000Y-77179549D01*
X109675881Y-77177000D01*
X109753310Y-77169374D01*
X109852650Y-77139239D01*
X109944202Y-77090304D01*
X110024448Y-77024448D01*
X110040955Y-77004334D01*
X110705230Y-76340061D01*
X110775644Y-76397848D01*
X110884359Y-76455958D01*
X111002323Y-76491741D01*
X111125000Y-76503824D01*
X113275000Y-76503824D01*
X113397677Y-76491741D01*
X113515641Y-76455958D01*
X113624356Y-76397848D01*
X113719646Y-76319646D01*
X113725077Y-76313028D01*
X113723000Y-76323472D01*
G37*
G04 #@! TD.AperFunction*
D32*
X120968613Y-78445230D02*
X121051402Y-78470344D01*
X121137500Y-78478824D01*
X121192649Y-78478824D01*
X121200000Y-78479548D01*
X121207351Y-78478824D01*
X121262500Y-78478824D01*
X121327587Y-78472413D01*
X121321176Y-78537500D01*
X121321176Y-78592649D01*
X121320452Y-78600000D01*
X121321176Y-78607351D01*
X121321176Y-78662500D01*
X121329656Y-78748598D01*
X121354770Y-78831387D01*
X121364719Y-78850000D01*
X121354770Y-78868613D01*
X121329656Y-78951402D01*
X121321176Y-79037500D01*
X121321176Y-79092649D01*
X121320452Y-79100000D01*
X121321176Y-79107351D01*
X121321176Y-79162500D01*
X121329656Y-79248598D01*
X121354770Y-79331387D01*
X121395553Y-79407686D01*
X121450437Y-79474563D01*
X121517314Y-79529447D01*
X121593613Y-79570230D01*
X121635638Y-79582978D01*
X121647351Y-79589239D01*
X121692837Y-79603037D01*
X121676402Y-79604656D01*
X121593613Y-79629770D01*
X121517314Y-79670553D01*
X121450437Y-79725437D01*
X121395553Y-79792314D01*
X121354770Y-79868613D01*
X121329656Y-79951402D01*
X121321176Y-80037500D01*
X121321176Y-80162500D01*
X121329656Y-80248598D01*
X121354770Y-80331387D01*
X121364719Y-80350000D01*
X121354770Y-80368613D01*
X121329656Y-80451402D01*
X121321176Y-80537500D01*
X121321176Y-80662500D01*
X121327587Y-80727587D01*
X121262500Y-80721176D01*
X121137500Y-80721176D01*
X121051402Y-80729656D01*
X120968613Y-80754770D01*
X120950000Y-80764719D01*
X120931387Y-80754770D01*
X120848598Y-80729656D01*
X120762500Y-80721176D01*
X120637500Y-80721176D01*
X120551402Y-80729656D01*
X120468613Y-80754770D01*
X120450000Y-80764719D01*
X120431387Y-80754770D01*
X120348598Y-80729656D01*
X120262500Y-80721176D01*
X120137500Y-80721176D01*
X120051402Y-80729656D01*
X119968613Y-80754770D01*
X119950000Y-80764719D01*
X119931387Y-80754770D01*
X119848598Y-80729656D01*
X119762500Y-80721176D01*
X119707351Y-80721176D01*
X119700000Y-80720452D01*
X119692649Y-80721176D01*
X119637500Y-80721176D01*
X119551402Y-80729656D01*
X119468613Y-80754770D01*
X119450000Y-80764719D01*
X119431387Y-80754770D01*
X119348598Y-80729656D01*
X119262500Y-80721176D01*
X119137500Y-80721176D01*
X119072413Y-80727587D01*
X119078824Y-80662500D01*
X119078824Y-80537500D01*
X119070344Y-80451402D01*
X119045230Y-80368613D01*
X119004447Y-80292314D01*
X118949563Y-80225437D01*
X118882686Y-80170553D01*
X118806387Y-80129770D01*
X118723598Y-80104656D01*
X118676325Y-80100000D01*
X118723598Y-80095344D01*
X118806387Y-80070230D01*
X118882686Y-80029447D01*
X118949563Y-79974563D01*
X119004447Y-79907686D01*
X119045230Y-79831387D01*
X119070344Y-79748598D01*
X119078824Y-79662500D01*
X119078824Y-79537500D01*
X119070344Y-79451402D01*
X119045230Y-79368613D01*
X119035281Y-79350000D01*
X119045230Y-79331387D01*
X119070344Y-79248598D01*
X119078824Y-79162500D01*
X119078824Y-79037500D01*
X119070344Y-78951402D01*
X119045230Y-78868613D01*
X119035281Y-78850000D01*
X119045230Y-78831387D01*
X119070344Y-78748598D01*
X119078824Y-78662500D01*
X119078824Y-78537500D01*
X119072413Y-78472413D01*
X119137500Y-78478824D01*
X119192649Y-78478824D01*
X119200000Y-78479548D01*
X119207351Y-78478824D01*
X119262500Y-78478824D01*
X119348598Y-78470344D01*
X119431387Y-78445230D01*
X119450000Y-78435281D01*
X119468613Y-78445230D01*
X119551402Y-78470344D01*
X119637500Y-78478824D01*
X119692649Y-78478824D01*
X119700000Y-78479548D01*
X119707351Y-78478824D01*
X119762500Y-78478824D01*
X119848598Y-78470344D01*
X119931387Y-78445230D01*
X119950000Y-78435281D01*
X119968613Y-78445230D01*
X120051402Y-78470344D01*
X120137500Y-78478824D01*
X120192649Y-78478824D01*
X120200000Y-78479548D01*
X120207351Y-78478824D01*
X120262500Y-78478824D01*
X120348598Y-78470344D01*
X120431387Y-78445230D01*
X120450000Y-78435281D01*
X120468613Y-78445230D01*
X120551402Y-78470344D01*
X120637500Y-78478824D01*
X120692649Y-78478824D01*
X120700000Y-78479548D01*
X120707351Y-78478824D01*
X120762500Y-78478824D01*
X120848598Y-78470344D01*
X120931387Y-78445230D01*
X120950000Y-78435281D01*
X120968613Y-78445230D01*
G04 #@! TA.AperFunction,Conductor*
D33*
G36*
X120968613Y-78445230D02*
G01*
X121051402Y-78470344D01*
X121137500Y-78478824D01*
X121192649Y-78478824D01*
X121200000Y-78479548D01*
X121207351Y-78478824D01*
X121262500Y-78478824D01*
X121327587Y-78472413D01*
X121321176Y-78537500D01*
X121321176Y-78592649D01*
X121320452Y-78600000D01*
X121321176Y-78607351D01*
X121321176Y-78662500D01*
X121329656Y-78748598D01*
X121354770Y-78831387D01*
X121364719Y-78850000D01*
X121354770Y-78868613D01*
X121329656Y-78951402D01*
X121321176Y-79037500D01*
X121321176Y-79092649D01*
X121320452Y-79100000D01*
X121321176Y-79107351D01*
X121321176Y-79162500D01*
X121329656Y-79248598D01*
X121354770Y-79331387D01*
X121395553Y-79407686D01*
X121450437Y-79474563D01*
X121517314Y-79529447D01*
X121593613Y-79570230D01*
X121635638Y-79582978D01*
X121647351Y-79589239D01*
X121692837Y-79603037D01*
X121676402Y-79604656D01*
X121593613Y-79629770D01*
X121517314Y-79670553D01*
X121450437Y-79725437D01*
X121395553Y-79792314D01*
X121354770Y-79868613D01*
X121329656Y-79951402D01*
X121321176Y-80037500D01*
X121321176Y-80162500D01*
X121329656Y-80248598D01*
X121354770Y-80331387D01*
X121364719Y-80350000D01*
X121354770Y-80368613D01*
X121329656Y-80451402D01*
X121321176Y-80537500D01*
X121321176Y-80662500D01*
X121327587Y-80727587D01*
X121262500Y-80721176D01*
X121137500Y-80721176D01*
X121051402Y-80729656D01*
X120968613Y-80754770D01*
X120950000Y-80764719D01*
X120931387Y-80754770D01*
X120848598Y-80729656D01*
X120762500Y-80721176D01*
X120637500Y-80721176D01*
X120551402Y-80729656D01*
X120468613Y-80754770D01*
X120450000Y-80764719D01*
X120431387Y-80754770D01*
X120348598Y-80729656D01*
X120262500Y-80721176D01*
X120137500Y-80721176D01*
X120051402Y-80729656D01*
X119968613Y-80754770D01*
X119950000Y-80764719D01*
X119931387Y-80754770D01*
X119848598Y-80729656D01*
X119762500Y-80721176D01*
X119707351Y-80721176D01*
X119700000Y-80720452D01*
X119692649Y-80721176D01*
X119637500Y-80721176D01*
X119551402Y-80729656D01*
X119468613Y-80754770D01*
X119450000Y-80764719D01*
X119431387Y-80754770D01*
X119348598Y-80729656D01*
X119262500Y-80721176D01*
X119137500Y-80721176D01*
X119072413Y-80727587D01*
X119078824Y-80662500D01*
X119078824Y-80537500D01*
X119070344Y-80451402D01*
X119045230Y-80368613D01*
X119004447Y-80292314D01*
X118949563Y-80225437D01*
X118882686Y-80170553D01*
X118806387Y-80129770D01*
X118723598Y-80104656D01*
X118676325Y-80100000D01*
X118723598Y-80095344D01*
X118806387Y-80070230D01*
X118882686Y-80029447D01*
X118949563Y-79974563D01*
X119004447Y-79907686D01*
X119045230Y-79831387D01*
X119070344Y-79748598D01*
X119078824Y-79662500D01*
X119078824Y-79537500D01*
X119070344Y-79451402D01*
X119045230Y-79368613D01*
X119035281Y-79350000D01*
X119045230Y-79331387D01*
X119070344Y-79248598D01*
X119078824Y-79162500D01*
X119078824Y-79037500D01*
X119070344Y-78951402D01*
X119045230Y-78868613D01*
X119035281Y-78850000D01*
X119045230Y-78831387D01*
X119070344Y-78748598D01*
X119078824Y-78662500D01*
X119078824Y-78537500D01*
X119072413Y-78472413D01*
X119137500Y-78478824D01*
X119192649Y-78478824D01*
X119200000Y-78479548D01*
X119207351Y-78478824D01*
X119262500Y-78478824D01*
X119348598Y-78470344D01*
X119431387Y-78445230D01*
X119450000Y-78435281D01*
X119468613Y-78445230D01*
X119551402Y-78470344D01*
X119637500Y-78478824D01*
X119692649Y-78478824D01*
X119700000Y-78479548D01*
X119707351Y-78478824D01*
X119762500Y-78478824D01*
X119848598Y-78470344D01*
X119931387Y-78445230D01*
X119950000Y-78435281D01*
X119968613Y-78445230D01*
X120051402Y-78470344D01*
X120137500Y-78478824D01*
X120192649Y-78478824D01*
X120200000Y-78479548D01*
X120207351Y-78478824D01*
X120262500Y-78478824D01*
X120348598Y-78470344D01*
X120431387Y-78445230D01*
X120450000Y-78435281D01*
X120468613Y-78445230D01*
X120551402Y-78470344D01*
X120637500Y-78478824D01*
X120692649Y-78478824D01*
X120700000Y-78479548D01*
X120707351Y-78478824D01*
X120762500Y-78478824D01*
X120848598Y-78470344D01*
X120931387Y-78445230D01*
X120950000Y-78435281D01*
X120968613Y-78445230D01*
G37*
G04 #@! TD.AperFunction*
G04 #@! TD*
D32*
G04 #@! TO.N,VCC*
X174040001Y-54879955D02*
X173984672Y-54925362D01*
X173833850Y-55005978D01*
X173670189Y-55055624D01*
X173493766Y-55073000D01*
X159300000Y-55073000D01*
X159287552Y-55073612D01*
X159092462Y-55092827D01*
X159068044Y-55097683D01*
X158880451Y-55154588D01*
X158857450Y-55164116D01*
X158684563Y-55256526D01*
X158663862Y-55270358D01*
X158512325Y-55394721D01*
X158494721Y-55412325D01*
X158370358Y-55563862D01*
X158356526Y-55584563D01*
X158264116Y-55757450D01*
X158254588Y-55780451D01*
X158197683Y-55968044D01*
X158192827Y-55992462D01*
X158173612Y-56187552D01*
X158173000Y-56200000D01*
X158173000Y-61611031D01*
X158156186Y-61695824D01*
X158115330Y-61757207D01*
X158054143Y-61798354D01*
X157969433Y-61815571D01*
X149452800Y-61856093D01*
X149438233Y-61844138D01*
X149301860Y-61771246D01*
X149153887Y-61726359D01*
X149038561Y-61715000D01*
X149038553Y-61715000D01*
X149000000Y-61711203D01*
X148961447Y-61715000D01*
X146408880Y-61715000D01*
X146284602Y-61613564D01*
X146175507Y-61481193D01*
X146094422Y-61330036D01*
X146044483Y-61165932D01*
X146027000Y-60988970D01*
X146027000Y-57700000D01*
X146026388Y-57687552D01*
X146007173Y-57492462D01*
X146002317Y-57468044D01*
X145945412Y-57280451D01*
X145935884Y-57257450D01*
X145843474Y-57084563D01*
X145829642Y-57063862D01*
X145705279Y-56912325D01*
X145687675Y-56894721D01*
X145536138Y-56770358D01*
X145515437Y-56756526D01*
X145342550Y-56664116D01*
X145319549Y-56654588D01*
X145131956Y-56597683D01*
X145107538Y-56592827D01*
X144912448Y-56573612D01*
X144900000Y-56573000D01*
X105400000Y-56573000D01*
X105387552Y-56573612D01*
X105192462Y-56592827D01*
X105168044Y-56597683D01*
X104980451Y-56654588D01*
X104957450Y-56664116D01*
X104784563Y-56756526D01*
X104763862Y-56770358D01*
X104612325Y-56894721D01*
X104594721Y-56912325D01*
X104470358Y-57063862D01*
X104456526Y-57084563D01*
X104364116Y-57257450D01*
X104354588Y-57280451D01*
X104297683Y-57468044D01*
X104292827Y-57492462D01*
X104273612Y-57687552D01*
X104273000Y-57700000D01*
X104273000Y-60093766D01*
X104255624Y-60270189D01*
X104205978Y-60433850D01*
X104125362Y-60584672D01*
X104016870Y-60716870D01*
X103884672Y-60825362D01*
X103733850Y-60905978D01*
X103570189Y-60955624D01*
X103393766Y-60973000D01*
X89896326Y-60973000D01*
X89719825Y-60955610D01*
X89556121Y-60905931D01*
X89405254Y-60825256D01*
X89360000Y-60788098D01*
X89360000Y-47611716D01*
X157973000Y-47611716D01*
X157973000Y-48188284D01*
X158085482Y-48753775D01*
X158306126Y-49286455D01*
X158626450Y-49765854D01*
X159034146Y-50173550D01*
X159513545Y-50493874D01*
X160046225Y-50714518D01*
X160611716Y-50827000D01*
X161188284Y-50827000D01*
X161753775Y-50714518D01*
X162286455Y-50493874D01*
X162765854Y-50173550D01*
X163173550Y-49765854D01*
X163493874Y-49286455D01*
X163714518Y-48753775D01*
X163827000Y-48188284D01*
X163827000Y-47611716D01*
X163714518Y-47046225D01*
X163493874Y-46513545D01*
X163173550Y-46034146D01*
X162765854Y-45626450D01*
X162286455Y-45306126D01*
X161753775Y-45085482D01*
X161188284Y-44973000D01*
X160611716Y-44973000D01*
X160046225Y-45085482D01*
X159513545Y-45306126D01*
X159034146Y-45626450D01*
X158626450Y-46034146D01*
X158306126Y-46513545D01*
X158085482Y-47046225D01*
X157973000Y-47611716D01*
X89360000Y-47611716D01*
X89360000Y-43560000D01*
X174040001Y-43560000D01*
X174040001Y-54879955D01*
G04 #@! TA.AperFunction,Conductor*
D33*
G36*
X174040001Y-54879955D02*
G01*
X173984672Y-54925362D01*
X173833850Y-55005978D01*
X173670189Y-55055624D01*
X173493766Y-55073000D01*
X159300000Y-55073000D01*
X159287552Y-55073612D01*
X159092462Y-55092827D01*
X159068044Y-55097683D01*
X158880451Y-55154588D01*
X158857450Y-55164116D01*
X158684563Y-55256526D01*
X158663862Y-55270358D01*
X158512325Y-55394721D01*
X158494721Y-55412325D01*
X158370358Y-55563862D01*
X158356526Y-55584563D01*
X158264116Y-55757450D01*
X158254588Y-55780451D01*
X158197683Y-55968044D01*
X158192827Y-55992462D01*
X158173612Y-56187552D01*
X158173000Y-56200000D01*
X158173000Y-61611031D01*
X158156186Y-61695824D01*
X158115330Y-61757207D01*
X158054143Y-61798354D01*
X157969433Y-61815571D01*
X149452800Y-61856093D01*
X149438233Y-61844138D01*
X149301860Y-61771246D01*
X149153887Y-61726359D01*
X149038561Y-61715000D01*
X149038553Y-61715000D01*
X149000000Y-61711203D01*
X148961447Y-61715000D01*
X146408880Y-61715000D01*
X146284602Y-61613564D01*
X146175507Y-61481193D01*
X146094422Y-61330036D01*
X146044483Y-61165932D01*
X146027000Y-60988970D01*
X146027000Y-57700000D01*
X146026388Y-57687552D01*
X146007173Y-57492462D01*
X146002317Y-57468044D01*
X145945412Y-57280451D01*
X145935884Y-57257450D01*
X145843474Y-57084563D01*
X145829642Y-57063862D01*
X145705279Y-56912325D01*
X145687675Y-56894721D01*
X145536138Y-56770358D01*
X145515437Y-56756526D01*
X145342550Y-56664116D01*
X145319549Y-56654588D01*
X145131956Y-56597683D01*
X145107538Y-56592827D01*
X144912448Y-56573612D01*
X144900000Y-56573000D01*
X105400000Y-56573000D01*
X105387552Y-56573612D01*
X105192462Y-56592827D01*
X105168044Y-56597683D01*
X104980451Y-56654588D01*
X104957450Y-56664116D01*
X104784563Y-56756526D01*
X104763862Y-56770358D01*
X104612325Y-56894721D01*
X104594721Y-56912325D01*
X104470358Y-57063862D01*
X104456526Y-57084563D01*
X104364116Y-57257450D01*
X104354588Y-57280451D01*
X104297683Y-57468044D01*
X104292827Y-57492462D01*
X104273612Y-57687552D01*
X104273000Y-57700000D01*
X104273000Y-60093766D01*
X104255624Y-60270189D01*
X104205978Y-60433850D01*
X104125362Y-60584672D01*
X104016870Y-60716870D01*
X103884672Y-60825362D01*
X103733850Y-60905978D01*
X103570189Y-60955624D01*
X103393766Y-60973000D01*
X89896326Y-60973000D01*
X89719825Y-60955610D01*
X89556121Y-60905931D01*
X89405254Y-60825256D01*
X89360000Y-60788098D01*
X89360000Y-47611716D01*
X157973000Y-47611716D01*
X157973000Y-48188284D01*
X158085482Y-48753775D01*
X158306126Y-49286455D01*
X158626450Y-49765854D01*
X159034146Y-50173550D01*
X159513545Y-50493874D01*
X160046225Y-50714518D01*
X160611716Y-50827000D01*
X161188284Y-50827000D01*
X161753775Y-50714518D01*
X162286455Y-50493874D01*
X162765854Y-50173550D01*
X163173550Y-49765854D01*
X163493874Y-49286455D01*
X163714518Y-48753775D01*
X163827000Y-48188284D01*
X163827000Y-47611716D01*
X163714518Y-47046225D01*
X163493874Y-46513545D01*
X163173550Y-46034146D01*
X162765854Y-45626450D01*
X162286455Y-45306126D01*
X161753775Y-45085482D01*
X161188284Y-44973000D01*
X160611716Y-44973000D01*
X160046225Y-45085482D01*
X159513545Y-45306126D01*
X159034146Y-45626450D01*
X158626450Y-46034146D01*
X158306126Y-46513545D01*
X158085482Y-47046225D01*
X157973000Y-47611716D01*
X89360000Y-47611716D01*
X89360000Y-43560000D01*
X174040001Y-43560000D01*
X174040001Y-54879955D01*
G37*
G04 #@! TD.AperFunction*
G04 #@! TD*
M02*
