M48
METRIC,TZ
T1C0.300
T2C0.400
T3C1.000
T4C1.190
T5C1.850
%
G90
G05
T1
X116621Y-88300
X116621Y-89500
X117821Y-88300
X117821Y-89500
X119150Y-78550
X119150Y-80650
X121250Y-78550
X121250Y-80650
T2
X91059Y-77470
X91059Y-78740
X91059Y-80010
X91059Y-81280
X91059Y-82550
X91059Y-83820
X91059Y-85090
X91059Y-86360
X92329Y-77470
X92329Y-78740
X92329Y-80010
X92329Y-81280
X92329Y-82550
X92329Y-83820
X92329Y-85090
X92329Y-86360
X93599Y-77470
X93599Y-78740
X93599Y-80010
X93599Y-81280
X93599Y-82550
X93599Y-83820
X93599Y-85090
X93599Y-86360
X94869Y-77470
X94869Y-78740
X94869Y-80010
X94869Y-81280
X94869Y-82550
X94869Y-83820
X94869Y-85090
X94869Y-86360
X96139Y-77470
X96139Y-78740
X96139Y-80010
X96139Y-81280
X96139Y-82550
X96139Y-83820
X96139Y-85090
X96139Y-86360
X97409Y-77470
X97409Y-78740
X97409Y-80010
X97409Y-81280
X97409Y-82550
X97409Y-83820
X97409Y-85090
X97409Y-86360
X98679Y-77470
X98679Y-78740
X98679Y-80010
X98679Y-81280
X98679Y-82550
X98679Y-83820
X98679Y-85090
X98679Y-86360
X99949Y-77470
X99949Y-78740
X99949Y-80010
X99949Y-81280
X99949Y-82550
X99949Y-83820
X99949Y-85090
X99949Y-86360
X111700Y-80300
X114800Y-80000
X115500Y-78200
X116700Y-92400
X117400Y-82000
X117500Y-86000
X119100Y-85100
X119300Y-75300
X122500Y-83100
X123900Y-81600
X124100Y-74600
X124560Y-51335
X124560Y-52605
X124560Y-53875
X124560Y-55145
X124560Y-56415
X124560Y-57685
X124560Y-58955
X124560Y-60225
X125300Y-79100
X125830Y-51335
X125830Y-52605
X125830Y-53875
X125830Y-55145
X125830Y-56415
X125830Y-57685
X125830Y-58955
X125830Y-60225
X126300Y-73600
X127100Y-51335
X127100Y-52605
X127100Y-53875
X127100Y-55145
X127100Y-56415
X127100Y-57685
X127100Y-58955
X127100Y-60225
X128370Y-51335
X128370Y-52605
X128370Y-53875
X128370Y-55145
X128370Y-56415
X128370Y-57685
X128370Y-58955
X128370Y-60225
X129640Y-51335
X129640Y-52605
X129640Y-53875
X129640Y-55145
X129640Y-56415
X129640Y-57685
X129640Y-58955
X129640Y-60225
X130910Y-51335
X130910Y-52605
X130910Y-53875
X130910Y-55145
X130910Y-56415
X130910Y-57685
X130910Y-58955
X130910Y-60225
X132180Y-51335
X132180Y-52605
X132180Y-53875
X132180Y-55145
X132180Y-56415
X132180Y-57685
X132180Y-58955
X132180Y-60225
X133400Y-75000
X133450Y-51335
X133450Y-52605
X133450Y-53875
X133450Y-55145
X133450Y-56415
X133450Y-57685
X133450Y-58955
X133450Y-60225
T3
X103400Y-82800
X103400Y-85340
T4
X108600Y-82440
X108600Y-84980
X108600Y-87520
X108600Y-90060
X108600Y-92600
T5
X91958Y-47265
X91958Y-51700
X91958Y-56135
X91965Y-89665
X91965Y-94100
X91965Y-98535
X96393Y-47265
X96393Y-51700
X96393Y-56135
X96400Y-89665
X96400Y-94100
X96400Y-98535
X100828Y-47265
X100828Y-51700
X100828Y-56135
X100835Y-89665
X100835Y-94100
X100835Y-98535
X161765Y-60565
X161765Y-65000
X161765Y-69435
X161765Y-83265
X161765Y-87700
X161765Y-92135
X166200Y-60565
X166200Y-65000
X166200Y-69435
X166200Y-83265
X166200Y-87700
X166200Y-92135
X170635Y-60565
X170635Y-65000
X170635Y-69435
X170635Y-83265
X170635Y-87700
X170635Y-92135
T0
M30
