G04 #@! TF.GenerationSoftware,KiCad,Pcbnew,(5.1.10)-1*
G04 #@! TF.CreationDate,2021-06-17T19:52:21-04:00*
G04 #@! TF.ProjectId,Motor Controller 2020,4d6f746f-7220-4436-9f6e-74726f6c6c65,rev?*
G04 #@! TF.SameCoordinates,Original*
G04 #@! TF.FileFunction,Copper,L1,Top*
G04 #@! TF.FilePolarity,Positive*
%FSLAX46Y46*%
G04 Gerber Fmt 4.6, Leading zero omitted, Abs format (unit mm)*
G04 Created by KiCad (PCBNEW (5.1.10)-1) date 2021-06-17 19:52:21*
%MOMM*%
%LPD*%
G01*
G04 APERTURE LIST*
G04 #@! TA.AperFunction,ComponentPad*
%ADD10C,3.200000*%
G04 #@! TD*
G04 #@! TA.AperFunction,SMDPad,CuDef*
%ADD11R,2.440000X1.120000*%
G04 #@! TD*
G04 #@! TA.AperFunction,SMDPad,CuDef*
%ADD12R,2.000000X3.800000*%
G04 #@! TD*
G04 #@! TA.AperFunction,SMDPad,CuDef*
%ADD13R,2.000000X1.500000*%
G04 #@! TD*
G04 #@! TA.AperFunction,ComponentPad*
%ADD14O,2.190000X1.740000*%
G04 #@! TD*
G04 #@! TA.AperFunction,SMDPad,CuDef*
%ADD15R,1.100000X4.600000*%
G04 #@! TD*
G04 #@! TA.AperFunction,SMDPad,CuDef*
%ADD16R,10.800000X9.400000*%
G04 #@! TD*
G04 #@! TA.AperFunction,SMDPad,CuDef*
%ADD17R,2.600000X2.600000*%
G04 #@! TD*
G04 #@! TA.AperFunction,ComponentPad*
%ADD18C,0.500000*%
G04 #@! TD*
G04 #@! TA.AperFunction,SMDPad,CuDef*
%ADD19C,0.150000*%
G04 #@! TD*
G04 #@! TA.AperFunction,SMDPad,CuDef*
%ADD20R,1.700000X1.700000*%
G04 #@! TD*
G04 #@! TA.AperFunction,SMDPad,CuDef*
%ADD21C,1.000000*%
G04 #@! TD*
G04 #@! TA.AperFunction,ComponentPad*
%ADD22R,1.700000X1.700000*%
G04 #@! TD*
G04 #@! TA.AperFunction,ComponentPad*
%ADD23O,1.700000X1.700000*%
G04 #@! TD*
G04 #@! TA.AperFunction,ViaPad*
%ADD24C,0.800000*%
G04 #@! TD*
G04 #@! TA.AperFunction,Conductor*
%ADD25C,0.508000*%
G04 #@! TD*
G04 #@! TA.AperFunction,Conductor*
%ADD26C,0.250000*%
G04 #@! TD*
G04 #@! TA.AperFunction,Conductor*
%ADD27C,0.200000*%
G04 #@! TD*
G04 #@! TA.AperFunction,Conductor*
%ADD28C,0.254000*%
G04 #@! TD*
G04 #@! TA.AperFunction,Conductor*
%ADD29C,0.150000*%
G04 #@! TD*
G04 APERTURE END LIST*
D10*
X166200000Y-65000000D03*
X166200000Y-69435000D03*
X170635000Y-65000000D03*
X166200000Y-60565000D03*
X161765000Y-65000000D03*
X161765000Y-69435000D03*
X161765000Y-60565000D03*
X170635000Y-60565000D03*
X170635000Y-69435000D03*
D11*
X133205000Y-92540000D03*
X124595000Y-87460000D03*
X133205000Y-90000000D03*
X124595000Y-90000000D03*
X133205000Y-87460000D03*
X124595000Y-92540000D03*
D12*
X113259000Y-76200000D03*
D13*
X106959000Y-76200000D03*
X106959000Y-78500000D03*
X106959000Y-73900000D03*
G04 #@! TA.AperFunction,ComponentPad*
G36*
G01*
X109445001Y-93470000D02*
X107754999Y-93470000D01*
G75*
G02*
X107505000Y-93220001I0J249999D01*
G01*
X107505000Y-91979999D01*
G75*
G02*
X107754999Y-91730000I249999J0D01*
G01*
X109445001Y-91730000D01*
G75*
G02*
X109695000Y-91979999I0J-249999D01*
G01*
X109695000Y-93220001D01*
G75*
G02*
X109445001Y-93470000I-249999J0D01*
G01*
G37*
G04 #@! TD.AperFunction*
D14*
X108600000Y-90060000D03*
X108600000Y-87520000D03*
X108600000Y-84980000D03*
X108600000Y-82440000D03*
G04 #@! TA.AperFunction,SMDPad,CuDef*
G36*
G01*
X101673998Y-77423000D02*
X104574002Y-77423000D01*
G75*
G02*
X104824000Y-77672998I0J-249998D01*
G01*
X104824000Y-78748002D01*
G75*
G02*
X104574002Y-78998000I-249998J0D01*
G01*
X101673998Y-78998000D01*
G75*
G02*
X101424000Y-78748002I0J249998D01*
G01*
X101424000Y-77672998D01*
G75*
G02*
X101673998Y-77423000I249998J0D01*
G01*
G37*
G04 #@! TD.AperFunction*
G04 #@! TA.AperFunction,SMDPad,CuDef*
G36*
G01*
X101673998Y-73148000D02*
X104574002Y-73148000D01*
G75*
G02*
X104824000Y-73397998I0J-249998D01*
G01*
X104824000Y-74473002D01*
G75*
G02*
X104574002Y-74723000I-249998J0D01*
G01*
X101673998Y-74723000D01*
G75*
G02*
X101424000Y-74473002I0J249998D01*
G01*
X101424000Y-73397998D01*
G75*
G02*
X101673998Y-73148000I249998J0D01*
G01*
G37*
G04 #@! TD.AperFunction*
G04 #@! TA.AperFunction,SMDPad,CuDef*
G36*
G01*
X109049997Y-59150000D02*
X118150003Y-59150000D01*
G75*
G02*
X118400000Y-59399997I0J-249997D01*
G01*
X118400000Y-67700003D01*
G75*
G02*
X118150003Y-67950000I-249997J0D01*
G01*
X109049997Y-67950000D01*
G75*
G02*
X108800000Y-67700003I0J249997D01*
G01*
X108800000Y-59399997D01*
G75*
G02*
X109049997Y-59150000I249997J0D01*
G01*
G37*
G04 #@! TD.AperFunction*
G04 #@! TA.AperFunction,SMDPad,CuDef*
G36*
G01*
X109049997Y-45650000D02*
X118150003Y-45650000D01*
G75*
G02*
X118400000Y-45899997I0J-249997D01*
G01*
X118400000Y-54200003D01*
G75*
G02*
X118150003Y-54450000I-249997J0D01*
G01*
X109049997Y-54450000D01*
G75*
G02*
X108800000Y-54200003I0J249997D01*
G01*
X108800000Y-45899997D01*
G75*
G02*
X109049997Y-45650000I249997J0D01*
G01*
G37*
G04 #@! TD.AperFunction*
D10*
X100828000Y-56135000D03*
X100828000Y-47265000D03*
X91958000Y-47265000D03*
X91958000Y-56135000D03*
X91958000Y-51700000D03*
X96393000Y-47265000D03*
X100828000Y-51700000D03*
X96393000Y-56135000D03*
X96393000Y-51700000D03*
X96400000Y-94100000D03*
X96400000Y-98535000D03*
X100835000Y-94100000D03*
X96400000Y-89665000D03*
X91965000Y-94100000D03*
X91965000Y-98535000D03*
X91965000Y-89665000D03*
X100835000Y-89665000D03*
X100835000Y-98535000D03*
X170635000Y-92135000D03*
X170635000Y-83265000D03*
X161765000Y-83265000D03*
X161765000Y-92135000D03*
X161765000Y-87700000D03*
X166200000Y-83265000D03*
X170635000Y-87700000D03*
X166200000Y-92135000D03*
X166200000Y-87700000D03*
D15*
X137795000Y-65376000D03*
X140335000Y-65376000D03*
X142875000Y-65376000D03*
D16*
X140335000Y-56226000D03*
X140354000Y-74780000D03*
D15*
X142894000Y-83930000D03*
X140354000Y-83930000D03*
X137814000Y-83930000D03*
D16*
X151873000Y-56238000D03*
D15*
X154413000Y-65388000D03*
X151873000Y-65388000D03*
X149333000Y-65388000D03*
X149352000Y-83918000D03*
X151892000Y-83918000D03*
X154432000Y-83918000D03*
D16*
X151892000Y-74768000D03*
G04 #@! TA.AperFunction,SMDPad,CuDef*
G36*
G01*
X167625001Y-57975000D02*
X164774999Y-57975000D01*
G75*
G02*
X164525000Y-57725001I0J249999D01*
G01*
X164525000Y-56999999D01*
G75*
G02*
X164774999Y-56750000I249999J0D01*
G01*
X167625001Y-56750000D01*
G75*
G02*
X167875000Y-56999999I0J-249999D01*
G01*
X167875000Y-57725001D01*
G75*
G02*
X167625001Y-57975000I-249999J0D01*
G01*
G37*
G04 #@! TD.AperFunction*
G04 #@! TA.AperFunction,SMDPad,CuDef*
G36*
G01*
X167625001Y-52050000D02*
X164774999Y-52050000D01*
G75*
G02*
X164525000Y-51800001I0J249999D01*
G01*
X164525000Y-51074999D01*
G75*
G02*
X164774999Y-50825000I249999J0D01*
G01*
X167625001Y-50825000D01*
G75*
G02*
X167875000Y-51074999I0J-249999D01*
G01*
X167875000Y-51800001D01*
G75*
G02*
X167625001Y-52050000I-249999J0D01*
G01*
G37*
G04 #@! TD.AperFunction*
G04 #@! TA.AperFunction,SMDPad,CuDef*
G36*
G01*
X120875000Y-72275001D02*
X120875000Y-70124999D01*
G75*
G02*
X121124999Y-69875000I249999J0D01*
G01*
X121850001Y-69875000D01*
G75*
G02*
X122100000Y-70124999I0J-249999D01*
G01*
X122100000Y-72275001D01*
G75*
G02*
X121850001Y-72525000I-249999J0D01*
G01*
X121124999Y-72525000D01*
G75*
G02*
X120875000Y-72275001I0J249999D01*
G01*
G37*
G04 #@! TD.AperFunction*
G04 #@! TA.AperFunction,SMDPad,CuDef*
G36*
G01*
X125500000Y-72275001D02*
X125500000Y-70124999D01*
G75*
G02*
X125749999Y-69875000I249999J0D01*
G01*
X126475001Y-69875000D01*
G75*
G02*
X126725000Y-70124999I0J-249999D01*
G01*
X126725000Y-72275001D01*
G75*
G02*
X126475001Y-72525000I-249999J0D01*
G01*
X125749999Y-72525000D01*
G75*
G02*
X125500000Y-72275001I0J249999D01*
G01*
G37*
G04 #@! TD.AperFunction*
G04 #@! TA.AperFunction,SMDPad,CuDef*
G36*
G01*
X130200000Y-77075001D02*
X130200000Y-74924999D01*
G75*
G02*
X130449999Y-74675000I249999J0D01*
G01*
X131175001Y-74675000D01*
G75*
G02*
X131425000Y-74924999I0J-249999D01*
G01*
X131425000Y-77075001D01*
G75*
G02*
X131175001Y-77325000I-249999J0D01*
G01*
X130449999Y-77325000D01*
G75*
G02*
X130200000Y-77075001I0J249999D01*
G01*
G37*
G04 #@! TD.AperFunction*
G04 #@! TA.AperFunction,SMDPad,CuDef*
G36*
G01*
X125575000Y-77075001D02*
X125575000Y-74924999D01*
G75*
G02*
X125824999Y-74675000I249999J0D01*
G01*
X126550001Y-74675000D01*
G75*
G02*
X126800000Y-74924999I0J-249999D01*
G01*
X126800000Y-77075001D01*
G75*
G02*
X126550001Y-77325000I-249999J0D01*
G01*
X125824999Y-77325000D01*
G75*
G02*
X125575000Y-77075001I0J249999D01*
G01*
G37*
G04 #@! TD.AperFunction*
G04 #@! TA.AperFunction,SMDPad,CuDef*
G36*
G01*
X115449998Y-68575000D02*
X118350002Y-68575000D01*
G75*
G02*
X118600000Y-68824998I0J-249998D01*
G01*
X118600000Y-69900002D01*
G75*
G02*
X118350002Y-70150000I-249998J0D01*
G01*
X115449998Y-70150000D01*
G75*
G02*
X115200000Y-69900002I0J249998D01*
G01*
X115200000Y-68824998D01*
G75*
G02*
X115449998Y-68575000I249998J0D01*
G01*
G37*
G04 #@! TD.AperFunction*
G04 #@! TA.AperFunction,SMDPad,CuDef*
G36*
G01*
X115449998Y-72850000D02*
X118350002Y-72850000D01*
G75*
G02*
X118600000Y-73099998I0J-249998D01*
G01*
X118600000Y-74175002D01*
G75*
G02*
X118350002Y-74425000I-249998J0D01*
G01*
X115449998Y-74425000D01*
G75*
G02*
X115200000Y-74175002I0J249998D01*
G01*
X115200000Y-73099998D01*
G75*
G02*
X115449998Y-72850000I249998J0D01*
G01*
G37*
G04 #@! TD.AperFunction*
G04 #@! TA.AperFunction,SMDPad,CuDef*
G36*
G01*
X131000000Y-82024999D02*
X131000000Y-84175001D01*
G75*
G02*
X130750001Y-84425000I-249999J0D01*
G01*
X129849999Y-84425000D01*
G75*
G02*
X129600000Y-84175001I0J249999D01*
G01*
X129600000Y-82024999D01*
G75*
G02*
X129849999Y-81775000I249999J0D01*
G01*
X130750001Y-81775000D01*
G75*
G02*
X131000000Y-82024999I0J-249999D01*
G01*
G37*
G04 #@! TD.AperFunction*
G04 #@! TA.AperFunction,SMDPad,CuDef*
G36*
G01*
X126200000Y-82024999D02*
X126200000Y-84175001D01*
G75*
G02*
X125950001Y-84425000I-249999J0D01*
G01*
X125049999Y-84425000D01*
G75*
G02*
X124800000Y-84175001I0J249999D01*
G01*
X124800000Y-82024999D01*
G75*
G02*
X125049999Y-81775000I249999J0D01*
G01*
X125950001Y-81775000D01*
G75*
G02*
X126200000Y-82024999I0J-249999D01*
G01*
G37*
G04 #@! TD.AperFunction*
G04 #@! TA.AperFunction,SMDPad,CuDef*
G36*
G01*
X122550000Y-80537500D02*
X122550000Y-80662500D01*
G75*
G02*
X122487500Y-80725000I-62500J0D01*
G01*
X121762500Y-80725000D01*
G75*
G02*
X121700000Y-80662500I0J62500D01*
G01*
X121700000Y-80537500D01*
G75*
G02*
X121762500Y-80475000I62500J0D01*
G01*
X122487500Y-80475000D01*
G75*
G02*
X122550000Y-80537500I0J-62500D01*
G01*
G37*
G04 #@! TD.AperFunction*
G04 #@! TA.AperFunction,SMDPad,CuDef*
G36*
G01*
X122550000Y-80037500D02*
X122550000Y-80162500D01*
G75*
G02*
X122487500Y-80225000I-62500J0D01*
G01*
X121762500Y-80225000D01*
G75*
G02*
X121700000Y-80162500I0J62500D01*
G01*
X121700000Y-80037500D01*
G75*
G02*
X121762500Y-79975000I62500J0D01*
G01*
X122487500Y-79975000D01*
G75*
G02*
X122550000Y-80037500I0J-62500D01*
G01*
G37*
G04 #@! TD.AperFunction*
G04 #@! TA.AperFunction,SMDPad,CuDef*
G36*
G01*
X122550000Y-79537500D02*
X122550000Y-79662500D01*
G75*
G02*
X122487500Y-79725000I-62500J0D01*
G01*
X121762500Y-79725000D01*
G75*
G02*
X121700000Y-79662500I0J62500D01*
G01*
X121700000Y-79537500D01*
G75*
G02*
X121762500Y-79475000I62500J0D01*
G01*
X122487500Y-79475000D01*
G75*
G02*
X122550000Y-79537500I0J-62500D01*
G01*
G37*
G04 #@! TD.AperFunction*
G04 #@! TA.AperFunction,SMDPad,CuDef*
G36*
G01*
X122550000Y-79037500D02*
X122550000Y-79162500D01*
G75*
G02*
X122487500Y-79225000I-62500J0D01*
G01*
X121762500Y-79225000D01*
G75*
G02*
X121700000Y-79162500I0J62500D01*
G01*
X121700000Y-79037500D01*
G75*
G02*
X121762500Y-78975000I62500J0D01*
G01*
X122487500Y-78975000D01*
G75*
G02*
X122550000Y-79037500I0J-62500D01*
G01*
G37*
G04 #@! TD.AperFunction*
G04 #@! TA.AperFunction,SMDPad,CuDef*
G36*
G01*
X122550000Y-78537500D02*
X122550000Y-78662500D01*
G75*
G02*
X122487500Y-78725000I-62500J0D01*
G01*
X121762500Y-78725000D01*
G75*
G02*
X121700000Y-78662500I0J62500D01*
G01*
X121700000Y-78537500D01*
G75*
G02*
X121762500Y-78475000I62500J0D01*
G01*
X122487500Y-78475000D01*
G75*
G02*
X122550000Y-78537500I0J-62500D01*
G01*
G37*
G04 #@! TD.AperFunction*
G04 #@! TA.AperFunction,SMDPad,CuDef*
G36*
G01*
X121325000Y-77312500D02*
X121325000Y-78037500D01*
G75*
G02*
X121262500Y-78100000I-62500J0D01*
G01*
X121137500Y-78100000D01*
G75*
G02*
X121075000Y-78037500I0J62500D01*
G01*
X121075000Y-77312500D01*
G75*
G02*
X121137500Y-77250000I62500J0D01*
G01*
X121262500Y-77250000D01*
G75*
G02*
X121325000Y-77312500I0J-62500D01*
G01*
G37*
G04 #@! TD.AperFunction*
G04 #@! TA.AperFunction,SMDPad,CuDef*
G36*
G01*
X120825000Y-77312500D02*
X120825000Y-78037500D01*
G75*
G02*
X120762500Y-78100000I-62500J0D01*
G01*
X120637500Y-78100000D01*
G75*
G02*
X120575000Y-78037500I0J62500D01*
G01*
X120575000Y-77312500D01*
G75*
G02*
X120637500Y-77250000I62500J0D01*
G01*
X120762500Y-77250000D01*
G75*
G02*
X120825000Y-77312500I0J-62500D01*
G01*
G37*
G04 #@! TD.AperFunction*
G04 #@! TA.AperFunction,SMDPad,CuDef*
G36*
G01*
X120325000Y-77312500D02*
X120325000Y-78037500D01*
G75*
G02*
X120262500Y-78100000I-62500J0D01*
G01*
X120137500Y-78100000D01*
G75*
G02*
X120075000Y-78037500I0J62500D01*
G01*
X120075000Y-77312500D01*
G75*
G02*
X120137500Y-77250000I62500J0D01*
G01*
X120262500Y-77250000D01*
G75*
G02*
X120325000Y-77312500I0J-62500D01*
G01*
G37*
G04 #@! TD.AperFunction*
G04 #@! TA.AperFunction,SMDPad,CuDef*
G36*
G01*
X119825000Y-77312500D02*
X119825000Y-78037500D01*
G75*
G02*
X119762500Y-78100000I-62500J0D01*
G01*
X119637500Y-78100000D01*
G75*
G02*
X119575000Y-78037500I0J62500D01*
G01*
X119575000Y-77312500D01*
G75*
G02*
X119637500Y-77250000I62500J0D01*
G01*
X119762500Y-77250000D01*
G75*
G02*
X119825000Y-77312500I0J-62500D01*
G01*
G37*
G04 #@! TD.AperFunction*
G04 #@! TA.AperFunction,SMDPad,CuDef*
G36*
G01*
X119325000Y-77312500D02*
X119325000Y-78037500D01*
G75*
G02*
X119262500Y-78100000I-62500J0D01*
G01*
X119137500Y-78100000D01*
G75*
G02*
X119075000Y-78037500I0J62500D01*
G01*
X119075000Y-77312500D01*
G75*
G02*
X119137500Y-77250000I62500J0D01*
G01*
X119262500Y-77250000D01*
G75*
G02*
X119325000Y-77312500I0J-62500D01*
G01*
G37*
G04 #@! TD.AperFunction*
G04 #@! TA.AperFunction,SMDPad,CuDef*
G36*
G01*
X118700000Y-78537500D02*
X118700000Y-78662500D01*
G75*
G02*
X118637500Y-78725000I-62500J0D01*
G01*
X117912500Y-78725000D01*
G75*
G02*
X117850000Y-78662500I0J62500D01*
G01*
X117850000Y-78537500D01*
G75*
G02*
X117912500Y-78475000I62500J0D01*
G01*
X118637500Y-78475000D01*
G75*
G02*
X118700000Y-78537500I0J-62500D01*
G01*
G37*
G04 #@! TD.AperFunction*
G04 #@! TA.AperFunction,SMDPad,CuDef*
G36*
G01*
X118700000Y-79037500D02*
X118700000Y-79162500D01*
G75*
G02*
X118637500Y-79225000I-62500J0D01*
G01*
X117912500Y-79225000D01*
G75*
G02*
X117850000Y-79162500I0J62500D01*
G01*
X117850000Y-79037500D01*
G75*
G02*
X117912500Y-78975000I62500J0D01*
G01*
X118637500Y-78975000D01*
G75*
G02*
X118700000Y-79037500I0J-62500D01*
G01*
G37*
G04 #@! TD.AperFunction*
G04 #@! TA.AperFunction,SMDPad,CuDef*
G36*
G01*
X118700000Y-79537500D02*
X118700000Y-79662500D01*
G75*
G02*
X118637500Y-79725000I-62500J0D01*
G01*
X117912500Y-79725000D01*
G75*
G02*
X117850000Y-79662500I0J62500D01*
G01*
X117850000Y-79537500D01*
G75*
G02*
X117912500Y-79475000I62500J0D01*
G01*
X118637500Y-79475000D01*
G75*
G02*
X118700000Y-79537500I0J-62500D01*
G01*
G37*
G04 #@! TD.AperFunction*
G04 #@! TA.AperFunction,SMDPad,CuDef*
G36*
G01*
X118700000Y-80037500D02*
X118700000Y-80162500D01*
G75*
G02*
X118637500Y-80225000I-62500J0D01*
G01*
X117912500Y-80225000D01*
G75*
G02*
X117850000Y-80162500I0J62500D01*
G01*
X117850000Y-80037500D01*
G75*
G02*
X117912500Y-79975000I62500J0D01*
G01*
X118637500Y-79975000D01*
G75*
G02*
X118700000Y-80037500I0J-62500D01*
G01*
G37*
G04 #@! TD.AperFunction*
G04 #@! TA.AperFunction,SMDPad,CuDef*
G36*
G01*
X118700000Y-80537500D02*
X118700000Y-80662500D01*
G75*
G02*
X118637500Y-80725000I-62500J0D01*
G01*
X117912500Y-80725000D01*
G75*
G02*
X117850000Y-80662500I0J62500D01*
G01*
X117850000Y-80537500D01*
G75*
G02*
X117912500Y-80475000I62500J0D01*
G01*
X118637500Y-80475000D01*
G75*
G02*
X118700000Y-80537500I0J-62500D01*
G01*
G37*
G04 #@! TD.AperFunction*
G04 #@! TA.AperFunction,SMDPad,CuDef*
G36*
G01*
X119325000Y-81162500D02*
X119325000Y-81887500D01*
G75*
G02*
X119262500Y-81950000I-62500J0D01*
G01*
X119137500Y-81950000D01*
G75*
G02*
X119075000Y-81887500I0J62500D01*
G01*
X119075000Y-81162500D01*
G75*
G02*
X119137500Y-81100000I62500J0D01*
G01*
X119262500Y-81100000D01*
G75*
G02*
X119325000Y-81162500I0J-62500D01*
G01*
G37*
G04 #@! TD.AperFunction*
G04 #@! TA.AperFunction,SMDPad,CuDef*
G36*
G01*
X119825000Y-81162500D02*
X119825000Y-81887500D01*
G75*
G02*
X119762500Y-81950000I-62500J0D01*
G01*
X119637500Y-81950000D01*
G75*
G02*
X119575000Y-81887500I0J62500D01*
G01*
X119575000Y-81162500D01*
G75*
G02*
X119637500Y-81100000I62500J0D01*
G01*
X119762500Y-81100000D01*
G75*
G02*
X119825000Y-81162500I0J-62500D01*
G01*
G37*
G04 #@! TD.AperFunction*
G04 #@! TA.AperFunction,SMDPad,CuDef*
G36*
G01*
X120325000Y-81162500D02*
X120325000Y-81887500D01*
G75*
G02*
X120262500Y-81950000I-62500J0D01*
G01*
X120137500Y-81950000D01*
G75*
G02*
X120075000Y-81887500I0J62500D01*
G01*
X120075000Y-81162500D01*
G75*
G02*
X120137500Y-81100000I62500J0D01*
G01*
X120262500Y-81100000D01*
G75*
G02*
X120325000Y-81162500I0J-62500D01*
G01*
G37*
G04 #@! TD.AperFunction*
G04 #@! TA.AperFunction,SMDPad,CuDef*
G36*
G01*
X120825000Y-81162500D02*
X120825000Y-81887500D01*
G75*
G02*
X120762500Y-81950000I-62500J0D01*
G01*
X120637500Y-81950000D01*
G75*
G02*
X120575000Y-81887500I0J62500D01*
G01*
X120575000Y-81162500D01*
G75*
G02*
X120637500Y-81100000I62500J0D01*
G01*
X120762500Y-81100000D01*
G75*
G02*
X120825000Y-81162500I0J-62500D01*
G01*
G37*
G04 #@! TD.AperFunction*
G04 #@! TA.AperFunction,SMDPad,CuDef*
G36*
G01*
X121325000Y-81162500D02*
X121325000Y-81887500D01*
G75*
G02*
X121262500Y-81950000I-62500J0D01*
G01*
X121137500Y-81950000D01*
G75*
G02*
X121075000Y-81887500I0J62500D01*
G01*
X121075000Y-81162500D01*
G75*
G02*
X121137500Y-81100000I62500J0D01*
G01*
X121262500Y-81100000D01*
G75*
G02*
X121325000Y-81162500I0J-62500D01*
G01*
G37*
G04 #@! TD.AperFunction*
D17*
X120200000Y-79600000D03*
D18*
X121250000Y-80650000D03*
X119150000Y-80650000D03*
X121250000Y-78550000D03*
X119150000Y-78550000D03*
G04 #@! TA.AperFunction,SMDPad,CuDef*
G36*
G01*
X105275000Y-71750002D02*
X105275000Y-68849998D01*
G75*
G02*
X105524998Y-68600000I249998J0D01*
G01*
X106600002Y-68600000D01*
G75*
G02*
X106850000Y-68849998I0J-249998D01*
G01*
X106850000Y-71750002D01*
G75*
G02*
X106600002Y-72000000I-249998J0D01*
G01*
X105524998Y-72000000D01*
G75*
G02*
X105275000Y-71750002I0J249998D01*
G01*
G37*
G04 #@! TD.AperFunction*
G04 #@! TA.AperFunction,SMDPad,CuDef*
G36*
G01*
X109550000Y-71750002D02*
X109550000Y-68849998D01*
G75*
G02*
X109799998Y-68600000I249998J0D01*
G01*
X110875002Y-68600000D01*
G75*
G02*
X111125000Y-68849998I0J-249998D01*
G01*
X111125000Y-71750002D01*
G75*
G02*
X110875002Y-72000000I-249998J0D01*
G01*
X109799998Y-72000000D01*
G75*
G02*
X109550000Y-71750002I0J249998D01*
G01*
G37*
G04 #@! TD.AperFunction*
G04 #@! TA.AperFunction,SMDPad,CuDef*
D19*
G36*
X118361956Y-89799039D02*
G01*
X118352577Y-89796194D01*
X118343932Y-89791573D01*
X118336356Y-89785355D01*
X118285645Y-89734644D01*
X118279427Y-89727068D01*
X118274806Y-89718423D01*
X118271961Y-89709044D01*
X118271000Y-89699289D01*
X118271000Y-89650000D01*
X118271961Y-89640245D01*
X118274806Y-89630866D01*
X118279427Y-89622221D01*
X118285645Y-89614645D01*
X118293221Y-89608427D01*
X118301866Y-89603806D01*
X118311245Y-89600961D01*
X118321000Y-89600000D01*
X119021000Y-89600000D01*
X119030755Y-89600961D01*
X119040134Y-89603806D01*
X119048779Y-89608427D01*
X119056355Y-89614645D01*
X119062573Y-89622221D01*
X119067194Y-89630866D01*
X119070039Y-89640245D01*
X119071000Y-89650000D01*
X119071000Y-89750000D01*
X119070039Y-89759755D01*
X119067194Y-89769134D01*
X119062573Y-89777779D01*
X119056355Y-89785355D01*
X119048779Y-89791573D01*
X119040134Y-89796194D01*
X119030755Y-89799039D01*
X119021000Y-89800000D01*
X118371711Y-89800000D01*
X118361956Y-89799039D01*
G37*
G04 #@! TD.AperFunction*
G04 #@! TA.AperFunction,SMDPad,CuDef*
G36*
G01*
X119071000Y-89250000D02*
X119071000Y-89350000D01*
G75*
G02*
X119021000Y-89400000I-50000J0D01*
G01*
X118321000Y-89400000D01*
G75*
G02*
X118271000Y-89350000I0J50000D01*
G01*
X118271000Y-89250000D01*
G75*
G02*
X118321000Y-89200000I50000J0D01*
G01*
X119021000Y-89200000D01*
G75*
G02*
X119071000Y-89250000I0J-50000D01*
G01*
G37*
G04 #@! TD.AperFunction*
G04 #@! TA.AperFunction,SMDPad,CuDef*
G36*
G01*
X119071000Y-88850000D02*
X119071000Y-88950000D01*
G75*
G02*
X119021000Y-89000000I-50000J0D01*
G01*
X118321000Y-89000000D01*
G75*
G02*
X118271000Y-88950000I0J50000D01*
G01*
X118271000Y-88850000D01*
G75*
G02*
X118321000Y-88800000I50000J0D01*
G01*
X119021000Y-88800000D01*
G75*
G02*
X119071000Y-88850000I0J-50000D01*
G01*
G37*
G04 #@! TD.AperFunction*
G04 #@! TA.AperFunction,SMDPad,CuDef*
G36*
G01*
X119071000Y-88450000D02*
X119071000Y-88550000D01*
G75*
G02*
X119021000Y-88600000I-50000J0D01*
G01*
X118321000Y-88600000D01*
G75*
G02*
X118271000Y-88550000I0J50000D01*
G01*
X118271000Y-88450000D01*
G75*
G02*
X118321000Y-88400000I50000J0D01*
G01*
X119021000Y-88400000D01*
G75*
G02*
X119071000Y-88450000I0J-50000D01*
G01*
G37*
G04 #@! TD.AperFunction*
G04 #@! TA.AperFunction,SMDPad,CuDef*
G36*
X118311245Y-88199039D02*
G01*
X118301866Y-88196194D01*
X118293221Y-88191573D01*
X118285645Y-88185355D01*
X118279427Y-88177779D01*
X118274806Y-88169134D01*
X118271961Y-88159755D01*
X118271000Y-88150000D01*
X118271000Y-88100711D01*
X118271961Y-88090956D01*
X118274806Y-88081577D01*
X118279427Y-88072932D01*
X118285645Y-88065356D01*
X118336356Y-88014645D01*
X118343932Y-88008427D01*
X118352577Y-88003806D01*
X118361956Y-88000961D01*
X118371711Y-88000000D01*
X119021000Y-88000000D01*
X119030755Y-88000961D01*
X119040134Y-88003806D01*
X119048779Y-88008427D01*
X119056355Y-88014645D01*
X119062573Y-88022221D01*
X119067194Y-88030866D01*
X119070039Y-88040245D01*
X119071000Y-88050000D01*
X119071000Y-88150000D01*
X119070039Y-88159755D01*
X119067194Y-88169134D01*
X119062573Y-88177779D01*
X119056355Y-88185355D01*
X119048779Y-88191573D01*
X119040134Y-88196194D01*
X119030755Y-88199039D01*
X119021000Y-88200000D01*
X118321000Y-88200000D01*
X118311245Y-88199039D01*
G37*
G04 #@! TD.AperFunction*
G04 #@! TA.AperFunction,SMDPad,CuDef*
G36*
X117961245Y-87849039D02*
G01*
X117951866Y-87846194D01*
X117943221Y-87841573D01*
X117935645Y-87835355D01*
X117929427Y-87827779D01*
X117924806Y-87819134D01*
X117921961Y-87809755D01*
X117921000Y-87800000D01*
X117921000Y-87100000D01*
X117921961Y-87090245D01*
X117924806Y-87080866D01*
X117929427Y-87072221D01*
X117935645Y-87064645D01*
X117943221Y-87058427D01*
X117951866Y-87053806D01*
X117961245Y-87050961D01*
X117971000Y-87050000D01*
X118071000Y-87050000D01*
X118080755Y-87050961D01*
X118090134Y-87053806D01*
X118098779Y-87058427D01*
X118106355Y-87064645D01*
X118112573Y-87072221D01*
X118117194Y-87080866D01*
X118120039Y-87090245D01*
X118121000Y-87100000D01*
X118121000Y-87749289D01*
X118120039Y-87759044D01*
X118117194Y-87768423D01*
X118112573Y-87777068D01*
X118106355Y-87784644D01*
X118055644Y-87835355D01*
X118048068Y-87841573D01*
X118039423Y-87846194D01*
X118030044Y-87849039D01*
X118020289Y-87850000D01*
X117971000Y-87850000D01*
X117961245Y-87849039D01*
G37*
G04 #@! TD.AperFunction*
G04 #@! TA.AperFunction,SMDPad,CuDef*
G36*
G01*
X117721000Y-87100000D02*
X117721000Y-87800000D01*
G75*
G02*
X117671000Y-87850000I-50000J0D01*
G01*
X117571000Y-87850000D01*
G75*
G02*
X117521000Y-87800000I0J50000D01*
G01*
X117521000Y-87100000D01*
G75*
G02*
X117571000Y-87050000I50000J0D01*
G01*
X117671000Y-87050000D01*
G75*
G02*
X117721000Y-87100000I0J-50000D01*
G01*
G37*
G04 #@! TD.AperFunction*
G04 #@! TA.AperFunction,SMDPad,CuDef*
G36*
G01*
X117321000Y-87100000D02*
X117321000Y-87800000D01*
G75*
G02*
X117271000Y-87850000I-50000J0D01*
G01*
X117171000Y-87850000D01*
G75*
G02*
X117121000Y-87800000I0J50000D01*
G01*
X117121000Y-87100000D01*
G75*
G02*
X117171000Y-87050000I50000J0D01*
G01*
X117271000Y-87050000D01*
G75*
G02*
X117321000Y-87100000I0J-50000D01*
G01*
G37*
G04 #@! TD.AperFunction*
G04 #@! TA.AperFunction,SMDPad,CuDef*
G36*
G01*
X116921000Y-87100000D02*
X116921000Y-87800000D01*
G75*
G02*
X116871000Y-87850000I-50000J0D01*
G01*
X116771000Y-87850000D01*
G75*
G02*
X116721000Y-87800000I0J50000D01*
G01*
X116721000Y-87100000D01*
G75*
G02*
X116771000Y-87050000I50000J0D01*
G01*
X116871000Y-87050000D01*
G75*
G02*
X116921000Y-87100000I0J-50000D01*
G01*
G37*
G04 #@! TD.AperFunction*
G04 #@! TA.AperFunction,SMDPad,CuDef*
G36*
X116411956Y-87849039D02*
G01*
X116402577Y-87846194D01*
X116393932Y-87841573D01*
X116386356Y-87835355D01*
X116335645Y-87784644D01*
X116329427Y-87777068D01*
X116324806Y-87768423D01*
X116321961Y-87759044D01*
X116321000Y-87749289D01*
X116321000Y-87100000D01*
X116321961Y-87090245D01*
X116324806Y-87080866D01*
X116329427Y-87072221D01*
X116335645Y-87064645D01*
X116343221Y-87058427D01*
X116351866Y-87053806D01*
X116361245Y-87050961D01*
X116371000Y-87050000D01*
X116471000Y-87050000D01*
X116480755Y-87050961D01*
X116490134Y-87053806D01*
X116498779Y-87058427D01*
X116506355Y-87064645D01*
X116512573Y-87072221D01*
X116517194Y-87080866D01*
X116520039Y-87090245D01*
X116521000Y-87100000D01*
X116521000Y-87800000D01*
X116520039Y-87809755D01*
X116517194Y-87819134D01*
X116512573Y-87827779D01*
X116506355Y-87835355D01*
X116498779Y-87841573D01*
X116490134Y-87846194D01*
X116480755Y-87849039D01*
X116471000Y-87850000D01*
X116421711Y-87850000D01*
X116411956Y-87849039D01*
G37*
G04 #@! TD.AperFunction*
G04 #@! TA.AperFunction,SMDPad,CuDef*
G36*
X115411245Y-88199039D02*
G01*
X115401866Y-88196194D01*
X115393221Y-88191573D01*
X115385645Y-88185355D01*
X115379427Y-88177779D01*
X115374806Y-88169134D01*
X115371961Y-88159755D01*
X115371000Y-88150000D01*
X115371000Y-88050000D01*
X115371961Y-88040245D01*
X115374806Y-88030866D01*
X115379427Y-88022221D01*
X115385645Y-88014645D01*
X115393221Y-88008427D01*
X115401866Y-88003806D01*
X115411245Y-88000961D01*
X115421000Y-88000000D01*
X116070289Y-88000000D01*
X116080044Y-88000961D01*
X116089423Y-88003806D01*
X116098068Y-88008427D01*
X116105644Y-88014645D01*
X116156355Y-88065356D01*
X116162573Y-88072932D01*
X116167194Y-88081577D01*
X116170039Y-88090956D01*
X116171000Y-88100711D01*
X116171000Y-88150000D01*
X116170039Y-88159755D01*
X116167194Y-88169134D01*
X116162573Y-88177779D01*
X116156355Y-88185355D01*
X116148779Y-88191573D01*
X116140134Y-88196194D01*
X116130755Y-88199039D01*
X116121000Y-88200000D01*
X115421000Y-88200000D01*
X115411245Y-88199039D01*
G37*
G04 #@! TD.AperFunction*
G04 #@! TA.AperFunction,SMDPad,CuDef*
G36*
G01*
X116171000Y-88450000D02*
X116171000Y-88550000D01*
G75*
G02*
X116121000Y-88600000I-50000J0D01*
G01*
X115421000Y-88600000D01*
G75*
G02*
X115371000Y-88550000I0J50000D01*
G01*
X115371000Y-88450000D01*
G75*
G02*
X115421000Y-88400000I50000J0D01*
G01*
X116121000Y-88400000D01*
G75*
G02*
X116171000Y-88450000I0J-50000D01*
G01*
G37*
G04 #@! TD.AperFunction*
G04 #@! TA.AperFunction,SMDPad,CuDef*
G36*
G01*
X116171000Y-88850000D02*
X116171000Y-88950000D01*
G75*
G02*
X116121000Y-89000000I-50000J0D01*
G01*
X115421000Y-89000000D01*
G75*
G02*
X115371000Y-88950000I0J50000D01*
G01*
X115371000Y-88850000D01*
G75*
G02*
X115421000Y-88800000I50000J0D01*
G01*
X116121000Y-88800000D01*
G75*
G02*
X116171000Y-88850000I0J-50000D01*
G01*
G37*
G04 #@! TD.AperFunction*
G04 #@! TA.AperFunction,SMDPad,CuDef*
G36*
G01*
X116171000Y-89250000D02*
X116171000Y-89350000D01*
G75*
G02*
X116121000Y-89400000I-50000J0D01*
G01*
X115421000Y-89400000D01*
G75*
G02*
X115371000Y-89350000I0J50000D01*
G01*
X115371000Y-89250000D01*
G75*
G02*
X115421000Y-89200000I50000J0D01*
G01*
X116121000Y-89200000D01*
G75*
G02*
X116171000Y-89250000I0J-50000D01*
G01*
G37*
G04 #@! TD.AperFunction*
G04 #@! TA.AperFunction,SMDPad,CuDef*
G36*
X115411245Y-89799039D02*
G01*
X115401866Y-89796194D01*
X115393221Y-89791573D01*
X115385645Y-89785355D01*
X115379427Y-89777779D01*
X115374806Y-89769134D01*
X115371961Y-89759755D01*
X115371000Y-89750000D01*
X115371000Y-89650000D01*
X115371961Y-89640245D01*
X115374806Y-89630866D01*
X115379427Y-89622221D01*
X115385645Y-89614645D01*
X115393221Y-89608427D01*
X115401866Y-89603806D01*
X115411245Y-89600961D01*
X115421000Y-89600000D01*
X116121000Y-89600000D01*
X116130755Y-89600961D01*
X116140134Y-89603806D01*
X116148779Y-89608427D01*
X116156355Y-89614645D01*
X116162573Y-89622221D01*
X116167194Y-89630866D01*
X116170039Y-89640245D01*
X116171000Y-89650000D01*
X116171000Y-89699289D01*
X116170039Y-89709044D01*
X116167194Y-89718423D01*
X116162573Y-89727068D01*
X116156355Y-89734644D01*
X116105644Y-89785355D01*
X116098068Y-89791573D01*
X116089423Y-89796194D01*
X116080044Y-89799039D01*
X116070289Y-89800000D01*
X115421000Y-89800000D01*
X115411245Y-89799039D01*
G37*
G04 #@! TD.AperFunction*
G04 #@! TA.AperFunction,SMDPad,CuDef*
G36*
X116361245Y-90749039D02*
G01*
X116351866Y-90746194D01*
X116343221Y-90741573D01*
X116335645Y-90735355D01*
X116329427Y-90727779D01*
X116324806Y-90719134D01*
X116321961Y-90709755D01*
X116321000Y-90700000D01*
X116321000Y-90050711D01*
X116321961Y-90040956D01*
X116324806Y-90031577D01*
X116329427Y-90022932D01*
X116335645Y-90015356D01*
X116386356Y-89964645D01*
X116393932Y-89958427D01*
X116402577Y-89953806D01*
X116411956Y-89950961D01*
X116421711Y-89950000D01*
X116471000Y-89950000D01*
X116480755Y-89950961D01*
X116490134Y-89953806D01*
X116498779Y-89958427D01*
X116506355Y-89964645D01*
X116512573Y-89972221D01*
X116517194Y-89980866D01*
X116520039Y-89990245D01*
X116521000Y-90000000D01*
X116521000Y-90700000D01*
X116520039Y-90709755D01*
X116517194Y-90719134D01*
X116512573Y-90727779D01*
X116506355Y-90735355D01*
X116498779Y-90741573D01*
X116490134Y-90746194D01*
X116480755Y-90749039D01*
X116471000Y-90750000D01*
X116371000Y-90750000D01*
X116361245Y-90749039D01*
G37*
G04 #@! TD.AperFunction*
G04 #@! TA.AperFunction,SMDPad,CuDef*
G36*
G01*
X116921000Y-90000000D02*
X116921000Y-90700000D01*
G75*
G02*
X116871000Y-90750000I-50000J0D01*
G01*
X116771000Y-90750000D01*
G75*
G02*
X116721000Y-90700000I0J50000D01*
G01*
X116721000Y-90000000D01*
G75*
G02*
X116771000Y-89950000I50000J0D01*
G01*
X116871000Y-89950000D01*
G75*
G02*
X116921000Y-90000000I0J-50000D01*
G01*
G37*
G04 #@! TD.AperFunction*
G04 #@! TA.AperFunction,SMDPad,CuDef*
G36*
G01*
X117321000Y-90000000D02*
X117321000Y-90700000D01*
G75*
G02*
X117271000Y-90750000I-50000J0D01*
G01*
X117171000Y-90750000D01*
G75*
G02*
X117121000Y-90700000I0J50000D01*
G01*
X117121000Y-90000000D01*
G75*
G02*
X117171000Y-89950000I50000J0D01*
G01*
X117271000Y-89950000D01*
G75*
G02*
X117321000Y-90000000I0J-50000D01*
G01*
G37*
G04 #@! TD.AperFunction*
G04 #@! TA.AperFunction,SMDPad,CuDef*
G36*
G01*
X117721000Y-90000000D02*
X117721000Y-90700000D01*
G75*
G02*
X117671000Y-90750000I-50000J0D01*
G01*
X117571000Y-90750000D01*
G75*
G02*
X117521000Y-90700000I0J50000D01*
G01*
X117521000Y-90000000D01*
G75*
G02*
X117571000Y-89950000I50000J0D01*
G01*
X117671000Y-89950000D01*
G75*
G02*
X117721000Y-90000000I0J-50000D01*
G01*
G37*
G04 #@! TD.AperFunction*
G04 #@! TA.AperFunction,SMDPad,CuDef*
G36*
X117961245Y-90749039D02*
G01*
X117951866Y-90746194D01*
X117943221Y-90741573D01*
X117935645Y-90735355D01*
X117929427Y-90727779D01*
X117924806Y-90719134D01*
X117921961Y-90709755D01*
X117921000Y-90700000D01*
X117921000Y-90000000D01*
X117921961Y-89990245D01*
X117924806Y-89980866D01*
X117929427Y-89972221D01*
X117935645Y-89964645D01*
X117943221Y-89958427D01*
X117951866Y-89953806D01*
X117961245Y-89950961D01*
X117971000Y-89950000D01*
X118020289Y-89950000D01*
X118030044Y-89950961D01*
X118039423Y-89953806D01*
X118048068Y-89958427D01*
X118055644Y-89964645D01*
X118106355Y-90015356D01*
X118112573Y-90022932D01*
X118117194Y-90031577D01*
X118120039Y-90040956D01*
X118121000Y-90050711D01*
X118121000Y-90700000D01*
X118120039Y-90709755D01*
X118117194Y-90719134D01*
X118112573Y-90727779D01*
X118106355Y-90735355D01*
X118098779Y-90741573D01*
X118090134Y-90746194D01*
X118080755Y-90749039D01*
X118071000Y-90750000D01*
X117971000Y-90750000D01*
X117961245Y-90749039D01*
G37*
G04 #@! TD.AperFunction*
D20*
X117221000Y-88900000D03*
D18*
X117821000Y-89500000D03*
X116621000Y-89500000D03*
X117821000Y-88300000D03*
X116621000Y-88300000D03*
D21*
X121100000Y-83800000D03*
X113600000Y-84700000D03*
X120400000Y-86300000D03*
X128900000Y-79500000D03*
D22*
X103400000Y-82800000D03*
D23*
X103400000Y-85340000D03*
D24*
X91059000Y-77470000D03*
X92329000Y-77470000D03*
X93599000Y-77470000D03*
X94869000Y-77470000D03*
X96139000Y-77470000D03*
X97409000Y-77470000D03*
X98679000Y-77470000D03*
X99949000Y-77470000D03*
X91059000Y-78740000D03*
X92329000Y-78740000D03*
X93599000Y-78740000D03*
X94869000Y-78740000D03*
X96139000Y-78740000D03*
X97409000Y-78740000D03*
X98679000Y-78740000D03*
X99949000Y-78740000D03*
X91059000Y-80010000D03*
X92329000Y-80010000D03*
X93599000Y-80010000D03*
X94869000Y-80010000D03*
X96139000Y-80010000D03*
X97409000Y-80010000D03*
X98679000Y-80010000D03*
X99949000Y-80010000D03*
X91059000Y-81280000D03*
X92329000Y-81280000D03*
X93599000Y-81280000D03*
X94869000Y-81280000D03*
X96139000Y-81280000D03*
X97409000Y-81280000D03*
X98679000Y-81280000D03*
X99949000Y-81280000D03*
X91059000Y-82550000D03*
X92329000Y-82550000D03*
X93599000Y-82550000D03*
X94869000Y-82550000D03*
X96139000Y-82550000D03*
X97409000Y-82550000D03*
X98679000Y-82550000D03*
X99949000Y-82550000D03*
X91059000Y-83820000D03*
X92329000Y-83820000D03*
X93599000Y-83820000D03*
X94869000Y-83820000D03*
X96139000Y-83820000D03*
X97409000Y-83820000D03*
X98679000Y-83820000D03*
X99949000Y-83820000D03*
X91059000Y-85090000D03*
X92329000Y-85090000D03*
X93599000Y-85090000D03*
X94869000Y-85090000D03*
X96139000Y-85090000D03*
X97409000Y-85090000D03*
X98679000Y-85090000D03*
X99949000Y-85090000D03*
X91059000Y-86360000D03*
X92329000Y-86360000D03*
X93599000Y-86360000D03*
X94869000Y-86360000D03*
X96139000Y-86360000D03*
X97409000Y-86360000D03*
X98679000Y-86360000D03*
X99949000Y-86360000D03*
X124560000Y-51335000D03*
X125830000Y-51335000D03*
X127100000Y-51335000D03*
X128370000Y-51335000D03*
X129640000Y-51335000D03*
X130910000Y-51335000D03*
X132180000Y-51335000D03*
X133450000Y-51335000D03*
X124560000Y-52605000D03*
X125830000Y-52605000D03*
X127100000Y-52605000D03*
X128370000Y-52605000D03*
X129640000Y-52605000D03*
X130910000Y-52605000D03*
X132180000Y-52605000D03*
X133450000Y-52605000D03*
X124560000Y-53875000D03*
X125830000Y-53875000D03*
X127100000Y-53875000D03*
X128370000Y-53875000D03*
X129640000Y-53875000D03*
X130910000Y-53875000D03*
X132180000Y-53875000D03*
X133450000Y-53875000D03*
X124560000Y-55145000D03*
X125830000Y-55145000D03*
X127100000Y-55145000D03*
X128370000Y-55145000D03*
X129640000Y-55145000D03*
X130910000Y-55145000D03*
X132180000Y-55145000D03*
X133450000Y-55145000D03*
X124560000Y-56415000D03*
X125830000Y-56415000D03*
X127100000Y-56415000D03*
X128370000Y-56415000D03*
X129640000Y-56415000D03*
X130910000Y-56415000D03*
X132180000Y-56415000D03*
X124560000Y-57685000D03*
X125830000Y-57685000D03*
X127100000Y-57685000D03*
X128370000Y-57685000D03*
X129640000Y-57685000D03*
X130910000Y-57685000D03*
X132180000Y-57685000D03*
X133450000Y-57685000D03*
X124560000Y-58955000D03*
X125830000Y-58955000D03*
X127100000Y-58955000D03*
X128370000Y-58955000D03*
X129640000Y-58955000D03*
X130910000Y-58955000D03*
X132180000Y-58955000D03*
X133450000Y-58955000D03*
X124560000Y-60225000D03*
X125830000Y-60225000D03*
X127100000Y-60225000D03*
X128370000Y-60225000D03*
X129640000Y-60225000D03*
X130910000Y-60225000D03*
X132180000Y-60225000D03*
X133450000Y-60225000D03*
X133450000Y-56415000D03*
X116700000Y-92400000D03*
X111700000Y-80300000D03*
X133400000Y-75000000D03*
X119300000Y-75300000D03*
X126300000Y-73600000D03*
X124100000Y-74600000D03*
X125300000Y-79100000D03*
X114800000Y-80000000D03*
X115500000Y-78200000D03*
X119100000Y-85100000D03*
X117400000Y-82000000D03*
X123900000Y-81600000D03*
X117500000Y-86000000D03*
X122500000Y-83100000D03*
D25*
X106959000Y-76454000D02*
X107696000Y-76454000D01*
X105156000Y-76200000D02*
X106959000Y-76200000D01*
X104288500Y-77067500D02*
X105156000Y-76200000D01*
X104267000Y-77067500D02*
X104288500Y-77067500D01*
X103124000Y-78210500D02*
X104267000Y-77067500D01*
D26*
X119700000Y-80100000D02*
X120200000Y-79600000D01*
X118275000Y-80100000D02*
X119700000Y-80100000D01*
X122125000Y-79600000D02*
X120200000Y-79600000D01*
D27*
X117221000Y-87450000D02*
X117221000Y-88900000D01*
D25*
X106740500Y-73935500D02*
X106959000Y-74154000D01*
X103124000Y-73935500D02*
X106740500Y-73935500D01*
X106959000Y-73900000D02*
X108472000Y-73900000D01*
X110341500Y-72030500D02*
X110341500Y-70358000D01*
X108472000Y-73900000D02*
X110341500Y-72030500D01*
D26*
X108190000Y-73900000D02*
X106959000Y-73900000D01*
D25*
X115904500Y-70358000D02*
X116900000Y-69362500D01*
X110341500Y-70358000D02*
X115904500Y-70358000D01*
X116900000Y-69362500D02*
X121737500Y-69362500D01*
X124560000Y-66540000D02*
X124560000Y-60225000D01*
X121737500Y-69362500D02*
X124560000Y-66540000D01*
D26*
X118275000Y-79100000D02*
X111300000Y-79100000D01*
X111300000Y-79100000D02*
X110600000Y-78400000D01*
X110600000Y-76028000D02*
X108472000Y-73900000D01*
X110600000Y-78400000D02*
X110600000Y-76028000D01*
X119700000Y-81525000D02*
X119700000Y-82200000D01*
D27*
X117221000Y-91121000D02*
X117221000Y-91344698D01*
X117221000Y-90350000D02*
X117221000Y-91121000D01*
D26*
X111700000Y-80300000D02*
X114550000Y-83150000D01*
X118750000Y-83150000D02*
X119700000Y-82200000D01*
X114550000Y-83150000D02*
X118750000Y-83150000D01*
D27*
X117221000Y-91879000D02*
X116700000Y-92400000D01*
X117221000Y-91621000D02*
X117221000Y-91879000D01*
X117221000Y-91741500D02*
X117221000Y-91621000D01*
X117221000Y-91621000D02*
X117221000Y-91121000D01*
D26*
X106959000Y-78500000D02*
X108300000Y-78500000D01*
X110100000Y-80300000D02*
X111700000Y-80300000D01*
X108300000Y-78500000D02*
X110100000Y-80300000D01*
X103400000Y-82800000D02*
X103400000Y-82000000D01*
X103400000Y-82000000D02*
X105200000Y-80200000D01*
X105200000Y-80200000D02*
X106300000Y-80200000D01*
X106959000Y-79541000D02*
X106959000Y-78500000D01*
X106300000Y-80200000D02*
X106959000Y-79541000D01*
X116900000Y-73637500D02*
X116900000Y-76700000D01*
X117875000Y-77675000D02*
X119200000Y-77675000D01*
X116900000Y-76700000D02*
X117875000Y-77675000D01*
X139223000Y-75911000D02*
X140354000Y-74780000D01*
X137795000Y-70649000D02*
X137814000Y-70630000D01*
X137814000Y-70630000D02*
X137814000Y-71786000D01*
X140134000Y-75000000D02*
X140354000Y-74780000D01*
X133400000Y-75000000D02*
X140134000Y-75000000D01*
X119699999Y-75699999D02*
X119300000Y-75300000D01*
X119700000Y-77675000D02*
X119699999Y-75699999D01*
X120700000Y-77675000D02*
X120700000Y-77201978D01*
X120700000Y-77675000D02*
X120700000Y-76300000D01*
X123400000Y-73600000D02*
X126300000Y-73600000D01*
X120700000Y-76300000D02*
X123400000Y-73600000D01*
X120200000Y-72487500D02*
X121487500Y-71200000D01*
X120200000Y-77675000D02*
X120200000Y-72487500D01*
X126187500Y-77112500D02*
X126187500Y-76000000D01*
X124700000Y-78600000D02*
X126187500Y-77112500D01*
X122125000Y-78600000D02*
X124700000Y-78600000D01*
X121200000Y-77675000D02*
X123125000Y-77675000D01*
X123125000Y-77675000D02*
X124100000Y-76700000D01*
X124100000Y-76700000D02*
X124100000Y-74600000D01*
X125250010Y-79149990D02*
X125300000Y-79100000D01*
X122125000Y-79100000D02*
X125300000Y-79100000D01*
X137795000Y-63211000D02*
X139192000Y-61814000D01*
X139192000Y-61814000D02*
X148336000Y-61814000D01*
X149333000Y-62811000D02*
X149333000Y-65388000D01*
X148336000Y-61814000D02*
X149333000Y-62811000D01*
X135971000Y-67200000D02*
X137795000Y-65376000D01*
X134312500Y-67200000D02*
X135971000Y-67200000D01*
X130312500Y-71200000D02*
X134312500Y-67200000D01*
X126112500Y-71200000D02*
X130312500Y-71200000D01*
X149352000Y-81245000D02*
X149352000Y-83918000D01*
X148590000Y-80483000D02*
X149352000Y-81245000D01*
X130812500Y-76000000D02*
X132600000Y-76000000D01*
X132600000Y-76000000D02*
X133800000Y-77200000D01*
X133800000Y-77200000D02*
X133800000Y-79400000D01*
X133800000Y-79400000D02*
X134883000Y-80483000D01*
X138883000Y-80483000D02*
X148590000Y-80483000D01*
X138430000Y-80483000D02*
X138883000Y-80483000D01*
X137814000Y-81414000D02*
X136883000Y-80483000D01*
X137814000Y-83930000D02*
X137814000Y-81414000D01*
X136883000Y-80483000D02*
X138883000Y-80483000D01*
X134883000Y-80483000D02*
X136883000Y-80483000D01*
D27*
X118671000Y-89300000D02*
X120300000Y-89300000D01*
X120300000Y-89300000D02*
X121900000Y-90900000D01*
X121900000Y-90900000D02*
X123000000Y-90900000D01*
X124302000Y-92202000D02*
X125035000Y-92202000D01*
X123000000Y-90900000D02*
X124302000Y-92202000D01*
X121700000Y-90000000D02*
X124895000Y-90000000D01*
X120600000Y-88900000D02*
X121700000Y-90000000D01*
X118671000Y-88900000D02*
X120600000Y-88900000D01*
X118671000Y-88500000D02*
X121200000Y-88500000D01*
X122240000Y-87460000D02*
X124895000Y-87460000D01*
X121200000Y-88500000D02*
X122240000Y-87460000D01*
X108600000Y-90060000D02*
X112460000Y-90060000D01*
X112460000Y-90060000D02*
X113800000Y-91400000D01*
X113800000Y-91400000D02*
X116700000Y-91400000D01*
X116821000Y-91279000D02*
X116700000Y-91400000D01*
X116821000Y-90350000D02*
X116821000Y-91279000D01*
X116421000Y-90350000D02*
X116421000Y-90879000D01*
X116421000Y-90879000D02*
X116300010Y-90999990D01*
X113965688Y-90999990D02*
X110700000Y-87734302D01*
X116300010Y-90999990D02*
X113965688Y-90999990D01*
X108814302Y-87734302D02*
X108600000Y-87520000D01*
X110700000Y-87734302D02*
X108814302Y-87734302D01*
X114634302Y-89700000D02*
X112000000Y-87065698D01*
X115771000Y-89700000D02*
X114634302Y-89700000D01*
X112000000Y-87065698D02*
X112000000Y-86500000D01*
X110480000Y-84980000D02*
X108600000Y-84980000D01*
X112000000Y-86500000D02*
X110480000Y-84980000D01*
X117621000Y-91575802D02*
X117621008Y-91575810D01*
X117621000Y-90350000D02*
X117621000Y-91575802D01*
X117621000Y-91575802D02*
X117621000Y-92879000D01*
X117621000Y-92879000D02*
X117100000Y-93400000D01*
X117100000Y-93400000D02*
X115500000Y-93400000D01*
X114700000Y-92600000D02*
X108600000Y-92600000D01*
X115500000Y-93400000D02*
X114700000Y-92600000D01*
D26*
X103400000Y-85340000D02*
X104240000Y-85340000D01*
X104240000Y-85340000D02*
X105100000Y-86200000D01*
X105100000Y-86200000D02*
X105100000Y-91800000D01*
X105900000Y-92600000D02*
X108600000Y-92600000D01*
X105100000Y-91800000D02*
X105900000Y-92600000D01*
X116700000Y-79600000D02*
X118275000Y-79600000D01*
X116600000Y-79600000D02*
X116700000Y-79600000D01*
X114800000Y-80000000D02*
X115200000Y-79600000D01*
X115200000Y-79600000D02*
X116700000Y-79600000D01*
X118275000Y-78600000D02*
X117100000Y-78600000D01*
D27*
X116700000Y-78200000D02*
X117100000Y-78600000D01*
X115500000Y-78200000D02*
X116700000Y-78200000D01*
D26*
X122125000Y-80600000D02*
X122125000Y-81425000D01*
X123800000Y-83100000D02*
X125500000Y-83100000D01*
X122125000Y-81425000D02*
X123800000Y-83100000D01*
X119200000Y-81525000D02*
X119200000Y-82049972D01*
X118325000Y-81525000D02*
X119200000Y-81525000D01*
X117875000Y-81525000D02*
X118325000Y-81525000D01*
X117400000Y-82000000D02*
X117875000Y-81525000D01*
D27*
X119100000Y-87671000D02*
X118671000Y-88100000D01*
X119100000Y-85100000D02*
X119100000Y-87671000D01*
D26*
X120400000Y-87000000D02*
X120400000Y-86300000D01*
X119729000Y-87671000D02*
X120400000Y-87000000D01*
X119100000Y-87671000D02*
X119729000Y-87671000D01*
X123900000Y-81600000D02*
X123900000Y-80900000D01*
X123100000Y-80100000D02*
X122500000Y-80100000D01*
X122125000Y-80100000D02*
X122500000Y-80100000D01*
D27*
X116821000Y-87450000D02*
X116821000Y-86679000D01*
X116821000Y-86679000D02*
X117500000Y-86000000D01*
X128900000Y-79500000D02*
X127000000Y-79500000D01*
X125700000Y-80800000D02*
X123800000Y-80800000D01*
X127000000Y-79500000D02*
X125700000Y-80800000D01*
D26*
X123800000Y-80800000D02*
X123100000Y-80100000D01*
X123900000Y-80900000D02*
X123800000Y-80800000D01*
D27*
X117128988Y-84400010D02*
X118666743Y-84400010D01*
X114700000Y-86828998D02*
X117128988Y-84400010D01*
X120700000Y-82366753D02*
X120700000Y-81525000D01*
X114700000Y-88634302D02*
X114700000Y-86828998D01*
X114965698Y-88900000D02*
X114700000Y-88634302D01*
X115771000Y-88900000D02*
X114965698Y-88900000D01*
X118766752Y-84300001D02*
X118666743Y-84400010D01*
X119266752Y-83800000D02*
X118933376Y-84133376D01*
X121100000Y-83800000D02*
X119266752Y-83800000D01*
X118933376Y-84133376D02*
X120700000Y-82366753D01*
X118666743Y-84400010D02*
X118933376Y-84133376D01*
X120200000Y-82301054D02*
X118501054Y-84000000D01*
X120200000Y-81525000D02*
X120200000Y-82301054D01*
X116820232Y-84000000D02*
X114300000Y-86520232D01*
X118501054Y-84000000D02*
X116820232Y-84000000D01*
X114300000Y-86520232D02*
X114300000Y-88800000D01*
X114800000Y-89300000D02*
X115771000Y-89300000D01*
X114300000Y-88800000D02*
X114800000Y-89300000D01*
D26*
X114300000Y-85400000D02*
X113600000Y-84700000D01*
X114300000Y-86520232D02*
X114300000Y-85400000D01*
D27*
X121200000Y-81800000D02*
X121200000Y-81525000D01*
X122500000Y-83100000D02*
X121200000Y-81800000D01*
D28*
X173913000Y-79841816D02*
X158548250Y-79837000D01*
X149201032Y-79837000D01*
X149085175Y-79741919D01*
X148931082Y-79659554D01*
X148763882Y-79608835D01*
X148633567Y-79596000D01*
X148590000Y-79591709D01*
X148546433Y-79596000D01*
X136926567Y-79596000D01*
X136883000Y-79591709D01*
X136839433Y-79596000D01*
X135250408Y-79596000D01*
X134927000Y-79272593D01*
X134927000Y-68087000D01*
X135927433Y-68087000D01*
X135971000Y-68091291D01*
X136014567Y-68087000D01*
X136144882Y-68074165D01*
X136312082Y-68023446D01*
X136466175Y-67941081D01*
X136516577Y-67899717D01*
X136537598Y-67969015D01*
X136608355Y-68101392D01*
X136703578Y-68217422D01*
X136819608Y-68312645D01*
X136951985Y-68383402D01*
X137095622Y-68426974D01*
X137245000Y-68441686D01*
X138345000Y-68441686D01*
X138494378Y-68426974D01*
X138638015Y-68383402D01*
X138770392Y-68312645D01*
X138886422Y-68217422D01*
X138981645Y-68101392D01*
X139052402Y-67969015D01*
X139065000Y-67927485D01*
X139077598Y-67969015D01*
X139148355Y-68101392D01*
X139243578Y-68217422D01*
X139359608Y-68312645D01*
X139491985Y-68383402D01*
X139635622Y-68426974D01*
X139785000Y-68441686D01*
X140885000Y-68441686D01*
X141034378Y-68426974D01*
X141178015Y-68383402D01*
X141310392Y-68312645D01*
X141426422Y-68217422D01*
X141521645Y-68101392D01*
X141592402Y-67969015D01*
X141635974Y-67825378D01*
X141650686Y-67676000D01*
X141650686Y-63327000D01*
X148017314Y-63327000D01*
X148017314Y-67688000D01*
X148032026Y-67837378D01*
X148075598Y-67981015D01*
X148146355Y-68113392D01*
X148241578Y-68229422D01*
X148357608Y-68324645D01*
X148489985Y-68395402D01*
X148633622Y-68438974D01*
X148783000Y-68453686D01*
X149883000Y-68453686D01*
X150032378Y-68438974D01*
X150176015Y-68395402D01*
X150308392Y-68324645D01*
X150424422Y-68229422D01*
X150519645Y-68113392D01*
X150590402Y-67981015D01*
X150603000Y-67939485D01*
X150615598Y-67981015D01*
X150686355Y-68113392D01*
X150781578Y-68229422D01*
X150897608Y-68324645D01*
X151029985Y-68395402D01*
X151173622Y-68438974D01*
X151323000Y-68453686D01*
X152423000Y-68453686D01*
X152572378Y-68438974D01*
X152716015Y-68395402D01*
X152848392Y-68324645D01*
X152964422Y-68229422D01*
X153059645Y-68113392D01*
X153130402Y-67981015D01*
X153173974Y-67837378D01*
X153188686Y-67688000D01*
X153188686Y-63327000D01*
X159300000Y-63327000D01*
X159324776Y-63324560D01*
X159348601Y-63317333D01*
X159370557Y-63305597D01*
X159389803Y-63289803D01*
X159405597Y-63270557D01*
X159417333Y-63248601D01*
X159424560Y-63224776D01*
X159427000Y-63200000D01*
X159427000Y-56327000D01*
X173913001Y-56327000D01*
X173913000Y-79841816D01*
G04 #@! TA.AperFunction,Conductor*
D29*
G36*
X173913000Y-79841816D02*
G01*
X158548250Y-79837000D01*
X149201032Y-79837000D01*
X149085175Y-79741919D01*
X148931082Y-79659554D01*
X148763882Y-79608835D01*
X148633567Y-79596000D01*
X148590000Y-79591709D01*
X148546433Y-79596000D01*
X136926567Y-79596000D01*
X136883000Y-79591709D01*
X136839433Y-79596000D01*
X135250408Y-79596000D01*
X134927000Y-79272593D01*
X134927000Y-68087000D01*
X135927433Y-68087000D01*
X135971000Y-68091291D01*
X136014567Y-68087000D01*
X136144882Y-68074165D01*
X136312082Y-68023446D01*
X136466175Y-67941081D01*
X136516577Y-67899717D01*
X136537598Y-67969015D01*
X136608355Y-68101392D01*
X136703578Y-68217422D01*
X136819608Y-68312645D01*
X136951985Y-68383402D01*
X137095622Y-68426974D01*
X137245000Y-68441686D01*
X138345000Y-68441686D01*
X138494378Y-68426974D01*
X138638015Y-68383402D01*
X138770392Y-68312645D01*
X138886422Y-68217422D01*
X138981645Y-68101392D01*
X139052402Y-67969015D01*
X139065000Y-67927485D01*
X139077598Y-67969015D01*
X139148355Y-68101392D01*
X139243578Y-68217422D01*
X139359608Y-68312645D01*
X139491985Y-68383402D01*
X139635622Y-68426974D01*
X139785000Y-68441686D01*
X140885000Y-68441686D01*
X141034378Y-68426974D01*
X141178015Y-68383402D01*
X141310392Y-68312645D01*
X141426422Y-68217422D01*
X141521645Y-68101392D01*
X141592402Y-67969015D01*
X141635974Y-67825378D01*
X141650686Y-67676000D01*
X141650686Y-63327000D01*
X148017314Y-63327000D01*
X148017314Y-67688000D01*
X148032026Y-67837378D01*
X148075598Y-67981015D01*
X148146355Y-68113392D01*
X148241578Y-68229422D01*
X148357608Y-68324645D01*
X148489985Y-68395402D01*
X148633622Y-68438974D01*
X148783000Y-68453686D01*
X149883000Y-68453686D01*
X150032378Y-68438974D01*
X150176015Y-68395402D01*
X150308392Y-68324645D01*
X150424422Y-68229422D01*
X150519645Y-68113392D01*
X150590402Y-67981015D01*
X150603000Y-67939485D01*
X150615598Y-67981015D01*
X150686355Y-68113392D01*
X150781578Y-68229422D01*
X150897608Y-68324645D01*
X151029985Y-68395402D01*
X151173622Y-68438974D01*
X151323000Y-68453686D01*
X152423000Y-68453686D01*
X152572378Y-68438974D01*
X152716015Y-68395402D01*
X152848392Y-68324645D01*
X152964422Y-68229422D01*
X153059645Y-68113392D01*
X153130402Y-67981015D01*
X153173974Y-67837378D01*
X153188686Y-67688000D01*
X153188686Y-63327000D01*
X159300000Y-63327000D01*
X159324776Y-63324560D01*
X159348601Y-63317333D01*
X159370557Y-63305597D01*
X159389803Y-63289803D01*
X159405597Y-63270557D01*
X159417333Y-63248601D01*
X159424560Y-63224776D01*
X159427000Y-63200000D01*
X159427000Y-56327000D01*
X173913001Y-56327000D01*
X173913000Y-79841816D01*
G37*
G04 #@! TD.AperFunction*
D28*
X122765000Y-61941000D02*
X122777201Y-62064882D01*
X122813336Y-62184004D01*
X122872017Y-62293787D01*
X122950987Y-62390013D01*
X123047213Y-62468983D01*
X123156996Y-62527664D01*
X123276118Y-62563799D01*
X123400000Y-62576000D01*
X123671001Y-62576000D01*
X123671000Y-66171764D01*
X121369265Y-68473500D01*
X119164246Y-68473500D01*
X119088405Y-68331613D01*
X118977962Y-68197038D01*
X118843387Y-68086595D01*
X118689852Y-68004528D01*
X118523256Y-67953992D01*
X118350002Y-67936928D01*
X115449998Y-67936928D01*
X115276744Y-67953992D01*
X115110148Y-68004528D01*
X114956613Y-68086595D01*
X114822038Y-68197038D01*
X114711595Y-68331613D01*
X114629528Y-68485148D01*
X114578992Y-68651744D01*
X114561928Y-68824998D01*
X114561928Y-69469000D01*
X111763072Y-69469000D01*
X111763072Y-68849998D01*
X111746008Y-68676744D01*
X111695472Y-68510148D01*
X111613405Y-68356613D01*
X111502962Y-68222038D01*
X111368387Y-68111595D01*
X111214852Y-68029528D01*
X111048256Y-67978992D01*
X110875002Y-67961928D01*
X109799998Y-67961928D01*
X109626744Y-67978992D01*
X109460148Y-68029528D01*
X109306613Y-68111595D01*
X109172038Y-68222038D01*
X109061595Y-68356613D01*
X108979528Y-68510148D01*
X108928992Y-68676744D01*
X108911928Y-68849998D01*
X108911928Y-71750002D01*
X108928992Y-71923256D01*
X108979528Y-72089852D01*
X108995337Y-72119428D01*
X108412784Y-72701981D01*
X108410185Y-72698815D01*
X108313494Y-72619463D01*
X108203180Y-72560498D01*
X108083482Y-72524188D01*
X107959000Y-72511928D01*
X105959000Y-72511928D01*
X105834518Y-72524188D01*
X105714820Y-72560498D01*
X105604506Y-72619463D01*
X105507815Y-72698815D01*
X105428463Y-72795506D01*
X105369498Y-72905820D01*
X105349061Y-72973191D01*
X105312405Y-72904613D01*
X105201962Y-72770038D01*
X105067387Y-72659595D01*
X104913852Y-72577528D01*
X104747256Y-72526992D01*
X104574002Y-72509928D01*
X101673998Y-72509928D01*
X101500744Y-72526992D01*
X101334148Y-72577528D01*
X101180613Y-72659595D01*
X101046038Y-72770038D01*
X100935595Y-72904613D01*
X100853528Y-73058148D01*
X100802992Y-73224744D01*
X100785928Y-73397998D01*
X100785928Y-74473002D01*
X100802992Y-74646256D01*
X100853528Y-74812852D01*
X100935595Y-74966387D01*
X101046038Y-75100962D01*
X101180613Y-75211405D01*
X101334148Y-75293472D01*
X101500744Y-75344008D01*
X101673998Y-75361072D01*
X104574002Y-75361072D01*
X104747256Y-75344008D01*
X104913852Y-75293472D01*
X105067387Y-75211405D01*
X105201962Y-75100962D01*
X105312405Y-74966387D01*
X105362801Y-74872103D01*
X105369498Y-74894180D01*
X105428463Y-75004494D01*
X105507815Y-75101185D01*
X105604506Y-75180537D01*
X105714820Y-75239502D01*
X105834518Y-75275812D01*
X105959000Y-75288072D01*
X107959000Y-75288072D01*
X108083482Y-75275812D01*
X108203180Y-75239502D01*
X108313494Y-75180537D01*
X108410185Y-75101185D01*
X108489537Y-75004494D01*
X108493771Y-74996573D01*
X109840001Y-76342804D01*
X109840000Y-78362677D01*
X109836324Y-78400000D01*
X109840000Y-78437322D01*
X109840000Y-78437332D01*
X109850997Y-78548985D01*
X109881942Y-78650998D01*
X109894454Y-78692246D01*
X109965026Y-78824276D01*
X110004871Y-78872826D01*
X110059999Y-78940001D01*
X110089002Y-78963803D01*
X110665197Y-79540000D01*
X110414803Y-79540000D01*
X108863803Y-77989002D01*
X108840001Y-77959999D01*
X108724276Y-77865026D01*
X108597072Y-77797033D01*
X108597072Y-77750000D01*
X108584812Y-77625518D01*
X108548502Y-77505820D01*
X108489537Y-77395506D01*
X108410185Y-77298815D01*
X108313494Y-77219463D01*
X108203180Y-77160498D01*
X108083482Y-77124188D01*
X107959000Y-77111928D01*
X105959000Y-77111928D01*
X105834518Y-77124188D01*
X105714820Y-77160498D01*
X105604506Y-77219463D01*
X105507815Y-77298815D01*
X105428463Y-77395506D01*
X105369498Y-77505820D01*
X105333188Y-77625518D01*
X105320928Y-77750000D01*
X105320928Y-79250000D01*
X105333188Y-79374482D01*
X105353063Y-79440000D01*
X105237322Y-79440000D01*
X105199999Y-79436324D01*
X105162676Y-79440000D01*
X105162667Y-79440000D01*
X105051014Y-79450997D01*
X104907753Y-79494454D01*
X104775724Y-79565026D01*
X104775722Y-79565027D01*
X104775723Y-79565027D01*
X104688996Y-79636201D01*
X104688992Y-79636205D01*
X104659999Y-79659999D01*
X104636205Y-79688992D01*
X103013271Y-81311928D01*
X102550000Y-81311928D01*
X102425518Y-81324188D01*
X102305820Y-81360498D01*
X102195506Y-81419463D01*
X102098815Y-81498815D01*
X102019463Y-81595506D01*
X101960498Y-81705820D01*
X101924188Y-81825518D01*
X101911928Y-81950000D01*
X101911928Y-83650000D01*
X101924188Y-83774482D01*
X101960498Y-83894180D01*
X102019463Y-84004494D01*
X102098815Y-84101185D01*
X102195506Y-84180537D01*
X102305820Y-84239502D01*
X102378380Y-84261513D01*
X102246525Y-84393368D01*
X102084010Y-84636589D01*
X101972068Y-84906842D01*
X101915000Y-85193740D01*
X101915000Y-85486260D01*
X101972068Y-85773158D01*
X102084010Y-86043411D01*
X102246525Y-86286632D01*
X102453368Y-86493475D01*
X102696589Y-86655990D01*
X102966842Y-86767932D01*
X103253740Y-86825000D01*
X103546260Y-86825000D01*
X103833158Y-86767932D01*
X104103411Y-86655990D01*
X104329872Y-86504674D01*
X104340000Y-86514802D01*
X104340001Y-91762668D01*
X104336324Y-91800000D01*
X104340001Y-91837333D01*
X104350998Y-91948986D01*
X104362200Y-91985914D01*
X104394454Y-92092246D01*
X104465026Y-92224276D01*
X104533535Y-92307753D01*
X104560000Y-92340001D01*
X104588998Y-92363799D01*
X105336201Y-93111002D01*
X105359999Y-93140001D01*
X105475724Y-93234974D01*
X105607753Y-93305546D01*
X105751014Y-93349003D01*
X105862667Y-93360000D01*
X105862677Y-93360000D01*
X105900000Y-93363676D01*
X105937323Y-93360000D01*
X106880717Y-93360000D01*
X106883992Y-93393255D01*
X106934528Y-93559851D01*
X107016595Y-93713387D01*
X107127038Y-93847962D01*
X107261613Y-93958405D01*
X107415149Y-94040472D01*
X107581745Y-94091008D01*
X107754999Y-94108072D01*
X109445001Y-94108072D01*
X109618255Y-94091008D01*
X109784851Y-94040472D01*
X109938387Y-93958405D01*
X110072962Y-93847962D01*
X110183405Y-93713387D01*
X110265472Y-93559851D01*
X110316008Y-93393255D01*
X110321746Y-93335000D01*
X114395554Y-93335000D01*
X114954746Y-93894193D01*
X114977762Y-93922238D01*
X115089680Y-94014087D01*
X115217367Y-94082337D01*
X115327123Y-94115631D01*
X115355915Y-94124365D01*
X115500000Y-94138556D01*
X115536105Y-94135000D01*
X117063895Y-94135000D01*
X117100000Y-94138556D01*
X117136105Y-94135000D01*
X117244085Y-94124365D01*
X117382633Y-94082337D01*
X117510320Y-94014087D01*
X117622238Y-93922238D01*
X117645258Y-93894188D01*
X118115192Y-93424254D01*
X118143238Y-93401238D01*
X118235087Y-93289320D01*
X118303337Y-93161633D01*
X118345365Y-93023085D01*
X118356000Y-92915105D01*
X118356000Y-92915096D01*
X118359555Y-92879001D01*
X118356000Y-92842906D01*
X118356000Y-91611985D01*
X118359563Y-91575809D01*
X118356000Y-91539633D01*
X118356000Y-91323386D01*
X118390927Y-91308919D01*
X118399572Y-91304298D01*
X118503589Y-91234792D01*
X118511165Y-91228574D01*
X118599574Y-91140165D01*
X118605792Y-91132589D01*
X118675298Y-91028572D01*
X118679919Y-91019927D01*
X118727792Y-90904351D01*
X118730637Y-90894972D01*
X118755037Y-90772311D01*
X118755998Y-90762556D01*
X118759072Y-90700000D01*
X118759072Y-90438072D01*
X119021000Y-90438072D01*
X119083556Y-90434998D01*
X119093311Y-90434037D01*
X119215972Y-90409637D01*
X119225351Y-90406792D01*
X119340927Y-90358919D01*
X119349572Y-90354298D01*
X119453589Y-90284792D01*
X119461165Y-90278574D01*
X119549574Y-90190165D01*
X119555792Y-90182589D01*
X119625298Y-90078572D01*
X119629919Y-90069927D01*
X119644386Y-90035000D01*
X119995554Y-90035000D01*
X121354746Y-91394193D01*
X121377762Y-91422238D01*
X121434353Y-91468681D01*
X121489680Y-91514087D01*
X121617366Y-91582337D01*
X121755915Y-91624365D01*
X121900000Y-91638556D01*
X121936105Y-91635000D01*
X122695554Y-91635000D01*
X122789286Y-91728733D01*
X122785498Y-91735820D01*
X122749188Y-91855518D01*
X122736928Y-91980000D01*
X122736928Y-93100000D01*
X122749188Y-93224482D01*
X122785498Y-93344180D01*
X122844463Y-93454494D01*
X122923815Y-93551185D01*
X123020506Y-93630537D01*
X123130820Y-93689502D01*
X123250518Y-93725812D01*
X123375000Y-93738072D01*
X125815000Y-93738072D01*
X125939482Y-93725812D01*
X126059180Y-93689502D01*
X126169494Y-93630537D01*
X126266185Y-93551185D01*
X126345537Y-93454494D01*
X126404502Y-93344180D01*
X126440812Y-93224482D01*
X126453072Y-93100000D01*
X126453072Y-91980000D01*
X126440812Y-91855518D01*
X126404502Y-91735820D01*
X126345537Y-91625506D01*
X126266185Y-91528815D01*
X126169494Y-91449463D01*
X126059180Y-91390498D01*
X125939482Y-91354188D01*
X125815000Y-91341928D01*
X124481375Y-91341928D01*
X124337519Y-91198072D01*
X125815000Y-91198072D01*
X125939482Y-91185812D01*
X126059180Y-91149502D01*
X126169494Y-91090537D01*
X126266185Y-91011185D01*
X126345537Y-90914494D01*
X126404502Y-90804180D01*
X126440812Y-90684482D01*
X126453072Y-90560000D01*
X126453072Y-89440000D01*
X126440812Y-89315518D01*
X126404502Y-89195820D01*
X126345537Y-89085506D01*
X126266185Y-88988815D01*
X126169494Y-88909463D01*
X126059180Y-88850498D01*
X125939482Y-88814188D01*
X125815000Y-88801928D01*
X123375000Y-88801928D01*
X123250518Y-88814188D01*
X123130820Y-88850498D01*
X123020506Y-88909463D01*
X122923815Y-88988815D01*
X122844463Y-89085506D01*
X122785498Y-89195820D01*
X122764512Y-89265000D01*
X122004447Y-89265000D01*
X121740019Y-89000572D01*
X121745258Y-88994188D01*
X122544447Y-88195000D01*
X122764512Y-88195000D01*
X122785498Y-88264180D01*
X122844463Y-88374494D01*
X122923815Y-88471185D01*
X123020506Y-88550537D01*
X123130820Y-88609502D01*
X123250518Y-88645812D01*
X123375000Y-88658072D01*
X125815000Y-88658072D01*
X125939482Y-88645812D01*
X126059180Y-88609502D01*
X126169494Y-88550537D01*
X126266185Y-88471185D01*
X126345537Y-88374494D01*
X126404502Y-88264180D01*
X126440812Y-88144482D01*
X126453072Y-88020000D01*
X126453072Y-86900000D01*
X126440812Y-86775518D01*
X126404502Y-86655820D01*
X126345537Y-86545506D01*
X126266185Y-86448815D01*
X126169494Y-86369463D01*
X126059180Y-86310498D01*
X125939482Y-86274188D01*
X125815000Y-86261928D01*
X123375000Y-86261928D01*
X123250518Y-86274188D01*
X123130820Y-86310498D01*
X123020506Y-86369463D01*
X122923815Y-86448815D01*
X122844463Y-86545506D01*
X122785498Y-86655820D01*
X122764512Y-86725000D01*
X122276096Y-86725000D01*
X122239999Y-86721445D01*
X122203902Y-86725000D01*
X122203895Y-86725000D01*
X122110132Y-86734235D01*
X122095914Y-86735635D01*
X122081522Y-86740001D01*
X121957367Y-86777663D01*
X121829680Y-86845913D01*
X121717762Y-86937762D01*
X121694746Y-86965807D01*
X120895554Y-87765000D01*
X120709802Y-87765000D01*
X120911004Y-87563798D01*
X120940001Y-87540001D01*
X121034974Y-87424276D01*
X121105546Y-87292247D01*
X121145893Y-87159239D01*
X121281612Y-87023520D01*
X121405824Y-86837624D01*
X121491383Y-86631067D01*
X121535000Y-86411788D01*
X121535000Y-86188212D01*
X121491383Y-85968933D01*
X121405824Y-85762376D01*
X121281612Y-85576480D01*
X121123520Y-85418388D01*
X120937624Y-85294176D01*
X120731067Y-85208617D01*
X120511788Y-85165000D01*
X120288212Y-85165000D01*
X120135000Y-85195476D01*
X120135000Y-84998061D01*
X120095226Y-84798102D01*
X120017205Y-84609744D01*
X119967263Y-84535000D01*
X120229868Y-84535000D01*
X120376480Y-84681612D01*
X120562376Y-84805824D01*
X120768933Y-84891383D01*
X120988212Y-84935000D01*
X121211788Y-84935000D01*
X121431067Y-84891383D01*
X121637624Y-84805824D01*
X121823520Y-84681612D01*
X121981612Y-84523520D01*
X122105824Y-84337624D01*
X122191383Y-84131067D01*
X122198497Y-84095304D01*
X122398061Y-84135000D01*
X122601939Y-84135000D01*
X122801898Y-84095226D01*
X122990256Y-84017205D01*
X123159774Y-83903937D01*
X123303937Y-83759774D01*
X123340063Y-83705708D01*
X123375724Y-83734974D01*
X123507753Y-83805546D01*
X123651014Y-83849003D01*
X123762667Y-83860000D01*
X123762675Y-83860000D01*
X123800000Y-83863676D01*
X123837325Y-83860000D01*
X124161928Y-83860000D01*
X124161928Y-84175001D01*
X124178992Y-84348255D01*
X124229528Y-84514851D01*
X124311595Y-84668387D01*
X124422038Y-84802962D01*
X124556613Y-84913405D01*
X124710149Y-84995472D01*
X124876745Y-85046008D01*
X125049999Y-85063072D01*
X125950001Y-85063072D01*
X126123255Y-85046008D01*
X126289851Y-84995472D01*
X126443387Y-84913405D01*
X126577962Y-84802962D01*
X126688405Y-84668387D01*
X126770472Y-84514851D01*
X126821008Y-84348255D01*
X126838072Y-84175001D01*
X126838072Y-82024999D01*
X126821008Y-81851745D01*
X126770472Y-81685149D01*
X126688405Y-81531613D01*
X126577962Y-81397038D01*
X126492621Y-81327000D01*
X134800000Y-81327000D01*
X134824776Y-81324560D01*
X134848601Y-81317333D01*
X134870557Y-81305597D01*
X134889803Y-81289803D01*
X134905597Y-81270557D01*
X134917333Y-81248601D01*
X134918992Y-81243131D01*
X134920322Y-81243000D01*
X136568199Y-81243000D01*
X136687219Y-81362021D01*
X136674498Y-81385820D01*
X136638188Y-81505518D01*
X136625928Y-81630000D01*
X136625928Y-86230000D01*
X136638188Y-86354482D01*
X136674498Y-86474180D01*
X136733463Y-86584494D01*
X136812815Y-86681185D01*
X136909506Y-86760537D01*
X137019820Y-86819502D01*
X137139518Y-86855812D01*
X137264000Y-86868072D01*
X138364000Y-86868072D01*
X138488482Y-86855812D01*
X138608180Y-86819502D01*
X138718494Y-86760537D01*
X138815185Y-86681185D01*
X138894537Y-86584494D01*
X138953502Y-86474180D01*
X138989812Y-86354482D01*
X139002072Y-86230000D01*
X139002072Y-81630000D01*
X138989812Y-81505518D01*
X138953502Y-81385820D01*
X138894537Y-81275506D01*
X138867860Y-81243000D01*
X139300140Y-81243000D01*
X139273463Y-81275506D01*
X139214498Y-81385820D01*
X139178188Y-81505518D01*
X139165928Y-81630000D01*
X139165928Y-86230000D01*
X139178188Y-86354482D01*
X139214498Y-86474180D01*
X139273463Y-86584494D01*
X139352815Y-86681185D01*
X139449506Y-86760537D01*
X139559820Y-86819502D01*
X139679518Y-86855812D01*
X139804000Y-86868072D01*
X140904000Y-86868072D01*
X141028482Y-86855812D01*
X141148180Y-86819502D01*
X141258494Y-86760537D01*
X141355185Y-86681185D01*
X141434537Y-86584494D01*
X141493502Y-86474180D01*
X141529812Y-86354482D01*
X141542072Y-86230000D01*
X141542072Y-81630000D01*
X141529812Y-81505518D01*
X141493502Y-81385820D01*
X141434537Y-81275506D01*
X141407860Y-81243000D01*
X148275199Y-81243000D01*
X148282390Y-81250191D01*
X148271463Y-81263506D01*
X148212498Y-81373820D01*
X148176188Y-81493518D01*
X148163928Y-81618000D01*
X148163928Y-86218000D01*
X148176188Y-86342482D01*
X148212498Y-86462180D01*
X148271463Y-86572494D01*
X148350815Y-86669185D01*
X148447506Y-86748537D01*
X148557820Y-86807502D01*
X148677518Y-86843812D01*
X148802000Y-86856072D01*
X149902000Y-86856072D01*
X150026482Y-86843812D01*
X150146180Y-86807502D01*
X150256494Y-86748537D01*
X150353185Y-86669185D01*
X150432537Y-86572494D01*
X150491502Y-86462180D01*
X150527812Y-86342482D01*
X150540072Y-86218000D01*
X150540072Y-81618000D01*
X150703928Y-81618000D01*
X150703928Y-86218000D01*
X150716188Y-86342482D01*
X150752498Y-86462180D01*
X150811463Y-86572494D01*
X150890815Y-86669185D01*
X150987506Y-86748537D01*
X151097820Y-86807502D01*
X151217518Y-86843812D01*
X151342000Y-86856072D01*
X152442000Y-86856072D01*
X152566482Y-86843812D01*
X152686180Y-86807502D01*
X152796494Y-86748537D01*
X152893185Y-86669185D01*
X152972537Y-86572494D01*
X153031502Y-86462180D01*
X153067812Y-86342482D01*
X153080072Y-86218000D01*
X153080072Y-81618000D01*
X153067812Y-81493518D01*
X153031502Y-81373820D01*
X152972537Y-81263506D01*
X152893185Y-81166815D01*
X152796494Y-81087463D01*
X152686180Y-81028498D01*
X152566482Y-80992188D01*
X152442000Y-80979928D01*
X151342000Y-80979928D01*
X151217518Y-80992188D01*
X151097820Y-81028498D01*
X150987506Y-81087463D01*
X150890815Y-81166815D01*
X150811463Y-81263506D01*
X150752498Y-81373820D01*
X150716188Y-81493518D01*
X150703928Y-81618000D01*
X150540072Y-81618000D01*
X150527812Y-81493518D01*
X150491502Y-81373820D01*
X150432537Y-81263506D01*
X150353185Y-81166815D01*
X150256494Y-81087463D01*
X150146180Y-81028498D01*
X150073869Y-81006563D01*
X150057546Y-80952753D01*
X149986974Y-80820724D01*
X149909236Y-80726000D01*
X158547971Y-80726000D01*
X159473000Y-80726290D01*
X159473000Y-94300000D01*
X159475440Y-94324776D01*
X159482667Y-94348601D01*
X159494403Y-94370557D01*
X159510197Y-94389803D01*
X159529443Y-94405597D01*
X159551399Y-94417333D01*
X159575224Y-94424560D01*
X159600000Y-94427000D01*
X174040000Y-94427000D01*
X174040000Y-102240000D01*
X89360000Y-102240000D01*
X89360000Y-97611716D01*
X149373000Y-97611716D01*
X149373000Y-98188284D01*
X149485482Y-98753775D01*
X149706126Y-99286455D01*
X150026450Y-99765854D01*
X150434146Y-100173550D01*
X150913545Y-100493874D01*
X151446225Y-100714518D01*
X152011716Y-100827000D01*
X152588284Y-100827000D01*
X153153775Y-100714518D01*
X153686455Y-100493874D01*
X154165854Y-100173550D01*
X154573550Y-99765854D01*
X154893874Y-99286455D01*
X155114518Y-98753775D01*
X155227000Y-98188284D01*
X155227000Y-97611716D01*
X155114518Y-97046225D01*
X154893874Y-96513545D01*
X154573550Y-96034146D01*
X154165854Y-95626450D01*
X153686455Y-95306126D01*
X153153775Y-95085482D01*
X152588284Y-94973000D01*
X152011716Y-94973000D01*
X151446225Y-95085482D01*
X150913545Y-95306126D01*
X150434146Y-95626450D01*
X150026450Y-96034146D01*
X149706126Y-96513545D01*
X149485482Y-97046225D01*
X149373000Y-97611716D01*
X89360000Y-97611716D01*
X89360000Y-72011716D01*
X90273000Y-72011716D01*
X90273000Y-72588284D01*
X90385482Y-73153775D01*
X90606126Y-73686455D01*
X90926450Y-74165854D01*
X91334146Y-74573550D01*
X91813545Y-74893874D01*
X92346225Y-75114518D01*
X92911716Y-75227000D01*
X93488284Y-75227000D01*
X94053775Y-75114518D01*
X94586455Y-74893874D01*
X95065854Y-74573550D01*
X95473550Y-74165854D01*
X95793874Y-73686455D01*
X96014518Y-73153775D01*
X96127000Y-72588284D01*
X96127000Y-72011716D01*
X96014518Y-71446225D01*
X95793874Y-70913545D01*
X95473550Y-70434146D01*
X95065854Y-70026450D01*
X94586455Y-69706126D01*
X94053775Y-69485482D01*
X93488284Y-69373000D01*
X92911716Y-69373000D01*
X92346225Y-69485482D01*
X91813545Y-69706126D01*
X91334146Y-70026450D01*
X90926450Y-70434146D01*
X90606126Y-70913545D01*
X90385482Y-71446225D01*
X90273000Y-72011716D01*
X89360000Y-72011716D01*
X89360000Y-60135000D01*
X104400000Y-60135000D01*
X104523882Y-60122799D01*
X104643004Y-60086664D01*
X104752787Y-60027983D01*
X104849013Y-59949013D01*
X104927983Y-59852787D01*
X104986664Y-59743004D01*
X105022799Y-59623882D01*
X105035000Y-59500000D01*
X105035000Y-57335000D01*
X122765000Y-57335000D01*
X122765000Y-61941000D01*
G04 #@! TA.AperFunction,Conductor*
D29*
G36*
X122765000Y-61941000D02*
G01*
X122777201Y-62064882D01*
X122813336Y-62184004D01*
X122872017Y-62293787D01*
X122950987Y-62390013D01*
X123047213Y-62468983D01*
X123156996Y-62527664D01*
X123276118Y-62563799D01*
X123400000Y-62576000D01*
X123671001Y-62576000D01*
X123671000Y-66171764D01*
X121369265Y-68473500D01*
X119164246Y-68473500D01*
X119088405Y-68331613D01*
X118977962Y-68197038D01*
X118843387Y-68086595D01*
X118689852Y-68004528D01*
X118523256Y-67953992D01*
X118350002Y-67936928D01*
X115449998Y-67936928D01*
X115276744Y-67953992D01*
X115110148Y-68004528D01*
X114956613Y-68086595D01*
X114822038Y-68197038D01*
X114711595Y-68331613D01*
X114629528Y-68485148D01*
X114578992Y-68651744D01*
X114561928Y-68824998D01*
X114561928Y-69469000D01*
X111763072Y-69469000D01*
X111763072Y-68849998D01*
X111746008Y-68676744D01*
X111695472Y-68510148D01*
X111613405Y-68356613D01*
X111502962Y-68222038D01*
X111368387Y-68111595D01*
X111214852Y-68029528D01*
X111048256Y-67978992D01*
X110875002Y-67961928D01*
X109799998Y-67961928D01*
X109626744Y-67978992D01*
X109460148Y-68029528D01*
X109306613Y-68111595D01*
X109172038Y-68222038D01*
X109061595Y-68356613D01*
X108979528Y-68510148D01*
X108928992Y-68676744D01*
X108911928Y-68849998D01*
X108911928Y-71750002D01*
X108928992Y-71923256D01*
X108979528Y-72089852D01*
X108995337Y-72119428D01*
X108412784Y-72701981D01*
X108410185Y-72698815D01*
X108313494Y-72619463D01*
X108203180Y-72560498D01*
X108083482Y-72524188D01*
X107959000Y-72511928D01*
X105959000Y-72511928D01*
X105834518Y-72524188D01*
X105714820Y-72560498D01*
X105604506Y-72619463D01*
X105507815Y-72698815D01*
X105428463Y-72795506D01*
X105369498Y-72905820D01*
X105349061Y-72973191D01*
X105312405Y-72904613D01*
X105201962Y-72770038D01*
X105067387Y-72659595D01*
X104913852Y-72577528D01*
X104747256Y-72526992D01*
X104574002Y-72509928D01*
X101673998Y-72509928D01*
X101500744Y-72526992D01*
X101334148Y-72577528D01*
X101180613Y-72659595D01*
X101046038Y-72770038D01*
X100935595Y-72904613D01*
X100853528Y-73058148D01*
X100802992Y-73224744D01*
X100785928Y-73397998D01*
X100785928Y-74473002D01*
X100802992Y-74646256D01*
X100853528Y-74812852D01*
X100935595Y-74966387D01*
X101046038Y-75100962D01*
X101180613Y-75211405D01*
X101334148Y-75293472D01*
X101500744Y-75344008D01*
X101673998Y-75361072D01*
X104574002Y-75361072D01*
X104747256Y-75344008D01*
X104913852Y-75293472D01*
X105067387Y-75211405D01*
X105201962Y-75100962D01*
X105312405Y-74966387D01*
X105362801Y-74872103D01*
X105369498Y-74894180D01*
X105428463Y-75004494D01*
X105507815Y-75101185D01*
X105604506Y-75180537D01*
X105714820Y-75239502D01*
X105834518Y-75275812D01*
X105959000Y-75288072D01*
X107959000Y-75288072D01*
X108083482Y-75275812D01*
X108203180Y-75239502D01*
X108313494Y-75180537D01*
X108410185Y-75101185D01*
X108489537Y-75004494D01*
X108493771Y-74996573D01*
X109840001Y-76342804D01*
X109840000Y-78362677D01*
X109836324Y-78400000D01*
X109840000Y-78437322D01*
X109840000Y-78437332D01*
X109850997Y-78548985D01*
X109881942Y-78650998D01*
X109894454Y-78692246D01*
X109965026Y-78824276D01*
X110004871Y-78872826D01*
X110059999Y-78940001D01*
X110089002Y-78963803D01*
X110665197Y-79540000D01*
X110414803Y-79540000D01*
X108863803Y-77989002D01*
X108840001Y-77959999D01*
X108724276Y-77865026D01*
X108597072Y-77797033D01*
X108597072Y-77750000D01*
X108584812Y-77625518D01*
X108548502Y-77505820D01*
X108489537Y-77395506D01*
X108410185Y-77298815D01*
X108313494Y-77219463D01*
X108203180Y-77160498D01*
X108083482Y-77124188D01*
X107959000Y-77111928D01*
X105959000Y-77111928D01*
X105834518Y-77124188D01*
X105714820Y-77160498D01*
X105604506Y-77219463D01*
X105507815Y-77298815D01*
X105428463Y-77395506D01*
X105369498Y-77505820D01*
X105333188Y-77625518D01*
X105320928Y-77750000D01*
X105320928Y-79250000D01*
X105333188Y-79374482D01*
X105353063Y-79440000D01*
X105237322Y-79440000D01*
X105199999Y-79436324D01*
X105162676Y-79440000D01*
X105162667Y-79440000D01*
X105051014Y-79450997D01*
X104907753Y-79494454D01*
X104775724Y-79565026D01*
X104775722Y-79565027D01*
X104775723Y-79565027D01*
X104688996Y-79636201D01*
X104688992Y-79636205D01*
X104659999Y-79659999D01*
X104636205Y-79688992D01*
X103013271Y-81311928D01*
X102550000Y-81311928D01*
X102425518Y-81324188D01*
X102305820Y-81360498D01*
X102195506Y-81419463D01*
X102098815Y-81498815D01*
X102019463Y-81595506D01*
X101960498Y-81705820D01*
X101924188Y-81825518D01*
X101911928Y-81950000D01*
X101911928Y-83650000D01*
X101924188Y-83774482D01*
X101960498Y-83894180D01*
X102019463Y-84004494D01*
X102098815Y-84101185D01*
X102195506Y-84180537D01*
X102305820Y-84239502D01*
X102378380Y-84261513D01*
X102246525Y-84393368D01*
X102084010Y-84636589D01*
X101972068Y-84906842D01*
X101915000Y-85193740D01*
X101915000Y-85486260D01*
X101972068Y-85773158D01*
X102084010Y-86043411D01*
X102246525Y-86286632D01*
X102453368Y-86493475D01*
X102696589Y-86655990D01*
X102966842Y-86767932D01*
X103253740Y-86825000D01*
X103546260Y-86825000D01*
X103833158Y-86767932D01*
X104103411Y-86655990D01*
X104329872Y-86504674D01*
X104340000Y-86514802D01*
X104340001Y-91762668D01*
X104336324Y-91800000D01*
X104340001Y-91837333D01*
X104350998Y-91948986D01*
X104362200Y-91985914D01*
X104394454Y-92092246D01*
X104465026Y-92224276D01*
X104533535Y-92307753D01*
X104560000Y-92340001D01*
X104588998Y-92363799D01*
X105336201Y-93111002D01*
X105359999Y-93140001D01*
X105475724Y-93234974D01*
X105607753Y-93305546D01*
X105751014Y-93349003D01*
X105862667Y-93360000D01*
X105862677Y-93360000D01*
X105900000Y-93363676D01*
X105937323Y-93360000D01*
X106880717Y-93360000D01*
X106883992Y-93393255D01*
X106934528Y-93559851D01*
X107016595Y-93713387D01*
X107127038Y-93847962D01*
X107261613Y-93958405D01*
X107415149Y-94040472D01*
X107581745Y-94091008D01*
X107754999Y-94108072D01*
X109445001Y-94108072D01*
X109618255Y-94091008D01*
X109784851Y-94040472D01*
X109938387Y-93958405D01*
X110072962Y-93847962D01*
X110183405Y-93713387D01*
X110265472Y-93559851D01*
X110316008Y-93393255D01*
X110321746Y-93335000D01*
X114395554Y-93335000D01*
X114954746Y-93894193D01*
X114977762Y-93922238D01*
X115089680Y-94014087D01*
X115217367Y-94082337D01*
X115327123Y-94115631D01*
X115355915Y-94124365D01*
X115500000Y-94138556D01*
X115536105Y-94135000D01*
X117063895Y-94135000D01*
X117100000Y-94138556D01*
X117136105Y-94135000D01*
X117244085Y-94124365D01*
X117382633Y-94082337D01*
X117510320Y-94014087D01*
X117622238Y-93922238D01*
X117645258Y-93894188D01*
X118115192Y-93424254D01*
X118143238Y-93401238D01*
X118235087Y-93289320D01*
X118303337Y-93161633D01*
X118345365Y-93023085D01*
X118356000Y-92915105D01*
X118356000Y-92915096D01*
X118359555Y-92879001D01*
X118356000Y-92842906D01*
X118356000Y-91611985D01*
X118359563Y-91575809D01*
X118356000Y-91539633D01*
X118356000Y-91323386D01*
X118390927Y-91308919D01*
X118399572Y-91304298D01*
X118503589Y-91234792D01*
X118511165Y-91228574D01*
X118599574Y-91140165D01*
X118605792Y-91132589D01*
X118675298Y-91028572D01*
X118679919Y-91019927D01*
X118727792Y-90904351D01*
X118730637Y-90894972D01*
X118755037Y-90772311D01*
X118755998Y-90762556D01*
X118759072Y-90700000D01*
X118759072Y-90438072D01*
X119021000Y-90438072D01*
X119083556Y-90434998D01*
X119093311Y-90434037D01*
X119215972Y-90409637D01*
X119225351Y-90406792D01*
X119340927Y-90358919D01*
X119349572Y-90354298D01*
X119453589Y-90284792D01*
X119461165Y-90278574D01*
X119549574Y-90190165D01*
X119555792Y-90182589D01*
X119625298Y-90078572D01*
X119629919Y-90069927D01*
X119644386Y-90035000D01*
X119995554Y-90035000D01*
X121354746Y-91394193D01*
X121377762Y-91422238D01*
X121434353Y-91468681D01*
X121489680Y-91514087D01*
X121617366Y-91582337D01*
X121755915Y-91624365D01*
X121900000Y-91638556D01*
X121936105Y-91635000D01*
X122695554Y-91635000D01*
X122789286Y-91728733D01*
X122785498Y-91735820D01*
X122749188Y-91855518D01*
X122736928Y-91980000D01*
X122736928Y-93100000D01*
X122749188Y-93224482D01*
X122785498Y-93344180D01*
X122844463Y-93454494D01*
X122923815Y-93551185D01*
X123020506Y-93630537D01*
X123130820Y-93689502D01*
X123250518Y-93725812D01*
X123375000Y-93738072D01*
X125815000Y-93738072D01*
X125939482Y-93725812D01*
X126059180Y-93689502D01*
X126169494Y-93630537D01*
X126266185Y-93551185D01*
X126345537Y-93454494D01*
X126404502Y-93344180D01*
X126440812Y-93224482D01*
X126453072Y-93100000D01*
X126453072Y-91980000D01*
X126440812Y-91855518D01*
X126404502Y-91735820D01*
X126345537Y-91625506D01*
X126266185Y-91528815D01*
X126169494Y-91449463D01*
X126059180Y-91390498D01*
X125939482Y-91354188D01*
X125815000Y-91341928D01*
X124481375Y-91341928D01*
X124337519Y-91198072D01*
X125815000Y-91198072D01*
X125939482Y-91185812D01*
X126059180Y-91149502D01*
X126169494Y-91090537D01*
X126266185Y-91011185D01*
X126345537Y-90914494D01*
X126404502Y-90804180D01*
X126440812Y-90684482D01*
X126453072Y-90560000D01*
X126453072Y-89440000D01*
X126440812Y-89315518D01*
X126404502Y-89195820D01*
X126345537Y-89085506D01*
X126266185Y-88988815D01*
X126169494Y-88909463D01*
X126059180Y-88850498D01*
X125939482Y-88814188D01*
X125815000Y-88801928D01*
X123375000Y-88801928D01*
X123250518Y-88814188D01*
X123130820Y-88850498D01*
X123020506Y-88909463D01*
X122923815Y-88988815D01*
X122844463Y-89085506D01*
X122785498Y-89195820D01*
X122764512Y-89265000D01*
X122004447Y-89265000D01*
X121740019Y-89000572D01*
X121745258Y-88994188D01*
X122544447Y-88195000D01*
X122764512Y-88195000D01*
X122785498Y-88264180D01*
X122844463Y-88374494D01*
X122923815Y-88471185D01*
X123020506Y-88550537D01*
X123130820Y-88609502D01*
X123250518Y-88645812D01*
X123375000Y-88658072D01*
X125815000Y-88658072D01*
X125939482Y-88645812D01*
X126059180Y-88609502D01*
X126169494Y-88550537D01*
X126266185Y-88471185D01*
X126345537Y-88374494D01*
X126404502Y-88264180D01*
X126440812Y-88144482D01*
X126453072Y-88020000D01*
X126453072Y-86900000D01*
X126440812Y-86775518D01*
X126404502Y-86655820D01*
X126345537Y-86545506D01*
X126266185Y-86448815D01*
X126169494Y-86369463D01*
X126059180Y-86310498D01*
X125939482Y-86274188D01*
X125815000Y-86261928D01*
X123375000Y-86261928D01*
X123250518Y-86274188D01*
X123130820Y-86310498D01*
X123020506Y-86369463D01*
X122923815Y-86448815D01*
X122844463Y-86545506D01*
X122785498Y-86655820D01*
X122764512Y-86725000D01*
X122276096Y-86725000D01*
X122239999Y-86721445D01*
X122203902Y-86725000D01*
X122203895Y-86725000D01*
X122110132Y-86734235D01*
X122095914Y-86735635D01*
X122081522Y-86740001D01*
X121957367Y-86777663D01*
X121829680Y-86845913D01*
X121717762Y-86937762D01*
X121694746Y-86965807D01*
X120895554Y-87765000D01*
X120709802Y-87765000D01*
X120911004Y-87563798D01*
X120940001Y-87540001D01*
X121034974Y-87424276D01*
X121105546Y-87292247D01*
X121145893Y-87159239D01*
X121281612Y-87023520D01*
X121405824Y-86837624D01*
X121491383Y-86631067D01*
X121535000Y-86411788D01*
X121535000Y-86188212D01*
X121491383Y-85968933D01*
X121405824Y-85762376D01*
X121281612Y-85576480D01*
X121123520Y-85418388D01*
X120937624Y-85294176D01*
X120731067Y-85208617D01*
X120511788Y-85165000D01*
X120288212Y-85165000D01*
X120135000Y-85195476D01*
X120135000Y-84998061D01*
X120095226Y-84798102D01*
X120017205Y-84609744D01*
X119967263Y-84535000D01*
X120229868Y-84535000D01*
X120376480Y-84681612D01*
X120562376Y-84805824D01*
X120768933Y-84891383D01*
X120988212Y-84935000D01*
X121211788Y-84935000D01*
X121431067Y-84891383D01*
X121637624Y-84805824D01*
X121823520Y-84681612D01*
X121981612Y-84523520D01*
X122105824Y-84337624D01*
X122191383Y-84131067D01*
X122198497Y-84095304D01*
X122398061Y-84135000D01*
X122601939Y-84135000D01*
X122801898Y-84095226D01*
X122990256Y-84017205D01*
X123159774Y-83903937D01*
X123303937Y-83759774D01*
X123340063Y-83705708D01*
X123375724Y-83734974D01*
X123507753Y-83805546D01*
X123651014Y-83849003D01*
X123762667Y-83860000D01*
X123762675Y-83860000D01*
X123800000Y-83863676D01*
X123837325Y-83860000D01*
X124161928Y-83860000D01*
X124161928Y-84175001D01*
X124178992Y-84348255D01*
X124229528Y-84514851D01*
X124311595Y-84668387D01*
X124422038Y-84802962D01*
X124556613Y-84913405D01*
X124710149Y-84995472D01*
X124876745Y-85046008D01*
X125049999Y-85063072D01*
X125950001Y-85063072D01*
X126123255Y-85046008D01*
X126289851Y-84995472D01*
X126443387Y-84913405D01*
X126577962Y-84802962D01*
X126688405Y-84668387D01*
X126770472Y-84514851D01*
X126821008Y-84348255D01*
X126838072Y-84175001D01*
X126838072Y-82024999D01*
X126821008Y-81851745D01*
X126770472Y-81685149D01*
X126688405Y-81531613D01*
X126577962Y-81397038D01*
X126492621Y-81327000D01*
X134800000Y-81327000D01*
X134824776Y-81324560D01*
X134848601Y-81317333D01*
X134870557Y-81305597D01*
X134889803Y-81289803D01*
X134905597Y-81270557D01*
X134917333Y-81248601D01*
X134918992Y-81243131D01*
X134920322Y-81243000D01*
X136568199Y-81243000D01*
X136687219Y-81362021D01*
X136674498Y-81385820D01*
X136638188Y-81505518D01*
X136625928Y-81630000D01*
X136625928Y-86230000D01*
X136638188Y-86354482D01*
X136674498Y-86474180D01*
X136733463Y-86584494D01*
X136812815Y-86681185D01*
X136909506Y-86760537D01*
X137019820Y-86819502D01*
X137139518Y-86855812D01*
X137264000Y-86868072D01*
X138364000Y-86868072D01*
X138488482Y-86855812D01*
X138608180Y-86819502D01*
X138718494Y-86760537D01*
X138815185Y-86681185D01*
X138894537Y-86584494D01*
X138953502Y-86474180D01*
X138989812Y-86354482D01*
X139002072Y-86230000D01*
X139002072Y-81630000D01*
X138989812Y-81505518D01*
X138953502Y-81385820D01*
X138894537Y-81275506D01*
X138867860Y-81243000D01*
X139300140Y-81243000D01*
X139273463Y-81275506D01*
X139214498Y-81385820D01*
X139178188Y-81505518D01*
X139165928Y-81630000D01*
X139165928Y-86230000D01*
X139178188Y-86354482D01*
X139214498Y-86474180D01*
X139273463Y-86584494D01*
X139352815Y-86681185D01*
X139449506Y-86760537D01*
X139559820Y-86819502D01*
X139679518Y-86855812D01*
X139804000Y-86868072D01*
X140904000Y-86868072D01*
X141028482Y-86855812D01*
X141148180Y-86819502D01*
X141258494Y-86760537D01*
X141355185Y-86681185D01*
X141434537Y-86584494D01*
X141493502Y-86474180D01*
X141529812Y-86354482D01*
X141542072Y-86230000D01*
X141542072Y-81630000D01*
X141529812Y-81505518D01*
X141493502Y-81385820D01*
X141434537Y-81275506D01*
X141407860Y-81243000D01*
X148275199Y-81243000D01*
X148282390Y-81250191D01*
X148271463Y-81263506D01*
X148212498Y-81373820D01*
X148176188Y-81493518D01*
X148163928Y-81618000D01*
X148163928Y-86218000D01*
X148176188Y-86342482D01*
X148212498Y-86462180D01*
X148271463Y-86572494D01*
X148350815Y-86669185D01*
X148447506Y-86748537D01*
X148557820Y-86807502D01*
X148677518Y-86843812D01*
X148802000Y-86856072D01*
X149902000Y-86856072D01*
X150026482Y-86843812D01*
X150146180Y-86807502D01*
X150256494Y-86748537D01*
X150353185Y-86669185D01*
X150432537Y-86572494D01*
X150491502Y-86462180D01*
X150527812Y-86342482D01*
X150540072Y-86218000D01*
X150540072Y-81618000D01*
X150703928Y-81618000D01*
X150703928Y-86218000D01*
X150716188Y-86342482D01*
X150752498Y-86462180D01*
X150811463Y-86572494D01*
X150890815Y-86669185D01*
X150987506Y-86748537D01*
X151097820Y-86807502D01*
X151217518Y-86843812D01*
X151342000Y-86856072D01*
X152442000Y-86856072D01*
X152566482Y-86843812D01*
X152686180Y-86807502D01*
X152796494Y-86748537D01*
X152893185Y-86669185D01*
X152972537Y-86572494D01*
X153031502Y-86462180D01*
X153067812Y-86342482D01*
X153080072Y-86218000D01*
X153080072Y-81618000D01*
X153067812Y-81493518D01*
X153031502Y-81373820D01*
X152972537Y-81263506D01*
X152893185Y-81166815D01*
X152796494Y-81087463D01*
X152686180Y-81028498D01*
X152566482Y-80992188D01*
X152442000Y-80979928D01*
X151342000Y-80979928D01*
X151217518Y-80992188D01*
X151097820Y-81028498D01*
X150987506Y-81087463D01*
X150890815Y-81166815D01*
X150811463Y-81263506D01*
X150752498Y-81373820D01*
X150716188Y-81493518D01*
X150703928Y-81618000D01*
X150540072Y-81618000D01*
X150527812Y-81493518D01*
X150491502Y-81373820D01*
X150432537Y-81263506D01*
X150353185Y-81166815D01*
X150256494Y-81087463D01*
X150146180Y-81028498D01*
X150073869Y-81006563D01*
X150057546Y-80952753D01*
X149986974Y-80820724D01*
X149909236Y-80726000D01*
X158547971Y-80726000D01*
X159473000Y-80726290D01*
X159473000Y-94300000D01*
X159475440Y-94324776D01*
X159482667Y-94348601D01*
X159494403Y-94370557D01*
X159510197Y-94389803D01*
X159529443Y-94405597D01*
X159551399Y-94417333D01*
X159575224Y-94424560D01*
X159600000Y-94427000D01*
X174040000Y-94427000D01*
X174040000Y-102240000D01*
X89360000Y-102240000D01*
X89360000Y-97611716D01*
X149373000Y-97611716D01*
X149373000Y-98188284D01*
X149485482Y-98753775D01*
X149706126Y-99286455D01*
X150026450Y-99765854D01*
X150434146Y-100173550D01*
X150913545Y-100493874D01*
X151446225Y-100714518D01*
X152011716Y-100827000D01*
X152588284Y-100827000D01*
X153153775Y-100714518D01*
X153686455Y-100493874D01*
X154165854Y-100173550D01*
X154573550Y-99765854D01*
X154893874Y-99286455D01*
X155114518Y-98753775D01*
X155227000Y-98188284D01*
X155227000Y-97611716D01*
X155114518Y-97046225D01*
X154893874Y-96513545D01*
X154573550Y-96034146D01*
X154165854Y-95626450D01*
X153686455Y-95306126D01*
X153153775Y-95085482D01*
X152588284Y-94973000D01*
X152011716Y-94973000D01*
X151446225Y-95085482D01*
X150913545Y-95306126D01*
X150434146Y-95626450D01*
X150026450Y-96034146D01*
X149706126Y-96513545D01*
X149485482Y-97046225D01*
X149373000Y-97611716D01*
X89360000Y-97611716D01*
X89360000Y-72011716D01*
X90273000Y-72011716D01*
X90273000Y-72588284D01*
X90385482Y-73153775D01*
X90606126Y-73686455D01*
X90926450Y-74165854D01*
X91334146Y-74573550D01*
X91813545Y-74893874D01*
X92346225Y-75114518D01*
X92911716Y-75227000D01*
X93488284Y-75227000D01*
X94053775Y-75114518D01*
X94586455Y-74893874D01*
X95065854Y-74573550D01*
X95473550Y-74165854D01*
X95793874Y-73686455D01*
X96014518Y-73153775D01*
X96127000Y-72588284D01*
X96127000Y-72011716D01*
X96014518Y-71446225D01*
X95793874Y-70913545D01*
X95473550Y-70434146D01*
X95065854Y-70026450D01*
X94586455Y-69706126D01*
X94053775Y-69485482D01*
X93488284Y-69373000D01*
X92911716Y-69373000D01*
X92346225Y-69485482D01*
X91813545Y-69706126D01*
X91334146Y-70026450D01*
X90926450Y-70434146D01*
X90606126Y-70913545D01*
X90385482Y-71446225D01*
X90273000Y-72011716D01*
X89360000Y-72011716D01*
X89360000Y-60135000D01*
X104400000Y-60135000D01*
X104523882Y-60122799D01*
X104643004Y-60086664D01*
X104752787Y-60027983D01*
X104849013Y-59949013D01*
X104927983Y-59852787D01*
X104986664Y-59743004D01*
X105022799Y-59623882D01*
X105035000Y-59500000D01*
X105035000Y-57335000D01*
X122765000Y-57335000D01*
X122765000Y-61941000D01*
G37*
G04 #@! TD.AperFunction*
D28*
X109536205Y-80811008D02*
X109559999Y-80840001D01*
X109588992Y-80863795D01*
X109588996Y-80863799D01*
X109654072Y-80917205D01*
X109675724Y-80934974D01*
X109807753Y-81005546D01*
X109951014Y-81049003D01*
X110062667Y-81060000D01*
X110062676Y-81060000D01*
X110099999Y-81063676D01*
X110137322Y-81060000D01*
X110996289Y-81060000D01*
X111040226Y-81103937D01*
X111209744Y-81217205D01*
X111398102Y-81295226D01*
X111598061Y-81335000D01*
X111660199Y-81335000D01*
X113935758Y-83610560D01*
X113931067Y-83608617D01*
X113711788Y-83565000D01*
X113488212Y-83565000D01*
X113268933Y-83608617D01*
X113062376Y-83694176D01*
X112876480Y-83818388D01*
X112718388Y-83976480D01*
X112594176Y-84162376D01*
X112508617Y-84368933D01*
X112465000Y-84588212D01*
X112465000Y-84811788D01*
X112508617Y-85031067D01*
X112594176Y-85237624D01*
X112718388Y-85423520D01*
X112876480Y-85581612D01*
X113062376Y-85705824D01*
X113268933Y-85791383D01*
X113488212Y-85835000D01*
X113540001Y-85835000D01*
X113540000Y-86557564D01*
X113550997Y-86669217D01*
X113565000Y-86715380D01*
X113565000Y-87591252D01*
X112735000Y-86761252D01*
X112735000Y-86536105D01*
X112738556Y-86500000D01*
X112724365Y-86355915D01*
X112682337Y-86217366D01*
X112614087Y-86089680D01*
X112582355Y-86051015D01*
X112522238Y-85977762D01*
X112494193Y-85954746D01*
X111025258Y-84485812D01*
X111002238Y-84457762D01*
X110890320Y-84365913D01*
X110762633Y-84297663D01*
X110624085Y-84255635D01*
X110516105Y-84245000D01*
X110480000Y-84241444D01*
X110443895Y-84245000D01*
X110138636Y-84245000D01*
X110082417Y-84139821D01*
X109894345Y-83910655D01*
X109665179Y-83722583D01*
X109403725Y-83582834D01*
X109120032Y-83496776D01*
X108898936Y-83475000D01*
X108301064Y-83475000D01*
X108079968Y-83496776D01*
X107796275Y-83582834D01*
X107534821Y-83722583D01*
X107305655Y-83910655D01*
X107117583Y-84139821D01*
X106977834Y-84401275D01*
X106891776Y-84684968D01*
X106862718Y-84980000D01*
X106891776Y-85275032D01*
X106977834Y-85558725D01*
X107117583Y-85820179D01*
X107305655Y-86049345D01*
X107534821Y-86237417D01*
X107558362Y-86250000D01*
X107534821Y-86262583D01*
X107305655Y-86450655D01*
X107117583Y-86679821D01*
X106977834Y-86941275D01*
X106891776Y-87224968D01*
X106862718Y-87520000D01*
X106891776Y-87815032D01*
X106977834Y-88098725D01*
X107117583Y-88360179D01*
X107305655Y-88589345D01*
X107534821Y-88777417D01*
X107558362Y-88790000D01*
X107534821Y-88802583D01*
X107305655Y-88990655D01*
X107117583Y-89219821D01*
X106977834Y-89481275D01*
X106891776Y-89764968D01*
X106862718Y-90060000D01*
X106891776Y-90355032D01*
X106977834Y-90638725D01*
X107117583Y-90900179D01*
X107305655Y-91129345D01*
X107371114Y-91183066D01*
X107261613Y-91241595D01*
X107127038Y-91352038D01*
X107016595Y-91486613D01*
X106934528Y-91640149D01*
X106883992Y-91806745D01*
X106880717Y-91840000D01*
X106214802Y-91840000D01*
X105860000Y-91485199D01*
X105860000Y-86237325D01*
X105863676Y-86200000D01*
X105860000Y-86162675D01*
X105860000Y-86162667D01*
X105849003Y-86051014D01*
X105805546Y-85907753D01*
X105734974Y-85775724D01*
X105640001Y-85659999D01*
X105611004Y-85636202D01*
X104803803Y-84829002D01*
X104787422Y-84809041D01*
X104715990Y-84636589D01*
X104553475Y-84393368D01*
X104421620Y-84261513D01*
X104494180Y-84239502D01*
X104604494Y-84180537D01*
X104701185Y-84101185D01*
X104780537Y-84004494D01*
X104839502Y-83894180D01*
X104875812Y-83774482D01*
X104888072Y-83650000D01*
X104888072Y-81950000D01*
X104875812Y-81825518D01*
X104839502Y-81705820D01*
X104814938Y-81659864D01*
X105514803Y-80960000D01*
X106262678Y-80960000D01*
X106300000Y-80963676D01*
X106337322Y-80960000D01*
X106337333Y-80960000D01*
X106448986Y-80949003D01*
X106592247Y-80905546D01*
X106724276Y-80834974D01*
X106840001Y-80740001D01*
X106863803Y-80710998D01*
X107470004Y-80104798D01*
X107499001Y-80081001D01*
X107593974Y-79965276D01*
X107635241Y-79888072D01*
X107959000Y-79888072D01*
X108083482Y-79875812D01*
X108203180Y-79839502D01*
X108313494Y-79780537D01*
X108410185Y-79701185D01*
X108417486Y-79692288D01*
X109536205Y-80811008D01*
G04 #@! TA.AperFunction,Conductor*
D29*
G36*
X109536205Y-80811008D02*
G01*
X109559999Y-80840001D01*
X109588992Y-80863795D01*
X109588996Y-80863799D01*
X109654072Y-80917205D01*
X109675724Y-80934974D01*
X109807753Y-81005546D01*
X109951014Y-81049003D01*
X110062667Y-81060000D01*
X110062676Y-81060000D01*
X110099999Y-81063676D01*
X110137322Y-81060000D01*
X110996289Y-81060000D01*
X111040226Y-81103937D01*
X111209744Y-81217205D01*
X111398102Y-81295226D01*
X111598061Y-81335000D01*
X111660199Y-81335000D01*
X113935758Y-83610560D01*
X113931067Y-83608617D01*
X113711788Y-83565000D01*
X113488212Y-83565000D01*
X113268933Y-83608617D01*
X113062376Y-83694176D01*
X112876480Y-83818388D01*
X112718388Y-83976480D01*
X112594176Y-84162376D01*
X112508617Y-84368933D01*
X112465000Y-84588212D01*
X112465000Y-84811788D01*
X112508617Y-85031067D01*
X112594176Y-85237624D01*
X112718388Y-85423520D01*
X112876480Y-85581612D01*
X113062376Y-85705824D01*
X113268933Y-85791383D01*
X113488212Y-85835000D01*
X113540001Y-85835000D01*
X113540000Y-86557564D01*
X113550997Y-86669217D01*
X113565000Y-86715380D01*
X113565000Y-87591252D01*
X112735000Y-86761252D01*
X112735000Y-86536105D01*
X112738556Y-86500000D01*
X112724365Y-86355915D01*
X112682337Y-86217366D01*
X112614087Y-86089680D01*
X112582355Y-86051015D01*
X112522238Y-85977762D01*
X112494193Y-85954746D01*
X111025258Y-84485812D01*
X111002238Y-84457762D01*
X110890320Y-84365913D01*
X110762633Y-84297663D01*
X110624085Y-84255635D01*
X110516105Y-84245000D01*
X110480000Y-84241444D01*
X110443895Y-84245000D01*
X110138636Y-84245000D01*
X110082417Y-84139821D01*
X109894345Y-83910655D01*
X109665179Y-83722583D01*
X109403725Y-83582834D01*
X109120032Y-83496776D01*
X108898936Y-83475000D01*
X108301064Y-83475000D01*
X108079968Y-83496776D01*
X107796275Y-83582834D01*
X107534821Y-83722583D01*
X107305655Y-83910655D01*
X107117583Y-84139821D01*
X106977834Y-84401275D01*
X106891776Y-84684968D01*
X106862718Y-84980000D01*
X106891776Y-85275032D01*
X106977834Y-85558725D01*
X107117583Y-85820179D01*
X107305655Y-86049345D01*
X107534821Y-86237417D01*
X107558362Y-86250000D01*
X107534821Y-86262583D01*
X107305655Y-86450655D01*
X107117583Y-86679821D01*
X106977834Y-86941275D01*
X106891776Y-87224968D01*
X106862718Y-87520000D01*
X106891776Y-87815032D01*
X106977834Y-88098725D01*
X107117583Y-88360179D01*
X107305655Y-88589345D01*
X107534821Y-88777417D01*
X107558362Y-88790000D01*
X107534821Y-88802583D01*
X107305655Y-88990655D01*
X107117583Y-89219821D01*
X106977834Y-89481275D01*
X106891776Y-89764968D01*
X106862718Y-90060000D01*
X106891776Y-90355032D01*
X106977834Y-90638725D01*
X107117583Y-90900179D01*
X107305655Y-91129345D01*
X107371114Y-91183066D01*
X107261613Y-91241595D01*
X107127038Y-91352038D01*
X107016595Y-91486613D01*
X106934528Y-91640149D01*
X106883992Y-91806745D01*
X106880717Y-91840000D01*
X106214802Y-91840000D01*
X105860000Y-91485199D01*
X105860000Y-86237325D01*
X105863676Y-86200000D01*
X105860000Y-86162675D01*
X105860000Y-86162667D01*
X105849003Y-86051014D01*
X105805546Y-85907753D01*
X105734974Y-85775724D01*
X105640001Y-85659999D01*
X105611004Y-85636202D01*
X104803803Y-84829002D01*
X104787422Y-84809041D01*
X104715990Y-84636589D01*
X104553475Y-84393368D01*
X104421620Y-84261513D01*
X104494180Y-84239502D01*
X104604494Y-84180537D01*
X104701185Y-84101185D01*
X104780537Y-84004494D01*
X104839502Y-83894180D01*
X104875812Y-83774482D01*
X104888072Y-83650000D01*
X104888072Y-81950000D01*
X104875812Y-81825518D01*
X104839502Y-81705820D01*
X104814938Y-81659864D01*
X105514803Y-80960000D01*
X106262678Y-80960000D01*
X106300000Y-80963676D01*
X106337322Y-80960000D01*
X106337333Y-80960000D01*
X106448986Y-80949003D01*
X106592247Y-80905546D01*
X106724276Y-80834974D01*
X106840001Y-80740001D01*
X106863803Y-80710998D01*
X107470004Y-80104798D01*
X107499001Y-80081001D01*
X107593974Y-79965276D01*
X107635241Y-79888072D01*
X107959000Y-79888072D01*
X108083482Y-79875812D01*
X108203180Y-79839502D01*
X108313494Y-79780537D01*
X108410185Y-79701185D01*
X108417486Y-79692288D01*
X109536205Y-80811008D01*
G37*
G04 #@! TD.AperFunction*
D28*
X117307686Y-88435696D02*
X117436764Y-88474851D01*
X117571000Y-88488072D01*
X117632928Y-88488072D01*
X117632928Y-88550000D01*
X117646149Y-88684236D01*
X117650931Y-88700000D01*
X117646149Y-88715764D01*
X117632928Y-88850000D01*
X117632928Y-88950000D01*
X117646149Y-89084236D01*
X117650931Y-89100000D01*
X117646149Y-89115764D01*
X117632928Y-89250000D01*
X117632928Y-89311928D01*
X117571000Y-89311928D01*
X117436764Y-89325149D01*
X117421000Y-89329931D01*
X117405236Y-89325149D01*
X117271000Y-89311928D01*
X117171000Y-89311928D01*
X117036764Y-89325149D01*
X117021000Y-89329931D01*
X117005236Y-89325149D01*
X116871000Y-89311928D01*
X116809072Y-89311928D01*
X116809072Y-89250000D01*
X116795851Y-89115764D01*
X116791069Y-89100000D01*
X116795851Y-89084236D01*
X116809072Y-88950000D01*
X116809072Y-88850000D01*
X116795851Y-88715764D01*
X116791069Y-88700000D01*
X116795851Y-88684236D01*
X116809072Y-88550000D01*
X116809072Y-88488072D01*
X116871000Y-88488072D01*
X117005236Y-88474851D01*
X117134314Y-88435696D01*
X117221000Y-88389361D01*
X117307686Y-88435696D01*
G04 #@! TA.AperFunction,Conductor*
D29*
G36*
X117307686Y-88435696D02*
G01*
X117436764Y-88474851D01*
X117571000Y-88488072D01*
X117632928Y-88488072D01*
X117632928Y-88550000D01*
X117646149Y-88684236D01*
X117650931Y-88700000D01*
X117646149Y-88715764D01*
X117632928Y-88850000D01*
X117632928Y-88950000D01*
X117646149Y-89084236D01*
X117650931Y-89100000D01*
X117646149Y-89115764D01*
X117632928Y-89250000D01*
X117632928Y-89311928D01*
X117571000Y-89311928D01*
X117436764Y-89325149D01*
X117421000Y-89329931D01*
X117405236Y-89325149D01*
X117271000Y-89311928D01*
X117171000Y-89311928D01*
X117036764Y-89325149D01*
X117021000Y-89329931D01*
X117005236Y-89325149D01*
X116871000Y-89311928D01*
X116809072Y-89311928D01*
X116809072Y-89250000D01*
X116795851Y-89115764D01*
X116791069Y-89100000D01*
X116795851Y-89084236D01*
X116809072Y-88950000D01*
X116809072Y-88850000D01*
X116795851Y-88715764D01*
X116791069Y-88700000D01*
X116795851Y-88684236D01*
X116809072Y-88550000D01*
X116809072Y-88488072D01*
X116871000Y-88488072D01*
X117005236Y-88474851D01*
X117134314Y-88435696D01*
X117221000Y-88389361D01*
X117307686Y-88435696D01*
G37*
G04 #@! TD.AperFunction*
D28*
X121000825Y-78724611D02*
X121068704Y-78731296D01*
X121075389Y-78799175D01*
X121090807Y-78850000D01*
X121075389Y-78900825D01*
X121061928Y-79037500D01*
X121061928Y-79162500D01*
X121075389Y-79299175D01*
X121115256Y-79430597D01*
X121179996Y-79551717D01*
X121219621Y-79600000D01*
X121179996Y-79648283D01*
X121115256Y-79769403D01*
X121075389Y-79900825D01*
X121061928Y-80037500D01*
X121061928Y-80162500D01*
X121075389Y-80299175D01*
X121090807Y-80350000D01*
X121075389Y-80400825D01*
X121068704Y-80468704D01*
X121000825Y-80475389D01*
X120950000Y-80490807D01*
X120899175Y-80475389D01*
X120762500Y-80461928D01*
X120637500Y-80461928D01*
X120500825Y-80475389D01*
X120450000Y-80490807D01*
X120399175Y-80475389D01*
X120262500Y-80461928D01*
X120137500Y-80461928D01*
X120000825Y-80475389D01*
X119950000Y-80490807D01*
X119899175Y-80475389D01*
X119762500Y-80461928D01*
X119637500Y-80461928D01*
X119500825Y-80475389D01*
X119450000Y-80490807D01*
X119399175Y-80475389D01*
X119331296Y-80468704D01*
X119324611Y-80400825D01*
X119284744Y-80269403D01*
X119220004Y-80148283D01*
X119180379Y-80100000D01*
X119220004Y-80051717D01*
X119284744Y-79930597D01*
X119324611Y-79799175D01*
X119338072Y-79662500D01*
X119338072Y-79537500D01*
X119324611Y-79400825D01*
X119309193Y-79350000D01*
X119324611Y-79299175D01*
X119338072Y-79162500D01*
X119338072Y-79037500D01*
X119324611Y-78900825D01*
X119309193Y-78850000D01*
X119324611Y-78799175D01*
X119331296Y-78731296D01*
X119399175Y-78724611D01*
X119450000Y-78709193D01*
X119500825Y-78724611D01*
X119637500Y-78738072D01*
X119762500Y-78738072D01*
X119899175Y-78724611D01*
X119950000Y-78709193D01*
X120000825Y-78724611D01*
X120137500Y-78738072D01*
X120262500Y-78738072D01*
X120399175Y-78724611D01*
X120450000Y-78709193D01*
X120500825Y-78724611D01*
X120637500Y-78738072D01*
X120762500Y-78738072D01*
X120899175Y-78724611D01*
X120950000Y-78709193D01*
X121000825Y-78724611D01*
G04 #@! TA.AperFunction,Conductor*
D29*
G36*
X121000825Y-78724611D02*
G01*
X121068704Y-78731296D01*
X121075389Y-78799175D01*
X121090807Y-78850000D01*
X121075389Y-78900825D01*
X121061928Y-79037500D01*
X121061928Y-79162500D01*
X121075389Y-79299175D01*
X121115256Y-79430597D01*
X121179996Y-79551717D01*
X121219621Y-79600000D01*
X121179996Y-79648283D01*
X121115256Y-79769403D01*
X121075389Y-79900825D01*
X121061928Y-80037500D01*
X121061928Y-80162500D01*
X121075389Y-80299175D01*
X121090807Y-80350000D01*
X121075389Y-80400825D01*
X121068704Y-80468704D01*
X121000825Y-80475389D01*
X120950000Y-80490807D01*
X120899175Y-80475389D01*
X120762500Y-80461928D01*
X120637500Y-80461928D01*
X120500825Y-80475389D01*
X120450000Y-80490807D01*
X120399175Y-80475389D01*
X120262500Y-80461928D01*
X120137500Y-80461928D01*
X120000825Y-80475389D01*
X119950000Y-80490807D01*
X119899175Y-80475389D01*
X119762500Y-80461928D01*
X119637500Y-80461928D01*
X119500825Y-80475389D01*
X119450000Y-80490807D01*
X119399175Y-80475389D01*
X119331296Y-80468704D01*
X119324611Y-80400825D01*
X119284744Y-80269403D01*
X119220004Y-80148283D01*
X119180379Y-80100000D01*
X119220004Y-80051717D01*
X119284744Y-79930597D01*
X119324611Y-79799175D01*
X119338072Y-79662500D01*
X119338072Y-79537500D01*
X119324611Y-79400825D01*
X119309193Y-79350000D01*
X119324611Y-79299175D01*
X119338072Y-79162500D01*
X119338072Y-79037500D01*
X119324611Y-78900825D01*
X119309193Y-78850000D01*
X119324611Y-78799175D01*
X119331296Y-78731296D01*
X119399175Y-78724611D01*
X119450000Y-78709193D01*
X119500825Y-78724611D01*
X119637500Y-78738072D01*
X119762500Y-78738072D01*
X119899175Y-78724611D01*
X119950000Y-78709193D01*
X120000825Y-78724611D01*
X120137500Y-78738072D01*
X120262500Y-78738072D01*
X120399175Y-78724611D01*
X120450000Y-78709193D01*
X120500825Y-78724611D01*
X120637500Y-78738072D01*
X120762500Y-78738072D01*
X120899175Y-78724611D01*
X120950000Y-78709193D01*
X121000825Y-78724611D01*
G37*
G04 #@! TD.AperFunction*
D28*
X174040001Y-55073000D02*
X158300000Y-55073000D01*
X158275224Y-55075440D01*
X158251399Y-55082667D01*
X158229443Y-55094403D01*
X158210197Y-55110197D01*
X158194403Y-55129443D01*
X158182667Y-55151399D01*
X158175440Y-55175224D01*
X158173000Y-55200000D01*
X158173000Y-61814000D01*
X149410802Y-61814000D01*
X148899804Y-61303002D01*
X148876001Y-61273999D01*
X148760276Y-61179026D01*
X148628247Y-61108454D01*
X148484986Y-61064997D01*
X148373333Y-61054000D01*
X148373322Y-61054000D01*
X148336000Y-61050324D01*
X148298678Y-61054000D01*
X139229322Y-61054000D01*
X139191999Y-61050324D01*
X139154676Y-61054000D01*
X139154667Y-61054000D01*
X139043014Y-61064997D01*
X138899753Y-61108454D01*
X138767724Y-61179026D01*
X138651999Y-61273999D01*
X138628201Y-61302997D01*
X138117198Y-61814000D01*
X123527000Y-61814000D01*
X123527000Y-56700000D01*
X123524560Y-56675224D01*
X123517333Y-56651399D01*
X123505597Y-56629443D01*
X123489803Y-56610197D01*
X123470557Y-56594403D01*
X123448601Y-56582667D01*
X123424776Y-56575440D01*
X123400000Y-56573000D01*
X104400000Y-56573000D01*
X104375224Y-56575440D01*
X104351399Y-56582667D01*
X104329443Y-56594403D01*
X104310197Y-56610197D01*
X104294403Y-56629443D01*
X104282667Y-56651399D01*
X104275440Y-56675224D01*
X104273000Y-56700000D01*
X104273000Y-59373000D01*
X89360000Y-59373000D01*
X89360000Y-47611716D01*
X157973000Y-47611716D01*
X157973000Y-48188284D01*
X158085482Y-48753775D01*
X158306126Y-49286455D01*
X158626450Y-49765854D01*
X159034146Y-50173550D01*
X159513545Y-50493874D01*
X160046225Y-50714518D01*
X160611716Y-50827000D01*
X161188284Y-50827000D01*
X161753775Y-50714518D01*
X162286455Y-50493874D01*
X162765854Y-50173550D01*
X163173550Y-49765854D01*
X163493874Y-49286455D01*
X163714518Y-48753775D01*
X163827000Y-48188284D01*
X163827000Y-47611716D01*
X163714518Y-47046225D01*
X163493874Y-46513545D01*
X163173550Y-46034146D01*
X162765854Y-45626450D01*
X162286455Y-45306126D01*
X161753775Y-45085482D01*
X161188284Y-44973000D01*
X160611716Y-44973000D01*
X160046225Y-45085482D01*
X159513545Y-45306126D01*
X159034146Y-45626450D01*
X158626450Y-46034146D01*
X158306126Y-46513545D01*
X158085482Y-47046225D01*
X157973000Y-47611716D01*
X89360000Y-47611716D01*
X89360000Y-43560000D01*
X174040001Y-43560000D01*
X174040001Y-55073000D01*
G04 #@! TA.AperFunction,Conductor*
D29*
G36*
X174040001Y-55073000D02*
G01*
X158300000Y-55073000D01*
X158275224Y-55075440D01*
X158251399Y-55082667D01*
X158229443Y-55094403D01*
X158210197Y-55110197D01*
X158194403Y-55129443D01*
X158182667Y-55151399D01*
X158175440Y-55175224D01*
X158173000Y-55200000D01*
X158173000Y-61814000D01*
X149410802Y-61814000D01*
X148899804Y-61303002D01*
X148876001Y-61273999D01*
X148760276Y-61179026D01*
X148628247Y-61108454D01*
X148484986Y-61064997D01*
X148373333Y-61054000D01*
X148373322Y-61054000D01*
X148336000Y-61050324D01*
X148298678Y-61054000D01*
X139229322Y-61054000D01*
X139191999Y-61050324D01*
X139154676Y-61054000D01*
X139154667Y-61054000D01*
X139043014Y-61064997D01*
X138899753Y-61108454D01*
X138767724Y-61179026D01*
X138651999Y-61273999D01*
X138628201Y-61302997D01*
X138117198Y-61814000D01*
X123527000Y-61814000D01*
X123527000Y-56700000D01*
X123524560Y-56675224D01*
X123517333Y-56651399D01*
X123505597Y-56629443D01*
X123489803Y-56610197D01*
X123470557Y-56594403D01*
X123448601Y-56582667D01*
X123424776Y-56575440D01*
X123400000Y-56573000D01*
X104400000Y-56573000D01*
X104375224Y-56575440D01*
X104351399Y-56582667D01*
X104329443Y-56594403D01*
X104310197Y-56610197D01*
X104294403Y-56629443D01*
X104282667Y-56651399D01*
X104275440Y-56675224D01*
X104273000Y-56700000D01*
X104273000Y-59373000D01*
X89360000Y-59373000D01*
X89360000Y-47611716D01*
X157973000Y-47611716D01*
X157973000Y-48188284D01*
X158085482Y-48753775D01*
X158306126Y-49286455D01*
X158626450Y-49765854D01*
X159034146Y-50173550D01*
X159513545Y-50493874D01*
X160046225Y-50714518D01*
X160611716Y-50827000D01*
X161188284Y-50827000D01*
X161753775Y-50714518D01*
X162286455Y-50493874D01*
X162765854Y-50173550D01*
X163173550Y-49765854D01*
X163493874Y-49286455D01*
X163714518Y-48753775D01*
X163827000Y-48188284D01*
X163827000Y-47611716D01*
X163714518Y-47046225D01*
X163493874Y-46513545D01*
X163173550Y-46034146D01*
X162765854Y-45626450D01*
X162286455Y-45306126D01*
X161753775Y-45085482D01*
X161188284Y-44973000D01*
X160611716Y-44973000D01*
X160046225Y-45085482D01*
X159513545Y-45306126D01*
X159034146Y-45626450D01*
X158626450Y-46034146D01*
X158306126Y-46513545D01*
X158085482Y-47046225D01*
X157973000Y-47611716D01*
X89360000Y-47611716D01*
X89360000Y-43560000D01*
X174040001Y-43560000D01*
X174040001Y-55073000D01*
G37*
G04 #@! TD.AperFunction*
M02*
