M48
INCH
T1C0.0118
T2C0.0157
T3C0.0315
T4C0.0469
T5C0.0728
T6C0.1260
%
G90
G05
T1
X4.5914Y-3.4764
X4.5914Y-3.5236
X4.6386Y-3.4764
X4.6386Y-3.5236
X4.6909Y-3.0925
X4.6909Y-3.1752
X4.7736Y-3.0925
X4.7736Y-3.1752
T2
X3.585Y-3.05
X3.585Y-3.1
X3.585Y-3.15
X3.585Y-3.2
X3.585Y-3.25
X3.585Y-3.3
X3.585Y-3.35
X3.585Y-3.4
X3.635Y-3.05
X3.635Y-3.1
X3.635Y-3.15
X3.635Y-3.2
X3.635Y-3.25
X3.635Y-3.3
X3.635Y-3.35
X3.635Y-3.4
X3.685Y-3.05
X3.685Y-3.1
X3.685Y-3.15
X3.685Y-3.2
X3.685Y-3.25
X3.685Y-3.3
X3.685Y-3.35
X3.685Y-3.4
X3.735Y-3.05
X3.735Y-3.1
X3.735Y-3.15
X3.735Y-3.2
X3.735Y-3.25
X3.735Y-3.3
X3.735Y-3.35
X3.735Y-3.4
X3.785Y-3.05
X3.785Y-3.1
X3.785Y-3.15
X3.785Y-3.2
X3.785Y-3.25
X3.785Y-3.3
X3.785Y-3.35
X3.785Y-3.4
X3.835Y-3.05
X3.835Y-3.1
X3.835Y-3.15
X3.835Y-3.2
X3.835Y-3.25
X3.835Y-3.3
X3.835Y-3.35
X3.835Y-3.4
X3.885Y-3.05
X3.885Y-3.1
X3.885Y-3.15
X3.885Y-3.2
X3.885Y-3.25
X3.885Y-3.3
X3.885Y-3.35
X3.885Y-3.4
X3.935Y-3.05
X3.935Y-3.1
X3.935Y-3.15
X3.935Y-3.2
X3.935Y-3.25
X3.935Y-3.3
X3.935Y-3.35
X3.935Y-3.4
X4.315Y-3.1142
X4.3268Y-3.0512
X4.437Y-3.6102
X4.5039Y-3.0709
X4.5315Y-3.1654
X4.5925Y-3.2579
X4.5984Y-3.2008
X4.6024Y-3.0197
X4.626Y-3.3858
X4.689Y-3.3504
X4.7126Y-2.9528
X4.8228Y-3.2717
X4.878Y-3.2126
X4.8858Y-2.937
X4.9039Y-2.0211
X4.9039Y-2.0711
X4.9039Y-2.1211
X4.9039Y-2.1711
X4.9039Y-2.2211
X4.9039Y-2.2711
X4.9039Y-2.3211
X4.9039Y-2.3711
X4.9331Y-3.1142
X4.9539Y-2.0211
X4.9539Y-2.0711
X4.9539Y-2.1211
X4.9539Y-2.1711
X4.9539Y-2.2211
X4.9539Y-2.2711
X4.9539Y-2.3211
X4.9539Y-2.3711
X4.9724Y-2.8976
X5.0039Y-2.0211
X5.0039Y-2.0711
X5.0039Y-2.1211
X5.0039Y-2.1711
X5.0039Y-2.2211
X5.0039Y-2.2711
X5.0039Y-2.3211
X5.0039Y-2.3711
X5.0539Y-2.0211
X5.0539Y-2.0711
X5.0539Y-2.1211
X5.0539Y-2.1711
X5.0539Y-2.2211
X5.0539Y-2.2711
X5.0539Y-2.3211
X5.0539Y-2.3711
X5.1039Y-2.0211
X5.1039Y-2.0711
X5.1039Y-2.1211
X5.1039Y-2.1711
X5.1039Y-2.2211
X5.1039Y-2.2711
X5.1039Y-2.3211
X5.1039Y-2.3711
X5.1539Y-2.0211
X5.1539Y-2.0711
X5.1539Y-2.1211
X5.1539Y-2.1711
X5.1539Y-2.2211
X5.1539Y-2.2711
X5.1539Y-2.3211
X5.1539Y-2.3711
X5.2039Y-2.0211
X5.2039Y-2.0711
X5.2039Y-2.1211
X5.2039Y-2.1711
X5.2039Y-2.2211
X5.2039Y-2.2711
X5.2039Y-2.3211
X5.2039Y-2.3711
X5.252Y-2.9528
X5.2539Y-2.0211
X5.2539Y-2.0711
X5.2539Y-2.1211
X5.2539Y-2.1711
X5.2539Y-2.2211
X5.2539Y-2.2711
X5.2539Y-2.3211
X5.2539Y-2.3711
T3
X6.685Y-2.9646
X6.685Y-3.063
T4
X4.2756Y-3.2457
X4.2756Y-3.3457
X4.2756Y-3.4457
X4.2756Y-3.5457
X4.2756Y-3.6457
T5
X3.6204Y-1.8608
X3.6204Y-2.0354
X3.6204Y-2.21
X3.6207Y-3.5301
X3.6207Y-3.7047
X3.6207Y-3.8793
X3.795Y-1.8608
X3.795Y-2.0354
X3.795Y-2.21
X3.7953Y-3.5301
X3.7953Y-3.7047
X3.7953Y-3.8793
X3.9696Y-1.8608
X3.9696Y-2.0354
X3.9696Y-2.21
X3.9699Y-3.5301
X3.9699Y-3.7047
X3.9699Y-3.8793
X6.3687Y-2.3844
X6.3687Y-2.5591
X6.3687Y-2.7337
X6.3687Y-3.2781
X6.3687Y-3.4528
X6.3687Y-3.6274
X6.5433Y-2.3844
X6.5433Y-2.5591
X6.5433Y-2.7337
X6.5433Y-3.2781
X6.5433Y-3.4528
X6.5433Y-3.6274
X6.7179Y-2.3844
X6.7179Y-2.5591
X6.7179Y-2.7337
X6.7179Y-3.2781
X6.7179Y-3.4528
X6.7179Y-3.6274
T6
X3.6693Y-2.8465
X5.9961Y-3.8543
X6.3346Y-1.8858
T0
M30
