G04 #@! TF.GenerationSoftware,KiCad,Pcbnew,(5.1.9)-1*
G04 #@! TF.CreationDate,2021-07-02T11:04:44-04:00*
G04 #@! TF.ProjectId,Motor Controller 2020,4d6f746f-7220-4436-9f6e-74726f6c6c65,rev?*
G04 #@! TF.SameCoordinates,Original*
G04 #@! TF.FileFunction,Copper,L1,Top*
G04 #@! TF.FilePolarity,Positive*
%FSLAX46Y46*%
G04 Gerber Fmt 4.6, Leading zero omitted, Abs format (unit mm)*
G04 Created by KiCad (PCBNEW (5.1.9)-1) date 2021-07-02 11:04:44*
%MOMM*%
%LPD*%
G01*
G04 APERTURE LIST*
G04 #@! TA.AperFunction,Profile*
%ADD10C,0.050000*%
G04 #@! TD*
G04 #@! TA.AperFunction,ComponentPad*
%ADD11C,3.200000*%
G04 #@! TD*
G04 #@! TA.AperFunction,SMDPad,CuDef*
%ADD12R,1.120000X2.440000*%
G04 #@! TD*
G04 #@! TA.AperFunction,ComponentPad*
%ADD13O,2.190000X1.740000*%
G04 #@! TD*
G04 #@! TA.AperFunction,SMDPad,CuDef*
%ADD14R,2.600000X2.600000*%
G04 #@! TD*
G04 #@! TA.AperFunction,ComponentPad*
%ADD15C,0.500000*%
G04 #@! TD*
G04 #@! TA.AperFunction,SMDPad,CuDef*
%ADD16C,0.150000*%
G04 #@! TD*
G04 #@! TA.AperFunction,SMDPad,CuDef*
%ADD17R,1.700000X1.700000*%
G04 #@! TD*
G04 #@! TA.AperFunction,SMDPad,CuDef*
%ADD18C,1.000000*%
G04 #@! TD*
G04 #@! TA.AperFunction,SMDPad,CuDef*
%ADD19R,0.850000X0.300000*%
G04 #@! TD*
G04 #@! TA.AperFunction,SMDPad,CuDef*
%ADD20R,10.800000X9.400000*%
G04 #@! TD*
G04 #@! TA.AperFunction,SMDPad,CuDef*
%ADD21R,1.100000X4.600000*%
G04 #@! TD*
G04 #@! TA.AperFunction,ComponentPad*
%ADD22C,1.600000*%
G04 #@! TD*
G04 #@! TA.AperFunction,ViaPad*
%ADD23C,0.800000*%
G04 #@! TD*
G04 #@! TA.AperFunction,Conductor*
%ADD24C,0.200000*%
G04 #@! TD*
G04 #@! TA.AperFunction,Conductor*
%ADD25C,0.300000*%
G04 #@! TD*
G04 #@! TA.AperFunction,Conductor*
%ADD26C,0.250000*%
G04 #@! TD*
G04 #@! TA.AperFunction,Conductor*
%ADD27C,0.508000*%
G04 #@! TD*
G04 #@! TA.AperFunction,Conductor*
%ADD28C,0.350000*%
G04 #@! TD*
G04 APERTURE END LIST*
D10*
X174700000Y-102900000D02*
X174700000Y-42900000D01*
X88700000Y-42900000D02*
X174700000Y-42900000D01*
X88700000Y-102900000D02*
X88700000Y-42900000D01*
X88700000Y-102900000D02*
X174700000Y-102900000D01*
D11*
G04 #@! TO.P,J4,1*
G04 #@! TO.N,MOTOR+*
X166200000Y-65000000D03*
X166200000Y-69435000D03*
X170635000Y-65000000D03*
X166200000Y-60565000D03*
X161765000Y-65000000D03*
X161765000Y-69435000D03*
X161765000Y-60565000D03*
X170635000Y-60565000D03*
X170635000Y-69435000D03*
G04 #@! TD*
D12*
G04 #@! TO.P,SW1,1*
G04 #@! TO.N,GND*
X124960000Y-96205000D03*
G04 #@! TO.P,SW1,4*
G04 #@! TO.N,ADDR_Select_1*
X130040000Y-87595000D03*
G04 #@! TO.P,SW1,2*
G04 #@! TO.N,GND*
X127500000Y-96205000D03*
G04 #@! TO.P,SW1,5*
G04 #@! TO.N,ADDR_Select_2*
X127500000Y-87595000D03*
G04 #@! TO.P,SW1,3*
G04 #@! TO.N,GND*
X130040000Y-96205000D03*
G04 #@! TO.P,SW1,6*
G04 #@! TO.N,ADDR_Select_3*
X124960000Y-87595000D03*
G04 #@! TD*
G04 #@! TO.P,J3,1*
G04 #@! TO.N,A_RESET*
G04 #@! TA.AperFunction,ComponentPad*
G36*
G01*
X109445001Y-93470000D02*
X107754999Y-93470000D01*
G75*
G02*
X107505000Y-93220001I0J249999D01*
G01*
X107505000Y-91979999D01*
G75*
G02*
X107754999Y-91730000I249999J0D01*
G01*
X109445001Y-91730000D01*
G75*
G02*
X109695000Y-91979999I0J-249999D01*
G01*
X109695000Y-93220001D01*
G75*
G02*
X109445001Y-93470000I-249999J0D01*
G01*
G37*
G04 #@! TD.AperFunction*
D13*
G04 #@! TO.P,J3,2*
G04 #@! TO.N,SCK_SCL*
X108600000Y-90060000D03*
G04 #@! TO.P,J3,3*
G04 #@! TO.N,MISO*
X108600000Y-87520000D03*
G04 #@! TO.P,J3,4*
G04 #@! TO.N,SDA_MOSI*
X108600000Y-84980000D03*
G04 #@! TO.P,J3,5*
G04 #@! TO.N,GNDD*
X108600000Y-82440000D03*
G04 #@! TD*
G04 #@! TO.P,C9,2*
G04 #@! TO.N,GND*
G04 #@! TA.AperFunction,SMDPad,CuDef*
G36*
G01*
X109049997Y-59150000D02*
X118150003Y-59150000D01*
G75*
G02*
X118400000Y-59399997I0J-249997D01*
G01*
X118400000Y-67700003D01*
G75*
G02*
X118150003Y-67950000I-249997J0D01*
G01*
X109049997Y-67950000D01*
G75*
G02*
X108800000Y-67700003I0J249997D01*
G01*
X108800000Y-59399997D01*
G75*
G02*
X109049997Y-59150000I249997J0D01*
G01*
G37*
G04 #@! TD.AperFunction*
G04 #@! TO.P,C9,1*
G04 #@! TO.N,+12V*
G04 #@! TA.AperFunction,SMDPad,CuDef*
G36*
G01*
X109049997Y-45650000D02*
X118150003Y-45650000D01*
G75*
G02*
X118400000Y-45899997I0J-249997D01*
G01*
X118400000Y-54200003D01*
G75*
G02*
X118150003Y-54450000I-249997J0D01*
G01*
X109049997Y-54450000D01*
G75*
G02*
X108800000Y-54200003I0J249997D01*
G01*
X108800000Y-45899997D01*
G75*
G02*
X109049997Y-45650000I249997J0D01*
G01*
G37*
G04 #@! TD.AperFunction*
G04 #@! TD*
D11*
G04 #@! TO.P,J1,1*
G04 #@! TO.N,+12V*
X100828000Y-56135000D03*
X100828000Y-47265000D03*
X91958000Y-47265000D03*
X91958000Y-56135000D03*
X91958000Y-51700000D03*
X96393000Y-47265000D03*
X100828000Y-51700000D03*
X96393000Y-56135000D03*
X96393000Y-51700000D03*
G04 #@! TD*
G04 #@! TO.P,J2,1*
G04 #@! TO.N,GND*
X96400000Y-94100000D03*
X96400000Y-98535000D03*
X100835000Y-94100000D03*
X96400000Y-89665000D03*
X91965000Y-94100000D03*
X91965000Y-98535000D03*
X91965000Y-89665000D03*
X100835000Y-89665000D03*
X100835000Y-98535000D03*
G04 #@! TD*
G04 #@! TO.P,J5,1*
G04 #@! TO.N,MOTOR-*
X170635000Y-92135000D03*
X170635000Y-83265000D03*
X161765000Y-83265000D03*
X161765000Y-92135000D03*
X161765000Y-87700000D03*
X166200000Y-83265000D03*
X170635000Y-87700000D03*
X166200000Y-92135000D03*
X166200000Y-87700000D03*
G04 #@! TD*
G04 #@! TO.P,JP1,1*
G04 #@! TO.N,MOTOR+*
G04 #@! TA.AperFunction,SMDPad,CuDef*
G36*
G01*
X167625001Y-57975000D02*
X164774999Y-57975000D01*
G75*
G02*
X164525000Y-57725001I0J249999D01*
G01*
X164525000Y-56999999D01*
G75*
G02*
X164774999Y-56750000I249999J0D01*
G01*
X167625001Y-56750000D01*
G75*
G02*
X167875000Y-56999999I0J-249999D01*
G01*
X167875000Y-57725001D01*
G75*
G02*
X167625001Y-57975000I-249999J0D01*
G01*
G37*
G04 #@! TD.AperFunction*
G04 #@! TO.P,JP1,2*
G04 #@! TO.N,+12V*
G04 #@! TA.AperFunction,SMDPad,CuDef*
G36*
G01*
X167625001Y-52050000D02*
X164774999Y-52050000D01*
G75*
G02*
X164525000Y-51800001I0J249999D01*
G01*
X164525000Y-51074999D01*
G75*
G02*
X164774999Y-50825000I249999J0D01*
G01*
X167625001Y-50825000D01*
G75*
G02*
X167875000Y-51074999I0J-249999D01*
G01*
X167875000Y-51800001D01*
G75*
G02*
X167625001Y-52050000I-249999J0D01*
G01*
G37*
G04 #@! TD.AperFunction*
G04 #@! TD*
G04 #@! TO.P,R3,1*
G04 #@! TO.N,GHA*
G04 #@! TA.AperFunction,SMDPad,CuDef*
G36*
G01*
X125575000Y-72075001D02*
X125575000Y-69924999D01*
G75*
G02*
X125824999Y-69675000I249999J0D01*
G01*
X126550001Y-69675000D01*
G75*
G02*
X126800000Y-69924999I0J-249999D01*
G01*
X126800000Y-72075001D01*
G75*
G02*
X126550001Y-72325000I-249999J0D01*
G01*
X125824999Y-72325000D01*
G75*
G02*
X125575000Y-72075001I0J249999D01*
G01*
G37*
G04 #@! TD.AperFunction*
G04 #@! TO.P,R3,2*
G04 #@! TO.N,Net-(Q1-Pad1)*
G04 #@! TA.AperFunction,SMDPad,CuDef*
G36*
G01*
X130200000Y-72075001D02*
X130200000Y-69924999D01*
G75*
G02*
X130449999Y-69675000I249999J0D01*
G01*
X131175001Y-69675000D01*
G75*
G02*
X131425000Y-69924999I0J-249999D01*
G01*
X131425000Y-72075001D01*
G75*
G02*
X131175001Y-72325000I-249999J0D01*
G01*
X130449999Y-72325000D01*
G75*
G02*
X130200000Y-72075001I0J249999D01*
G01*
G37*
G04 #@! TD.AperFunction*
G04 #@! TD*
G04 #@! TO.P,R4,2*
G04 #@! TO.N,Net-(Q2-Pad1)*
G04 #@! TA.AperFunction,SMDPad,CuDef*
G36*
G01*
X130200000Y-78475001D02*
X130200000Y-76324999D01*
G75*
G02*
X130449999Y-76075000I249999J0D01*
G01*
X131175001Y-76075000D01*
G75*
G02*
X131425000Y-76324999I0J-249999D01*
G01*
X131425000Y-78475001D01*
G75*
G02*
X131175001Y-78725000I-249999J0D01*
G01*
X130449999Y-78725000D01*
G75*
G02*
X130200000Y-78475001I0J249999D01*
G01*
G37*
G04 #@! TD.AperFunction*
G04 #@! TO.P,R4,1*
G04 #@! TO.N,GLA*
G04 #@! TA.AperFunction,SMDPad,CuDef*
G36*
G01*
X125575000Y-78475001D02*
X125575000Y-76324999D01*
G75*
G02*
X125824999Y-76075000I249999J0D01*
G01*
X126550001Y-76075000D01*
G75*
G02*
X126800000Y-76324999I0J-249999D01*
G01*
X126800000Y-78475001D01*
G75*
G02*
X126550001Y-78725000I-249999J0D01*
G01*
X125824999Y-78725000D01*
G75*
G02*
X125575000Y-78475001I0J249999D01*
G01*
G37*
G04 #@! TD.AperFunction*
G04 #@! TD*
G04 #@! TO.P,C5,1*
G04 #@! TO.N,+12V*
G04 #@! TA.AperFunction,SMDPad,CuDef*
G36*
G01*
X115449998Y-68575000D02*
X118350002Y-68575000D01*
G75*
G02*
X118600000Y-68824998I0J-249998D01*
G01*
X118600000Y-69900002D01*
G75*
G02*
X118350002Y-70150000I-249998J0D01*
G01*
X115449998Y-70150000D01*
G75*
G02*
X115200000Y-69900002I0J249998D01*
G01*
X115200000Y-68824998D01*
G75*
G02*
X115449998Y-68575000I249998J0D01*
G01*
G37*
G04 #@! TD.AperFunction*
G04 #@! TO.P,C5,2*
G04 #@! TO.N,Net-(C5-Pad2)*
G04 #@! TA.AperFunction,SMDPad,CuDef*
G36*
G01*
X115449998Y-72850000D02*
X118350002Y-72850000D01*
G75*
G02*
X118600000Y-73099998I0J-249998D01*
G01*
X118600000Y-74175002D01*
G75*
G02*
X118350002Y-74425000I-249998J0D01*
G01*
X115449998Y-74425000D01*
G75*
G02*
X115200000Y-74175002I0J249998D01*
G01*
X115200000Y-73099998D01*
G75*
G02*
X115449998Y-72850000I249998J0D01*
G01*
G37*
G04 #@! TD.AperFunction*
G04 #@! TD*
G04 #@! TO.P,R1,1*
G04 #@! TO.N,GNDD*
G04 #@! TA.AperFunction,SMDPad,CuDef*
G36*
G01*
X131000000Y-82024999D02*
X131000000Y-84175001D01*
G75*
G02*
X130750001Y-84425000I-249999J0D01*
G01*
X129849999Y-84425000D01*
G75*
G02*
X129600000Y-84175001I0J249999D01*
G01*
X129600000Y-82024999D01*
G75*
G02*
X129849999Y-81775000I249999J0D01*
G01*
X130750001Y-81775000D01*
G75*
G02*
X131000000Y-82024999I0J-249999D01*
G01*
G37*
G04 #@! TD.AperFunction*
G04 #@! TO.P,R1,2*
G04 #@! TO.N,Net-(R1-Pad2)*
G04 #@! TA.AperFunction,SMDPad,CuDef*
G36*
G01*
X126200000Y-82024999D02*
X126200000Y-84175001D01*
G75*
G02*
X125950001Y-84425000I-249999J0D01*
G01*
X125049999Y-84425000D01*
G75*
G02*
X124800000Y-84175001I0J249999D01*
G01*
X124800000Y-82024999D01*
G75*
G02*
X125049999Y-81775000I249999J0D01*
G01*
X125950001Y-81775000D01*
G75*
G02*
X126200000Y-82024999I0J-249999D01*
G01*
G37*
G04 #@! TD.AperFunction*
G04 #@! TD*
G04 #@! TO.P,U2,1*
G04 #@! TO.N,Net-(R1-Pad2)*
G04 #@! TA.AperFunction,SMDPad,CuDef*
G36*
G01*
X122550000Y-80537500D02*
X122550000Y-80662500D01*
G75*
G02*
X122487500Y-80725000I-62500J0D01*
G01*
X121762500Y-80725000D01*
G75*
G02*
X121700000Y-80662500I0J62500D01*
G01*
X121700000Y-80537500D01*
G75*
G02*
X121762500Y-80475000I62500J0D01*
G01*
X122487500Y-80475000D01*
G75*
G02*
X122550000Y-80537500I0J-62500D01*
G01*
G37*
G04 #@! TD.AperFunction*
G04 #@! TO.P,U2,2*
G04 #@! TO.N,Mode*
G04 #@! TA.AperFunction,SMDPad,CuDef*
G36*
G01*
X122550000Y-80037500D02*
X122550000Y-80162500D01*
G75*
G02*
X122487500Y-80225000I-62500J0D01*
G01*
X121762500Y-80225000D01*
G75*
G02*
X121700000Y-80162500I0J62500D01*
G01*
X121700000Y-80037500D01*
G75*
G02*
X121762500Y-79975000I62500J0D01*
G01*
X122487500Y-79975000D01*
G75*
G02*
X122550000Y-80037500I0J-62500D01*
G01*
G37*
G04 #@! TD.AperFunction*
G04 #@! TO.P,U2,3*
G04 #@! TO.N,GNDD*
G04 #@! TA.AperFunction,SMDPad,CuDef*
G36*
G01*
X122550000Y-79537500D02*
X122550000Y-79662500D01*
G75*
G02*
X122487500Y-79725000I-62500J0D01*
G01*
X121762500Y-79725000D01*
G75*
G02*
X121700000Y-79662500I0J62500D01*
G01*
X121700000Y-79537500D01*
G75*
G02*
X121762500Y-79475000I62500J0D01*
G01*
X122487500Y-79475000D01*
G75*
G02*
X122550000Y-79537500I0J-62500D01*
G01*
G37*
G04 #@! TD.AperFunction*
G04 #@! TO.P,U2,4*
G04 #@! TO.N,GLB*
G04 #@! TA.AperFunction,SMDPad,CuDef*
G36*
G01*
X122550000Y-79037500D02*
X122550000Y-79162500D01*
G75*
G02*
X122487500Y-79225000I-62500J0D01*
G01*
X121762500Y-79225000D01*
G75*
G02*
X121700000Y-79162500I0J62500D01*
G01*
X121700000Y-79037500D01*
G75*
G02*
X121762500Y-78975000I62500J0D01*
G01*
X122487500Y-78975000D01*
G75*
G02*
X122550000Y-79037500I0J-62500D01*
G01*
G37*
G04 #@! TD.AperFunction*
G04 #@! TO.P,U2,5*
G04 #@! TO.N,GLA*
G04 #@! TA.AperFunction,SMDPad,CuDef*
G36*
G01*
X122550000Y-78537500D02*
X122550000Y-78662500D01*
G75*
G02*
X122487500Y-78725000I-62500J0D01*
G01*
X121762500Y-78725000D01*
G75*
G02*
X121700000Y-78662500I0J62500D01*
G01*
X121700000Y-78537500D01*
G75*
G02*
X121762500Y-78475000I62500J0D01*
G01*
X122487500Y-78475000D01*
G75*
G02*
X122550000Y-78537500I0J-62500D01*
G01*
G37*
G04 #@! TD.AperFunction*
G04 #@! TO.P,U2,6*
G04 #@! TO.N,GHB*
G04 #@! TA.AperFunction,SMDPad,CuDef*
G36*
G01*
X121325000Y-77312500D02*
X121325000Y-78037500D01*
G75*
G02*
X121262500Y-78100000I-62500J0D01*
G01*
X121137500Y-78100000D01*
G75*
G02*
X121075000Y-78037500I0J62500D01*
G01*
X121075000Y-77312500D01*
G75*
G02*
X121137500Y-77250000I62500J0D01*
G01*
X121262500Y-77250000D01*
G75*
G02*
X121325000Y-77312500I0J-62500D01*
G01*
G37*
G04 #@! TD.AperFunction*
G04 #@! TO.P,U2,7*
G04 #@! TO.N,MOTOR-*
G04 #@! TA.AperFunction,SMDPad,CuDef*
G36*
G01*
X120825000Y-77312500D02*
X120825000Y-78037500D01*
G75*
G02*
X120762500Y-78100000I-62500J0D01*
G01*
X120637500Y-78100000D01*
G75*
G02*
X120575000Y-78037500I0J62500D01*
G01*
X120575000Y-77312500D01*
G75*
G02*
X120637500Y-77250000I62500J0D01*
G01*
X120762500Y-77250000D01*
G75*
G02*
X120825000Y-77312500I0J-62500D01*
G01*
G37*
G04 #@! TD.AperFunction*
G04 #@! TO.P,U2,8*
G04 #@! TO.N,GHA*
G04 #@! TA.AperFunction,SMDPad,CuDef*
G36*
G01*
X120325000Y-77312500D02*
X120325000Y-78037500D01*
G75*
G02*
X120262500Y-78100000I-62500J0D01*
G01*
X120137500Y-78100000D01*
G75*
G02*
X120075000Y-78037500I0J62500D01*
G01*
X120075000Y-77312500D01*
G75*
G02*
X120137500Y-77250000I62500J0D01*
G01*
X120262500Y-77250000D01*
G75*
G02*
X120325000Y-77312500I0J-62500D01*
G01*
G37*
G04 #@! TD.AperFunction*
G04 #@! TO.P,U2,9*
G04 #@! TO.N,MOTOR+*
G04 #@! TA.AperFunction,SMDPad,CuDef*
G36*
G01*
X119825000Y-77312500D02*
X119825000Y-78037500D01*
G75*
G02*
X119762500Y-78100000I-62500J0D01*
G01*
X119637500Y-78100000D01*
G75*
G02*
X119575000Y-78037500I0J62500D01*
G01*
X119575000Y-77312500D01*
G75*
G02*
X119637500Y-77250000I62500J0D01*
G01*
X119762500Y-77250000D01*
G75*
G02*
X119825000Y-77312500I0J-62500D01*
G01*
G37*
G04 #@! TD.AperFunction*
G04 #@! TO.P,U2,10*
G04 #@! TO.N,Net-(C5-Pad2)*
G04 #@! TA.AperFunction,SMDPad,CuDef*
G36*
G01*
X119325000Y-77312500D02*
X119325000Y-78037500D01*
G75*
G02*
X119262500Y-78100000I-62500J0D01*
G01*
X119137500Y-78100000D01*
G75*
G02*
X119075000Y-78037500I0J62500D01*
G01*
X119075000Y-77312500D01*
G75*
G02*
X119137500Y-77250000I62500J0D01*
G01*
X119262500Y-77250000D01*
G75*
G02*
X119325000Y-77312500I0J-62500D01*
G01*
G37*
G04 #@! TD.AperFunction*
G04 #@! TO.P,U2,11*
G04 #@! TO.N,Net-(C3-Pad2)*
G04 #@! TA.AperFunction,SMDPad,CuDef*
G36*
G01*
X118700000Y-78537500D02*
X118700000Y-78662500D01*
G75*
G02*
X118637500Y-78725000I-62500J0D01*
G01*
X117912500Y-78725000D01*
G75*
G02*
X117850000Y-78662500I0J62500D01*
G01*
X117850000Y-78537500D01*
G75*
G02*
X117912500Y-78475000I62500J0D01*
G01*
X118637500Y-78475000D01*
G75*
G02*
X118700000Y-78537500I0J-62500D01*
G01*
G37*
G04 #@! TD.AperFunction*
G04 #@! TO.P,U2,12*
G04 #@! TO.N,+12V*
G04 #@! TA.AperFunction,SMDPad,CuDef*
G36*
G01*
X118700000Y-79037500D02*
X118700000Y-79162500D01*
G75*
G02*
X118637500Y-79225000I-62500J0D01*
G01*
X117912500Y-79225000D01*
G75*
G02*
X117850000Y-79162500I0J62500D01*
G01*
X117850000Y-79037500D01*
G75*
G02*
X117912500Y-78975000I62500J0D01*
G01*
X118637500Y-78975000D01*
G75*
G02*
X118700000Y-79037500I0J-62500D01*
G01*
G37*
G04 #@! TD.AperFunction*
G04 #@! TO.P,U2,13*
G04 #@! TO.N,Net-(C3-Pad1)*
G04 #@! TA.AperFunction,SMDPad,CuDef*
G36*
G01*
X118700000Y-79537500D02*
X118700000Y-79662500D01*
G75*
G02*
X118637500Y-79725000I-62500J0D01*
G01*
X117912500Y-79725000D01*
G75*
G02*
X117850000Y-79662500I0J62500D01*
G01*
X117850000Y-79537500D01*
G75*
G02*
X117912500Y-79475000I62500J0D01*
G01*
X118637500Y-79475000D01*
G75*
G02*
X118700000Y-79537500I0J-62500D01*
G01*
G37*
G04 #@! TD.AperFunction*
G04 #@! TO.P,U2,14*
G04 #@! TO.N,GNDD*
G04 #@! TA.AperFunction,SMDPad,CuDef*
G36*
G01*
X118700000Y-80037500D02*
X118700000Y-80162500D01*
G75*
G02*
X118637500Y-80225000I-62500J0D01*
G01*
X117912500Y-80225000D01*
G75*
G02*
X117850000Y-80162500I0J62500D01*
G01*
X117850000Y-80037500D01*
G75*
G02*
X117912500Y-79975000I62500J0D01*
G01*
X118637500Y-79975000D01*
G75*
G02*
X118700000Y-80037500I0J-62500D01*
G01*
G37*
G04 #@! TD.AperFunction*
G04 #@! TO.P,U2,15*
G04 #@! TO.N,Net-(U2-Pad15)*
G04 #@! TA.AperFunction,SMDPad,CuDef*
G36*
G01*
X118700000Y-80537500D02*
X118700000Y-80662500D01*
G75*
G02*
X118637500Y-80725000I-62500J0D01*
G01*
X117912500Y-80725000D01*
G75*
G02*
X117850000Y-80662500I0J62500D01*
G01*
X117850000Y-80537500D01*
G75*
G02*
X117912500Y-80475000I62500J0D01*
G01*
X118637500Y-80475000D01*
G75*
G02*
X118700000Y-80537500I0J-62500D01*
G01*
G37*
G04 #@! TD.AperFunction*
G04 #@! TO.P,U2,16*
G04 #@! TO.N,Fault*
G04 #@! TA.AperFunction,SMDPad,CuDef*
G36*
G01*
X119325000Y-81162500D02*
X119325000Y-81887500D01*
G75*
G02*
X119262500Y-81950000I-62500J0D01*
G01*
X119137500Y-81950000D01*
G75*
G02*
X119075000Y-81887500I0J62500D01*
G01*
X119075000Y-81162500D01*
G75*
G02*
X119137500Y-81100000I62500J0D01*
G01*
X119262500Y-81100000D01*
G75*
G02*
X119325000Y-81162500I0J-62500D01*
G01*
G37*
G04 #@! TD.AperFunction*
G04 #@! TO.P,U2,17*
G04 #@! TO.N,+5V*
G04 #@! TA.AperFunction,SMDPad,CuDef*
G36*
G01*
X119825000Y-81162500D02*
X119825000Y-81887500D01*
G75*
G02*
X119762500Y-81950000I-62500J0D01*
G01*
X119637500Y-81950000D01*
G75*
G02*
X119575000Y-81887500I0J62500D01*
G01*
X119575000Y-81162500D01*
G75*
G02*
X119637500Y-81100000I62500J0D01*
G01*
X119762500Y-81100000D01*
G75*
G02*
X119825000Y-81162500I0J-62500D01*
G01*
G37*
G04 #@! TD.AperFunction*
G04 #@! TO.P,U2,18*
G04 #@! TO.N,PWM*
G04 #@! TA.AperFunction,SMDPad,CuDef*
G36*
G01*
X120325000Y-81162500D02*
X120325000Y-81887500D01*
G75*
G02*
X120262500Y-81950000I-62500J0D01*
G01*
X120137500Y-81950000D01*
G75*
G02*
X120075000Y-81887500I0J62500D01*
G01*
X120075000Y-81162500D01*
G75*
G02*
X120137500Y-81100000I62500J0D01*
G01*
X120262500Y-81100000D01*
G75*
G02*
X120325000Y-81162500I0J-62500D01*
G01*
G37*
G04 #@! TD.AperFunction*
G04 #@! TO.P,U2,19*
G04 #@! TO.N,Dir*
G04 #@! TA.AperFunction,SMDPad,CuDef*
G36*
G01*
X120825000Y-81162500D02*
X120825000Y-81887500D01*
G75*
G02*
X120762500Y-81950000I-62500J0D01*
G01*
X120637500Y-81950000D01*
G75*
G02*
X120575000Y-81887500I0J62500D01*
G01*
X120575000Y-81162500D01*
G75*
G02*
X120637500Y-81100000I62500J0D01*
G01*
X120762500Y-81100000D01*
G75*
G02*
X120825000Y-81162500I0J-62500D01*
G01*
G37*
G04 #@! TD.AperFunction*
G04 #@! TO.P,U2,20*
G04 #@! TO.N,Net-(C6-Pad1)*
G04 #@! TA.AperFunction,SMDPad,CuDef*
G36*
G01*
X121325000Y-81162500D02*
X121325000Y-81887500D01*
G75*
G02*
X121262500Y-81950000I-62500J0D01*
G01*
X121137500Y-81950000D01*
G75*
G02*
X121075000Y-81887500I0J62500D01*
G01*
X121075000Y-81162500D01*
G75*
G02*
X121137500Y-81100000I62500J0D01*
G01*
X121262500Y-81100000D01*
G75*
G02*
X121325000Y-81162500I0J-62500D01*
G01*
G37*
G04 #@! TD.AperFunction*
D14*
G04 #@! TO.P,U2,21*
G04 #@! TO.N,GNDD*
X120200000Y-79600000D03*
D15*
X121250000Y-80650000D03*
X119150000Y-80650000D03*
X121250000Y-78550000D03*
X119150000Y-78550000D03*
G04 #@! TD*
G04 #@! TO.P,C4,1*
G04 #@! TO.N,GND*
G04 #@! TA.AperFunction,SMDPad,CuDef*
G36*
G01*
X105275000Y-71750002D02*
X105275000Y-68849998D01*
G75*
G02*
X105524998Y-68600000I249998J0D01*
G01*
X106600002Y-68600000D01*
G75*
G02*
X106850000Y-68849998I0J-249998D01*
G01*
X106850000Y-71750002D01*
G75*
G02*
X106600002Y-72000000I-249998J0D01*
G01*
X105524998Y-72000000D01*
G75*
G02*
X105275000Y-71750002I0J249998D01*
G01*
G37*
G04 #@! TD.AperFunction*
G04 #@! TO.P,C4,2*
G04 #@! TO.N,+12V*
G04 #@! TA.AperFunction,SMDPad,CuDef*
G36*
G01*
X109550000Y-71750002D02*
X109550000Y-68849998D01*
G75*
G02*
X109799998Y-68600000I249998J0D01*
G01*
X110875002Y-68600000D01*
G75*
G02*
X111125000Y-68849998I0J-249998D01*
G01*
X111125000Y-71750002D01*
G75*
G02*
X110875002Y-72000000I-249998J0D01*
G01*
X109799998Y-72000000D01*
G75*
G02*
X109550000Y-71750002I0J249998D01*
G01*
G37*
G04 #@! TD.AperFunction*
G04 #@! TD*
G04 #@! TA.AperFunction,SMDPad,CuDef*
D16*
G04 #@! TO.P,U3,1*
G04 #@! TO.N,Net-(U3-Pad1)*
G36*
X118361956Y-89799039D02*
G01*
X118352577Y-89796194D01*
X118343932Y-89791573D01*
X118336356Y-89785355D01*
X118285645Y-89734644D01*
X118279427Y-89727068D01*
X118274806Y-89718423D01*
X118271961Y-89709044D01*
X118271000Y-89699289D01*
X118271000Y-89650000D01*
X118271961Y-89640245D01*
X118274806Y-89630866D01*
X118279427Y-89622221D01*
X118285645Y-89614645D01*
X118293221Y-89608427D01*
X118301866Y-89603806D01*
X118311245Y-89600961D01*
X118321000Y-89600000D01*
X119021000Y-89600000D01*
X119030755Y-89600961D01*
X119040134Y-89603806D01*
X119048779Y-89608427D01*
X119056355Y-89614645D01*
X119062573Y-89622221D01*
X119067194Y-89630866D01*
X119070039Y-89640245D01*
X119071000Y-89650000D01*
X119071000Y-89750000D01*
X119070039Y-89759755D01*
X119067194Y-89769134D01*
X119062573Y-89777779D01*
X119056355Y-89785355D01*
X119048779Y-89791573D01*
X119040134Y-89796194D01*
X119030755Y-89799039D01*
X119021000Y-89800000D01*
X118371711Y-89800000D01*
X118361956Y-89799039D01*
G37*
G04 #@! TD.AperFunction*
G04 #@! TO.P,U3,2*
G04 #@! TO.N,ADDR_Select_3*
G04 #@! TA.AperFunction,SMDPad,CuDef*
G36*
G01*
X119071000Y-89250000D02*
X119071000Y-89350000D01*
G75*
G02*
X119021000Y-89400000I-50000J0D01*
G01*
X118321000Y-89400000D01*
G75*
G02*
X118271000Y-89350000I0J50000D01*
G01*
X118271000Y-89250000D01*
G75*
G02*
X118321000Y-89200000I50000J0D01*
G01*
X119021000Y-89200000D01*
G75*
G02*
X119071000Y-89250000I0J-50000D01*
G01*
G37*
G04 #@! TD.AperFunction*
G04 #@! TO.P,U3,3*
G04 #@! TO.N,ADDR_Select_2*
G04 #@! TA.AperFunction,SMDPad,CuDef*
G36*
G01*
X119071000Y-88850000D02*
X119071000Y-88950000D01*
G75*
G02*
X119021000Y-89000000I-50000J0D01*
G01*
X118321000Y-89000000D01*
G75*
G02*
X118271000Y-88950000I0J50000D01*
G01*
X118271000Y-88850000D01*
G75*
G02*
X118321000Y-88800000I50000J0D01*
G01*
X119021000Y-88800000D01*
G75*
G02*
X119071000Y-88850000I0J-50000D01*
G01*
G37*
G04 #@! TD.AperFunction*
G04 #@! TO.P,U3,4*
G04 #@! TO.N,ADDR_Select_1*
G04 #@! TA.AperFunction,SMDPad,CuDef*
G36*
G01*
X119071000Y-88450000D02*
X119071000Y-88550000D01*
G75*
G02*
X119021000Y-88600000I-50000J0D01*
G01*
X118321000Y-88600000D01*
G75*
G02*
X118271000Y-88550000I0J50000D01*
G01*
X118271000Y-88450000D01*
G75*
G02*
X118321000Y-88400000I50000J0D01*
G01*
X119021000Y-88400000D01*
G75*
G02*
X119071000Y-88450000I0J-50000D01*
G01*
G37*
G04 #@! TD.AperFunction*
G04 #@! TA.AperFunction,SMDPad,CuDef*
G04 #@! TO.P,U3,5*
G04 #@! TO.N,Fault*
G36*
X118311245Y-88199039D02*
G01*
X118301866Y-88196194D01*
X118293221Y-88191573D01*
X118285645Y-88185355D01*
X118279427Y-88177779D01*
X118274806Y-88169134D01*
X118271961Y-88159755D01*
X118271000Y-88150000D01*
X118271000Y-88100711D01*
X118271961Y-88090956D01*
X118274806Y-88081577D01*
X118279427Y-88072932D01*
X118285645Y-88065356D01*
X118336356Y-88014645D01*
X118343932Y-88008427D01*
X118352577Y-88003806D01*
X118361956Y-88000961D01*
X118371711Y-88000000D01*
X119021000Y-88000000D01*
X119030755Y-88000961D01*
X119040134Y-88003806D01*
X119048779Y-88008427D01*
X119056355Y-88014645D01*
X119062573Y-88022221D01*
X119067194Y-88030866D01*
X119070039Y-88040245D01*
X119071000Y-88050000D01*
X119071000Y-88150000D01*
X119070039Y-88159755D01*
X119067194Y-88169134D01*
X119062573Y-88177779D01*
X119056355Y-88185355D01*
X119048779Y-88191573D01*
X119040134Y-88196194D01*
X119030755Y-88199039D01*
X119021000Y-88200000D01*
X118321000Y-88200000D01*
X118311245Y-88199039D01*
G37*
G04 #@! TD.AperFunction*
G04 #@! TA.AperFunction,SMDPad,CuDef*
G04 #@! TO.P,U3,6*
G04 #@! TO.N,Net-(U3-Pad6)*
G36*
X117961245Y-87849039D02*
G01*
X117951866Y-87846194D01*
X117943221Y-87841573D01*
X117935645Y-87835355D01*
X117929427Y-87827779D01*
X117924806Y-87819134D01*
X117921961Y-87809755D01*
X117921000Y-87800000D01*
X117921000Y-87100000D01*
X117921961Y-87090245D01*
X117924806Y-87080866D01*
X117929427Y-87072221D01*
X117935645Y-87064645D01*
X117943221Y-87058427D01*
X117951866Y-87053806D01*
X117961245Y-87050961D01*
X117971000Y-87050000D01*
X118071000Y-87050000D01*
X118080755Y-87050961D01*
X118090134Y-87053806D01*
X118098779Y-87058427D01*
X118106355Y-87064645D01*
X118112573Y-87072221D01*
X118117194Y-87080866D01*
X118120039Y-87090245D01*
X118121000Y-87100000D01*
X118121000Y-87749289D01*
X118120039Y-87759044D01*
X118117194Y-87768423D01*
X118112573Y-87777068D01*
X118106355Y-87784644D01*
X118055644Y-87835355D01*
X118048068Y-87841573D01*
X118039423Y-87846194D01*
X118030044Y-87849039D01*
X118020289Y-87850000D01*
X117971000Y-87850000D01*
X117961245Y-87849039D01*
G37*
G04 #@! TD.AperFunction*
G04 #@! TO.P,U3,7*
G04 #@! TO.N,Net-(U3-Pad7)*
G04 #@! TA.AperFunction,SMDPad,CuDef*
G36*
G01*
X117721000Y-87100000D02*
X117721000Y-87800000D01*
G75*
G02*
X117671000Y-87850000I-50000J0D01*
G01*
X117571000Y-87850000D01*
G75*
G02*
X117521000Y-87800000I0J50000D01*
G01*
X117521000Y-87100000D01*
G75*
G02*
X117571000Y-87050000I50000J0D01*
G01*
X117671000Y-87050000D01*
G75*
G02*
X117721000Y-87100000I0J-50000D01*
G01*
G37*
G04 #@! TD.AperFunction*
G04 #@! TO.P,U3,8*
G04 #@! TO.N,GNDD*
G04 #@! TA.AperFunction,SMDPad,CuDef*
G36*
G01*
X117321000Y-87100000D02*
X117321000Y-87800000D01*
G75*
G02*
X117271000Y-87850000I-50000J0D01*
G01*
X117171000Y-87850000D01*
G75*
G02*
X117121000Y-87800000I0J50000D01*
G01*
X117121000Y-87100000D01*
G75*
G02*
X117171000Y-87050000I50000J0D01*
G01*
X117271000Y-87050000D01*
G75*
G02*
X117321000Y-87100000I0J-50000D01*
G01*
G37*
G04 #@! TD.AperFunction*
G04 #@! TO.P,U3,9*
G04 #@! TO.N,Mode*
G04 #@! TA.AperFunction,SMDPad,CuDef*
G36*
G01*
X116921000Y-87100000D02*
X116921000Y-87800000D01*
G75*
G02*
X116871000Y-87850000I-50000J0D01*
G01*
X116771000Y-87850000D01*
G75*
G02*
X116721000Y-87800000I0J50000D01*
G01*
X116721000Y-87100000D01*
G75*
G02*
X116771000Y-87050000I50000J0D01*
G01*
X116871000Y-87050000D01*
G75*
G02*
X116921000Y-87100000I0J-50000D01*
G01*
G37*
G04 #@! TD.AperFunction*
G04 #@! TA.AperFunction,SMDPad,CuDef*
G04 #@! TO.P,U3,10*
G04 #@! TO.N,Net-(U3-Pad10)*
G36*
X116411956Y-87849039D02*
G01*
X116402577Y-87846194D01*
X116393932Y-87841573D01*
X116386356Y-87835355D01*
X116335645Y-87784644D01*
X116329427Y-87777068D01*
X116324806Y-87768423D01*
X116321961Y-87759044D01*
X116321000Y-87749289D01*
X116321000Y-87100000D01*
X116321961Y-87090245D01*
X116324806Y-87080866D01*
X116329427Y-87072221D01*
X116335645Y-87064645D01*
X116343221Y-87058427D01*
X116351866Y-87053806D01*
X116361245Y-87050961D01*
X116371000Y-87050000D01*
X116471000Y-87050000D01*
X116480755Y-87050961D01*
X116490134Y-87053806D01*
X116498779Y-87058427D01*
X116506355Y-87064645D01*
X116512573Y-87072221D01*
X116517194Y-87080866D01*
X116520039Y-87090245D01*
X116521000Y-87100000D01*
X116521000Y-87800000D01*
X116520039Y-87809755D01*
X116517194Y-87819134D01*
X116512573Y-87827779D01*
X116506355Y-87835355D01*
X116498779Y-87841573D01*
X116490134Y-87846194D01*
X116480755Y-87849039D01*
X116471000Y-87850000D01*
X116421711Y-87850000D01*
X116411956Y-87849039D01*
G37*
G04 #@! TD.AperFunction*
G04 #@! TA.AperFunction,SMDPad,CuDef*
G04 #@! TO.P,U3,11*
G04 #@! TO.N,Net-(U3-Pad11)*
G36*
X115411245Y-88199039D02*
G01*
X115401866Y-88196194D01*
X115393221Y-88191573D01*
X115385645Y-88185355D01*
X115379427Y-88177779D01*
X115374806Y-88169134D01*
X115371961Y-88159755D01*
X115371000Y-88150000D01*
X115371000Y-88050000D01*
X115371961Y-88040245D01*
X115374806Y-88030866D01*
X115379427Y-88022221D01*
X115385645Y-88014645D01*
X115393221Y-88008427D01*
X115401866Y-88003806D01*
X115411245Y-88000961D01*
X115421000Y-88000000D01*
X116070289Y-88000000D01*
X116080044Y-88000961D01*
X116089423Y-88003806D01*
X116098068Y-88008427D01*
X116105644Y-88014645D01*
X116156355Y-88065356D01*
X116162573Y-88072932D01*
X116167194Y-88081577D01*
X116170039Y-88090956D01*
X116171000Y-88100711D01*
X116171000Y-88150000D01*
X116170039Y-88159755D01*
X116167194Y-88169134D01*
X116162573Y-88177779D01*
X116156355Y-88185355D01*
X116148779Y-88191573D01*
X116140134Y-88196194D01*
X116130755Y-88199039D01*
X116121000Y-88200000D01*
X115421000Y-88200000D01*
X115411245Y-88199039D01*
G37*
G04 #@! TD.AperFunction*
G04 #@! TO.P,U3,12*
G04 #@! TO.N,Net-(U3-Pad12)*
G04 #@! TA.AperFunction,SMDPad,CuDef*
G36*
G01*
X116171000Y-88450000D02*
X116171000Y-88550000D01*
G75*
G02*
X116121000Y-88600000I-50000J0D01*
G01*
X115421000Y-88600000D01*
G75*
G02*
X115371000Y-88550000I0J50000D01*
G01*
X115371000Y-88450000D01*
G75*
G02*
X115421000Y-88400000I50000J0D01*
G01*
X116121000Y-88400000D01*
G75*
G02*
X116171000Y-88450000I0J-50000D01*
G01*
G37*
G04 #@! TD.AperFunction*
G04 #@! TO.P,U3,13*
G04 #@! TO.N,Dir*
G04 #@! TA.AperFunction,SMDPad,CuDef*
G36*
G01*
X116171000Y-88850000D02*
X116171000Y-88950000D01*
G75*
G02*
X116121000Y-89000000I-50000J0D01*
G01*
X115421000Y-89000000D01*
G75*
G02*
X115371000Y-88950000I0J50000D01*
G01*
X115371000Y-88850000D01*
G75*
G02*
X115421000Y-88800000I50000J0D01*
G01*
X116121000Y-88800000D01*
G75*
G02*
X116171000Y-88850000I0J-50000D01*
G01*
G37*
G04 #@! TD.AperFunction*
G04 #@! TO.P,U3,14*
G04 #@! TO.N,PWM*
G04 #@! TA.AperFunction,SMDPad,CuDef*
G36*
G01*
X116171000Y-89250000D02*
X116171000Y-89350000D01*
G75*
G02*
X116121000Y-89400000I-50000J0D01*
G01*
X115421000Y-89400000D01*
G75*
G02*
X115371000Y-89350000I0J50000D01*
G01*
X115371000Y-89250000D01*
G75*
G02*
X115421000Y-89200000I50000J0D01*
G01*
X116121000Y-89200000D01*
G75*
G02*
X116171000Y-89250000I0J-50000D01*
G01*
G37*
G04 #@! TD.AperFunction*
G04 #@! TA.AperFunction,SMDPad,CuDef*
G04 #@! TO.P,U3,15*
G04 #@! TO.N,SDA_MOSI*
G36*
X115411245Y-89799039D02*
G01*
X115401866Y-89796194D01*
X115393221Y-89791573D01*
X115385645Y-89785355D01*
X115379427Y-89777779D01*
X115374806Y-89769134D01*
X115371961Y-89759755D01*
X115371000Y-89750000D01*
X115371000Y-89650000D01*
X115371961Y-89640245D01*
X115374806Y-89630866D01*
X115379427Y-89622221D01*
X115385645Y-89614645D01*
X115393221Y-89608427D01*
X115401866Y-89603806D01*
X115411245Y-89600961D01*
X115421000Y-89600000D01*
X116121000Y-89600000D01*
X116130755Y-89600961D01*
X116140134Y-89603806D01*
X116148779Y-89608427D01*
X116156355Y-89614645D01*
X116162573Y-89622221D01*
X116167194Y-89630866D01*
X116170039Y-89640245D01*
X116171000Y-89650000D01*
X116171000Y-89699289D01*
X116170039Y-89709044D01*
X116167194Y-89718423D01*
X116162573Y-89727068D01*
X116156355Y-89734644D01*
X116105644Y-89785355D01*
X116098068Y-89791573D01*
X116089423Y-89796194D01*
X116080044Y-89799039D01*
X116070289Y-89800000D01*
X115421000Y-89800000D01*
X115411245Y-89799039D01*
G37*
G04 #@! TD.AperFunction*
G04 #@! TA.AperFunction,SMDPad,CuDef*
G04 #@! TO.P,U3,16*
G04 #@! TO.N,MISO*
G36*
X116361245Y-90749039D02*
G01*
X116351866Y-90746194D01*
X116343221Y-90741573D01*
X116335645Y-90735355D01*
X116329427Y-90727779D01*
X116324806Y-90719134D01*
X116321961Y-90709755D01*
X116321000Y-90700000D01*
X116321000Y-90050711D01*
X116321961Y-90040956D01*
X116324806Y-90031577D01*
X116329427Y-90022932D01*
X116335645Y-90015356D01*
X116386356Y-89964645D01*
X116393932Y-89958427D01*
X116402577Y-89953806D01*
X116411956Y-89950961D01*
X116421711Y-89950000D01*
X116471000Y-89950000D01*
X116480755Y-89950961D01*
X116490134Y-89953806D01*
X116498779Y-89958427D01*
X116506355Y-89964645D01*
X116512573Y-89972221D01*
X116517194Y-89980866D01*
X116520039Y-89990245D01*
X116521000Y-90000000D01*
X116521000Y-90700000D01*
X116520039Y-90709755D01*
X116517194Y-90719134D01*
X116512573Y-90727779D01*
X116506355Y-90735355D01*
X116498779Y-90741573D01*
X116490134Y-90746194D01*
X116480755Y-90749039D01*
X116471000Y-90750000D01*
X116371000Y-90750000D01*
X116361245Y-90749039D01*
G37*
G04 #@! TD.AperFunction*
G04 #@! TO.P,U3,17*
G04 #@! TO.N,SCK_SCL*
G04 #@! TA.AperFunction,SMDPad,CuDef*
G36*
G01*
X116921000Y-90000000D02*
X116921000Y-90700000D01*
G75*
G02*
X116871000Y-90750000I-50000J0D01*
G01*
X116771000Y-90750000D01*
G75*
G02*
X116721000Y-90700000I0J50000D01*
G01*
X116721000Y-90000000D01*
G75*
G02*
X116771000Y-89950000I50000J0D01*
G01*
X116871000Y-89950000D01*
G75*
G02*
X116921000Y-90000000I0J-50000D01*
G01*
G37*
G04 #@! TD.AperFunction*
G04 #@! TO.P,U3,18*
G04 #@! TO.N,+5V*
G04 #@! TA.AperFunction,SMDPad,CuDef*
G36*
G01*
X117321000Y-90000000D02*
X117321000Y-90700000D01*
G75*
G02*
X117271000Y-90750000I-50000J0D01*
G01*
X117171000Y-90750000D01*
G75*
G02*
X117121000Y-90700000I0J50000D01*
G01*
X117121000Y-90000000D01*
G75*
G02*
X117171000Y-89950000I50000J0D01*
G01*
X117271000Y-89950000D01*
G75*
G02*
X117321000Y-90000000I0J-50000D01*
G01*
G37*
G04 #@! TD.AperFunction*
G04 #@! TO.P,U3,19*
G04 #@! TO.N,A_RESET*
G04 #@! TA.AperFunction,SMDPad,CuDef*
G36*
G01*
X117721000Y-90000000D02*
X117721000Y-90700000D01*
G75*
G02*
X117671000Y-90750000I-50000J0D01*
G01*
X117571000Y-90750000D01*
G75*
G02*
X117521000Y-90700000I0J50000D01*
G01*
X117521000Y-90000000D01*
G75*
G02*
X117571000Y-89950000I50000J0D01*
G01*
X117671000Y-89950000D01*
G75*
G02*
X117721000Y-90000000I0J-50000D01*
G01*
G37*
G04 #@! TD.AperFunction*
G04 #@! TA.AperFunction,SMDPad,CuDef*
G04 #@! TO.P,U3,20*
G04 #@! TO.N,Net-(U3-Pad20)*
G36*
X117961245Y-90749039D02*
G01*
X117951866Y-90746194D01*
X117943221Y-90741573D01*
X117935645Y-90735355D01*
X117929427Y-90727779D01*
X117924806Y-90719134D01*
X117921961Y-90709755D01*
X117921000Y-90700000D01*
X117921000Y-90000000D01*
X117921961Y-89990245D01*
X117924806Y-89980866D01*
X117929427Y-89972221D01*
X117935645Y-89964645D01*
X117943221Y-89958427D01*
X117951866Y-89953806D01*
X117961245Y-89950961D01*
X117971000Y-89950000D01*
X118020289Y-89950000D01*
X118030044Y-89950961D01*
X118039423Y-89953806D01*
X118048068Y-89958427D01*
X118055644Y-89964645D01*
X118106355Y-90015356D01*
X118112573Y-90022932D01*
X118117194Y-90031577D01*
X118120039Y-90040956D01*
X118121000Y-90050711D01*
X118121000Y-90700000D01*
X118120039Y-90709755D01*
X118117194Y-90719134D01*
X118112573Y-90727779D01*
X118106355Y-90735355D01*
X118098779Y-90741573D01*
X118090134Y-90746194D01*
X118080755Y-90749039D01*
X118071000Y-90750000D01*
X117971000Y-90750000D01*
X117961245Y-90749039D01*
G37*
G04 #@! TD.AperFunction*
D17*
G04 #@! TO.P,U3,21*
G04 #@! TO.N,GNDD*
X117221000Y-88900000D03*
D15*
X117821000Y-89500000D03*
X116621000Y-89500000D03*
X117821000Y-88300000D03*
X116621000Y-88300000D03*
G04 #@! TD*
D18*
G04 #@! TO.P,TP1,1*
G04 #@! TO.N,Dir*
X121200000Y-83600000D03*
G04 #@! TD*
G04 #@! TO.P,TP2,1*
G04 #@! TO.N,PWM*
X113600000Y-84700000D03*
G04 #@! TD*
G04 #@! TO.P,TP3,1*
G04 #@! TO.N,Fault*
X120900000Y-85700000D03*
G04 #@! TD*
G04 #@! TO.P,TP4,1*
G04 #@! TO.N,Mode*
X126500000Y-80000000D03*
G04 #@! TD*
G04 #@! TO.P,C1,1*
G04 #@! TO.N,+12V*
G04 #@! TA.AperFunction,SMDPad,CuDef*
G36*
G01*
X106850000Y-72799999D02*
X106850000Y-75000001D01*
G75*
G02*
X106600001Y-75250000I-249999J0D01*
G01*
X105949999Y-75250000D01*
G75*
G02*
X105700000Y-75000001I0J249999D01*
G01*
X105700000Y-72799999D01*
G75*
G02*
X105949999Y-72550000I249999J0D01*
G01*
X106600001Y-72550000D01*
G75*
G02*
X106850000Y-72799999I0J-249999D01*
G01*
G37*
G04 #@! TD.AperFunction*
G04 #@! TO.P,C1,2*
G04 #@! TO.N,GND*
G04 #@! TA.AperFunction,SMDPad,CuDef*
G36*
G01*
X103900000Y-72799999D02*
X103900000Y-75000001D01*
G75*
G02*
X103650001Y-75250000I-249999J0D01*
G01*
X102999999Y-75250000D01*
G75*
G02*
X102750000Y-75000001I0J249999D01*
G01*
X102750000Y-72799999D01*
G75*
G02*
X102999999Y-72550000I249999J0D01*
G01*
X103650001Y-72550000D01*
G75*
G02*
X103900000Y-72799999I0J-249999D01*
G01*
G37*
G04 #@! TD.AperFunction*
G04 #@! TD*
G04 #@! TO.P,C7,1*
G04 #@! TO.N,Net-(C7-Pad1)*
G04 #@! TA.AperFunction,SMDPad,CuDef*
G36*
G01*
X102399999Y-75850000D02*
X104600001Y-75850000D01*
G75*
G02*
X104850000Y-76099999I0J-249999D01*
G01*
X104850000Y-76750001D01*
G75*
G02*
X104600001Y-77000000I-249999J0D01*
G01*
X102399999Y-77000000D01*
G75*
G02*
X102150000Y-76750001I0J249999D01*
G01*
X102150000Y-76099999D01*
G75*
G02*
X102399999Y-75850000I249999J0D01*
G01*
G37*
G04 #@! TD.AperFunction*
G04 #@! TO.P,C7,2*
G04 #@! TO.N,GND*
G04 #@! TA.AperFunction,SMDPad,CuDef*
G36*
G01*
X102399999Y-78800000D02*
X104600001Y-78800000D01*
G75*
G02*
X104850000Y-79049999I0J-249999D01*
G01*
X104850000Y-79700001D01*
G75*
G02*
X104600001Y-79950000I-249999J0D01*
G01*
X102399999Y-79950000D01*
G75*
G02*
X102150000Y-79700001I0J249999D01*
G01*
X102150000Y-79049999D01*
G75*
G02*
X102399999Y-78800000I249999J0D01*
G01*
G37*
G04 #@! TD.AperFunction*
G04 #@! TD*
G04 #@! TO.P,L1,1*
G04 #@! TO.N,Net-(L1-Pad1)*
G04 #@! TA.AperFunction,SMDPad,CuDef*
G36*
G01*
X111125000Y-74875000D02*
X113275000Y-74875000D01*
G75*
G02*
X113525000Y-75125000I0J-250000D01*
G01*
X113525000Y-75875000D01*
G75*
G02*
X113275000Y-76125000I-250000J0D01*
G01*
X111125000Y-76125000D01*
G75*
G02*
X110875000Y-75875000I0J250000D01*
G01*
X110875000Y-75125000D01*
G75*
G02*
X111125000Y-74875000I250000J0D01*
G01*
G37*
G04 #@! TD.AperFunction*
G04 #@! TO.P,L1,2*
G04 #@! TO.N,+5V*
G04 #@! TA.AperFunction,SMDPad,CuDef*
G36*
G01*
X111125000Y-77675000D02*
X113275000Y-77675000D01*
G75*
G02*
X113525000Y-77925000I0J-250000D01*
G01*
X113525000Y-78675000D01*
G75*
G02*
X113275000Y-78925000I-250000J0D01*
G01*
X111125000Y-78925000D01*
G75*
G02*
X110875000Y-78675000I0J250000D01*
G01*
X110875000Y-77925000D01*
G75*
G02*
X111125000Y-77675000I250000J0D01*
G01*
G37*
G04 #@! TD.AperFunction*
G04 #@! TD*
D19*
G04 #@! TO.P,U1,1*
G04 #@! TO.N,+12V*
X106550000Y-76650000D03*
G04 #@! TO.P,U1,2*
X106550000Y-77150000D03*
G04 #@! TO.P,U1,3*
G04 #@! TO.N,Net-(C7-Pad1)*
X106550000Y-77650000D03*
G04 #@! TO.P,U1,4*
G04 #@! TO.N,+5V*
X106550000Y-78150000D03*
G04 #@! TO.P,U1,5*
G04 #@! TO.N,Net-(U1-Pad5)*
X108450000Y-78150000D03*
G04 #@! TO.P,U1,6*
G04 #@! TO.N,Net-(U1-Pad6)*
X108450000Y-77650000D03*
G04 #@! TO.P,U1,7*
G04 #@! TO.N,GND*
X108450000Y-77150000D03*
G04 #@! TO.P,U1,8*
G04 #@! TO.N,Net-(L1-Pad1)*
X108450000Y-76650000D03*
G04 #@! TD*
D20*
G04 #@! TO.P,Q1,2*
G04 #@! TO.N,+12V*
X140200000Y-56225000D03*
D21*
G04 #@! TO.P,Q1,3*
G04 #@! TO.N,MOTOR+*
X142740000Y-65375000D03*
G04 #@! TO.P,Q1,1*
G04 #@! TO.N,Net-(Q1-Pad1)*
X137660000Y-65375000D03*
G04 #@! TD*
D20*
G04 #@! TO.P,Q2,2*
G04 #@! TO.N,MOTOR+*
X140354000Y-74625000D03*
D21*
G04 #@! TO.P,Q2,3*
G04 #@! TO.N,GND*
X142894000Y-83775000D03*
G04 #@! TO.P,Q2,1*
G04 #@! TO.N,Net-(Q2-Pad1)*
X137814000Y-83775000D03*
G04 #@! TD*
G04 #@! TO.P,Q3,1*
G04 #@! TO.N,Net-(Q1-Pad1)*
X149333000Y-65388000D03*
G04 #@! TO.P,Q3,3*
G04 #@! TO.N,MOTOR+*
X154413000Y-65388000D03*
D20*
G04 #@! TO.P,Q3,2*
G04 #@! TO.N,+12V*
X151873000Y-56238000D03*
G04 #@! TD*
D21*
G04 #@! TO.P,Q4,1*
G04 #@! TO.N,Net-(Q2-Pad1)*
X149352000Y-83775000D03*
G04 #@! TO.P,Q4,3*
G04 #@! TO.N,GND*
X154432000Y-83775000D03*
D20*
G04 #@! TO.P,Q4,2*
G04 #@! TO.N,MOTOR+*
X151892000Y-74625000D03*
G04 #@! TD*
G04 #@! TO.P,C8,2*
G04 #@! TO.N,GND*
G04 #@! TA.AperFunction,SMDPad,CuDef*
G36*
G01*
X95199999Y-62200000D02*
X97400001Y-62200000D01*
G75*
G02*
X97650000Y-62449999I0J-249999D01*
G01*
X97650000Y-63100001D01*
G75*
G02*
X97400001Y-63350000I-249999J0D01*
G01*
X95199999Y-63350000D01*
G75*
G02*
X94950000Y-63100001I0J249999D01*
G01*
X94950000Y-62449999D01*
G75*
G02*
X95199999Y-62200000I249999J0D01*
G01*
G37*
G04 #@! TD.AperFunction*
G04 #@! TO.P,C8,1*
G04 #@! TO.N,+12V*
G04 #@! TA.AperFunction,SMDPad,CuDef*
G36*
G01*
X95199999Y-59250000D02*
X97400001Y-59250000D01*
G75*
G02*
X97650000Y-59499999I0J-249999D01*
G01*
X97650000Y-60150001D01*
G75*
G02*
X97400001Y-60400000I-249999J0D01*
G01*
X95199999Y-60400000D01*
G75*
G02*
X94950000Y-60150001I0J249999D01*
G01*
X94950000Y-59499999D01*
G75*
G02*
X95199999Y-59250000I249999J0D01*
G01*
G37*
G04 #@! TD.AperFunction*
G04 #@! TD*
D22*
G04 #@! TO.P,C10,1*
G04 #@! TO.N,MOTOR-*
X169800000Y-77800000D03*
G04 #@! TO.P,C10,2*
G04 #@! TO.N,MOTOR+*
X169800000Y-75300000D03*
G04 #@! TD*
D18*
G04 #@! TO.P,TP7,1*
G04 #@! TO.N,Net-(C5-Pad2)*
X122000000Y-71300000D03*
G04 #@! TD*
D23*
G04 #@! TO.N,GNDD*
X128900000Y-81100000D03*
G04 #@! TO.N,GND*
X109900000Y-77500000D03*
X91059000Y-76170000D03*
X92329000Y-76170000D03*
X93599000Y-76170000D03*
X94869000Y-76170000D03*
X96139000Y-76170000D03*
X97409000Y-76170000D03*
X98679000Y-76170000D03*
X99949000Y-76170000D03*
X91059000Y-77440000D03*
X92329000Y-77440000D03*
X93599000Y-77440000D03*
X94869000Y-77440000D03*
X96139000Y-77440000D03*
X97409000Y-77440000D03*
X98679000Y-77440000D03*
X99949000Y-77440000D03*
X91059000Y-78710000D03*
X92329000Y-78710000D03*
X93599000Y-78710000D03*
X94869000Y-78710000D03*
X96139000Y-78710000D03*
X97409000Y-78710000D03*
X98679000Y-78710000D03*
X99949000Y-78710000D03*
X91059000Y-79980000D03*
X92329000Y-79980000D03*
X93599000Y-79980000D03*
X94869000Y-79980000D03*
X96139000Y-79980000D03*
X97409000Y-79980000D03*
X98679000Y-79980000D03*
X99949000Y-79980000D03*
X91059000Y-81250000D03*
X92329000Y-81250000D03*
X93599000Y-81250000D03*
X94869000Y-81250000D03*
X96139000Y-81250000D03*
X97409000Y-81250000D03*
X98679000Y-81250000D03*
X99949000Y-81250000D03*
X91059000Y-82520000D03*
X92329000Y-82520000D03*
X93599000Y-82520000D03*
X94869000Y-82520000D03*
X96139000Y-82520000D03*
X97409000Y-82520000D03*
X98679000Y-82520000D03*
X91059000Y-83790000D03*
X92329000Y-83790000D03*
X93599000Y-83790000D03*
X94869000Y-83790000D03*
X96139000Y-83790000D03*
X97409000Y-83790000D03*
X98679000Y-83790000D03*
X91059000Y-85060000D03*
G04 #@! TO.N,GNDD*
X114400000Y-80100000D03*
G04 #@! TO.N,GND*
X92309000Y-85060000D03*
X93559000Y-85060000D03*
X94809000Y-85060000D03*
X96059000Y-85060000D03*
X97309000Y-85060000D03*
X98559000Y-85060000D03*
X91059000Y-86310000D03*
X92309000Y-86310000D03*
X93559000Y-86310000D03*
X94809000Y-86310000D03*
X96059000Y-86310000D03*
X97309000Y-86310000D03*
X98559000Y-86310000D03*
X101199000Y-81250000D03*
X102449000Y-81250000D03*
X103699000Y-81250000D03*
X99949000Y-82500000D03*
X101199000Y-82500000D03*
X102449000Y-82500000D03*
X103699000Y-82500000D03*
X99949000Y-83750000D03*
X101199000Y-83750000D03*
X102449000Y-83750000D03*
X103699000Y-83750000D03*
X99949000Y-85000000D03*
X101199000Y-85000000D03*
X102449000Y-85000000D03*
X103699000Y-85000000D03*
X99949000Y-86250000D03*
X101199000Y-86250000D03*
X102449000Y-86250000D03*
X103699000Y-86250000D03*
X135700000Y-101251000D03*
X135700000Y-100001000D03*
X135700000Y-98751000D03*
X135700000Y-97501000D03*
X135700000Y-96251000D03*
X135700000Y-95001000D03*
X135700000Y-93751000D03*
X136950000Y-101251000D03*
X136950000Y-100001000D03*
X136950000Y-98751000D03*
X136950000Y-97501000D03*
X136950000Y-96251000D03*
X136950000Y-95001000D03*
X136950000Y-93751000D03*
X138200000Y-101251000D03*
X138200000Y-100001000D03*
X138200000Y-98751000D03*
X138200000Y-97501000D03*
X138200000Y-96251000D03*
X138200000Y-95001000D03*
X138200000Y-93751000D03*
X139450000Y-101251000D03*
X139450000Y-100001000D03*
X139450000Y-98751000D03*
X139450000Y-97501000D03*
X139450000Y-96251000D03*
X139450000Y-95001000D03*
X139450000Y-93751000D03*
X140700000Y-101251000D03*
X140700000Y-100001000D03*
X140700000Y-98751000D03*
X140700000Y-97501000D03*
X140700000Y-96251000D03*
X140700000Y-95001000D03*
X140700000Y-93751000D03*
X141950000Y-93751000D03*
X143200000Y-93751000D03*
X144450000Y-93751000D03*
X145700000Y-93751000D03*
X146950000Y-93751000D03*
X141950000Y-95001000D03*
X143200000Y-95001000D03*
X144450000Y-95001000D03*
X145700000Y-95001000D03*
X146950000Y-95001000D03*
X141950000Y-96251000D03*
X143200000Y-96251000D03*
X144450000Y-96251000D03*
X145700000Y-96251000D03*
X146950000Y-96251000D03*
X141950000Y-97501000D03*
X143200000Y-97501000D03*
X144450000Y-97501000D03*
X145700000Y-97501000D03*
X146950000Y-97501000D03*
X141950000Y-98751000D03*
X143200000Y-98751000D03*
X144450000Y-98751000D03*
X145700000Y-98751000D03*
X146950000Y-98751000D03*
X141950000Y-100001000D03*
X143200000Y-100001000D03*
X144450000Y-100001000D03*
X145700000Y-100001000D03*
X146950000Y-100001000D03*
X141950000Y-101251000D03*
X143200000Y-101251000D03*
X144450000Y-101251000D03*
X145700000Y-101251000D03*
X146950000Y-101251000D03*
G04 #@! TO.N,+12V*
X124500000Y-44800000D03*
X125750000Y-44800000D03*
X127000000Y-44800000D03*
X128250000Y-44800000D03*
X129500000Y-44800000D03*
X130750000Y-44800000D03*
X132000000Y-44800000D03*
X133250000Y-44800000D03*
X134500000Y-44800000D03*
X124500000Y-46050000D03*
X125750000Y-46050000D03*
X127000000Y-46050000D03*
X128250000Y-46050000D03*
X129500000Y-46050000D03*
X130750000Y-46050000D03*
X132000000Y-46050000D03*
X133250000Y-46050000D03*
X124500000Y-47300000D03*
X125750000Y-47300000D03*
X127000000Y-47300000D03*
X128250000Y-47300000D03*
X129500000Y-47300000D03*
X130750000Y-47300000D03*
X132000000Y-47300000D03*
X133250000Y-47300000D03*
X124500000Y-48550000D03*
X125750000Y-48550000D03*
X127000000Y-48550000D03*
X128250000Y-48550000D03*
X129500000Y-48550000D03*
X130750000Y-48550000D03*
X132000000Y-48550000D03*
X133250000Y-48550000D03*
X124500000Y-49800000D03*
X125750000Y-49800000D03*
X127000000Y-49800000D03*
X128250000Y-49800000D03*
X129500000Y-49800000D03*
X130750000Y-49800000D03*
X132000000Y-49800000D03*
X133250000Y-49800000D03*
X124500000Y-51050000D03*
X125750000Y-51050000D03*
X127000000Y-51050000D03*
X128250000Y-51050000D03*
X129500000Y-51050000D03*
X130750000Y-51050000D03*
X132000000Y-51050000D03*
X133250000Y-51050000D03*
X124500000Y-52300000D03*
X125750000Y-52300000D03*
X127000000Y-52300000D03*
X128250000Y-52300000D03*
X129500000Y-52300000D03*
X130750000Y-52300000D03*
X132000000Y-52300000D03*
X133250000Y-52300000D03*
X124500000Y-53550000D03*
X125750000Y-53550000D03*
X127000000Y-53550000D03*
X128250000Y-53550000D03*
X129500000Y-53550000D03*
X130750000Y-53550000D03*
X132000000Y-53550000D03*
X133250000Y-53550000D03*
X124500000Y-54800000D03*
X125750000Y-54800000D03*
X127000000Y-54800000D03*
X128250000Y-54800000D03*
X129500000Y-54800000D03*
X130750000Y-54800000D03*
X132000000Y-54800000D03*
X133250000Y-54800000D03*
X124500000Y-56050000D03*
X125750000Y-56050000D03*
X127000000Y-56050000D03*
X128250000Y-56050000D03*
X129500000Y-56050000D03*
X130750000Y-56050000D03*
X132000000Y-56050000D03*
X133250000Y-56050000D03*
X124500000Y-57300000D03*
X125750000Y-57300000D03*
X127000000Y-57300000D03*
X128250000Y-57300000D03*
X129500000Y-57300000D03*
X130750000Y-57300000D03*
X132000000Y-57300000D03*
X133250000Y-57300000D03*
X124500000Y-58550000D03*
X125750000Y-58550000D03*
X127000000Y-58550000D03*
X128250000Y-58550000D03*
X129500000Y-58550000D03*
X130750000Y-58550000D03*
X132000000Y-58550000D03*
X133250000Y-58550000D03*
X124500000Y-59800000D03*
X125750000Y-59800000D03*
X127000000Y-59800000D03*
X128250000Y-59800000D03*
X129500000Y-59800000D03*
X130750000Y-59800000D03*
X132000000Y-59800000D03*
X133250000Y-59800000D03*
X124500000Y-61050000D03*
X125750000Y-61050000D03*
X127000000Y-61050000D03*
X128250000Y-61050000D03*
X129500000Y-61050000D03*
X130750000Y-61050000D03*
X132000000Y-61050000D03*
X133250000Y-61050000D03*
X135750000Y-44800000D03*
X137000000Y-44800000D03*
X138250000Y-44800000D03*
X139500000Y-44800000D03*
X140750000Y-44800000D03*
X142000000Y-44800000D03*
X143250000Y-44800000D03*
X144500000Y-44800000D03*
X145750000Y-44800000D03*
X147000000Y-44800000D03*
X148250000Y-44800000D03*
X149500000Y-44800000D03*
X150750000Y-44800000D03*
X152000000Y-44800000D03*
X134500000Y-46050000D03*
X135750000Y-46050000D03*
X137000000Y-46050000D03*
X138250000Y-46050000D03*
X139500000Y-46050000D03*
X140750000Y-46050000D03*
X142000000Y-46050000D03*
X143250000Y-46050000D03*
X144500000Y-46050000D03*
X145750000Y-46050000D03*
X147000000Y-46050000D03*
X148250000Y-46050000D03*
X149500000Y-46050000D03*
X150750000Y-46050000D03*
X134500000Y-47300000D03*
X135750000Y-47300000D03*
X137000000Y-47300000D03*
X138250000Y-47300000D03*
X139500000Y-47300000D03*
X140750000Y-47300000D03*
X142000000Y-47300000D03*
X143250000Y-47300000D03*
X144500000Y-47300000D03*
X145750000Y-47300000D03*
X147000000Y-47300000D03*
X148250000Y-47300000D03*
X149500000Y-47300000D03*
X150750000Y-47300000D03*
X134500000Y-48550000D03*
X135750000Y-48550000D03*
X137000000Y-48550000D03*
X138250000Y-48550000D03*
X139500000Y-48550000D03*
X140750000Y-48550000D03*
X142000000Y-48550000D03*
X143250000Y-48550000D03*
X144500000Y-48550000D03*
X145750000Y-48550000D03*
X147000000Y-48550000D03*
X148250000Y-48550000D03*
X149500000Y-48550000D03*
X150750000Y-48550000D03*
X134500000Y-49800000D03*
X135750000Y-49800000D03*
X137000000Y-49800000D03*
X138250000Y-49800000D03*
X139500000Y-49800000D03*
X140750000Y-49800000D03*
X142000000Y-49800000D03*
X143250000Y-49800000D03*
X144500000Y-49800000D03*
X145750000Y-49800000D03*
X147000000Y-49800000D03*
X148250000Y-49800000D03*
X149500000Y-49800000D03*
X150750000Y-49800000D03*
X153250000Y-44800000D03*
X154500000Y-44800000D03*
X155750000Y-44800000D03*
X157000000Y-44800000D03*
X152000000Y-46050000D03*
X153250000Y-46050000D03*
X154500000Y-46050000D03*
X155750000Y-46050000D03*
X157000000Y-46050000D03*
X152000000Y-47300000D03*
X153250000Y-47300000D03*
X154500000Y-47300000D03*
X155750000Y-47300000D03*
X157000000Y-47300000D03*
X152000000Y-48550000D03*
X153250000Y-48550000D03*
X154500000Y-48550000D03*
X155750000Y-48550000D03*
X157000000Y-48550000D03*
X152000000Y-49800000D03*
X153250000Y-49800000D03*
X154500000Y-49800000D03*
X155750000Y-49800000D03*
X157000000Y-49800000D03*
G04 #@! TO.N,+5V*
X116100000Y-92100000D03*
X109600000Y-79100000D03*
X117400000Y-83000000D03*
G04 #@! TO.N,MOTOR+*
X133400000Y-75000000D03*
X119700000Y-75000000D03*
G04 #@! TO.N,MOTOR-*
X122900000Y-74000000D03*
G04 #@! TO.N,GHB*
X124700000Y-72500000D03*
G04 #@! TO.N,GLB*
X124500000Y-79000000D03*
G04 #@! TO.N,Net-(C3-Pad1)*
X114500000Y-77700000D03*
G04 #@! TO.N,Net-(C3-Pad2)*
X116900000Y-77600000D03*
G04 #@! TO.N,Fault*
X119100000Y-85600000D03*
X117400000Y-81900000D03*
G04 #@! TO.N,Mode*
X123700000Y-82500000D03*
X122500000Y-84500000D03*
G04 #@! TO.N,Net-(C6-Pad1)*
X123900000Y-84200000D03*
G04 #@! TD*
D24*
G04 #@! TO.N,GNDD*
X117221000Y-87450000D02*
X117221000Y-88900000D01*
D25*
X122125000Y-79600000D02*
X120200000Y-79600000D01*
X122300000Y-79600000D02*
X122125000Y-79600000D01*
X122400000Y-79600000D02*
X122300000Y-79600000D01*
G04 #@! TO.N,GND*
X109550000Y-77150000D02*
X109900000Y-77500000D01*
X108450000Y-77150000D02*
X109550000Y-77150000D01*
D26*
G04 #@! TO.N,+12V*
X110000000Y-70300000D02*
X110337500Y-70300000D01*
D27*
X115962500Y-70300000D02*
X116900000Y-69362500D01*
X109275000Y-73900000D02*
X106275000Y-73900000D01*
X110337500Y-72837500D02*
X109275000Y-73900000D01*
X110337500Y-70300000D02*
X110337500Y-72837500D01*
X112900000Y-70300000D02*
X115962500Y-70300000D01*
X110337500Y-70300000D02*
X112900000Y-70300000D01*
D28*
X117000000Y-79100000D02*
X115500000Y-77600000D01*
X118275000Y-79100000D02*
X117000000Y-79100000D01*
X115500000Y-77600000D02*
X115500000Y-75700000D01*
X115500000Y-75700000D02*
X113700000Y-73900000D01*
X113700000Y-73900000D02*
X113700000Y-71100000D01*
X112900000Y-70300000D02*
X113700000Y-71100000D01*
X118275000Y-79100000D02*
X118524999Y-79100000D01*
D25*
X151861000Y-56226000D02*
X151873000Y-56238000D01*
X140335000Y-56226000D02*
X151861000Y-56226000D01*
D27*
X124500000Y-61050000D02*
X124500000Y-66480000D01*
X116900000Y-69362500D02*
X122137500Y-69362500D01*
X124500000Y-67000000D02*
X124500000Y-66480000D01*
X122137500Y-69362500D02*
X124500000Y-67000000D01*
X106275000Y-76375000D02*
X106550000Y-76650000D01*
X106275000Y-73900000D02*
X106275000Y-76375000D01*
D25*
X106550000Y-77150000D02*
X106550000Y-76650000D01*
D26*
G04 #@! TO.N,+5V*
X106550000Y-78150000D02*
X106550000Y-78450000D01*
D28*
X111400000Y-79100000D02*
X112200000Y-78300000D01*
X109600000Y-79100000D02*
X111400000Y-79100000D01*
X107200000Y-79100000D02*
X106550000Y-78450000D01*
X109600000Y-79100000D02*
X107200000Y-79100000D01*
X106550000Y-78450000D02*
X106550000Y-78175001D01*
D25*
X119700000Y-81525000D02*
X119700000Y-81250001D01*
D28*
X112200000Y-78300000D02*
X112200000Y-79300000D01*
X112200000Y-78300000D02*
X112200000Y-80100000D01*
D25*
X112200000Y-80100000D02*
X114850000Y-82750000D01*
X119700000Y-82033378D02*
X119700000Y-81525000D01*
X118733378Y-83000000D02*
X119700000Y-82033378D01*
X117400000Y-83000000D02*
X118733378Y-83000000D01*
X115100000Y-83000000D02*
X114850000Y-82750000D01*
X117400000Y-83000000D02*
X115100000Y-83000000D01*
D24*
X117221000Y-91779000D02*
X117221000Y-90350000D01*
X116900000Y-92100000D02*
X117221000Y-91779000D01*
X116100000Y-92100000D02*
X116900000Y-92100000D01*
D25*
G04 #@! TO.N,Net-(C5-Pad2)*
X119200000Y-75937500D02*
X116900000Y-73637500D01*
X119200000Y-77675000D02*
X119200000Y-75937500D01*
X119200000Y-77949999D02*
X119200000Y-77675000D01*
D26*
X116900000Y-73637500D02*
X119237500Y-71300000D01*
X119237500Y-71300000D02*
X122000000Y-71300000D01*
G04 #@! TO.N,MOTOR+*
X139223000Y-75911000D02*
X140354000Y-74780000D01*
X137795000Y-70649000D02*
X137814000Y-70630000D01*
X137814000Y-70630000D02*
X137814000Y-71786000D01*
X119700000Y-77675000D02*
X119700000Y-74900000D01*
D25*
X119700000Y-77675000D02*
X119700000Y-75000000D01*
X119700000Y-77675000D02*
X119700000Y-77700000D01*
X119700000Y-77700000D02*
X119700000Y-77949999D01*
X140134000Y-75000000D02*
X140354000Y-74780000D01*
X133400000Y-75000000D02*
X140134000Y-75000000D01*
X151880000Y-74780000D02*
X151892000Y-74768000D01*
X140354000Y-74780000D02*
X151880000Y-74780000D01*
D26*
G04 #@! TO.N,MOTOR-*
X120700000Y-77675000D02*
X120700000Y-77201978D01*
D25*
X120700000Y-77949999D02*
X120700000Y-77675000D01*
X120700000Y-76300000D02*
X120700000Y-77675000D01*
X120700000Y-76200000D02*
X120700000Y-76300000D01*
X122900000Y-74000000D02*
X120700000Y-76200000D01*
G04 #@! TO.N,GHA*
X120200000Y-77949999D02*
X120200000Y-77675000D01*
X124810002Y-71000000D02*
X126187500Y-71000000D01*
X120200000Y-75610002D02*
X124810002Y-71000000D01*
X120200000Y-77675000D02*
X120200000Y-75610002D01*
G04 #@! TO.N,GLA*
X122125000Y-78600000D02*
X123000000Y-78600000D01*
X123000000Y-78600000D02*
X124100000Y-77500000D01*
X126087500Y-77500000D02*
X126187500Y-77400000D01*
X124100000Y-77500000D02*
X126087500Y-77500000D01*
X121850001Y-78600000D02*
X122125000Y-78600000D01*
G04 #@! TO.N,GHB*
X121200000Y-77949999D02*
X121200000Y-77675000D01*
X124700000Y-73500000D02*
X124700000Y-72500000D01*
X121200000Y-77000000D02*
X124700000Y-73500000D01*
X121200000Y-77675000D02*
X121200000Y-77000000D01*
G04 #@! TO.N,GLB*
X122125000Y-79100000D02*
X122100000Y-79100000D01*
D26*
X123300000Y-79100000D02*
X124400000Y-79100000D01*
D25*
X124400000Y-79100000D02*
X124500000Y-79000000D01*
X122125000Y-79100000D02*
X124400000Y-79100000D01*
X122125000Y-79100000D02*
X121850001Y-79100000D01*
G04 #@! TO.N,Net-(Q1-Pad1)*
X137795000Y-63605000D02*
X137795000Y-65376000D01*
X137724000Y-65376000D02*
X137795000Y-65376000D01*
D28*
X132100000Y-71000000D02*
X130812500Y-71000000D01*
X134200000Y-68900000D02*
X132100000Y-71000000D01*
X134900000Y-62400000D02*
X134200000Y-63100000D01*
X137300000Y-62400000D02*
X134900000Y-62400000D01*
X134200000Y-63100000D02*
X134200000Y-68900000D01*
X137660000Y-62760000D02*
X137300000Y-62400000D01*
X137660000Y-65375000D02*
X137660000Y-62760000D01*
X149333000Y-65388000D02*
X149333000Y-63033000D01*
X148700000Y-62400000D02*
X137300000Y-62400000D01*
X149333000Y-63033000D02*
X148700000Y-62400000D01*
G04 #@! TO.N,Net-(Q2-Pad1)*
X149352000Y-83918000D02*
X149352000Y-81252000D01*
X149352000Y-81252000D02*
X148700000Y-80600000D01*
X130812500Y-77400000D02*
X130812500Y-78112500D01*
X130812500Y-78112500D02*
X131200000Y-78500000D01*
X137814000Y-81314000D02*
X137100000Y-80600000D01*
X137814000Y-83775000D02*
X137814000Y-81314000D01*
X148700000Y-80600000D02*
X137100000Y-80600000D01*
X130812500Y-77400000D02*
X132800000Y-77400000D01*
X132800000Y-77400000D02*
X134000000Y-78600000D01*
X134000000Y-78600000D02*
X134000000Y-79800000D01*
X134000000Y-79800000D02*
X134800000Y-80600000D01*
X134800000Y-80600000D02*
X137100000Y-80600000D01*
D24*
G04 #@! TO.N,ADDR_Select_3*
X123605000Y-87595000D02*
X124960000Y-87595000D01*
X121900000Y-89300000D02*
X123605000Y-87595000D01*
X118671000Y-89300000D02*
X121900000Y-89300000D01*
G04 #@! TO.N,ADDR_Select_2*
X127500000Y-87595000D02*
X127500000Y-86500000D01*
X127500000Y-86500000D02*
X126900000Y-85900000D01*
X126900000Y-85900000D02*
X123800000Y-85900000D01*
X120800000Y-88900000D02*
X120300000Y-88900000D01*
X123800000Y-85900000D02*
X120800000Y-88900000D01*
X120300000Y-88900000D02*
X120600000Y-88900000D01*
X118671000Y-88900000D02*
X120300000Y-88900000D01*
G04 #@! TO.N,ADDR_Select_1*
X120000000Y-88500000D02*
X118671000Y-88500000D01*
X123634311Y-85499990D02*
X120634302Y-88500000D01*
X120634302Y-88500000D02*
X120000000Y-88500000D01*
X128899990Y-85499990D02*
X123634311Y-85499990D01*
X130040000Y-86640000D02*
X128899990Y-85499990D01*
X130040000Y-87595000D02*
X130040000Y-86640000D01*
G04 #@! TO.N,SCK_SCL*
X108600000Y-90060000D02*
X112460000Y-90060000D01*
X112460000Y-90060000D02*
X113800000Y-91400000D01*
X113800000Y-91400000D02*
X116700000Y-91400000D01*
X116821000Y-91279000D02*
X116700000Y-91400000D01*
X116821000Y-90350000D02*
X116821000Y-91279000D01*
G04 #@! TO.N,MISO*
X116421000Y-90350000D02*
X116421000Y-90879000D01*
X116421000Y-90879000D02*
X116300010Y-90999990D01*
X113965688Y-90999990D02*
X110700000Y-87734302D01*
X116300010Y-90999990D02*
X113965688Y-90999990D01*
X108814302Y-87734302D02*
X108600000Y-87520000D01*
X110700000Y-87734302D02*
X108814302Y-87734302D01*
G04 #@! TO.N,SDA_MOSI*
X114634302Y-89700000D02*
X112000000Y-87065698D01*
X115771000Y-89700000D02*
X114634302Y-89700000D01*
X112000000Y-87065698D02*
X112000000Y-86500000D01*
X110480000Y-84980000D02*
X108600000Y-84980000D01*
X112000000Y-86500000D02*
X110480000Y-84980000D01*
G04 #@! TO.N,A_RESET*
X110700000Y-92600000D02*
X108600000Y-92600000D01*
X117100000Y-92900000D02*
X111000000Y-92900000D01*
X117600000Y-92400000D02*
X117100000Y-92900000D01*
X117600000Y-91965698D02*
X117600000Y-92400000D01*
X111000000Y-92900000D02*
X110700000Y-92600000D01*
X117621000Y-91944698D02*
X117600000Y-91965698D01*
X117621000Y-90350000D02*
X117621000Y-91944698D01*
D26*
G04 #@! TO.N,Net-(C3-Pad1)*
X116200000Y-79600000D02*
X118275000Y-79600000D01*
X115500000Y-79600000D02*
X116200000Y-79600000D01*
X114500000Y-78600000D02*
X115500000Y-79600000D01*
X114500000Y-77700000D02*
X114500000Y-78600000D01*
G04 #@! TO.N,Net-(C3-Pad2)*
X117700000Y-78600000D02*
X118275000Y-78600000D01*
X116900000Y-77800000D02*
X117700000Y-78600000D01*
G04 #@! TO.N,Net-(R1-Pad2)*
X125500000Y-83100000D02*
X124700000Y-83100000D01*
X124700000Y-83100000D02*
X124400000Y-83400000D01*
X124400000Y-83400000D02*
X123400000Y-83400000D01*
X123400000Y-83400000D02*
X122100000Y-82100000D01*
X122100000Y-80625000D02*
X122125000Y-80600000D01*
X122100000Y-82100000D02*
X122100000Y-80625000D01*
G04 #@! TO.N,Fault*
X117775000Y-81525000D02*
X117400000Y-81900000D01*
X119200000Y-81525000D02*
X117775000Y-81525000D01*
X120000000Y-87000000D02*
X118925010Y-88074990D01*
X120000000Y-87000000D02*
X120000000Y-86100000D01*
X120400000Y-85700000D02*
X120900000Y-85700000D01*
X120000000Y-86100000D02*
X120400000Y-85700000D01*
D25*
X119600000Y-86100000D02*
X120000000Y-86100000D01*
X119100000Y-85600000D02*
X119600000Y-86100000D01*
D24*
G04 #@! TO.N,Mode*
X116821000Y-86811452D02*
X119032452Y-84600000D01*
X116821000Y-87450000D02*
X116821000Y-86811452D01*
D26*
X123700000Y-81100000D02*
X122700000Y-80100000D01*
X123700000Y-81700000D02*
X123700000Y-81100000D01*
X122125000Y-80100000D02*
X122700000Y-80100000D01*
X123700000Y-81700000D02*
X123700000Y-82500000D01*
D24*
X119700000Y-84600000D02*
X119900000Y-84600000D01*
X119032452Y-84600000D02*
X119700000Y-84600000D01*
X122400000Y-84600000D02*
X122500000Y-84500000D01*
X119700000Y-84600000D02*
X122400000Y-84600000D01*
X124800000Y-80000000D02*
X123700000Y-81100000D01*
X126500000Y-80000000D02*
X124800000Y-80000000D01*
G04 #@! TO.N,Dir*
X117128988Y-84400010D02*
X118666743Y-84400010D01*
X114700000Y-86828998D02*
X117128988Y-84400010D01*
X120700000Y-82366753D02*
X120700000Y-81525000D01*
X114700000Y-88634302D02*
X114700000Y-86828998D01*
X114965698Y-88900000D02*
X114700000Y-88634302D01*
X115771000Y-88900000D02*
X114965698Y-88900000D01*
X118766752Y-84300001D02*
X118666743Y-84400010D01*
X119266752Y-83800000D02*
X118933376Y-84133376D01*
X118933376Y-84133376D02*
X120700000Y-82366753D01*
X118666743Y-84400010D02*
X118933376Y-84133376D01*
D26*
X121200000Y-83600000D02*
X119502108Y-83600000D01*
D24*
G04 #@! TO.N,PWM*
X120200000Y-82301054D02*
X118501054Y-84000000D01*
X120200000Y-81525000D02*
X120200000Y-82301054D01*
X116820232Y-84000000D02*
X114300000Y-86520232D01*
X118501054Y-84000000D02*
X116820232Y-84000000D01*
X114300000Y-86520232D02*
X114300000Y-88800000D01*
X114800000Y-89300000D02*
X115771000Y-89300000D01*
X114300000Y-88800000D02*
X114800000Y-89300000D01*
D26*
X114300000Y-85400000D02*
X113600000Y-84700000D01*
X114300000Y-86520232D02*
X114300000Y-85400000D01*
D24*
G04 #@! TO.N,Net-(C6-Pad1)*
X121200000Y-81800000D02*
X121200000Y-81525000D01*
D26*
X123273002Y-84200000D02*
X122300000Y-83226998D01*
X123900000Y-84200000D02*
X123273002Y-84200000D01*
X121200000Y-81836410D02*
X121200000Y-81525000D01*
X122300000Y-82936410D02*
X121200000Y-81836410D01*
X122300000Y-83226998D02*
X122300000Y-82936410D01*
D25*
G04 #@! TO.N,Net-(C7-Pad1)*
X106550000Y-77650000D02*
X104725000Y-77650000D01*
X103500000Y-76425000D02*
X104725000Y-77650000D01*
D26*
G04 #@! TO.N,Net-(L1-Pad1)*
X111800000Y-75800000D02*
X112100000Y-75500000D01*
D25*
X109650000Y-76650000D02*
X110800000Y-75500000D01*
X108450000Y-76650000D02*
X109650000Y-76650000D01*
X112200000Y-75500000D02*
X110800000Y-75500000D01*
G04 #@! TO.N,GNDD*
X115200000Y-80100000D02*
X115900000Y-80100000D01*
D26*
X115900000Y-80100000D02*
X115400000Y-80100000D01*
D25*
X118275000Y-80100000D02*
X115900000Y-80100000D01*
X119700000Y-80100000D02*
X120200000Y-79600000D01*
X118275000Y-80100000D02*
X119700000Y-80100000D01*
X115200000Y-80100000D02*
X114400000Y-80100000D01*
X128900000Y-81700000D02*
X130300000Y-83100000D01*
X128900000Y-81100000D02*
X128900000Y-81700000D01*
G04 #@! TD*
M02*
