G04 #@! TF.GenerationSoftware,KiCad,Pcbnew,(5.1.9)-1*
G04 #@! TF.CreationDate,2021-07-07T11:22:23-04:00*
G04 #@! TF.ProjectId,Motor Controller 2020,4d6f746f-7220-4436-9f6e-74726f6c6c65,rev?*
G04 #@! TF.SameCoordinates,Original*
G04 #@! TF.FileFunction,Paste,Bot*
G04 #@! TF.FilePolarity,Positive*
%FSLAX46Y46*%
G04 Gerber Fmt 4.6, Leading zero omitted, Abs format (unit mm)*
G04 Created by KiCad (PCBNEW (5.1.9)-1) date 2021-07-07 11:22:23*
%MOMM*%
%LPD*%
G01*
G04 APERTURE LIST*
G04 #@! TA.AperFunction,Profile*
%ADD10C,0.050000*%
G04 #@! TD*
%ADD11R,5.250000X4.550000*%
%ADD12R,1.100000X4.600000*%
G04 APERTURE END LIST*
D10*
X174700000Y-102900000D02*
X174700000Y-42900000D01*
X88700000Y-42900000D02*
X174700000Y-42900000D01*
X88700000Y-102900000D02*
X88700000Y-42900000D01*
X88700000Y-102900000D02*
X174700000Y-102900000D01*
G04 #@! TO.C,C10*
G36*
G01*
X112775000Y-75350002D02*
X112775000Y-72449998D01*
G75*
G02*
X113024998Y-72200000I249998J0D01*
G01*
X114100002Y-72200000D01*
G75*
G02*
X114350000Y-72449998I0J-249998D01*
G01*
X114350000Y-75350002D01*
G75*
G02*
X114100002Y-75600000I-249998J0D01*
G01*
X113024998Y-75600000D01*
G75*
G02*
X112775000Y-75350002I0J249998D01*
G01*
G37*
G36*
G01*
X117050000Y-75350002D02*
X117050000Y-72449998D01*
G75*
G02*
X117299998Y-72200000I249998J0D01*
G01*
X118375002Y-72200000D01*
G75*
G02*
X118625000Y-72449998I0J-249998D01*
G01*
X118625000Y-75350002D01*
G75*
G02*
X118375002Y-75600000I-249998J0D01*
G01*
X117299998Y-75600000D01*
G75*
G02*
X117050000Y-75350002I0J249998D01*
G01*
G37*
G04 #@! TD*
G04 #@! TO.C,R6*
G36*
G01*
X131425000Y-78624999D02*
X131425000Y-80775001D01*
G75*
G02*
X131175001Y-81025000I-249999J0D01*
G01*
X130449999Y-81025000D01*
G75*
G02*
X130200000Y-80775001I0J249999D01*
G01*
X130200000Y-78624999D01*
G75*
G02*
X130449999Y-78375000I249999J0D01*
G01*
X131175001Y-78375000D01*
G75*
G02*
X131425000Y-78624999I0J-249999D01*
G01*
G37*
G36*
G01*
X126800000Y-78624999D02*
X126800000Y-80775001D01*
G75*
G02*
X126550001Y-81025000I-249999J0D01*
G01*
X125824999Y-81025000D01*
G75*
G02*
X125575000Y-80775001I0J249999D01*
G01*
X125575000Y-78624999D01*
G75*
G02*
X125824999Y-78375000I249999J0D01*
G01*
X126550001Y-78375000D01*
G75*
G02*
X126800000Y-78624999I0J-249999D01*
G01*
G37*
G04 #@! TD*
G04 #@! TO.C,C7*
G36*
G01*
X115250002Y-90525000D02*
X112349998Y-90525000D01*
G75*
G02*
X112100000Y-90275002I0J249998D01*
G01*
X112100000Y-89199998D01*
G75*
G02*
X112349998Y-88950000I249998J0D01*
G01*
X115250002Y-88950000D01*
G75*
G02*
X115500000Y-89199998I0J-249998D01*
G01*
X115500000Y-90275002D01*
G75*
G02*
X115250002Y-90525000I-249998J0D01*
G01*
G37*
G36*
G01*
X115250002Y-86250000D02*
X112349998Y-86250000D01*
G75*
G02*
X112100000Y-86000002I0J249998D01*
G01*
X112100000Y-84924998D01*
G75*
G02*
X112349998Y-84675000I249998J0D01*
G01*
X115250002Y-84675000D01*
G75*
G02*
X115500000Y-84924998I0J-249998D01*
G01*
X115500000Y-86000002D01*
G75*
G02*
X115250002Y-86250000I-249998J0D01*
G01*
G37*
G04 #@! TD*
G04 #@! TO.C,JP2*
G36*
G01*
X164674999Y-95050000D02*
X167525001Y-95050000D01*
G75*
G02*
X167775000Y-95299999I0J-249999D01*
G01*
X167775000Y-96025001D01*
G75*
G02*
X167525001Y-96275000I-249999J0D01*
G01*
X164674999Y-96275000D01*
G75*
G02*
X164425000Y-96025001I0J249999D01*
G01*
X164425000Y-95299999D01*
G75*
G02*
X164674999Y-95050000I249999J0D01*
G01*
G37*
G36*
G01*
X164674999Y-89125000D02*
X167525001Y-89125000D01*
G75*
G02*
X167775000Y-89374999I0J-249999D01*
G01*
X167775000Y-90100001D01*
G75*
G02*
X167525001Y-90350000I-249999J0D01*
G01*
X164674999Y-90350000D01*
G75*
G02*
X164425000Y-90100001I0J249999D01*
G01*
X164425000Y-89374999D01*
G75*
G02*
X164674999Y-89125000I249999J0D01*
G01*
G37*
G04 #@! TD*
G04 #@! TO.C,R1*
G36*
G01*
X125575000Y-68175001D02*
X125575000Y-66024999D01*
G75*
G02*
X125824999Y-65775000I249999J0D01*
G01*
X126550001Y-65775000D01*
G75*
G02*
X126800000Y-66024999I0J-249999D01*
G01*
X126800000Y-68175001D01*
G75*
G02*
X126550001Y-68425000I-249999J0D01*
G01*
X125824999Y-68425000D01*
G75*
G02*
X125575000Y-68175001I0J249999D01*
G01*
G37*
G36*
G01*
X130200000Y-68175001D02*
X130200000Y-66024999D01*
G75*
G02*
X130449999Y-65775000I249999J0D01*
G01*
X131175001Y-65775000D01*
G75*
G02*
X131425000Y-66024999I0J-249999D01*
G01*
X131425000Y-68175001D01*
G75*
G02*
X131175001Y-68425000I-249999J0D01*
G01*
X130449999Y-68425000D01*
G75*
G02*
X130200000Y-68175001I0J249999D01*
G01*
G37*
G04 #@! TD*
G04 #@! TO.C,R2*
G36*
G01*
X130100000Y-77375001D02*
X130100000Y-75224999D01*
G75*
G02*
X130349999Y-74975000I249999J0D01*
G01*
X131075001Y-74975000D01*
G75*
G02*
X131325000Y-75224999I0J-249999D01*
G01*
X131325000Y-77375001D01*
G75*
G02*
X131075001Y-77625000I-249999J0D01*
G01*
X130349999Y-77625000D01*
G75*
G02*
X130100000Y-77375001I0J249999D01*
G01*
G37*
G36*
G01*
X125475000Y-77375001D02*
X125475000Y-75224999D01*
G75*
G02*
X125724999Y-74975000I249999J0D01*
G01*
X126450001Y-74975000D01*
G75*
G02*
X126700000Y-75224999I0J-249999D01*
G01*
X126700000Y-77375001D01*
G75*
G02*
X126450001Y-77625000I-249999J0D01*
G01*
X125724999Y-77625000D01*
G75*
G02*
X125475000Y-77375001I0J249999D01*
G01*
G37*
G04 #@! TD*
G04 #@! TO.C,R5*
G36*
G01*
X126800000Y-69924999D02*
X126800000Y-72075001D01*
G75*
G02*
X126550001Y-72325000I-249999J0D01*
G01*
X125824999Y-72325000D01*
G75*
G02*
X125575000Y-72075001I0J249999D01*
G01*
X125575000Y-69924999D01*
G75*
G02*
X125824999Y-69675000I249999J0D01*
G01*
X126550001Y-69675000D01*
G75*
G02*
X126800000Y-69924999I0J-249999D01*
G01*
G37*
G36*
G01*
X131425000Y-69924999D02*
X131425000Y-72075001D01*
G75*
G02*
X131175001Y-72325000I-249999J0D01*
G01*
X130449999Y-72325000D01*
G75*
G02*
X130200000Y-72075001I0J249999D01*
G01*
X130200000Y-69924999D01*
G75*
G02*
X130449999Y-69675000I249999J0D01*
G01*
X131175001Y-69675000D01*
G75*
G02*
X131425000Y-69924999I0J-249999D01*
G01*
G37*
G04 #@! TD*
G04 #@! TO.C,C9*
G36*
G01*
X128999999Y-84850000D02*
X131200001Y-84850000D01*
G75*
G02*
X131450000Y-85099999I0J-249999D01*
G01*
X131450000Y-85750001D01*
G75*
G02*
X131200001Y-86000000I-249999J0D01*
G01*
X128999999Y-86000000D01*
G75*
G02*
X128750000Y-85750001I0J249999D01*
G01*
X128750000Y-85099999D01*
G75*
G02*
X128999999Y-84850000I249999J0D01*
G01*
G37*
G36*
G01*
X128999999Y-87800000D02*
X131200001Y-87800000D01*
G75*
G02*
X131450000Y-88049999I0J-249999D01*
G01*
X131450000Y-88700001D01*
G75*
G02*
X131200001Y-88950000I-249999J0D01*
G01*
X128999999Y-88950000D01*
G75*
G02*
X128750000Y-88700001I0J249999D01*
G01*
X128750000Y-88049999D01*
G75*
G02*
X128999999Y-87800000I249999J0D01*
G01*
G37*
G04 #@! TD*
G04 #@! TO.C,R3*
G36*
G01*
X127975001Y-89000000D02*
X125824999Y-89000000D01*
G75*
G02*
X125575000Y-88750001I0J249999D01*
G01*
X125575000Y-87849999D01*
G75*
G02*
X125824999Y-87600000I249999J0D01*
G01*
X127975001Y-87600000D01*
G75*
G02*
X128225000Y-87849999I0J-249999D01*
G01*
X128225000Y-88750001D01*
G75*
G02*
X127975001Y-89000000I-249999J0D01*
G01*
G37*
G36*
G01*
X127975001Y-84200000D02*
X125824999Y-84200000D01*
G75*
G02*
X125575000Y-83950001I0J249999D01*
G01*
X125575000Y-83049999D01*
G75*
G02*
X125824999Y-82800000I249999J0D01*
G01*
X127975001Y-82800000D01*
G75*
G02*
X128225000Y-83049999I0J-249999D01*
G01*
X128225000Y-83950001D01*
G75*
G02*
X127975001Y-84200000I-249999J0D01*
G01*
G37*
G04 #@! TD*
G04 #@! TO.C,C6*
G36*
G01*
X108700001Y-75300000D02*
X106499999Y-75300000D01*
G75*
G02*
X106250000Y-75050001I0J249999D01*
G01*
X106250000Y-74399999D01*
G75*
G02*
X106499999Y-74150000I249999J0D01*
G01*
X108700001Y-74150000D01*
G75*
G02*
X108950000Y-74399999I0J-249999D01*
G01*
X108950000Y-75050001D01*
G75*
G02*
X108700001Y-75300000I-249999J0D01*
G01*
G37*
G36*
G01*
X108700001Y-78250000D02*
X106499999Y-78250000D01*
G75*
G02*
X106250000Y-78000001I0J249999D01*
G01*
X106250000Y-77349999D01*
G75*
G02*
X106499999Y-77100000I249999J0D01*
G01*
X108700001Y-77100000D01*
G75*
G02*
X108950000Y-77349999I0J-249999D01*
G01*
X108950000Y-78000001D01*
G75*
G02*
X108700001Y-78250000I-249999J0D01*
G01*
G37*
G04 #@! TD*
D11*
G04 #@! TO.C,Q4*
X149117000Y-77078000D03*
X154667000Y-72228000D03*
X154667000Y-77078000D03*
X149117000Y-72228000D03*
D12*
X149352000Y-83803000D03*
X154432000Y-83803000D03*
G04 #@! TD*
G04 #@! TO.C,Q3*
X154432000Y-65376000D03*
X149352000Y-65376000D03*
D11*
X149117000Y-53801000D03*
X154667000Y-58651000D03*
X154667000Y-53801000D03*
X149117000Y-58651000D03*
G04 #@! TD*
M02*
