G04 #@! TF.GenerationSoftware,KiCad,Pcbnew,(5.1.9)-1*
G04 #@! TF.CreationDate,2021-07-02T16:45:13-04:00*
G04 #@! TF.ProjectId,Motor Controller 2020,4d6f746f-7220-4436-9f6e-74726f6c6c65,rev?*
G04 #@! TF.SameCoordinates,Original*
G04 #@! TF.FileFunction,Copper,L1,Top*
G04 #@! TF.FilePolarity,Positive*
%FSLAX46Y46*%
G04 Gerber Fmt 4.6, Leading zero omitted, Abs format (unit mm)*
G04 Created by KiCad (PCBNEW (5.1.9)-1) date 2021-07-02 16:45:13*
%MOMM*%
%LPD*%
G01*
G04 APERTURE LIST*
G04 #@! TA.AperFunction,Profile*
%ADD10C,0.050000*%
G04 #@! TD*
G04 #@! TA.AperFunction,ComponentPad*
%ADD11C,3.200000*%
G04 #@! TD*
G04 #@! TA.AperFunction,SMDPad,CuDef*
%ADD12R,1.120000X2.440000*%
G04 #@! TD*
G04 #@! TA.AperFunction,ComponentPad*
%ADD13O,2.190000X1.740000*%
G04 #@! TD*
G04 #@! TA.AperFunction,SMDPad,CuDef*
%ADD14R,2.600000X2.600000*%
G04 #@! TD*
G04 #@! TA.AperFunction,ComponentPad*
%ADD15C,0.500000*%
G04 #@! TD*
G04 #@! TA.AperFunction,SMDPad,CuDef*
%ADD16C,0.150000*%
G04 #@! TD*
G04 #@! TA.AperFunction,SMDPad,CuDef*
%ADD17R,1.700000X1.700000*%
G04 #@! TD*
G04 #@! TA.AperFunction,SMDPad,CuDef*
%ADD18C,1.000000*%
G04 #@! TD*
G04 #@! TA.AperFunction,SMDPad,CuDef*
%ADD19R,0.850000X0.300000*%
G04 #@! TD*
G04 #@! TA.AperFunction,SMDPad,CuDef*
%ADD20R,10.800000X9.400000*%
G04 #@! TD*
G04 #@! TA.AperFunction,SMDPad,CuDef*
%ADD21R,1.100000X4.600000*%
G04 #@! TD*
G04 #@! TA.AperFunction,ComponentPad*
%ADD22C,1.600000*%
G04 #@! TD*
G04 #@! TA.AperFunction,ViaPad*
%ADD23C,0.800000*%
G04 #@! TD*
G04 #@! TA.AperFunction,Conductor*
%ADD24C,0.300000*%
G04 #@! TD*
G04 #@! TA.AperFunction,Conductor*
%ADD25C,0.508000*%
G04 #@! TD*
G04 #@! TA.AperFunction,Conductor*
%ADD26C,0.350000*%
G04 #@! TD*
G04 #@! TA.AperFunction,Conductor*
%ADD27C,0.250000*%
G04 #@! TD*
G04 #@! TA.AperFunction,Conductor*
%ADD28C,0.200000*%
G04 #@! TD*
G04 #@! TA.AperFunction,Conductor*
%ADD29C,0.254000*%
G04 #@! TD*
G04 #@! TA.AperFunction,Conductor*
%ADD30C,0.150000*%
G04 #@! TD*
G04 APERTURE END LIST*
D10*
X174700000Y-102900000D02*
X174700000Y-42900000D01*
X88700000Y-42900000D02*
X174700000Y-42900000D01*
X88700000Y-102900000D02*
X88700000Y-42900000D01*
X88700000Y-102900000D02*
X174700000Y-102900000D01*
G04 #@! TO.P,R1,1*
G04 #@! TO.N,GNDD*
G04 #@! TA.AperFunction,SMDPad,CuDef*
G36*
G01*
X127375001Y-87600000D02*
X125224999Y-87600000D01*
G75*
G02*
X124975000Y-87350001I0J249999D01*
G01*
X124975000Y-86449999D01*
G75*
G02*
X125224999Y-86200000I249999J0D01*
G01*
X127375001Y-86200000D01*
G75*
G02*
X127625000Y-86449999I0J-249999D01*
G01*
X127625000Y-87350001D01*
G75*
G02*
X127375001Y-87600000I-249999J0D01*
G01*
G37*
G04 #@! TD.AperFunction*
G04 #@! TO.P,R1,2*
G04 #@! TO.N,Net-(R1-Pad2)*
G04 #@! TA.AperFunction,SMDPad,CuDef*
G36*
G01*
X127375001Y-82800000D02*
X125224999Y-82800000D01*
G75*
G02*
X124975000Y-82550001I0J249999D01*
G01*
X124975000Y-81649999D01*
G75*
G02*
X125224999Y-81400000I249999J0D01*
G01*
X127375001Y-81400000D01*
G75*
G02*
X127625000Y-81649999I0J-249999D01*
G01*
X127625000Y-82550001D01*
G75*
G02*
X127375001Y-82800000I-249999J0D01*
G01*
G37*
G04 #@! TD.AperFunction*
G04 #@! TD*
D11*
G04 #@! TO.P,J4,1*
G04 #@! TO.N,MOTOR+*
X166200000Y-65000000D03*
X166200000Y-69435000D03*
X170635000Y-65000000D03*
X166200000Y-60565000D03*
X161765000Y-65000000D03*
X161765000Y-69435000D03*
X161765000Y-60565000D03*
X170635000Y-60565000D03*
X170635000Y-69435000D03*
G04 #@! TD*
D12*
G04 #@! TO.P,SW1,1*
G04 #@! TO.N,GND*
X121960000Y-98505000D03*
G04 #@! TO.P,SW1,4*
G04 #@! TO.N,ADDR_Select_1*
X127040000Y-89895000D03*
G04 #@! TO.P,SW1,2*
G04 #@! TO.N,GND*
X124500000Y-98505000D03*
G04 #@! TO.P,SW1,5*
G04 #@! TO.N,ADDR_Select_2*
X124500000Y-89895000D03*
G04 #@! TO.P,SW1,3*
G04 #@! TO.N,GND*
X127040000Y-98505000D03*
G04 #@! TO.P,SW1,6*
G04 #@! TO.N,ADDR_Select_3*
X121960000Y-89895000D03*
G04 #@! TD*
G04 #@! TO.P,J3,1*
G04 #@! TO.N,A_RESET*
G04 #@! TA.AperFunction,ComponentPad*
G36*
G01*
X109445001Y-93470000D02*
X107754999Y-93470000D01*
G75*
G02*
X107505000Y-93220001I0J249999D01*
G01*
X107505000Y-91979999D01*
G75*
G02*
X107754999Y-91730000I249999J0D01*
G01*
X109445001Y-91730000D01*
G75*
G02*
X109695000Y-91979999I0J-249999D01*
G01*
X109695000Y-93220001D01*
G75*
G02*
X109445001Y-93470000I-249999J0D01*
G01*
G37*
G04 #@! TD.AperFunction*
D13*
G04 #@! TO.P,J3,2*
G04 #@! TO.N,SCK_SCL*
X108600000Y-90060000D03*
G04 #@! TO.P,J3,3*
G04 #@! TO.N,MISO*
X108600000Y-87520000D03*
G04 #@! TO.P,J3,4*
G04 #@! TO.N,SDA_MOSI*
X108600000Y-84980000D03*
G04 #@! TO.P,J3,5*
G04 #@! TO.N,GNDD*
X108600000Y-82440000D03*
G04 #@! TD*
G04 #@! TO.P,C9,2*
G04 #@! TO.N,GND*
G04 #@! TA.AperFunction,SMDPad,CuDef*
G36*
G01*
X118149997Y-59150000D02*
X127250003Y-59150000D01*
G75*
G02*
X127500000Y-59399997I0J-249997D01*
G01*
X127500000Y-67700003D01*
G75*
G02*
X127250003Y-67950000I-249997J0D01*
G01*
X118149997Y-67950000D01*
G75*
G02*
X117900000Y-67700003I0J249997D01*
G01*
X117900000Y-59399997D01*
G75*
G02*
X118149997Y-59150000I249997J0D01*
G01*
G37*
G04 #@! TD.AperFunction*
G04 #@! TO.P,C9,1*
G04 #@! TO.N,VCC*
G04 #@! TA.AperFunction,SMDPad,CuDef*
G36*
G01*
X118149997Y-45650000D02*
X127250003Y-45650000D01*
G75*
G02*
X127500000Y-45899997I0J-249997D01*
G01*
X127500000Y-54200003D01*
G75*
G02*
X127250003Y-54450000I-249997J0D01*
G01*
X118149997Y-54450000D01*
G75*
G02*
X117900000Y-54200003I0J249997D01*
G01*
X117900000Y-45899997D01*
G75*
G02*
X118149997Y-45650000I249997J0D01*
G01*
G37*
G04 #@! TD.AperFunction*
G04 #@! TD*
D11*
G04 #@! TO.P,J1,1*
G04 #@! TO.N,VCC*
X100828000Y-56135000D03*
X100828000Y-47265000D03*
X91958000Y-47265000D03*
X91958000Y-56135000D03*
X91958000Y-51700000D03*
X96393000Y-47265000D03*
X100828000Y-51700000D03*
X96393000Y-56135000D03*
X96393000Y-51700000D03*
G04 #@! TD*
G04 #@! TO.P,J2,1*
G04 #@! TO.N,GND*
X96400000Y-94100000D03*
X96400000Y-98535000D03*
X100835000Y-94100000D03*
X96400000Y-89665000D03*
X91965000Y-94100000D03*
X91965000Y-98535000D03*
X91965000Y-89665000D03*
X100835000Y-89665000D03*
X100835000Y-98535000D03*
G04 #@! TD*
G04 #@! TO.P,J5,1*
G04 #@! TO.N,MOTOR-*
X170635000Y-92135000D03*
X170635000Y-83265000D03*
X161765000Y-83265000D03*
X161765000Y-92135000D03*
X161765000Y-87700000D03*
X166200000Y-83265000D03*
X170635000Y-87700000D03*
X166200000Y-92135000D03*
X166200000Y-87700000D03*
G04 #@! TD*
G04 #@! TO.P,JP1,1*
G04 #@! TO.N,MOTOR+*
G04 #@! TA.AperFunction,SMDPad,CuDef*
G36*
G01*
X167625001Y-57975000D02*
X164774999Y-57975000D01*
G75*
G02*
X164525000Y-57725001I0J249999D01*
G01*
X164525000Y-56999999D01*
G75*
G02*
X164774999Y-56750000I249999J0D01*
G01*
X167625001Y-56750000D01*
G75*
G02*
X167875000Y-56999999I0J-249999D01*
G01*
X167875000Y-57725001D01*
G75*
G02*
X167625001Y-57975000I-249999J0D01*
G01*
G37*
G04 #@! TD.AperFunction*
G04 #@! TO.P,JP1,2*
G04 #@! TO.N,VCC*
G04 #@! TA.AperFunction,SMDPad,CuDef*
G36*
G01*
X167625001Y-52050000D02*
X164774999Y-52050000D01*
G75*
G02*
X164525000Y-51800001I0J249999D01*
G01*
X164525000Y-51074999D01*
G75*
G02*
X164774999Y-50825000I249999J0D01*
G01*
X167625001Y-50825000D01*
G75*
G02*
X167875000Y-51074999I0J-249999D01*
G01*
X167875000Y-51800001D01*
G75*
G02*
X167625001Y-52050000I-249999J0D01*
G01*
G37*
G04 #@! TD.AperFunction*
G04 #@! TD*
G04 #@! TO.P,C5,1*
G04 #@! TO.N,VCC*
G04 #@! TA.AperFunction,SMDPad,CuDef*
G36*
G01*
X115449998Y-68575000D02*
X118350002Y-68575000D01*
G75*
G02*
X118600000Y-68824998I0J-249998D01*
G01*
X118600000Y-69900002D01*
G75*
G02*
X118350002Y-70150000I-249998J0D01*
G01*
X115449998Y-70150000D01*
G75*
G02*
X115200000Y-69900002I0J249998D01*
G01*
X115200000Y-68824998D01*
G75*
G02*
X115449998Y-68575000I249998J0D01*
G01*
G37*
G04 #@! TD.AperFunction*
G04 #@! TO.P,C5,2*
G04 #@! TO.N,Net-(C5-Pad2)*
G04 #@! TA.AperFunction,SMDPad,CuDef*
G36*
G01*
X115449998Y-72850000D02*
X118350002Y-72850000D01*
G75*
G02*
X118600000Y-73099998I0J-249998D01*
G01*
X118600000Y-74175002D01*
G75*
G02*
X118350002Y-74425000I-249998J0D01*
G01*
X115449998Y-74425000D01*
G75*
G02*
X115200000Y-74175002I0J249998D01*
G01*
X115200000Y-73099998D01*
G75*
G02*
X115449998Y-72850000I249998J0D01*
G01*
G37*
G04 #@! TD.AperFunction*
G04 #@! TD*
G04 #@! TO.P,U2,1*
G04 #@! TO.N,Net-(R1-Pad2)*
G04 #@! TA.AperFunction,SMDPad,CuDef*
G36*
G01*
X122550000Y-80537500D02*
X122550000Y-80662500D01*
G75*
G02*
X122487500Y-80725000I-62500J0D01*
G01*
X121762500Y-80725000D01*
G75*
G02*
X121700000Y-80662500I0J62500D01*
G01*
X121700000Y-80537500D01*
G75*
G02*
X121762500Y-80475000I62500J0D01*
G01*
X122487500Y-80475000D01*
G75*
G02*
X122550000Y-80537500I0J-62500D01*
G01*
G37*
G04 #@! TD.AperFunction*
G04 #@! TO.P,U2,2*
G04 #@! TO.N,Mode*
G04 #@! TA.AperFunction,SMDPad,CuDef*
G36*
G01*
X122550000Y-80037500D02*
X122550000Y-80162500D01*
G75*
G02*
X122487500Y-80225000I-62500J0D01*
G01*
X121762500Y-80225000D01*
G75*
G02*
X121700000Y-80162500I0J62500D01*
G01*
X121700000Y-80037500D01*
G75*
G02*
X121762500Y-79975000I62500J0D01*
G01*
X122487500Y-79975000D01*
G75*
G02*
X122550000Y-80037500I0J-62500D01*
G01*
G37*
G04 #@! TD.AperFunction*
G04 #@! TO.P,U2,3*
G04 #@! TO.N,GNDD*
G04 #@! TA.AperFunction,SMDPad,CuDef*
G36*
G01*
X122550000Y-79537500D02*
X122550000Y-79662500D01*
G75*
G02*
X122487500Y-79725000I-62500J0D01*
G01*
X121762500Y-79725000D01*
G75*
G02*
X121700000Y-79662500I0J62500D01*
G01*
X121700000Y-79537500D01*
G75*
G02*
X121762500Y-79475000I62500J0D01*
G01*
X122487500Y-79475000D01*
G75*
G02*
X122550000Y-79537500I0J-62500D01*
G01*
G37*
G04 #@! TD.AperFunction*
G04 #@! TO.P,U2,4*
G04 #@! TO.N,GLB*
G04 #@! TA.AperFunction,SMDPad,CuDef*
G36*
G01*
X122550000Y-79037500D02*
X122550000Y-79162500D01*
G75*
G02*
X122487500Y-79225000I-62500J0D01*
G01*
X121762500Y-79225000D01*
G75*
G02*
X121700000Y-79162500I0J62500D01*
G01*
X121700000Y-79037500D01*
G75*
G02*
X121762500Y-78975000I62500J0D01*
G01*
X122487500Y-78975000D01*
G75*
G02*
X122550000Y-79037500I0J-62500D01*
G01*
G37*
G04 #@! TD.AperFunction*
G04 #@! TO.P,U2,5*
G04 #@! TO.N,GLA*
G04 #@! TA.AperFunction,SMDPad,CuDef*
G36*
G01*
X122550000Y-78537500D02*
X122550000Y-78662500D01*
G75*
G02*
X122487500Y-78725000I-62500J0D01*
G01*
X121762500Y-78725000D01*
G75*
G02*
X121700000Y-78662500I0J62500D01*
G01*
X121700000Y-78537500D01*
G75*
G02*
X121762500Y-78475000I62500J0D01*
G01*
X122487500Y-78475000D01*
G75*
G02*
X122550000Y-78537500I0J-62500D01*
G01*
G37*
G04 #@! TD.AperFunction*
G04 #@! TO.P,U2,6*
G04 #@! TO.N,GHB*
G04 #@! TA.AperFunction,SMDPad,CuDef*
G36*
G01*
X121325000Y-77312500D02*
X121325000Y-78037500D01*
G75*
G02*
X121262500Y-78100000I-62500J0D01*
G01*
X121137500Y-78100000D01*
G75*
G02*
X121075000Y-78037500I0J62500D01*
G01*
X121075000Y-77312500D01*
G75*
G02*
X121137500Y-77250000I62500J0D01*
G01*
X121262500Y-77250000D01*
G75*
G02*
X121325000Y-77312500I0J-62500D01*
G01*
G37*
G04 #@! TD.AperFunction*
G04 #@! TO.P,U2,7*
G04 #@! TO.N,MOTOR-*
G04 #@! TA.AperFunction,SMDPad,CuDef*
G36*
G01*
X120825000Y-77312500D02*
X120825000Y-78037500D01*
G75*
G02*
X120762500Y-78100000I-62500J0D01*
G01*
X120637500Y-78100000D01*
G75*
G02*
X120575000Y-78037500I0J62500D01*
G01*
X120575000Y-77312500D01*
G75*
G02*
X120637500Y-77250000I62500J0D01*
G01*
X120762500Y-77250000D01*
G75*
G02*
X120825000Y-77312500I0J-62500D01*
G01*
G37*
G04 #@! TD.AperFunction*
G04 #@! TO.P,U2,8*
G04 #@! TO.N,GHA*
G04 #@! TA.AperFunction,SMDPad,CuDef*
G36*
G01*
X120325000Y-77312500D02*
X120325000Y-78037500D01*
G75*
G02*
X120262500Y-78100000I-62500J0D01*
G01*
X120137500Y-78100000D01*
G75*
G02*
X120075000Y-78037500I0J62500D01*
G01*
X120075000Y-77312500D01*
G75*
G02*
X120137500Y-77250000I62500J0D01*
G01*
X120262500Y-77250000D01*
G75*
G02*
X120325000Y-77312500I0J-62500D01*
G01*
G37*
G04 #@! TD.AperFunction*
G04 #@! TO.P,U2,9*
G04 #@! TO.N,MOTOR+*
G04 #@! TA.AperFunction,SMDPad,CuDef*
G36*
G01*
X119825000Y-77312500D02*
X119825000Y-78037500D01*
G75*
G02*
X119762500Y-78100000I-62500J0D01*
G01*
X119637500Y-78100000D01*
G75*
G02*
X119575000Y-78037500I0J62500D01*
G01*
X119575000Y-77312500D01*
G75*
G02*
X119637500Y-77250000I62500J0D01*
G01*
X119762500Y-77250000D01*
G75*
G02*
X119825000Y-77312500I0J-62500D01*
G01*
G37*
G04 #@! TD.AperFunction*
G04 #@! TO.P,U2,10*
G04 #@! TO.N,Net-(C5-Pad2)*
G04 #@! TA.AperFunction,SMDPad,CuDef*
G36*
G01*
X119325000Y-77312500D02*
X119325000Y-78037500D01*
G75*
G02*
X119262500Y-78100000I-62500J0D01*
G01*
X119137500Y-78100000D01*
G75*
G02*
X119075000Y-78037500I0J62500D01*
G01*
X119075000Y-77312500D01*
G75*
G02*
X119137500Y-77250000I62500J0D01*
G01*
X119262500Y-77250000D01*
G75*
G02*
X119325000Y-77312500I0J-62500D01*
G01*
G37*
G04 #@! TD.AperFunction*
G04 #@! TO.P,U2,11*
G04 #@! TO.N,Net-(C3-Pad2)*
G04 #@! TA.AperFunction,SMDPad,CuDef*
G36*
G01*
X118700000Y-78537500D02*
X118700000Y-78662500D01*
G75*
G02*
X118637500Y-78725000I-62500J0D01*
G01*
X117912500Y-78725000D01*
G75*
G02*
X117850000Y-78662500I0J62500D01*
G01*
X117850000Y-78537500D01*
G75*
G02*
X117912500Y-78475000I62500J0D01*
G01*
X118637500Y-78475000D01*
G75*
G02*
X118700000Y-78537500I0J-62500D01*
G01*
G37*
G04 #@! TD.AperFunction*
G04 #@! TO.P,U2,12*
G04 #@! TO.N,VCC*
G04 #@! TA.AperFunction,SMDPad,CuDef*
G36*
G01*
X118700000Y-79037500D02*
X118700000Y-79162500D01*
G75*
G02*
X118637500Y-79225000I-62500J0D01*
G01*
X117912500Y-79225000D01*
G75*
G02*
X117850000Y-79162500I0J62500D01*
G01*
X117850000Y-79037500D01*
G75*
G02*
X117912500Y-78975000I62500J0D01*
G01*
X118637500Y-78975000D01*
G75*
G02*
X118700000Y-79037500I0J-62500D01*
G01*
G37*
G04 #@! TD.AperFunction*
G04 #@! TO.P,U2,13*
G04 #@! TO.N,Net-(C3-Pad1)*
G04 #@! TA.AperFunction,SMDPad,CuDef*
G36*
G01*
X118700000Y-79537500D02*
X118700000Y-79662500D01*
G75*
G02*
X118637500Y-79725000I-62500J0D01*
G01*
X117912500Y-79725000D01*
G75*
G02*
X117850000Y-79662500I0J62500D01*
G01*
X117850000Y-79537500D01*
G75*
G02*
X117912500Y-79475000I62500J0D01*
G01*
X118637500Y-79475000D01*
G75*
G02*
X118700000Y-79537500I0J-62500D01*
G01*
G37*
G04 #@! TD.AperFunction*
G04 #@! TO.P,U2,14*
G04 #@! TO.N,GNDD*
G04 #@! TA.AperFunction,SMDPad,CuDef*
G36*
G01*
X118700000Y-80037500D02*
X118700000Y-80162500D01*
G75*
G02*
X118637500Y-80225000I-62500J0D01*
G01*
X117912500Y-80225000D01*
G75*
G02*
X117850000Y-80162500I0J62500D01*
G01*
X117850000Y-80037500D01*
G75*
G02*
X117912500Y-79975000I62500J0D01*
G01*
X118637500Y-79975000D01*
G75*
G02*
X118700000Y-80037500I0J-62500D01*
G01*
G37*
G04 #@! TD.AperFunction*
G04 #@! TO.P,U2,15*
G04 #@! TO.N,Net-(U2-Pad15)*
G04 #@! TA.AperFunction,SMDPad,CuDef*
G36*
G01*
X118700000Y-80537500D02*
X118700000Y-80662500D01*
G75*
G02*
X118637500Y-80725000I-62500J0D01*
G01*
X117912500Y-80725000D01*
G75*
G02*
X117850000Y-80662500I0J62500D01*
G01*
X117850000Y-80537500D01*
G75*
G02*
X117912500Y-80475000I62500J0D01*
G01*
X118637500Y-80475000D01*
G75*
G02*
X118700000Y-80537500I0J-62500D01*
G01*
G37*
G04 #@! TD.AperFunction*
G04 #@! TO.P,U2,16*
G04 #@! TO.N,Fault*
G04 #@! TA.AperFunction,SMDPad,CuDef*
G36*
G01*
X119325000Y-81162500D02*
X119325000Y-81887500D01*
G75*
G02*
X119262500Y-81950000I-62500J0D01*
G01*
X119137500Y-81950000D01*
G75*
G02*
X119075000Y-81887500I0J62500D01*
G01*
X119075000Y-81162500D01*
G75*
G02*
X119137500Y-81100000I62500J0D01*
G01*
X119262500Y-81100000D01*
G75*
G02*
X119325000Y-81162500I0J-62500D01*
G01*
G37*
G04 #@! TD.AperFunction*
G04 #@! TO.P,U2,17*
G04 #@! TO.N,+5V*
G04 #@! TA.AperFunction,SMDPad,CuDef*
G36*
G01*
X119825000Y-81162500D02*
X119825000Y-81887500D01*
G75*
G02*
X119762500Y-81950000I-62500J0D01*
G01*
X119637500Y-81950000D01*
G75*
G02*
X119575000Y-81887500I0J62500D01*
G01*
X119575000Y-81162500D01*
G75*
G02*
X119637500Y-81100000I62500J0D01*
G01*
X119762500Y-81100000D01*
G75*
G02*
X119825000Y-81162500I0J-62500D01*
G01*
G37*
G04 #@! TD.AperFunction*
G04 #@! TO.P,U2,18*
G04 #@! TO.N,PWM*
G04 #@! TA.AperFunction,SMDPad,CuDef*
G36*
G01*
X120325000Y-81162500D02*
X120325000Y-81887500D01*
G75*
G02*
X120262500Y-81950000I-62500J0D01*
G01*
X120137500Y-81950000D01*
G75*
G02*
X120075000Y-81887500I0J62500D01*
G01*
X120075000Y-81162500D01*
G75*
G02*
X120137500Y-81100000I62500J0D01*
G01*
X120262500Y-81100000D01*
G75*
G02*
X120325000Y-81162500I0J-62500D01*
G01*
G37*
G04 #@! TD.AperFunction*
G04 #@! TO.P,U2,19*
G04 #@! TO.N,Dir*
G04 #@! TA.AperFunction,SMDPad,CuDef*
G36*
G01*
X120825000Y-81162500D02*
X120825000Y-81887500D01*
G75*
G02*
X120762500Y-81950000I-62500J0D01*
G01*
X120637500Y-81950000D01*
G75*
G02*
X120575000Y-81887500I0J62500D01*
G01*
X120575000Y-81162500D01*
G75*
G02*
X120637500Y-81100000I62500J0D01*
G01*
X120762500Y-81100000D01*
G75*
G02*
X120825000Y-81162500I0J-62500D01*
G01*
G37*
G04 #@! TD.AperFunction*
G04 #@! TO.P,U2,20*
G04 #@! TO.N,Net-(C6-Pad1)*
G04 #@! TA.AperFunction,SMDPad,CuDef*
G36*
G01*
X121325000Y-81162500D02*
X121325000Y-81887500D01*
G75*
G02*
X121262500Y-81950000I-62500J0D01*
G01*
X121137500Y-81950000D01*
G75*
G02*
X121075000Y-81887500I0J62500D01*
G01*
X121075000Y-81162500D01*
G75*
G02*
X121137500Y-81100000I62500J0D01*
G01*
X121262500Y-81100000D01*
G75*
G02*
X121325000Y-81162500I0J-62500D01*
G01*
G37*
G04 #@! TD.AperFunction*
D14*
G04 #@! TO.P,U2,21*
G04 #@! TO.N,GNDD*
X120200000Y-79600000D03*
D15*
X121250000Y-80650000D03*
X119150000Y-80650000D03*
X121250000Y-78550000D03*
X119150000Y-78550000D03*
G04 #@! TD*
G04 #@! TO.P,C4,1*
G04 #@! TO.N,GND*
G04 #@! TA.AperFunction,SMDPad,CuDef*
G36*
G01*
X108949998Y-67675000D02*
X111850002Y-67675000D01*
G75*
G02*
X112100000Y-67924998I0J-249998D01*
G01*
X112100000Y-69000002D01*
G75*
G02*
X111850002Y-69250000I-249998J0D01*
G01*
X108949998Y-69250000D01*
G75*
G02*
X108700000Y-69000002I0J249998D01*
G01*
X108700000Y-67924998D01*
G75*
G02*
X108949998Y-67675000I249998J0D01*
G01*
G37*
G04 #@! TD.AperFunction*
G04 #@! TO.P,C4,2*
G04 #@! TO.N,VCC*
G04 #@! TA.AperFunction,SMDPad,CuDef*
G36*
G01*
X108949998Y-71950000D02*
X111850002Y-71950000D01*
G75*
G02*
X112100000Y-72199998I0J-249998D01*
G01*
X112100000Y-73275002D01*
G75*
G02*
X111850002Y-73525000I-249998J0D01*
G01*
X108949998Y-73525000D01*
G75*
G02*
X108700000Y-73275002I0J249998D01*
G01*
X108700000Y-72199998D01*
G75*
G02*
X108949998Y-71950000I249998J0D01*
G01*
G37*
G04 #@! TD.AperFunction*
G04 #@! TD*
G04 #@! TA.AperFunction,SMDPad,CuDef*
D16*
G04 #@! TO.P,U3,1*
G04 #@! TO.N,Net-(U3-Pad1)*
G36*
X118361956Y-88399039D02*
G01*
X118352577Y-88396194D01*
X118343932Y-88391573D01*
X118336356Y-88385355D01*
X118285645Y-88334644D01*
X118279427Y-88327068D01*
X118274806Y-88318423D01*
X118271961Y-88309044D01*
X118271000Y-88299289D01*
X118271000Y-88250000D01*
X118271961Y-88240245D01*
X118274806Y-88230866D01*
X118279427Y-88222221D01*
X118285645Y-88214645D01*
X118293221Y-88208427D01*
X118301866Y-88203806D01*
X118311245Y-88200961D01*
X118321000Y-88200000D01*
X119021000Y-88200000D01*
X119030755Y-88200961D01*
X119040134Y-88203806D01*
X119048779Y-88208427D01*
X119056355Y-88214645D01*
X119062573Y-88222221D01*
X119067194Y-88230866D01*
X119070039Y-88240245D01*
X119071000Y-88250000D01*
X119071000Y-88350000D01*
X119070039Y-88359755D01*
X119067194Y-88369134D01*
X119062573Y-88377779D01*
X119056355Y-88385355D01*
X119048779Y-88391573D01*
X119040134Y-88396194D01*
X119030755Y-88399039D01*
X119021000Y-88400000D01*
X118371711Y-88400000D01*
X118361956Y-88399039D01*
G37*
G04 #@! TD.AperFunction*
G04 #@! TO.P,U3,2*
G04 #@! TO.N,ADDR_Select_3*
G04 #@! TA.AperFunction,SMDPad,CuDef*
G36*
G01*
X119071000Y-87850000D02*
X119071000Y-87950000D01*
G75*
G02*
X119021000Y-88000000I-50000J0D01*
G01*
X118321000Y-88000000D01*
G75*
G02*
X118271000Y-87950000I0J50000D01*
G01*
X118271000Y-87850000D01*
G75*
G02*
X118321000Y-87800000I50000J0D01*
G01*
X119021000Y-87800000D01*
G75*
G02*
X119071000Y-87850000I0J-50000D01*
G01*
G37*
G04 #@! TD.AperFunction*
G04 #@! TO.P,U3,3*
G04 #@! TO.N,ADDR_Select_2*
G04 #@! TA.AperFunction,SMDPad,CuDef*
G36*
G01*
X119071000Y-87450000D02*
X119071000Y-87550000D01*
G75*
G02*
X119021000Y-87600000I-50000J0D01*
G01*
X118321000Y-87600000D01*
G75*
G02*
X118271000Y-87550000I0J50000D01*
G01*
X118271000Y-87450000D01*
G75*
G02*
X118321000Y-87400000I50000J0D01*
G01*
X119021000Y-87400000D01*
G75*
G02*
X119071000Y-87450000I0J-50000D01*
G01*
G37*
G04 #@! TD.AperFunction*
G04 #@! TO.P,U3,4*
G04 #@! TO.N,ADDR_Select_1*
G04 #@! TA.AperFunction,SMDPad,CuDef*
G36*
G01*
X119071000Y-87050000D02*
X119071000Y-87150000D01*
G75*
G02*
X119021000Y-87200000I-50000J0D01*
G01*
X118321000Y-87200000D01*
G75*
G02*
X118271000Y-87150000I0J50000D01*
G01*
X118271000Y-87050000D01*
G75*
G02*
X118321000Y-87000000I50000J0D01*
G01*
X119021000Y-87000000D01*
G75*
G02*
X119071000Y-87050000I0J-50000D01*
G01*
G37*
G04 #@! TD.AperFunction*
G04 #@! TA.AperFunction,SMDPad,CuDef*
G04 #@! TO.P,U3,5*
G04 #@! TO.N,Mode*
G36*
X118311245Y-86799039D02*
G01*
X118301866Y-86796194D01*
X118293221Y-86791573D01*
X118285645Y-86785355D01*
X118279427Y-86777779D01*
X118274806Y-86769134D01*
X118271961Y-86759755D01*
X118271000Y-86750000D01*
X118271000Y-86700711D01*
X118271961Y-86690956D01*
X118274806Y-86681577D01*
X118279427Y-86672932D01*
X118285645Y-86665356D01*
X118336356Y-86614645D01*
X118343932Y-86608427D01*
X118352577Y-86603806D01*
X118361956Y-86600961D01*
X118371711Y-86600000D01*
X119021000Y-86600000D01*
X119030755Y-86600961D01*
X119040134Y-86603806D01*
X119048779Y-86608427D01*
X119056355Y-86614645D01*
X119062573Y-86622221D01*
X119067194Y-86630866D01*
X119070039Y-86640245D01*
X119071000Y-86650000D01*
X119071000Y-86750000D01*
X119070039Y-86759755D01*
X119067194Y-86769134D01*
X119062573Y-86777779D01*
X119056355Y-86785355D01*
X119048779Y-86791573D01*
X119040134Y-86796194D01*
X119030755Y-86799039D01*
X119021000Y-86800000D01*
X118321000Y-86800000D01*
X118311245Y-86799039D01*
G37*
G04 #@! TD.AperFunction*
G04 #@! TA.AperFunction,SMDPad,CuDef*
G04 #@! TO.P,U3,6*
G04 #@! TO.N,Net-(U3-Pad6)*
G36*
X117961245Y-86449039D02*
G01*
X117951866Y-86446194D01*
X117943221Y-86441573D01*
X117935645Y-86435355D01*
X117929427Y-86427779D01*
X117924806Y-86419134D01*
X117921961Y-86409755D01*
X117921000Y-86400000D01*
X117921000Y-85700000D01*
X117921961Y-85690245D01*
X117924806Y-85680866D01*
X117929427Y-85672221D01*
X117935645Y-85664645D01*
X117943221Y-85658427D01*
X117951866Y-85653806D01*
X117961245Y-85650961D01*
X117971000Y-85650000D01*
X118071000Y-85650000D01*
X118080755Y-85650961D01*
X118090134Y-85653806D01*
X118098779Y-85658427D01*
X118106355Y-85664645D01*
X118112573Y-85672221D01*
X118117194Y-85680866D01*
X118120039Y-85690245D01*
X118121000Y-85700000D01*
X118121000Y-86349289D01*
X118120039Y-86359044D01*
X118117194Y-86368423D01*
X118112573Y-86377068D01*
X118106355Y-86384644D01*
X118055644Y-86435355D01*
X118048068Y-86441573D01*
X118039423Y-86446194D01*
X118030044Y-86449039D01*
X118020289Y-86450000D01*
X117971000Y-86450000D01*
X117961245Y-86449039D01*
G37*
G04 #@! TD.AperFunction*
G04 #@! TO.P,U3,7*
G04 #@! TO.N,Net-(U3-Pad7)*
G04 #@! TA.AperFunction,SMDPad,CuDef*
G36*
G01*
X117721000Y-85700000D02*
X117721000Y-86400000D01*
G75*
G02*
X117671000Y-86450000I-50000J0D01*
G01*
X117571000Y-86450000D01*
G75*
G02*
X117521000Y-86400000I0J50000D01*
G01*
X117521000Y-85700000D01*
G75*
G02*
X117571000Y-85650000I50000J0D01*
G01*
X117671000Y-85650000D01*
G75*
G02*
X117721000Y-85700000I0J-50000D01*
G01*
G37*
G04 #@! TD.AperFunction*
G04 #@! TO.P,U3,8*
G04 #@! TO.N,GNDD*
G04 #@! TA.AperFunction,SMDPad,CuDef*
G36*
G01*
X117321000Y-85700000D02*
X117321000Y-86400000D01*
G75*
G02*
X117271000Y-86450000I-50000J0D01*
G01*
X117171000Y-86450000D01*
G75*
G02*
X117121000Y-86400000I0J50000D01*
G01*
X117121000Y-85700000D01*
G75*
G02*
X117171000Y-85650000I50000J0D01*
G01*
X117271000Y-85650000D01*
G75*
G02*
X117321000Y-85700000I0J-50000D01*
G01*
G37*
G04 #@! TD.AperFunction*
G04 #@! TO.P,U3,9*
G04 #@! TO.N,Fault*
G04 #@! TA.AperFunction,SMDPad,CuDef*
G36*
G01*
X116921000Y-85700000D02*
X116921000Y-86400000D01*
G75*
G02*
X116871000Y-86450000I-50000J0D01*
G01*
X116771000Y-86450000D01*
G75*
G02*
X116721000Y-86400000I0J50000D01*
G01*
X116721000Y-85700000D01*
G75*
G02*
X116771000Y-85650000I50000J0D01*
G01*
X116871000Y-85650000D01*
G75*
G02*
X116921000Y-85700000I0J-50000D01*
G01*
G37*
G04 #@! TD.AperFunction*
G04 #@! TA.AperFunction,SMDPad,CuDef*
G04 #@! TO.P,U3,10*
G04 #@! TO.N,Net-(U3-Pad10)*
G36*
X116411956Y-86449039D02*
G01*
X116402577Y-86446194D01*
X116393932Y-86441573D01*
X116386356Y-86435355D01*
X116335645Y-86384644D01*
X116329427Y-86377068D01*
X116324806Y-86368423D01*
X116321961Y-86359044D01*
X116321000Y-86349289D01*
X116321000Y-85700000D01*
X116321961Y-85690245D01*
X116324806Y-85680866D01*
X116329427Y-85672221D01*
X116335645Y-85664645D01*
X116343221Y-85658427D01*
X116351866Y-85653806D01*
X116361245Y-85650961D01*
X116371000Y-85650000D01*
X116471000Y-85650000D01*
X116480755Y-85650961D01*
X116490134Y-85653806D01*
X116498779Y-85658427D01*
X116506355Y-85664645D01*
X116512573Y-85672221D01*
X116517194Y-85680866D01*
X116520039Y-85690245D01*
X116521000Y-85700000D01*
X116521000Y-86400000D01*
X116520039Y-86409755D01*
X116517194Y-86419134D01*
X116512573Y-86427779D01*
X116506355Y-86435355D01*
X116498779Y-86441573D01*
X116490134Y-86446194D01*
X116480755Y-86449039D01*
X116471000Y-86450000D01*
X116421711Y-86450000D01*
X116411956Y-86449039D01*
G37*
G04 #@! TD.AperFunction*
G04 #@! TA.AperFunction,SMDPad,CuDef*
G04 #@! TO.P,U3,11*
G04 #@! TO.N,Net-(U3-Pad11)*
G36*
X115411245Y-86799039D02*
G01*
X115401866Y-86796194D01*
X115393221Y-86791573D01*
X115385645Y-86785355D01*
X115379427Y-86777779D01*
X115374806Y-86769134D01*
X115371961Y-86759755D01*
X115371000Y-86750000D01*
X115371000Y-86650000D01*
X115371961Y-86640245D01*
X115374806Y-86630866D01*
X115379427Y-86622221D01*
X115385645Y-86614645D01*
X115393221Y-86608427D01*
X115401866Y-86603806D01*
X115411245Y-86600961D01*
X115421000Y-86600000D01*
X116070289Y-86600000D01*
X116080044Y-86600961D01*
X116089423Y-86603806D01*
X116098068Y-86608427D01*
X116105644Y-86614645D01*
X116156355Y-86665356D01*
X116162573Y-86672932D01*
X116167194Y-86681577D01*
X116170039Y-86690956D01*
X116171000Y-86700711D01*
X116171000Y-86750000D01*
X116170039Y-86759755D01*
X116167194Y-86769134D01*
X116162573Y-86777779D01*
X116156355Y-86785355D01*
X116148779Y-86791573D01*
X116140134Y-86796194D01*
X116130755Y-86799039D01*
X116121000Y-86800000D01*
X115421000Y-86800000D01*
X115411245Y-86799039D01*
G37*
G04 #@! TD.AperFunction*
G04 #@! TO.P,U3,12*
G04 #@! TO.N,Net-(U3-Pad12)*
G04 #@! TA.AperFunction,SMDPad,CuDef*
G36*
G01*
X116171000Y-87050000D02*
X116171000Y-87150000D01*
G75*
G02*
X116121000Y-87200000I-50000J0D01*
G01*
X115421000Y-87200000D01*
G75*
G02*
X115371000Y-87150000I0J50000D01*
G01*
X115371000Y-87050000D01*
G75*
G02*
X115421000Y-87000000I50000J0D01*
G01*
X116121000Y-87000000D01*
G75*
G02*
X116171000Y-87050000I0J-50000D01*
G01*
G37*
G04 #@! TD.AperFunction*
G04 #@! TO.P,U3,13*
G04 #@! TO.N,Dir*
G04 #@! TA.AperFunction,SMDPad,CuDef*
G36*
G01*
X116171000Y-87450000D02*
X116171000Y-87550000D01*
G75*
G02*
X116121000Y-87600000I-50000J0D01*
G01*
X115421000Y-87600000D01*
G75*
G02*
X115371000Y-87550000I0J50000D01*
G01*
X115371000Y-87450000D01*
G75*
G02*
X115421000Y-87400000I50000J0D01*
G01*
X116121000Y-87400000D01*
G75*
G02*
X116171000Y-87450000I0J-50000D01*
G01*
G37*
G04 #@! TD.AperFunction*
G04 #@! TO.P,U3,14*
G04 #@! TO.N,PWM*
G04 #@! TA.AperFunction,SMDPad,CuDef*
G36*
G01*
X116171000Y-87850000D02*
X116171000Y-87950000D01*
G75*
G02*
X116121000Y-88000000I-50000J0D01*
G01*
X115421000Y-88000000D01*
G75*
G02*
X115371000Y-87950000I0J50000D01*
G01*
X115371000Y-87850000D01*
G75*
G02*
X115421000Y-87800000I50000J0D01*
G01*
X116121000Y-87800000D01*
G75*
G02*
X116171000Y-87850000I0J-50000D01*
G01*
G37*
G04 #@! TD.AperFunction*
G04 #@! TA.AperFunction,SMDPad,CuDef*
G04 #@! TO.P,U3,15*
G04 #@! TO.N,SDA_MOSI*
G36*
X115411245Y-88399039D02*
G01*
X115401866Y-88396194D01*
X115393221Y-88391573D01*
X115385645Y-88385355D01*
X115379427Y-88377779D01*
X115374806Y-88369134D01*
X115371961Y-88359755D01*
X115371000Y-88350000D01*
X115371000Y-88250000D01*
X115371961Y-88240245D01*
X115374806Y-88230866D01*
X115379427Y-88222221D01*
X115385645Y-88214645D01*
X115393221Y-88208427D01*
X115401866Y-88203806D01*
X115411245Y-88200961D01*
X115421000Y-88200000D01*
X116121000Y-88200000D01*
X116130755Y-88200961D01*
X116140134Y-88203806D01*
X116148779Y-88208427D01*
X116156355Y-88214645D01*
X116162573Y-88222221D01*
X116167194Y-88230866D01*
X116170039Y-88240245D01*
X116171000Y-88250000D01*
X116171000Y-88299289D01*
X116170039Y-88309044D01*
X116167194Y-88318423D01*
X116162573Y-88327068D01*
X116156355Y-88334644D01*
X116105644Y-88385355D01*
X116098068Y-88391573D01*
X116089423Y-88396194D01*
X116080044Y-88399039D01*
X116070289Y-88400000D01*
X115421000Y-88400000D01*
X115411245Y-88399039D01*
G37*
G04 #@! TD.AperFunction*
G04 #@! TA.AperFunction,SMDPad,CuDef*
G04 #@! TO.P,U3,16*
G04 #@! TO.N,MISO*
G36*
X116361245Y-89349039D02*
G01*
X116351866Y-89346194D01*
X116343221Y-89341573D01*
X116335645Y-89335355D01*
X116329427Y-89327779D01*
X116324806Y-89319134D01*
X116321961Y-89309755D01*
X116321000Y-89300000D01*
X116321000Y-88650711D01*
X116321961Y-88640956D01*
X116324806Y-88631577D01*
X116329427Y-88622932D01*
X116335645Y-88615356D01*
X116386356Y-88564645D01*
X116393932Y-88558427D01*
X116402577Y-88553806D01*
X116411956Y-88550961D01*
X116421711Y-88550000D01*
X116471000Y-88550000D01*
X116480755Y-88550961D01*
X116490134Y-88553806D01*
X116498779Y-88558427D01*
X116506355Y-88564645D01*
X116512573Y-88572221D01*
X116517194Y-88580866D01*
X116520039Y-88590245D01*
X116521000Y-88600000D01*
X116521000Y-89300000D01*
X116520039Y-89309755D01*
X116517194Y-89319134D01*
X116512573Y-89327779D01*
X116506355Y-89335355D01*
X116498779Y-89341573D01*
X116490134Y-89346194D01*
X116480755Y-89349039D01*
X116471000Y-89350000D01*
X116371000Y-89350000D01*
X116361245Y-89349039D01*
G37*
G04 #@! TD.AperFunction*
G04 #@! TO.P,U3,17*
G04 #@! TO.N,SCK_SCL*
G04 #@! TA.AperFunction,SMDPad,CuDef*
G36*
G01*
X116921000Y-88600000D02*
X116921000Y-89300000D01*
G75*
G02*
X116871000Y-89350000I-50000J0D01*
G01*
X116771000Y-89350000D01*
G75*
G02*
X116721000Y-89300000I0J50000D01*
G01*
X116721000Y-88600000D01*
G75*
G02*
X116771000Y-88550000I50000J0D01*
G01*
X116871000Y-88550000D01*
G75*
G02*
X116921000Y-88600000I0J-50000D01*
G01*
G37*
G04 #@! TD.AperFunction*
G04 #@! TO.P,U3,18*
G04 #@! TO.N,+5V*
G04 #@! TA.AperFunction,SMDPad,CuDef*
G36*
G01*
X117321000Y-88600000D02*
X117321000Y-89300000D01*
G75*
G02*
X117271000Y-89350000I-50000J0D01*
G01*
X117171000Y-89350000D01*
G75*
G02*
X117121000Y-89300000I0J50000D01*
G01*
X117121000Y-88600000D01*
G75*
G02*
X117171000Y-88550000I50000J0D01*
G01*
X117271000Y-88550000D01*
G75*
G02*
X117321000Y-88600000I0J-50000D01*
G01*
G37*
G04 #@! TD.AperFunction*
G04 #@! TO.P,U3,19*
G04 #@! TO.N,A_RESET*
G04 #@! TA.AperFunction,SMDPad,CuDef*
G36*
G01*
X117721000Y-88600000D02*
X117721000Y-89300000D01*
G75*
G02*
X117671000Y-89350000I-50000J0D01*
G01*
X117571000Y-89350000D01*
G75*
G02*
X117521000Y-89300000I0J50000D01*
G01*
X117521000Y-88600000D01*
G75*
G02*
X117571000Y-88550000I50000J0D01*
G01*
X117671000Y-88550000D01*
G75*
G02*
X117721000Y-88600000I0J-50000D01*
G01*
G37*
G04 #@! TD.AperFunction*
G04 #@! TA.AperFunction,SMDPad,CuDef*
G04 #@! TO.P,U3,20*
G04 #@! TO.N,Net-(U3-Pad20)*
G36*
X117961245Y-89349039D02*
G01*
X117951866Y-89346194D01*
X117943221Y-89341573D01*
X117935645Y-89335355D01*
X117929427Y-89327779D01*
X117924806Y-89319134D01*
X117921961Y-89309755D01*
X117921000Y-89300000D01*
X117921000Y-88600000D01*
X117921961Y-88590245D01*
X117924806Y-88580866D01*
X117929427Y-88572221D01*
X117935645Y-88564645D01*
X117943221Y-88558427D01*
X117951866Y-88553806D01*
X117961245Y-88550961D01*
X117971000Y-88550000D01*
X118020289Y-88550000D01*
X118030044Y-88550961D01*
X118039423Y-88553806D01*
X118048068Y-88558427D01*
X118055644Y-88564645D01*
X118106355Y-88615356D01*
X118112573Y-88622932D01*
X118117194Y-88631577D01*
X118120039Y-88640956D01*
X118121000Y-88650711D01*
X118121000Y-89300000D01*
X118120039Y-89309755D01*
X118117194Y-89319134D01*
X118112573Y-89327779D01*
X118106355Y-89335355D01*
X118098779Y-89341573D01*
X118090134Y-89346194D01*
X118080755Y-89349039D01*
X118071000Y-89350000D01*
X117971000Y-89350000D01*
X117961245Y-89349039D01*
G37*
G04 #@! TD.AperFunction*
D17*
G04 #@! TO.P,U3,21*
G04 #@! TO.N,GNDD*
X117221000Y-87500000D03*
D15*
X117821000Y-88100000D03*
X116621000Y-88100000D03*
X117821000Y-86900000D03*
X116621000Y-86900000D03*
G04 #@! TD*
D18*
G04 #@! TO.P,TP1,1*
G04 #@! TO.N,Dir*
X121100000Y-84300000D03*
G04 #@! TD*
G04 #@! TO.P,TP2,1*
G04 #@! TO.N,PWM*
X113100000Y-85400000D03*
G04 #@! TD*
G04 #@! TO.P,TP3,1*
G04 #@! TO.N,Fault*
X116300000Y-81500000D03*
G04 #@! TD*
G04 #@! TO.P,TP4,1*
G04 #@! TO.N,Mode*
X126500000Y-80000000D03*
G04 #@! TD*
G04 #@! TO.P,C1,1*
G04 #@! TO.N,VCC*
G04 #@! TA.AperFunction,SMDPad,CuDef*
G36*
G01*
X106850000Y-72799999D02*
X106850000Y-75000001D01*
G75*
G02*
X106600001Y-75250000I-249999J0D01*
G01*
X105949999Y-75250000D01*
G75*
G02*
X105700000Y-75000001I0J249999D01*
G01*
X105700000Y-72799999D01*
G75*
G02*
X105949999Y-72550000I249999J0D01*
G01*
X106600001Y-72550000D01*
G75*
G02*
X106850000Y-72799999I0J-249999D01*
G01*
G37*
G04 #@! TD.AperFunction*
G04 #@! TO.P,C1,2*
G04 #@! TO.N,GND*
G04 #@! TA.AperFunction,SMDPad,CuDef*
G36*
G01*
X103900000Y-72799999D02*
X103900000Y-75000001D01*
G75*
G02*
X103650001Y-75250000I-249999J0D01*
G01*
X102999999Y-75250000D01*
G75*
G02*
X102750000Y-75000001I0J249999D01*
G01*
X102750000Y-72799999D01*
G75*
G02*
X102999999Y-72550000I249999J0D01*
G01*
X103650001Y-72550000D01*
G75*
G02*
X103900000Y-72799999I0J-249999D01*
G01*
G37*
G04 #@! TD.AperFunction*
G04 #@! TD*
G04 #@! TO.P,C7,1*
G04 #@! TO.N,Net-(C7-Pad1)*
G04 #@! TA.AperFunction,SMDPad,CuDef*
G36*
G01*
X102399999Y-75850000D02*
X104600001Y-75850000D01*
G75*
G02*
X104850000Y-76099999I0J-249999D01*
G01*
X104850000Y-76750001D01*
G75*
G02*
X104600001Y-77000000I-249999J0D01*
G01*
X102399999Y-77000000D01*
G75*
G02*
X102150000Y-76750001I0J249999D01*
G01*
X102150000Y-76099999D01*
G75*
G02*
X102399999Y-75850000I249999J0D01*
G01*
G37*
G04 #@! TD.AperFunction*
G04 #@! TO.P,C7,2*
G04 #@! TO.N,GND*
G04 #@! TA.AperFunction,SMDPad,CuDef*
G36*
G01*
X102399999Y-78800000D02*
X104600001Y-78800000D01*
G75*
G02*
X104850000Y-79049999I0J-249999D01*
G01*
X104850000Y-79700001D01*
G75*
G02*
X104600001Y-79950000I-249999J0D01*
G01*
X102399999Y-79950000D01*
G75*
G02*
X102150000Y-79700001I0J249999D01*
G01*
X102150000Y-79049999D01*
G75*
G02*
X102399999Y-78800000I249999J0D01*
G01*
G37*
G04 #@! TD.AperFunction*
G04 #@! TD*
G04 #@! TO.P,L1,1*
G04 #@! TO.N,Net-(L1-Pad1)*
G04 #@! TA.AperFunction,SMDPad,CuDef*
G36*
G01*
X111125000Y-74875000D02*
X113275000Y-74875000D01*
G75*
G02*
X113525000Y-75125000I0J-250000D01*
G01*
X113525000Y-75875000D01*
G75*
G02*
X113275000Y-76125000I-250000J0D01*
G01*
X111125000Y-76125000D01*
G75*
G02*
X110875000Y-75875000I0J250000D01*
G01*
X110875000Y-75125000D01*
G75*
G02*
X111125000Y-74875000I250000J0D01*
G01*
G37*
G04 #@! TD.AperFunction*
G04 #@! TO.P,L1,2*
G04 #@! TO.N,+5V*
G04 #@! TA.AperFunction,SMDPad,CuDef*
G36*
G01*
X111125000Y-77675000D02*
X113275000Y-77675000D01*
G75*
G02*
X113525000Y-77925000I0J-250000D01*
G01*
X113525000Y-78675000D01*
G75*
G02*
X113275000Y-78925000I-250000J0D01*
G01*
X111125000Y-78925000D01*
G75*
G02*
X110875000Y-78675000I0J250000D01*
G01*
X110875000Y-77925000D01*
G75*
G02*
X111125000Y-77675000I250000J0D01*
G01*
G37*
G04 #@! TD.AperFunction*
G04 #@! TD*
D19*
G04 #@! TO.P,U1,1*
G04 #@! TO.N,VCC*
X106550000Y-76650000D03*
G04 #@! TO.P,U1,2*
X106550000Y-77150000D03*
G04 #@! TO.P,U1,3*
G04 #@! TO.N,Net-(C7-Pad1)*
X106550000Y-77650000D03*
G04 #@! TO.P,U1,4*
G04 #@! TO.N,+5V*
X106550000Y-78150000D03*
G04 #@! TO.P,U1,5*
G04 #@! TO.N,Net-(U1-Pad5)*
X108450000Y-78150000D03*
G04 #@! TO.P,U1,6*
G04 #@! TO.N,Net-(U1-Pad6)*
X108450000Y-77650000D03*
G04 #@! TO.P,U1,7*
G04 #@! TO.N,GND*
X108450000Y-77150000D03*
G04 #@! TO.P,U1,8*
G04 #@! TO.N,Net-(L1-Pad1)*
X108450000Y-76650000D03*
G04 #@! TD*
D20*
G04 #@! TO.P,Q1,2*
G04 #@! TO.N,VCC*
X140200000Y-56225000D03*
D21*
G04 #@! TO.P,Q1,3*
G04 #@! TO.N,MOTOR+*
X142740000Y-65375000D03*
G04 #@! TO.P,Q1,1*
G04 #@! TO.N,Net-(Q1-Pad1)*
X137660000Y-65375000D03*
G04 #@! TD*
D20*
G04 #@! TO.P,Q2,2*
G04 #@! TO.N,MOTOR+*
X140354000Y-74625000D03*
D21*
G04 #@! TO.P,Q2,3*
G04 #@! TO.N,GND*
X142894000Y-83775000D03*
G04 #@! TO.P,Q2,1*
G04 #@! TO.N,Net-(Q2-Pad1)*
X137814000Y-83775000D03*
G04 #@! TD*
G04 #@! TO.P,Q3,1*
G04 #@! TO.N,Net-(Q1-Pad1)*
X149333000Y-65388000D03*
G04 #@! TO.P,Q3,3*
G04 #@! TO.N,MOTOR+*
X154413000Y-65388000D03*
D20*
G04 #@! TO.P,Q3,2*
G04 #@! TO.N,VCC*
X151873000Y-56238000D03*
G04 #@! TD*
D21*
G04 #@! TO.P,Q4,1*
G04 #@! TO.N,Net-(Q2-Pad1)*
X149352000Y-83775000D03*
G04 #@! TO.P,Q4,3*
G04 #@! TO.N,GND*
X154432000Y-83775000D03*
D20*
G04 #@! TO.P,Q4,2*
G04 #@! TO.N,MOTOR+*
X151892000Y-74625000D03*
G04 #@! TD*
G04 #@! TO.P,C8,2*
G04 #@! TO.N,GND*
G04 #@! TA.AperFunction,SMDPad,CuDef*
G36*
G01*
X109899999Y-57400000D02*
X112100001Y-57400000D01*
G75*
G02*
X112350000Y-57649999I0J-249999D01*
G01*
X112350000Y-58300001D01*
G75*
G02*
X112100001Y-58550000I-249999J0D01*
G01*
X109899999Y-58550000D01*
G75*
G02*
X109650000Y-58300001I0J249999D01*
G01*
X109650000Y-57649999D01*
G75*
G02*
X109899999Y-57400000I249999J0D01*
G01*
G37*
G04 #@! TD.AperFunction*
G04 #@! TO.P,C8,1*
G04 #@! TO.N,VCC*
G04 #@! TA.AperFunction,SMDPad,CuDef*
G36*
G01*
X109899999Y-54450000D02*
X112100001Y-54450000D01*
G75*
G02*
X112350000Y-54699999I0J-249999D01*
G01*
X112350000Y-55350001D01*
G75*
G02*
X112100001Y-55600000I-249999J0D01*
G01*
X109899999Y-55600000D01*
G75*
G02*
X109650000Y-55350001I0J249999D01*
G01*
X109650000Y-54699999D01*
G75*
G02*
X109899999Y-54450000I249999J0D01*
G01*
G37*
G04 #@! TD.AperFunction*
G04 #@! TD*
D22*
G04 #@! TO.P,C10,1*
G04 #@! TO.N,MOTOR-*
X169800000Y-77800000D03*
G04 #@! TO.P,C10,2*
G04 #@! TO.N,MOTOR+*
X169800000Y-75300000D03*
G04 #@! TD*
D18*
G04 #@! TO.P,TP7,1*
G04 #@! TO.N,Net-(C5-Pad2)*
X121000000Y-70300000D03*
G04 #@! TD*
D23*
G04 #@! TO.N,VCC*
X134600000Y-44300000D03*
G04 #@! TO.N,GND*
X133300000Y-82051000D03*
X134500000Y-82051000D03*
X135800000Y-82051000D03*
X133300000Y-83251000D03*
G04 #@! TO.N,VCC*
X103500000Y-44300000D03*
G04 #@! TO.N,Net-(Q1-Pad1)*
X133200000Y-64500000D03*
G04 #@! TO.N,GLA*
X124500000Y-76200000D03*
G04 #@! TO.N,Net-(Q2-Pad1)*
X134000000Y-78700000D03*
G04 #@! TO.N,GHA*
X122900000Y-72400000D03*
G04 #@! TO.N,GND*
X109900000Y-77500000D03*
X91059000Y-76170000D03*
X92329000Y-76170000D03*
X93599000Y-76170000D03*
X94869000Y-76170000D03*
X96139000Y-76170000D03*
X97409000Y-76170000D03*
X98679000Y-76170000D03*
X99949000Y-76170000D03*
X91059000Y-77440000D03*
X92329000Y-77440000D03*
X93599000Y-77440000D03*
X94869000Y-77440000D03*
X96139000Y-77440000D03*
X97409000Y-77440000D03*
X98679000Y-77440000D03*
X99949000Y-77440000D03*
X91059000Y-78710000D03*
X92329000Y-78710000D03*
X93599000Y-78710000D03*
X94869000Y-78710000D03*
X96139000Y-78710000D03*
X97409000Y-78710000D03*
X98679000Y-78710000D03*
X99949000Y-78710000D03*
X91059000Y-79980000D03*
X92329000Y-79980000D03*
X93599000Y-79980000D03*
X94869000Y-79980000D03*
X96139000Y-79980000D03*
X97409000Y-79980000D03*
X98679000Y-79980000D03*
X99949000Y-79980000D03*
X91059000Y-81250000D03*
X92329000Y-81250000D03*
X93599000Y-81250000D03*
X94869000Y-81250000D03*
X96139000Y-81250000D03*
X97409000Y-81250000D03*
X98679000Y-81250000D03*
X99949000Y-81250000D03*
X91059000Y-82520000D03*
X92329000Y-82520000D03*
X93599000Y-82520000D03*
X94869000Y-82520000D03*
X96139000Y-82520000D03*
X97409000Y-82520000D03*
X98679000Y-82520000D03*
X91059000Y-83790000D03*
X92329000Y-83790000D03*
X93599000Y-83790000D03*
X94869000Y-83790000D03*
X96139000Y-83790000D03*
X97409000Y-83790000D03*
X98679000Y-83790000D03*
X91059000Y-85060000D03*
X92309000Y-85060000D03*
X93559000Y-85060000D03*
X94809000Y-85060000D03*
X96059000Y-85060000D03*
X97309000Y-85060000D03*
X98559000Y-85060000D03*
X91059000Y-86310000D03*
X92309000Y-86310000D03*
X93559000Y-86310000D03*
X94809000Y-86310000D03*
X96059000Y-86310000D03*
X97309000Y-86310000D03*
X98559000Y-86310000D03*
X101199000Y-81250000D03*
X102449000Y-81250000D03*
X103699000Y-81250000D03*
X99949000Y-82500000D03*
X101199000Y-82500000D03*
X102449000Y-82500000D03*
X103699000Y-82500000D03*
X99949000Y-83750000D03*
X101199000Y-83750000D03*
X102449000Y-83750000D03*
X103699000Y-83750000D03*
X99949000Y-85000000D03*
X101199000Y-85000000D03*
X102449000Y-85000000D03*
X103699000Y-85000000D03*
X99949000Y-86250000D03*
X101199000Y-86250000D03*
X102449000Y-86250000D03*
X103699000Y-86250000D03*
X133300000Y-94551000D03*
X133300000Y-93301000D03*
X133300000Y-92051000D03*
X133300000Y-90801000D03*
X133300000Y-89551000D03*
X133300000Y-88301000D03*
X133300000Y-87051000D03*
X134550000Y-94551000D03*
X134550000Y-93301000D03*
X134550000Y-92051000D03*
X134550000Y-90801000D03*
X134550000Y-89551000D03*
X134550000Y-88301000D03*
X134550000Y-87051000D03*
X135800000Y-94551000D03*
X135800000Y-93301000D03*
X135800000Y-92051000D03*
X135800000Y-90801000D03*
X135800000Y-89551000D03*
X135800000Y-88301000D03*
X135800000Y-87051000D03*
X137050000Y-94551000D03*
X137050000Y-93301000D03*
X137050000Y-92051000D03*
X137050000Y-90801000D03*
X137050000Y-89551000D03*
X137050000Y-88301000D03*
X137050000Y-87051000D03*
X138300000Y-94551000D03*
X138300000Y-93301000D03*
X138300000Y-92051000D03*
X138300000Y-90801000D03*
X138300000Y-89551000D03*
X138300000Y-88301000D03*
X138300000Y-87051000D03*
X139550000Y-87051000D03*
X140800000Y-87051000D03*
X142050000Y-87051000D03*
X143300000Y-87051000D03*
X144550000Y-87051000D03*
X139550000Y-88301000D03*
X140800000Y-88301000D03*
X142050000Y-88301000D03*
X143300000Y-88301000D03*
X144550000Y-88301000D03*
X139550000Y-89551000D03*
X140800000Y-89551000D03*
X142050000Y-89551000D03*
X143300000Y-89551000D03*
X144550000Y-89551000D03*
X139550000Y-90801000D03*
X140800000Y-90801000D03*
X142050000Y-90801000D03*
X143300000Y-90801000D03*
X144550000Y-90801000D03*
X139550000Y-92051000D03*
X140800000Y-92051000D03*
X142050000Y-92051000D03*
X143300000Y-92051000D03*
X144550000Y-92051000D03*
X139550000Y-93301000D03*
X140800000Y-93301000D03*
X142050000Y-93301000D03*
X143300000Y-93301000D03*
X144550000Y-93301000D03*
X139550000Y-94551000D03*
X140800000Y-94551000D03*
X142050000Y-94551000D03*
X143300000Y-94551000D03*
X144550000Y-94551000D03*
X105400000Y-59450000D03*
X106650000Y-59450000D03*
X107900000Y-59450000D03*
X109150000Y-59450000D03*
X110400000Y-59450000D03*
X111650000Y-59450000D03*
X105400000Y-60700000D03*
X106650000Y-60700000D03*
X107900000Y-60700000D03*
X109150000Y-60700000D03*
X110400000Y-60700000D03*
X111650000Y-60700000D03*
X105400000Y-61950000D03*
X106650000Y-61950000D03*
X107900000Y-61950000D03*
X109150000Y-61950000D03*
X110400000Y-61950000D03*
X111650000Y-61950000D03*
X105400000Y-63200000D03*
X106650000Y-63200000D03*
X107900000Y-63200000D03*
X109150000Y-63200000D03*
X110400000Y-63200000D03*
X111650000Y-63200000D03*
X105400000Y-64450000D03*
X106650000Y-64450000D03*
X107900000Y-64450000D03*
X109150000Y-64450000D03*
X110400000Y-64450000D03*
X111650000Y-64450000D03*
X134550000Y-83251000D03*
X135800000Y-83251000D03*
X133300000Y-84501000D03*
X134550000Y-84501000D03*
X135800000Y-84501000D03*
X133300000Y-85751000D03*
X134550000Y-85751000D03*
X135800000Y-85751000D03*
G04 #@! TO.N,VCC*
X104750000Y-44300000D03*
X106000000Y-44300000D03*
X107250000Y-44300000D03*
X108500000Y-44300000D03*
X109750000Y-44300000D03*
X111000000Y-44300000D03*
X112250000Y-44300000D03*
X103500000Y-45550000D03*
X104750000Y-45550000D03*
X106000000Y-45550000D03*
X107250000Y-45550000D03*
X108500000Y-45550000D03*
X109750000Y-45550000D03*
X111000000Y-45550000D03*
X112250000Y-45550000D03*
X103500000Y-46800000D03*
X104750000Y-46800000D03*
X106000000Y-46800000D03*
X107250000Y-46800000D03*
X108500000Y-46800000D03*
X109750000Y-46800000D03*
X111000000Y-46800000D03*
X112250000Y-46800000D03*
X103500000Y-48050000D03*
X104750000Y-48050000D03*
X106000000Y-48050000D03*
X107250000Y-48050000D03*
X108500000Y-48050000D03*
X109750000Y-48050000D03*
X111000000Y-48050000D03*
X112250000Y-48050000D03*
X103500000Y-49300000D03*
X104750000Y-49300000D03*
X106000000Y-49300000D03*
X107250000Y-49300000D03*
X108500000Y-49300000D03*
X109750000Y-49300000D03*
X111000000Y-49300000D03*
X112250000Y-49300000D03*
X103500000Y-50550000D03*
X104750000Y-50550000D03*
X106000000Y-50550000D03*
X107250000Y-50550000D03*
X108500000Y-50550000D03*
X109750000Y-50550000D03*
X111000000Y-50550000D03*
X112250000Y-50550000D03*
X103500000Y-51800000D03*
X104750000Y-51800000D03*
X106000000Y-51800000D03*
X107250000Y-51800000D03*
X108500000Y-51800000D03*
X109750000Y-51800000D03*
X111000000Y-51800000D03*
X112250000Y-51800000D03*
X103500000Y-53050000D03*
X104750000Y-53050000D03*
X106000000Y-53050000D03*
X107250000Y-53050000D03*
X108500000Y-53050000D03*
X109750000Y-53050000D03*
X111000000Y-53050000D03*
X112250000Y-53050000D03*
X135850000Y-44300000D03*
X137100000Y-44300000D03*
X138350000Y-44300000D03*
X139600000Y-44300000D03*
X140850000Y-44300000D03*
X142100000Y-44300000D03*
X143350000Y-44300000D03*
X144600000Y-44300000D03*
X145850000Y-44300000D03*
X147100000Y-44300000D03*
X148350000Y-44300000D03*
X149600000Y-44300000D03*
X150850000Y-44300000D03*
X152100000Y-44300000D03*
X134600000Y-45550000D03*
X135850000Y-45550000D03*
X137100000Y-45550000D03*
X138350000Y-45550000D03*
X139600000Y-45550000D03*
X140850000Y-45550000D03*
X142100000Y-45550000D03*
X143350000Y-45550000D03*
X144600000Y-45550000D03*
X145850000Y-45550000D03*
X147100000Y-45550000D03*
X148350000Y-45550000D03*
X149600000Y-45550000D03*
X150850000Y-45550000D03*
X134600000Y-46800000D03*
X135850000Y-46800000D03*
X137100000Y-46800000D03*
X138350000Y-46800000D03*
X139600000Y-46800000D03*
X140850000Y-46800000D03*
X142100000Y-46800000D03*
X143350000Y-46800000D03*
X144600000Y-46800000D03*
X145850000Y-46800000D03*
X147100000Y-46800000D03*
X148350000Y-46800000D03*
X149600000Y-46800000D03*
X150850000Y-46800000D03*
X134600000Y-48050000D03*
X153350000Y-44300000D03*
X154600000Y-44300000D03*
X155850000Y-44300000D03*
X152100000Y-45550000D03*
X153350000Y-45550000D03*
X154600000Y-45550000D03*
X155850000Y-45550000D03*
X152100000Y-46800000D03*
X153350000Y-46800000D03*
X154600000Y-46800000D03*
X155850000Y-46800000D03*
X152100000Y-48050000D03*
X153350000Y-48050000D03*
X154600000Y-48050000D03*
X155850000Y-48050000D03*
X152100000Y-49300000D03*
X153350000Y-49300000D03*
X154600000Y-49300000D03*
X155850000Y-49300000D03*
X152100000Y-50550000D03*
X153350000Y-50550000D03*
X154600000Y-50550000D03*
X155850000Y-50550000D03*
X135850000Y-48050000D03*
X137100000Y-48050000D03*
X138350000Y-48050000D03*
X139600000Y-48050000D03*
X140850000Y-48050000D03*
X142100000Y-48050000D03*
X143350000Y-48050000D03*
X144600000Y-48050000D03*
X145850000Y-48050000D03*
X147100000Y-48050000D03*
X148350000Y-48050000D03*
X149600000Y-48050000D03*
X150850000Y-48050000D03*
X134600000Y-49300000D03*
X135850000Y-49300000D03*
X137100000Y-49300000D03*
X138350000Y-49300000D03*
X139600000Y-49300000D03*
X140850000Y-49300000D03*
X142100000Y-49300000D03*
X143350000Y-49300000D03*
X144600000Y-49300000D03*
X145850000Y-49300000D03*
X147100000Y-49300000D03*
X148350000Y-49300000D03*
X149600000Y-49300000D03*
X150850000Y-49300000D03*
X134600000Y-50550000D03*
X135850000Y-50550000D03*
X137100000Y-50550000D03*
X138350000Y-50550000D03*
X139600000Y-50550000D03*
X140850000Y-50550000D03*
X142100000Y-50550000D03*
X143350000Y-50550000D03*
X144600000Y-50550000D03*
X145850000Y-50550000D03*
X147100000Y-50550000D03*
X148350000Y-50550000D03*
X149600000Y-50550000D03*
X150850000Y-50550000D03*
G04 #@! TO.N,+5V*
X113000000Y-91400000D03*
X109600000Y-79100000D03*
X111300000Y-83900000D03*
G04 #@! TO.N,MOTOR+*
X133400000Y-74400000D03*
X119700000Y-75000000D03*
G04 #@! TO.N,MOTOR-*
X122900000Y-74000000D03*
G04 #@! TO.N,GHB*
X124700000Y-72500000D03*
G04 #@! TO.N,GLB*
X124500000Y-79000000D03*
G04 #@! TO.N,Net-(C3-Pad1)*
X114500000Y-76400000D03*
G04 #@! TO.N,Net-(C3-Pad2)*
X116900000Y-76400000D03*
G04 #@! TO.N,Fault*
X118100000Y-84600000D03*
X117900000Y-82200000D03*
G04 #@! TO.N,Mode*
X123100000Y-81300000D03*
X122700000Y-83500000D03*
G04 #@! TO.N,Net-(C6-Pad1)*
X124100000Y-83100000D03*
G04 #@! TO.N,GNDD*
X124000000Y-87000000D03*
G04 #@! TD*
D24*
G04 #@! TO.N,GND*
X109550000Y-77150000D02*
X109900000Y-77500000D01*
X108450000Y-77150000D02*
X109550000Y-77150000D01*
G04 #@! TO.N,VCC*
X151861000Y-56226000D02*
X151873000Y-56238000D01*
X140335000Y-56226000D02*
X151861000Y-56226000D01*
D25*
X106275000Y-76375000D02*
X106550000Y-76650000D01*
X106275000Y-73900000D02*
X106275000Y-76375000D01*
D24*
X106550000Y-77150000D02*
X106550000Y-76650000D01*
D26*
X100828000Y-57228000D02*
X100828000Y-56135000D01*
D25*
X106275000Y-73900000D02*
X107375000Y-72800000D01*
X110337500Y-72800000D02*
X110400000Y-72737500D01*
X107375000Y-72800000D02*
X110337500Y-72800000D01*
X110400000Y-72737500D02*
X112262500Y-72737500D01*
X112262500Y-72737500D02*
X113500000Y-71500000D01*
X114762500Y-71500000D02*
X116900000Y-69362500D01*
X113500000Y-71500000D02*
X114762500Y-71500000D01*
X106275000Y-71375000D02*
X106275000Y-73900000D01*
X100828000Y-65928000D02*
X106275000Y-71375000D01*
X100828000Y-56135000D02*
X100828000Y-65928000D01*
D27*
G04 #@! TO.N,+5V*
X106550000Y-78150000D02*
X106550000Y-78450000D01*
D26*
X111400000Y-79100000D02*
X112200000Y-78300000D01*
X109600000Y-79100000D02*
X111400000Y-79100000D01*
X107200000Y-79100000D02*
X106550000Y-78450000D01*
X109600000Y-79100000D02*
X107200000Y-79100000D01*
X106550000Y-78450000D02*
X106550000Y-78175001D01*
D24*
X119700000Y-81525000D02*
X119700000Y-81250001D01*
D26*
X112200000Y-80100000D02*
X112400000Y-80300000D01*
X112200000Y-78300000D02*
X112200000Y-80100000D01*
D24*
X119700000Y-82033378D02*
X119700000Y-81525000D01*
X118733378Y-83000000D02*
X119700000Y-82033378D01*
X115100000Y-83000000D02*
X118733378Y-83000000D01*
X112400000Y-80300000D02*
X115100000Y-83000000D01*
X111300000Y-81000000D02*
X112200000Y-80100000D01*
X111300000Y-83900000D02*
X111300000Y-81000000D01*
D28*
X113000000Y-91400000D02*
X115500000Y-91400000D01*
X117221000Y-89679000D02*
X117221000Y-88950000D01*
X115500000Y-91400000D02*
X117221000Y-89679000D01*
D24*
G04 #@! TO.N,Net-(C5-Pad2)*
X119200000Y-75937500D02*
X116900000Y-73637500D01*
X119200000Y-77675000D02*
X119200000Y-75937500D01*
X119200000Y-77949999D02*
X119200000Y-77675000D01*
X120237500Y-70300000D02*
X121000000Y-70300000D01*
X116900000Y-73637500D02*
X120237500Y-70300000D01*
D27*
G04 #@! TO.N,MOTOR+*
X139223000Y-75911000D02*
X140354000Y-74780000D01*
X137795000Y-70649000D02*
X137814000Y-70630000D01*
X137814000Y-70630000D02*
X137814000Y-71786000D01*
X119700000Y-77675000D02*
X119700000Y-74900000D01*
D24*
X119700000Y-77675000D02*
X119700000Y-75000000D01*
X119700000Y-77675000D02*
X119700000Y-77700000D01*
X119700000Y-77700000D02*
X119700000Y-77949999D01*
X140134000Y-75000000D02*
X140354000Y-74780000D01*
X151880000Y-74780000D02*
X151892000Y-74768000D01*
X140354000Y-74780000D02*
X151880000Y-74780000D01*
X140229000Y-74500000D02*
X140354000Y-74625000D01*
X140129000Y-74400000D02*
X140354000Y-74625000D01*
X133400000Y-74400000D02*
X140129000Y-74400000D01*
D27*
G04 #@! TO.N,MOTOR-*
X120700000Y-77675000D02*
X120700000Y-77201978D01*
D24*
X120700000Y-77949999D02*
X120700000Y-77675000D01*
X120700000Y-76300000D02*
X120700000Y-77675000D01*
X120700000Y-76200000D02*
X120700000Y-76300000D01*
X122900000Y-74000000D02*
X120700000Y-76200000D01*
G04 #@! TO.N,GHA*
X120200000Y-77949999D02*
X120200000Y-77675000D01*
X120200000Y-77675000D02*
X120200000Y-75610002D01*
X120450001Y-75360001D02*
X120450001Y-75349999D01*
X120200000Y-75610002D02*
X120450001Y-75360001D01*
X121400000Y-74410002D02*
X120450001Y-75360001D01*
X121400000Y-74410002D02*
X121400000Y-74400000D01*
X122900000Y-72900000D02*
X122900000Y-72400000D01*
X121400000Y-74400000D02*
X122900000Y-72900000D01*
G04 #@! TO.N,GLA*
X121850001Y-78600000D02*
X122125000Y-78600000D01*
X122125000Y-78600000D02*
X122125000Y-78475000D01*
X124400000Y-76200000D02*
X124500000Y-76200000D01*
X122125000Y-78475000D02*
X124400000Y-76200000D01*
G04 #@! TO.N,GHB*
X121200000Y-77949999D02*
X121200000Y-77675000D01*
X124700000Y-73500000D02*
X124700000Y-72500000D01*
X121200000Y-77000000D02*
X124700000Y-73500000D01*
X121200000Y-77675000D02*
X121200000Y-77000000D01*
G04 #@! TO.N,GLB*
X122125000Y-79100000D02*
X122100000Y-79100000D01*
D27*
X123300000Y-79100000D02*
X124400000Y-79100000D01*
D24*
X124400000Y-79100000D02*
X124500000Y-79000000D01*
X122125000Y-79100000D02*
X124400000Y-79100000D01*
X122125000Y-79100000D02*
X121850001Y-79100000D01*
G04 #@! TO.N,Net-(Q1-Pad1)*
X137795000Y-63605000D02*
X137795000Y-65376000D01*
X137724000Y-65376000D02*
X137795000Y-65376000D01*
D26*
X134900000Y-62400000D02*
X134200000Y-63100000D01*
X137300000Y-62400000D02*
X134900000Y-62400000D01*
X137660000Y-62760000D02*
X137300000Y-62400000D01*
X137660000Y-65375000D02*
X137660000Y-62760000D01*
X149333000Y-65388000D02*
X149333000Y-63033000D01*
X148700000Y-62400000D02*
X137300000Y-62400000D01*
X149333000Y-63033000D02*
X148700000Y-62400000D01*
X134200000Y-63500000D02*
X134200000Y-63100000D01*
X133200000Y-64500000D02*
X134200000Y-63500000D01*
G04 #@! TO.N,Net-(Q2-Pad1)*
X149352000Y-83918000D02*
X149352000Y-81252000D01*
X149352000Y-81252000D02*
X148700000Y-80600000D01*
X137814000Y-81314000D02*
X137100000Y-80600000D01*
X137814000Y-83775000D02*
X137814000Y-81314000D01*
X148700000Y-80600000D02*
X137100000Y-80600000D01*
X134000000Y-79700000D02*
X134000000Y-78700000D01*
X134900000Y-80600000D02*
X134000000Y-79700000D01*
X137100000Y-80600000D02*
X134900000Y-80600000D01*
D28*
G04 #@! TO.N,ADDR_Select_3*
X121960000Y-88560000D02*
X121960000Y-89895000D01*
X121300000Y-87900000D02*
X121960000Y-88560000D01*
X118671000Y-87900000D02*
X121300000Y-87900000D01*
G04 #@! TO.N,ADDR_Select_2*
X124500000Y-89895000D02*
X124500000Y-89100000D01*
X124500000Y-89100000D02*
X123600000Y-88200000D01*
X118671000Y-87500000D02*
X121500000Y-87500000D01*
X122200000Y-88200000D02*
X123600000Y-88200000D01*
X121500000Y-87500000D02*
X122200000Y-88200000D01*
D27*
G04 #@! TO.N,ADDR_Select_1*
X127040000Y-89595000D02*
X127040000Y-89040000D01*
X127040000Y-89895000D02*
X127040000Y-88840000D01*
D28*
X127040000Y-88740000D02*
X127040000Y-89895000D01*
X126400000Y-88100000D02*
X127040000Y-88740000D01*
X124500000Y-88100000D02*
X126400000Y-88100000D01*
X124200000Y-87800000D02*
X124500000Y-88100000D01*
X122400000Y-87800000D02*
X124200000Y-87800000D01*
X121700000Y-87100000D02*
X122400000Y-87800000D01*
X118671000Y-87100000D02*
X121700000Y-87100000D01*
G04 #@! TO.N,SCK_SCL*
X108600000Y-90060000D02*
X112460000Y-90060000D01*
X116821000Y-88950000D02*
X116821000Y-89479000D01*
X116240000Y-90060000D02*
X112460000Y-90060000D01*
X116821000Y-89479000D02*
X116240000Y-90060000D01*
G04 #@! TO.N,MISO*
X108814302Y-87734302D02*
X108600000Y-87520000D01*
X113234302Y-87734302D02*
X108814302Y-87734302D01*
X114450000Y-88950000D02*
X113234302Y-87734302D01*
X116421000Y-88950000D02*
X114450000Y-88950000D01*
G04 #@! TO.N,SDA_MOSI*
X110480000Y-84980000D02*
X108600000Y-84980000D01*
X112000000Y-86500000D02*
X110480000Y-84980000D01*
X112600000Y-86500000D02*
X112000000Y-86500000D01*
X114400000Y-88300000D02*
X112600000Y-86500000D01*
X115771000Y-88300000D02*
X114400000Y-88300000D01*
G04 #@! TO.N,A_RESET*
X110700000Y-92600000D02*
X108600000Y-92600000D01*
X113200000Y-92600000D02*
X110700000Y-92600000D01*
X114000000Y-91800000D02*
X113200000Y-92600000D01*
X115665698Y-91800000D02*
X114000000Y-91800000D01*
X117621000Y-89844698D02*
X115665698Y-91800000D01*
X117621000Y-88950000D02*
X117621000Y-89844698D01*
D24*
G04 #@! TO.N,Net-(C3-Pad1)*
X114500000Y-76400000D02*
X115474990Y-77374990D01*
X115474990Y-77753874D02*
X115474990Y-77374990D01*
X117321116Y-79600000D02*
X115474990Y-77753874D01*
X118275000Y-79600000D02*
X117321116Y-79600000D01*
D27*
G04 #@! TO.N,Net-(C3-Pad2)*
X117700000Y-78600000D02*
X118275000Y-78600000D01*
X116900000Y-77800000D02*
X117700000Y-78600000D01*
X116900000Y-76400000D02*
X116900000Y-77800000D01*
G04 #@! TO.N,Net-(R1-Pad2)*
X122125000Y-80600000D02*
X122100000Y-80625000D01*
X126300000Y-82100000D02*
X123800000Y-82100000D01*
X123800000Y-82100000D02*
X122400000Y-82100000D01*
X122125000Y-81825000D02*
X122400000Y-82100000D01*
X122125000Y-80600000D02*
X122125000Y-81825000D01*
G04 #@! TO.N,Fault*
X118525000Y-82200000D02*
X119200000Y-81525000D01*
X117900000Y-82200000D02*
X118525000Y-82200000D01*
D28*
X117200000Y-81500000D02*
X117900000Y-82200000D01*
X116300000Y-81500000D02*
X117200000Y-81500000D01*
X116821000Y-86050000D02*
X116821000Y-85279000D01*
X117500000Y-84600000D02*
X117600000Y-84600000D01*
X116821000Y-85279000D02*
X117500000Y-84600000D01*
X118000000Y-84600000D02*
X118100000Y-84500000D01*
X117500000Y-84600000D02*
X118000000Y-84600000D01*
G04 #@! TO.N,Mode*
X122125000Y-80100000D02*
X122300000Y-80100000D01*
X123100000Y-81300000D02*
X123100000Y-80400000D01*
X122800000Y-80100000D02*
X122125000Y-80100000D01*
X123100000Y-80400000D02*
X122800000Y-80100000D01*
X123500000Y-80000000D02*
X123100000Y-80400000D01*
X126500000Y-80000000D02*
X123500000Y-80000000D01*
X118671000Y-86700000D02*
X119200000Y-86700000D01*
X119200000Y-86700000D02*
X120400000Y-85500000D01*
X120400000Y-85500000D02*
X122200000Y-85500000D01*
X122200000Y-85500000D02*
X122700000Y-85000000D01*
X122700000Y-85000000D02*
X122700000Y-83500000D01*
G04 #@! TO.N,Dir*
X115715678Y-83850020D02*
X114700000Y-84865698D01*
X119085467Y-83850020D02*
X115715678Y-83850020D01*
X120700000Y-82235486D02*
X119085467Y-83850020D01*
X120700000Y-81525000D02*
X120700000Y-82235486D01*
X120700000Y-83300000D02*
X120700000Y-81525000D01*
X121100000Y-83700000D02*
X120700000Y-83300000D01*
X121100000Y-84300000D02*
X121100000Y-83700000D01*
X115771000Y-87500000D02*
X114965698Y-87500000D01*
X114700010Y-84865708D02*
X114700000Y-84865698D01*
X114700010Y-87234312D02*
X114700010Y-84865708D01*
X114965698Y-87500000D02*
X114700010Y-87234312D01*
G04 #@! TO.N,PWM*
X115549990Y-83450010D02*
X114300000Y-84700000D01*
X118919778Y-83450010D02*
X115549990Y-83450010D01*
X120200000Y-82169788D02*
X118919778Y-83450010D01*
X120200000Y-81525000D02*
X120200000Y-82169788D01*
X114000000Y-85400000D02*
X114300000Y-85700000D01*
X113100000Y-85400000D02*
X114000000Y-85400000D01*
X114300000Y-84700000D02*
X114300000Y-85700000D01*
X114300000Y-85700000D02*
X114300000Y-87400000D01*
X114300000Y-87400000D02*
X114800000Y-87900000D01*
X114800000Y-87900000D02*
X115771000Y-87900000D01*
G04 #@! TO.N,Net-(C6-Pad1)*
X121200000Y-81800000D02*
X121200000Y-81525000D01*
D27*
X121200000Y-81525000D02*
X121200000Y-81836410D01*
X123600000Y-82600000D02*
X124100000Y-83100000D01*
X121800000Y-82600000D02*
X123600000Y-82600000D01*
X121200000Y-82000000D02*
X121800000Y-82600000D01*
X121200000Y-81525000D02*
X121200000Y-82000000D01*
D24*
G04 #@! TO.N,Net-(C7-Pad1)*
X106550000Y-77650000D02*
X104725000Y-77650000D01*
X103500000Y-76425000D02*
X104725000Y-77650000D01*
D27*
G04 #@! TO.N,Net-(L1-Pad1)*
X111800000Y-75800000D02*
X112100000Y-75500000D01*
D24*
X109650000Y-76650000D02*
X110800000Y-75500000D01*
X108450000Y-76650000D02*
X109650000Y-76650000D01*
X112200000Y-75500000D02*
X110800000Y-75500000D01*
G04 #@! TO.N,GNDD*
X122125000Y-79600000D02*
X120200000Y-79600000D01*
X122300000Y-79600000D02*
X122125000Y-79600000D01*
X122400000Y-79600000D02*
X122300000Y-79600000D01*
X119700000Y-80100000D02*
X120200000Y-79600000D01*
X118275000Y-80100000D02*
X119700000Y-80100000D01*
X126200000Y-87000000D02*
X126300000Y-86900000D01*
X124000000Y-87000000D02*
X126200000Y-87000000D01*
D28*
X117221000Y-86050000D02*
X117221000Y-87500000D01*
D24*
X118100000Y-80100000D02*
X118275000Y-80100000D01*
X117900000Y-80100000D02*
X118275000Y-80100000D01*
G04 #@! TO.N,VCC*
X117528236Y-79100000D02*
X116100000Y-77671764D01*
X118275000Y-79100000D02*
X117528236Y-79100000D01*
X116100000Y-77671764D02*
X116100000Y-76300000D01*
X112537500Y-72737500D02*
X112262500Y-72737500D01*
X116100000Y-76300000D02*
X112537500Y-72737500D01*
G04 #@! TD*
D29*
G04 #@! TO.N,MOTOR+*
X173670189Y-56344376D02*
X173833850Y-56394022D01*
X173913001Y-56436329D01*
X173913000Y-79732356D01*
X173833658Y-79774743D01*
X173669958Y-79824356D01*
X173493488Y-79841684D01*
X158548407Y-79837000D01*
X149247282Y-79837000D01*
X149223088Y-79817144D01*
X149060309Y-79730137D01*
X148883684Y-79676558D01*
X148746025Y-79663000D01*
X148746015Y-79663000D01*
X148700000Y-79658468D01*
X148653985Y-79663000D01*
X137146015Y-79663000D01*
X137100000Y-79658468D01*
X137053985Y-79663000D01*
X135288118Y-79663000D01*
X135078522Y-79453405D01*
X135074638Y-79448672D01*
X134995814Y-79301203D01*
X135029751Y-79250413D01*
X135117345Y-79038943D01*
X135162000Y-78814447D01*
X135162000Y-78585553D01*
X135117345Y-78361057D01*
X135029751Y-78149587D01*
X134927000Y-77995809D01*
X134927000Y-77646156D01*
X168238000Y-77646156D01*
X168238000Y-77953844D01*
X168298027Y-78255619D01*
X168415773Y-78539885D01*
X168586715Y-78795717D01*
X168804283Y-79013285D01*
X169060115Y-79184227D01*
X169344381Y-79301973D01*
X169646156Y-79362000D01*
X169953844Y-79362000D01*
X170255619Y-79301973D01*
X170539885Y-79184227D01*
X170795717Y-79013285D01*
X171013285Y-78795717D01*
X171184227Y-78539885D01*
X171301973Y-78255619D01*
X171362000Y-77953844D01*
X171362000Y-77646156D01*
X171301973Y-77344381D01*
X171184227Y-77060115D01*
X171013285Y-76804283D01*
X170795717Y-76586715D01*
X170539885Y-76415773D01*
X170255619Y-76298027D01*
X169953844Y-76238000D01*
X169646156Y-76238000D01*
X169344381Y-76298027D01*
X169060115Y-76415773D01*
X168804283Y-76586715D01*
X168586715Y-76804283D01*
X168415773Y-77060115D01*
X168298027Y-77344381D01*
X168238000Y-77646156D01*
X134927000Y-77646156D01*
X134927000Y-64206234D01*
X134939881Y-64075453D01*
X134982856Y-64023088D01*
X135069863Y-63860309D01*
X135123442Y-63683684D01*
X135126556Y-63652066D01*
X135183130Y-63583130D01*
X135315328Y-63474638D01*
X135466150Y-63394022D01*
X135629811Y-63344376D01*
X135704701Y-63337000D01*
X136344314Y-63337000D01*
X136344314Y-67675000D01*
X136359026Y-67824378D01*
X136402598Y-67968015D01*
X136473355Y-68100392D01*
X136568578Y-68216422D01*
X136684608Y-68311645D01*
X136816985Y-68382402D01*
X136960622Y-68425974D01*
X137110000Y-68440686D01*
X138210000Y-68440686D01*
X138359378Y-68425974D01*
X138503015Y-68382402D01*
X138635392Y-68311645D01*
X138751422Y-68216422D01*
X138846645Y-68100392D01*
X138917402Y-67968015D01*
X138960974Y-67824378D01*
X138975686Y-67675000D01*
X138975686Y-63337000D01*
X148017314Y-63337000D01*
X148017314Y-67688000D01*
X148032026Y-67837378D01*
X148075598Y-67981015D01*
X148146355Y-68113392D01*
X148241578Y-68229422D01*
X148357608Y-68324645D01*
X148489985Y-68395402D01*
X148633622Y-68438974D01*
X148783000Y-68453686D01*
X149883000Y-68453686D01*
X150032378Y-68438974D01*
X150176015Y-68395402D01*
X150308392Y-68324645D01*
X150424422Y-68229422D01*
X150519645Y-68113392D01*
X150590402Y-67981015D01*
X150633974Y-67837378D01*
X150648686Y-67688000D01*
X150648686Y-63327000D01*
X158300000Y-63327000D01*
X158312448Y-63326388D01*
X158507538Y-63307173D01*
X158531956Y-63302317D01*
X158719549Y-63245412D01*
X158742550Y-63235884D01*
X158915437Y-63143474D01*
X158936138Y-63129642D01*
X159087675Y-63005279D01*
X159105279Y-62987675D01*
X159229642Y-62836138D01*
X159243474Y-62815437D01*
X159335884Y-62642550D01*
X159345412Y-62619549D01*
X159402317Y-62431956D01*
X159407173Y-62407538D01*
X159426388Y-62212448D01*
X159427000Y-62200000D01*
X159427000Y-57206234D01*
X159444376Y-57029811D01*
X159494022Y-56866150D01*
X159574638Y-56715328D01*
X159683130Y-56583130D01*
X159815328Y-56474638D01*
X159966150Y-56394022D01*
X160129811Y-56344376D01*
X160306234Y-56327000D01*
X173493766Y-56327000D01*
X173670189Y-56344376D01*
G04 #@! TA.AperFunction,Conductor*
D30*
G36*
X173670189Y-56344376D02*
G01*
X173833850Y-56394022D01*
X173913001Y-56436329D01*
X173913000Y-79732356D01*
X173833658Y-79774743D01*
X173669958Y-79824356D01*
X173493488Y-79841684D01*
X158548407Y-79837000D01*
X149247282Y-79837000D01*
X149223088Y-79817144D01*
X149060309Y-79730137D01*
X148883684Y-79676558D01*
X148746025Y-79663000D01*
X148746015Y-79663000D01*
X148700000Y-79658468D01*
X148653985Y-79663000D01*
X137146015Y-79663000D01*
X137100000Y-79658468D01*
X137053985Y-79663000D01*
X135288118Y-79663000D01*
X135078522Y-79453405D01*
X135074638Y-79448672D01*
X134995814Y-79301203D01*
X135029751Y-79250413D01*
X135117345Y-79038943D01*
X135162000Y-78814447D01*
X135162000Y-78585553D01*
X135117345Y-78361057D01*
X135029751Y-78149587D01*
X134927000Y-77995809D01*
X134927000Y-77646156D01*
X168238000Y-77646156D01*
X168238000Y-77953844D01*
X168298027Y-78255619D01*
X168415773Y-78539885D01*
X168586715Y-78795717D01*
X168804283Y-79013285D01*
X169060115Y-79184227D01*
X169344381Y-79301973D01*
X169646156Y-79362000D01*
X169953844Y-79362000D01*
X170255619Y-79301973D01*
X170539885Y-79184227D01*
X170795717Y-79013285D01*
X171013285Y-78795717D01*
X171184227Y-78539885D01*
X171301973Y-78255619D01*
X171362000Y-77953844D01*
X171362000Y-77646156D01*
X171301973Y-77344381D01*
X171184227Y-77060115D01*
X171013285Y-76804283D01*
X170795717Y-76586715D01*
X170539885Y-76415773D01*
X170255619Y-76298027D01*
X169953844Y-76238000D01*
X169646156Y-76238000D01*
X169344381Y-76298027D01*
X169060115Y-76415773D01*
X168804283Y-76586715D01*
X168586715Y-76804283D01*
X168415773Y-77060115D01*
X168298027Y-77344381D01*
X168238000Y-77646156D01*
X134927000Y-77646156D01*
X134927000Y-64206234D01*
X134939881Y-64075453D01*
X134982856Y-64023088D01*
X135069863Y-63860309D01*
X135123442Y-63683684D01*
X135126556Y-63652066D01*
X135183130Y-63583130D01*
X135315328Y-63474638D01*
X135466150Y-63394022D01*
X135629811Y-63344376D01*
X135704701Y-63337000D01*
X136344314Y-63337000D01*
X136344314Y-67675000D01*
X136359026Y-67824378D01*
X136402598Y-67968015D01*
X136473355Y-68100392D01*
X136568578Y-68216422D01*
X136684608Y-68311645D01*
X136816985Y-68382402D01*
X136960622Y-68425974D01*
X137110000Y-68440686D01*
X138210000Y-68440686D01*
X138359378Y-68425974D01*
X138503015Y-68382402D01*
X138635392Y-68311645D01*
X138751422Y-68216422D01*
X138846645Y-68100392D01*
X138917402Y-67968015D01*
X138960974Y-67824378D01*
X138975686Y-67675000D01*
X138975686Y-63337000D01*
X148017314Y-63337000D01*
X148017314Y-67688000D01*
X148032026Y-67837378D01*
X148075598Y-67981015D01*
X148146355Y-68113392D01*
X148241578Y-68229422D01*
X148357608Y-68324645D01*
X148489985Y-68395402D01*
X148633622Y-68438974D01*
X148783000Y-68453686D01*
X149883000Y-68453686D01*
X150032378Y-68438974D01*
X150176015Y-68395402D01*
X150308392Y-68324645D01*
X150424422Y-68229422D01*
X150519645Y-68113392D01*
X150590402Y-67981015D01*
X150633974Y-67837378D01*
X150648686Y-67688000D01*
X150648686Y-63327000D01*
X158300000Y-63327000D01*
X158312448Y-63326388D01*
X158507538Y-63307173D01*
X158531956Y-63302317D01*
X158719549Y-63245412D01*
X158742550Y-63235884D01*
X158915437Y-63143474D01*
X158936138Y-63129642D01*
X159087675Y-63005279D01*
X159105279Y-62987675D01*
X159229642Y-62836138D01*
X159243474Y-62815437D01*
X159335884Y-62642550D01*
X159345412Y-62619549D01*
X159402317Y-62431956D01*
X159407173Y-62407538D01*
X159426388Y-62212448D01*
X159427000Y-62200000D01*
X159427000Y-57206234D01*
X159444376Y-57029811D01*
X159494022Y-56866150D01*
X159574638Y-56715328D01*
X159683130Y-56583130D01*
X159815328Y-56474638D01*
X159966150Y-56394022D01*
X160129811Y-56344376D01*
X160306234Y-56327000D01*
X173493766Y-56327000D01*
X173670189Y-56344376D01*
G37*
G04 #@! TD.AperFunction*
G04 #@! TD*
D29*
G04 #@! TO.N,GND*
X131470606Y-57345027D02*
X131538506Y-57365623D01*
X131601077Y-57399069D01*
X131655922Y-57444078D01*
X131700931Y-57498923D01*
X131734377Y-57561494D01*
X131754973Y-57629394D01*
X131765000Y-57731194D01*
X131765000Y-60997719D01*
X131768066Y-61060049D01*
X131787336Y-61255419D01*
X131811692Y-61377681D01*
X131868761Y-61565521D01*
X131916531Y-61680662D01*
X132009197Y-61853733D01*
X132078546Y-61957330D01*
X132203240Y-62108961D01*
X132291489Y-62197008D01*
X132443404Y-62321356D01*
X132547156Y-62390468D01*
X132673000Y-62457479D01*
X132673000Y-63928155D01*
X132596464Y-64004691D01*
X132511431Y-64131952D01*
X132452859Y-64273357D01*
X132423000Y-64423472D01*
X132423000Y-64576528D01*
X132452859Y-64726643D01*
X132511431Y-64868048D01*
X132596464Y-64995309D01*
X132673000Y-65071845D01*
X132673000Y-74124732D01*
X132652859Y-74173357D01*
X132623000Y-74323472D01*
X132623000Y-74476528D01*
X132652859Y-74626643D01*
X132673000Y-74675268D01*
X132673000Y-78500000D01*
X132675440Y-78524776D01*
X132682667Y-78548601D01*
X132694403Y-78570557D01*
X132710197Y-78589803D01*
X133410197Y-79289803D01*
X133429443Y-79305597D01*
X133448000Y-79315516D01*
X133448000Y-79672894D01*
X133445330Y-79700000D01*
X133448000Y-79727106D01*
X133448000Y-79727108D01*
X133455988Y-79808210D01*
X133487552Y-79912262D01*
X133538809Y-80008158D01*
X133607789Y-80092211D01*
X133628856Y-80109500D01*
X134490507Y-80971153D01*
X134507789Y-80992211D01*
X134591842Y-81061191D01*
X134687737Y-81112448D01*
X134791789Y-81144012D01*
X134872891Y-81152000D01*
X134872901Y-81152000D01*
X134899999Y-81154669D01*
X134927097Y-81152000D01*
X136871356Y-81152000D01*
X136964738Y-81245383D01*
X136949019Y-81264537D01*
X136914012Y-81330030D01*
X136892455Y-81401095D01*
X136885176Y-81475000D01*
X136885176Y-86075000D01*
X136892455Y-86148905D01*
X136914012Y-86219970D01*
X136949019Y-86285463D01*
X136996131Y-86342869D01*
X137053537Y-86389981D01*
X137119030Y-86424988D01*
X137190095Y-86446545D01*
X137264000Y-86453824D01*
X138364000Y-86453824D01*
X138437905Y-86446545D01*
X138508970Y-86424988D01*
X138574463Y-86389981D01*
X138631869Y-86342869D01*
X138678981Y-86285463D01*
X138713988Y-86219970D01*
X138735545Y-86148905D01*
X138742824Y-86075000D01*
X138742824Y-81475000D01*
X138735545Y-81401095D01*
X138713988Y-81330030D01*
X138678981Y-81264537D01*
X138631869Y-81207131D01*
X138574463Y-81160019D01*
X138559461Y-81152000D01*
X148471355Y-81152000D01*
X148530685Y-81211330D01*
X148487019Y-81264537D01*
X148452012Y-81330030D01*
X148430455Y-81401095D01*
X148423176Y-81475000D01*
X148423176Y-86075000D01*
X148430455Y-86148905D01*
X148452012Y-86219970D01*
X148487019Y-86285463D01*
X148534131Y-86342869D01*
X148591537Y-86389981D01*
X148657030Y-86424988D01*
X148728095Y-86446545D01*
X148802000Y-86453824D01*
X149902000Y-86453824D01*
X149975905Y-86446545D01*
X150046970Y-86424988D01*
X150112463Y-86389981D01*
X150169869Y-86342869D01*
X150216981Y-86285463D01*
X150251988Y-86219970D01*
X150273545Y-86148905D01*
X150280824Y-86075000D01*
X150280824Y-81475000D01*
X150273545Y-81401095D01*
X150251988Y-81330030D01*
X150216981Y-81264537D01*
X150169869Y-81207131D01*
X150112463Y-81160019D01*
X150046970Y-81125012D01*
X149975905Y-81103455D01*
X149902000Y-81096176D01*
X149881569Y-81096176D01*
X149864448Y-81039737D01*
X149829612Y-80974563D01*
X149813191Y-80943841D01*
X149761491Y-80880845D01*
X149744211Y-80859789D01*
X149723154Y-80842508D01*
X149606646Y-80726000D01*
X158548128Y-80726000D01*
X159473000Y-80726290D01*
X159473000Y-94300000D01*
X159475440Y-94324776D01*
X159482667Y-94348601D01*
X159494403Y-94370557D01*
X159510197Y-94389803D01*
X159529443Y-94405597D01*
X159551399Y-94417333D01*
X159575224Y-94424560D01*
X159600000Y-94427000D01*
X174298000Y-94427000D01*
X174298000Y-102048776D01*
X174225362Y-102184672D01*
X174116870Y-102316870D01*
X173984672Y-102425362D01*
X173848776Y-102498000D01*
X89551224Y-102498000D01*
X89415328Y-102425362D01*
X89283130Y-102316870D01*
X89174638Y-102184672D01*
X89102000Y-102048776D01*
X89102000Y-97611716D01*
X149373000Y-97611716D01*
X149373000Y-98188284D01*
X149485482Y-98753775D01*
X149706126Y-99286455D01*
X150026450Y-99765854D01*
X150434146Y-100173550D01*
X150913545Y-100493874D01*
X151446225Y-100714518D01*
X152011716Y-100827000D01*
X152588284Y-100827000D01*
X153153775Y-100714518D01*
X153686455Y-100493874D01*
X154165854Y-100173550D01*
X154573550Y-99765854D01*
X154893874Y-99286455D01*
X155114518Y-98753775D01*
X155227000Y-98188284D01*
X155227000Y-97611716D01*
X155114518Y-97046225D01*
X154893874Y-96513545D01*
X154573550Y-96034146D01*
X154165854Y-95626450D01*
X153686455Y-95306126D01*
X153153775Y-95085482D01*
X152588284Y-94973000D01*
X152011716Y-94973000D01*
X151446225Y-95085482D01*
X150913545Y-95306126D01*
X150434146Y-95626450D01*
X150026450Y-96034146D01*
X149706126Y-96513545D01*
X149485482Y-97046225D01*
X149373000Y-97611716D01*
X89102000Y-97611716D01*
X89102000Y-82440000D01*
X107121967Y-82440000D01*
X107146044Y-82684455D01*
X107217348Y-82919515D01*
X107333141Y-83136148D01*
X107488972Y-83326028D01*
X107678852Y-83481859D01*
X107895485Y-83597652D01*
X108130545Y-83668956D01*
X108313747Y-83687000D01*
X108886253Y-83687000D01*
X109069455Y-83668956D01*
X109304515Y-83597652D01*
X109521148Y-83481859D01*
X109711028Y-83326028D01*
X109866859Y-83136148D01*
X109982652Y-82919515D01*
X110053956Y-82684455D01*
X110078033Y-82440000D01*
X110053956Y-82195545D01*
X109982652Y-81960485D01*
X109866859Y-81743852D01*
X109711028Y-81553972D01*
X109521148Y-81398141D01*
X109304515Y-81282348D01*
X109069455Y-81211044D01*
X108886253Y-81193000D01*
X108313747Y-81193000D01*
X108130545Y-81211044D01*
X107895485Y-81282348D01*
X107678852Y-81398141D01*
X107488972Y-81553972D01*
X107333141Y-81743852D01*
X107217348Y-81960485D01*
X107146044Y-82195545D01*
X107121967Y-82440000D01*
X89102000Y-82440000D01*
X89102000Y-72011716D01*
X90273000Y-72011716D01*
X90273000Y-72588284D01*
X90385482Y-73153775D01*
X90606126Y-73686455D01*
X90926450Y-74165854D01*
X91334146Y-74573550D01*
X91813545Y-74893874D01*
X92346225Y-75114518D01*
X92911716Y-75227000D01*
X93488284Y-75227000D01*
X94053775Y-75114518D01*
X94586455Y-74893874D01*
X95065854Y-74573550D01*
X95473550Y-74165854D01*
X95793874Y-73686455D01*
X96014518Y-73153775D01*
X96127000Y-72588284D01*
X96127000Y-72011716D01*
X96014518Y-71446225D01*
X95793874Y-70913545D01*
X95473550Y-70434146D01*
X95065854Y-70026450D01*
X94586455Y-69706126D01*
X94053775Y-69485482D01*
X93488284Y-69373000D01*
X92911716Y-69373000D01*
X92346225Y-69485482D01*
X91813545Y-69706126D01*
X91334146Y-70026450D01*
X90926450Y-70434146D01*
X90606126Y-70913545D01*
X90385482Y-71446225D01*
X90273000Y-72011716D01*
X89102000Y-72011716D01*
X89102000Y-61527199D01*
X89207825Y-61583789D01*
X89322869Y-61631461D01*
X89510526Y-61688408D01*
X89632658Y-61712711D01*
X89827820Y-61731940D01*
X89890084Y-61735000D01*
X100197001Y-61735000D01*
X100197001Y-65897000D01*
X100193948Y-65928000D01*
X100206130Y-66051697D01*
X100242211Y-66170641D01*
X100300804Y-66280260D01*
X100359897Y-66352265D01*
X100359900Y-66352268D01*
X100379658Y-66376343D01*
X100403733Y-66396101D01*
X105644000Y-71636369D01*
X105644000Y-72253977D01*
X105600644Y-72277152D01*
X105505354Y-72355354D01*
X105427152Y-72450644D01*
X105369042Y-72559359D01*
X105333259Y-72677322D01*
X105321176Y-72799999D01*
X105321176Y-75000001D01*
X105333259Y-75122678D01*
X105369042Y-75240641D01*
X105427152Y-75349356D01*
X105505354Y-75444646D01*
X105600644Y-75522848D01*
X105644001Y-75546023D01*
X105644001Y-76344000D01*
X105640948Y-76375000D01*
X105653130Y-76498697D01*
X105689211Y-76617641D01*
X105746176Y-76724214D01*
X105746176Y-76800000D01*
X105753455Y-76873905D01*
X105761371Y-76900000D01*
X105753455Y-76926095D01*
X105746176Y-77000000D01*
X105746176Y-77123000D01*
X105103444Y-77123000D01*
X105122848Y-77099356D01*
X105180958Y-76990641D01*
X105216741Y-76872678D01*
X105228824Y-76750001D01*
X105228824Y-76099999D01*
X105216741Y-75977322D01*
X105180958Y-75859359D01*
X105122848Y-75750644D01*
X105044646Y-75655354D01*
X104949356Y-75577152D01*
X104840641Y-75519042D01*
X104722678Y-75483259D01*
X104600001Y-75471176D01*
X102399999Y-75471176D01*
X102277322Y-75483259D01*
X102159359Y-75519042D01*
X102050644Y-75577152D01*
X101955354Y-75655354D01*
X101877152Y-75750644D01*
X101819042Y-75859359D01*
X101783259Y-75977322D01*
X101771176Y-76099999D01*
X101771176Y-76750001D01*
X101783259Y-76872678D01*
X101819042Y-76990641D01*
X101877152Y-77099356D01*
X101955354Y-77194646D01*
X102050644Y-77272848D01*
X102159359Y-77330958D01*
X102277322Y-77366741D01*
X102399999Y-77378824D01*
X103708534Y-77378824D01*
X104334053Y-78004344D01*
X104350552Y-78024448D01*
X104430798Y-78090304D01*
X104522350Y-78139239D01*
X104621690Y-78169374D01*
X104625366Y-78169736D01*
X104725000Y-78179549D01*
X104750881Y-78177000D01*
X105746176Y-78177000D01*
X105746176Y-78300000D01*
X105753455Y-78373905D01*
X105775012Y-78444970D01*
X105810019Y-78510463D01*
X105857131Y-78567869D01*
X105914537Y-78614981D01*
X105980030Y-78649988D01*
X106040853Y-78668438D01*
X106088809Y-78758158D01*
X106157789Y-78842211D01*
X106178856Y-78859500D01*
X106790508Y-79471154D01*
X106807789Y-79492211D01*
X106828845Y-79509491D01*
X106828846Y-79509492D01*
X106891842Y-79561191D01*
X106987737Y-79612448D01*
X107091789Y-79644012D01*
X107200000Y-79654670D01*
X107227108Y-79652000D01*
X109053155Y-79652000D01*
X109104691Y-79703536D01*
X109231952Y-79788569D01*
X109373357Y-79847141D01*
X109523472Y-79877000D01*
X109676528Y-79877000D01*
X109826643Y-79847141D01*
X109968048Y-79788569D01*
X110095309Y-79703536D01*
X110146845Y-79652000D01*
X111372894Y-79652000D01*
X111400000Y-79654670D01*
X111427106Y-79652000D01*
X111427109Y-79652000D01*
X111508211Y-79644012D01*
X111612263Y-79612448D01*
X111648001Y-79593346D01*
X111648001Y-79906709D01*
X110945662Y-80609049D01*
X110925553Y-80625552D01*
X110879876Y-80681210D01*
X110859696Y-80705799D01*
X110810761Y-80797351D01*
X110780626Y-80896691D01*
X110770451Y-81000000D01*
X110773001Y-81025891D01*
X110773000Y-83328155D01*
X110696464Y-83404691D01*
X110611431Y-83531952D01*
X110552859Y-83673357D01*
X110523000Y-83823472D01*
X110523000Y-83976528D01*
X110552859Y-84126643D01*
X110611431Y-84268048D01*
X110696464Y-84395309D01*
X110804691Y-84503536D01*
X110931952Y-84588569D01*
X111073357Y-84647141D01*
X111223472Y-84677000D01*
X111376528Y-84677000D01*
X111526643Y-84647141D01*
X111668048Y-84588569D01*
X111795309Y-84503536D01*
X111903536Y-84395309D01*
X111988569Y-84268048D01*
X112047141Y-84126643D01*
X112077000Y-83976528D01*
X112077000Y-83823472D01*
X112047141Y-83673357D01*
X111988569Y-83531952D01*
X111903536Y-83404691D01*
X111827000Y-83328155D01*
X111827000Y-81218289D01*
X112200000Y-80845289D01*
X114709054Y-83354345D01*
X114725552Y-83374448D01*
X114805798Y-83440304D01*
X114857488Y-83467932D01*
X113979276Y-84346145D01*
X113961079Y-84361079D01*
X113901471Y-84433711D01*
X113857178Y-84516578D01*
X113829903Y-84606493D01*
X113823000Y-84676578D01*
X113823000Y-84676585D01*
X113820694Y-84700000D01*
X113823000Y-84723415D01*
X113823000Y-84903489D01*
X113781210Y-84840945D01*
X113659055Y-84718790D01*
X113515415Y-84622813D01*
X113355811Y-84556703D01*
X113186377Y-84523000D01*
X113013623Y-84523000D01*
X112844189Y-84556703D01*
X112684585Y-84622813D01*
X112540945Y-84718790D01*
X112418790Y-84840945D01*
X112322813Y-84984585D01*
X112256703Y-85144189D01*
X112223000Y-85313623D01*
X112223000Y-85486377D01*
X112256703Y-85655811D01*
X112322813Y-85815415D01*
X112418790Y-85959055D01*
X112482735Y-86023000D01*
X112197580Y-86023000D01*
X110833855Y-84659276D01*
X110818921Y-84641079D01*
X110746289Y-84581471D01*
X110663423Y-84537178D01*
X110573508Y-84509903D01*
X110503423Y-84503000D01*
X110503415Y-84503000D01*
X110480000Y-84500694D01*
X110456585Y-84503000D01*
X109983415Y-84503000D01*
X109982652Y-84500485D01*
X109866859Y-84283852D01*
X109711028Y-84093972D01*
X109521148Y-83938141D01*
X109304515Y-83822348D01*
X109069455Y-83751044D01*
X108886253Y-83733000D01*
X108313747Y-83733000D01*
X108130545Y-83751044D01*
X107895485Y-83822348D01*
X107678852Y-83938141D01*
X107488972Y-84093972D01*
X107333141Y-84283852D01*
X107217348Y-84500485D01*
X107146044Y-84735545D01*
X107121967Y-84980000D01*
X107146044Y-85224455D01*
X107217348Y-85459515D01*
X107333141Y-85676148D01*
X107488972Y-85866028D01*
X107678852Y-86021859D01*
X107895485Y-86137652D01*
X108130545Y-86208956D01*
X108313747Y-86227000D01*
X108886253Y-86227000D01*
X109069455Y-86208956D01*
X109304515Y-86137652D01*
X109521148Y-86021859D01*
X109711028Y-85866028D01*
X109866859Y-85676148D01*
X109982652Y-85459515D01*
X109983415Y-85457000D01*
X110282421Y-85457000D01*
X111646147Y-86820727D01*
X111661079Y-86838921D01*
X111733711Y-86898529D01*
X111816577Y-86942822D01*
X111906492Y-86970097D01*
X111976577Y-86977000D01*
X111976585Y-86977000D01*
X112000000Y-86979306D01*
X112023415Y-86977000D01*
X112402421Y-86977000D01*
X112682723Y-87257302D01*
X110048422Y-87257302D01*
X109982652Y-87040485D01*
X109866859Y-86823852D01*
X109711028Y-86633972D01*
X109521148Y-86478141D01*
X109304515Y-86362348D01*
X109069455Y-86291044D01*
X108886253Y-86273000D01*
X108313747Y-86273000D01*
X108130545Y-86291044D01*
X107895485Y-86362348D01*
X107678852Y-86478141D01*
X107488972Y-86633972D01*
X107333141Y-86823852D01*
X107217348Y-87040485D01*
X107146044Y-87275545D01*
X107121967Y-87520000D01*
X107146044Y-87764455D01*
X107217348Y-87999515D01*
X107333141Y-88216148D01*
X107488972Y-88406028D01*
X107678852Y-88561859D01*
X107895485Y-88677652D01*
X108130545Y-88748956D01*
X108313747Y-88767000D01*
X108886253Y-88767000D01*
X109069455Y-88748956D01*
X109304515Y-88677652D01*
X109521148Y-88561859D01*
X109711028Y-88406028D01*
X109866859Y-88216148D01*
X109869449Y-88211302D01*
X113036723Y-88211302D01*
X114096149Y-89270729D01*
X114111079Y-89288921D01*
X114129270Y-89303850D01*
X114129272Y-89303852D01*
X114173415Y-89340079D01*
X114183711Y-89348529D01*
X114266577Y-89392822D01*
X114356492Y-89420097D01*
X114426577Y-89427000D01*
X114426585Y-89427000D01*
X114450000Y-89429306D01*
X114473415Y-89427000D01*
X115961657Y-89427000D01*
X115962293Y-89429098D01*
X115990715Y-89497715D01*
X115995336Y-89506360D01*
X116036602Y-89568115D01*
X116042820Y-89575691D01*
X116046275Y-89579146D01*
X116042421Y-89583000D01*
X109983415Y-89583000D01*
X109982652Y-89580485D01*
X109866859Y-89363852D01*
X109711028Y-89173972D01*
X109521148Y-89018141D01*
X109304515Y-88902348D01*
X109069455Y-88831044D01*
X108886253Y-88813000D01*
X108313747Y-88813000D01*
X108130545Y-88831044D01*
X107895485Y-88902348D01*
X107678852Y-89018141D01*
X107488972Y-89173972D01*
X107333141Y-89363852D01*
X107217348Y-89580485D01*
X107146044Y-89815545D01*
X107121967Y-90060000D01*
X107146044Y-90304455D01*
X107217348Y-90539515D01*
X107333141Y-90756148D01*
X107488972Y-90946028D01*
X107678852Y-91101859D01*
X107895485Y-91217652D01*
X108130545Y-91288956D01*
X108313747Y-91307000D01*
X108886253Y-91307000D01*
X109069455Y-91288956D01*
X109304515Y-91217652D01*
X109521148Y-91101859D01*
X109711028Y-90946028D01*
X109866859Y-90756148D01*
X109982652Y-90539515D01*
X109983415Y-90537000D01*
X115688421Y-90537000D01*
X115302421Y-90923000D01*
X113615770Y-90923000D01*
X113603536Y-90904691D01*
X113495309Y-90796464D01*
X113368048Y-90711431D01*
X113226643Y-90652859D01*
X113076528Y-90623000D01*
X112923472Y-90623000D01*
X112773357Y-90652859D01*
X112631952Y-90711431D01*
X112504691Y-90796464D01*
X112396464Y-90904691D01*
X112311431Y-91031952D01*
X112252859Y-91173357D01*
X112223000Y-91323472D01*
X112223000Y-91476528D01*
X112252859Y-91626643D01*
X112311431Y-91768048D01*
X112396464Y-91895309D01*
X112504691Y-92003536D01*
X112631952Y-92088569D01*
X112715076Y-92123000D01*
X110073824Y-92123000D01*
X110073824Y-91979999D01*
X110061741Y-91857322D01*
X110025958Y-91739359D01*
X109967848Y-91630644D01*
X109889646Y-91535354D01*
X109794356Y-91457152D01*
X109685641Y-91399042D01*
X109567678Y-91363259D01*
X109445001Y-91351176D01*
X107754999Y-91351176D01*
X107632322Y-91363259D01*
X107514359Y-91399042D01*
X107405644Y-91457152D01*
X107310354Y-91535354D01*
X107232152Y-91630644D01*
X107174042Y-91739359D01*
X107138259Y-91857322D01*
X107126176Y-91979999D01*
X107126176Y-93220001D01*
X107138259Y-93342678D01*
X107174042Y-93460641D01*
X107232152Y-93569356D01*
X107310354Y-93664646D01*
X107405644Y-93742848D01*
X107514359Y-93800958D01*
X107632322Y-93836741D01*
X107754999Y-93848824D01*
X109445001Y-93848824D01*
X109567678Y-93836741D01*
X109685641Y-93800958D01*
X109794356Y-93742848D01*
X109889646Y-93664646D01*
X109967848Y-93569356D01*
X110025958Y-93460641D01*
X110061741Y-93342678D01*
X110073824Y-93220001D01*
X110073824Y-93077000D01*
X113176585Y-93077000D01*
X113200000Y-93079306D01*
X113223415Y-93077000D01*
X113223423Y-93077000D01*
X113293508Y-93070097D01*
X113383423Y-93042822D01*
X113466289Y-92998529D01*
X113538921Y-92938921D01*
X113553855Y-92920724D01*
X114197580Y-92277000D01*
X115642283Y-92277000D01*
X115665698Y-92279306D01*
X115689113Y-92277000D01*
X115689121Y-92277000D01*
X115759206Y-92270097D01*
X115849121Y-92242822D01*
X115931987Y-92198529D01*
X116004619Y-92138921D01*
X116019553Y-92120724D01*
X117941729Y-90198549D01*
X117959921Y-90183619D01*
X117984634Y-90153507D01*
X118019529Y-90110987D01*
X118063822Y-90028121D01*
X118091097Y-89938206D01*
X118092924Y-89919652D01*
X118098000Y-89868121D01*
X118098000Y-89868113D01*
X118100306Y-89844698D01*
X118098000Y-89821283D01*
X118098000Y-89727497D01*
X118108140Y-89726999D01*
X118117895Y-89726038D01*
X118190719Y-89711552D01*
X118200098Y-89708707D01*
X118268715Y-89680285D01*
X118277360Y-89675664D01*
X118339115Y-89634398D01*
X118346691Y-89628180D01*
X118399180Y-89575691D01*
X118405398Y-89568115D01*
X118446664Y-89506360D01*
X118451285Y-89497715D01*
X118479707Y-89429098D01*
X118482552Y-89419719D01*
X118497038Y-89346895D01*
X118497999Y-89337140D01*
X118499824Y-89300000D01*
X118499824Y-88778824D01*
X119021000Y-88778824D01*
X119058140Y-88776999D01*
X119067895Y-88776038D01*
X119140719Y-88761552D01*
X119150098Y-88758707D01*
X119218715Y-88730285D01*
X119227360Y-88725664D01*
X119289115Y-88684398D01*
X119296691Y-88678180D01*
X119349180Y-88625691D01*
X119355398Y-88618115D01*
X119396664Y-88556360D01*
X119401285Y-88547715D01*
X119429707Y-88479098D01*
X119432552Y-88469719D01*
X119447038Y-88396895D01*
X119447999Y-88387140D01*
X119448497Y-88377000D01*
X121102421Y-88377000D01*
X121132362Y-88406941D01*
X121132131Y-88407131D01*
X121085019Y-88464537D01*
X121050012Y-88530030D01*
X121028455Y-88601095D01*
X121021176Y-88675000D01*
X121021176Y-91115000D01*
X121028455Y-91188905D01*
X121050012Y-91259970D01*
X121085019Y-91325463D01*
X121132131Y-91382869D01*
X121189537Y-91429981D01*
X121255030Y-91464988D01*
X121326095Y-91486545D01*
X121400000Y-91493824D01*
X122520000Y-91493824D01*
X122593905Y-91486545D01*
X122664970Y-91464988D01*
X122730463Y-91429981D01*
X122787869Y-91382869D01*
X122834981Y-91325463D01*
X122869988Y-91259970D01*
X122891545Y-91188905D01*
X122898824Y-91115000D01*
X122898824Y-88677000D01*
X123402421Y-88677000D01*
X123561176Y-88835755D01*
X123561176Y-91115000D01*
X123568455Y-91188905D01*
X123590012Y-91259970D01*
X123625019Y-91325463D01*
X123672131Y-91382869D01*
X123729537Y-91429981D01*
X123795030Y-91464988D01*
X123866095Y-91486545D01*
X123940000Y-91493824D01*
X125060000Y-91493824D01*
X125133905Y-91486545D01*
X125204970Y-91464988D01*
X125270463Y-91429981D01*
X125327869Y-91382869D01*
X125374981Y-91325463D01*
X125409988Y-91259970D01*
X125431545Y-91188905D01*
X125438824Y-91115000D01*
X125438824Y-88675000D01*
X125431545Y-88601095D01*
X125424236Y-88577000D01*
X126115764Y-88577000D01*
X126108455Y-88601095D01*
X126101176Y-88675000D01*
X126101176Y-91115000D01*
X126108455Y-91188905D01*
X126130012Y-91259970D01*
X126165019Y-91325463D01*
X126212131Y-91382869D01*
X126269537Y-91429981D01*
X126335030Y-91464988D01*
X126406095Y-91486545D01*
X126480000Y-91493824D01*
X127600000Y-91493824D01*
X127673905Y-91486545D01*
X127744970Y-91464988D01*
X127810463Y-91429981D01*
X127867869Y-91382869D01*
X127914981Y-91325463D01*
X127949988Y-91259970D01*
X127971545Y-91188905D01*
X127978824Y-91115000D01*
X127978824Y-88675000D01*
X127971545Y-88601095D01*
X127949988Y-88530030D01*
X127914981Y-88464537D01*
X127867869Y-88407131D01*
X127810463Y-88360019D01*
X127744970Y-88325012D01*
X127673905Y-88303455D01*
X127600000Y-88296176D01*
X127270756Y-88296176D01*
X126953403Y-87978824D01*
X127375001Y-87978824D01*
X127497678Y-87966741D01*
X127615641Y-87930958D01*
X127724356Y-87872848D01*
X127819646Y-87794646D01*
X127897848Y-87699356D01*
X127955958Y-87590641D01*
X127991741Y-87472678D01*
X128003824Y-87350001D01*
X128003824Y-86449999D01*
X127991741Y-86327322D01*
X127955958Y-86209359D01*
X127897848Y-86100644D01*
X127819646Y-86005354D01*
X127724356Y-85927152D01*
X127615641Y-85869042D01*
X127497678Y-85833259D01*
X127375001Y-85821176D01*
X125224999Y-85821176D01*
X125102322Y-85833259D01*
X124984359Y-85869042D01*
X124875644Y-85927152D01*
X124780354Y-86005354D01*
X124702152Y-86100644D01*
X124644042Y-86209359D01*
X124608259Y-86327322D01*
X124596176Y-86449999D01*
X124596176Y-86473000D01*
X124571845Y-86473000D01*
X124495309Y-86396464D01*
X124368048Y-86311431D01*
X124226643Y-86252859D01*
X124076528Y-86223000D01*
X123923472Y-86223000D01*
X123773357Y-86252859D01*
X123631952Y-86311431D01*
X123504691Y-86396464D01*
X123396464Y-86504691D01*
X123311431Y-86631952D01*
X123252859Y-86773357D01*
X123223000Y-86923472D01*
X123223000Y-87076528D01*
X123252859Y-87226643D01*
X123292771Y-87323000D01*
X122597580Y-87323000D01*
X122053855Y-86779276D01*
X122038921Y-86761079D01*
X121966289Y-86701471D01*
X121883423Y-86657178D01*
X121793508Y-86629903D01*
X121723423Y-86623000D01*
X121723415Y-86623000D01*
X121700000Y-86620694D01*
X121676585Y-86623000D01*
X119951579Y-86623000D01*
X120597580Y-85977000D01*
X122176585Y-85977000D01*
X122200000Y-85979306D01*
X122223415Y-85977000D01*
X122223423Y-85977000D01*
X122293508Y-85970097D01*
X122383423Y-85942822D01*
X122466289Y-85898529D01*
X122538921Y-85838921D01*
X122553855Y-85820724D01*
X123020729Y-85353851D01*
X123038921Y-85338921D01*
X123057259Y-85316577D01*
X123098529Y-85266289D01*
X123142822Y-85183423D01*
X123170097Y-85093508D01*
X123171496Y-85079306D01*
X123177000Y-85023423D01*
X123177000Y-85023415D01*
X123179306Y-85000000D01*
X123177000Y-84976585D01*
X123177000Y-84115770D01*
X123195309Y-84103536D01*
X123303536Y-83995309D01*
X123388569Y-83868048D01*
X123447141Y-83726643D01*
X123477000Y-83576528D01*
X123477000Y-83566179D01*
X123496464Y-83595309D01*
X123604691Y-83703536D01*
X123731952Y-83788569D01*
X123873357Y-83847141D01*
X124023472Y-83877000D01*
X124176528Y-83877000D01*
X124326643Y-83847141D01*
X124468048Y-83788569D01*
X124595309Y-83703536D01*
X124703536Y-83595309D01*
X124788569Y-83468048D01*
X124847141Y-83326643D01*
X124877000Y-83176528D01*
X124877000Y-83073573D01*
X124984359Y-83130958D01*
X125102322Y-83166741D01*
X125224999Y-83178824D01*
X127375001Y-83178824D01*
X127497678Y-83166741D01*
X127615641Y-83130958D01*
X127724356Y-83072848D01*
X127819646Y-82994646D01*
X127897848Y-82899356D01*
X127955958Y-82790641D01*
X127991741Y-82672678D01*
X128003824Y-82550001D01*
X128003824Y-81649999D01*
X127991741Y-81527322D01*
X127955958Y-81409359D01*
X127897848Y-81300644D01*
X127819646Y-81205354D01*
X127724356Y-81127152D01*
X127615641Y-81069042D01*
X127497678Y-81033259D01*
X127375001Y-81021176D01*
X125224999Y-81021176D01*
X125102322Y-81033259D01*
X124984359Y-81069042D01*
X124875644Y-81127152D01*
X124780354Y-81205354D01*
X124702152Y-81300644D01*
X124644042Y-81409359D01*
X124608259Y-81527322D01*
X124601298Y-81598000D01*
X123817584Y-81598000D01*
X123847141Y-81526643D01*
X123877000Y-81376528D01*
X123877000Y-81223472D01*
X123847141Y-81073357D01*
X123788569Y-80931952D01*
X123703536Y-80804691D01*
X123595309Y-80696464D01*
X123577000Y-80684230D01*
X123577000Y-80597579D01*
X123697580Y-80477000D01*
X125763963Y-80477000D01*
X125818790Y-80559055D01*
X125940945Y-80681210D01*
X126084585Y-80777187D01*
X126244189Y-80843297D01*
X126413623Y-80877000D01*
X126586377Y-80877000D01*
X126755811Y-80843297D01*
X126915415Y-80777187D01*
X127059055Y-80681210D01*
X127181210Y-80559055D01*
X127277187Y-80415415D01*
X127343297Y-80255811D01*
X127377000Y-80086377D01*
X127377000Y-79913623D01*
X127343297Y-79744189D01*
X127277187Y-79584585D01*
X127181210Y-79440945D01*
X127059055Y-79318790D01*
X126915415Y-79222813D01*
X126755811Y-79156703D01*
X126586377Y-79123000D01*
X126413623Y-79123000D01*
X126244189Y-79156703D01*
X126084585Y-79222813D01*
X125940945Y-79318790D01*
X125818790Y-79440945D01*
X125763963Y-79523000D01*
X125075845Y-79523000D01*
X125103536Y-79495309D01*
X125188569Y-79368048D01*
X125247141Y-79226643D01*
X125277000Y-79076528D01*
X125277000Y-78923472D01*
X125247141Y-78773357D01*
X125188569Y-78631952D01*
X125103536Y-78504691D01*
X124995309Y-78396464D01*
X124868048Y-78311431D01*
X124726643Y-78252859D01*
X124576528Y-78223000D01*
X124423472Y-78223000D01*
X124273357Y-78252859D01*
X124131952Y-78311431D01*
X124004691Y-78396464D01*
X123896464Y-78504691D01*
X123850821Y-78573000D01*
X122928824Y-78573000D01*
X122928824Y-78537500D01*
X122920344Y-78451402D01*
X122914186Y-78431103D01*
X124377446Y-76967845D01*
X124423472Y-76977000D01*
X124576528Y-76977000D01*
X124726643Y-76947141D01*
X124868048Y-76888569D01*
X124995309Y-76803536D01*
X125103536Y-76695309D01*
X125188569Y-76568048D01*
X125247141Y-76426643D01*
X125277000Y-76276528D01*
X125277000Y-76123472D01*
X125247141Y-75973357D01*
X125188569Y-75831952D01*
X125103536Y-75704691D01*
X124995309Y-75596464D01*
X124868048Y-75511431D01*
X124726643Y-75452859D01*
X124576528Y-75423000D01*
X124423472Y-75423000D01*
X124273357Y-75452859D01*
X124131952Y-75511431D01*
X124004691Y-75596464D01*
X123896464Y-75704691D01*
X123811431Y-75831952D01*
X123752859Y-75973357D01*
X123723000Y-76123472D01*
X123723000Y-76131709D01*
X121792530Y-78062181D01*
X121767869Y-78032131D01*
X121724931Y-77996892D01*
X121727000Y-77975880D01*
X121727000Y-77218289D01*
X125054339Y-73890951D01*
X125074448Y-73874448D01*
X125140304Y-73794202D01*
X125189239Y-73702650D01*
X125219374Y-73603310D01*
X125227000Y-73525881D01*
X125227000Y-73525879D01*
X125229549Y-73500001D01*
X125227000Y-73474123D01*
X125227000Y-73071845D01*
X125303536Y-72995309D01*
X125388569Y-72868048D01*
X125447141Y-72726643D01*
X125477000Y-72576528D01*
X125477000Y-72423472D01*
X125447141Y-72273357D01*
X125388569Y-72131952D01*
X125303536Y-72004691D01*
X125195309Y-71896464D01*
X125068048Y-71811431D01*
X124926643Y-71752859D01*
X124776528Y-71723000D01*
X124623472Y-71723000D01*
X124473357Y-71752859D01*
X124331952Y-71811431D01*
X124204691Y-71896464D01*
X124096464Y-72004691D01*
X124011431Y-72131952D01*
X123952859Y-72273357D01*
X123923000Y-72423472D01*
X123923000Y-72576528D01*
X123952859Y-72726643D01*
X124011431Y-72868048D01*
X124096464Y-72995309D01*
X124173000Y-73071845D01*
X124173000Y-73281710D01*
X123652817Y-73801893D01*
X123647141Y-73773357D01*
X123588569Y-73631952D01*
X123503536Y-73504691D01*
X123395309Y-73396464D01*
X123268048Y-73311431D01*
X123243873Y-73301417D01*
X123254339Y-73290951D01*
X123274448Y-73274448D01*
X123340304Y-73194202D01*
X123389239Y-73102650D01*
X123419374Y-73003310D01*
X123421978Y-72976867D01*
X123503536Y-72895309D01*
X123588569Y-72768048D01*
X123647141Y-72626643D01*
X123677000Y-72476528D01*
X123677000Y-72323472D01*
X123647141Y-72173357D01*
X123588569Y-72031952D01*
X123503536Y-71904691D01*
X123395309Y-71796464D01*
X123268048Y-71711431D01*
X123126643Y-71652859D01*
X122976528Y-71623000D01*
X122823472Y-71623000D01*
X122673357Y-71652859D01*
X122531952Y-71711431D01*
X122404691Y-71796464D01*
X122296464Y-71904691D01*
X122211431Y-72031952D01*
X122152859Y-72173357D01*
X122123000Y-72323472D01*
X122123000Y-72476528D01*
X122152859Y-72626643D01*
X122211431Y-72768048D01*
X122241564Y-72813146D01*
X121045666Y-74009045D01*
X121025552Y-74025552D01*
X120963274Y-74101438D01*
X120401512Y-74663200D01*
X120388569Y-74631952D01*
X120303536Y-74504691D01*
X120195309Y-74396464D01*
X120068048Y-74311431D01*
X119926643Y-74252859D01*
X119776528Y-74223000D01*
X119623472Y-74223000D01*
X119473357Y-74252859D01*
X119331952Y-74311431D01*
X119204691Y-74396464D01*
X119096464Y-74504691D01*
X119011431Y-74631952D01*
X118952859Y-74773357D01*
X118924371Y-74916581D01*
X118702807Y-74695017D01*
X118794646Y-74619646D01*
X118872848Y-74524357D01*
X118930958Y-74415642D01*
X118966741Y-74297679D01*
X118978824Y-74175002D01*
X118978824Y-73099998D01*
X118966741Y-72977321D01*
X118930958Y-72859358D01*
X118872848Y-72750643D01*
X118794646Y-72655354D01*
X118702807Y-72579983D01*
X120371263Y-70911528D01*
X120440945Y-70981210D01*
X120584585Y-71077187D01*
X120744189Y-71143297D01*
X120913623Y-71177000D01*
X121086377Y-71177000D01*
X121255811Y-71143297D01*
X121415415Y-71077187D01*
X121559055Y-70981210D01*
X121681210Y-70859055D01*
X121777187Y-70715415D01*
X121843297Y-70555811D01*
X121877000Y-70386377D01*
X121877000Y-70213623D01*
X121843297Y-70044189D01*
X121777187Y-69884585D01*
X121681210Y-69740945D01*
X121559055Y-69618790D01*
X121415415Y-69522813D01*
X121255811Y-69456703D01*
X121086377Y-69423000D01*
X120913623Y-69423000D01*
X120744189Y-69456703D01*
X120584585Y-69522813D01*
X120440945Y-69618790D01*
X120318790Y-69740945D01*
X120297372Y-69773000D01*
X120263381Y-69773000D01*
X120237500Y-69770451D01*
X120211619Y-69773000D01*
X120134190Y-69780626D01*
X120034850Y-69810761D01*
X119943298Y-69859696D01*
X119863052Y-69925552D01*
X119846554Y-69945655D01*
X117321035Y-72471176D01*
X115449998Y-72471176D01*
X115327321Y-72483259D01*
X115209358Y-72519042D01*
X115100643Y-72577152D01*
X115005354Y-72655354D01*
X114927152Y-72750643D01*
X114869042Y-72859358D01*
X114833259Y-72977321D01*
X114821176Y-73099998D01*
X114821176Y-74175002D01*
X114832198Y-74286908D01*
X113218829Y-72673540D01*
X113761369Y-72131000D01*
X114731510Y-72131000D01*
X114762500Y-72134052D01*
X114793490Y-72131000D01*
X114793498Y-72131000D01*
X114886198Y-72121870D01*
X115005142Y-72085789D01*
X115114761Y-72027196D01*
X115210843Y-71948343D01*
X115230605Y-71924263D01*
X116626044Y-70528824D01*
X118350002Y-70528824D01*
X118472679Y-70516741D01*
X118590642Y-70480958D01*
X118699357Y-70422848D01*
X118794646Y-70344646D01*
X118872848Y-70249357D01*
X118930958Y-70140642D01*
X118966741Y-70022679D01*
X118978824Y-69900002D01*
X118978824Y-68824998D01*
X118966741Y-68702321D01*
X118930958Y-68584358D01*
X118872848Y-68475643D01*
X118794646Y-68380354D01*
X118699357Y-68302152D01*
X118590642Y-68244042D01*
X118472679Y-68208259D01*
X118350002Y-68196176D01*
X115449998Y-68196176D01*
X115327321Y-68208259D01*
X115209358Y-68244042D01*
X115100643Y-68302152D01*
X115005354Y-68380354D01*
X114927152Y-68475643D01*
X114869042Y-68584358D01*
X114833259Y-68702321D01*
X114821176Y-68824998D01*
X114821176Y-69900002D01*
X114833259Y-70022679D01*
X114869042Y-70140642D01*
X114927152Y-70249357D01*
X115005354Y-70344646D01*
X115016411Y-70353721D01*
X114501132Y-70869000D01*
X113530987Y-70869000D01*
X113499999Y-70865948D01*
X113469011Y-70869000D01*
X113469002Y-70869000D01*
X113376302Y-70878130D01*
X113257358Y-70914211D01*
X113147739Y-70972804D01*
X113051657Y-71051657D01*
X113031899Y-71075732D01*
X112320624Y-71787008D01*
X112294646Y-71755354D01*
X112199357Y-71677152D01*
X112090642Y-71619042D01*
X111972679Y-71583259D01*
X111850002Y-71571176D01*
X108949998Y-71571176D01*
X108827321Y-71583259D01*
X108709358Y-71619042D01*
X108600643Y-71677152D01*
X108505354Y-71755354D01*
X108427152Y-71850643D01*
X108369042Y-71959358D01*
X108333259Y-72077321D01*
X108324229Y-72169000D01*
X107405990Y-72169000D01*
X107375000Y-72165948D01*
X107344009Y-72169000D01*
X107344002Y-72169000D01*
X107251302Y-72178130D01*
X107132358Y-72214211D01*
X107022739Y-72272804D01*
X106983399Y-72305090D01*
X106949356Y-72277152D01*
X106906000Y-72253977D01*
X106906000Y-71405987D01*
X106909052Y-71374999D01*
X106906000Y-71344011D01*
X106906000Y-71344002D01*
X106896870Y-71251302D01*
X106860789Y-71132358D01*
X106802196Y-71022739D01*
X106723343Y-70926657D01*
X106699269Y-70906900D01*
X101459000Y-65666632D01*
X101459000Y-61735000D01*
X103400000Y-61735000D01*
X103462242Y-61731942D01*
X103657332Y-61712727D01*
X103779419Y-61688443D01*
X103967012Y-61631538D01*
X104082020Y-61583900D01*
X104254907Y-61491490D01*
X104358409Y-61422332D01*
X104509946Y-61297969D01*
X104597969Y-61209946D01*
X104722332Y-61058409D01*
X104791490Y-60954907D01*
X104883900Y-60782020D01*
X104931538Y-60667012D01*
X104988443Y-60479419D01*
X105012727Y-60357332D01*
X105031942Y-60162242D01*
X105035000Y-60100000D01*
X105035000Y-57731194D01*
X105045027Y-57629394D01*
X105065623Y-57561494D01*
X105099069Y-57498923D01*
X105144078Y-57444078D01*
X105198923Y-57399069D01*
X105261494Y-57365623D01*
X105329394Y-57345027D01*
X105431194Y-57335000D01*
X131368806Y-57335000D01*
X131470606Y-57345027D01*
G04 #@! TA.AperFunction,Conductor*
D30*
G36*
X131470606Y-57345027D02*
G01*
X131538506Y-57365623D01*
X131601077Y-57399069D01*
X131655922Y-57444078D01*
X131700931Y-57498923D01*
X131734377Y-57561494D01*
X131754973Y-57629394D01*
X131765000Y-57731194D01*
X131765000Y-60997719D01*
X131768066Y-61060049D01*
X131787336Y-61255419D01*
X131811692Y-61377681D01*
X131868761Y-61565521D01*
X131916531Y-61680662D01*
X132009197Y-61853733D01*
X132078546Y-61957330D01*
X132203240Y-62108961D01*
X132291489Y-62197008D01*
X132443404Y-62321356D01*
X132547156Y-62390468D01*
X132673000Y-62457479D01*
X132673000Y-63928155D01*
X132596464Y-64004691D01*
X132511431Y-64131952D01*
X132452859Y-64273357D01*
X132423000Y-64423472D01*
X132423000Y-64576528D01*
X132452859Y-64726643D01*
X132511431Y-64868048D01*
X132596464Y-64995309D01*
X132673000Y-65071845D01*
X132673000Y-74124732D01*
X132652859Y-74173357D01*
X132623000Y-74323472D01*
X132623000Y-74476528D01*
X132652859Y-74626643D01*
X132673000Y-74675268D01*
X132673000Y-78500000D01*
X132675440Y-78524776D01*
X132682667Y-78548601D01*
X132694403Y-78570557D01*
X132710197Y-78589803D01*
X133410197Y-79289803D01*
X133429443Y-79305597D01*
X133448000Y-79315516D01*
X133448000Y-79672894D01*
X133445330Y-79700000D01*
X133448000Y-79727106D01*
X133448000Y-79727108D01*
X133455988Y-79808210D01*
X133487552Y-79912262D01*
X133538809Y-80008158D01*
X133607789Y-80092211D01*
X133628856Y-80109500D01*
X134490507Y-80971153D01*
X134507789Y-80992211D01*
X134591842Y-81061191D01*
X134687737Y-81112448D01*
X134791789Y-81144012D01*
X134872891Y-81152000D01*
X134872901Y-81152000D01*
X134899999Y-81154669D01*
X134927097Y-81152000D01*
X136871356Y-81152000D01*
X136964738Y-81245383D01*
X136949019Y-81264537D01*
X136914012Y-81330030D01*
X136892455Y-81401095D01*
X136885176Y-81475000D01*
X136885176Y-86075000D01*
X136892455Y-86148905D01*
X136914012Y-86219970D01*
X136949019Y-86285463D01*
X136996131Y-86342869D01*
X137053537Y-86389981D01*
X137119030Y-86424988D01*
X137190095Y-86446545D01*
X137264000Y-86453824D01*
X138364000Y-86453824D01*
X138437905Y-86446545D01*
X138508970Y-86424988D01*
X138574463Y-86389981D01*
X138631869Y-86342869D01*
X138678981Y-86285463D01*
X138713988Y-86219970D01*
X138735545Y-86148905D01*
X138742824Y-86075000D01*
X138742824Y-81475000D01*
X138735545Y-81401095D01*
X138713988Y-81330030D01*
X138678981Y-81264537D01*
X138631869Y-81207131D01*
X138574463Y-81160019D01*
X138559461Y-81152000D01*
X148471355Y-81152000D01*
X148530685Y-81211330D01*
X148487019Y-81264537D01*
X148452012Y-81330030D01*
X148430455Y-81401095D01*
X148423176Y-81475000D01*
X148423176Y-86075000D01*
X148430455Y-86148905D01*
X148452012Y-86219970D01*
X148487019Y-86285463D01*
X148534131Y-86342869D01*
X148591537Y-86389981D01*
X148657030Y-86424988D01*
X148728095Y-86446545D01*
X148802000Y-86453824D01*
X149902000Y-86453824D01*
X149975905Y-86446545D01*
X150046970Y-86424988D01*
X150112463Y-86389981D01*
X150169869Y-86342869D01*
X150216981Y-86285463D01*
X150251988Y-86219970D01*
X150273545Y-86148905D01*
X150280824Y-86075000D01*
X150280824Y-81475000D01*
X150273545Y-81401095D01*
X150251988Y-81330030D01*
X150216981Y-81264537D01*
X150169869Y-81207131D01*
X150112463Y-81160019D01*
X150046970Y-81125012D01*
X149975905Y-81103455D01*
X149902000Y-81096176D01*
X149881569Y-81096176D01*
X149864448Y-81039737D01*
X149829612Y-80974563D01*
X149813191Y-80943841D01*
X149761491Y-80880845D01*
X149744211Y-80859789D01*
X149723154Y-80842508D01*
X149606646Y-80726000D01*
X158548128Y-80726000D01*
X159473000Y-80726290D01*
X159473000Y-94300000D01*
X159475440Y-94324776D01*
X159482667Y-94348601D01*
X159494403Y-94370557D01*
X159510197Y-94389803D01*
X159529443Y-94405597D01*
X159551399Y-94417333D01*
X159575224Y-94424560D01*
X159600000Y-94427000D01*
X174298000Y-94427000D01*
X174298000Y-102048776D01*
X174225362Y-102184672D01*
X174116870Y-102316870D01*
X173984672Y-102425362D01*
X173848776Y-102498000D01*
X89551224Y-102498000D01*
X89415328Y-102425362D01*
X89283130Y-102316870D01*
X89174638Y-102184672D01*
X89102000Y-102048776D01*
X89102000Y-97611716D01*
X149373000Y-97611716D01*
X149373000Y-98188284D01*
X149485482Y-98753775D01*
X149706126Y-99286455D01*
X150026450Y-99765854D01*
X150434146Y-100173550D01*
X150913545Y-100493874D01*
X151446225Y-100714518D01*
X152011716Y-100827000D01*
X152588284Y-100827000D01*
X153153775Y-100714518D01*
X153686455Y-100493874D01*
X154165854Y-100173550D01*
X154573550Y-99765854D01*
X154893874Y-99286455D01*
X155114518Y-98753775D01*
X155227000Y-98188284D01*
X155227000Y-97611716D01*
X155114518Y-97046225D01*
X154893874Y-96513545D01*
X154573550Y-96034146D01*
X154165854Y-95626450D01*
X153686455Y-95306126D01*
X153153775Y-95085482D01*
X152588284Y-94973000D01*
X152011716Y-94973000D01*
X151446225Y-95085482D01*
X150913545Y-95306126D01*
X150434146Y-95626450D01*
X150026450Y-96034146D01*
X149706126Y-96513545D01*
X149485482Y-97046225D01*
X149373000Y-97611716D01*
X89102000Y-97611716D01*
X89102000Y-82440000D01*
X107121967Y-82440000D01*
X107146044Y-82684455D01*
X107217348Y-82919515D01*
X107333141Y-83136148D01*
X107488972Y-83326028D01*
X107678852Y-83481859D01*
X107895485Y-83597652D01*
X108130545Y-83668956D01*
X108313747Y-83687000D01*
X108886253Y-83687000D01*
X109069455Y-83668956D01*
X109304515Y-83597652D01*
X109521148Y-83481859D01*
X109711028Y-83326028D01*
X109866859Y-83136148D01*
X109982652Y-82919515D01*
X110053956Y-82684455D01*
X110078033Y-82440000D01*
X110053956Y-82195545D01*
X109982652Y-81960485D01*
X109866859Y-81743852D01*
X109711028Y-81553972D01*
X109521148Y-81398141D01*
X109304515Y-81282348D01*
X109069455Y-81211044D01*
X108886253Y-81193000D01*
X108313747Y-81193000D01*
X108130545Y-81211044D01*
X107895485Y-81282348D01*
X107678852Y-81398141D01*
X107488972Y-81553972D01*
X107333141Y-81743852D01*
X107217348Y-81960485D01*
X107146044Y-82195545D01*
X107121967Y-82440000D01*
X89102000Y-82440000D01*
X89102000Y-72011716D01*
X90273000Y-72011716D01*
X90273000Y-72588284D01*
X90385482Y-73153775D01*
X90606126Y-73686455D01*
X90926450Y-74165854D01*
X91334146Y-74573550D01*
X91813545Y-74893874D01*
X92346225Y-75114518D01*
X92911716Y-75227000D01*
X93488284Y-75227000D01*
X94053775Y-75114518D01*
X94586455Y-74893874D01*
X95065854Y-74573550D01*
X95473550Y-74165854D01*
X95793874Y-73686455D01*
X96014518Y-73153775D01*
X96127000Y-72588284D01*
X96127000Y-72011716D01*
X96014518Y-71446225D01*
X95793874Y-70913545D01*
X95473550Y-70434146D01*
X95065854Y-70026450D01*
X94586455Y-69706126D01*
X94053775Y-69485482D01*
X93488284Y-69373000D01*
X92911716Y-69373000D01*
X92346225Y-69485482D01*
X91813545Y-69706126D01*
X91334146Y-70026450D01*
X90926450Y-70434146D01*
X90606126Y-70913545D01*
X90385482Y-71446225D01*
X90273000Y-72011716D01*
X89102000Y-72011716D01*
X89102000Y-61527199D01*
X89207825Y-61583789D01*
X89322869Y-61631461D01*
X89510526Y-61688408D01*
X89632658Y-61712711D01*
X89827820Y-61731940D01*
X89890084Y-61735000D01*
X100197001Y-61735000D01*
X100197001Y-65897000D01*
X100193948Y-65928000D01*
X100206130Y-66051697D01*
X100242211Y-66170641D01*
X100300804Y-66280260D01*
X100359897Y-66352265D01*
X100359900Y-66352268D01*
X100379658Y-66376343D01*
X100403733Y-66396101D01*
X105644000Y-71636369D01*
X105644000Y-72253977D01*
X105600644Y-72277152D01*
X105505354Y-72355354D01*
X105427152Y-72450644D01*
X105369042Y-72559359D01*
X105333259Y-72677322D01*
X105321176Y-72799999D01*
X105321176Y-75000001D01*
X105333259Y-75122678D01*
X105369042Y-75240641D01*
X105427152Y-75349356D01*
X105505354Y-75444646D01*
X105600644Y-75522848D01*
X105644001Y-75546023D01*
X105644001Y-76344000D01*
X105640948Y-76375000D01*
X105653130Y-76498697D01*
X105689211Y-76617641D01*
X105746176Y-76724214D01*
X105746176Y-76800000D01*
X105753455Y-76873905D01*
X105761371Y-76900000D01*
X105753455Y-76926095D01*
X105746176Y-77000000D01*
X105746176Y-77123000D01*
X105103444Y-77123000D01*
X105122848Y-77099356D01*
X105180958Y-76990641D01*
X105216741Y-76872678D01*
X105228824Y-76750001D01*
X105228824Y-76099999D01*
X105216741Y-75977322D01*
X105180958Y-75859359D01*
X105122848Y-75750644D01*
X105044646Y-75655354D01*
X104949356Y-75577152D01*
X104840641Y-75519042D01*
X104722678Y-75483259D01*
X104600001Y-75471176D01*
X102399999Y-75471176D01*
X102277322Y-75483259D01*
X102159359Y-75519042D01*
X102050644Y-75577152D01*
X101955354Y-75655354D01*
X101877152Y-75750644D01*
X101819042Y-75859359D01*
X101783259Y-75977322D01*
X101771176Y-76099999D01*
X101771176Y-76750001D01*
X101783259Y-76872678D01*
X101819042Y-76990641D01*
X101877152Y-77099356D01*
X101955354Y-77194646D01*
X102050644Y-77272848D01*
X102159359Y-77330958D01*
X102277322Y-77366741D01*
X102399999Y-77378824D01*
X103708534Y-77378824D01*
X104334053Y-78004344D01*
X104350552Y-78024448D01*
X104430798Y-78090304D01*
X104522350Y-78139239D01*
X104621690Y-78169374D01*
X104625366Y-78169736D01*
X104725000Y-78179549D01*
X104750881Y-78177000D01*
X105746176Y-78177000D01*
X105746176Y-78300000D01*
X105753455Y-78373905D01*
X105775012Y-78444970D01*
X105810019Y-78510463D01*
X105857131Y-78567869D01*
X105914537Y-78614981D01*
X105980030Y-78649988D01*
X106040853Y-78668438D01*
X106088809Y-78758158D01*
X106157789Y-78842211D01*
X106178856Y-78859500D01*
X106790508Y-79471154D01*
X106807789Y-79492211D01*
X106828845Y-79509491D01*
X106828846Y-79509492D01*
X106891842Y-79561191D01*
X106987737Y-79612448D01*
X107091789Y-79644012D01*
X107200000Y-79654670D01*
X107227108Y-79652000D01*
X109053155Y-79652000D01*
X109104691Y-79703536D01*
X109231952Y-79788569D01*
X109373357Y-79847141D01*
X109523472Y-79877000D01*
X109676528Y-79877000D01*
X109826643Y-79847141D01*
X109968048Y-79788569D01*
X110095309Y-79703536D01*
X110146845Y-79652000D01*
X111372894Y-79652000D01*
X111400000Y-79654670D01*
X111427106Y-79652000D01*
X111427109Y-79652000D01*
X111508211Y-79644012D01*
X111612263Y-79612448D01*
X111648001Y-79593346D01*
X111648001Y-79906709D01*
X110945662Y-80609049D01*
X110925553Y-80625552D01*
X110879876Y-80681210D01*
X110859696Y-80705799D01*
X110810761Y-80797351D01*
X110780626Y-80896691D01*
X110770451Y-81000000D01*
X110773001Y-81025891D01*
X110773000Y-83328155D01*
X110696464Y-83404691D01*
X110611431Y-83531952D01*
X110552859Y-83673357D01*
X110523000Y-83823472D01*
X110523000Y-83976528D01*
X110552859Y-84126643D01*
X110611431Y-84268048D01*
X110696464Y-84395309D01*
X110804691Y-84503536D01*
X110931952Y-84588569D01*
X111073357Y-84647141D01*
X111223472Y-84677000D01*
X111376528Y-84677000D01*
X111526643Y-84647141D01*
X111668048Y-84588569D01*
X111795309Y-84503536D01*
X111903536Y-84395309D01*
X111988569Y-84268048D01*
X112047141Y-84126643D01*
X112077000Y-83976528D01*
X112077000Y-83823472D01*
X112047141Y-83673357D01*
X111988569Y-83531952D01*
X111903536Y-83404691D01*
X111827000Y-83328155D01*
X111827000Y-81218289D01*
X112200000Y-80845289D01*
X114709054Y-83354345D01*
X114725552Y-83374448D01*
X114805798Y-83440304D01*
X114857488Y-83467932D01*
X113979276Y-84346145D01*
X113961079Y-84361079D01*
X113901471Y-84433711D01*
X113857178Y-84516578D01*
X113829903Y-84606493D01*
X113823000Y-84676578D01*
X113823000Y-84676585D01*
X113820694Y-84700000D01*
X113823000Y-84723415D01*
X113823000Y-84903489D01*
X113781210Y-84840945D01*
X113659055Y-84718790D01*
X113515415Y-84622813D01*
X113355811Y-84556703D01*
X113186377Y-84523000D01*
X113013623Y-84523000D01*
X112844189Y-84556703D01*
X112684585Y-84622813D01*
X112540945Y-84718790D01*
X112418790Y-84840945D01*
X112322813Y-84984585D01*
X112256703Y-85144189D01*
X112223000Y-85313623D01*
X112223000Y-85486377D01*
X112256703Y-85655811D01*
X112322813Y-85815415D01*
X112418790Y-85959055D01*
X112482735Y-86023000D01*
X112197580Y-86023000D01*
X110833855Y-84659276D01*
X110818921Y-84641079D01*
X110746289Y-84581471D01*
X110663423Y-84537178D01*
X110573508Y-84509903D01*
X110503423Y-84503000D01*
X110503415Y-84503000D01*
X110480000Y-84500694D01*
X110456585Y-84503000D01*
X109983415Y-84503000D01*
X109982652Y-84500485D01*
X109866859Y-84283852D01*
X109711028Y-84093972D01*
X109521148Y-83938141D01*
X109304515Y-83822348D01*
X109069455Y-83751044D01*
X108886253Y-83733000D01*
X108313747Y-83733000D01*
X108130545Y-83751044D01*
X107895485Y-83822348D01*
X107678852Y-83938141D01*
X107488972Y-84093972D01*
X107333141Y-84283852D01*
X107217348Y-84500485D01*
X107146044Y-84735545D01*
X107121967Y-84980000D01*
X107146044Y-85224455D01*
X107217348Y-85459515D01*
X107333141Y-85676148D01*
X107488972Y-85866028D01*
X107678852Y-86021859D01*
X107895485Y-86137652D01*
X108130545Y-86208956D01*
X108313747Y-86227000D01*
X108886253Y-86227000D01*
X109069455Y-86208956D01*
X109304515Y-86137652D01*
X109521148Y-86021859D01*
X109711028Y-85866028D01*
X109866859Y-85676148D01*
X109982652Y-85459515D01*
X109983415Y-85457000D01*
X110282421Y-85457000D01*
X111646147Y-86820727D01*
X111661079Y-86838921D01*
X111733711Y-86898529D01*
X111816577Y-86942822D01*
X111906492Y-86970097D01*
X111976577Y-86977000D01*
X111976585Y-86977000D01*
X112000000Y-86979306D01*
X112023415Y-86977000D01*
X112402421Y-86977000D01*
X112682723Y-87257302D01*
X110048422Y-87257302D01*
X109982652Y-87040485D01*
X109866859Y-86823852D01*
X109711028Y-86633972D01*
X109521148Y-86478141D01*
X109304515Y-86362348D01*
X109069455Y-86291044D01*
X108886253Y-86273000D01*
X108313747Y-86273000D01*
X108130545Y-86291044D01*
X107895485Y-86362348D01*
X107678852Y-86478141D01*
X107488972Y-86633972D01*
X107333141Y-86823852D01*
X107217348Y-87040485D01*
X107146044Y-87275545D01*
X107121967Y-87520000D01*
X107146044Y-87764455D01*
X107217348Y-87999515D01*
X107333141Y-88216148D01*
X107488972Y-88406028D01*
X107678852Y-88561859D01*
X107895485Y-88677652D01*
X108130545Y-88748956D01*
X108313747Y-88767000D01*
X108886253Y-88767000D01*
X109069455Y-88748956D01*
X109304515Y-88677652D01*
X109521148Y-88561859D01*
X109711028Y-88406028D01*
X109866859Y-88216148D01*
X109869449Y-88211302D01*
X113036723Y-88211302D01*
X114096149Y-89270729D01*
X114111079Y-89288921D01*
X114129270Y-89303850D01*
X114129272Y-89303852D01*
X114173415Y-89340079D01*
X114183711Y-89348529D01*
X114266577Y-89392822D01*
X114356492Y-89420097D01*
X114426577Y-89427000D01*
X114426585Y-89427000D01*
X114450000Y-89429306D01*
X114473415Y-89427000D01*
X115961657Y-89427000D01*
X115962293Y-89429098D01*
X115990715Y-89497715D01*
X115995336Y-89506360D01*
X116036602Y-89568115D01*
X116042820Y-89575691D01*
X116046275Y-89579146D01*
X116042421Y-89583000D01*
X109983415Y-89583000D01*
X109982652Y-89580485D01*
X109866859Y-89363852D01*
X109711028Y-89173972D01*
X109521148Y-89018141D01*
X109304515Y-88902348D01*
X109069455Y-88831044D01*
X108886253Y-88813000D01*
X108313747Y-88813000D01*
X108130545Y-88831044D01*
X107895485Y-88902348D01*
X107678852Y-89018141D01*
X107488972Y-89173972D01*
X107333141Y-89363852D01*
X107217348Y-89580485D01*
X107146044Y-89815545D01*
X107121967Y-90060000D01*
X107146044Y-90304455D01*
X107217348Y-90539515D01*
X107333141Y-90756148D01*
X107488972Y-90946028D01*
X107678852Y-91101859D01*
X107895485Y-91217652D01*
X108130545Y-91288956D01*
X108313747Y-91307000D01*
X108886253Y-91307000D01*
X109069455Y-91288956D01*
X109304515Y-91217652D01*
X109521148Y-91101859D01*
X109711028Y-90946028D01*
X109866859Y-90756148D01*
X109982652Y-90539515D01*
X109983415Y-90537000D01*
X115688421Y-90537000D01*
X115302421Y-90923000D01*
X113615770Y-90923000D01*
X113603536Y-90904691D01*
X113495309Y-90796464D01*
X113368048Y-90711431D01*
X113226643Y-90652859D01*
X113076528Y-90623000D01*
X112923472Y-90623000D01*
X112773357Y-90652859D01*
X112631952Y-90711431D01*
X112504691Y-90796464D01*
X112396464Y-90904691D01*
X112311431Y-91031952D01*
X112252859Y-91173357D01*
X112223000Y-91323472D01*
X112223000Y-91476528D01*
X112252859Y-91626643D01*
X112311431Y-91768048D01*
X112396464Y-91895309D01*
X112504691Y-92003536D01*
X112631952Y-92088569D01*
X112715076Y-92123000D01*
X110073824Y-92123000D01*
X110073824Y-91979999D01*
X110061741Y-91857322D01*
X110025958Y-91739359D01*
X109967848Y-91630644D01*
X109889646Y-91535354D01*
X109794356Y-91457152D01*
X109685641Y-91399042D01*
X109567678Y-91363259D01*
X109445001Y-91351176D01*
X107754999Y-91351176D01*
X107632322Y-91363259D01*
X107514359Y-91399042D01*
X107405644Y-91457152D01*
X107310354Y-91535354D01*
X107232152Y-91630644D01*
X107174042Y-91739359D01*
X107138259Y-91857322D01*
X107126176Y-91979999D01*
X107126176Y-93220001D01*
X107138259Y-93342678D01*
X107174042Y-93460641D01*
X107232152Y-93569356D01*
X107310354Y-93664646D01*
X107405644Y-93742848D01*
X107514359Y-93800958D01*
X107632322Y-93836741D01*
X107754999Y-93848824D01*
X109445001Y-93848824D01*
X109567678Y-93836741D01*
X109685641Y-93800958D01*
X109794356Y-93742848D01*
X109889646Y-93664646D01*
X109967848Y-93569356D01*
X110025958Y-93460641D01*
X110061741Y-93342678D01*
X110073824Y-93220001D01*
X110073824Y-93077000D01*
X113176585Y-93077000D01*
X113200000Y-93079306D01*
X113223415Y-93077000D01*
X113223423Y-93077000D01*
X113293508Y-93070097D01*
X113383423Y-93042822D01*
X113466289Y-92998529D01*
X113538921Y-92938921D01*
X113553855Y-92920724D01*
X114197580Y-92277000D01*
X115642283Y-92277000D01*
X115665698Y-92279306D01*
X115689113Y-92277000D01*
X115689121Y-92277000D01*
X115759206Y-92270097D01*
X115849121Y-92242822D01*
X115931987Y-92198529D01*
X116004619Y-92138921D01*
X116019553Y-92120724D01*
X117941729Y-90198549D01*
X117959921Y-90183619D01*
X117984634Y-90153507D01*
X118019529Y-90110987D01*
X118063822Y-90028121D01*
X118091097Y-89938206D01*
X118092924Y-89919652D01*
X118098000Y-89868121D01*
X118098000Y-89868113D01*
X118100306Y-89844698D01*
X118098000Y-89821283D01*
X118098000Y-89727497D01*
X118108140Y-89726999D01*
X118117895Y-89726038D01*
X118190719Y-89711552D01*
X118200098Y-89708707D01*
X118268715Y-89680285D01*
X118277360Y-89675664D01*
X118339115Y-89634398D01*
X118346691Y-89628180D01*
X118399180Y-89575691D01*
X118405398Y-89568115D01*
X118446664Y-89506360D01*
X118451285Y-89497715D01*
X118479707Y-89429098D01*
X118482552Y-89419719D01*
X118497038Y-89346895D01*
X118497999Y-89337140D01*
X118499824Y-89300000D01*
X118499824Y-88778824D01*
X119021000Y-88778824D01*
X119058140Y-88776999D01*
X119067895Y-88776038D01*
X119140719Y-88761552D01*
X119150098Y-88758707D01*
X119218715Y-88730285D01*
X119227360Y-88725664D01*
X119289115Y-88684398D01*
X119296691Y-88678180D01*
X119349180Y-88625691D01*
X119355398Y-88618115D01*
X119396664Y-88556360D01*
X119401285Y-88547715D01*
X119429707Y-88479098D01*
X119432552Y-88469719D01*
X119447038Y-88396895D01*
X119447999Y-88387140D01*
X119448497Y-88377000D01*
X121102421Y-88377000D01*
X121132362Y-88406941D01*
X121132131Y-88407131D01*
X121085019Y-88464537D01*
X121050012Y-88530030D01*
X121028455Y-88601095D01*
X121021176Y-88675000D01*
X121021176Y-91115000D01*
X121028455Y-91188905D01*
X121050012Y-91259970D01*
X121085019Y-91325463D01*
X121132131Y-91382869D01*
X121189537Y-91429981D01*
X121255030Y-91464988D01*
X121326095Y-91486545D01*
X121400000Y-91493824D01*
X122520000Y-91493824D01*
X122593905Y-91486545D01*
X122664970Y-91464988D01*
X122730463Y-91429981D01*
X122787869Y-91382869D01*
X122834981Y-91325463D01*
X122869988Y-91259970D01*
X122891545Y-91188905D01*
X122898824Y-91115000D01*
X122898824Y-88677000D01*
X123402421Y-88677000D01*
X123561176Y-88835755D01*
X123561176Y-91115000D01*
X123568455Y-91188905D01*
X123590012Y-91259970D01*
X123625019Y-91325463D01*
X123672131Y-91382869D01*
X123729537Y-91429981D01*
X123795030Y-91464988D01*
X123866095Y-91486545D01*
X123940000Y-91493824D01*
X125060000Y-91493824D01*
X125133905Y-91486545D01*
X125204970Y-91464988D01*
X125270463Y-91429981D01*
X125327869Y-91382869D01*
X125374981Y-91325463D01*
X125409988Y-91259970D01*
X125431545Y-91188905D01*
X125438824Y-91115000D01*
X125438824Y-88675000D01*
X125431545Y-88601095D01*
X125424236Y-88577000D01*
X126115764Y-88577000D01*
X126108455Y-88601095D01*
X126101176Y-88675000D01*
X126101176Y-91115000D01*
X126108455Y-91188905D01*
X126130012Y-91259970D01*
X126165019Y-91325463D01*
X126212131Y-91382869D01*
X126269537Y-91429981D01*
X126335030Y-91464988D01*
X126406095Y-91486545D01*
X126480000Y-91493824D01*
X127600000Y-91493824D01*
X127673905Y-91486545D01*
X127744970Y-91464988D01*
X127810463Y-91429981D01*
X127867869Y-91382869D01*
X127914981Y-91325463D01*
X127949988Y-91259970D01*
X127971545Y-91188905D01*
X127978824Y-91115000D01*
X127978824Y-88675000D01*
X127971545Y-88601095D01*
X127949988Y-88530030D01*
X127914981Y-88464537D01*
X127867869Y-88407131D01*
X127810463Y-88360019D01*
X127744970Y-88325012D01*
X127673905Y-88303455D01*
X127600000Y-88296176D01*
X127270756Y-88296176D01*
X126953403Y-87978824D01*
X127375001Y-87978824D01*
X127497678Y-87966741D01*
X127615641Y-87930958D01*
X127724356Y-87872848D01*
X127819646Y-87794646D01*
X127897848Y-87699356D01*
X127955958Y-87590641D01*
X127991741Y-87472678D01*
X128003824Y-87350001D01*
X128003824Y-86449999D01*
X127991741Y-86327322D01*
X127955958Y-86209359D01*
X127897848Y-86100644D01*
X127819646Y-86005354D01*
X127724356Y-85927152D01*
X127615641Y-85869042D01*
X127497678Y-85833259D01*
X127375001Y-85821176D01*
X125224999Y-85821176D01*
X125102322Y-85833259D01*
X124984359Y-85869042D01*
X124875644Y-85927152D01*
X124780354Y-86005354D01*
X124702152Y-86100644D01*
X124644042Y-86209359D01*
X124608259Y-86327322D01*
X124596176Y-86449999D01*
X124596176Y-86473000D01*
X124571845Y-86473000D01*
X124495309Y-86396464D01*
X124368048Y-86311431D01*
X124226643Y-86252859D01*
X124076528Y-86223000D01*
X123923472Y-86223000D01*
X123773357Y-86252859D01*
X123631952Y-86311431D01*
X123504691Y-86396464D01*
X123396464Y-86504691D01*
X123311431Y-86631952D01*
X123252859Y-86773357D01*
X123223000Y-86923472D01*
X123223000Y-87076528D01*
X123252859Y-87226643D01*
X123292771Y-87323000D01*
X122597580Y-87323000D01*
X122053855Y-86779276D01*
X122038921Y-86761079D01*
X121966289Y-86701471D01*
X121883423Y-86657178D01*
X121793508Y-86629903D01*
X121723423Y-86623000D01*
X121723415Y-86623000D01*
X121700000Y-86620694D01*
X121676585Y-86623000D01*
X119951579Y-86623000D01*
X120597580Y-85977000D01*
X122176585Y-85977000D01*
X122200000Y-85979306D01*
X122223415Y-85977000D01*
X122223423Y-85977000D01*
X122293508Y-85970097D01*
X122383423Y-85942822D01*
X122466289Y-85898529D01*
X122538921Y-85838921D01*
X122553855Y-85820724D01*
X123020729Y-85353851D01*
X123038921Y-85338921D01*
X123057259Y-85316577D01*
X123098529Y-85266289D01*
X123142822Y-85183423D01*
X123170097Y-85093508D01*
X123171496Y-85079306D01*
X123177000Y-85023423D01*
X123177000Y-85023415D01*
X123179306Y-85000000D01*
X123177000Y-84976585D01*
X123177000Y-84115770D01*
X123195309Y-84103536D01*
X123303536Y-83995309D01*
X123388569Y-83868048D01*
X123447141Y-83726643D01*
X123477000Y-83576528D01*
X123477000Y-83566179D01*
X123496464Y-83595309D01*
X123604691Y-83703536D01*
X123731952Y-83788569D01*
X123873357Y-83847141D01*
X124023472Y-83877000D01*
X124176528Y-83877000D01*
X124326643Y-83847141D01*
X124468048Y-83788569D01*
X124595309Y-83703536D01*
X124703536Y-83595309D01*
X124788569Y-83468048D01*
X124847141Y-83326643D01*
X124877000Y-83176528D01*
X124877000Y-83073573D01*
X124984359Y-83130958D01*
X125102322Y-83166741D01*
X125224999Y-83178824D01*
X127375001Y-83178824D01*
X127497678Y-83166741D01*
X127615641Y-83130958D01*
X127724356Y-83072848D01*
X127819646Y-82994646D01*
X127897848Y-82899356D01*
X127955958Y-82790641D01*
X127991741Y-82672678D01*
X128003824Y-82550001D01*
X128003824Y-81649999D01*
X127991741Y-81527322D01*
X127955958Y-81409359D01*
X127897848Y-81300644D01*
X127819646Y-81205354D01*
X127724356Y-81127152D01*
X127615641Y-81069042D01*
X127497678Y-81033259D01*
X127375001Y-81021176D01*
X125224999Y-81021176D01*
X125102322Y-81033259D01*
X124984359Y-81069042D01*
X124875644Y-81127152D01*
X124780354Y-81205354D01*
X124702152Y-81300644D01*
X124644042Y-81409359D01*
X124608259Y-81527322D01*
X124601298Y-81598000D01*
X123817584Y-81598000D01*
X123847141Y-81526643D01*
X123877000Y-81376528D01*
X123877000Y-81223472D01*
X123847141Y-81073357D01*
X123788569Y-80931952D01*
X123703536Y-80804691D01*
X123595309Y-80696464D01*
X123577000Y-80684230D01*
X123577000Y-80597579D01*
X123697580Y-80477000D01*
X125763963Y-80477000D01*
X125818790Y-80559055D01*
X125940945Y-80681210D01*
X126084585Y-80777187D01*
X126244189Y-80843297D01*
X126413623Y-80877000D01*
X126586377Y-80877000D01*
X126755811Y-80843297D01*
X126915415Y-80777187D01*
X127059055Y-80681210D01*
X127181210Y-80559055D01*
X127277187Y-80415415D01*
X127343297Y-80255811D01*
X127377000Y-80086377D01*
X127377000Y-79913623D01*
X127343297Y-79744189D01*
X127277187Y-79584585D01*
X127181210Y-79440945D01*
X127059055Y-79318790D01*
X126915415Y-79222813D01*
X126755811Y-79156703D01*
X126586377Y-79123000D01*
X126413623Y-79123000D01*
X126244189Y-79156703D01*
X126084585Y-79222813D01*
X125940945Y-79318790D01*
X125818790Y-79440945D01*
X125763963Y-79523000D01*
X125075845Y-79523000D01*
X125103536Y-79495309D01*
X125188569Y-79368048D01*
X125247141Y-79226643D01*
X125277000Y-79076528D01*
X125277000Y-78923472D01*
X125247141Y-78773357D01*
X125188569Y-78631952D01*
X125103536Y-78504691D01*
X124995309Y-78396464D01*
X124868048Y-78311431D01*
X124726643Y-78252859D01*
X124576528Y-78223000D01*
X124423472Y-78223000D01*
X124273357Y-78252859D01*
X124131952Y-78311431D01*
X124004691Y-78396464D01*
X123896464Y-78504691D01*
X123850821Y-78573000D01*
X122928824Y-78573000D01*
X122928824Y-78537500D01*
X122920344Y-78451402D01*
X122914186Y-78431103D01*
X124377446Y-76967845D01*
X124423472Y-76977000D01*
X124576528Y-76977000D01*
X124726643Y-76947141D01*
X124868048Y-76888569D01*
X124995309Y-76803536D01*
X125103536Y-76695309D01*
X125188569Y-76568048D01*
X125247141Y-76426643D01*
X125277000Y-76276528D01*
X125277000Y-76123472D01*
X125247141Y-75973357D01*
X125188569Y-75831952D01*
X125103536Y-75704691D01*
X124995309Y-75596464D01*
X124868048Y-75511431D01*
X124726643Y-75452859D01*
X124576528Y-75423000D01*
X124423472Y-75423000D01*
X124273357Y-75452859D01*
X124131952Y-75511431D01*
X124004691Y-75596464D01*
X123896464Y-75704691D01*
X123811431Y-75831952D01*
X123752859Y-75973357D01*
X123723000Y-76123472D01*
X123723000Y-76131709D01*
X121792530Y-78062181D01*
X121767869Y-78032131D01*
X121724931Y-77996892D01*
X121727000Y-77975880D01*
X121727000Y-77218289D01*
X125054339Y-73890951D01*
X125074448Y-73874448D01*
X125140304Y-73794202D01*
X125189239Y-73702650D01*
X125219374Y-73603310D01*
X125227000Y-73525881D01*
X125227000Y-73525879D01*
X125229549Y-73500001D01*
X125227000Y-73474123D01*
X125227000Y-73071845D01*
X125303536Y-72995309D01*
X125388569Y-72868048D01*
X125447141Y-72726643D01*
X125477000Y-72576528D01*
X125477000Y-72423472D01*
X125447141Y-72273357D01*
X125388569Y-72131952D01*
X125303536Y-72004691D01*
X125195309Y-71896464D01*
X125068048Y-71811431D01*
X124926643Y-71752859D01*
X124776528Y-71723000D01*
X124623472Y-71723000D01*
X124473357Y-71752859D01*
X124331952Y-71811431D01*
X124204691Y-71896464D01*
X124096464Y-72004691D01*
X124011431Y-72131952D01*
X123952859Y-72273357D01*
X123923000Y-72423472D01*
X123923000Y-72576528D01*
X123952859Y-72726643D01*
X124011431Y-72868048D01*
X124096464Y-72995309D01*
X124173000Y-73071845D01*
X124173000Y-73281710D01*
X123652817Y-73801893D01*
X123647141Y-73773357D01*
X123588569Y-73631952D01*
X123503536Y-73504691D01*
X123395309Y-73396464D01*
X123268048Y-73311431D01*
X123243873Y-73301417D01*
X123254339Y-73290951D01*
X123274448Y-73274448D01*
X123340304Y-73194202D01*
X123389239Y-73102650D01*
X123419374Y-73003310D01*
X123421978Y-72976867D01*
X123503536Y-72895309D01*
X123588569Y-72768048D01*
X123647141Y-72626643D01*
X123677000Y-72476528D01*
X123677000Y-72323472D01*
X123647141Y-72173357D01*
X123588569Y-72031952D01*
X123503536Y-71904691D01*
X123395309Y-71796464D01*
X123268048Y-71711431D01*
X123126643Y-71652859D01*
X122976528Y-71623000D01*
X122823472Y-71623000D01*
X122673357Y-71652859D01*
X122531952Y-71711431D01*
X122404691Y-71796464D01*
X122296464Y-71904691D01*
X122211431Y-72031952D01*
X122152859Y-72173357D01*
X122123000Y-72323472D01*
X122123000Y-72476528D01*
X122152859Y-72626643D01*
X122211431Y-72768048D01*
X122241564Y-72813146D01*
X121045666Y-74009045D01*
X121025552Y-74025552D01*
X120963274Y-74101438D01*
X120401512Y-74663200D01*
X120388569Y-74631952D01*
X120303536Y-74504691D01*
X120195309Y-74396464D01*
X120068048Y-74311431D01*
X119926643Y-74252859D01*
X119776528Y-74223000D01*
X119623472Y-74223000D01*
X119473357Y-74252859D01*
X119331952Y-74311431D01*
X119204691Y-74396464D01*
X119096464Y-74504691D01*
X119011431Y-74631952D01*
X118952859Y-74773357D01*
X118924371Y-74916581D01*
X118702807Y-74695017D01*
X118794646Y-74619646D01*
X118872848Y-74524357D01*
X118930958Y-74415642D01*
X118966741Y-74297679D01*
X118978824Y-74175002D01*
X118978824Y-73099998D01*
X118966741Y-72977321D01*
X118930958Y-72859358D01*
X118872848Y-72750643D01*
X118794646Y-72655354D01*
X118702807Y-72579983D01*
X120371263Y-70911528D01*
X120440945Y-70981210D01*
X120584585Y-71077187D01*
X120744189Y-71143297D01*
X120913623Y-71177000D01*
X121086377Y-71177000D01*
X121255811Y-71143297D01*
X121415415Y-71077187D01*
X121559055Y-70981210D01*
X121681210Y-70859055D01*
X121777187Y-70715415D01*
X121843297Y-70555811D01*
X121877000Y-70386377D01*
X121877000Y-70213623D01*
X121843297Y-70044189D01*
X121777187Y-69884585D01*
X121681210Y-69740945D01*
X121559055Y-69618790D01*
X121415415Y-69522813D01*
X121255811Y-69456703D01*
X121086377Y-69423000D01*
X120913623Y-69423000D01*
X120744189Y-69456703D01*
X120584585Y-69522813D01*
X120440945Y-69618790D01*
X120318790Y-69740945D01*
X120297372Y-69773000D01*
X120263381Y-69773000D01*
X120237500Y-69770451D01*
X120211619Y-69773000D01*
X120134190Y-69780626D01*
X120034850Y-69810761D01*
X119943298Y-69859696D01*
X119863052Y-69925552D01*
X119846554Y-69945655D01*
X117321035Y-72471176D01*
X115449998Y-72471176D01*
X115327321Y-72483259D01*
X115209358Y-72519042D01*
X115100643Y-72577152D01*
X115005354Y-72655354D01*
X114927152Y-72750643D01*
X114869042Y-72859358D01*
X114833259Y-72977321D01*
X114821176Y-73099998D01*
X114821176Y-74175002D01*
X114832198Y-74286908D01*
X113218829Y-72673540D01*
X113761369Y-72131000D01*
X114731510Y-72131000D01*
X114762500Y-72134052D01*
X114793490Y-72131000D01*
X114793498Y-72131000D01*
X114886198Y-72121870D01*
X115005142Y-72085789D01*
X115114761Y-72027196D01*
X115210843Y-71948343D01*
X115230605Y-71924263D01*
X116626044Y-70528824D01*
X118350002Y-70528824D01*
X118472679Y-70516741D01*
X118590642Y-70480958D01*
X118699357Y-70422848D01*
X118794646Y-70344646D01*
X118872848Y-70249357D01*
X118930958Y-70140642D01*
X118966741Y-70022679D01*
X118978824Y-69900002D01*
X118978824Y-68824998D01*
X118966741Y-68702321D01*
X118930958Y-68584358D01*
X118872848Y-68475643D01*
X118794646Y-68380354D01*
X118699357Y-68302152D01*
X118590642Y-68244042D01*
X118472679Y-68208259D01*
X118350002Y-68196176D01*
X115449998Y-68196176D01*
X115327321Y-68208259D01*
X115209358Y-68244042D01*
X115100643Y-68302152D01*
X115005354Y-68380354D01*
X114927152Y-68475643D01*
X114869042Y-68584358D01*
X114833259Y-68702321D01*
X114821176Y-68824998D01*
X114821176Y-69900002D01*
X114833259Y-70022679D01*
X114869042Y-70140642D01*
X114927152Y-70249357D01*
X115005354Y-70344646D01*
X115016411Y-70353721D01*
X114501132Y-70869000D01*
X113530987Y-70869000D01*
X113499999Y-70865948D01*
X113469011Y-70869000D01*
X113469002Y-70869000D01*
X113376302Y-70878130D01*
X113257358Y-70914211D01*
X113147739Y-70972804D01*
X113051657Y-71051657D01*
X113031899Y-71075732D01*
X112320624Y-71787008D01*
X112294646Y-71755354D01*
X112199357Y-71677152D01*
X112090642Y-71619042D01*
X111972679Y-71583259D01*
X111850002Y-71571176D01*
X108949998Y-71571176D01*
X108827321Y-71583259D01*
X108709358Y-71619042D01*
X108600643Y-71677152D01*
X108505354Y-71755354D01*
X108427152Y-71850643D01*
X108369042Y-71959358D01*
X108333259Y-72077321D01*
X108324229Y-72169000D01*
X107405990Y-72169000D01*
X107375000Y-72165948D01*
X107344009Y-72169000D01*
X107344002Y-72169000D01*
X107251302Y-72178130D01*
X107132358Y-72214211D01*
X107022739Y-72272804D01*
X106983399Y-72305090D01*
X106949356Y-72277152D01*
X106906000Y-72253977D01*
X106906000Y-71405987D01*
X106909052Y-71374999D01*
X106906000Y-71344011D01*
X106906000Y-71344002D01*
X106896870Y-71251302D01*
X106860789Y-71132358D01*
X106802196Y-71022739D01*
X106723343Y-70926657D01*
X106699269Y-70906900D01*
X101459000Y-65666632D01*
X101459000Y-61735000D01*
X103400000Y-61735000D01*
X103462242Y-61731942D01*
X103657332Y-61712727D01*
X103779419Y-61688443D01*
X103967012Y-61631538D01*
X104082020Y-61583900D01*
X104254907Y-61491490D01*
X104358409Y-61422332D01*
X104509946Y-61297969D01*
X104597969Y-61209946D01*
X104722332Y-61058409D01*
X104791490Y-60954907D01*
X104883900Y-60782020D01*
X104931538Y-60667012D01*
X104988443Y-60479419D01*
X105012727Y-60357332D01*
X105031942Y-60162242D01*
X105035000Y-60100000D01*
X105035000Y-57731194D01*
X105045027Y-57629394D01*
X105065623Y-57561494D01*
X105099069Y-57498923D01*
X105144078Y-57444078D01*
X105198923Y-57399069D01*
X105261494Y-57365623D01*
X105329394Y-57345027D01*
X105431194Y-57335000D01*
X131368806Y-57335000D01*
X131470606Y-57345027D01*
G37*
G04 #@! TD.AperFunction*
D29*
X113723000Y-76323472D02*
X113723000Y-76476528D01*
X113752859Y-76626643D01*
X113811431Y-76768048D01*
X113896464Y-76895309D01*
X114004691Y-77003536D01*
X114131952Y-77088569D01*
X114273357Y-77147141D01*
X114423472Y-77177000D01*
X114531711Y-77177000D01*
X114947990Y-77593280D01*
X114947990Y-77727993D01*
X114945441Y-77753874D01*
X114949326Y-77793316D01*
X114955616Y-77857183D01*
X114985751Y-77956523D01*
X115034686Y-78048076D01*
X115100542Y-78128322D01*
X115120656Y-78144829D01*
X116930165Y-79954339D01*
X116946668Y-79974448D01*
X117026914Y-80040304D01*
X117118466Y-80089239D01*
X117217806Y-80119374D01*
X117295235Y-80127000D01*
X117295237Y-80127000D01*
X117321115Y-80129549D01*
X117346993Y-80127000D01*
X117373110Y-80127000D01*
X117380626Y-80203310D01*
X117410761Y-80302650D01*
X117459696Y-80394202D01*
X117486938Y-80427397D01*
X117479656Y-80451402D01*
X117471176Y-80537500D01*
X117471176Y-80662500D01*
X117479656Y-80748598D01*
X117504770Y-80831387D01*
X117545553Y-80907686D01*
X117600437Y-80974563D01*
X117667314Y-81029447D01*
X117743613Y-81070230D01*
X117826402Y-81095344D01*
X117912500Y-81103824D01*
X118581470Y-81103824D01*
X118585019Y-81110463D01*
X118632131Y-81167869D01*
X118689537Y-81214981D01*
X118696176Y-81218530D01*
X118696176Y-81318889D01*
X118406955Y-81608110D01*
X118395309Y-81596464D01*
X118268048Y-81511431D01*
X118126643Y-81452859D01*
X117976528Y-81423000D01*
X117823472Y-81423000D01*
X117801875Y-81427296D01*
X117553855Y-81179276D01*
X117538921Y-81161079D01*
X117466289Y-81101471D01*
X117383423Y-81057178D01*
X117293508Y-81029903D01*
X117223423Y-81023000D01*
X117223415Y-81023000D01*
X117200000Y-81020694D01*
X117176585Y-81023000D01*
X117036037Y-81023000D01*
X116981210Y-80940945D01*
X116859055Y-80818790D01*
X116715415Y-80722813D01*
X116555811Y-80656703D01*
X116386377Y-80623000D01*
X116213623Y-80623000D01*
X116044189Y-80656703D01*
X115884585Y-80722813D01*
X115740945Y-80818790D01*
X115618790Y-80940945D01*
X115522813Y-81084585D01*
X115456703Y-81244189D01*
X115423000Y-81413623D01*
X115423000Y-81586377D01*
X115456703Y-81755811D01*
X115522813Y-81915415D01*
X115618790Y-82059055D01*
X115740945Y-82181210D01*
X115884585Y-82277187D01*
X116044189Y-82343297D01*
X116213623Y-82377000D01*
X116386377Y-82377000D01*
X116555811Y-82343297D01*
X116715415Y-82277187D01*
X116859055Y-82181210D01*
X116981210Y-82059055D01*
X117022572Y-81997152D01*
X117127296Y-82101875D01*
X117123000Y-82123472D01*
X117123000Y-82276528D01*
X117152859Y-82426643D01*
X117172061Y-82473000D01*
X115318291Y-82473000D01*
X112888817Y-80043528D01*
X112861191Y-79991843D01*
X112809492Y-79928847D01*
X112752000Y-79871355D01*
X112752000Y-79303824D01*
X113275000Y-79303824D01*
X113397677Y-79291741D01*
X113515641Y-79255958D01*
X113624356Y-79197848D01*
X113719646Y-79119646D01*
X113797848Y-79024356D01*
X113855958Y-78915641D01*
X113891741Y-78797677D01*
X113903824Y-78675000D01*
X113903824Y-77925000D01*
X113891741Y-77802323D01*
X113855958Y-77684359D01*
X113797848Y-77575644D01*
X113719646Y-77480354D01*
X113624356Y-77402152D01*
X113515641Y-77344042D01*
X113397677Y-77308259D01*
X113275000Y-77296176D01*
X111125000Y-77296176D01*
X111002323Y-77308259D01*
X110884359Y-77344042D01*
X110775644Y-77402152D01*
X110680354Y-77480354D01*
X110602152Y-77575644D01*
X110544042Y-77684359D01*
X110508259Y-77802323D01*
X110496176Y-77925000D01*
X110496176Y-78548000D01*
X110146845Y-78548000D01*
X110095309Y-78496464D01*
X109968048Y-78411431D01*
X109826643Y-78352859D01*
X109676528Y-78323000D01*
X109523472Y-78323000D01*
X109373357Y-78352859D01*
X109235623Y-78409910D01*
X109246545Y-78373905D01*
X109253824Y-78300000D01*
X109253824Y-78000000D01*
X109246545Y-77926095D01*
X109238629Y-77900000D01*
X109246545Y-77873905D01*
X109253824Y-77800000D01*
X109253824Y-77500000D01*
X109246545Y-77426095D01*
X109224988Y-77355030D01*
X109189981Y-77289537D01*
X109142869Y-77232131D01*
X109085463Y-77185019D01*
X109070461Y-77177000D01*
X109624119Y-77177000D01*
X109650000Y-77179549D01*
X109675881Y-77177000D01*
X109753310Y-77169374D01*
X109852650Y-77139239D01*
X109944202Y-77090304D01*
X110024448Y-77024448D01*
X110040955Y-77004334D01*
X110705230Y-76340061D01*
X110775644Y-76397848D01*
X110884359Y-76455958D01*
X111002323Y-76491741D01*
X111125000Y-76503824D01*
X113275000Y-76503824D01*
X113397677Y-76491741D01*
X113515641Y-76455958D01*
X113624356Y-76397848D01*
X113719646Y-76319646D01*
X113725077Y-76313028D01*
X113723000Y-76323472D01*
G04 #@! TA.AperFunction,Conductor*
D30*
G36*
X113723000Y-76323472D02*
G01*
X113723000Y-76476528D01*
X113752859Y-76626643D01*
X113811431Y-76768048D01*
X113896464Y-76895309D01*
X114004691Y-77003536D01*
X114131952Y-77088569D01*
X114273357Y-77147141D01*
X114423472Y-77177000D01*
X114531711Y-77177000D01*
X114947990Y-77593280D01*
X114947990Y-77727993D01*
X114945441Y-77753874D01*
X114949326Y-77793316D01*
X114955616Y-77857183D01*
X114985751Y-77956523D01*
X115034686Y-78048076D01*
X115100542Y-78128322D01*
X115120656Y-78144829D01*
X116930165Y-79954339D01*
X116946668Y-79974448D01*
X117026914Y-80040304D01*
X117118466Y-80089239D01*
X117217806Y-80119374D01*
X117295235Y-80127000D01*
X117295237Y-80127000D01*
X117321115Y-80129549D01*
X117346993Y-80127000D01*
X117373110Y-80127000D01*
X117380626Y-80203310D01*
X117410761Y-80302650D01*
X117459696Y-80394202D01*
X117486938Y-80427397D01*
X117479656Y-80451402D01*
X117471176Y-80537500D01*
X117471176Y-80662500D01*
X117479656Y-80748598D01*
X117504770Y-80831387D01*
X117545553Y-80907686D01*
X117600437Y-80974563D01*
X117667314Y-81029447D01*
X117743613Y-81070230D01*
X117826402Y-81095344D01*
X117912500Y-81103824D01*
X118581470Y-81103824D01*
X118585019Y-81110463D01*
X118632131Y-81167869D01*
X118689537Y-81214981D01*
X118696176Y-81218530D01*
X118696176Y-81318889D01*
X118406955Y-81608110D01*
X118395309Y-81596464D01*
X118268048Y-81511431D01*
X118126643Y-81452859D01*
X117976528Y-81423000D01*
X117823472Y-81423000D01*
X117801875Y-81427296D01*
X117553855Y-81179276D01*
X117538921Y-81161079D01*
X117466289Y-81101471D01*
X117383423Y-81057178D01*
X117293508Y-81029903D01*
X117223423Y-81023000D01*
X117223415Y-81023000D01*
X117200000Y-81020694D01*
X117176585Y-81023000D01*
X117036037Y-81023000D01*
X116981210Y-80940945D01*
X116859055Y-80818790D01*
X116715415Y-80722813D01*
X116555811Y-80656703D01*
X116386377Y-80623000D01*
X116213623Y-80623000D01*
X116044189Y-80656703D01*
X115884585Y-80722813D01*
X115740945Y-80818790D01*
X115618790Y-80940945D01*
X115522813Y-81084585D01*
X115456703Y-81244189D01*
X115423000Y-81413623D01*
X115423000Y-81586377D01*
X115456703Y-81755811D01*
X115522813Y-81915415D01*
X115618790Y-82059055D01*
X115740945Y-82181210D01*
X115884585Y-82277187D01*
X116044189Y-82343297D01*
X116213623Y-82377000D01*
X116386377Y-82377000D01*
X116555811Y-82343297D01*
X116715415Y-82277187D01*
X116859055Y-82181210D01*
X116981210Y-82059055D01*
X117022572Y-81997152D01*
X117127296Y-82101875D01*
X117123000Y-82123472D01*
X117123000Y-82276528D01*
X117152859Y-82426643D01*
X117172061Y-82473000D01*
X115318291Y-82473000D01*
X112888817Y-80043528D01*
X112861191Y-79991843D01*
X112809492Y-79928847D01*
X112752000Y-79871355D01*
X112752000Y-79303824D01*
X113275000Y-79303824D01*
X113397677Y-79291741D01*
X113515641Y-79255958D01*
X113624356Y-79197848D01*
X113719646Y-79119646D01*
X113797848Y-79024356D01*
X113855958Y-78915641D01*
X113891741Y-78797677D01*
X113903824Y-78675000D01*
X113903824Y-77925000D01*
X113891741Y-77802323D01*
X113855958Y-77684359D01*
X113797848Y-77575644D01*
X113719646Y-77480354D01*
X113624356Y-77402152D01*
X113515641Y-77344042D01*
X113397677Y-77308259D01*
X113275000Y-77296176D01*
X111125000Y-77296176D01*
X111002323Y-77308259D01*
X110884359Y-77344042D01*
X110775644Y-77402152D01*
X110680354Y-77480354D01*
X110602152Y-77575644D01*
X110544042Y-77684359D01*
X110508259Y-77802323D01*
X110496176Y-77925000D01*
X110496176Y-78548000D01*
X110146845Y-78548000D01*
X110095309Y-78496464D01*
X109968048Y-78411431D01*
X109826643Y-78352859D01*
X109676528Y-78323000D01*
X109523472Y-78323000D01*
X109373357Y-78352859D01*
X109235623Y-78409910D01*
X109246545Y-78373905D01*
X109253824Y-78300000D01*
X109253824Y-78000000D01*
X109246545Y-77926095D01*
X109238629Y-77900000D01*
X109246545Y-77873905D01*
X109253824Y-77800000D01*
X109253824Y-77500000D01*
X109246545Y-77426095D01*
X109224988Y-77355030D01*
X109189981Y-77289537D01*
X109142869Y-77232131D01*
X109085463Y-77185019D01*
X109070461Y-77177000D01*
X109624119Y-77177000D01*
X109650000Y-77179549D01*
X109675881Y-77177000D01*
X109753310Y-77169374D01*
X109852650Y-77139239D01*
X109944202Y-77090304D01*
X110024448Y-77024448D01*
X110040955Y-77004334D01*
X110705230Y-76340061D01*
X110775644Y-76397848D01*
X110884359Y-76455958D01*
X111002323Y-76491741D01*
X111125000Y-76503824D01*
X113275000Y-76503824D01*
X113397677Y-76491741D01*
X113515641Y-76455958D01*
X113624356Y-76397848D01*
X113719646Y-76319646D01*
X113725077Y-76313028D01*
X113723000Y-76323472D01*
G37*
G04 #@! TD.AperFunction*
G04 #@! TD*
D29*
G04 #@! TO.N,VCC*
X174040001Y-54879955D02*
X173984672Y-54925362D01*
X173833850Y-55005978D01*
X173670189Y-55055624D01*
X173493766Y-55073000D01*
X159300000Y-55073000D01*
X159287552Y-55073612D01*
X159092462Y-55092827D01*
X159068044Y-55097683D01*
X158880451Y-55154588D01*
X158857450Y-55164116D01*
X158684563Y-55256526D01*
X158663862Y-55270358D01*
X158512325Y-55394721D01*
X158494721Y-55412325D01*
X158370358Y-55563862D01*
X158356526Y-55584563D01*
X158264116Y-55757450D01*
X158254588Y-55780451D01*
X158197683Y-55968044D01*
X158192827Y-55992462D01*
X158173612Y-56187552D01*
X158173000Y-56200000D01*
X158173000Y-61611009D01*
X158156193Y-61695629D01*
X158115388Y-61756810D01*
X158054302Y-61797752D01*
X157969723Y-61814751D01*
X149283789Y-61834538D01*
X149275528Y-61824472D01*
X149152189Y-61723251D01*
X149011473Y-61648037D01*
X148858788Y-61601720D01*
X148739791Y-61590000D01*
X148739788Y-61590000D01*
X148700000Y-61586081D01*
X148660212Y-61590000D01*
X137339788Y-61590000D01*
X137300000Y-61586081D01*
X137260212Y-61590000D01*
X134939787Y-61590000D01*
X134899999Y-61586081D01*
X134860211Y-61590000D01*
X134860209Y-61590000D01*
X134741212Y-61601720D01*
X134588527Y-61648037D01*
X134447811Y-61723251D01*
X134324472Y-61824472D01*
X134299105Y-61855382D01*
X134285783Y-61868704D01*
X133408236Y-61870703D01*
X133231510Y-61853678D01*
X133067534Y-61804267D01*
X132916359Y-61723767D01*
X132783836Y-61615292D01*
X132675055Y-61483011D01*
X132594213Y-61332024D01*
X132544427Y-61168156D01*
X132527000Y-60991468D01*
X132527000Y-57700000D01*
X132526388Y-57687552D01*
X132507173Y-57492462D01*
X132502317Y-57468044D01*
X132445412Y-57280451D01*
X132435884Y-57257450D01*
X132343474Y-57084563D01*
X132329642Y-57063862D01*
X132205279Y-56912325D01*
X132187675Y-56894721D01*
X132036138Y-56770358D01*
X132015437Y-56756526D01*
X131842550Y-56664116D01*
X131819549Y-56654588D01*
X131631956Y-56597683D01*
X131607538Y-56592827D01*
X131412448Y-56573612D01*
X131400000Y-56573000D01*
X105400000Y-56573000D01*
X105387552Y-56573612D01*
X105192462Y-56592827D01*
X105168044Y-56597683D01*
X104980451Y-56654588D01*
X104957450Y-56664116D01*
X104784563Y-56756526D01*
X104763862Y-56770358D01*
X104612325Y-56894721D01*
X104594721Y-56912325D01*
X104470358Y-57063862D01*
X104456526Y-57084563D01*
X104364116Y-57257450D01*
X104354588Y-57280451D01*
X104297683Y-57468044D01*
X104292827Y-57492462D01*
X104273612Y-57687552D01*
X104273000Y-57700000D01*
X104273000Y-60093766D01*
X104255624Y-60270189D01*
X104205978Y-60433850D01*
X104125362Y-60584672D01*
X104016870Y-60716870D01*
X103884672Y-60825362D01*
X103733850Y-60905978D01*
X103570189Y-60955624D01*
X103393766Y-60973000D01*
X89896326Y-60973000D01*
X89719825Y-60955610D01*
X89556121Y-60905931D01*
X89405254Y-60825256D01*
X89360000Y-60788098D01*
X89360000Y-47611716D01*
X157973000Y-47611716D01*
X157973000Y-48188284D01*
X158085482Y-48753775D01*
X158306126Y-49286455D01*
X158626450Y-49765854D01*
X159034146Y-50173550D01*
X159513545Y-50493874D01*
X160046225Y-50714518D01*
X160611716Y-50827000D01*
X161188284Y-50827000D01*
X161753775Y-50714518D01*
X162286455Y-50493874D01*
X162765854Y-50173550D01*
X163173550Y-49765854D01*
X163493874Y-49286455D01*
X163714518Y-48753775D01*
X163827000Y-48188284D01*
X163827000Y-47611716D01*
X163714518Y-47046225D01*
X163493874Y-46513545D01*
X163173550Y-46034146D01*
X162765854Y-45626450D01*
X162286455Y-45306126D01*
X161753775Y-45085482D01*
X161188284Y-44973000D01*
X160611716Y-44973000D01*
X160046225Y-45085482D01*
X159513545Y-45306126D01*
X159034146Y-45626450D01*
X158626450Y-46034146D01*
X158306126Y-46513545D01*
X158085482Y-47046225D01*
X157973000Y-47611716D01*
X89360000Y-47611716D01*
X89360000Y-43560000D01*
X174040001Y-43560000D01*
X174040001Y-54879955D01*
G04 #@! TA.AperFunction,Conductor*
D30*
G36*
X174040001Y-54879955D02*
G01*
X173984672Y-54925362D01*
X173833850Y-55005978D01*
X173670189Y-55055624D01*
X173493766Y-55073000D01*
X159300000Y-55073000D01*
X159287552Y-55073612D01*
X159092462Y-55092827D01*
X159068044Y-55097683D01*
X158880451Y-55154588D01*
X158857450Y-55164116D01*
X158684563Y-55256526D01*
X158663862Y-55270358D01*
X158512325Y-55394721D01*
X158494721Y-55412325D01*
X158370358Y-55563862D01*
X158356526Y-55584563D01*
X158264116Y-55757450D01*
X158254588Y-55780451D01*
X158197683Y-55968044D01*
X158192827Y-55992462D01*
X158173612Y-56187552D01*
X158173000Y-56200000D01*
X158173000Y-61611009D01*
X158156193Y-61695629D01*
X158115388Y-61756810D01*
X158054302Y-61797752D01*
X157969723Y-61814751D01*
X149283789Y-61834538D01*
X149275528Y-61824472D01*
X149152189Y-61723251D01*
X149011473Y-61648037D01*
X148858788Y-61601720D01*
X148739791Y-61590000D01*
X148739788Y-61590000D01*
X148700000Y-61586081D01*
X148660212Y-61590000D01*
X137339788Y-61590000D01*
X137300000Y-61586081D01*
X137260212Y-61590000D01*
X134939787Y-61590000D01*
X134899999Y-61586081D01*
X134860211Y-61590000D01*
X134860209Y-61590000D01*
X134741212Y-61601720D01*
X134588527Y-61648037D01*
X134447811Y-61723251D01*
X134324472Y-61824472D01*
X134299105Y-61855382D01*
X134285783Y-61868704D01*
X133408236Y-61870703D01*
X133231510Y-61853678D01*
X133067534Y-61804267D01*
X132916359Y-61723767D01*
X132783836Y-61615292D01*
X132675055Y-61483011D01*
X132594213Y-61332024D01*
X132544427Y-61168156D01*
X132527000Y-60991468D01*
X132527000Y-57700000D01*
X132526388Y-57687552D01*
X132507173Y-57492462D01*
X132502317Y-57468044D01*
X132445412Y-57280451D01*
X132435884Y-57257450D01*
X132343474Y-57084563D01*
X132329642Y-57063862D01*
X132205279Y-56912325D01*
X132187675Y-56894721D01*
X132036138Y-56770358D01*
X132015437Y-56756526D01*
X131842550Y-56664116D01*
X131819549Y-56654588D01*
X131631956Y-56597683D01*
X131607538Y-56592827D01*
X131412448Y-56573612D01*
X131400000Y-56573000D01*
X105400000Y-56573000D01*
X105387552Y-56573612D01*
X105192462Y-56592827D01*
X105168044Y-56597683D01*
X104980451Y-56654588D01*
X104957450Y-56664116D01*
X104784563Y-56756526D01*
X104763862Y-56770358D01*
X104612325Y-56894721D01*
X104594721Y-56912325D01*
X104470358Y-57063862D01*
X104456526Y-57084563D01*
X104364116Y-57257450D01*
X104354588Y-57280451D01*
X104297683Y-57468044D01*
X104292827Y-57492462D01*
X104273612Y-57687552D01*
X104273000Y-57700000D01*
X104273000Y-60093766D01*
X104255624Y-60270189D01*
X104205978Y-60433850D01*
X104125362Y-60584672D01*
X104016870Y-60716870D01*
X103884672Y-60825362D01*
X103733850Y-60905978D01*
X103570189Y-60955624D01*
X103393766Y-60973000D01*
X89896326Y-60973000D01*
X89719825Y-60955610D01*
X89556121Y-60905931D01*
X89405254Y-60825256D01*
X89360000Y-60788098D01*
X89360000Y-47611716D01*
X157973000Y-47611716D01*
X157973000Y-48188284D01*
X158085482Y-48753775D01*
X158306126Y-49286455D01*
X158626450Y-49765854D01*
X159034146Y-50173550D01*
X159513545Y-50493874D01*
X160046225Y-50714518D01*
X160611716Y-50827000D01*
X161188284Y-50827000D01*
X161753775Y-50714518D01*
X162286455Y-50493874D01*
X162765854Y-50173550D01*
X163173550Y-49765854D01*
X163493874Y-49286455D01*
X163714518Y-48753775D01*
X163827000Y-48188284D01*
X163827000Y-47611716D01*
X163714518Y-47046225D01*
X163493874Y-46513545D01*
X163173550Y-46034146D01*
X162765854Y-45626450D01*
X162286455Y-45306126D01*
X161753775Y-45085482D01*
X161188284Y-44973000D01*
X160611716Y-44973000D01*
X160046225Y-45085482D01*
X159513545Y-45306126D01*
X159034146Y-45626450D01*
X158626450Y-46034146D01*
X158306126Y-46513545D01*
X158085482Y-47046225D01*
X157973000Y-47611716D01*
X89360000Y-47611716D01*
X89360000Y-43560000D01*
X174040001Y-43560000D01*
X174040001Y-54879955D01*
G37*
G04 #@! TD.AperFunction*
G04 #@! TD*
M02*
