M48
INCH
T1C0.0118
T2C0.0157
T3C0.0315
T4C0.0394
T5C0.0469
T6C0.0728
T7C0.1260
%
G90
G05
T1
X4.5914Y-3.4213
X4.5914Y-3.4685
X4.6386Y-3.4213
X4.6386Y-3.4685
X4.6909Y-3.0925
X4.6909Y-3.1752
X4.7736Y-3.0925
X4.7736Y-3.1752
T2
X3.585Y-2.9988
X3.585Y-3.0488
X3.585Y-3.0988
X3.585Y-3.1488
X3.585Y-3.1988
X3.585Y-3.2488
X3.585Y-3.2988
X3.585Y-3.3488
X3.585Y-3.398
X3.6342Y-3.3488
X3.6342Y-3.398
X3.635Y-2.9988
X3.635Y-3.0488
X3.635Y-3.0988
X3.635Y-3.1488
X3.635Y-3.1988
X3.635Y-3.2488
X3.635Y-3.2988
X3.6834Y-3.3488
X3.6834Y-3.398
X3.685Y-2.9988
X3.685Y-3.0488
X3.685Y-3.0988
X3.685Y-3.1488
X3.685Y-3.1988
X3.685Y-3.2488
X3.685Y-3.2988
X3.7326Y-3.3488
X3.7326Y-3.398
X3.735Y-2.9988
X3.735Y-3.0488
X3.735Y-3.0988
X3.735Y-3.1488
X3.735Y-3.1988
X3.735Y-3.2488
X3.735Y-3.2988
X3.7819Y-3.3488
X3.7819Y-3.398
X3.785Y-2.9988
X3.785Y-3.0488
X3.785Y-3.0988
X3.785Y-3.1488
X3.785Y-3.1988
X3.785Y-3.2488
X3.785Y-3.2988
X3.8311Y-3.3488
X3.8311Y-3.398
X3.835Y-2.9988
X3.835Y-3.0488
X3.835Y-3.0988
X3.835Y-3.1488
X3.835Y-3.1988
X3.835Y-3.2488
X3.835Y-3.2988
X3.8803Y-3.3488
X3.8803Y-3.398
X3.885Y-2.9988
X3.885Y-3.0488
X3.885Y-3.0988
X3.885Y-3.1488
X3.885Y-3.1988
X3.885Y-3.2488
X3.885Y-3.2988
X3.935Y-2.9988
X3.935Y-3.0488
X3.935Y-3.0988
X3.935Y-3.1488
X3.935Y-3.1988
X3.935Y-3.248
X3.935Y-3.2972
X3.935Y-3.3465
X3.935Y-3.3957
X3.9842Y-3.1988
X3.9842Y-3.248
X3.9842Y-3.2972
X3.9842Y-3.3465
X3.9842Y-3.3957
X4.0079Y-2.4587
X4.0079Y-2.5079
X4.0079Y-2.5571
X4.0334Y-3.1988
X4.0334Y-3.248
X4.0334Y-3.2972
X4.0334Y-3.3465
X4.0334Y-3.3957
X4.0571Y-2.4587
X4.0571Y-2.5079
X4.0571Y-2.5571
X4.0826Y-3.1988
X4.0826Y-3.248
X4.0826Y-3.2972
X4.0826Y-3.3465
X4.0826Y-3.3957
X4.1063Y-2.4587
X4.1063Y-2.5079
X4.1063Y-2.5571
X4.1063Y-2.6063
X4.1063Y-2.6555
X4.1555Y-2.4587
X4.1555Y-2.5079
X4.1555Y-2.5571
X4.1555Y-2.6063
X4.1555Y-2.6555
X4.2047Y-2.5079
X4.2047Y-2.5571
X4.2047Y-2.6063
X4.2047Y-2.6555
X4.2539Y-2.5571
X4.2539Y-2.6063
X4.2539Y-2.6555
X4.3031Y-2.6063
X4.3031Y-2.6555
X4.315Y-3.1142
X4.3268Y-3.0512
X4.3524Y-2.6063
X4.3524Y-2.6555
X4.3819Y-3.3031
X4.4016Y-2.6063
X4.4016Y-2.6555
X4.4488Y-3.5984
X4.4508Y-2.6063
X4.4508Y-2.6555
X4.5Y-2.6063
X4.5Y-2.6555
X4.5079Y-3.0079
X4.5492Y-2.6063
X4.5492Y-2.6555
X4.5984Y-2.6063
X4.5984Y-2.6555
X4.6024Y-3.0079
X4.6417Y-3.2362
X4.6476Y-2.6063
X4.6476Y-2.6555
X4.6496Y-3.3307
X4.6969Y-2.5571
X4.6969Y-2.6063
X4.6969Y-2.6555
X4.7126Y-2.9528
X4.7461Y-2.5079
X4.7461Y-2.5571
X4.7461Y-2.6063
X4.7461Y-2.6555
X4.7953Y-2.4587
X4.7953Y-2.5079
X4.7953Y-2.5571
X4.7953Y-2.6063
X4.7953Y-2.6555
X4.8307Y-3.2874
X4.8386Y-2.8504
X4.8386Y-2.9134
X4.8445Y-2.4587
X4.8445Y-2.5079
X4.8445Y-2.5571
X4.8445Y-2.6063
X4.8445Y-2.6555
X4.8465Y-3.2008
X4.8819Y-3.4252
X4.8858Y-3.2717
X4.8937Y-2.4587
X4.8937Y-2.5079
X4.8937Y-2.5571
X4.8937Y-2.6063
X4.8937Y-2.6555
X4.9016Y-3.0
X4.9016Y-3.1102
X4.9094Y-2.8543
X5.2204Y-3.2224
X5.2204Y-3.2717
X5.2204Y-3.3209
X5.2204Y-3.3701
X5.2204Y-3.4193
X5.2204Y-3.4685
X5.2204Y-3.5177
X5.2204Y-3.5669
X5.2204Y-3.6161
X5.2204Y-3.6654
X5.2696Y-3.2224
X5.2696Y-3.2717
X5.2696Y-3.3209
X5.2696Y-3.3701
X5.2696Y-3.4193
X5.2696Y-3.4685
X5.2696Y-3.5177
X5.2696Y-3.5669
X5.2696Y-3.6161
X5.2696Y-3.6654
X5.2992Y-1.7441
X5.2992Y-1.7933
X5.2992Y-1.8425
X5.3189Y-3.2224
X5.3189Y-3.2717
X5.3189Y-3.3209
X5.3189Y-3.3701
X5.3189Y-3.4193
X5.3189Y-3.4685
X5.3189Y-3.5177
X5.3189Y-3.5669
X5.3189Y-3.6161
X5.3189Y-3.6654
X5.3484Y-1.7441
X5.3484Y-1.7933
X5.3484Y-1.8425
X5.3681Y-3.2224
X5.3681Y-3.2717
X5.3681Y-3.3209
X5.3681Y-3.3701
X5.3681Y-3.4193
X5.3681Y-3.4685
X5.3681Y-3.5177
X5.3681Y-3.5669
X5.3681Y-3.6161
X5.3681Y-3.6654
X5.3976Y-1.7441
X5.3976Y-1.7933
X5.3976Y-1.8425
X5.4173Y-3.4193
X5.4173Y-3.4685
X5.4173Y-3.5177
X5.4173Y-3.5669
X5.4173Y-3.6161
X5.4173Y-3.6654
X5.4469Y-1.7441
X5.4469Y-1.7933
X5.4469Y-1.8425
X5.4469Y-1.8917
X5.4665Y-3.4193
X5.4665Y-3.4685
X5.4665Y-3.5177
X5.4665Y-3.5669
X5.4665Y-3.6161
X5.4665Y-3.6654
X5.4961Y-1.7441
X5.4961Y-1.7933
X5.4961Y-1.8425
X5.4961Y-1.8917
X5.4961Y-1.9409
X5.5157Y-3.4193
X5.5157Y-3.4685
X5.5157Y-3.5177
X5.5157Y-3.5669
X5.5157Y-3.6161
X5.5157Y-3.6654
X5.5453Y-1.7441
X5.5453Y-1.7933
X5.5453Y-1.8425
X5.5453Y-1.8917
X5.5453Y-1.9409
X5.5453Y-1.9902
X5.5649Y-3.4193
X5.5649Y-3.4685
X5.5649Y-3.5177
X5.5649Y-3.5669
X5.5649Y-3.6161
X5.5649Y-3.6654
X5.5945Y-1.7441
X5.5945Y-1.7933
X5.5945Y-1.8425
X5.5945Y-1.8917
X5.5945Y-1.9409
X5.5945Y-1.9902
X5.6141Y-3.4193
X5.6141Y-3.4685
X5.6141Y-3.5177
X5.6141Y-3.5669
X5.6141Y-3.6161
X5.6141Y-3.6654
X5.6437Y-1.7441
X5.6437Y-1.7933
X5.6437Y-1.8425
X5.6437Y-1.8917
X5.6437Y-1.9409
X5.6437Y-1.9902
X5.6633Y-3.4193
X5.6633Y-3.4685
X5.6633Y-3.5177
X5.6633Y-3.5669
X5.6633Y-3.6161
X5.6633Y-3.6654
X5.6693Y-2.4724
X5.6929Y-1.7441
X5.6929Y-1.7933
X5.6929Y-1.8425
X5.6929Y-1.8917
X5.6929Y-1.9409
X5.6929Y-1.9902
X5.7126Y-3.4193
X5.7126Y-3.4685
X5.7126Y-3.5177
X5.7126Y-3.5669
X5.7126Y-3.6161
X5.7126Y-3.6654
X5.7126Y-3.1339
X5.7165Y-2.937
X5.7421Y-1.7441
X5.7421Y-1.7933
X5.7421Y-1.8425
X5.7421Y-1.8917
X5.7421Y-1.9409
X5.7421Y-1.9902
X5.7618Y-3.4193
X5.7618Y-3.4685
X5.7618Y-3.5177
X5.7618Y-3.5669
X5.7618Y-3.6161
X5.7618Y-3.6654
X5.7913Y-1.7441
X5.7913Y-1.7933
X5.7913Y-1.8425
X5.7913Y-1.8917
X5.7913Y-1.9409
X5.7913Y-1.9902
X5.811Y-3.4193
X5.811Y-3.4685
X5.811Y-3.5177
X5.811Y-3.5669
X5.811Y-3.6161
X5.811Y-3.6654
X5.8406Y-1.7441
X5.8406Y-1.7933
X5.8406Y-1.8425
X5.8406Y-1.8917
X5.8406Y-1.9409
X5.8406Y-1.9902
X5.8602Y-3.4193
X5.8602Y-3.4685
X5.8602Y-3.5177
X5.8602Y-3.5669
X5.8602Y-3.6161
X5.8602Y-3.6654
X5.8898Y-1.7441
X5.8898Y-1.7933
X5.8898Y-1.8425
X5.8898Y-1.8917
X5.8898Y-1.9409
X5.8898Y-1.9902
X5.9094Y-3.4193
X5.9094Y-3.4685
X5.9094Y-3.5177
X5.9094Y-3.5669
X5.9094Y-3.6161
X5.9094Y-3.6654
X5.939Y-1.7441
X5.939Y-1.7933
X5.939Y-1.8425
X5.939Y-1.8917
X5.939Y-1.9409
X5.939Y-1.9902
X5.9882Y-1.7441
X5.9882Y-1.7933
X5.9882Y-1.8425
X5.9882Y-1.8917
X5.9882Y-1.9409
X5.9882Y-1.9902
X6.0374Y-1.7441
X6.0374Y-1.7933
X6.0374Y-1.8425
X6.0374Y-1.8917
X6.0374Y-1.9409
X6.0374Y-1.9902
X6.0866Y-1.7441
X6.0866Y-1.7933
X6.0866Y-1.8425
X6.0866Y-1.8917
X6.0866Y-1.9409
X6.0866Y-1.9902
X6.1358Y-1.7441
X6.1358Y-1.7933
X6.1358Y-1.8425
X6.1358Y-1.8917
X6.1358Y-1.9409
X6.1358Y-1.9902
T3
X6.4843Y-2.8976
X6.5827Y-2.8976
T4
X4.4724Y-2.0709
X4.4724Y-2.3661
X5.2126Y-2.0748
X5.2126Y-2.3701
T5
X4.2756Y-3.2457
X4.2756Y-3.3457
X4.2756Y-3.4457
X4.2756Y-3.5457
X4.2756Y-3.6457
T6
X3.6404Y-3.5537
X3.6404Y-3.7283
X3.6404Y-3.903
X3.6443Y-1.8372
X3.6443Y-2.0118
X3.6443Y-2.1864
X3.815Y-3.5537
X3.815Y-3.7283
X3.815Y-3.903
X3.8189Y-1.8372
X3.8189Y-2.0118
X3.8189Y-2.1864
X3.9896Y-3.5537
X3.9896Y-3.7283
X3.9896Y-3.903
X3.9935Y-1.8372
X3.9935Y-2.0118
X3.9935Y-2.1864
X6.3648Y-3.0616
X6.3648Y-3.2362
X6.3648Y-3.4108
X6.3687Y-2.3844
X6.3687Y-2.5591
X6.3687Y-2.7337
X6.5394Y-3.0616
X6.5394Y-3.2362
X6.5394Y-3.4108
X6.5433Y-2.3844
X6.5433Y-2.5591
X6.5433Y-2.7337
X6.714Y-3.0616
X6.714Y-3.2362
X6.714Y-3.4108
X6.7179Y-2.3844
X6.7179Y-2.5591
X6.7179Y-2.7337
T7
X3.6693Y-2.8465
X5.9961Y-3.8543
X6.3346Y-1.8858
T0
M30
