G04 #@! TF.GenerationSoftware,KiCad,Pcbnew,(5.1.10)-1*
G04 #@! TF.CreationDate,2021-06-12T15:14:09-04:00*
G04 #@! TF.ProjectId,Motor Controller 2020,4d6f746f-7220-4436-9f6e-74726f6c6c65,rev?*
G04 #@! TF.SameCoordinates,Original*
G04 #@! TF.FileFunction,Paste,Bot*
G04 #@! TF.FilePolarity,Positive*
%FSLAX46Y46*%
G04 Gerber Fmt 4.6, Leading zero omitted, Abs format (unit mm)*
G04 Created by KiCad (PCBNEW (5.1.10)-1) date 2021-06-12 15:14:09*
%MOMM*%
%LPD*%
G01*
G04 APERTURE LIST*
%ADD10R,5.250000X4.550000*%
%ADD11R,1.100000X4.600000*%
G04 APERTURE END LIST*
G36*
G01*
X132225000Y-78124999D02*
X132225000Y-80275001D01*
G75*
G02*
X131975001Y-80525000I-249999J0D01*
G01*
X131249999Y-80525000D01*
G75*
G02*
X131000000Y-80275001I0J249999D01*
G01*
X131000000Y-78124999D01*
G75*
G02*
X131249999Y-77875000I249999J0D01*
G01*
X131975001Y-77875000D01*
G75*
G02*
X132225000Y-78124999I0J-249999D01*
G01*
G37*
G36*
G01*
X127600000Y-78124999D02*
X127600000Y-80275001D01*
G75*
G02*
X127350001Y-80525000I-249999J0D01*
G01*
X126624999Y-80525000D01*
G75*
G02*
X126375000Y-80275001I0J249999D01*
G01*
X126375000Y-78124999D01*
G75*
G02*
X126624999Y-77875000I249999J0D01*
G01*
X127350001Y-77875000D01*
G75*
G02*
X127600000Y-78124999I0J-249999D01*
G01*
G37*
G36*
G01*
X107625000Y-77349998D02*
X107625000Y-80250002D01*
G75*
G02*
X107375002Y-80500000I-249998J0D01*
G01*
X106299998Y-80500000D01*
G75*
G02*
X106050000Y-80250002I0J249998D01*
G01*
X106050000Y-77349998D01*
G75*
G02*
X106299998Y-77100000I249998J0D01*
G01*
X107375002Y-77100000D01*
G75*
G02*
X107625000Y-77349998I0J-249998D01*
G01*
G37*
G36*
G01*
X103350000Y-77349998D02*
X103350000Y-80250002D01*
G75*
G02*
X103100002Y-80500000I-249998J0D01*
G01*
X102024998Y-80500000D01*
G75*
G02*
X101775000Y-80250002I0J249998D01*
G01*
X101775000Y-77349998D01*
G75*
G02*
X102024998Y-77100000I249998J0D01*
G01*
X103100002Y-77100000D01*
G75*
G02*
X103350000Y-77349998I0J-249998D01*
G01*
G37*
G36*
G01*
X113049998Y-81275000D02*
X115950002Y-81275000D01*
G75*
G02*
X116200000Y-81524998I0J-249998D01*
G01*
X116200000Y-82600002D01*
G75*
G02*
X115950002Y-82850000I-249998J0D01*
G01*
X113049998Y-82850000D01*
G75*
G02*
X112800000Y-82600002I0J249998D01*
G01*
X112800000Y-81524998D01*
G75*
G02*
X113049998Y-81275000I249998J0D01*
G01*
G37*
G36*
G01*
X113049998Y-85550000D02*
X115950002Y-85550000D01*
G75*
G02*
X116200000Y-85799998I0J-249998D01*
G01*
X116200000Y-86875002D01*
G75*
G02*
X115950002Y-87125000I-249998J0D01*
G01*
X113049998Y-87125000D01*
G75*
G02*
X112800000Y-86875002I0J249998D01*
G01*
X112800000Y-85799998D01*
G75*
G02*
X113049998Y-85550000I249998J0D01*
G01*
G37*
D10*
X149117000Y-77078000D03*
X154667000Y-72228000D03*
X154667000Y-77078000D03*
X149117000Y-72228000D03*
D11*
X149352000Y-83803000D03*
X151892000Y-83803000D03*
X154432000Y-83803000D03*
X142748000Y-65376000D03*
X140208000Y-65376000D03*
X137668000Y-65376000D03*
D10*
X137433000Y-53801000D03*
X142983000Y-58651000D03*
X142983000Y-53801000D03*
X137433000Y-58651000D03*
D11*
X142875000Y-83791000D03*
X140335000Y-83791000D03*
X137795000Y-83791000D03*
D10*
X137560000Y-72216000D03*
X143110000Y-77066000D03*
X143110000Y-72216000D03*
X137560000Y-77066000D03*
D11*
X154432000Y-65376000D03*
X151892000Y-65376000D03*
X149352000Y-65376000D03*
D10*
X149117000Y-53801000D03*
X154667000Y-58651000D03*
X154667000Y-53801000D03*
X149117000Y-58651000D03*
G36*
G01*
X152950000Y-91674999D02*
X152950000Y-94525001D01*
G75*
G02*
X152700001Y-94775000I-249999J0D01*
G01*
X151974999Y-94775000D01*
G75*
G02*
X151725000Y-94525001I0J249999D01*
G01*
X151725000Y-91674999D01*
G75*
G02*
X151974999Y-91425000I249999J0D01*
G01*
X152700001Y-91425000D01*
G75*
G02*
X152950000Y-91674999I0J-249999D01*
G01*
G37*
G36*
G01*
X158875000Y-91674999D02*
X158875000Y-94525001D01*
G75*
G02*
X158625001Y-94775000I-249999J0D01*
G01*
X157899999Y-94775000D01*
G75*
G02*
X157650000Y-94525001I0J249999D01*
G01*
X157650000Y-91674999D01*
G75*
G02*
X157899999Y-91425000I249999J0D01*
G01*
X158625001Y-91425000D01*
G75*
G02*
X158875000Y-91674999I0J-249999D01*
G01*
G37*
G36*
G01*
X128100000Y-64224999D02*
X128100000Y-66375001D01*
G75*
G02*
X127850001Y-66625000I-249999J0D01*
G01*
X127124999Y-66625000D01*
G75*
G02*
X126875000Y-66375001I0J249999D01*
G01*
X126875000Y-64224999D01*
G75*
G02*
X127124999Y-63975000I249999J0D01*
G01*
X127850001Y-63975000D01*
G75*
G02*
X128100000Y-64224999I0J-249999D01*
G01*
G37*
G36*
G01*
X132725000Y-64224999D02*
X132725000Y-66375001D01*
G75*
G02*
X132475001Y-66625000I-249999J0D01*
G01*
X131749999Y-66625000D01*
G75*
G02*
X131500000Y-66375001I0J249999D01*
G01*
X131500000Y-64224999D01*
G75*
G02*
X131749999Y-63975000I249999J0D01*
G01*
X132475001Y-63975000D01*
G75*
G02*
X132725000Y-64224999I0J-249999D01*
G01*
G37*
G36*
G01*
X111750002Y-77187500D02*
X108849998Y-77187500D01*
G75*
G02*
X108600000Y-76937502I0J249998D01*
G01*
X108600000Y-75862498D01*
G75*
G02*
X108849998Y-75612500I249998J0D01*
G01*
X111750002Y-75612500D01*
G75*
G02*
X112000000Y-75862498I0J-249998D01*
G01*
X112000000Y-76937502D01*
G75*
G02*
X111750002Y-77187500I-249998J0D01*
G01*
G37*
G36*
G01*
X111750002Y-72912500D02*
X108849998Y-72912500D01*
G75*
G02*
X108600000Y-72662502I0J249998D01*
G01*
X108600000Y-71587498D01*
G75*
G02*
X108849998Y-71337500I249998J0D01*
G01*
X111750002Y-71337500D01*
G75*
G02*
X112000000Y-71587498I0J-249998D01*
G01*
X112000000Y-72662502D01*
G75*
G02*
X111750002Y-72912500I-249998J0D01*
G01*
G37*
G36*
G01*
X124950000Y-89000001D02*
X124950000Y-86799999D01*
G75*
G02*
X125199999Y-86550000I249999J0D01*
G01*
X125850001Y-86550000D01*
G75*
G02*
X126100000Y-86799999I0J-249999D01*
G01*
X126100000Y-89000001D01*
G75*
G02*
X125850001Y-89250000I-249999J0D01*
G01*
X125199999Y-89250000D01*
G75*
G02*
X124950000Y-89000001I0J249999D01*
G01*
G37*
G36*
G01*
X127900000Y-89000001D02*
X127900000Y-86799999D01*
G75*
G02*
X128149999Y-86550000I249999J0D01*
G01*
X128800001Y-86550000D01*
G75*
G02*
X129050000Y-86799999I0J-249999D01*
G01*
X129050000Y-89000001D01*
G75*
G02*
X128800001Y-89250000I-249999J0D01*
G01*
X128149999Y-89250000D01*
G75*
G02*
X127900000Y-89000001I0J249999D01*
G01*
G37*
G36*
G01*
X131075001Y-83530000D02*
X131075001Y-85680002D01*
G75*
G02*
X130825002Y-85930001I-249999J0D01*
G01*
X129925000Y-85930001D01*
G75*
G02*
X129675001Y-85680002I0J249999D01*
G01*
X129675001Y-83530000D01*
G75*
G02*
X129925000Y-83280001I249999J0D01*
G01*
X130825002Y-83280001D01*
G75*
G02*
X131075001Y-83530000I0J-249999D01*
G01*
G37*
G36*
G01*
X126275001Y-83530000D02*
X126275001Y-85680002D01*
G75*
G02*
X126025002Y-85930001I-249999J0D01*
G01*
X125125000Y-85930001D01*
G75*
G02*
X124875001Y-85680002I0J249999D01*
G01*
X124875001Y-83530000D01*
G75*
G02*
X125125000Y-83280001I249999J0D01*
G01*
X126025002Y-83280001D01*
G75*
G02*
X126275001Y-83530000I0J-249999D01*
G01*
G37*
M02*
