G04 #@! TF.GenerationSoftware,KiCad,Pcbnew,(5.1.9)-1*
G04 #@! TF.CreationDate,2021-07-02T11:04:44-04:00*
G04 #@! TF.ProjectId,Motor Controller 2020,4d6f746f-7220-4436-9f6e-74726f6c6c65,rev?*
G04 #@! TF.SameCoordinates,Original*
G04 #@! TF.FileFunction,Legend,Bot*
G04 #@! TF.FilePolarity,Positive*
%FSLAX46Y46*%
G04 Gerber Fmt 4.6, Leading zero omitted, Abs format (unit mm)*
G04 Created by KiCad (PCBNEW (5.1.9)-1) date 2021-07-02 11:04:44*
%MOMM*%
%LPD*%
G01*
G04 APERTURE LIST*
G04 #@! TA.AperFunction,Profile*
%ADD10C,0.050000*%
G04 #@! TD*
%ADD11C,0.120000*%
%ADD12C,0.150000*%
G04 APERTURE END LIST*
D10*
X174700000Y-102900000D02*
X174700000Y-42900000D01*
X88700000Y-42900000D02*
X174700000Y-42900000D01*
X88700000Y-102900000D02*
X88700000Y-42900000D01*
X88700000Y-102900000D02*
X174700000Y-102900000D01*
D11*
G04 #@! TO.C,TP5*
X121200000Y-73100000D02*
G75*
G03*
X121200000Y-73100000I-700000J0D01*
G01*
G04 #@! TO.C,C3*
X114538748Y-73090000D02*
X116861252Y-73090000D01*
X114538748Y-76510000D02*
X116861252Y-76510000D01*
G04 #@! TO.C,R6*
X130027064Y-76040000D02*
X126972936Y-76040000D01*
X130027064Y-78760000D02*
X126972936Y-78760000D01*
G04 #@! TO.C,C11*
X114138748Y-83690000D02*
X116461252Y-83690000D01*
X114138748Y-87110000D02*
X116461252Y-87110000D01*
G04 #@! TO.C,JP2*
X157477064Y-92910000D02*
X153122936Y-92910000D01*
X157477064Y-89490000D02*
X153122936Y-89490000D01*
G04 #@! TO.C,R5*
X130027064Y-72360000D02*
X126972936Y-72360000D01*
X130027064Y-69640000D02*
X126972936Y-69640000D01*
G04 #@! TO.C,C6*
X131460000Y-84988748D02*
X131460000Y-86411252D01*
X128740000Y-84988748D02*
X128740000Y-86411252D01*
G04 #@! TO.C,R2*
X125540000Y-87127064D02*
X125540000Y-84072936D01*
X128260000Y-87127064D02*
X128260000Y-84072936D01*
G04 #@! TO.C,C2*
X106240000Y-76911252D02*
X106240000Y-75488748D01*
X108960000Y-76911252D02*
X108960000Y-75488748D01*
G04 #@! TO.C,Q5*
X157092000Y-79478000D02*
X157092000Y-80978000D01*
X157092000Y-80978000D02*
X155282000Y-80978000D01*
X155282000Y-80978000D02*
X155282000Y-86103000D01*
X146692000Y-79478000D02*
X146692000Y-80978000D01*
X146692000Y-80978000D02*
X148502000Y-80978000D01*
X148502000Y-80978000D02*
X148502000Y-82078000D01*
G04 #@! TO.C,Q6*
X145408000Y-61051000D02*
X145408000Y-62551000D01*
X145408000Y-62551000D02*
X143598000Y-62551000D01*
X143598000Y-62551000D02*
X143598000Y-67676000D01*
X135008000Y-61051000D02*
X135008000Y-62551000D01*
X135008000Y-62551000D02*
X136818000Y-62551000D01*
X136818000Y-62551000D02*
X136818000Y-63651000D01*
G04 #@! TO.C,Q7*
X148502000Y-62551000D02*
X148502000Y-63651000D01*
X146692000Y-62551000D02*
X148502000Y-62551000D01*
X146692000Y-61051000D02*
X146692000Y-62551000D01*
X155282000Y-62551000D02*
X155282000Y-67676000D01*
X157092000Y-62551000D02*
X155282000Y-62551000D01*
X157092000Y-61051000D02*
X157092000Y-62551000D01*
G04 #@! TO.C,Q8*
X136945000Y-80966000D02*
X136945000Y-82066000D01*
X135135000Y-80966000D02*
X136945000Y-80966000D01*
X135135000Y-79466000D02*
X135135000Y-80966000D01*
X143725000Y-80966000D02*
X143725000Y-86091000D01*
X145535000Y-80966000D02*
X143725000Y-80966000D01*
X145535000Y-79466000D02*
X145535000Y-80966000D01*
G04 #@! TO.C,TP6*
X112000000Y-76000000D02*
G75*
G03*
X112000000Y-76000000I-700000J0D01*
G01*
G04 #@! TD*
G04 #@! TO.C,TP5*
D12*
X121661904Y-71152380D02*
X121090476Y-71152380D01*
X121376190Y-72152380D02*
X121376190Y-71152380D01*
X120757142Y-72152380D02*
X120757142Y-71152380D01*
X120376190Y-71152380D01*
X120280952Y-71200000D01*
X120233333Y-71247619D01*
X120185714Y-71342857D01*
X120185714Y-71485714D01*
X120233333Y-71580952D01*
X120280952Y-71628571D01*
X120376190Y-71676190D01*
X120757142Y-71676190D01*
X119280952Y-71152380D02*
X119757142Y-71152380D01*
X119804761Y-71628571D01*
X119757142Y-71580952D01*
X119661904Y-71533333D01*
X119423809Y-71533333D01*
X119328571Y-71580952D01*
X119280952Y-71628571D01*
X119233333Y-71723809D01*
X119233333Y-71961904D01*
X119280952Y-72057142D01*
X119328571Y-72104761D01*
X119423809Y-72152380D01*
X119661904Y-72152380D01*
X119757142Y-72104761D01*
X119804761Y-72057142D01*
G04 #@! TO.C,C3*
X115866666Y-77807142D02*
X115914285Y-77854761D01*
X116057142Y-77902380D01*
X116152380Y-77902380D01*
X116295238Y-77854761D01*
X116390476Y-77759523D01*
X116438095Y-77664285D01*
X116485714Y-77473809D01*
X116485714Y-77330952D01*
X116438095Y-77140476D01*
X116390476Y-77045238D01*
X116295238Y-76950000D01*
X116152380Y-76902380D01*
X116057142Y-76902380D01*
X115914285Y-76950000D01*
X115866666Y-76997619D01*
X115533333Y-76902380D02*
X114914285Y-76902380D01*
X115247619Y-77283333D01*
X115104761Y-77283333D01*
X115009523Y-77330952D01*
X114961904Y-77378571D01*
X114914285Y-77473809D01*
X114914285Y-77711904D01*
X114961904Y-77807142D01*
X115009523Y-77854761D01*
X115104761Y-77902380D01*
X115390476Y-77902380D01*
X115485714Y-77854761D01*
X115533333Y-77807142D01*
G04 #@! TO.C,R6*
X128666666Y-75572380D02*
X129000000Y-75096190D01*
X129238095Y-75572380D02*
X129238095Y-74572380D01*
X128857142Y-74572380D01*
X128761904Y-74620000D01*
X128714285Y-74667619D01*
X128666666Y-74762857D01*
X128666666Y-74905714D01*
X128714285Y-75000952D01*
X128761904Y-75048571D01*
X128857142Y-75096190D01*
X129238095Y-75096190D01*
X127809523Y-74572380D02*
X128000000Y-74572380D01*
X128095238Y-74620000D01*
X128142857Y-74667619D01*
X128238095Y-74810476D01*
X128285714Y-75000952D01*
X128285714Y-75381904D01*
X128238095Y-75477142D01*
X128190476Y-75524761D01*
X128095238Y-75572380D01*
X127904761Y-75572380D01*
X127809523Y-75524761D01*
X127761904Y-75477142D01*
X127714285Y-75381904D01*
X127714285Y-75143809D01*
X127761904Y-75048571D01*
X127809523Y-75000952D01*
X127904761Y-74953333D01*
X128095238Y-74953333D01*
X128190476Y-75000952D01*
X128238095Y-75048571D01*
X128285714Y-75143809D01*
G04 #@! TO.C,C11*
X115942857Y-83457142D02*
X115990476Y-83504761D01*
X116133333Y-83552380D01*
X116228571Y-83552380D01*
X116371428Y-83504761D01*
X116466666Y-83409523D01*
X116514285Y-83314285D01*
X116561904Y-83123809D01*
X116561904Y-82980952D01*
X116514285Y-82790476D01*
X116466666Y-82695238D01*
X116371428Y-82600000D01*
X116228571Y-82552380D01*
X116133333Y-82552380D01*
X115990476Y-82600000D01*
X115942857Y-82647619D01*
X114990476Y-83552380D02*
X115561904Y-83552380D01*
X115276190Y-83552380D02*
X115276190Y-82552380D01*
X115371428Y-82695238D01*
X115466666Y-82790476D01*
X115561904Y-82838095D01*
X114038095Y-83552380D02*
X114609523Y-83552380D01*
X114323809Y-83552380D02*
X114323809Y-82552380D01*
X114419047Y-82695238D01*
X114514285Y-82790476D01*
X114609523Y-82838095D01*
G04 #@! TO.C,JP2*
X156133333Y-88032380D02*
X156133333Y-88746666D01*
X156180952Y-88889523D01*
X156276190Y-88984761D01*
X156419047Y-89032380D01*
X156514285Y-89032380D01*
X155657142Y-89032380D02*
X155657142Y-88032380D01*
X155276190Y-88032380D01*
X155180952Y-88080000D01*
X155133333Y-88127619D01*
X155085714Y-88222857D01*
X155085714Y-88365714D01*
X155133333Y-88460952D01*
X155180952Y-88508571D01*
X155276190Y-88556190D01*
X155657142Y-88556190D01*
X154704761Y-88127619D02*
X154657142Y-88080000D01*
X154561904Y-88032380D01*
X154323809Y-88032380D01*
X154228571Y-88080000D01*
X154180952Y-88127619D01*
X154133333Y-88222857D01*
X154133333Y-88318095D01*
X154180952Y-88460952D01*
X154752380Y-89032380D01*
X154133333Y-89032380D01*
G04 #@! TO.C,R5*
X128666666Y-69172380D02*
X129000000Y-68696190D01*
X129238095Y-69172380D02*
X129238095Y-68172380D01*
X128857142Y-68172380D01*
X128761904Y-68220000D01*
X128714285Y-68267619D01*
X128666666Y-68362857D01*
X128666666Y-68505714D01*
X128714285Y-68600952D01*
X128761904Y-68648571D01*
X128857142Y-68696190D01*
X129238095Y-68696190D01*
X127761904Y-68172380D02*
X128238095Y-68172380D01*
X128285714Y-68648571D01*
X128238095Y-68600952D01*
X128142857Y-68553333D01*
X127904761Y-68553333D01*
X127809523Y-68600952D01*
X127761904Y-68648571D01*
X127714285Y-68743809D01*
X127714285Y-68981904D01*
X127761904Y-69077142D01*
X127809523Y-69124761D01*
X127904761Y-69172380D01*
X128142857Y-69172380D01*
X128238095Y-69124761D01*
X128285714Y-69077142D01*
G04 #@! TO.C,C6*
X132657142Y-85533333D02*
X132704761Y-85485714D01*
X132752380Y-85342857D01*
X132752380Y-85247619D01*
X132704761Y-85104761D01*
X132609523Y-85009523D01*
X132514285Y-84961904D01*
X132323809Y-84914285D01*
X132180952Y-84914285D01*
X131990476Y-84961904D01*
X131895238Y-85009523D01*
X131800000Y-85104761D01*
X131752380Y-85247619D01*
X131752380Y-85342857D01*
X131800000Y-85485714D01*
X131847619Y-85533333D01*
X131752380Y-86390476D02*
X131752380Y-86200000D01*
X131800000Y-86104761D01*
X131847619Y-86057142D01*
X131990476Y-85961904D01*
X132180952Y-85914285D01*
X132561904Y-85914285D01*
X132657142Y-85961904D01*
X132704761Y-86009523D01*
X132752380Y-86104761D01*
X132752380Y-86295238D01*
X132704761Y-86390476D01*
X132657142Y-86438095D01*
X132561904Y-86485714D01*
X132323809Y-86485714D01*
X132228571Y-86438095D01*
X132180952Y-86390476D01*
X132133333Y-86295238D01*
X132133333Y-86104761D01*
X132180952Y-86009523D01*
X132228571Y-85961904D01*
X132323809Y-85914285D01*
G04 #@! TO.C,R2*
X125152380Y-85733333D02*
X124676190Y-85400000D01*
X125152380Y-85161904D02*
X124152380Y-85161904D01*
X124152380Y-85542857D01*
X124200000Y-85638095D01*
X124247619Y-85685714D01*
X124342857Y-85733333D01*
X124485714Y-85733333D01*
X124580952Y-85685714D01*
X124628571Y-85638095D01*
X124676190Y-85542857D01*
X124676190Y-85161904D01*
X124247619Y-86114285D02*
X124200000Y-86161904D01*
X124152380Y-86257142D01*
X124152380Y-86495238D01*
X124200000Y-86590476D01*
X124247619Y-86638095D01*
X124342857Y-86685714D01*
X124438095Y-86685714D01*
X124580952Y-86638095D01*
X125152380Y-86066666D01*
X125152380Y-86685714D01*
G04 #@! TO.C,C2*
X108066666Y-79557142D02*
X108114285Y-79604761D01*
X108257142Y-79652380D01*
X108352380Y-79652380D01*
X108495238Y-79604761D01*
X108590476Y-79509523D01*
X108638095Y-79414285D01*
X108685714Y-79223809D01*
X108685714Y-79080952D01*
X108638095Y-78890476D01*
X108590476Y-78795238D01*
X108495238Y-78700000D01*
X108352380Y-78652380D01*
X108257142Y-78652380D01*
X108114285Y-78700000D01*
X108066666Y-78747619D01*
X107685714Y-78747619D02*
X107638095Y-78700000D01*
X107542857Y-78652380D01*
X107304761Y-78652380D01*
X107209523Y-78700000D01*
X107161904Y-78747619D01*
X107114285Y-78842857D01*
X107114285Y-78938095D01*
X107161904Y-79080952D01*
X107733333Y-79652380D01*
X107114285Y-79652380D01*
G04 #@! TO.C,Q5*
X159089619Y-77932761D02*
X159042000Y-77837523D01*
X158946761Y-77742285D01*
X158803904Y-77599428D01*
X158756285Y-77504190D01*
X158756285Y-77408952D01*
X158994380Y-77456571D02*
X158946761Y-77361333D01*
X158851523Y-77266095D01*
X158661047Y-77218476D01*
X158327714Y-77218476D01*
X158137238Y-77266095D01*
X158042000Y-77361333D01*
X157994380Y-77456571D01*
X157994380Y-77647047D01*
X158042000Y-77742285D01*
X158137238Y-77837523D01*
X158327714Y-77885142D01*
X158661047Y-77885142D01*
X158851523Y-77837523D01*
X158946761Y-77742285D01*
X158994380Y-77647047D01*
X158994380Y-77456571D01*
X157994380Y-78789904D02*
X157994380Y-78313714D01*
X158470571Y-78266095D01*
X158422952Y-78313714D01*
X158375333Y-78408952D01*
X158375333Y-78647047D01*
X158422952Y-78742285D01*
X158470571Y-78789904D01*
X158565809Y-78837523D01*
X158803904Y-78837523D01*
X158899142Y-78789904D01*
X158946761Y-78742285D01*
X158994380Y-78647047D01*
X158994380Y-78408952D01*
X158946761Y-78313714D01*
X158899142Y-78266095D01*
G04 #@! TO.C,Q6*
X147405619Y-59505761D02*
X147358000Y-59410523D01*
X147262761Y-59315285D01*
X147119904Y-59172428D01*
X147072285Y-59077190D01*
X147072285Y-58981952D01*
X147310380Y-59029571D02*
X147262761Y-58934333D01*
X147167523Y-58839095D01*
X146977047Y-58791476D01*
X146643714Y-58791476D01*
X146453238Y-58839095D01*
X146358000Y-58934333D01*
X146310380Y-59029571D01*
X146310380Y-59220047D01*
X146358000Y-59315285D01*
X146453238Y-59410523D01*
X146643714Y-59458142D01*
X146977047Y-59458142D01*
X147167523Y-59410523D01*
X147262761Y-59315285D01*
X147310380Y-59220047D01*
X147310380Y-59029571D01*
X146310380Y-60315285D02*
X146310380Y-60124809D01*
X146358000Y-60029571D01*
X146405619Y-59981952D01*
X146548476Y-59886714D01*
X146738952Y-59839095D01*
X147119904Y-59839095D01*
X147215142Y-59886714D01*
X147262761Y-59934333D01*
X147310380Y-60029571D01*
X147310380Y-60220047D01*
X147262761Y-60315285D01*
X147215142Y-60362904D01*
X147119904Y-60410523D01*
X146881809Y-60410523D01*
X146786571Y-60362904D01*
X146738952Y-60315285D01*
X146691333Y-60220047D01*
X146691333Y-60029571D01*
X146738952Y-59934333D01*
X146786571Y-59886714D01*
X146881809Y-59839095D01*
G04 #@! TO.C,Q7*
X159089619Y-59505761D02*
X159042000Y-59410523D01*
X158946761Y-59315285D01*
X158803904Y-59172428D01*
X158756285Y-59077190D01*
X158756285Y-58981952D01*
X158994380Y-59029571D02*
X158946761Y-58934333D01*
X158851523Y-58839095D01*
X158661047Y-58791476D01*
X158327714Y-58791476D01*
X158137238Y-58839095D01*
X158042000Y-58934333D01*
X157994380Y-59029571D01*
X157994380Y-59220047D01*
X158042000Y-59315285D01*
X158137238Y-59410523D01*
X158327714Y-59458142D01*
X158661047Y-59458142D01*
X158851523Y-59410523D01*
X158946761Y-59315285D01*
X158994380Y-59220047D01*
X158994380Y-59029571D01*
X157994380Y-59791476D02*
X157994380Y-60458142D01*
X158994380Y-60029571D01*
G04 #@! TO.C,Q8*
X147532619Y-77920761D02*
X147485000Y-77825523D01*
X147389761Y-77730285D01*
X147246904Y-77587428D01*
X147199285Y-77492190D01*
X147199285Y-77396952D01*
X147437380Y-77444571D02*
X147389761Y-77349333D01*
X147294523Y-77254095D01*
X147104047Y-77206476D01*
X146770714Y-77206476D01*
X146580238Y-77254095D01*
X146485000Y-77349333D01*
X146437380Y-77444571D01*
X146437380Y-77635047D01*
X146485000Y-77730285D01*
X146580238Y-77825523D01*
X146770714Y-77873142D01*
X147104047Y-77873142D01*
X147294523Y-77825523D01*
X147389761Y-77730285D01*
X147437380Y-77635047D01*
X147437380Y-77444571D01*
X146865952Y-78444571D02*
X146818333Y-78349333D01*
X146770714Y-78301714D01*
X146675476Y-78254095D01*
X146627857Y-78254095D01*
X146532619Y-78301714D01*
X146485000Y-78349333D01*
X146437380Y-78444571D01*
X146437380Y-78635047D01*
X146485000Y-78730285D01*
X146532619Y-78777904D01*
X146627857Y-78825523D01*
X146675476Y-78825523D01*
X146770714Y-78777904D01*
X146818333Y-78730285D01*
X146865952Y-78635047D01*
X146865952Y-78444571D01*
X146913571Y-78349333D01*
X146961190Y-78301714D01*
X147056428Y-78254095D01*
X147246904Y-78254095D01*
X147342142Y-78301714D01*
X147389761Y-78349333D01*
X147437380Y-78444571D01*
X147437380Y-78635047D01*
X147389761Y-78730285D01*
X147342142Y-78777904D01*
X147246904Y-78825523D01*
X147056428Y-78825523D01*
X146961190Y-78777904D01*
X146913571Y-78730285D01*
X146865952Y-78635047D01*
G04 #@! TO.C,NT1*
X121142857Y-94552380D02*
X121142857Y-93552380D01*
X120571428Y-94552380D01*
X120571428Y-93552380D01*
X120238095Y-93552380D02*
X119666666Y-93552380D01*
X119952380Y-94552380D02*
X119952380Y-93552380D01*
X118809523Y-94552380D02*
X119380952Y-94552380D01*
X119095238Y-94552380D02*
X119095238Y-93552380D01*
X119190476Y-93695238D01*
X119285714Y-93790476D01*
X119380952Y-93838095D01*
G04 #@! TO.C,TP6*
X112161904Y-73952380D02*
X111590476Y-73952380D01*
X111876190Y-74952380D02*
X111876190Y-73952380D01*
X111257142Y-74952380D02*
X111257142Y-73952380D01*
X110876190Y-73952380D01*
X110780952Y-74000000D01*
X110733333Y-74047619D01*
X110685714Y-74142857D01*
X110685714Y-74285714D01*
X110733333Y-74380952D01*
X110780952Y-74428571D01*
X110876190Y-74476190D01*
X111257142Y-74476190D01*
X109828571Y-73952380D02*
X110019047Y-73952380D01*
X110114285Y-74000000D01*
X110161904Y-74047619D01*
X110257142Y-74190476D01*
X110304761Y-74380952D01*
X110304761Y-74761904D01*
X110257142Y-74857142D01*
X110209523Y-74904761D01*
X110114285Y-74952380D01*
X109923809Y-74952380D01*
X109828571Y-74904761D01*
X109780952Y-74857142D01*
X109733333Y-74761904D01*
X109733333Y-74523809D01*
X109780952Y-74428571D01*
X109828571Y-74380952D01*
X109923809Y-74333333D01*
X110114285Y-74333333D01*
X110209523Y-74380952D01*
X110257142Y-74428571D01*
X110304761Y-74523809D01*
G04 #@! TD*
M02*
