G04 #@! TF.GenerationSoftware,KiCad,Pcbnew,(5.1.9)-1*
G04 #@! TF.CreationDate,2021-07-02T11:04:44-04:00*
G04 #@! TF.ProjectId,Motor Controller 2020,4d6f746f-7220-4436-9f6e-74726f6c6c65,rev?*
G04 #@! TF.SameCoordinates,Original*
G04 #@! TF.FileFunction,Copper,L2,Bot*
G04 #@! TF.FilePolarity,Positive*
%FSLAX46Y46*%
G04 Gerber Fmt 4.6, Leading zero omitted, Abs format (unit mm)*
G04 Created by KiCad (PCBNEW (5.1.9)-1) date 2021-07-02 11:04:44*
%MOMM*%
%LPD*%
G01*
G04 APERTURE LIST*
G04 #@! TA.AperFunction,Profile*
%ADD10C,0.050000*%
G04 #@! TD*
G04 #@! TA.AperFunction,EtchedComponent*
%ADD11C,0.150000*%
G04 #@! TD*
G04 #@! TA.AperFunction,SMDPad,CuDef*
%ADD12C,1.000000*%
G04 #@! TD*
G04 #@! TA.AperFunction,ComponentPad*
%ADD13C,3.200000*%
G04 #@! TD*
G04 #@! TA.AperFunction,ComponentPad*
%ADD14O,2.190000X1.740000*%
G04 #@! TD*
G04 #@! TA.AperFunction,ComponentPad*
%ADD15C,0.500000*%
G04 #@! TD*
G04 #@! TA.AperFunction,SMDPad,CuDef*
%ADD16R,2.600000X2.600000*%
G04 #@! TD*
G04 #@! TA.AperFunction,SMDPad,CuDef*
%ADD17R,1.700000X1.700000*%
G04 #@! TD*
G04 #@! TA.AperFunction,SMDPad,CuDef*
%ADD18R,10.800000X9.400000*%
G04 #@! TD*
G04 #@! TA.AperFunction,SMDPad,CuDef*
%ADD19R,1.100000X4.600000*%
G04 #@! TD*
G04 #@! TA.AperFunction,ComponentPad*
%ADD20C,1.600000*%
G04 #@! TD*
G04 #@! TA.AperFunction,SMDPad,CuDef*
%ADD21C,2.000000*%
G04 #@! TD*
G04 #@! TA.AperFunction,ViaPad*
%ADD22C,0.800000*%
G04 #@! TD*
G04 #@! TA.AperFunction,Conductor*
%ADD23C,0.350000*%
G04 #@! TD*
G04 #@! TA.AperFunction,Conductor*
%ADD24C,0.300000*%
G04 #@! TD*
G04 #@! TA.AperFunction,Conductor*
%ADD25C,0.200000*%
G04 #@! TD*
G04 #@! TA.AperFunction,Conductor*
%ADD26C,0.250000*%
G04 #@! TD*
G04 APERTURE END LIST*
D10*
X174700000Y-102900000D02*
X174700000Y-42900000D01*
X88700000Y-42900000D02*
X174700000Y-42900000D01*
X88700000Y-102900000D02*
X88700000Y-42900000D01*
X88700000Y-102900000D02*
X174700000Y-102900000D01*
D11*
G04 #@! TO.C,NT1*
G36*
X121600000Y-91900000D02*
G01*
X121600000Y-87900000D01*
X119600000Y-87900000D01*
X119600000Y-91900000D01*
X121600000Y-91900000D01*
G37*
G04 #@! TD*
D12*
G04 #@! TO.P,TP5,1*
G04 #@! TO.N,Net-(C3-Pad2)*
X120500000Y-73100000D03*
G04 #@! TD*
G04 #@! TO.P,C3,1*
G04 #@! TO.N,Net-(C3-Pad1)*
G04 #@! TA.AperFunction,SMDPad,CuDef*
G36*
G01*
X112775000Y-76250002D02*
X112775000Y-73349998D01*
G75*
G02*
X113024998Y-73100000I249998J0D01*
G01*
X114100002Y-73100000D01*
G75*
G02*
X114350000Y-73349998I0J-249998D01*
G01*
X114350000Y-76250002D01*
G75*
G02*
X114100002Y-76500000I-249998J0D01*
G01*
X113024998Y-76500000D01*
G75*
G02*
X112775000Y-76250002I0J249998D01*
G01*
G37*
G04 #@! TD.AperFunction*
G04 #@! TO.P,C3,2*
G04 #@! TO.N,Net-(C3-Pad2)*
G04 #@! TA.AperFunction,SMDPad,CuDef*
G36*
G01*
X117050000Y-76250002D02*
X117050000Y-73349998D01*
G75*
G02*
X117299998Y-73100000I249998J0D01*
G01*
X118375002Y-73100000D01*
G75*
G02*
X118625000Y-73349998I0J-249998D01*
G01*
X118625000Y-76250002D01*
G75*
G02*
X118375002Y-76500000I-249998J0D01*
G01*
X117299998Y-76500000D01*
G75*
G02*
X117050000Y-76250002I0J249998D01*
G01*
G37*
G04 #@! TD.AperFunction*
G04 #@! TD*
D13*
G04 #@! TO.P,J4,1*
G04 #@! TO.N,MOTOR+*
X166200000Y-65000000D03*
X166200000Y-69435000D03*
X170635000Y-65000000D03*
X166200000Y-60565000D03*
X161765000Y-65000000D03*
X161765000Y-69435000D03*
X161765000Y-60565000D03*
X170635000Y-60565000D03*
X170635000Y-69435000D03*
G04 #@! TD*
G04 #@! TO.P,R6,1*
G04 #@! TO.N,Net-(Q5-Pad1)*
G04 #@! TA.AperFunction,SMDPad,CuDef*
G36*
G01*
X131425000Y-76324999D02*
X131425000Y-78475001D01*
G75*
G02*
X131175001Y-78725000I-249999J0D01*
G01*
X130449999Y-78725000D01*
G75*
G02*
X130200000Y-78475001I0J249999D01*
G01*
X130200000Y-76324999D01*
G75*
G02*
X130449999Y-76075000I249999J0D01*
G01*
X131175001Y-76075000D01*
G75*
G02*
X131425000Y-76324999I0J-249999D01*
G01*
G37*
G04 #@! TD.AperFunction*
G04 #@! TO.P,R6,2*
G04 #@! TO.N,GLB*
G04 #@! TA.AperFunction,SMDPad,CuDef*
G36*
G01*
X126800000Y-76324999D02*
X126800000Y-78475001D01*
G75*
G02*
X126550001Y-78725000I-249999J0D01*
G01*
X125824999Y-78725000D01*
G75*
G02*
X125575000Y-78475001I0J249999D01*
G01*
X125575000Y-76324999D01*
G75*
G02*
X125824999Y-76075000I249999J0D01*
G01*
X126550001Y-76075000D01*
G75*
G02*
X126800000Y-76324999I0J-249999D01*
G01*
G37*
G04 #@! TD.AperFunction*
G04 #@! TD*
G04 #@! TO.P,J3,1*
G04 #@! TO.N,A_RESET*
G04 #@! TA.AperFunction,ComponentPad*
G36*
G01*
X109445001Y-93470000D02*
X107754999Y-93470000D01*
G75*
G02*
X107505000Y-93220001I0J249999D01*
G01*
X107505000Y-91979999D01*
G75*
G02*
X107754999Y-91730000I249999J0D01*
G01*
X109445001Y-91730000D01*
G75*
G02*
X109695000Y-91979999I0J-249999D01*
G01*
X109695000Y-93220001D01*
G75*
G02*
X109445001Y-93470000I-249999J0D01*
G01*
G37*
G04 #@! TD.AperFunction*
D14*
G04 #@! TO.P,J3,2*
G04 #@! TO.N,SCK_SCL*
X108600000Y-90060000D03*
G04 #@! TO.P,J3,3*
G04 #@! TO.N,MISO*
X108600000Y-87520000D03*
G04 #@! TO.P,J3,4*
G04 #@! TO.N,SDA_MOSI*
X108600000Y-84980000D03*
G04 #@! TO.P,J3,5*
G04 #@! TO.N,GNDD*
X108600000Y-82440000D03*
G04 #@! TD*
G04 #@! TO.P,C11,1*
G04 #@! TO.N,GNDD*
G04 #@! TA.AperFunction,SMDPad,CuDef*
G36*
G01*
X112375000Y-86850002D02*
X112375000Y-83949998D01*
G75*
G02*
X112624998Y-83700000I249998J0D01*
G01*
X113700002Y-83700000D01*
G75*
G02*
X113950000Y-83949998I0J-249998D01*
G01*
X113950000Y-86850002D01*
G75*
G02*
X113700002Y-87100000I-249998J0D01*
G01*
X112624998Y-87100000D01*
G75*
G02*
X112375000Y-86850002I0J249998D01*
G01*
G37*
G04 #@! TD.AperFunction*
G04 #@! TO.P,C11,2*
G04 #@! TO.N,+5V*
G04 #@! TA.AperFunction,SMDPad,CuDef*
G36*
G01*
X116650000Y-86850002D02*
X116650000Y-83949998D01*
G75*
G02*
X116899998Y-83700000I249998J0D01*
G01*
X117975002Y-83700000D01*
G75*
G02*
X118225000Y-83949998I0J-249998D01*
G01*
X118225000Y-86850002D01*
G75*
G02*
X117975002Y-87100000I-249998J0D01*
G01*
X116899998Y-87100000D01*
G75*
G02*
X116650000Y-86850002I0J249998D01*
G01*
G37*
G04 #@! TD.AperFunction*
G04 #@! TD*
D13*
G04 #@! TO.P,J1,1*
G04 #@! TO.N,+12V*
X100828000Y-56135000D03*
X100828000Y-47265000D03*
X91958000Y-47265000D03*
X91958000Y-56135000D03*
X91958000Y-51700000D03*
X96393000Y-47265000D03*
X100828000Y-51700000D03*
X96393000Y-56135000D03*
X96393000Y-51700000D03*
G04 #@! TD*
G04 #@! TO.P,J2,1*
G04 #@! TO.N,GND*
X96400000Y-94100000D03*
X96400000Y-98535000D03*
X100835000Y-94100000D03*
X96400000Y-89665000D03*
X91965000Y-94100000D03*
X91965000Y-98535000D03*
X91965000Y-89665000D03*
X100835000Y-89665000D03*
X100835000Y-98535000D03*
G04 #@! TD*
G04 #@! TO.P,J5,1*
G04 #@! TO.N,MOTOR-*
X170635000Y-92135000D03*
X170635000Y-83265000D03*
X161765000Y-83265000D03*
X161765000Y-92135000D03*
X161765000Y-87700000D03*
X166200000Y-83265000D03*
X170635000Y-87700000D03*
X166200000Y-92135000D03*
X166200000Y-87700000D03*
G04 #@! TD*
G04 #@! TO.P,JP2,2*
G04 #@! TO.N,GND*
G04 #@! TA.AperFunction,SMDPad,CuDef*
G36*
G01*
X152950000Y-89774999D02*
X152950000Y-92625001D01*
G75*
G02*
X152700001Y-92875000I-249999J0D01*
G01*
X151974999Y-92875000D01*
G75*
G02*
X151725000Y-92625001I0J249999D01*
G01*
X151725000Y-89774999D01*
G75*
G02*
X151974999Y-89525000I249999J0D01*
G01*
X152700001Y-89525000D01*
G75*
G02*
X152950000Y-89774999I0J-249999D01*
G01*
G37*
G04 #@! TD.AperFunction*
G04 #@! TO.P,JP2,1*
G04 #@! TO.N,MOTOR-*
G04 #@! TA.AperFunction,SMDPad,CuDef*
G36*
G01*
X158875000Y-89774999D02*
X158875000Y-92625001D01*
G75*
G02*
X158625001Y-92875000I-249999J0D01*
G01*
X157899999Y-92875000D01*
G75*
G02*
X157650000Y-92625001I0J249999D01*
G01*
X157650000Y-89774999D01*
G75*
G02*
X157899999Y-89525000I249999J0D01*
G01*
X158625001Y-89525000D01*
G75*
G02*
X158875000Y-89774999I0J-249999D01*
G01*
G37*
G04 #@! TD.AperFunction*
G04 #@! TD*
G04 #@! TO.P,R5,2*
G04 #@! TO.N,GHB*
G04 #@! TA.AperFunction,SMDPad,CuDef*
G36*
G01*
X126800000Y-69924999D02*
X126800000Y-72075001D01*
G75*
G02*
X126550001Y-72325000I-249999J0D01*
G01*
X125824999Y-72325000D01*
G75*
G02*
X125575000Y-72075001I0J249999D01*
G01*
X125575000Y-69924999D01*
G75*
G02*
X125824999Y-69675000I249999J0D01*
G01*
X126550001Y-69675000D01*
G75*
G02*
X126800000Y-69924999I0J-249999D01*
G01*
G37*
G04 #@! TD.AperFunction*
G04 #@! TO.P,R5,1*
G04 #@! TO.N,Net-(Q6-Pad1)*
G04 #@! TA.AperFunction,SMDPad,CuDef*
G36*
G01*
X131425000Y-69924999D02*
X131425000Y-72075001D01*
G75*
G02*
X131175001Y-72325000I-249999J0D01*
G01*
X130449999Y-72325000D01*
G75*
G02*
X130200000Y-72075001I0J249999D01*
G01*
X130200000Y-69924999D01*
G75*
G02*
X130449999Y-69675000I249999J0D01*
G01*
X131175001Y-69675000D01*
G75*
G02*
X131425000Y-69924999I0J-249999D01*
G01*
G37*
G04 #@! TD.AperFunction*
G04 #@! TD*
D15*
G04 #@! TO.P,U2,21*
G04 #@! TO.N,GNDD*
X121250000Y-80650000D03*
X119150000Y-80650000D03*
X121250000Y-78550000D03*
X119150000Y-78550000D03*
D16*
X120200000Y-79600000D03*
G04 #@! TD*
D15*
G04 #@! TO.P,U3,21*
G04 #@! TO.N,GNDD*
X117821000Y-89500000D03*
X116621000Y-89500000D03*
X117821000Y-88300000D03*
X116621000Y-88300000D03*
D17*
X117221000Y-88900000D03*
G04 #@! TD*
G04 #@! TO.P,C6,1*
G04 #@! TO.N,Net-(C6-Pad1)*
G04 #@! TA.AperFunction,SMDPad,CuDef*
G36*
G01*
X128999999Y-83650000D02*
X131200001Y-83650000D01*
G75*
G02*
X131450000Y-83899999I0J-249999D01*
G01*
X131450000Y-84550001D01*
G75*
G02*
X131200001Y-84800000I-249999J0D01*
G01*
X128999999Y-84800000D01*
G75*
G02*
X128750000Y-84550001I0J249999D01*
G01*
X128750000Y-83899999D01*
G75*
G02*
X128999999Y-83650000I249999J0D01*
G01*
G37*
G04 #@! TD.AperFunction*
G04 #@! TO.P,C6,2*
G04 #@! TO.N,GNDD*
G04 #@! TA.AperFunction,SMDPad,CuDef*
G36*
G01*
X128999999Y-86600000D02*
X131200001Y-86600000D01*
G75*
G02*
X131450000Y-86849999I0J-249999D01*
G01*
X131450000Y-87500001D01*
G75*
G02*
X131200001Y-87750000I-249999J0D01*
G01*
X128999999Y-87750000D01*
G75*
G02*
X128750000Y-87500001I0J249999D01*
G01*
X128750000Y-86849999D01*
G75*
G02*
X128999999Y-86600000I249999J0D01*
G01*
G37*
G04 #@! TD.AperFunction*
G04 #@! TD*
G04 #@! TO.P,R2,1*
G04 #@! TO.N,GNDD*
G04 #@! TA.AperFunction,SMDPad,CuDef*
G36*
G01*
X127975001Y-88700000D02*
X125824999Y-88700000D01*
G75*
G02*
X125575000Y-88450001I0J249999D01*
G01*
X125575000Y-87549999D01*
G75*
G02*
X125824999Y-87300000I249999J0D01*
G01*
X127975001Y-87300000D01*
G75*
G02*
X128225000Y-87549999I0J-249999D01*
G01*
X128225000Y-88450001D01*
G75*
G02*
X127975001Y-88700000I-249999J0D01*
G01*
G37*
G04 #@! TD.AperFunction*
G04 #@! TO.P,R2,2*
G04 #@! TO.N,Net-(C6-Pad1)*
G04 #@! TA.AperFunction,SMDPad,CuDef*
G36*
G01*
X127975001Y-83900000D02*
X125824999Y-83900000D01*
G75*
G02*
X125575000Y-83650001I0J249999D01*
G01*
X125575000Y-82749999D01*
G75*
G02*
X125824999Y-82500000I249999J0D01*
G01*
X127975001Y-82500000D01*
G75*
G02*
X128225000Y-82749999I0J-249999D01*
G01*
X128225000Y-83650001D01*
G75*
G02*
X127975001Y-83900000I-249999J0D01*
G01*
G37*
G04 #@! TD.AperFunction*
G04 #@! TD*
G04 #@! TO.P,C2,2*
G04 #@! TO.N,GND*
G04 #@! TA.AperFunction,SMDPad,CuDef*
G36*
G01*
X108700001Y-75300000D02*
X106499999Y-75300000D01*
G75*
G02*
X106250000Y-75050001I0J249999D01*
G01*
X106250000Y-74399999D01*
G75*
G02*
X106499999Y-74150000I249999J0D01*
G01*
X108700001Y-74150000D01*
G75*
G02*
X108950000Y-74399999I0J-249999D01*
G01*
X108950000Y-75050001D01*
G75*
G02*
X108700001Y-75300000I-249999J0D01*
G01*
G37*
G04 #@! TD.AperFunction*
G04 #@! TO.P,C2,1*
G04 #@! TO.N,+5V*
G04 #@! TA.AperFunction,SMDPad,CuDef*
G36*
G01*
X108700001Y-78250000D02*
X106499999Y-78250000D01*
G75*
G02*
X106250000Y-78000001I0J249999D01*
G01*
X106250000Y-77349999D01*
G75*
G02*
X106499999Y-77100000I249999J0D01*
G01*
X108700001Y-77100000D01*
G75*
G02*
X108950000Y-77349999I0J-249999D01*
G01*
X108950000Y-78000001D01*
G75*
G02*
X108700001Y-78250000I-249999J0D01*
G01*
G37*
G04 #@! TD.AperFunction*
G04 #@! TD*
D18*
G04 #@! TO.P,Q5,2*
G04 #@! TO.N,MOTOR-*
X151892000Y-74653000D03*
D19*
G04 #@! TO.P,Q5,3*
G04 #@! TO.N,GND*
X149352000Y-83803000D03*
G04 #@! TO.P,Q5,1*
G04 #@! TO.N,Net-(Q5-Pad1)*
X154432000Y-83803000D03*
G04 #@! TD*
D18*
G04 #@! TO.P,Q6,2*
G04 #@! TO.N,+12V*
X140208000Y-56226000D03*
D19*
G04 #@! TO.P,Q6,3*
G04 #@! TO.N,MOTOR-*
X137668000Y-65376000D03*
G04 #@! TO.P,Q6,1*
G04 #@! TO.N,Net-(Q6-Pad1)*
X142748000Y-65376000D03*
G04 #@! TD*
G04 #@! TO.P,Q7,1*
G04 #@! TO.N,Net-(Q6-Pad1)*
X154432000Y-65376000D03*
G04 #@! TO.P,Q7,3*
G04 #@! TO.N,MOTOR-*
X149352000Y-65376000D03*
D18*
G04 #@! TO.P,Q7,2*
G04 #@! TO.N,+12V*
X151892000Y-56226000D03*
G04 #@! TD*
D19*
G04 #@! TO.P,Q8,1*
G04 #@! TO.N,Net-(Q5-Pad1)*
X142875000Y-83791000D03*
G04 #@! TO.P,Q8,3*
G04 #@! TO.N,GND*
X137795000Y-83791000D03*
D18*
G04 #@! TO.P,Q8,2*
G04 #@! TO.N,MOTOR-*
X140335000Y-74641000D03*
G04 #@! TD*
D20*
G04 #@! TO.P,C10,1*
G04 #@! TO.N,MOTOR-*
X169800000Y-77800000D03*
G04 #@! TO.P,C10,2*
G04 #@! TO.N,MOTOR+*
X169800000Y-75300000D03*
G04 #@! TD*
D21*
G04 #@! TO.P,NT1,1*
G04 #@! TO.N,GND*
X120600000Y-91900000D03*
G04 #@! TO.P,NT1,2*
G04 #@! TO.N,GNDD*
X120600000Y-87900000D03*
G04 #@! TD*
D12*
G04 #@! TO.P,TP6,1*
G04 #@! TO.N,Net-(C3-Pad1)*
X111300000Y-76000000D03*
G04 #@! TD*
D22*
G04 #@! TO.N,GNDD*
X128900000Y-81100000D03*
G04 #@! TO.N,GND*
X109900000Y-77500000D03*
X91059000Y-76170000D03*
X92329000Y-76170000D03*
X93599000Y-76170000D03*
X94869000Y-76170000D03*
X96139000Y-76170000D03*
X97409000Y-76170000D03*
X98679000Y-76170000D03*
X99949000Y-76170000D03*
X91059000Y-77440000D03*
X92329000Y-77440000D03*
X93599000Y-77440000D03*
X94869000Y-77440000D03*
X96139000Y-77440000D03*
X97409000Y-77440000D03*
X98679000Y-77440000D03*
X99949000Y-77440000D03*
X91059000Y-78710000D03*
X92329000Y-78710000D03*
X93599000Y-78710000D03*
X94869000Y-78710000D03*
X96139000Y-78710000D03*
X97409000Y-78710000D03*
X98679000Y-78710000D03*
X99949000Y-78710000D03*
X91059000Y-79980000D03*
X92329000Y-79980000D03*
X93599000Y-79980000D03*
X94869000Y-79980000D03*
X96139000Y-79980000D03*
X97409000Y-79980000D03*
X98679000Y-79980000D03*
X99949000Y-79980000D03*
X91059000Y-81250000D03*
X92329000Y-81250000D03*
X93599000Y-81250000D03*
X94869000Y-81250000D03*
X96139000Y-81250000D03*
X97409000Y-81250000D03*
X98679000Y-81250000D03*
X99949000Y-81250000D03*
X91059000Y-82520000D03*
X92329000Y-82520000D03*
X93599000Y-82520000D03*
X94869000Y-82520000D03*
X96139000Y-82520000D03*
X97409000Y-82520000D03*
X98679000Y-82520000D03*
X91059000Y-83790000D03*
X92329000Y-83790000D03*
X93599000Y-83790000D03*
X94869000Y-83790000D03*
X96139000Y-83790000D03*
X97409000Y-83790000D03*
X98679000Y-83790000D03*
X91059000Y-85060000D03*
G04 #@! TO.N,GNDD*
X114400000Y-80100000D03*
G04 #@! TO.N,GND*
X92309000Y-85060000D03*
X93559000Y-85060000D03*
X94809000Y-85060000D03*
X96059000Y-85060000D03*
X97309000Y-85060000D03*
X98559000Y-85060000D03*
X91059000Y-86310000D03*
X92309000Y-86310000D03*
X93559000Y-86310000D03*
X94809000Y-86310000D03*
X96059000Y-86310000D03*
X97309000Y-86310000D03*
X98559000Y-86310000D03*
X101199000Y-81250000D03*
X102449000Y-81250000D03*
X103699000Y-81250000D03*
X99949000Y-82500000D03*
X101199000Y-82500000D03*
X102449000Y-82500000D03*
X103699000Y-82500000D03*
X99949000Y-83750000D03*
X101199000Y-83750000D03*
X102449000Y-83750000D03*
X103699000Y-83750000D03*
X99949000Y-85000000D03*
X101199000Y-85000000D03*
X102449000Y-85000000D03*
X103699000Y-85000000D03*
X99949000Y-86250000D03*
X101199000Y-86250000D03*
X102449000Y-86250000D03*
X103699000Y-86250000D03*
X135700000Y-101251000D03*
X135700000Y-100001000D03*
X135700000Y-98751000D03*
X135700000Y-97501000D03*
X135700000Y-96251000D03*
X135700000Y-95001000D03*
X135700000Y-93751000D03*
X136950000Y-101251000D03*
X136950000Y-100001000D03*
X136950000Y-98751000D03*
X136950000Y-97501000D03*
X136950000Y-96251000D03*
X136950000Y-95001000D03*
X136950000Y-93751000D03*
X138200000Y-101251000D03*
X138200000Y-100001000D03*
X138200000Y-98751000D03*
X138200000Y-97501000D03*
X138200000Y-96251000D03*
X138200000Y-95001000D03*
X138200000Y-93751000D03*
X139450000Y-101251000D03*
X139450000Y-100001000D03*
X139450000Y-98751000D03*
X139450000Y-97501000D03*
X139450000Y-96251000D03*
X139450000Y-95001000D03*
X139450000Y-93751000D03*
X140700000Y-101251000D03*
X140700000Y-100001000D03*
X140700000Y-98751000D03*
X140700000Y-97501000D03*
X140700000Y-96251000D03*
X140700000Y-95001000D03*
X140700000Y-93751000D03*
X141950000Y-93751000D03*
X143200000Y-93751000D03*
X144450000Y-93751000D03*
X145700000Y-93751000D03*
X146950000Y-93751000D03*
X141950000Y-95001000D03*
X143200000Y-95001000D03*
X144450000Y-95001000D03*
X145700000Y-95001000D03*
X146950000Y-95001000D03*
X141950000Y-96251000D03*
X143200000Y-96251000D03*
X144450000Y-96251000D03*
X145700000Y-96251000D03*
X146950000Y-96251000D03*
X141950000Y-97501000D03*
X143200000Y-97501000D03*
X144450000Y-97501000D03*
X145700000Y-97501000D03*
X146950000Y-97501000D03*
X141950000Y-98751000D03*
X143200000Y-98751000D03*
X144450000Y-98751000D03*
X145700000Y-98751000D03*
X146950000Y-98751000D03*
X141950000Y-100001000D03*
X143200000Y-100001000D03*
X144450000Y-100001000D03*
X145700000Y-100001000D03*
X146950000Y-100001000D03*
X141950000Y-101251000D03*
X143200000Y-101251000D03*
X144450000Y-101251000D03*
X145700000Y-101251000D03*
X146950000Y-101251000D03*
G04 #@! TO.N,+12V*
X124500000Y-44800000D03*
X125750000Y-44800000D03*
X127000000Y-44800000D03*
X128250000Y-44800000D03*
X129500000Y-44800000D03*
X130750000Y-44800000D03*
X132000000Y-44800000D03*
X133250000Y-44800000D03*
X134500000Y-44800000D03*
X124500000Y-46050000D03*
X125750000Y-46050000D03*
X127000000Y-46050000D03*
X128250000Y-46050000D03*
X129500000Y-46050000D03*
X130750000Y-46050000D03*
X132000000Y-46050000D03*
X133250000Y-46050000D03*
X124500000Y-47300000D03*
X125750000Y-47300000D03*
X127000000Y-47300000D03*
X128250000Y-47300000D03*
X129500000Y-47300000D03*
X130750000Y-47300000D03*
X132000000Y-47300000D03*
X133250000Y-47300000D03*
X124500000Y-48550000D03*
X125750000Y-48550000D03*
X127000000Y-48550000D03*
X128250000Y-48550000D03*
X129500000Y-48550000D03*
X130750000Y-48550000D03*
X132000000Y-48550000D03*
X133250000Y-48550000D03*
X124500000Y-49800000D03*
X125750000Y-49800000D03*
X127000000Y-49800000D03*
X128250000Y-49800000D03*
X129500000Y-49800000D03*
X130750000Y-49800000D03*
X132000000Y-49800000D03*
X133250000Y-49800000D03*
X124500000Y-51050000D03*
X125750000Y-51050000D03*
X127000000Y-51050000D03*
X128250000Y-51050000D03*
X129500000Y-51050000D03*
X130750000Y-51050000D03*
X132000000Y-51050000D03*
X133250000Y-51050000D03*
X124500000Y-52300000D03*
X125750000Y-52300000D03*
X127000000Y-52300000D03*
X128250000Y-52300000D03*
X129500000Y-52300000D03*
X130750000Y-52300000D03*
X132000000Y-52300000D03*
X133250000Y-52300000D03*
X124500000Y-53550000D03*
X125750000Y-53550000D03*
X127000000Y-53550000D03*
X128250000Y-53550000D03*
X129500000Y-53550000D03*
X130750000Y-53550000D03*
X132000000Y-53550000D03*
X133250000Y-53550000D03*
X124500000Y-54800000D03*
X125750000Y-54800000D03*
X127000000Y-54800000D03*
X128250000Y-54800000D03*
X129500000Y-54800000D03*
X130750000Y-54800000D03*
X132000000Y-54800000D03*
X133250000Y-54800000D03*
X124500000Y-56050000D03*
X125750000Y-56050000D03*
X127000000Y-56050000D03*
X128250000Y-56050000D03*
X129500000Y-56050000D03*
X130750000Y-56050000D03*
X132000000Y-56050000D03*
X133250000Y-56050000D03*
X124500000Y-57300000D03*
X125750000Y-57300000D03*
X127000000Y-57300000D03*
X128250000Y-57300000D03*
X129500000Y-57300000D03*
X130750000Y-57300000D03*
X132000000Y-57300000D03*
X133250000Y-57300000D03*
X124500000Y-58550000D03*
X125750000Y-58550000D03*
X127000000Y-58550000D03*
X128250000Y-58550000D03*
X129500000Y-58550000D03*
X130750000Y-58550000D03*
X132000000Y-58550000D03*
X133250000Y-58550000D03*
X124500000Y-59800000D03*
X125750000Y-59800000D03*
X127000000Y-59800000D03*
X128250000Y-59800000D03*
X129500000Y-59800000D03*
X130750000Y-59800000D03*
X132000000Y-59800000D03*
X133250000Y-59800000D03*
X124500000Y-61050000D03*
X125750000Y-61050000D03*
X127000000Y-61050000D03*
X128250000Y-61050000D03*
X129500000Y-61050000D03*
X130750000Y-61050000D03*
X132000000Y-61050000D03*
X133250000Y-61050000D03*
X135750000Y-44800000D03*
X137000000Y-44800000D03*
X138250000Y-44800000D03*
X139500000Y-44800000D03*
X140750000Y-44800000D03*
X142000000Y-44800000D03*
X143250000Y-44800000D03*
X144500000Y-44800000D03*
X145750000Y-44800000D03*
X147000000Y-44800000D03*
X148250000Y-44800000D03*
X149500000Y-44800000D03*
X150750000Y-44800000D03*
X152000000Y-44800000D03*
X134500000Y-46050000D03*
X135750000Y-46050000D03*
X137000000Y-46050000D03*
X138250000Y-46050000D03*
X139500000Y-46050000D03*
X140750000Y-46050000D03*
X142000000Y-46050000D03*
X143250000Y-46050000D03*
X144500000Y-46050000D03*
X145750000Y-46050000D03*
X147000000Y-46050000D03*
X148250000Y-46050000D03*
X149500000Y-46050000D03*
X150750000Y-46050000D03*
X134500000Y-47300000D03*
X135750000Y-47300000D03*
X137000000Y-47300000D03*
X138250000Y-47300000D03*
X139500000Y-47300000D03*
X140750000Y-47300000D03*
X142000000Y-47300000D03*
X143250000Y-47300000D03*
X144500000Y-47300000D03*
X145750000Y-47300000D03*
X147000000Y-47300000D03*
X148250000Y-47300000D03*
X149500000Y-47300000D03*
X150750000Y-47300000D03*
X134500000Y-48550000D03*
X135750000Y-48550000D03*
X137000000Y-48550000D03*
X138250000Y-48550000D03*
X139500000Y-48550000D03*
X140750000Y-48550000D03*
X142000000Y-48550000D03*
X143250000Y-48550000D03*
X144500000Y-48550000D03*
X145750000Y-48550000D03*
X147000000Y-48550000D03*
X148250000Y-48550000D03*
X149500000Y-48550000D03*
X150750000Y-48550000D03*
X134500000Y-49800000D03*
X135750000Y-49800000D03*
X137000000Y-49800000D03*
X138250000Y-49800000D03*
X139500000Y-49800000D03*
X140750000Y-49800000D03*
X142000000Y-49800000D03*
X143250000Y-49800000D03*
X144500000Y-49800000D03*
X145750000Y-49800000D03*
X147000000Y-49800000D03*
X148250000Y-49800000D03*
X149500000Y-49800000D03*
X150750000Y-49800000D03*
X153250000Y-44800000D03*
X154500000Y-44800000D03*
X155750000Y-44800000D03*
X157000000Y-44800000D03*
X152000000Y-46050000D03*
X153250000Y-46050000D03*
X154500000Y-46050000D03*
X155750000Y-46050000D03*
X157000000Y-46050000D03*
X152000000Y-47300000D03*
X153250000Y-47300000D03*
X154500000Y-47300000D03*
X155750000Y-47300000D03*
X157000000Y-47300000D03*
X152000000Y-48550000D03*
X153250000Y-48550000D03*
X154500000Y-48550000D03*
X155750000Y-48550000D03*
X157000000Y-48550000D03*
X152000000Y-49800000D03*
X153250000Y-49800000D03*
X154500000Y-49800000D03*
X155750000Y-49800000D03*
X157000000Y-49800000D03*
G04 #@! TO.N,+5V*
X116100000Y-92100000D03*
X109600000Y-79100000D03*
X117400000Y-83000000D03*
G04 #@! TO.N,MOTOR+*
X133400000Y-75000000D03*
X119700000Y-75000000D03*
G04 #@! TO.N,MOTOR-*
X122900000Y-74000000D03*
G04 #@! TO.N,GHB*
X124700000Y-72500000D03*
G04 #@! TO.N,GLB*
X124500000Y-79000000D03*
G04 #@! TO.N,Net-(C3-Pad1)*
X114500000Y-77700000D03*
G04 #@! TO.N,Net-(C3-Pad2)*
X116900000Y-77600000D03*
G04 #@! TO.N,Fault*
X119100000Y-85600000D03*
X117400000Y-81900000D03*
G04 #@! TO.N,Mode*
X123700000Y-82500000D03*
X122500000Y-84500000D03*
G04 #@! TO.N,Net-(C6-Pad1)*
X123900000Y-84200000D03*
G04 #@! TD*
D23*
G04 #@! TO.N,GND*
X122451000Y-93751000D02*
X120600000Y-91900000D01*
X135700000Y-93751000D02*
X122451000Y-93751000D01*
D24*
G04 #@! TO.N,+12V*
X140208000Y-56226000D02*
X151892000Y-56226000D01*
D25*
G04 #@! TO.N,+5V*
X119000000Y-86962500D02*
X119000000Y-87600000D01*
X117437500Y-85400000D02*
X119000000Y-86962500D01*
X119000000Y-87600000D02*
X119000000Y-87400000D01*
D24*
X117437500Y-83037500D02*
X117400000Y-83000000D01*
X117437500Y-85400000D02*
X117437500Y-83037500D01*
D23*
X109025000Y-79100000D02*
X107600000Y-77675000D01*
X109600000Y-79100000D02*
X109025000Y-79100000D01*
D25*
X117700000Y-92100000D02*
X116100000Y-92100000D01*
X119000000Y-90800000D02*
X117700000Y-92100000D01*
X119000000Y-87600000D02*
X119000000Y-90800000D01*
D26*
G04 #@! TO.N,MOTOR+*
X129200000Y-75000000D02*
X129100000Y-75000000D01*
X133400000Y-75000000D02*
X129200000Y-75000000D01*
X129200000Y-75000000D02*
X126600000Y-75000000D01*
D24*
X126600000Y-75000000D02*
X133400000Y-75000000D01*
X121100000Y-75000000D02*
X119700000Y-75000000D01*
X126600000Y-75000000D02*
X121100000Y-75000000D01*
D26*
G04 #@! TO.N,MOTOR-*
X138476000Y-76500000D02*
X140335000Y-74641000D01*
D24*
X139294000Y-73600000D02*
X140335000Y-74641000D01*
X151880000Y-74641000D02*
X151892000Y-74653000D01*
X140335000Y-74641000D02*
X151880000Y-74641000D01*
X123300000Y-73600000D02*
X126400000Y-73600000D01*
X126400000Y-73600000D02*
X139294000Y-73600000D01*
X126300000Y-73600000D02*
X126400000Y-73600000D01*
X123300000Y-73600000D02*
X122900000Y-74000000D01*
D23*
G04 #@! TO.N,GHB*
X124700000Y-72500000D02*
X124700000Y-71500000D01*
X125200000Y-71000000D02*
X126187500Y-71000000D01*
X124700000Y-71500000D02*
X125200000Y-71000000D01*
D24*
G04 #@! TO.N,GLB*
X124587500Y-79000000D02*
X126187500Y-77400000D01*
X124500000Y-79000000D02*
X124587500Y-79000000D01*
D26*
G04 #@! TO.N,Net-(Q5-Pad1)*
X154559000Y-83930000D02*
X154432000Y-83803000D01*
D24*
X142850000Y-83766000D02*
X142875000Y-83791000D01*
X134800000Y-80600000D02*
X142100000Y-80600000D01*
D23*
X130812500Y-77400000D02*
X132800000Y-77400000D01*
X134000000Y-78600000D02*
X132800000Y-77400000D01*
X134000000Y-79800000D02*
X134800000Y-80600000D01*
X134000000Y-78600000D02*
X134000000Y-79800000D01*
X134800000Y-80600000D02*
X142300000Y-80600000D01*
D24*
X142100000Y-80600000D02*
X142300000Y-80600000D01*
D23*
X142875000Y-81375000D02*
X142100000Y-80600000D01*
X142875000Y-83791000D02*
X142875000Y-81375000D01*
X154000000Y-80600000D02*
X154432000Y-81032000D01*
X142100000Y-80600000D02*
X154000000Y-80600000D01*
X154432000Y-83803000D02*
X154432000Y-81032000D01*
G04 #@! TO.N,Net-(Q6-Pad1)*
X142748000Y-62748000D02*
X142748000Y-65376000D01*
X142400000Y-62400000D02*
X142748000Y-62748000D01*
X134900000Y-62400000D02*
X142400000Y-62400000D01*
X134200000Y-63100000D02*
X134900000Y-62400000D01*
X134200000Y-68900000D02*
X134200000Y-63100000D01*
X132100000Y-71000000D02*
X134200000Y-68900000D01*
X130812500Y-71000000D02*
X132100000Y-71000000D01*
X142400000Y-62400000D02*
X154100000Y-62400000D01*
X154432000Y-62732000D02*
X154432000Y-65376000D01*
X154100000Y-62400000D02*
X154432000Y-62732000D01*
D26*
G04 #@! TO.N,Net-(C3-Pad1)*
X114500000Y-75737500D02*
X113562500Y-74800000D01*
X114500000Y-77700000D02*
X114500000Y-75737500D01*
X112362500Y-76000000D02*
X113562500Y-74800000D01*
X111300000Y-76000000D02*
X112362500Y-76000000D01*
G04 #@! TO.N,Net-(C3-Pad2)*
X116900000Y-75037500D02*
X117737500Y-74200000D01*
X116900000Y-77600000D02*
X116900000Y-75037500D01*
X117837500Y-74800000D02*
X118400000Y-74800000D01*
X120500000Y-73700000D02*
X120500000Y-73100000D01*
X120300000Y-73900000D02*
X120500000Y-73700000D01*
X118737500Y-73900000D02*
X120300000Y-73900000D01*
X117837500Y-74800000D02*
X118737500Y-73900000D01*
G04 #@! TO.N,Fault*
X119100000Y-84800000D02*
X119100000Y-85600000D01*
X119100000Y-82700000D02*
X119100000Y-84800000D01*
X118300000Y-81900000D02*
X119100000Y-82700000D01*
X117400000Y-81900000D02*
X118300000Y-81900000D01*
D25*
G04 #@! TO.N,Mode*
X123700000Y-83200000D02*
X123700000Y-82500000D01*
X123700000Y-83300000D02*
X123700000Y-83200000D01*
X122500000Y-84500000D02*
X123700000Y-83300000D01*
D26*
G04 #@! TO.N,Net-(C6-Pad1)*
X129500000Y-84225000D02*
X128575000Y-83300000D01*
X126200000Y-83300000D02*
X126100000Y-83200000D01*
X128575000Y-83300000D02*
X126200000Y-83300000D01*
X125100000Y-84200000D02*
X126100000Y-83200000D01*
X123900000Y-84200000D02*
X125100000Y-84200000D01*
G04 #@! TO.N,GNDD*
X126800000Y-87900000D02*
X126900000Y-88000000D01*
X120600000Y-87900000D02*
X120600000Y-86900000D01*
X120600000Y-86900000D02*
X121100000Y-86400000D01*
X125300000Y-86400000D02*
X126900000Y-88000000D01*
X121100000Y-86400000D02*
X125300000Y-86400000D01*
G04 #@! TD*
M02*
