M48
METRIC,TZ
T1C0.300
T2C0.400
T3C0.800
T4C1.000
T5C1.190
T6C1.850
%
G90
G05
T1
X116621Y-86900
X116621Y-88100
X117821Y-86900
X117821Y-88100
X119150Y-78550
X119150Y-80650
X121250Y-78550
X121250Y-80650
T2
X91059Y-76170
X91059Y-77440
X91059Y-78710
X91059Y-79980
X91059Y-81250
X91059Y-82520
X91059Y-83790
X91059Y-85060
X91059Y-86310
X92309Y-85060
X92309Y-86310
X92329Y-76170
X92329Y-77440
X92329Y-78710
X92329Y-79980
X92329Y-81250
X92329Y-82520
X92329Y-83790
X93559Y-85060
X93559Y-86310
X93599Y-76170
X93599Y-77440
X93599Y-78710
X93599Y-79980
X93599Y-81250
X93599Y-82520
X93599Y-83790
X94809Y-85060
X94809Y-86310
X94869Y-76170
X94869Y-77440
X94869Y-78710
X94869Y-79980
X94869Y-81250
X94869Y-82520
X94869Y-83790
X96059Y-85060
X96059Y-86310
X96139Y-76170
X96139Y-77440
X96139Y-78710
X96139Y-79980
X96139Y-81250
X96139Y-82520
X96139Y-83790
X97309Y-85060
X97309Y-86310
X97409Y-76170
X97409Y-77440
X97409Y-78710
X97409Y-79980
X97409Y-81250
X97409Y-82520
X97409Y-83790
X98559Y-85060
X98559Y-86310
X98679Y-76170
X98679Y-77440
X98679Y-78710
X98679Y-79980
X98679Y-81250
X98679Y-82520
X98679Y-83790
X99949Y-76170
X99949Y-77440
X99949Y-78710
X99949Y-79980
X99949Y-81250
X99949Y-82500
X99949Y-83750
X99949Y-85000
X99949Y-86250
X101199Y-81250
X101199Y-82500
X101199Y-83750
X101199Y-85000
X101199Y-86250
X101800Y-62450
X101800Y-63700
X101800Y-64950
X102449Y-81250
X102449Y-82500
X102449Y-83750
X102449Y-85000
X102449Y-86250
X103050Y-62450
X103050Y-63700
X103050Y-64950
X103699Y-81250
X103699Y-82500
X103699Y-83750
X103699Y-85000
X103699Y-86250
X104300Y-62450
X104300Y-63700
X104300Y-64950
X104300Y-66200
X104300Y-67450
X105550Y-62450
X105550Y-63700
X105550Y-64950
X105550Y-66200
X105550Y-67450
X106800Y-63700
X106800Y-64950
X106800Y-66200
X106800Y-67450
X108050Y-64950
X108050Y-66200
X108050Y-67450
X109300Y-66200
X109300Y-67450
X109600Y-79100
X109900Y-77500
X110550Y-66200
X110550Y-67450
X111500Y-84600
X111800Y-66200
X111800Y-67450
X113050Y-66200
X113050Y-67450
X114300Y-66200
X114300Y-67450
X114500Y-76400
X115550Y-66200
X115550Y-67450
X116800Y-66200
X116800Y-67450
X116900Y-76400
X116900Y-90400
X117900Y-82200
X118050Y-66200
X118050Y-67450
X118100Y-84600
X119300Y-64950
X119300Y-66200
X119300Y-67450
X119700Y-75000
X120550Y-63700
X120550Y-64950
X120550Y-66200
X120550Y-67450
X121800Y-62450
X121800Y-63700
X121800Y-64950
X121800Y-66200
X121800Y-67450
X122700Y-83500
X122900Y-72400
X122900Y-74000
X123050Y-62450
X123050Y-63700
X123050Y-64950
X123050Y-66200
X123050Y-67450
X123100Y-81300
X124100Y-83100
X124300Y-62450
X124300Y-63700
X124300Y-64950
X124300Y-66200
X124300Y-67450
X124500Y-76200
X124500Y-79000
X124700Y-72500
X134600Y-44300
X134600Y-45550
X134600Y-46800
X134800Y-78500
X134800Y-79750
X134800Y-81000
X134800Y-82250
X134800Y-83500
X134800Y-84750
X135000Y-65900
X135000Y-67150
X135000Y-68400
X135000Y-69650
X135000Y-70900
X135850Y-44300
X135850Y-45550
X135850Y-46800
X136050Y-78500
X136050Y-79750
X136050Y-81000
X136050Y-82250
X136050Y-83500
X136050Y-84750
X136250Y-65900
X136250Y-67150
X136250Y-68400
X136250Y-69650
X136250Y-70900
X137100Y-44300
X137100Y-45550
X137100Y-46800
X137300Y-78500
X137300Y-79750
X137300Y-81000
X137300Y-82250
X137300Y-83500
X137300Y-84750
X137500Y-65900
X137500Y-67150
X137500Y-68400
X137500Y-69650
X137500Y-70900
X138350Y-44300
X138350Y-45550
X138350Y-46800
X138350Y-48050
X138550Y-78500
X138550Y-79750
X138550Y-81000
X138550Y-82250
X138550Y-83500
X138550Y-84750
X138750Y-65900
X138750Y-67150
X138750Y-68400
X138750Y-69650
X138750Y-70900
X139600Y-44300
X139600Y-45550
X139600Y-46800
X139600Y-48050
X139600Y-49300
X139800Y-78500
X139800Y-79750
X139800Y-81000
X139800Y-82250
X139800Y-83500
X139800Y-84750
X140000Y-65900
X140000Y-67150
X140000Y-68400
X140000Y-69650
X140850Y-44300
X140850Y-45550
X140850Y-46800
X140850Y-48050
X140850Y-49300
X140850Y-50550
X141050Y-78500
X141050Y-79750
X141050Y-81000
X141050Y-82250
X141050Y-83500
X141050Y-84750
X141250Y-65900
X141250Y-67150
X141250Y-68400
X141250Y-69650
X142100Y-44300
X142100Y-45550
X142100Y-46800
X142100Y-48050
X142100Y-49300
X142100Y-50550
X142300Y-78500
X142300Y-79750
X142300Y-81000
X142300Y-82250
X142300Y-83500
X142300Y-84750
X142500Y-65900
X142500Y-67150
X142500Y-68400
X142500Y-69650
X142700Y-74600
X143350Y-44300
X143350Y-45550
X143350Y-46800
X143350Y-48050
X143350Y-49300
X143350Y-50550
X143550Y-78500
X143550Y-79750
X143550Y-81000
X143550Y-82250
X143550Y-83500
X143550Y-84750
X143750Y-65900
X143750Y-67150
X143750Y-68400
X143750Y-69650
X144500Y-73700
X144600Y-44300
X144600Y-45550
X144600Y-46800
X144600Y-48050
X144600Y-49300
X144600Y-50550
X144700Y-62500
X144800Y-78500
X144800Y-79750
X144800Y-81000
X144800Y-82250
X144800Y-83500
X144800Y-84750
X145850Y-44300
X145850Y-45550
X145850Y-46800
X145850Y-48050
X145850Y-49300
X145850Y-50550
X147100Y-44300
X147100Y-45550
X147100Y-46800
X147100Y-48050
X147100Y-49300
X147100Y-50550
X148350Y-44300
X148350Y-45550
X148350Y-46800
X148350Y-48050
X148350Y-49300
X148350Y-50550
X149600Y-44300
X149600Y-45550
X149600Y-46800
X149600Y-48050
X149600Y-49300
X149600Y-50550
X150850Y-44300
X150850Y-45550
X150850Y-46800
X150850Y-48050
X150850Y-49300
X150850Y-50550
X152100Y-44300
X152100Y-45550
X152100Y-46800
X152100Y-48050
X152100Y-49300
X152100Y-50550
X153350Y-44300
X153350Y-45550
X153350Y-46800
X153350Y-48050
X153350Y-49300
X153350Y-50550
X154600Y-44300
X154600Y-45550
X154600Y-46800
X154600Y-48050
X154600Y-49300
X154600Y-50550
X155850Y-44300
X155850Y-45550
X155850Y-46800
X155850Y-48050
X155850Y-49300
X155850Y-50550
T3
X164700Y-73600
X167200Y-73600
T4
X113600Y-52600
X113600Y-60100
X132400Y-52700
X132400Y-60200
T5
X108600Y-82440
X108600Y-84980
X108600Y-87520
X108600Y-90060
X108600Y-92600
T6
X92465Y-90265
X92465Y-94700
X92465Y-99135
X92565Y-46665
X92565Y-51100
X92565Y-55535
X96900Y-90265
X96900Y-94700
X96900Y-99135
X97000Y-46665
X97000Y-51100
X97000Y-55535
X101335Y-90265
X101335Y-94700
X101335Y-99135
X101435Y-46665
X101435Y-51100
X101435Y-55535
X161665Y-77765
X161665Y-82200
X161665Y-86635
X161765Y-60565
X161765Y-65000
X161765Y-69435
X166100Y-77765
X166100Y-82200
X166100Y-86635
X166200Y-60565
X166200Y-65000
X166200Y-69435
X170535Y-77765
X170535Y-82200
X170535Y-86635
X170635Y-60565
X170635Y-65000
X170635Y-69435
T0
M30
