G04 #@! TF.GenerationSoftware,KiCad,Pcbnew,(5.1.9)-1*
G04 #@! TF.CreationDate,2021-07-01T13:21:08-04:00*
G04 #@! TF.ProjectId,Motor Controller 2020,4d6f746f-7220-4436-9f6e-74726f6c6c65,rev?*
G04 #@! TF.SameCoordinates,Original*
G04 #@! TF.FileFunction,Legend,Bot*
G04 #@! TF.FilePolarity,Positive*
%FSLAX46Y46*%
G04 Gerber Fmt 4.6, Leading zero omitted, Abs format (unit mm)*
G04 Created by KiCad (PCBNEW (5.1.9)-1) date 2021-07-01 13:21:08*
%MOMM*%
%LPD*%
G01*
G04 APERTURE LIST*
G04 #@! TA.AperFunction,Profile*
%ADD10C,0.050000*%
G04 #@! TD*
%ADD11C,0.120000*%
%ADD12C,0.150000*%
G04 APERTURE END LIST*
D10*
X174700000Y-102900000D02*
X174700000Y-42900000D01*
X88700000Y-42900000D02*
X174700000Y-42900000D01*
X88700000Y-102900000D02*
X88700000Y-42900000D01*
X88700000Y-102900000D02*
X174700000Y-102900000D01*
D11*
G04 #@! TO.C,C3*
X113638748Y-75910000D02*
X115961252Y-75910000D01*
X113638748Y-72490000D02*
X115961252Y-72490000D01*
G04 #@! TO.C,R6*
X130827064Y-80560000D02*
X127772936Y-80560000D01*
X130827064Y-77840000D02*
X127772936Y-77840000D01*
G04 #@! TO.C,C11*
X112390000Y-83038748D02*
X112390000Y-85361252D01*
X115810000Y-83038748D02*
X115810000Y-85361252D01*
G04 #@! TO.C,JP2*
X157477064Y-89490000D02*
X153122936Y-89490000D01*
X157477064Y-92910000D02*
X153122936Y-92910000D01*
G04 #@! TO.C,R5*
X131327064Y-63940000D02*
X128272936Y-63940000D01*
X131327064Y-66660000D02*
X128272936Y-66660000D01*
G04 #@! TO.C,C6*
X126288748Y-89260000D02*
X127711252Y-89260000D01*
X126288748Y-86540000D02*
X127711252Y-86540000D01*
G04 #@! TO.C,R2*
X129502065Y-83245001D02*
X126447937Y-83245001D01*
X129502065Y-85965001D02*
X126447937Y-85965001D01*
G04 #@! TO.C,C2*
X108160000Y-78011252D02*
X108160000Y-76588748D01*
X105440000Y-78011252D02*
X105440000Y-76588748D01*
G04 #@! TO.C,Q5*
X148502000Y-80978000D02*
X148502000Y-82078000D01*
X146692000Y-80978000D02*
X148502000Y-80978000D01*
X146692000Y-79478000D02*
X146692000Y-80978000D01*
X155282000Y-80978000D02*
X155282000Y-86103000D01*
X157092000Y-80978000D02*
X155282000Y-80978000D01*
X157092000Y-79478000D02*
X157092000Y-80978000D01*
G04 #@! TO.C,Q6*
X136818000Y-62551000D02*
X136818000Y-63651000D01*
X135008000Y-62551000D02*
X136818000Y-62551000D01*
X135008000Y-61051000D02*
X135008000Y-62551000D01*
X143598000Y-62551000D02*
X143598000Y-67676000D01*
X145408000Y-62551000D02*
X143598000Y-62551000D01*
X145408000Y-61051000D02*
X145408000Y-62551000D01*
G04 #@! TO.C,Q7*
X157092000Y-61051000D02*
X157092000Y-62551000D01*
X157092000Y-62551000D02*
X155282000Y-62551000D01*
X155282000Y-62551000D02*
X155282000Y-67676000D01*
X146692000Y-61051000D02*
X146692000Y-62551000D01*
X146692000Y-62551000D02*
X148502000Y-62551000D01*
X148502000Y-62551000D02*
X148502000Y-63651000D01*
G04 #@! TO.C,Q8*
X145535000Y-79466000D02*
X145535000Y-80966000D01*
X145535000Y-80966000D02*
X143725000Y-80966000D01*
X143725000Y-80966000D02*
X143725000Y-86091000D01*
X135135000Y-79466000D02*
X135135000Y-80966000D01*
X135135000Y-80966000D02*
X136945000Y-80966000D01*
X136945000Y-80966000D02*
X136945000Y-82066000D01*
G04 #@! TD*
G04 #@! TO.C,C3*
D12*
X114966666Y-77207142D02*
X115014285Y-77254761D01*
X115157142Y-77302380D01*
X115252380Y-77302380D01*
X115395238Y-77254761D01*
X115490476Y-77159523D01*
X115538095Y-77064285D01*
X115585714Y-76873809D01*
X115585714Y-76730952D01*
X115538095Y-76540476D01*
X115490476Y-76445238D01*
X115395238Y-76350000D01*
X115252380Y-76302380D01*
X115157142Y-76302380D01*
X115014285Y-76350000D01*
X114966666Y-76397619D01*
X114633333Y-76302380D02*
X114014285Y-76302380D01*
X114347619Y-76683333D01*
X114204761Y-76683333D01*
X114109523Y-76730952D01*
X114061904Y-76778571D01*
X114014285Y-76873809D01*
X114014285Y-77111904D01*
X114061904Y-77207142D01*
X114109523Y-77254761D01*
X114204761Y-77302380D01*
X114490476Y-77302380D01*
X114585714Y-77254761D01*
X114633333Y-77207142D01*
G04 #@! TO.C,R6*
X129466666Y-77372380D02*
X129800000Y-76896190D01*
X130038095Y-77372380D02*
X130038095Y-76372380D01*
X129657142Y-76372380D01*
X129561904Y-76420000D01*
X129514285Y-76467619D01*
X129466666Y-76562857D01*
X129466666Y-76705714D01*
X129514285Y-76800952D01*
X129561904Y-76848571D01*
X129657142Y-76896190D01*
X130038095Y-76896190D01*
X128609523Y-76372380D02*
X128800000Y-76372380D01*
X128895238Y-76420000D01*
X128942857Y-76467619D01*
X129038095Y-76610476D01*
X129085714Y-76800952D01*
X129085714Y-77181904D01*
X129038095Y-77277142D01*
X128990476Y-77324761D01*
X128895238Y-77372380D01*
X128704761Y-77372380D01*
X128609523Y-77324761D01*
X128561904Y-77277142D01*
X128514285Y-77181904D01*
X128514285Y-76943809D01*
X128561904Y-76848571D01*
X128609523Y-76800952D01*
X128704761Y-76753333D01*
X128895238Y-76753333D01*
X128990476Y-76800952D01*
X129038095Y-76848571D01*
X129085714Y-76943809D01*
G04 #@! TO.C,C11*
X114642857Y-80757142D02*
X114690476Y-80804761D01*
X114833333Y-80852380D01*
X114928571Y-80852380D01*
X115071428Y-80804761D01*
X115166666Y-80709523D01*
X115214285Y-80614285D01*
X115261904Y-80423809D01*
X115261904Y-80280952D01*
X115214285Y-80090476D01*
X115166666Y-79995238D01*
X115071428Y-79900000D01*
X114928571Y-79852380D01*
X114833333Y-79852380D01*
X114690476Y-79900000D01*
X114642857Y-79947619D01*
X113690476Y-80852380D02*
X114261904Y-80852380D01*
X113976190Y-80852380D02*
X113976190Y-79852380D01*
X114071428Y-79995238D01*
X114166666Y-80090476D01*
X114261904Y-80138095D01*
X112738095Y-80852380D02*
X113309523Y-80852380D01*
X113023809Y-80852380D02*
X113023809Y-79852380D01*
X113119047Y-79995238D01*
X113214285Y-80090476D01*
X113309523Y-80138095D01*
G04 #@! TO.C,JP2*
X156133333Y-88032380D02*
X156133333Y-88746666D01*
X156180952Y-88889523D01*
X156276190Y-88984761D01*
X156419047Y-89032380D01*
X156514285Y-89032380D01*
X155657142Y-89032380D02*
X155657142Y-88032380D01*
X155276190Y-88032380D01*
X155180952Y-88080000D01*
X155133333Y-88127619D01*
X155085714Y-88222857D01*
X155085714Y-88365714D01*
X155133333Y-88460952D01*
X155180952Y-88508571D01*
X155276190Y-88556190D01*
X155657142Y-88556190D01*
X154704761Y-88127619D02*
X154657142Y-88080000D01*
X154561904Y-88032380D01*
X154323809Y-88032380D01*
X154228571Y-88080000D01*
X154180952Y-88127619D01*
X154133333Y-88222857D01*
X154133333Y-88318095D01*
X154180952Y-88460952D01*
X154752380Y-89032380D01*
X154133333Y-89032380D01*
G04 #@! TO.C,R5*
X129966666Y-63472380D02*
X130300000Y-62996190D01*
X130538095Y-63472380D02*
X130538095Y-62472380D01*
X130157142Y-62472380D01*
X130061904Y-62520000D01*
X130014285Y-62567619D01*
X129966666Y-62662857D01*
X129966666Y-62805714D01*
X130014285Y-62900952D01*
X130061904Y-62948571D01*
X130157142Y-62996190D01*
X130538095Y-62996190D01*
X129061904Y-62472380D02*
X129538095Y-62472380D01*
X129585714Y-62948571D01*
X129538095Y-62900952D01*
X129442857Y-62853333D01*
X129204761Y-62853333D01*
X129109523Y-62900952D01*
X129061904Y-62948571D01*
X129014285Y-63043809D01*
X129014285Y-63281904D01*
X129061904Y-63377142D01*
X129109523Y-63424761D01*
X129204761Y-63472380D01*
X129442857Y-63472380D01*
X129538095Y-63424761D01*
X129585714Y-63377142D01*
G04 #@! TO.C,C6*
X127166666Y-90557142D02*
X127214285Y-90604761D01*
X127357142Y-90652380D01*
X127452380Y-90652380D01*
X127595238Y-90604761D01*
X127690476Y-90509523D01*
X127738095Y-90414285D01*
X127785714Y-90223809D01*
X127785714Y-90080952D01*
X127738095Y-89890476D01*
X127690476Y-89795238D01*
X127595238Y-89700000D01*
X127452380Y-89652380D01*
X127357142Y-89652380D01*
X127214285Y-89700000D01*
X127166666Y-89747619D01*
X126309523Y-89652380D02*
X126500000Y-89652380D01*
X126595238Y-89700000D01*
X126642857Y-89747619D01*
X126738095Y-89890476D01*
X126785714Y-90080952D01*
X126785714Y-90461904D01*
X126738095Y-90557142D01*
X126690476Y-90604761D01*
X126595238Y-90652380D01*
X126404761Y-90652380D01*
X126309523Y-90604761D01*
X126261904Y-90557142D01*
X126214285Y-90461904D01*
X126214285Y-90223809D01*
X126261904Y-90128571D01*
X126309523Y-90080952D01*
X126404761Y-90033333D01*
X126595238Y-90033333D01*
X126690476Y-90080952D01*
X126738095Y-90128571D01*
X126785714Y-90223809D01*
G04 #@! TO.C,R2*
X128141667Y-82777381D02*
X128475001Y-82301191D01*
X128713096Y-82777381D02*
X128713096Y-81777381D01*
X128332143Y-81777381D01*
X128236905Y-81825001D01*
X128189286Y-81872620D01*
X128141667Y-81967858D01*
X128141667Y-82110715D01*
X128189286Y-82205953D01*
X128236905Y-82253572D01*
X128332143Y-82301191D01*
X128713096Y-82301191D01*
X127760715Y-81872620D02*
X127713096Y-81825001D01*
X127617858Y-81777381D01*
X127379762Y-81777381D01*
X127284524Y-81825001D01*
X127236905Y-81872620D01*
X127189286Y-81967858D01*
X127189286Y-82063096D01*
X127236905Y-82205953D01*
X127808334Y-82777381D01*
X127189286Y-82777381D01*
G04 #@! TO.C,C2*
X107266666Y-80657142D02*
X107314285Y-80704761D01*
X107457142Y-80752380D01*
X107552380Y-80752380D01*
X107695238Y-80704761D01*
X107790476Y-80609523D01*
X107838095Y-80514285D01*
X107885714Y-80323809D01*
X107885714Y-80180952D01*
X107838095Y-79990476D01*
X107790476Y-79895238D01*
X107695238Y-79800000D01*
X107552380Y-79752380D01*
X107457142Y-79752380D01*
X107314285Y-79800000D01*
X107266666Y-79847619D01*
X106885714Y-79847619D02*
X106838095Y-79800000D01*
X106742857Y-79752380D01*
X106504761Y-79752380D01*
X106409523Y-79800000D01*
X106361904Y-79847619D01*
X106314285Y-79942857D01*
X106314285Y-80038095D01*
X106361904Y-80180952D01*
X106933333Y-80752380D01*
X106314285Y-80752380D01*
G04 #@! TO.C,Q5*
X159089619Y-77932761D02*
X159042000Y-77837523D01*
X158946761Y-77742285D01*
X158803904Y-77599428D01*
X158756285Y-77504190D01*
X158756285Y-77408952D01*
X158994380Y-77456571D02*
X158946761Y-77361333D01*
X158851523Y-77266095D01*
X158661047Y-77218476D01*
X158327714Y-77218476D01*
X158137238Y-77266095D01*
X158042000Y-77361333D01*
X157994380Y-77456571D01*
X157994380Y-77647047D01*
X158042000Y-77742285D01*
X158137238Y-77837523D01*
X158327714Y-77885142D01*
X158661047Y-77885142D01*
X158851523Y-77837523D01*
X158946761Y-77742285D01*
X158994380Y-77647047D01*
X158994380Y-77456571D01*
X157994380Y-78789904D02*
X157994380Y-78313714D01*
X158470571Y-78266095D01*
X158422952Y-78313714D01*
X158375333Y-78408952D01*
X158375333Y-78647047D01*
X158422952Y-78742285D01*
X158470571Y-78789904D01*
X158565809Y-78837523D01*
X158803904Y-78837523D01*
X158899142Y-78789904D01*
X158946761Y-78742285D01*
X158994380Y-78647047D01*
X158994380Y-78408952D01*
X158946761Y-78313714D01*
X158899142Y-78266095D01*
G04 #@! TO.C,Q6*
X147405619Y-59505761D02*
X147358000Y-59410523D01*
X147262761Y-59315285D01*
X147119904Y-59172428D01*
X147072285Y-59077190D01*
X147072285Y-58981952D01*
X147310380Y-59029571D02*
X147262761Y-58934333D01*
X147167523Y-58839095D01*
X146977047Y-58791476D01*
X146643714Y-58791476D01*
X146453238Y-58839095D01*
X146358000Y-58934333D01*
X146310380Y-59029571D01*
X146310380Y-59220047D01*
X146358000Y-59315285D01*
X146453238Y-59410523D01*
X146643714Y-59458142D01*
X146977047Y-59458142D01*
X147167523Y-59410523D01*
X147262761Y-59315285D01*
X147310380Y-59220047D01*
X147310380Y-59029571D01*
X146310380Y-60315285D02*
X146310380Y-60124809D01*
X146358000Y-60029571D01*
X146405619Y-59981952D01*
X146548476Y-59886714D01*
X146738952Y-59839095D01*
X147119904Y-59839095D01*
X147215142Y-59886714D01*
X147262761Y-59934333D01*
X147310380Y-60029571D01*
X147310380Y-60220047D01*
X147262761Y-60315285D01*
X147215142Y-60362904D01*
X147119904Y-60410523D01*
X146881809Y-60410523D01*
X146786571Y-60362904D01*
X146738952Y-60315285D01*
X146691333Y-60220047D01*
X146691333Y-60029571D01*
X146738952Y-59934333D01*
X146786571Y-59886714D01*
X146881809Y-59839095D01*
G04 #@! TO.C,Q7*
X159089619Y-59505761D02*
X159042000Y-59410523D01*
X158946761Y-59315285D01*
X158803904Y-59172428D01*
X158756285Y-59077190D01*
X158756285Y-58981952D01*
X158994380Y-59029571D02*
X158946761Y-58934333D01*
X158851523Y-58839095D01*
X158661047Y-58791476D01*
X158327714Y-58791476D01*
X158137238Y-58839095D01*
X158042000Y-58934333D01*
X157994380Y-59029571D01*
X157994380Y-59220047D01*
X158042000Y-59315285D01*
X158137238Y-59410523D01*
X158327714Y-59458142D01*
X158661047Y-59458142D01*
X158851523Y-59410523D01*
X158946761Y-59315285D01*
X158994380Y-59220047D01*
X158994380Y-59029571D01*
X157994380Y-59791476D02*
X157994380Y-60458142D01*
X158994380Y-60029571D01*
G04 #@! TO.C,Q8*
X147532619Y-77920761D02*
X147485000Y-77825523D01*
X147389761Y-77730285D01*
X147246904Y-77587428D01*
X147199285Y-77492190D01*
X147199285Y-77396952D01*
X147437380Y-77444571D02*
X147389761Y-77349333D01*
X147294523Y-77254095D01*
X147104047Y-77206476D01*
X146770714Y-77206476D01*
X146580238Y-77254095D01*
X146485000Y-77349333D01*
X146437380Y-77444571D01*
X146437380Y-77635047D01*
X146485000Y-77730285D01*
X146580238Y-77825523D01*
X146770714Y-77873142D01*
X147104047Y-77873142D01*
X147294523Y-77825523D01*
X147389761Y-77730285D01*
X147437380Y-77635047D01*
X147437380Y-77444571D01*
X146865952Y-78444571D02*
X146818333Y-78349333D01*
X146770714Y-78301714D01*
X146675476Y-78254095D01*
X146627857Y-78254095D01*
X146532619Y-78301714D01*
X146485000Y-78349333D01*
X146437380Y-78444571D01*
X146437380Y-78635047D01*
X146485000Y-78730285D01*
X146532619Y-78777904D01*
X146627857Y-78825523D01*
X146675476Y-78825523D01*
X146770714Y-78777904D01*
X146818333Y-78730285D01*
X146865952Y-78635047D01*
X146865952Y-78444571D01*
X146913571Y-78349333D01*
X146961190Y-78301714D01*
X147056428Y-78254095D01*
X147246904Y-78254095D01*
X147342142Y-78301714D01*
X147389761Y-78349333D01*
X147437380Y-78444571D01*
X147437380Y-78635047D01*
X147389761Y-78730285D01*
X147342142Y-78777904D01*
X147246904Y-78825523D01*
X147056428Y-78825523D01*
X146961190Y-78777904D01*
X146913571Y-78730285D01*
X146865952Y-78635047D01*
G04 #@! TD*
M02*
