G04 #@! TF.GenerationSoftware,KiCad,Pcbnew,(5.1.9)-1*
G04 #@! TF.CreationDate,2021-07-07T11:22:23-04:00*
G04 #@! TF.ProjectId,Motor Controller 2020,4d6f746f-7220-4436-9f6e-74726f6c6c65,rev?*
G04 #@! TF.SameCoordinates,Original*
G04 #@! TF.FileFunction,Legend,Bot*
G04 #@! TF.FilePolarity,Positive*
%FSLAX46Y46*%
G04 Gerber Fmt 4.6, Leading zero omitted, Abs format (unit mm)*
G04 Created by KiCad (PCBNEW (5.1.9)-1) date 2021-07-07 11:22:23*
%MOMM*%
%LPD*%
G01*
G04 APERTURE LIST*
G04 #@! TA.AperFunction,Profile*
%ADD10C,0.050000*%
G04 #@! TD*
%ADD11C,0.120000*%
%ADD12C,0.150000*%
G04 APERTURE END LIST*
D10*
X174700000Y-102900000D02*
X174700000Y-42900000D01*
X88700000Y-42900000D02*
X174700000Y-42900000D01*
X88700000Y-102900000D02*
X88700000Y-42900000D01*
X88700000Y-102900000D02*
X174700000Y-102900000D01*
D11*
G04 #@! TO.C,TP5*
X121200000Y-73100000D02*
G75*
G03*
X121200000Y-73100000I-700000J0D01*
G01*
G04 #@! TO.C,C10*
X114538748Y-72190000D02*
X116861252Y-72190000D01*
X114538748Y-75610000D02*
X116861252Y-75610000D01*
G04 #@! TO.C,R6*
X130027064Y-78340000D02*
X126972936Y-78340000D01*
X130027064Y-81060000D02*
X126972936Y-81060000D01*
G04 #@! TO.C,C7*
X112090000Y-88761252D02*
X112090000Y-86438748D01*
X115510000Y-88761252D02*
X115510000Y-86438748D01*
G04 #@! TO.C,JP2*
X167810000Y-90522936D02*
X167810000Y-94877064D01*
X164390000Y-90522936D02*
X164390000Y-94877064D01*
G04 #@! TO.C,R1*
X126972936Y-68460000D02*
X130027064Y-68460000D01*
X126972936Y-65740000D02*
X130027064Y-65740000D01*
G04 #@! TO.C,R2*
X126872936Y-74940000D02*
X129927064Y-74940000D01*
X126872936Y-77660000D02*
X129927064Y-77660000D01*
G04 #@! TO.C,R5*
X130027064Y-72360000D02*
X126972936Y-72360000D01*
X130027064Y-69640000D02*
X126972936Y-69640000D01*
G04 #@! TO.C,C9*
X131460000Y-86188748D02*
X131460000Y-87611252D01*
X128740000Y-86188748D02*
X128740000Y-87611252D01*
G04 #@! TO.C,R3*
X125540000Y-87427064D02*
X125540000Y-84372936D01*
X128260000Y-87427064D02*
X128260000Y-84372936D01*
G04 #@! TO.C,C6*
X106240000Y-76911252D02*
X106240000Y-75488748D01*
X108960000Y-76911252D02*
X108960000Y-75488748D01*
G04 #@! TO.C,Q4*
X157092000Y-79478000D02*
X157092000Y-80978000D01*
X157092000Y-80978000D02*
X155282000Y-80978000D01*
X155282000Y-80978000D02*
X155282000Y-86103000D01*
X146692000Y-79478000D02*
X146692000Y-80978000D01*
X146692000Y-80978000D02*
X148502000Y-80978000D01*
X148502000Y-80978000D02*
X148502000Y-82078000D01*
G04 #@! TO.C,Q3*
X148502000Y-62551000D02*
X148502000Y-63651000D01*
X146692000Y-62551000D02*
X148502000Y-62551000D01*
X146692000Y-61051000D02*
X146692000Y-62551000D01*
X155282000Y-62551000D02*
X155282000Y-67676000D01*
X157092000Y-62551000D02*
X155282000Y-62551000D01*
X157092000Y-61051000D02*
X157092000Y-62551000D01*
G04 #@! TO.C,TP6*
X112000000Y-76000000D02*
G75*
G03*
X112000000Y-76000000I-700000J0D01*
G01*
G04 #@! TD*
G04 #@! TO.C,TP5*
D12*
X121661904Y-71152380D02*
X121090476Y-71152380D01*
X121376190Y-72152380D02*
X121376190Y-71152380D01*
X120757142Y-72152380D02*
X120757142Y-71152380D01*
X120376190Y-71152380D01*
X120280952Y-71200000D01*
X120233333Y-71247619D01*
X120185714Y-71342857D01*
X120185714Y-71485714D01*
X120233333Y-71580952D01*
X120280952Y-71628571D01*
X120376190Y-71676190D01*
X120757142Y-71676190D01*
X119280952Y-71152380D02*
X119757142Y-71152380D01*
X119804761Y-71628571D01*
X119757142Y-71580952D01*
X119661904Y-71533333D01*
X119423809Y-71533333D01*
X119328571Y-71580952D01*
X119280952Y-71628571D01*
X119233333Y-71723809D01*
X119233333Y-71961904D01*
X119280952Y-72057142D01*
X119328571Y-72104761D01*
X119423809Y-72152380D01*
X119661904Y-72152380D01*
X119757142Y-72104761D01*
X119804761Y-72057142D01*
G04 #@! TO.C,C10*
X116342857Y-76907142D02*
X116390476Y-76954761D01*
X116533333Y-77002380D01*
X116628571Y-77002380D01*
X116771428Y-76954761D01*
X116866666Y-76859523D01*
X116914285Y-76764285D01*
X116961904Y-76573809D01*
X116961904Y-76430952D01*
X116914285Y-76240476D01*
X116866666Y-76145238D01*
X116771428Y-76050000D01*
X116628571Y-76002380D01*
X116533333Y-76002380D01*
X116390476Y-76050000D01*
X116342857Y-76097619D01*
X115390476Y-77002380D02*
X115961904Y-77002380D01*
X115676190Y-77002380D02*
X115676190Y-76002380D01*
X115771428Y-76145238D01*
X115866666Y-76240476D01*
X115961904Y-76288095D01*
X114771428Y-76002380D02*
X114676190Y-76002380D01*
X114580952Y-76050000D01*
X114533333Y-76097619D01*
X114485714Y-76192857D01*
X114438095Y-76383333D01*
X114438095Y-76621428D01*
X114485714Y-76811904D01*
X114533333Y-76907142D01*
X114580952Y-76954761D01*
X114676190Y-77002380D01*
X114771428Y-77002380D01*
X114866666Y-76954761D01*
X114914285Y-76907142D01*
X114961904Y-76811904D01*
X115009523Y-76621428D01*
X115009523Y-76383333D01*
X114961904Y-76192857D01*
X114914285Y-76097619D01*
X114866666Y-76050000D01*
X114771428Y-76002380D01*
G04 #@! TO.C,R6*
X132566666Y-80152380D02*
X132900000Y-79676190D01*
X133138095Y-80152380D02*
X133138095Y-79152380D01*
X132757142Y-79152380D01*
X132661904Y-79200000D01*
X132614285Y-79247619D01*
X132566666Y-79342857D01*
X132566666Y-79485714D01*
X132614285Y-79580952D01*
X132661904Y-79628571D01*
X132757142Y-79676190D01*
X133138095Y-79676190D01*
X131709523Y-79152380D02*
X131900000Y-79152380D01*
X131995238Y-79200000D01*
X132042857Y-79247619D01*
X132138095Y-79390476D01*
X132185714Y-79580952D01*
X132185714Y-79961904D01*
X132138095Y-80057142D01*
X132090476Y-80104761D01*
X131995238Y-80152380D01*
X131804761Y-80152380D01*
X131709523Y-80104761D01*
X131661904Y-80057142D01*
X131614285Y-79961904D01*
X131614285Y-79723809D01*
X131661904Y-79628571D01*
X131709523Y-79580952D01*
X131804761Y-79533333D01*
X131995238Y-79533333D01*
X132090476Y-79580952D01*
X132138095Y-79628571D01*
X132185714Y-79723809D01*
G04 #@! TO.C,C7*
X111757142Y-87433333D02*
X111804761Y-87385714D01*
X111852380Y-87242857D01*
X111852380Y-87147619D01*
X111804761Y-87004761D01*
X111709523Y-86909523D01*
X111614285Y-86861904D01*
X111423809Y-86814285D01*
X111280952Y-86814285D01*
X111090476Y-86861904D01*
X110995238Y-86909523D01*
X110900000Y-87004761D01*
X110852380Y-87147619D01*
X110852380Y-87242857D01*
X110900000Y-87385714D01*
X110947619Y-87433333D01*
X110852380Y-87766666D02*
X110852380Y-88433333D01*
X111852380Y-88004761D01*
G04 #@! TO.C,JP2*
X162932380Y-91866666D02*
X163646666Y-91866666D01*
X163789523Y-91819047D01*
X163884761Y-91723809D01*
X163932380Y-91580952D01*
X163932380Y-91485714D01*
X163932380Y-92342857D02*
X162932380Y-92342857D01*
X162932380Y-92723809D01*
X162980000Y-92819047D01*
X163027619Y-92866666D01*
X163122857Y-92914285D01*
X163265714Y-92914285D01*
X163360952Y-92866666D01*
X163408571Y-92819047D01*
X163456190Y-92723809D01*
X163456190Y-92342857D01*
X163027619Y-93295238D02*
X162980000Y-93342857D01*
X162932380Y-93438095D01*
X162932380Y-93676190D01*
X162980000Y-93771428D01*
X163027619Y-93819047D01*
X163122857Y-93866666D01*
X163218095Y-93866666D01*
X163360952Y-93819047D01*
X163932380Y-93247619D01*
X163932380Y-93866666D01*
G04 #@! TO.C,R1*
X128866666Y-65552380D02*
X129200000Y-65076190D01*
X129438095Y-65552380D02*
X129438095Y-64552380D01*
X129057142Y-64552380D01*
X128961904Y-64600000D01*
X128914285Y-64647619D01*
X128866666Y-64742857D01*
X128866666Y-64885714D01*
X128914285Y-64980952D01*
X128961904Y-65028571D01*
X129057142Y-65076190D01*
X129438095Y-65076190D01*
X127914285Y-65552380D02*
X128485714Y-65552380D01*
X128200000Y-65552380D02*
X128200000Y-64552380D01*
X128295238Y-64695238D01*
X128390476Y-64790476D01*
X128485714Y-64838095D01*
G04 #@! TO.C,R2*
X128566666Y-74752380D02*
X128900000Y-74276190D01*
X129138095Y-74752380D02*
X129138095Y-73752380D01*
X128757142Y-73752380D01*
X128661904Y-73800000D01*
X128614285Y-73847619D01*
X128566666Y-73942857D01*
X128566666Y-74085714D01*
X128614285Y-74180952D01*
X128661904Y-74228571D01*
X128757142Y-74276190D01*
X129138095Y-74276190D01*
X128185714Y-73847619D02*
X128138095Y-73800000D01*
X128042857Y-73752380D01*
X127804761Y-73752380D01*
X127709523Y-73800000D01*
X127661904Y-73847619D01*
X127614285Y-73942857D01*
X127614285Y-74038095D01*
X127661904Y-74180952D01*
X128233333Y-74752380D01*
X127614285Y-74752380D01*
G04 #@! TO.C,R5*
X124366666Y-71452380D02*
X124700000Y-70976190D01*
X124938095Y-71452380D02*
X124938095Y-70452380D01*
X124557142Y-70452380D01*
X124461904Y-70500000D01*
X124414285Y-70547619D01*
X124366666Y-70642857D01*
X124366666Y-70785714D01*
X124414285Y-70880952D01*
X124461904Y-70928571D01*
X124557142Y-70976190D01*
X124938095Y-70976190D01*
X123461904Y-70452380D02*
X123938095Y-70452380D01*
X123985714Y-70928571D01*
X123938095Y-70880952D01*
X123842857Y-70833333D01*
X123604761Y-70833333D01*
X123509523Y-70880952D01*
X123461904Y-70928571D01*
X123414285Y-71023809D01*
X123414285Y-71261904D01*
X123461904Y-71357142D01*
X123509523Y-71404761D01*
X123604761Y-71452380D01*
X123842857Y-71452380D01*
X123938095Y-71404761D01*
X123985714Y-71357142D01*
G04 #@! TO.C,C9*
X132657142Y-86733333D02*
X132704761Y-86685714D01*
X132752380Y-86542857D01*
X132752380Y-86447619D01*
X132704761Y-86304761D01*
X132609523Y-86209523D01*
X132514285Y-86161904D01*
X132323809Y-86114285D01*
X132180952Y-86114285D01*
X131990476Y-86161904D01*
X131895238Y-86209523D01*
X131800000Y-86304761D01*
X131752380Y-86447619D01*
X131752380Y-86542857D01*
X131800000Y-86685714D01*
X131847619Y-86733333D01*
X132752380Y-87209523D02*
X132752380Y-87400000D01*
X132704761Y-87495238D01*
X132657142Y-87542857D01*
X132514285Y-87638095D01*
X132323809Y-87685714D01*
X131942857Y-87685714D01*
X131847619Y-87638095D01*
X131800000Y-87590476D01*
X131752380Y-87495238D01*
X131752380Y-87304761D01*
X131800000Y-87209523D01*
X131847619Y-87161904D01*
X131942857Y-87114285D01*
X132180952Y-87114285D01*
X132276190Y-87161904D01*
X132323809Y-87209523D01*
X132371428Y-87304761D01*
X132371428Y-87495238D01*
X132323809Y-87590476D01*
X132276190Y-87638095D01*
X132180952Y-87685714D01*
G04 #@! TO.C,R3*
X125152380Y-86033333D02*
X124676190Y-85700000D01*
X125152380Y-85461904D02*
X124152380Y-85461904D01*
X124152380Y-85842857D01*
X124200000Y-85938095D01*
X124247619Y-85985714D01*
X124342857Y-86033333D01*
X124485714Y-86033333D01*
X124580952Y-85985714D01*
X124628571Y-85938095D01*
X124676190Y-85842857D01*
X124676190Y-85461904D01*
X124152380Y-86366666D02*
X124152380Y-86985714D01*
X124533333Y-86652380D01*
X124533333Y-86795238D01*
X124580952Y-86890476D01*
X124628571Y-86938095D01*
X124723809Y-86985714D01*
X124961904Y-86985714D01*
X125057142Y-86938095D01*
X125104761Y-86890476D01*
X125152380Y-86795238D01*
X125152380Y-86509523D01*
X125104761Y-86414285D01*
X125057142Y-86366666D01*
G04 #@! TO.C,C6*
X108066666Y-79557142D02*
X108114285Y-79604761D01*
X108257142Y-79652380D01*
X108352380Y-79652380D01*
X108495238Y-79604761D01*
X108590476Y-79509523D01*
X108638095Y-79414285D01*
X108685714Y-79223809D01*
X108685714Y-79080952D01*
X108638095Y-78890476D01*
X108590476Y-78795238D01*
X108495238Y-78700000D01*
X108352380Y-78652380D01*
X108257142Y-78652380D01*
X108114285Y-78700000D01*
X108066666Y-78747619D01*
X107209523Y-78652380D02*
X107400000Y-78652380D01*
X107495238Y-78700000D01*
X107542857Y-78747619D01*
X107638095Y-78890476D01*
X107685714Y-79080952D01*
X107685714Y-79461904D01*
X107638095Y-79557142D01*
X107590476Y-79604761D01*
X107495238Y-79652380D01*
X107304761Y-79652380D01*
X107209523Y-79604761D01*
X107161904Y-79557142D01*
X107114285Y-79461904D01*
X107114285Y-79223809D01*
X107161904Y-79128571D01*
X107209523Y-79080952D01*
X107304761Y-79033333D01*
X107495238Y-79033333D01*
X107590476Y-79080952D01*
X107638095Y-79128571D01*
X107685714Y-79223809D01*
G04 #@! TO.C,Q4*
X156647619Y-82004761D02*
X156600000Y-81909523D01*
X156504761Y-81814285D01*
X156361904Y-81671428D01*
X156314285Y-81576190D01*
X156314285Y-81480952D01*
X156552380Y-81528571D02*
X156504761Y-81433333D01*
X156409523Y-81338095D01*
X156219047Y-81290476D01*
X155885714Y-81290476D01*
X155695238Y-81338095D01*
X155600000Y-81433333D01*
X155552380Y-81528571D01*
X155552380Y-81719047D01*
X155600000Y-81814285D01*
X155695238Y-81909523D01*
X155885714Y-81957142D01*
X156219047Y-81957142D01*
X156409523Y-81909523D01*
X156504761Y-81814285D01*
X156552380Y-81719047D01*
X156552380Y-81528571D01*
X155885714Y-82814285D02*
X156552380Y-82814285D01*
X155504761Y-82576190D02*
X156219047Y-82338095D01*
X156219047Y-82957142D01*
G04 #@! TO.C,Q3*
X156747619Y-63604761D02*
X156700000Y-63509523D01*
X156604761Y-63414285D01*
X156461904Y-63271428D01*
X156414285Y-63176190D01*
X156414285Y-63080952D01*
X156652380Y-63128571D02*
X156604761Y-63033333D01*
X156509523Y-62938095D01*
X156319047Y-62890476D01*
X155985714Y-62890476D01*
X155795238Y-62938095D01*
X155700000Y-63033333D01*
X155652380Y-63128571D01*
X155652380Y-63319047D01*
X155700000Y-63414285D01*
X155795238Y-63509523D01*
X155985714Y-63557142D01*
X156319047Y-63557142D01*
X156509523Y-63509523D01*
X156604761Y-63414285D01*
X156652380Y-63319047D01*
X156652380Y-63128571D01*
X155652380Y-63890476D02*
X155652380Y-64509523D01*
X156033333Y-64176190D01*
X156033333Y-64319047D01*
X156080952Y-64414285D01*
X156128571Y-64461904D01*
X156223809Y-64509523D01*
X156461904Y-64509523D01*
X156557142Y-64461904D01*
X156604761Y-64414285D01*
X156652380Y-64319047D01*
X156652380Y-64033333D01*
X156604761Y-63938095D01*
X156557142Y-63890476D01*
G04 #@! TO.C,TP6*
X112161904Y-73952380D02*
X111590476Y-73952380D01*
X111876190Y-74952380D02*
X111876190Y-73952380D01*
X111257142Y-74952380D02*
X111257142Y-73952380D01*
X110876190Y-73952380D01*
X110780952Y-74000000D01*
X110733333Y-74047619D01*
X110685714Y-74142857D01*
X110685714Y-74285714D01*
X110733333Y-74380952D01*
X110780952Y-74428571D01*
X110876190Y-74476190D01*
X111257142Y-74476190D01*
X109828571Y-73952380D02*
X110019047Y-73952380D01*
X110114285Y-74000000D01*
X110161904Y-74047619D01*
X110257142Y-74190476D01*
X110304761Y-74380952D01*
X110304761Y-74761904D01*
X110257142Y-74857142D01*
X110209523Y-74904761D01*
X110114285Y-74952380D01*
X109923809Y-74952380D01*
X109828571Y-74904761D01*
X109780952Y-74857142D01*
X109733333Y-74761904D01*
X109733333Y-74523809D01*
X109780952Y-74428571D01*
X109828571Y-74380952D01*
X109923809Y-74333333D01*
X110114285Y-74333333D01*
X110209523Y-74380952D01*
X110257142Y-74428571D01*
X110304761Y-74523809D01*
G04 #@! TO.C,NT1*
X122952380Y-89557142D02*
X121952380Y-89557142D01*
X122952380Y-90128571D01*
X121952380Y-90128571D01*
X121952380Y-90461904D02*
X121952380Y-91033333D01*
X122952380Y-90747619D02*
X121952380Y-90747619D01*
X122952380Y-91890476D02*
X122952380Y-91319047D01*
X122952380Y-91604761D02*
X121952380Y-91604761D01*
X122095238Y-91509523D01*
X122190476Y-91414285D01*
X122238095Y-91319047D01*
G04 #@! TD*
M02*
