G04 #@! TF.GenerationSoftware,KiCad,Pcbnew,(5.1.9)-1*
G04 #@! TF.CreationDate,2021-07-02T16:45:13-04:00*
G04 #@! TF.ProjectId,Motor Controller 2020,4d6f746f-7220-4436-9f6e-74726f6c6c65,rev?*
G04 #@! TF.SameCoordinates,Original*
G04 #@! TF.FileFunction,Copper,L2,Bot*
G04 #@! TF.FilePolarity,Positive*
%FSLAX46Y46*%
G04 Gerber Fmt 4.6, Leading zero omitted, Abs format (unit mm)*
G04 Created by KiCad (PCBNEW (5.1.9)-1) date 2021-07-02 16:45:13*
%MOMM*%
%LPD*%
G01*
G04 APERTURE LIST*
G04 #@! TA.AperFunction,Profile*
%ADD10C,0.050000*%
G04 #@! TD*
G04 #@! TA.AperFunction,EtchedComponent*
%ADD11C,0.150000*%
G04 #@! TD*
G04 #@! TA.AperFunction,SMDPad,CuDef*
%ADD12C,1.000000*%
G04 #@! TD*
G04 #@! TA.AperFunction,ComponentPad*
%ADD13C,3.200000*%
G04 #@! TD*
G04 #@! TA.AperFunction,ComponentPad*
%ADD14O,2.190000X1.740000*%
G04 #@! TD*
G04 #@! TA.AperFunction,ComponentPad*
%ADD15C,0.500000*%
G04 #@! TD*
G04 #@! TA.AperFunction,SMDPad,CuDef*
%ADD16R,2.600000X2.600000*%
G04 #@! TD*
G04 #@! TA.AperFunction,SMDPad,CuDef*
%ADD17R,1.700000X1.700000*%
G04 #@! TD*
G04 #@! TA.AperFunction,SMDPad,CuDef*
%ADD18R,10.800000X9.400000*%
G04 #@! TD*
G04 #@! TA.AperFunction,SMDPad,CuDef*
%ADD19R,1.100000X4.600000*%
G04 #@! TD*
G04 #@! TA.AperFunction,ComponentPad*
%ADD20C,1.600000*%
G04 #@! TD*
G04 #@! TA.AperFunction,SMDPad,CuDef*
%ADD21C,2.000000*%
G04 #@! TD*
G04 #@! TA.AperFunction,ViaPad*
%ADD22C,0.800000*%
G04 #@! TD*
G04 #@! TA.AperFunction,Conductor*
%ADD23C,0.300000*%
G04 #@! TD*
G04 #@! TA.AperFunction,Conductor*
%ADD24C,0.350000*%
G04 #@! TD*
G04 #@! TA.AperFunction,Conductor*
%ADD25C,0.250000*%
G04 #@! TD*
G04 #@! TA.AperFunction,Conductor*
%ADD26C,0.200000*%
G04 #@! TD*
G04 #@! TA.AperFunction,Conductor*
%ADD27C,0.254000*%
G04 #@! TD*
G04 #@! TA.AperFunction,Conductor*
%ADD28C,0.150000*%
G04 #@! TD*
G04 APERTURE END LIST*
D10*
X174700000Y-102900000D02*
X174700000Y-42900000D01*
X88700000Y-42900000D02*
X174700000Y-42900000D01*
X88700000Y-102900000D02*
X88700000Y-42900000D01*
X88700000Y-102900000D02*
X174700000Y-102900000D01*
D11*
G04 #@! TO.C,NT1*
G36*
X121500000Y-92700000D02*
G01*
X121500000Y-88700000D01*
X119500000Y-88700000D01*
X119500000Y-92700000D01*
X121500000Y-92700000D01*
G37*
G04 #@! TD*
D12*
G04 #@! TO.P,TP5,1*
G04 #@! TO.N,Net-(C3-Pad2)*
X120500000Y-73100000D03*
G04 #@! TD*
G04 #@! TO.P,C3,1*
G04 #@! TO.N,Net-(C3-Pad1)*
G04 #@! TA.AperFunction,SMDPad,CuDef*
G36*
G01*
X112775000Y-75350002D02*
X112775000Y-72449998D01*
G75*
G02*
X113024998Y-72200000I249998J0D01*
G01*
X114100002Y-72200000D01*
G75*
G02*
X114350000Y-72449998I0J-249998D01*
G01*
X114350000Y-75350002D01*
G75*
G02*
X114100002Y-75600000I-249998J0D01*
G01*
X113024998Y-75600000D01*
G75*
G02*
X112775000Y-75350002I0J249998D01*
G01*
G37*
G04 #@! TD.AperFunction*
G04 #@! TO.P,C3,2*
G04 #@! TO.N,Net-(C3-Pad2)*
G04 #@! TA.AperFunction,SMDPad,CuDef*
G36*
G01*
X117050000Y-75350002D02*
X117050000Y-72449998D01*
G75*
G02*
X117299998Y-72200000I249998J0D01*
G01*
X118375002Y-72200000D01*
G75*
G02*
X118625000Y-72449998I0J-249998D01*
G01*
X118625000Y-75350002D01*
G75*
G02*
X118375002Y-75600000I-249998J0D01*
G01*
X117299998Y-75600000D01*
G75*
G02*
X117050000Y-75350002I0J249998D01*
G01*
G37*
G04 #@! TD.AperFunction*
G04 #@! TD*
D13*
G04 #@! TO.P,J4,1*
G04 #@! TO.N,MOTOR+*
X166200000Y-65000000D03*
X166200000Y-69435000D03*
X170635000Y-65000000D03*
X166200000Y-60565000D03*
X161765000Y-65000000D03*
X161765000Y-69435000D03*
X161765000Y-60565000D03*
X170635000Y-60565000D03*
X170635000Y-69435000D03*
G04 #@! TD*
G04 #@! TO.P,R6,1*
G04 #@! TO.N,Net-(Q5-Pad1)*
G04 #@! TA.AperFunction,SMDPad,CuDef*
G36*
G01*
X131425000Y-78424999D02*
X131425000Y-80575001D01*
G75*
G02*
X131175001Y-80825000I-249999J0D01*
G01*
X130449999Y-80825000D01*
G75*
G02*
X130200000Y-80575001I0J249999D01*
G01*
X130200000Y-78424999D01*
G75*
G02*
X130449999Y-78175000I249999J0D01*
G01*
X131175001Y-78175000D01*
G75*
G02*
X131425000Y-78424999I0J-249999D01*
G01*
G37*
G04 #@! TD.AperFunction*
G04 #@! TO.P,R6,2*
G04 #@! TO.N,GLB*
G04 #@! TA.AperFunction,SMDPad,CuDef*
G36*
G01*
X126800000Y-78424999D02*
X126800000Y-80575001D01*
G75*
G02*
X126550001Y-80825000I-249999J0D01*
G01*
X125824999Y-80825000D01*
G75*
G02*
X125575000Y-80575001I0J249999D01*
G01*
X125575000Y-78424999D01*
G75*
G02*
X125824999Y-78175000I249999J0D01*
G01*
X126550001Y-78175000D01*
G75*
G02*
X126800000Y-78424999I0J-249999D01*
G01*
G37*
G04 #@! TD.AperFunction*
G04 #@! TD*
G04 #@! TO.P,J3,1*
G04 #@! TO.N,A_RESET*
G04 #@! TA.AperFunction,ComponentPad*
G36*
G01*
X109445001Y-93470000D02*
X107754999Y-93470000D01*
G75*
G02*
X107505000Y-93220001I0J249999D01*
G01*
X107505000Y-91979999D01*
G75*
G02*
X107754999Y-91730000I249999J0D01*
G01*
X109445001Y-91730000D01*
G75*
G02*
X109695000Y-91979999I0J-249999D01*
G01*
X109695000Y-93220001D01*
G75*
G02*
X109445001Y-93470000I-249999J0D01*
G01*
G37*
G04 #@! TD.AperFunction*
D14*
G04 #@! TO.P,J3,2*
G04 #@! TO.N,SCK_SCL*
X108600000Y-90060000D03*
G04 #@! TO.P,J3,3*
G04 #@! TO.N,MISO*
X108600000Y-87520000D03*
G04 #@! TO.P,J3,4*
G04 #@! TO.N,SDA_MOSI*
X108600000Y-84980000D03*
G04 #@! TO.P,J3,5*
G04 #@! TO.N,GNDD*
X108600000Y-82440000D03*
G04 #@! TD*
G04 #@! TO.P,C11,1*
G04 #@! TO.N,GNDD*
G04 #@! TA.AperFunction,SMDPad,CuDef*
G36*
G01*
X115250002Y-90525000D02*
X112349998Y-90525000D01*
G75*
G02*
X112100000Y-90275002I0J249998D01*
G01*
X112100000Y-89199998D01*
G75*
G02*
X112349998Y-88950000I249998J0D01*
G01*
X115250002Y-88950000D01*
G75*
G02*
X115500000Y-89199998I0J-249998D01*
G01*
X115500000Y-90275002D01*
G75*
G02*
X115250002Y-90525000I-249998J0D01*
G01*
G37*
G04 #@! TD.AperFunction*
G04 #@! TO.P,C11,2*
G04 #@! TO.N,+5V*
G04 #@! TA.AperFunction,SMDPad,CuDef*
G36*
G01*
X115250002Y-86250000D02*
X112349998Y-86250000D01*
G75*
G02*
X112100000Y-86000002I0J249998D01*
G01*
X112100000Y-84924998D01*
G75*
G02*
X112349998Y-84675000I249998J0D01*
G01*
X115250002Y-84675000D01*
G75*
G02*
X115500000Y-84924998I0J-249998D01*
G01*
X115500000Y-86000002D01*
G75*
G02*
X115250002Y-86250000I-249998J0D01*
G01*
G37*
G04 #@! TD.AperFunction*
G04 #@! TD*
D13*
G04 #@! TO.P,J1,1*
G04 #@! TO.N,VCC*
X100828000Y-56135000D03*
X100828000Y-47265000D03*
X91958000Y-47265000D03*
X91958000Y-56135000D03*
X91958000Y-51700000D03*
X96393000Y-47265000D03*
X100828000Y-51700000D03*
X96393000Y-56135000D03*
X96393000Y-51700000D03*
G04 #@! TD*
G04 #@! TO.P,J2,1*
G04 #@! TO.N,GND*
X96400000Y-94100000D03*
X96400000Y-98535000D03*
X100835000Y-94100000D03*
X96400000Y-89665000D03*
X91965000Y-94100000D03*
X91965000Y-98535000D03*
X91965000Y-89665000D03*
X100835000Y-89665000D03*
X100835000Y-98535000D03*
G04 #@! TD*
G04 #@! TO.P,J5,1*
G04 #@! TO.N,MOTOR-*
X170635000Y-92135000D03*
X170635000Y-83265000D03*
X161765000Y-83265000D03*
X161765000Y-92135000D03*
X161765000Y-87700000D03*
X166200000Y-83265000D03*
X170635000Y-87700000D03*
X166200000Y-92135000D03*
X166200000Y-87700000D03*
G04 #@! TD*
G04 #@! TO.P,JP2,2*
G04 #@! TO.N,GND*
G04 #@! TA.AperFunction,SMDPad,CuDef*
G36*
G01*
X152950000Y-89774999D02*
X152950000Y-92625001D01*
G75*
G02*
X152700001Y-92875000I-249999J0D01*
G01*
X151974999Y-92875000D01*
G75*
G02*
X151725000Y-92625001I0J249999D01*
G01*
X151725000Y-89774999D01*
G75*
G02*
X151974999Y-89525000I249999J0D01*
G01*
X152700001Y-89525000D01*
G75*
G02*
X152950000Y-89774999I0J-249999D01*
G01*
G37*
G04 #@! TD.AperFunction*
G04 #@! TO.P,JP2,1*
G04 #@! TO.N,MOTOR-*
G04 #@! TA.AperFunction,SMDPad,CuDef*
G36*
G01*
X158875000Y-89774999D02*
X158875000Y-92625001D01*
G75*
G02*
X158625001Y-92875000I-249999J0D01*
G01*
X157899999Y-92875000D01*
G75*
G02*
X157650000Y-92625001I0J249999D01*
G01*
X157650000Y-89774999D01*
G75*
G02*
X157899999Y-89525000I249999J0D01*
G01*
X158625001Y-89525000D01*
G75*
G02*
X158875000Y-89774999I0J-249999D01*
G01*
G37*
G04 #@! TD.AperFunction*
G04 #@! TD*
G04 #@! TO.P,R3,1*
G04 #@! TO.N,GHA*
G04 #@! TA.AperFunction,SMDPad,CuDef*
G36*
G01*
X125575000Y-68175001D02*
X125575000Y-66024999D01*
G75*
G02*
X125824999Y-65775000I249999J0D01*
G01*
X126550001Y-65775000D01*
G75*
G02*
X126800000Y-66024999I0J-249999D01*
G01*
X126800000Y-68175001D01*
G75*
G02*
X126550001Y-68425000I-249999J0D01*
G01*
X125824999Y-68425000D01*
G75*
G02*
X125575000Y-68175001I0J249999D01*
G01*
G37*
G04 #@! TD.AperFunction*
G04 #@! TO.P,R3,2*
G04 #@! TO.N,Net-(Q1-Pad1)*
G04 #@! TA.AperFunction,SMDPad,CuDef*
G36*
G01*
X130200000Y-68175001D02*
X130200000Y-66024999D01*
G75*
G02*
X130449999Y-65775000I249999J0D01*
G01*
X131175001Y-65775000D01*
G75*
G02*
X131425000Y-66024999I0J-249999D01*
G01*
X131425000Y-68175001D01*
G75*
G02*
X131175001Y-68425000I-249999J0D01*
G01*
X130449999Y-68425000D01*
G75*
G02*
X130200000Y-68175001I0J249999D01*
G01*
G37*
G04 #@! TD.AperFunction*
G04 #@! TD*
G04 #@! TO.P,R4,2*
G04 #@! TO.N,Net-(Q2-Pad1)*
G04 #@! TA.AperFunction,SMDPad,CuDef*
G36*
G01*
X130100000Y-77375001D02*
X130100000Y-75224999D01*
G75*
G02*
X130349999Y-74975000I249999J0D01*
G01*
X131075001Y-74975000D01*
G75*
G02*
X131325000Y-75224999I0J-249999D01*
G01*
X131325000Y-77375001D01*
G75*
G02*
X131075001Y-77625000I-249999J0D01*
G01*
X130349999Y-77625000D01*
G75*
G02*
X130100000Y-77375001I0J249999D01*
G01*
G37*
G04 #@! TD.AperFunction*
G04 #@! TO.P,R4,1*
G04 #@! TO.N,GLA*
G04 #@! TA.AperFunction,SMDPad,CuDef*
G36*
G01*
X125475000Y-77375001D02*
X125475000Y-75224999D01*
G75*
G02*
X125724999Y-74975000I249999J0D01*
G01*
X126450001Y-74975000D01*
G75*
G02*
X126700000Y-75224999I0J-249999D01*
G01*
X126700000Y-77375001D01*
G75*
G02*
X126450001Y-77625000I-249999J0D01*
G01*
X125724999Y-77625000D01*
G75*
G02*
X125475000Y-77375001I0J249999D01*
G01*
G37*
G04 #@! TD.AperFunction*
G04 #@! TD*
G04 #@! TO.P,R5,2*
G04 #@! TO.N,GHB*
G04 #@! TA.AperFunction,SMDPad,CuDef*
G36*
G01*
X126800000Y-69924999D02*
X126800000Y-72075001D01*
G75*
G02*
X126550001Y-72325000I-249999J0D01*
G01*
X125824999Y-72325000D01*
G75*
G02*
X125575000Y-72075001I0J249999D01*
G01*
X125575000Y-69924999D01*
G75*
G02*
X125824999Y-69675000I249999J0D01*
G01*
X126550001Y-69675000D01*
G75*
G02*
X126800000Y-69924999I0J-249999D01*
G01*
G37*
G04 #@! TD.AperFunction*
G04 #@! TO.P,R5,1*
G04 #@! TO.N,Net-(Q6-Pad1)*
G04 #@! TA.AperFunction,SMDPad,CuDef*
G36*
G01*
X131425000Y-69924999D02*
X131425000Y-72075001D01*
G75*
G02*
X131175001Y-72325000I-249999J0D01*
G01*
X130449999Y-72325000D01*
G75*
G02*
X130200000Y-72075001I0J249999D01*
G01*
X130200000Y-69924999D01*
G75*
G02*
X130449999Y-69675000I249999J0D01*
G01*
X131175001Y-69675000D01*
G75*
G02*
X131425000Y-69924999I0J-249999D01*
G01*
G37*
G04 #@! TD.AperFunction*
G04 #@! TD*
D15*
G04 #@! TO.P,U2,21*
G04 #@! TO.N,GNDD*
X121250000Y-80650000D03*
X119150000Y-80650000D03*
X121250000Y-78550000D03*
X119150000Y-78550000D03*
D16*
X120200000Y-79600000D03*
G04 #@! TD*
D15*
G04 #@! TO.P,U3,21*
G04 #@! TO.N,GNDD*
X117821000Y-88100000D03*
X116621000Y-88100000D03*
X117821000Y-86900000D03*
X116621000Y-86900000D03*
D17*
X117221000Y-87500000D03*
G04 #@! TD*
G04 #@! TO.P,C6,1*
G04 #@! TO.N,Net-(C6-Pad1)*
G04 #@! TA.AperFunction,SMDPad,CuDef*
G36*
G01*
X128999999Y-84850000D02*
X131200001Y-84850000D01*
G75*
G02*
X131450000Y-85099999I0J-249999D01*
G01*
X131450000Y-85750001D01*
G75*
G02*
X131200001Y-86000000I-249999J0D01*
G01*
X128999999Y-86000000D01*
G75*
G02*
X128750000Y-85750001I0J249999D01*
G01*
X128750000Y-85099999D01*
G75*
G02*
X128999999Y-84850000I249999J0D01*
G01*
G37*
G04 #@! TD.AperFunction*
G04 #@! TO.P,C6,2*
G04 #@! TO.N,GNDD*
G04 #@! TA.AperFunction,SMDPad,CuDef*
G36*
G01*
X128999999Y-87800000D02*
X131200001Y-87800000D01*
G75*
G02*
X131450000Y-88049999I0J-249999D01*
G01*
X131450000Y-88700001D01*
G75*
G02*
X131200001Y-88950000I-249999J0D01*
G01*
X128999999Y-88950000D01*
G75*
G02*
X128750000Y-88700001I0J249999D01*
G01*
X128750000Y-88049999D01*
G75*
G02*
X128999999Y-87800000I249999J0D01*
G01*
G37*
G04 #@! TD.AperFunction*
G04 #@! TD*
G04 #@! TO.P,R2,1*
G04 #@! TO.N,GNDD*
G04 #@! TA.AperFunction,SMDPad,CuDef*
G36*
G01*
X127975001Y-89000000D02*
X125824999Y-89000000D01*
G75*
G02*
X125575000Y-88750001I0J249999D01*
G01*
X125575000Y-87849999D01*
G75*
G02*
X125824999Y-87600000I249999J0D01*
G01*
X127975001Y-87600000D01*
G75*
G02*
X128225000Y-87849999I0J-249999D01*
G01*
X128225000Y-88750001D01*
G75*
G02*
X127975001Y-89000000I-249999J0D01*
G01*
G37*
G04 #@! TD.AperFunction*
G04 #@! TO.P,R2,2*
G04 #@! TO.N,Net-(C6-Pad1)*
G04 #@! TA.AperFunction,SMDPad,CuDef*
G36*
G01*
X127975001Y-84200000D02*
X125824999Y-84200000D01*
G75*
G02*
X125575000Y-83950001I0J249999D01*
G01*
X125575000Y-83049999D01*
G75*
G02*
X125824999Y-82800000I249999J0D01*
G01*
X127975001Y-82800000D01*
G75*
G02*
X128225000Y-83049999I0J-249999D01*
G01*
X128225000Y-83950001D01*
G75*
G02*
X127975001Y-84200000I-249999J0D01*
G01*
G37*
G04 #@! TD.AperFunction*
G04 #@! TD*
G04 #@! TO.P,C2,2*
G04 #@! TO.N,GND*
G04 #@! TA.AperFunction,SMDPad,CuDef*
G36*
G01*
X108700001Y-75300000D02*
X106499999Y-75300000D01*
G75*
G02*
X106250000Y-75050001I0J249999D01*
G01*
X106250000Y-74399999D01*
G75*
G02*
X106499999Y-74150000I249999J0D01*
G01*
X108700001Y-74150000D01*
G75*
G02*
X108950000Y-74399999I0J-249999D01*
G01*
X108950000Y-75050001D01*
G75*
G02*
X108700001Y-75300000I-249999J0D01*
G01*
G37*
G04 #@! TD.AperFunction*
G04 #@! TO.P,C2,1*
G04 #@! TO.N,+5V*
G04 #@! TA.AperFunction,SMDPad,CuDef*
G36*
G01*
X108700001Y-78250000D02*
X106499999Y-78250000D01*
G75*
G02*
X106250000Y-78000001I0J249999D01*
G01*
X106250000Y-77349999D01*
G75*
G02*
X106499999Y-77100000I249999J0D01*
G01*
X108700001Y-77100000D01*
G75*
G02*
X108950000Y-77349999I0J-249999D01*
G01*
X108950000Y-78000001D01*
G75*
G02*
X108700001Y-78250000I-249999J0D01*
G01*
G37*
G04 #@! TD.AperFunction*
G04 #@! TD*
D18*
G04 #@! TO.P,Q5,2*
G04 #@! TO.N,MOTOR-*
X151892000Y-74653000D03*
D19*
G04 #@! TO.P,Q5,3*
G04 #@! TO.N,GND*
X149352000Y-83803000D03*
G04 #@! TO.P,Q5,1*
G04 #@! TO.N,Net-(Q5-Pad1)*
X154432000Y-83803000D03*
G04 #@! TD*
D18*
G04 #@! TO.P,Q6,2*
G04 #@! TO.N,VCC*
X140208000Y-56226000D03*
D19*
G04 #@! TO.P,Q6,3*
G04 #@! TO.N,MOTOR-*
X137668000Y-65376000D03*
G04 #@! TO.P,Q6,1*
G04 #@! TO.N,Net-(Q6-Pad1)*
X142748000Y-65376000D03*
G04 #@! TD*
G04 #@! TO.P,Q7,1*
G04 #@! TO.N,Net-(Q6-Pad1)*
X154432000Y-65376000D03*
G04 #@! TO.P,Q7,3*
G04 #@! TO.N,MOTOR-*
X149352000Y-65376000D03*
D18*
G04 #@! TO.P,Q7,2*
G04 #@! TO.N,VCC*
X151892000Y-56226000D03*
G04 #@! TD*
D19*
G04 #@! TO.P,Q8,1*
G04 #@! TO.N,Net-(Q5-Pad1)*
X142875000Y-83791000D03*
G04 #@! TO.P,Q8,3*
G04 #@! TO.N,GND*
X137795000Y-83791000D03*
D18*
G04 #@! TO.P,Q8,2*
G04 #@! TO.N,MOTOR-*
X140335000Y-74641000D03*
G04 #@! TD*
D20*
G04 #@! TO.P,C10,1*
G04 #@! TO.N,MOTOR-*
X169800000Y-77800000D03*
G04 #@! TO.P,C10,2*
G04 #@! TO.N,MOTOR+*
X169800000Y-75300000D03*
G04 #@! TD*
D12*
G04 #@! TO.P,TP6,1*
G04 #@! TO.N,Net-(C3-Pad1)*
X111300000Y-76000000D03*
G04 #@! TD*
D21*
G04 #@! TO.P,NT1,1*
G04 #@! TO.N,GND*
X120500000Y-92700000D03*
G04 #@! TO.P,NT1,2*
G04 #@! TO.N,GNDD*
X120500000Y-88700000D03*
G04 #@! TD*
D22*
G04 #@! TO.N,VCC*
X134600000Y-44300000D03*
G04 #@! TO.N,GND*
X133300000Y-82051000D03*
X134500000Y-82051000D03*
X135800000Y-82051000D03*
X133300000Y-83251000D03*
G04 #@! TO.N,VCC*
X103500000Y-44300000D03*
G04 #@! TO.N,Net-(Q1-Pad1)*
X133200000Y-64500000D03*
G04 #@! TO.N,GLA*
X124500000Y-76200000D03*
G04 #@! TO.N,Net-(Q2-Pad1)*
X134000000Y-78700000D03*
G04 #@! TO.N,GHA*
X122900000Y-72400000D03*
G04 #@! TO.N,GND*
X109900000Y-77500000D03*
X91059000Y-76170000D03*
X92329000Y-76170000D03*
X93599000Y-76170000D03*
X94869000Y-76170000D03*
X96139000Y-76170000D03*
X97409000Y-76170000D03*
X98679000Y-76170000D03*
X99949000Y-76170000D03*
X91059000Y-77440000D03*
X92329000Y-77440000D03*
X93599000Y-77440000D03*
X94869000Y-77440000D03*
X96139000Y-77440000D03*
X97409000Y-77440000D03*
X98679000Y-77440000D03*
X99949000Y-77440000D03*
X91059000Y-78710000D03*
X92329000Y-78710000D03*
X93599000Y-78710000D03*
X94869000Y-78710000D03*
X96139000Y-78710000D03*
X97409000Y-78710000D03*
X98679000Y-78710000D03*
X99949000Y-78710000D03*
X91059000Y-79980000D03*
X92329000Y-79980000D03*
X93599000Y-79980000D03*
X94869000Y-79980000D03*
X96139000Y-79980000D03*
X97409000Y-79980000D03*
X98679000Y-79980000D03*
X99949000Y-79980000D03*
X91059000Y-81250000D03*
X92329000Y-81250000D03*
X93599000Y-81250000D03*
X94869000Y-81250000D03*
X96139000Y-81250000D03*
X97409000Y-81250000D03*
X98679000Y-81250000D03*
X99949000Y-81250000D03*
X91059000Y-82520000D03*
X92329000Y-82520000D03*
X93599000Y-82520000D03*
X94869000Y-82520000D03*
X96139000Y-82520000D03*
X97409000Y-82520000D03*
X98679000Y-82520000D03*
X91059000Y-83790000D03*
X92329000Y-83790000D03*
X93599000Y-83790000D03*
X94869000Y-83790000D03*
X96139000Y-83790000D03*
X97409000Y-83790000D03*
X98679000Y-83790000D03*
X91059000Y-85060000D03*
X92309000Y-85060000D03*
X93559000Y-85060000D03*
X94809000Y-85060000D03*
X96059000Y-85060000D03*
X97309000Y-85060000D03*
X98559000Y-85060000D03*
X91059000Y-86310000D03*
X92309000Y-86310000D03*
X93559000Y-86310000D03*
X94809000Y-86310000D03*
X96059000Y-86310000D03*
X97309000Y-86310000D03*
X98559000Y-86310000D03*
X101199000Y-81250000D03*
X102449000Y-81250000D03*
X103699000Y-81250000D03*
X99949000Y-82500000D03*
X101199000Y-82500000D03*
X102449000Y-82500000D03*
X103699000Y-82500000D03*
X99949000Y-83750000D03*
X101199000Y-83750000D03*
X102449000Y-83750000D03*
X103699000Y-83750000D03*
X99949000Y-85000000D03*
X101199000Y-85000000D03*
X102449000Y-85000000D03*
X103699000Y-85000000D03*
X99949000Y-86250000D03*
X101199000Y-86250000D03*
X102449000Y-86250000D03*
X103699000Y-86250000D03*
X133300000Y-94551000D03*
X133300000Y-93301000D03*
X133300000Y-92051000D03*
X133300000Y-90801000D03*
X133300000Y-89551000D03*
X133300000Y-88301000D03*
X133300000Y-87051000D03*
X134550000Y-94551000D03*
X134550000Y-93301000D03*
X134550000Y-92051000D03*
X134550000Y-90801000D03*
X134550000Y-89551000D03*
X134550000Y-88301000D03*
X134550000Y-87051000D03*
X135800000Y-94551000D03*
X135800000Y-93301000D03*
X135800000Y-92051000D03*
X135800000Y-90801000D03*
X135800000Y-89551000D03*
X135800000Y-88301000D03*
X135800000Y-87051000D03*
X137050000Y-94551000D03*
X137050000Y-93301000D03*
X137050000Y-92051000D03*
X137050000Y-90801000D03*
X137050000Y-89551000D03*
X137050000Y-88301000D03*
X137050000Y-87051000D03*
X138300000Y-94551000D03*
X138300000Y-93301000D03*
X138300000Y-92051000D03*
X138300000Y-90801000D03*
X138300000Y-89551000D03*
X138300000Y-88301000D03*
X138300000Y-87051000D03*
X139550000Y-87051000D03*
X140800000Y-87051000D03*
X142050000Y-87051000D03*
X143300000Y-87051000D03*
X144550000Y-87051000D03*
X139550000Y-88301000D03*
X140800000Y-88301000D03*
X142050000Y-88301000D03*
X143300000Y-88301000D03*
X144550000Y-88301000D03*
X139550000Y-89551000D03*
X140800000Y-89551000D03*
X142050000Y-89551000D03*
X143300000Y-89551000D03*
X144550000Y-89551000D03*
X139550000Y-90801000D03*
X140800000Y-90801000D03*
X142050000Y-90801000D03*
X143300000Y-90801000D03*
X144550000Y-90801000D03*
X139550000Y-92051000D03*
X140800000Y-92051000D03*
X142050000Y-92051000D03*
X143300000Y-92051000D03*
X144550000Y-92051000D03*
X139550000Y-93301000D03*
X140800000Y-93301000D03*
X142050000Y-93301000D03*
X143300000Y-93301000D03*
X144550000Y-93301000D03*
X139550000Y-94551000D03*
X140800000Y-94551000D03*
X142050000Y-94551000D03*
X143300000Y-94551000D03*
X144550000Y-94551000D03*
X105400000Y-59450000D03*
X106650000Y-59450000D03*
X107900000Y-59450000D03*
X109150000Y-59450000D03*
X110400000Y-59450000D03*
X111650000Y-59450000D03*
X105400000Y-60700000D03*
X106650000Y-60700000D03*
X107900000Y-60700000D03*
X109150000Y-60700000D03*
X110400000Y-60700000D03*
X111650000Y-60700000D03*
X105400000Y-61950000D03*
X106650000Y-61950000D03*
X107900000Y-61950000D03*
X109150000Y-61950000D03*
X110400000Y-61950000D03*
X111650000Y-61950000D03*
X105400000Y-63200000D03*
X106650000Y-63200000D03*
X107900000Y-63200000D03*
X109150000Y-63200000D03*
X110400000Y-63200000D03*
X111650000Y-63200000D03*
X105400000Y-64450000D03*
X106650000Y-64450000D03*
X107900000Y-64450000D03*
X109150000Y-64450000D03*
X110400000Y-64450000D03*
X111650000Y-64450000D03*
X134550000Y-83251000D03*
X135800000Y-83251000D03*
X133300000Y-84501000D03*
X134550000Y-84501000D03*
X135800000Y-84501000D03*
X133300000Y-85751000D03*
X134550000Y-85751000D03*
X135800000Y-85751000D03*
G04 #@! TO.N,VCC*
X104750000Y-44300000D03*
X106000000Y-44300000D03*
X107250000Y-44300000D03*
X108500000Y-44300000D03*
X109750000Y-44300000D03*
X111000000Y-44300000D03*
X112250000Y-44300000D03*
X103500000Y-45550000D03*
X104750000Y-45550000D03*
X106000000Y-45550000D03*
X107250000Y-45550000D03*
X108500000Y-45550000D03*
X109750000Y-45550000D03*
X111000000Y-45550000D03*
X112250000Y-45550000D03*
X103500000Y-46800000D03*
X104750000Y-46800000D03*
X106000000Y-46800000D03*
X107250000Y-46800000D03*
X108500000Y-46800000D03*
X109750000Y-46800000D03*
X111000000Y-46800000D03*
X112250000Y-46800000D03*
X103500000Y-48050000D03*
X104750000Y-48050000D03*
X106000000Y-48050000D03*
X107250000Y-48050000D03*
X108500000Y-48050000D03*
X109750000Y-48050000D03*
X111000000Y-48050000D03*
X112250000Y-48050000D03*
X103500000Y-49300000D03*
X104750000Y-49300000D03*
X106000000Y-49300000D03*
X107250000Y-49300000D03*
X108500000Y-49300000D03*
X109750000Y-49300000D03*
X111000000Y-49300000D03*
X112250000Y-49300000D03*
X103500000Y-50550000D03*
X104750000Y-50550000D03*
X106000000Y-50550000D03*
X107250000Y-50550000D03*
X108500000Y-50550000D03*
X109750000Y-50550000D03*
X111000000Y-50550000D03*
X112250000Y-50550000D03*
X103500000Y-51800000D03*
X104750000Y-51800000D03*
X106000000Y-51800000D03*
X107250000Y-51800000D03*
X108500000Y-51800000D03*
X109750000Y-51800000D03*
X111000000Y-51800000D03*
X112250000Y-51800000D03*
X103500000Y-53050000D03*
X104750000Y-53050000D03*
X106000000Y-53050000D03*
X107250000Y-53050000D03*
X108500000Y-53050000D03*
X109750000Y-53050000D03*
X111000000Y-53050000D03*
X112250000Y-53050000D03*
X135850000Y-44300000D03*
X137100000Y-44300000D03*
X138350000Y-44300000D03*
X139600000Y-44300000D03*
X140850000Y-44300000D03*
X142100000Y-44300000D03*
X143350000Y-44300000D03*
X144600000Y-44300000D03*
X145850000Y-44300000D03*
X147100000Y-44300000D03*
X148350000Y-44300000D03*
X149600000Y-44300000D03*
X150850000Y-44300000D03*
X152100000Y-44300000D03*
X134600000Y-45550000D03*
X135850000Y-45550000D03*
X137100000Y-45550000D03*
X138350000Y-45550000D03*
X139600000Y-45550000D03*
X140850000Y-45550000D03*
X142100000Y-45550000D03*
X143350000Y-45550000D03*
X144600000Y-45550000D03*
X145850000Y-45550000D03*
X147100000Y-45550000D03*
X148350000Y-45550000D03*
X149600000Y-45550000D03*
X150850000Y-45550000D03*
X134600000Y-46800000D03*
X135850000Y-46800000D03*
X137100000Y-46800000D03*
X138350000Y-46800000D03*
X139600000Y-46800000D03*
X140850000Y-46800000D03*
X142100000Y-46800000D03*
X143350000Y-46800000D03*
X144600000Y-46800000D03*
X145850000Y-46800000D03*
X147100000Y-46800000D03*
X148350000Y-46800000D03*
X149600000Y-46800000D03*
X150850000Y-46800000D03*
X134600000Y-48050000D03*
X153350000Y-44300000D03*
X154600000Y-44300000D03*
X155850000Y-44300000D03*
X152100000Y-45550000D03*
X153350000Y-45550000D03*
X154600000Y-45550000D03*
X155850000Y-45550000D03*
X152100000Y-46800000D03*
X153350000Y-46800000D03*
X154600000Y-46800000D03*
X155850000Y-46800000D03*
X152100000Y-48050000D03*
X153350000Y-48050000D03*
X154600000Y-48050000D03*
X155850000Y-48050000D03*
X152100000Y-49300000D03*
X153350000Y-49300000D03*
X154600000Y-49300000D03*
X155850000Y-49300000D03*
X152100000Y-50550000D03*
X153350000Y-50550000D03*
X154600000Y-50550000D03*
X155850000Y-50550000D03*
X135850000Y-48050000D03*
X137100000Y-48050000D03*
X138350000Y-48050000D03*
X139600000Y-48050000D03*
X140850000Y-48050000D03*
X142100000Y-48050000D03*
X143350000Y-48050000D03*
X144600000Y-48050000D03*
X145850000Y-48050000D03*
X147100000Y-48050000D03*
X148350000Y-48050000D03*
X149600000Y-48050000D03*
X150850000Y-48050000D03*
X134600000Y-49300000D03*
X135850000Y-49300000D03*
X137100000Y-49300000D03*
X138350000Y-49300000D03*
X139600000Y-49300000D03*
X140850000Y-49300000D03*
X142100000Y-49300000D03*
X143350000Y-49300000D03*
X144600000Y-49300000D03*
X145850000Y-49300000D03*
X147100000Y-49300000D03*
X148350000Y-49300000D03*
X149600000Y-49300000D03*
X150850000Y-49300000D03*
X134600000Y-50550000D03*
X135850000Y-50550000D03*
X137100000Y-50550000D03*
X138350000Y-50550000D03*
X139600000Y-50550000D03*
X140850000Y-50550000D03*
X142100000Y-50550000D03*
X143350000Y-50550000D03*
X144600000Y-50550000D03*
X145850000Y-50550000D03*
X147100000Y-50550000D03*
X148350000Y-50550000D03*
X149600000Y-50550000D03*
X150850000Y-50550000D03*
G04 #@! TO.N,+5V*
X113000000Y-91400000D03*
X109600000Y-79100000D03*
X111300000Y-83900000D03*
G04 #@! TO.N,MOTOR+*
X133400000Y-74400000D03*
X119700000Y-75000000D03*
G04 #@! TO.N,MOTOR-*
X122900000Y-74000000D03*
G04 #@! TO.N,GHB*
X124700000Y-72500000D03*
G04 #@! TO.N,GLB*
X124500000Y-79000000D03*
G04 #@! TO.N,Net-(C3-Pad1)*
X114500000Y-76400000D03*
G04 #@! TO.N,Net-(C3-Pad2)*
X116900000Y-76400000D03*
G04 #@! TO.N,Fault*
X118100000Y-84600000D03*
X117900000Y-82200000D03*
G04 #@! TO.N,Mode*
X123100000Y-81300000D03*
X122700000Y-83500000D03*
G04 #@! TO.N,Net-(C6-Pad1)*
X124100000Y-83100000D03*
G04 #@! TO.N,GNDD*
X124000000Y-87000000D03*
G04 #@! TD*
D23*
G04 #@! TO.N,GND*
X120500000Y-91800000D02*
X120600000Y-91900000D01*
X120500000Y-92700000D02*
X115600000Y-97600000D01*
X101770000Y-97600000D02*
X100835000Y-98535000D01*
X115600000Y-97600000D02*
X101770000Y-97600000D01*
G04 #@! TO.N,VCC*
X140208000Y-56226000D02*
X151892000Y-56226000D01*
D24*
G04 #@! TO.N,+5V*
X109025000Y-79100000D02*
X107600000Y-77675000D01*
X109600000Y-79100000D02*
X109025000Y-79100000D01*
D25*
X113800000Y-85462500D02*
X111300000Y-87962500D01*
D23*
X113800000Y-85462500D02*
X113062500Y-85462500D01*
X113062500Y-85462500D02*
X112400000Y-84800000D01*
X111300000Y-83900000D02*
X111300000Y-84700000D01*
X112062500Y-85462500D02*
X113800000Y-85462500D01*
X111300000Y-84700000D02*
X112062500Y-85462500D01*
X111300000Y-90600000D02*
X112100000Y-91400000D01*
X112100000Y-91400000D02*
X113000000Y-91400000D01*
X111300000Y-87962500D02*
X111300000Y-90600000D01*
G04 #@! TO.N,MOTOR+*
X119700000Y-75000000D02*
X123000000Y-75000000D01*
X123000000Y-75000000D02*
X123700000Y-74300000D01*
X133200000Y-74300000D02*
X133400000Y-74500000D01*
X123700000Y-74300000D02*
X133200000Y-74300000D01*
D25*
G04 #@! TO.N,MOTOR-*
X138476000Y-76500000D02*
X140335000Y-74641000D01*
D23*
X139294000Y-73600000D02*
X140335000Y-74641000D01*
X151880000Y-74641000D02*
X151892000Y-74653000D01*
X140335000Y-74641000D02*
X151880000Y-74641000D01*
X123300000Y-73600000D02*
X126400000Y-73600000D01*
X126400000Y-73600000D02*
X139294000Y-73600000D01*
X126300000Y-73600000D02*
X126400000Y-73600000D01*
X123300000Y-73600000D02*
X122900000Y-74000000D01*
G04 #@! TO.N,GHA*
X123500000Y-69787500D02*
X126187500Y-67100000D01*
X123500000Y-71800000D02*
X123500000Y-69787500D01*
X122900000Y-72400000D02*
X123500000Y-71800000D01*
G04 #@! TO.N,GLA*
X125987500Y-76200000D02*
X126087500Y-76300000D01*
X124500000Y-76200000D02*
X125987500Y-76200000D01*
D24*
G04 #@! TO.N,GHB*
X124700000Y-72500000D02*
X124700000Y-71500000D01*
X125200000Y-71000000D02*
X126187500Y-71000000D01*
X124700000Y-71500000D02*
X125200000Y-71000000D01*
D23*
G04 #@! TO.N,GLB*
X124500000Y-79000000D02*
X124587500Y-79000000D01*
D24*
X125687500Y-79000000D02*
X126187500Y-79500000D01*
X124500000Y-79000000D02*
X125687500Y-79000000D01*
G04 #@! TO.N,Net-(Q1-Pad1)*
X130812500Y-67100000D02*
X131600000Y-67100000D01*
X133200000Y-65500000D02*
X133200000Y-64500000D01*
X131600000Y-67100000D02*
X133200000Y-65500000D01*
G04 #@! TO.N,Net-(Q2-Pad1)*
X130712500Y-76300000D02*
X132600000Y-76300000D01*
X134000000Y-77700000D02*
X134000000Y-78700000D01*
X132600000Y-76300000D02*
X134000000Y-77700000D01*
D25*
G04 #@! TO.N,Net-(Q5-Pad1)*
X154559000Y-83930000D02*
X154432000Y-83803000D01*
D23*
X142850000Y-83766000D02*
X142875000Y-83791000D01*
X134800000Y-80600000D02*
X142100000Y-80600000D01*
D24*
X134800000Y-80600000D02*
X142300000Y-80600000D01*
D23*
X142100000Y-80600000D02*
X142300000Y-80600000D01*
D24*
X142875000Y-81375000D02*
X142100000Y-80600000D01*
X142875000Y-83791000D02*
X142875000Y-81375000D01*
X154000000Y-80600000D02*
X154432000Y-81032000D01*
X142100000Y-80600000D02*
X154000000Y-80600000D01*
X154432000Y-83803000D02*
X154432000Y-81032000D01*
X133700000Y-79500000D02*
X130812500Y-79500000D01*
X134800000Y-80600000D02*
X133700000Y-79500000D01*
G04 #@! TO.N,Net-(Q6-Pad1)*
X142748000Y-62748000D02*
X142748000Y-65376000D01*
X142400000Y-62400000D02*
X142748000Y-62748000D01*
X134900000Y-62400000D02*
X142400000Y-62400000D01*
X134200000Y-63100000D02*
X134900000Y-62400000D01*
X134200000Y-68900000D02*
X134200000Y-63100000D01*
X132100000Y-71000000D02*
X134200000Y-68900000D01*
X130812500Y-71000000D02*
X132100000Y-71000000D01*
X142400000Y-62400000D02*
X154100000Y-62400000D01*
X154432000Y-62732000D02*
X154432000Y-65376000D01*
X154100000Y-62400000D02*
X154432000Y-62732000D01*
D25*
G04 #@! TO.N,Net-(C3-Pad1)*
X114500000Y-75737500D02*
X113562500Y-74800000D01*
X112362500Y-76000000D02*
X113562500Y-74800000D01*
X111300000Y-76000000D02*
X112362500Y-76000000D01*
X114500000Y-76500000D02*
X114500000Y-75737500D01*
G04 #@! TO.N,Net-(C3-Pad2)*
X116900000Y-75037500D02*
X117737500Y-74200000D01*
X117837500Y-74800000D02*
X118400000Y-74800000D01*
X120500000Y-73700000D02*
X120500000Y-73100000D01*
X120300000Y-73900000D02*
X120500000Y-73700000D01*
X118737500Y-73900000D02*
X120300000Y-73900000D01*
X117837500Y-74800000D02*
X118737500Y-73900000D01*
X116900000Y-76400000D02*
X116900000Y-75037500D01*
D26*
G04 #@! TO.N,Fault*
X117900000Y-82200000D02*
X117900000Y-83300000D01*
X118100000Y-83500000D02*
X118100000Y-84500000D01*
X117900000Y-83300000D02*
X118100000Y-83500000D01*
G04 #@! TO.N,Mode*
X122800000Y-81300000D02*
X123100000Y-81300000D01*
D25*
X122700000Y-81700000D02*
X123100000Y-81300000D01*
X122700000Y-83500000D02*
X122700000Y-81700000D01*
G04 #@! TO.N,Net-(C6-Pad1)*
X126200000Y-83300000D02*
X126100000Y-83200000D01*
D23*
X130100000Y-85425000D02*
X128125000Y-85425000D01*
X126900000Y-84200000D02*
X126900000Y-83500000D01*
X128125000Y-85425000D02*
X126900000Y-84200000D01*
D25*
X124499999Y-83499999D02*
X124100000Y-83100000D01*
X126900000Y-83500000D02*
X124499999Y-83499999D01*
G04 #@! TO.N,GNDD*
X126800000Y-87900000D02*
X126900000Y-88000000D01*
X120600000Y-87900000D02*
X120600000Y-86900000D01*
X120600000Y-86900000D02*
X121100000Y-86400000D01*
X125300000Y-86400000D02*
X126900000Y-88000000D01*
X121100000Y-86400000D02*
X125300000Y-86400000D01*
D23*
X120500000Y-88000000D02*
X120600000Y-87900000D01*
X120500000Y-89000000D02*
X120500000Y-88000000D01*
G04 #@! TD*
D27*
G04 #@! TO.N,MOTOR-*
X157769850Y-63344771D02*
X157933567Y-63394367D01*
X158084461Y-63474960D01*
X158216727Y-63583450D01*
X158325278Y-63715666D01*
X158405940Y-63866522D01*
X158455613Y-64030219D01*
X158473000Y-64206702D01*
X158473000Y-70700000D01*
X158473612Y-70712448D01*
X158492827Y-70907538D01*
X158497683Y-70931956D01*
X158554588Y-71119549D01*
X158564116Y-71142550D01*
X158656526Y-71315437D01*
X158670358Y-71336138D01*
X158794721Y-71487675D01*
X158812325Y-71505279D01*
X158963862Y-71629642D01*
X158984563Y-71643474D01*
X159157450Y-71735884D01*
X159180451Y-71745412D01*
X159368044Y-71802317D01*
X159392462Y-71807173D01*
X159587552Y-71826388D01*
X159600000Y-71827000D01*
X173493766Y-71827000D01*
X173670189Y-71844376D01*
X173833850Y-71894022D01*
X173913001Y-71936329D01*
X173913000Y-95763671D01*
X173833850Y-95805978D01*
X173670189Y-95855624D01*
X173493766Y-95873000D01*
X157527239Y-95873000D01*
X157351133Y-95855688D01*
X157187766Y-95806232D01*
X157037150Y-95725907D01*
X156905060Y-95617793D01*
X156796557Y-95486034D01*
X156715779Y-95335655D01*
X156665834Y-95172438D01*
X156647994Y-94996383D01*
X156605985Y-80971625D01*
X156605339Y-80959202D01*
X156585614Y-80764537D01*
X156580702Y-80740178D01*
X156523449Y-80553080D01*
X156513889Y-80530144D01*
X156421300Y-80357776D01*
X156407455Y-80337141D01*
X156283074Y-80186102D01*
X156265477Y-80168557D01*
X156114066Y-80044629D01*
X156093390Y-80030847D01*
X155920745Y-79938774D01*
X155897780Y-79929282D01*
X155710512Y-79872590D01*
X155686139Y-79867751D01*
X155491416Y-79848609D01*
X155478991Y-79848000D01*
X154560686Y-79848000D01*
X154523088Y-79817144D01*
X154360309Y-79730137D01*
X154183684Y-79676558D01*
X154046025Y-79663000D01*
X154046015Y-79663000D01*
X154000000Y-79658468D01*
X153953985Y-79663000D01*
X142146015Y-79663000D01*
X142100000Y-79658468D01*
X142053985Y-79663000D01*
X135269802Y-79663000D01*
X135183130Y-79591870D01*
X135074638Y-79459672D01*
X134994022Y-79308850D01*
X134992986Y-79305436D01*
X135029751Y-79250413D01*
X135117345Y-79038943D01*
X135162000Y-78814447D01*
X135162000Y-78585553D01*
X135117345Y-78361057D01*
X135029751Y-78149587D01*
X134937000Y-78010775D01*
X134937000Y-77746015D01*
X134941532Y-77700000D01*
X134937000Y-77653985D01*
X134937000Y-77653975D01*
X134927000Y-77552442D01*
X134927000Y-75146156D01*
X168238000Y-75146156D01*
X168238000Y-75453844D01*
X168298027Y-75755619D01*
X168415773Y-76039885D01*
X168586715Y-76295717D01*
X168804283Y-76513285D01*
X169060115Y-76684227D01*
X169344381Y-76801973D01*
X169646156Y-76862000D01*
X169953844Y-76862000D01*
X170255619Y-76801973D01*
X170539885Y-76684227D01*
X170795717Y-76513285D01*
X171013285Y-76295717D01*
X171184227Y-76039885D01*
X171301973Y-75755619D01*
X171362000Y-75453844D01*
X171362000Y-75146156D01*
X171301973Y-74844381D01*
X171184227Y-74560115D01*
X171013285Y-74304283D01*
X170795717Y-74086715D01*
X170539885Y-73915773D01*
X170255619Y-73798027D01*
X169953844Y-73738000D01*
X169646156Y-73738000D01*
X169344381Y-73798027D01*
X169060115Y-73915773D01*
X168804283Y-74086715D01*
X168586715Y-74304283D01*
X168415773Y-74560115D01*
X168298027Y-74844381D01*
X168238000Y-75146156D01*
X134927000Y-75146156D01*
X134927000Y-69491148D01*
X134982856Y-69423088D01*
X135069863Y-69260309D01*
X135123442Y-69083684D01*
X135137000Y-68946025D01*
X135137000Y-68946016D01*
X135141532Y-68900001D01*
X135137000Y-68853986D01*
X135137000Y-63649868D01*
X135182987Y-63593810D01*
X135315117Y-63485317D01*
X135465872Y-63404675D01*
X135629461Y-63354984D01*
X135805833Y-63337535D01*
X136963363Y-63337000D01*
X141432314Y-63337000D01*
X141432314Y-67676000D01*
X141447026Y-67825378D01*
X141490598Y-67969015D01*
X141561355Y-68101392D01*
X141656578Y-68217422D01*
X141772608Y-68312645D01*
X141904985Y-68383402D01*
X142048622Y-68426974D01*
X142198000Y-68441686D01*
X143298000Y-68441686D01*
X143447378Y-68426974D01*
X143591015Y-68383402D01*
X143723392Y-68312645D01*
X143839422Y-68217422D01*
X143934645Y-68101392D01*
X144005402Y-67969015D01*
X144048974Y-67825378D01*
X144063686Y-67676000D01*
X144063686Y-63337000D01*
X153116314Y-63337000D01*
X153116314Y-67676000D01*
X153131026Y-67825378D01*
X153174598Y-67969015D01*
X153245355Y-68101392D01*
X153340578Y-68217422D01*
X153456608Y-68312645D01*
X153588985Y-68383402D01*
X153732622Y-68426974D01*
X153882000Y-68441686D01*
X154982000Y-68441686D01*
X155131378Y-68426974D01*
X155275015Y-68383402D01*
X155407392Y-68312645D01*
X155523422Y-68217422D01*
X155618645Y-68101392D01*
X155689402Y-67969015D01*
X155732974Y-67825378D01*
X155747686Y-67676000D01*
X155747686Y-63328318D01*
X157593354Y-63327465D01*
X157769850Y-63344771D01*
G04 #@! TA.AperFunction,Conductor*
D28*
G36*
X157769850Y-63344771D02*
G01*
X157933567Y-63394367D01*
X158084461Y-63474960D01*
X158216727Y-63583450D01*
X158325278Y-63715666D01*
X158405940Y-63866522D01*
X158455613Y-64030219D01*
X158473000Y-64206702D01*
X158473000Y-70700000D01*
X158473612Y-70712448D01*
X158492827Y-70907538D01*
X158497683Y-70931956D01*
X158554588Y-71119549D01*
X158564116Y-71142550D01*
X158656526Y-71315437D01*
X158670358Y-71336138D01*
X158794721Y-71487675D01*
X158812325Y-71505279D01*
X158963862Y-71629642D01*
X158984563Y-71643474D01*
X159157450Y-71735884D01*
X159180451Y-71745412D01*
X159368044Y-71802317D01*
X159392462Y-71807173D01*
X159587552Y-71826388D01*
X159600000Y-71827000D01*
X173493766Y-71827000D01*
X173670189Y-71844376D01*
X173833850Y-71894022D01*
X173913001Y-71936329D01*
X173913000Y-95763671D01*
X173833850Y-95805978D01*
X173670189Y-95855624D01*
X173493766Y-95873000D01*
X157527239Y-95873000D01*
X157351133Y-95855688D01*
X157187766Y-95806232D01*
X157037150Y-95725907D01*
X156905060Y-95617793D01*
X156796557Y-95486034D01*
X156715779Y-95335655D01*
X156665834Y-95172438D01*
X156647994Y-94996383D01*
X156605985Y-80971625D01*
X156605339Y-80959202D01*
X156585614Y-80764537D01*
X156580702Y-80740178D01*
X156523449Y-80553080D01*
X156513889Y-80530144D01*
X156421300Y-80357776D01*
X156407455Y-80337141D01*
X156283074Y-80186102D01*
X156265477Y-80168557D01*
X156114066Y-80044629D01*
X156093390Y-80030847D01*
X155920745Y-79938774D01*
X155897780Y-79929282D01*
X155710512Y-79872590D01*
X155686139Y-79867751D01*
X155491416Y-79848609D01*
X155478991Y-79848000D01*
X154560686Y-79848000D01*
X154523088Y-79817144D01*
X154360309Y-79730137D01*
X154183684Y-79676558D01*
X154046025Y-79663000D01*
X154046015Y-79663000D01*
X154000000Y-79658468D01*
X153953985Y-79663000D01*
X142146015Y-79663000D01*
X142100000Y-79658468D01*
X142053985Y-79663000D01*
X135269802Y-79663000D01*
X135183130Y-79591870D01*
X135074638Y-79459672D01*
X134994022Y-79308850D01*
X134992986Y-79305436D01*
X135029751Y-79250413D01*
X135117345Y-79038943D01*
X135162000Y-78814447D01*
X135162000Y-78585553D01*
X135117345Y-78361057D01*
X135029751Y-78149587D01*
X134937000Y-78010775D01*
X134937000Y-77746015D01*
X134941532Y-77700000D01*
X134937000Y-77653985D01*
X134937000Y-77653975D01*
X134927000Y-77552442D01*
X134927000Y-75146156D01*
X168238000Y-75146156D01*
X168238000Y-75453844D01*
X168298027Y-75755619D01*
X168415773Y-76039885D01*
X168586715Y-76295717D01*
X168804283Y-76513285D01*
X169060115Y-76684227D01*
X169344381Y-76801973D01*
X169646156Y-76862000D01*
X169953844Y-76862000D01*
X170255619Y-76801973D01*
X170539885Y-76684227D01*
X170795717Y-76513285D01*
X171013285Y-76295717D01*
X171184227Y-76039885D01*
X171301973Y-75755619D01*
X171362000Y-75453844D01*
X171362000Y-75146156D01*
X171301973Y-74844381D01*
X171184227Y-74560115D01*
X171013285Y-74304283D01*
X170795717Y-74086715D01*
X170539885Y-73915773D01*
X170255619Y-73798027D01*
X169953844Y-73738000D01*
X169646156Y-73738000D01*
X169344381Y-73798027D01*
X169060115Y-73915773D01*
X168804283Y-74086715D01*
X168586715Y-74304283D01*
X168415773Y-74560115D01*
X168298027Y-74844381D01*
X168238000Y-75146156D01*
X134927000Y-75146156D01*
X134927000Y-69491148D01*
X134982856Y-69423088D01*
X135069863Y-69260309D01*
X135123442Y-69083684D01*
X135137000Y-68946025D01*
X135137000Y-68946016D01*
X135141532Y-68900001D01*
X135137000Y-68853986D01*
X135137000Y-63649868D01*
X135182987Y-63593810D01*
X135315117Y-63485317D01*
X135465872Y-63404675D01*
X135629461Y-63354984D01*
X135805833Y-63337535D01*
X136963363Y-63337000D01*
X141432314Y-63337000D01*
X141432314Y-67676000D01*
X141447026Y-67825378D01*
X141490598Y-67969015D01*
X141561355Y-68101392D01*
X141656578Y-68217422D01*
X141772608Y-68312645D01*
X141904985Y-68383402D01*
X142048622Y-68426974D01*
X142198000Y-68441686D01*
X143298000Y-68441686D01*
X143447378Y-68426974D01*
X143591015Y-68383402D01*
X143723392Y-68312645D01*
X143839422Y-68217422D01*
X143934645Y-68101392D01*
X144005402Y-67969015D01*
X144048974Y-67825378D01*
X144063686Y-67676000D01*
X144063686Y-63337000D01*
X153116314Y-63337000D01*
X153116314Y-67676000D01*
X153131026Y-67825378D01*
X153174598Y-67969015D01*
X153245355Y-68101392D01*
X153340578Y-68217422D01*
X153456608Y-68312645D01*
X153588985Y-68383402D01*
X153732622Y-68426974D01*
X153882000Y-68441686D01*
X154982000Y-68441686D01*
X155131378Y-68426974D01*
X155275015Y-68383402D01*
X155407392Y-68312645D01*
X155523422Y-68217422D01*
X155618645Y-68101392D01*
X155689402Y-67969015D01*
X155732974Y-67825378D01*
X155747686Y-67676000D01*
X155747686Y-63328318D01*
X157593354Y-63327465D01*
X157769850Y-63344771D01*
G37*
G04 #@! TD.AperFunction*
G04 #@! TD*
D27*
G04 #@! TO.N,VCC*
X174040001Y-43819607D02*
X174040001Y-54480393D01*
X173447394Y-55073000D01*
X159300000Y-55073000D01*
X159275224Y-55075440D01*
X159251399Y-55082667D01*
X159229443Y-55094403D01*
X159210197Y-55110197D01*
X158210197Y-56110197D01*
X158194403Y-56129443D01*
X158182667Y-56151399D01*
X158175440Y-56175224D01*
X158173000Y-56200000D01*
X158173000Y-60888480D01*
X157247194Y-61816398D01*
X154672835Y-61822262D01*
X154552189Y-61723251D01*
X154411473Y-61648037D01*
X154258788Y-61601720D01*
X154139791Y-61590000D01*
X154139788Y-61590000D01*
X154100000Y-61586081D01*
X154060212Y-61590000D01*
X142439788Y-61590000D01*
X142400000Y-61586081D01*
X142360212Y-61590000D01*
X134939787Y-61590000D01*
X134899999Y-61586081D01*
X134860211Y-61590000D01*
X134860209Y-61590000D01*
X134741212Y-61601720D01*
X134588527Y-61648037D01*
X134447811Y-61723251D01*
X134324472Y-61824472D01*
X134299105Y-61855382D01*
X134285783Y-61868704D01*
X133452397Y-61870602D01*
X132527000Y-60947310D01*
X132527000Y-57700000D01*
X132524560Y-57675224D01*
X132517333Y-57651399D01*
X132505597Y-57629443D01*
X132489803Y-57610197D01*
X131489803Y-56610197D01*
X131470557Y-56594403D01*
X131448601Y-56582667D01*
X131424776Y-56575440D01*
X131400000Y-56573000D01*
X105400000Y-56573000D01*
X105375224Y-56575440D01*
X105351399Y-56582667D01*
X105329443Y-56594403D01*
X105310197Y-56610197D01*
X104310197Y-57610197D01*
X104294403Y-57629443D01*
X104282667Y-57651399D01*
X104275440Y-57675224D01*
X104273000Y-57700000D01*
X104273000Y-60047394D01*
X103347394Y-60973000D01*
X89952606Y-60973000D01*
X89360000Y-60380394D01*
X89360000Y-47611716D01*
X157973000Y-47611716D01*
X157973000Y-48188284D01*
X158085482Y-48753775D01*
X158306126Y-49286455D01*
X158626450Y-49765854D01*
X159034146Y-50173550D01*
X159513545Y-50493874D01*
X160046225Y-50714518D01*
X160611716Y-50827000D01*
X161188284Y-50827000D01*
X161753775Y-50714518D01*
X162286455Y-50493874D01*
X162765854Y-50173550D01*
X163173550Y-49765854D01*
X163493874Y-49286455D01*
X163714518Y-48753775D01*
X163827000Y-48188284D01*
X163827000Y-47611716D01*
X163714518Y-47046225D01*
X163493874Y-46513545D01*
X163173550Y-46034146D01*
X162765854Y-45626450D01*
X162286455Y-45306126D01*
X161753775Y-45085482D01*
X161188284Y-44973000D01*
X160611716Y-44973000D01*
X160046225Y-45085482D01*
X159513545Y-45306126D01*
X159034146Y-45626450D01*
X158626450Y-46034146D01*
X158306126Y-46513545D01*
X158085482Y-47046225D01*
X157973000Y-47611716D01*
X89360000Y-47611716D01*
X89360000Y-43819606D01*
X89619606Y-43560000D01*
X173780394Y-43560000D01*
X174040001Y-43819607D01*
G04 #@! TA.AperFunction,Conductor*
D28*
G36*
X174040001Y-43819607D02*
G01*
X174040001Y-54480393D01*
X173447394Y-55073000D01*
X159300000Y-55073000D01*
X159275224Y-55075440D01*
X159251399Y-55082667D01*
X159229443Y-55094403D01*
X159210197Y-55110197D01*
X158210197Y-56110197D01*
X158194403Y-56129443D01*
X158182667Y-56151399D01*
X158175440Y-56175224D01*
X158173000Y-56200000D01*
X158173000Y-60888480D01*
X157247194Y-61816398D01*
X154672835Y-61822262D01*
X154552189Y-61723251D01*
X154411473Y-61648037D01*
X154258788Y-61601720D01*
X154139791Y-61590000D01*
X154139788Y-61590000D01*
X154100000Y-61586081D01*
X154060212Y-61590000D01*
X142439788Y-61590000D01*
X142400000Y-61586081D01*
X142360212Y-61590000D01*
X134939787Y-61590000D01*
X134899999Y-61586081D01*
X134860211Y-61590000D01*
X134860209Y-61590000D01*
X134741212Y-61601720D01*
X134588527Y-61648037D01*
X134447811Y-61723251D01*
X134324472Y-61824472D01*
X134299105Y-61855382D01*
X134285783Y-61868704D01*
X133452397Y-61870602D01*
X132527000Y-60947310D01*
X132527000Y-57700000D01*
X132524560Y-57675224D01*
X132517333Y-57651399D01*
X132505597Y-57629443D01*
X132489803Y-57610197D01*
X131489803Y-56610197D01*
X131470557Y-56594403D01*
X131448601Y-56582667D01*
X131424776Y-56575440D01*
X131400000Y-56573000D01*
X105400000Y-56573000D01*
X105375224Y-56575440D01*
X105351399Y-56582667D01*
X105329443Y-56594403D01*
X105310197Y-56610197D01*
X104310197Y-57610197D01*
X104294403Y-57629443D01*
X104282667Y-57651399D01*
X104275440Y-57675224D01*
X104273000Y-57700000D01*
X104273000Y-60047394D01*
X103347394Y-60973000D01*
X89952606Y-60973000D01*
X89360000Y-60380394D01*
X89360000Y-47611716D01*
X157973000Y-47611716D01*
X157973000Y-48188284D01*
X158085482Y-48753775D01*
X158306126Y-49286455D01*
X158626450Y-49765854D01*
X159034146Y-50173550D01*
X159513545Y-50493874D01*
X160046225Y-50714518D01*
X160611716Y-50827000D01*
X161188284Y-50827000D01*
X161753775Y-50714518D01*
X162286455Y-50493874D01*
X162765854Y-50173550D01*
X163173550Y-49765854D01*
X163493874Y-49286455D01*
X163714518Y-48753775D01*
X163827000Y-48188284D01*
X163827000Y-47611716D01*
X163714518Y-47046225D01*
X163493874Y-46513545D01*
X163173550Y-46034146D01*
X162765854Y-45626450D01*
X162286455Y-45306126D01*
X161753775Y-45085482D01*
X161188284Y-44973000D01*
X160611716Y-44973000D01*
X160046225Y-45085482D01*
X159513545Y-45306126D01*
X159034146Y-45626450D01*
X158626450Y-46034146D01*
X158306126Y-46513545D01*
X158085482Y-47046225D01*
X157973000Y-47611716D01*
X89360000Y-47611716D01*
X89360000Y-43819606D01*
X89619606Y-43560000D01*
X173780394Y-43560000D01*
X174040001Y-43819607D01*
G37*
G04 #@! TD.AperFunction*
G04 #@! TD*
D27*
G04 #@! TO.N,GND*
X131765000Y-57963026D02*
X131765000Y-61000000D01*
X131777343Y-61124592D01*
X131813614Y-61243672D01*
X131872419Y-61353388D01*
X131951499Y-61449524D01*
X132673000Y-62169384D01*
X132673000Y-63928155D01*
X132596464Y-64004691D01*
X132511431Y-64131952D01*
X132452859Y-64273357D01*
X132423000Y-64423472D01*
X132423000Y-64576528D01*
X132452859Y-64726643D01*
X132511431Y-64868048D01*
X132596464Y-64995309D01*
X132648000Y-65046845D01*
X132648000Y-65271354D01*
X131803824Y-66115531D01*
X131803824Y-66024999D01*
X131791741Y-65902322D01*
X131755958Y-65784359D01*
X131697848Y-65675644D01*
X131619646Y-65580354D01*
X131524356Y-65502152D01*
X131415641Y-65444042D01*
X131297678Y-65408259D01*
X131175001Y-65396176D01*
X130449999Y-65396176D01*
X130327322Y-65408259D01*
X130209359Y-65444042D01*
X130100644Y-65502152D01*
X130005354Y-65580354D01*
X129927152Y-65675644D01*
X129869042Y-65784359D01*
X129833259Y-65902322D01*
X129821176Y-66024999D01*
X129821176Y-68175001D01*
X129833259Y-68297678D01*
X129869042Y-68415641D01*
X129927152Y-68524356D01*
X130005354Y-68619646D01*
X130100644Y-68697848D01*
X130209359Y-68755958D01*
X130327322Y-68791741D01*
X130449999Y-68803824D01*
X131175001Y-68803824D01*
X131297678Y-68791741D01*
X131415641Y-68755958D01*
X131524356Y-68697848D01*
X131619646Y-68619646D01*
X131697848Y-68524356D01*
X131755958Y-68415641D01*
X131791741Y-68297678D01*
X131803824Y-68175001D01*
X131803824Y-67615008D01*
X131812263Y-67612448D01*
X131908158Y-67561191D01*
X131992211Y-67492211D01*
X132009500Y-67471144D01*
X132673000Y-66807645D01*
X132673000Y-69646355D01*
X131871356Y-70448000D01*
X131803824Y-70448000D01*
X131803824Y-69924999D01*
X131791741Y-69802322D01*
X131755958Y-69684359D01*
X131697848Y-69575644D01*
X131619646Y-69480354D01*
X131524356Y-69402152D01*
X131415641Y-69344042D01*
X131297678Y-69308259D01*
X131175001Y-69296176D01*
X130449999Y-69296176D01*
X130327322Y-69308259D01*
X130209359Y-69344042D01*
X130100644Y-69402152D01*
X130005354Y-69480354D01*
X129927152Y-69575644D01*
X129869042Y-69684359D01*
X129833259Y-69802322D01*
X129821176Y-69924999D01*
X129821176Y-72075001D01*
X129833259Y-72197678D01*
X129869042Y-72315641D01*
X129927152Y-72424356D01*
X130005354Y-72519646D01*
X130100644Y-72597848D01*
X130209359Y-72655958D01*
X130327322Y-72691741D01*
X130449999Y-72703824D01*
X131175001Y-72703824D01*
X131297678Y-72691741D01*
X131415641Y-72655958D01*
X131524356Y-72597848D01*
X131619646Y-72519646D01*
X131697848Y-72424356D01*
X131755958Y-72315641D01*
X131791741Y-72197678D01*
X131803824Y-72075001D01*
X131803824Y-71552000D01*
X132072894Y-71552000D01*
X132100000Y-71554670D01*
X132127106Y-71552000D01*
X132127109Y-71552000D01*
X132208211Y-71544012D01*
X132312263Y-71512448D01*
X132408158Y-71461191D01*
X132492211Y-71392211D01*
X132509500Y-71371144D01*
X132673000Y-71207644D01*
X132673000Y-73073000D01*
X125225845Y-73073000D01*
X125303536Y-72995309D01*
X125388569Y-72868048D01*
X125447141Y-72726643D01*
X125473164Y-72595813D01*
X125475644Y-72597848D01*
X125584359Y-72655958D01*
X125702322Y-72691741D01*
X125824999Y-72703824D01*
X126550001Y-72703824D01*
X126672678Y-72691741D01*
X126790641Y-72655958D01*
X126899356Y-72597848D01*
X126994646Y-72519646D01*
X127072848Y-72424356D01*
X127130958Y-72315641D01*
X127166741Y-72197678D01*
X127178824Y-72075001D01*
X127178824Y-69924999D01*
X127166741Y-69802322D01*
X127130958Y-69684359D01*
X127072848Y-69575644D01*
X126994646Y-69480354D01*
X126899356Y-69402152D01*
X126790641Y-69344042D01*
X126672678Y-69308259D01*
X126550001Y-69296176D01*
X125824999Y-69296176D01*
X125702322Y-69308259D01*
X125584359Y-69344042D01*
X125475644Y-69402152D01*
X125380354Y-69480354D01*
X125302152Y-69575644D01*
X125244042Y-69684359D01*
X125208259Y-69802322D01*
X125196176Y-69924999D01*
X125196176Y-70445707D01*
X125172891Y-70448000D01*
X125091789Y-70455988D01*
X124987737Y-70487552D01*
X124891842Y-70538809D01*
X124807789Y-70607789D01*
X124790508Y-70628846D01*
X124328851Y-71090505D01*
X124307790Y-71107789D01*
X124249060Y-71179352D01*
X124238809Y-71191843D01*
X124187552Y-71287738D01*
X124172905Y-71336025D01*
X124155989Y-71391789D01*
X124154984Y-71401991D01*
X124145330Y-71500000D01*
X124148001Y-71527115D01*
X124148001Y-71953154D01*
X124096464Y-72004691D01*
X124011431Y-72131952D01*
X123952859Y-72273357D01*
X123923000Y-72423472D01*
X123923000Y-72576528D01*
X123952859Y-72726643D01*
X124011431Y-72868048D01*
X124096464Y-72995309D01*
X124174155Y-73073000D01*
X123325877Y-73073000D01*
X123299999Y-73070451D01*
X123294327Y-73071010D01*
X123395309Y-73003536D01*
X123503536Y-72895309D01*
X123588569Y-72768048D01*
X123647141Y-72626643D01*
X123677000Y-72476528D01*
X123677000Y-72368290D01*
X123854339Y-72190951D01*
X123874448Y-72174448D01*
X123940304Y-72094202D01*
X123989239Y-72002650D01*
X124019374Y-71903310D01*
X124027000Y-71825881D01*
X124027000Y-71825880D01*
X124029549Y-71800001D01*
X124027000Y-71774120D01*
X124027000Y-70005789D01*
X125398364Y-68634426D01*
X125475644Y-68697848D01*
X125584359Y-68755958D01*
X125702322Y-68791741D01*
X125824999Y-68803824D01*
X126550001Y-68803824D01*
X126672678Y-68791741D01*
X126790641Y-68755958D01*
X126899356Y-68697848D01*
X126994646Y-68619646D01*
X127072848Y-68524356D01*
X127130958Y-68415641D01*
X127166741Y-68297678D01*
X127178824Y-68175001D01*
X127178824Y-66024999D01*
X127166741Y-65902322D01*
X127130958Y-65784359D01*
X127072848Y-65675644D01*
X126994646Y-65580354D01*
X126899356Y-65502152D01*
X126790641Y-65444042D01*
X126672678Y-65408259D01*
X126550001Y-65396176D01*
X125824999Y-65396176D01*
X125702322Y-65408259D01*
X125584359Y-65444042D01*
X125475644Y-65502152D01*
X125380354Y-65580354D01*
X125302152Y-65675644D01*
X125244042Y-65784359D01*
X125208259Y-65902322D01*
X125196176Y-66024999D01*
X125196176Y-67346034D01*
X123145662Y-69396549D01*
X123125553Y-69413052D01*
X123070320Y-69480354D01*
X123059696Y-69493299D01*
X123010761Y-69584851D01*
X122980626Y-69684191D01*
X122970451Y-69787500D01*
X122973001Y-69813390D01*
X122973000Y-71581710D01*
X122931710Y-71623000D01*
X122823472Y-71623000D01*
X122673357Y-71652859D01*
X122531952Y-71711431D01*
X122404691Y-71796464D01*
X122296464Y-71904691D01*
X122211431Y-72031952D01*
X122152859Y-72173357D01*
X122123000Y-72323472D01*
X122123000Y-72476528D01*
X122152859Y-72626643D01*
X122211431Y-72768048D01*
X122296464Y-72895309D01*
X122404691Y-73003536D01*
X122531952Y-73088569D01*
X122673357Y-73147141D01*
X122823472Y-73177000D01*
X122976528Y-73177000D01*
X122987331Y-73174851D01*
X122928662Y-73223000D01*
X122823472Y-73223000D01*
X122673357Y-73252859D01*
X122531952Y-73311431D01*
X122404691Y-73396464D01*
X122296464Y-73504691D01*
X122211431Y-73631952D01*
X122152859Y-73773357D01*
X122123000Y-73923472D01*
X122123000Y-74076528D01*
X122152859Y-74226643D01*
X122211431Y-74368048D01*
X122281558Y-74473000D01*
X120271845Y-74473000D01*
X120200845Y-74402000D01*
X120275357Y-74402000D01*
X120300000Y-74404427D01*
X120324643Y-74402000D01*
X120324653Y-74402000D01*
X120398409Y-74394736D01*
X120493036Y-74366031D01*
X120580245Y-74319417D01*
X120656684Y-74256684D01*
X120672401Y-74237533D01*
X120837537Y-74072398D01*
X120856684Y-74056684D01*
X120872397Y-74037538D01*
X120872400Y-74037535D01*
X120919417Y-73980245D01*
X120948651Y-73925552D01*
X120966031Y-73893036D01*
X120984929Y-73830740D01*
X121059055Y-73781210D01*
X121181210Y-73659055D01*
X121277187Y-73515415D01*
X121343297Y-73355811D01*
X121377000Y-73186377D01*
X121377000Y-73013623D01*
X121343297Y-72844189D01*
X121277187Y-72684585D01*
X121181210Y-72540945D01*
X121059055Y-72418790D01*
X120915415Y-72322813D01*
X120755811Y-72256703D01*
X120586377Y-72223000D01*
X120413623Y-72223000D01*
X120244189Y-72256703D01*
X120084585Y-72322813D01*
X119940945Y-72418790D01*
X119818790Y-72540945D01*
X119722813Y-72684585D01*
X119656703Y-72844189D01*
X119623000Y-73013623D01*
X119623000Y-73186377D01*
X119656703Y-73355811D01*
X119674178Y-73398000D01*
X119003824Y-73398000D01*
X119003824Y-72449998D01*
X118991741Y-72327321D01*
X118955958Y-72209358D01*
X118897848Y-72100643D01*
X118819646Y-72005354D01*
X118724357Y-71927152D01*
X118615642Y-71869042D01*
X118497679Y-71833259D01*
X118375002Y-71821176D01*
X117299998Y-71821176D01*
X117177321Y-71833259D01*
X117059358Y-71869042D01*
X116950643Y-71927152D01*
X116855354Y-72005354D01*
X116777152Y-72100643D01*
X116719042Y-72209358D01*
X116683259Y-72327321D01*
X116671176Y-72449998D01*
X116671176Y-74556390D01*
X116562463Y-74665103D01*
X116543317Y-74680816D01*
X116527604Y-74699962D01*
X116527601Y-74699965D01*
X116480584Y-74757255D01*
X116433970Y-74844464D01*
X116405265Y-74939091D01*
X116395573Y-75037500D01*
X116398001Y-75062153D01*
X116398000Y-75803155D01*
X116296464Y-75904691D01*
X116211431Y-76031952D01*
X116152859Y-76173357D01*
X116123000Y-76323472D01*
X116123000Y-76476528D01*
X116152859Y-76626643D01*
X116192771Y-76723000D01*
X115207229Y-76723000D01*
X115247141Y-76626643D01*
X115277000Y-76476528D01*
X115277000Y-76323472D01*
X115247141Y-76173357D01*
X115188569Y-76031952D01*
X115103536Y-75904691D01*
X115002000Y-75803155D01*
X115002000Y-75762142D01*
X115004427Y-75737499D01*
X115002000Y-75712856D01*
X115002000Y-75712847D01*
X114994736Y-75639091D01*
X114966031Y-75544464D01*
X114919417Y-75457255D01*
X114856684Y-75380816D01*
X114837538Y-75365103D01*
X114728824Y-75256389D01*
X114728824Y-72449998D01*
X114716741Y-72327321D01*
X114680958Y-72209358D01*
X114622848Y-72100643D01*
X114544646Y-72005354D01*
X114449357Y-71927152D01*
X114340642Y-71869042D01*
X114222679Y-71833259D01*
X114100002Y-71821176D01*
X113024998Y-71821176D01*
X112902321Y-71833259D01*
X112784358Y-71869042D01*
X112675643Y-71927152D01*
X112580354Y-72005354D01*
X112502152Y-72100643D01*
X112444042Y-72209358D01*
X112408259Y-72327321D01*
X112396176Y-72449998D01*
X112396176Y-75256390D01*
X112154566Y-75498000D01*
X112019333Y-75498000D01*
X111981210Y-75440945D01*
X111859055Y-75318790D01*
X111715415Y-75222813D01*
X111555811Y-75156703D01*
X111386377Y-75123000D01*
X111213623Y-75123000D01*
X111044189Y-75156703D01*
X110884585Y-75222813D01*
X110740945Y-75318790D01*
X110618790Y-75440945D01*
X110522813Y-75584585D01*
X110456703Y-75744189D01*
X110423000Y-75913623D01*
X110423000Y-76086377D01*
X110456703Y-76255811D01*
X110522813Y-76415415D01*
X110618790Y-76559055D01*
X110740945Y-76681210D01*
X110884585Y-76777187D01*
X111044189Y-76843297D01*
X111213623Y-76877000D01*
X111386377Y-76877000D01*
X111555811Y-76843297D01*
X111715415Y-76777187D01*
X111859055Y-76681210D01*
X111981210Y-76559055D01*
X112019333Y-76502000D01*
X112337857Y-76502000D01*
X112362500Y-76504427D01*
X112387143Y-76502000D01*
X112387153Y-76502000D01*
X112460909Y-76494736D01*
X112555536Y-76466031D01*
X112642745Y-76419417D01*
X112719184Y-76356684D01*
X112734901Y-76337533D01*
X113093610Y-75978824D01*
X113846930Y-75978824D01*
X113811431Y-76031952D01*
X113752859Y-76173357D01*
X113723000Y-76323472D01*
X113723000Y-76476528D01*
X113752859Y-76626643D01*
X113792771Y-76723000D01*
X112400000Y-76723000D01*
X112363047Y-76724815D01*
X112167957Y-76744030D01*
X112095474Y-76758448D01*
X111907881Y-76815353D01*
X111839600Y-76843636D01*
X111666713Y-76936046D01*
X111605264Y-76977105D01*
X111453727Y-77101468D01*
X111401468Y-77153727D01*
X111277105Y-77305264D01*
X111236046Y-77366713D01*
X111143636Y-77539600D01*
X111115353Y-77607881D01*
X111058448Y-77795474D01*
X111044030Y-77867957D01*
X111024815Y-78063047D01*
X111023000Y-78100000D01*
X111023000Y-78781475D01*
X111009239Y-78921187D01*
X110973891Y-79037715D01*
X110916489Y-79145107D01*
X110839238Y-79239238D01*
X110745107Y-79316489D01*
X110637715Y-79373891D01*
X110521187Y-79409239D01*
X110381475Y-79423000D01*
X110307229Y-79423000D01*
X110347141Y-79326643D01*
X110377000Y-79176528D01*
X110377000Y-79023472D01*
X110347141Y-78873357D01*
X110288569Y-78731952D01*
X110203536Y-78604691D01*
X110095309Y-78496464D01*
X109968048Y-78411431D01*
X109826643Y-78352859D01*
X109676528Y-78323000D01*
X109523472Y-78323000D01*
X109373357Y-78352859D01*
X109231952Y-78411431D01*
X109163089Y-78457444D01*
X109147191Y-78441545D01*
X109222848Y-78349356D01*
X109280958Y-78240641D01*
X109316741Y-78122678D01*
X109328824Y-78000001D01*
X109328824Y-77349999D01*
X109316741Y-77227322D01*
X109280958Y-77109359D01*
X109222848Y-77000644D01*
X109144646Y-76905354D01*
X109049356Y-76827152D01*
X108940641Y-76769042D01*
X108822678Y-76733259D01*
X108700001Y-76721176D01*
X106499999Y-76721176D01*
X106377322Y-76733259D01*
X106259359Y-76769042D01*
X106150644Y-76827152D01*
X106055354Y-76905354D01*
X105977152Y-77000644D01*
X105919042Y-77109359D01*
X105883259Y-77227322D01*
X105871176Y-77349999D01*
X105871176Y-78000001D01*
X105883259Y-78122678D01*
X105919042Y-78240641D01*
X105977152Y-78349356D01*
X106055354Y-78444646D01*
X106150644Y-78522848D01*
X106259359Y-78580958D01*
X106377322Y-78616741D01*
X106499999Y-78628824D01*
X107773179Y-78628824D01*
X108567354Y-79423000D01*
X107900000Y-79423000D01*
X107863047Y-79424815D01*
X107667957Y-79444030D01*
X107595474Y-79458448D01*
X107407881Y-79515353D01*
X107339600Y-79543636D01*
X107166713Y-79636046D01*
X107105264Y-79677105D01*
X106953727Y-79801468D01*
X106901468Y-79853727D01*
X106777105Y-80005264D01*
X106736046Y-80066713D01*
X106643636Y-80239600D01*
X106615353Y-80307881D01*
X106558448Y-80495474D01*
X106544030Y-80567957D01*
X106524815Y-80763047D01*
X106523000Y-80800000D01*
X106523000Y-82600000D01*
X106524815Y-82636953D01*
X106544030Y-82832043D01*
X106558448Y-82904526D01*
X106615353Y-83092119D01*
X106643636Y-83160400D01*
X106736046Y-83333287D01*
X106777105Y-83394736D01*
X106901468Y-83546273D01*
X106953727Y-83598532D01*
X107105264Y-83722895D01*
X107166713Y-83763954D01*
X107339600Y-83856364D01*
X107407881Y-83884647D01*
X107595474Y-83941552D01*
X107659240Y-83954236D01*
X107488972Y-84093972D01*
X107333141Y-84283852D01*
X107217348Y-84500485D01*
X107146044Y-84735545D01*
X107121967Y-84980000D01*
X107146044Y-85224455D01*
X107217348Y-85459515D01*
X107333141Y-85676148D01*
X107488972Y-85866028D01*
X107678852Y-86021859D01*
X107895485Y-86137652D01*
X108130545Y-86208956D01*
X108313747Y-86227000D01*
X108886253Y-86227000D01*
X109069455Y-86208956D01*
X109304515Y-86137652D01*
X109521148Y-86021859D01*
X109711028Y-85866028D01*
X109723000Y-85851440D01*
X109723000Y-86648560D01*
X109711028Y-86633972D01*
X109521148Y-86478141D01*
X109304515Y-86362348D01*
X109069455Y-86291044D01*
X108886253Y-86273000D01*
X108313747Y-86273000D01*
X108130545Y-86291044D01*
X107895485Y-86362348D01*
X107678852Y-86478141D01*
X107488972Y-86633972D01*
X107333141Y-86823852D01*
X107217348Y-87040485D01*
X107146044Y-87275545D01*
X107121967Y-87520000D01*
X107146044Y-87764455D01*
X107217348Y-87999515D01*
X107333141Y-88216148D01*
X107488972Y-88406028D01*
X107678852Y-88561859D01*
X107895485Y-88677652D01*
X108130545Y-88748956D01*
X108313747Y-88767000D01*
X108886253Y-88767000D01*
X109069455Y-88748956D01*
X109304515Y-88677652D01*
X109521148Y-88561859D01*
X109711028Y-88406028D01*
X109723000Y-88391440D01*
X109723000Y-89188560D01*
X109711028Y-89173972D01*
X109521148Y-89018141D01*
X109304515Y-88902348D01*
X109069455Y-88831044D01*
X108886253Y-88813000D01*
X108313747Y-88813000D01*
X108130545Y-88831044D01*
X107895485Y-88902348D01*
X107678852Y-89018141D01*
X107488972Y-89173972D01*
X107333141Y-89363852D01*
X107217348Y-89580485D01*
X107146044Y-89815545D01*
X107121967Y-90060000D01*
X107146044Y-90304455D01*
X107217348Y-90539515D01*
X107333141Y-90756148D01*
X107488972Y-90946028D01*
X107678852Y-91101859D01*
X107895485Y-91217652D01*
X108130545Y-91288956D01*
X108313747Y-91307000D01*
X108886253Y-91307000D01*
X109069455Y-91288956D01*
X109304515Y-91217652D01*
X109521148Y-91101859D01*
X109711028Y-90946028D01*
X109866859Y-90756148D01*
X109934288Y-90629998D01*
X109936046Y-90633287D01*
X109977105Y-90694736D01*
X110101468Y-90846273D01*
X110153727Y-90898532D01*
X110305264Y-91022895D01*
X110366713Y-91063954D01*
X110539600Y-91156364D01*
X110607881Y-91184647D01*
X110795474Y-91241552D01*
X110867957Y-91255970D01*
X111063047Y-91275185D01*
X111100000Y-91277000D01*
X111231710Y-91277000D01*
X111709053Y-91754344D01*
X111725552Y-91774448D01*
X111805798Y-91840304D01*
X111897350Y-91889239D01*
X111996690Y-91919374D01*
X112100000Y-91929549D01*
X112125881Y-91927000D01*
X112428155Y-91927000D01*
X112504691Y-92003536D01*
X112631952Y-92088569D01*
X112773357Y-92147141D01*
X112923472Y-92177000D01*
X113076528Y-92177000D01*
X113226643Y-92147141D01*
X113368048Y-92088569D01*
X113495309Y-92003536D01*
X113603536Y-91895309D01*
X113688569Y-91768048D01*
X113747141Y-91626643D01*
X113777000Y-91476528D01*
X113777000Y-91323472D01*
X113767756Y-91277000D01*
X119000000Y-91277000D01*
X119042209Y-91274630D01*
X119123000Y-91265527D01*
X119123000Y-92700000D01*
X119126462Y-92735308D01*
X119129678Y-92770643D01*
X119130051Y-92771910D01*
X119130180Y-92773226D01*
X119140445Y-92807225D01*
X119150452Y-92841227D01*
X119151063Y-92842396D01*
X119151446Y-92843664D01*
X119168126Y-92875034D01*
X119184540Y-92906431D01*
X119185368Y-92907460D01*
X119185989Y-92908629D01*
X119208428Y-92936142D01*
X119230644Y-92963773D01*
X119231657Y-92964623D01*
X119232492Y-92965647D01*
X119259806Y-92988243D01*
X119287007Y-93011068D01*
X119288167Y-93011706D01*
X119289184Y-93012547D01*
X119320340Y-93029393D01*
X119351484Y-93046514D01*
X119352746Y-93046914D01*
X119353907Y-93047542D01*
X119387738Y-93058015D01*
X119421617Y-93068762D01*
X119422933Y-93068910D01*
X119424194Y-93069300D01*
X119459488Y-93073010D01*
X119494736Y-93076963D01*
X119497271Y-93076981D01*
X119497368Y-93076991D01*
X119497465Y-93076982D01*
X119500000Y-93077000D01*
X121500000Y-93077000D01*
X121535308Y-93073538D01*
X121570643Y-93070322D01*
X121571910Y-93069949D01*
X121573226Y-93069820D01*
X121607225Y-93059555D01*
X121641227Y-93049548D01*
X121642396Y-93048937D01*
X121643664Y-93048554D01*
X121675034Y-93031874D01*
X121706431Y-93015460D01*
X121707460Y-93014632D01*
X121708629Y-93014011D01*
X121736142Y-92991572D01*
X121763773Y-92969356D01*
X121764623Y-92968343D01*
X121765647Y-92967508D01*
X121788243Y-92940194D01*
X121811068Y-92912993D01*
X121811706Y-92911833D01*
X121812547Y-92910816D01*
X121829393Y-92879660D01*
X121846514Y-92848516D01*
X121846914Y-92847254D01*
X121847542Y-92846093D01*
X121858015Y-92812262D01*
X121868762Y-92778383D01*
X121868910Y-92777067D01*
X121869300Y-92775806D01*
X121873010Y-92740512D01*
X121876963Y-92705264D01*
X121876981Y-92702729D01*
X121876991Y-92702632D01*
X121876982Y-92702535D01*
X121877000Y-92700000D01*
X121877000Y-89877000D01*
X130900000Y-89877000D01*
X130936953Y-89875185D01*
X131132043Y-89855970D01*
X131204526Y-89841552D01*
X131392119Y-89784647D01*
X131460400Y-89756364D01*
X131633287Y-89663954D01*
X131694736Y-89622895D01*
X131846273Y-89498532D01*
X131898532Y-89446273D01*
X132022895Y-89294736D01*
X132063954Y-89233287D01*
X132156364Y-89060400D01*
X132184647Y-88992119D01*
X132241552Y-88804526D01*
X132255970Y-88732043D01*
X132275185Y-88536953D01*
X132277000Y-88500000D01*
X132277000Y-80052000D01*
X133471356Y-80052000D01*
X134390504Y-80971149D01*
X134407789Y-80992211D01*
X134491842Y-81061191D01*
X134587737Y-81112448D01*
X134691789Y-81144012D01*
X134772891Y-81152000D01*
X134772894Y-81152000D01*
X134800000Y-81154670D01*
X134827106Y-81152000D01*
X141871356Y-81152000D01*
X142006492Y-81287136D01*
X141975012Y-81346030D01*
X141953455Y-81417095D01*
X141946176Y-81491000D01*
X141946176Y-86091000D01*
X141953455Y-86164905D01*
X141975012Y-86235970D01*
X142010019Y-86301463D01*
X142057131Y-86358869D01*
X142114537Y-86405981D01*
X142180030Y-86440988D01*
X142251095Y-86462545D01*
X142325000Y-86469824D01*
X143425000Y-86469824D01*
X143498905Y-86462545D01*
X143569970Y-86440988D01*
X143635463Y-86405981D01*
X143692869Y-86358869D01*
X143739981Y-86301463D01*
X143774988Y-86235970D01*
X143796545Y-86164905D01*
X143803824Y-86091000D01*
X143803824Y-81491000D01*
X143796545Y-81417095D01*
X143774988Y-81346030D01*
X143739981Y-81280537D01*
X143692869Y-81223131D01*
X143635463Y-81176019D01*
X143590527Y-81152000D01*
X153740366Y-81152000D01*
X153737030Y-81153012D01*
X153671537Y-81188019D01*
X153614131Y-81235131D01*
X153567019Y-81292537D01*
X153532012Y-81358030D01*
X153510455Y-81429095D01*
X153503176Y-81503000D01*
X153503176Y-86103000D01*
X153510455Y-86176905D01*
X153532012Y-86247970D01*
X153567019Y-86313463D01*
X153614131Y-86370869D01*
X153671537Y-86417981D01*
X153737030Y-86452988D01*
X153808095Y-86474545D01*
X153882000Y-86481824D01*
X154982000Y-86481824D01*
X155055905Y-86474545D01*
X155126970Y-86452988D01*
X155192463Y-86417981D01*
X155249869Y-86370869D01*
X155296981Y-86313463D01*
X155331988Y-86247970D01*
X155353545Y-86176905D01*
X155360824Y-86103000D01*
X155360824Y-81503000D01*
X155353545Y-81429095D01*
X155331988Y-81358030D01*
X155296981Y-81292537D01*
X155249869Y-81235131D01*
X155192463Y-81188019D01*
X155126970Y-81153012D01*
X155055905Y-81131455D01*
X154984000Y-81124373D01*
X154984000Y-81059097D01*
X154986669Y-81031999D01*
X154984000Y-81004901D01*
X154984000Y-81004891D01*
X154976012Y-80923789D01*
X154944448Y-80819737D01*
X154904585Y-80745159D01*
X154900225Y-80737000D01*
X155441624Y-80737000D01*
X155524622Y-80745159D01*
X155568502Y-80758443D01*
X155608958Y-80780019D01*
X155644434Y-80809055D01*
X155673583Y-80844451D01*
X155695279Y-80884843D01*
X155708694Y-80928681D01*
X155717101Y-81011647D01*
X155759017Y-95005277D01*
X155762896Y-95079814D01*
X155782621Y-95274479D01*
X155812091Y-95420630D01*
X155869344Y-95607728D01*
X155926708Y-95745344D01*
X156019297Y-95917712D01*
X156102362Y-96041526D01*
X156226743Y-96192565D01*
X156332327Y-96297832D01*
X156483738Y-96421760D01*
X156607798Y-96504453D01*
X156780443Y-96596526D01*
X156918232Y-96653479D01*
X157105500Y-96710171D01*
X157251738Y-96739203D01*
X157446461Y-96758345D01*
X157521009Y-96762000D01*
X173500000Y-96762000D01*
X173574690Y-96758331D01*
X173769780Y-96739116D01*
X173916284Y-96709974D01*
X174103877Y-96653069D01*
X174241887Y-96595904D01*
X174298000Y-96565911D01*
X174298000Y-102048776D01*
X174225362Y-102184672D01*
X174116870Y-102316870D01*
X173984672Y-102425362D01*
X173848776Y-102498000D01*
X89551224Y-102498000D01*
X89415328Y-102425362D01*
X89283130Y-102316870D01*
X89174638Y-102184672D01*
X89102000Y-102048776D01*
X89102000Y-97611716D01*
X149373000Y-97611716D01*
X149373000Y-98188284D01*
X149485482Y-98753775D01*
X149706126Y-99286455D01*
X150026450Y-99765854D01*
X150434146Y-100173550D01*
X150913545Y-100493874D01*
X151446225Y-100714518D01*
X152011716Y-100827000D01*
X152588284Y-100827000D01*
X153153775Y-100714518D01*
X153686455Y-100493874D01*
X154165854Y-100173550D01*
X154573550Y-99765854D01*
X154893874Y-99286455D01*
X155114518Y-98753775D01*
X155227000Y-98188284D01*
X155227000Y-97611716D01*
X155114518Y-97046225D01*
X154893874Y-96513545D01*
X154573550Y-96034146D01*
X154165854Y-95626450D01*
X153686455Y-95306126D01*
X153153775Y-95085482D01*
X152588284Y-94973000D01*
X152011716Y-94973000D01*
X151446225Y-95085482D01*
X150913545Y-95306126D01*
X150434146Y-95626450D01*
X150026450Y-96034146D01*
X149706126Y-96513545D01*
X149485482Y-97046225D01*
X149373000Y-97611716D01*
X89102000Y-97611716D01*
X89102000Y-91979999D01*
X107126176Y-91979999D01*
X107126176Y-93220001D01*
X107138259Y-93342678D01*
X107174042Y-93460641D01*
X107232152Y-93569356D01*
X107310354Y-93664646D01*
X107405644Y-93742848D01*
X107514359Y-93800958D01*
X107632322Y-93836741D01*
X107754999Y-93848824D01*
X109445001Y-93848824D01*
X109567678Y-93836741D01*
X109685641Y-93800958D01*
X109794356Y-93742848D01*
X109889646Y-93664646D01*
X109967848Y-93569356D01*
X110025958Y-93460641D01*
X110061741Y-93342678D01*
X110073824Y-93220001D01*
X110073824Y-91979999D01*
X110061741Y-91857322D01*
X110025958Y-91739359D01*
X109967848Y-91630644D01*
X109889646Y-91535354D01*
X109794356Y-91457152D01*
X109685641Y-91399042D01*
X109567678Y-91363259D01*
X109445001Y-91351176D01*
X107754999Y-91351176D01*
X107632322Y-91363259D01*
X107514359Y-91399042D01*
X107405644Y-91457152D01*
X107310354Y-91535354D01*
X107232152Y-91630644D01*
X107174042Y-91739359D01*
X107138259Y-91857322D01*
X107126176Y-91979999D01*
X89102000Y-91979999D01*
X89102000Y-72011716D01*
X90273000Y-72011716D01*
X90273000Y-72588284D01*
X90385482Y-73153775D01*
X90606126Y-73686455D01*
X90926450Y-74165854D01*
X91334146Y-74573550D01*
X91813545Y-74893874D01*
X92346225Y-75114518D01*
X92911716Y-75227000D01*
X93488284Y-75227000D01*
X94053775Y-75114518D01*
X94586455Y-74893874D01*
X95065854Y-74573550D01*
X95473550Y-74165854D01*
X95793874Y-73686455D01*
X96014518Y-73153775D01*
X96127000Y-72588284D01*
X96127000Y-72011716D01*
X96014518Y-71446225D01*
X95793874Y-70913545D01*
X95473550Y-70434146D01*
X95065854Y-70026450D01*
X94586455Y-69706126D01*
X94053775Y-69485482D01*
X93488284Y-69373000D01*
X92911716Y-69373000D01*
X92346225Y-69485482D01*
X91813545Y-69706126D01*
X91334146Y-70026450D01*
X90926450Y-70434146D01*
X90606126Y-70913545D01*
X90385482Y-71446225D01*
X90273000Y-72011716D01*
X89102000Y-72011716D01*
X89102000Y-61200026D01*
X89450987Y-61549013D01*
X89547213Y-61627983D01*
X89656996Y-61686664D01*
X89776118Y-61722799D01*
X89900000Y-61735000D01*
X103400000Y-61735000D01*
X103523882Y-61722799D01*
X103643004Y-61686664D01*
X103752787Y-61627983D01*
X103849013Y-61549013D01*
X104849013Y-60549013D01*
X104927983Y-60452787D01*
X104986664Y-60343004D01*
X105022799Y-60223882D01*
X105035000Y-60100000D01*
X105035000Y-57963026D01*
X105663026Y-57335000D01*
X131136974Y-57335000D01*
X131765000Y-57963026D01*
G04 #@! TA.AperFunction,Conductor*
D28*
G36*
X131765000Y-57963026D02*
G01*
X131765000Y-61000000D01*
X131777343Y-61124592D01*
X131813614Y-61243672D01*
X131872419Y-61353388D01*
X131951499Y-61449524D01*
X132673000Y-62169384D01*
X132673000Y-63928155D01*
X132596464Y-64004691D01*
X132511431Y-64131952D01*
X132452859Y-64273357D01*
X132423000Y-64423472D01*
X132423000Y-64576528D01*
X132452859Y-64726643D01*
X132511431Y-64868048D01*
X132596464Y-64995309D01*
X132648000Y-65046845D01*
X132648000Y-65271354D01*
X131803824Y-66115531D01*
X131803824Y-66024999D01*
X131791741Y-65902322D01*
X131755958Y-65784359D01*
X131697848Y-65675644D01*
X131619646Y-65580354D01*
X131524356Y-65502152D01*
X131415641Y-65444042D01*
X131297678Y-65408259D01*
X131175001Y-65396176D01*
X130449999Y-65396176D01*
X130327322Y-65408259D01*
X130209359Y-65444042D01*
X130100644Y-65502152D01*
X130005354Y-65580354D01*
X129927152Y-65675644D01*
X129869042Y-65784359D01*
X129833259Y-65902322D01*
X129821176Y-66024999D01*
X129821176Y-68175001D01*
X129833259Y-68297678D01*
X129869042Y-68415641D01*
X129927152Y-68524356D01*
X130005354Y-68619646D01*
X130100644Y-68697848D01*
X130209359Y-68755958D01*
X130327322Y-68791741D01*
X130449999Y-68803824D01*
X131175001Y-68803824D01*
X131297678Y-68791741D01*
X131415641Y-68755958D01*
X131524356Y-68697848D01*
X131619646Y-68619646D01*
X131697848Y-68524356D01*
X131755958Y-68415641D01*
X131791741Y-68297678D01*
X131803824Y-68175001D01*
X131803824Y-67615008D01*
X131812263Y-67612448D01*
X131908158Y-67561191D01*
X131992211Y-67492211D01*
X132009500Y-67471144D01*
X132673000Y-66807645D01*
X132673000Y-69646355D01*
X131871356Y-70448000D01*
X131803824Y-70448000D01*
X131803824Y-69924999D01*
X131791741Y-69802322D01*
X131755958Y-69684359D01*
X131697848Y-69575644D01*
X131619646Y-69480354D01*
X131524356Y-69402152D01*
X131415641Y-69344042D01*
X131297678Y-69308259D01*
X131175001Y-69296176D01*
X130449999Y-69296176D01*
X130327322Y-69308259D01*
X130209359Y-69344042D01*
X130100644Y-69402152D01*
X130005354Y-69480354D01*
X129927152Y-69575644D01*
X129869042Y-69684359D01*
X129833259Y-69802322D01*
X129821176Y-69924999D01*
X129821176Y-72075001D01*
X129833259Y-72197678D01*
X129869042Y-72315641D01*
X129927152Y-72424356D01*
X130005354Y-72519646D01*
X130100644Y-72597848D01*
X130209359Y-72655958D01*
X130327322Y-72691741D01*
X130449999Y-72703824D01*
X131175001Y-72703824D01*
X131297678Y-72691741D01*
X131415641Y-72655958D01*
X131524356Y-72597848D01*
X131619646Y-72519646D01*
X131697848Y-72424356D01*
X131755958Y-72315641D01*
X131791741Y-72197678D01*
X131803824Y-72075001D01*
X131803824Y-71552000D01*
X132072894Y-71552000D01*
X132100000Y-71554670D01*
X132127106Y-71552000D01*
X132127109Y-71552000D01*
X132208211Y-71544012D01*
X132312263Y-71512448D01*
X132408158Y-71461191D01*
X132492211Y-71392211D01*
X132509500Y-71371144D01*
X132673000Y-71207644D01*
X132673000Y-73073000D01*
X125225845Y-73073000D01*
X125303536Y-72995309D01*
X125388569Y-72868048D01*
X125447141Y-72726643D01*
X125473164Y-72595813D01*
X125475644Y-72597848D01*
X125584359Y-72655958D01*
X125702322Y-72691741D01*
X125824999Y-72703824D01*
X126550001Y-72703824D01*
X126672678Y-72691741D01*
X126790641Y-72655958D01*
X126899356Y-72597848D01*
X126994646Y-72519646D01*
X127072848Y-72424356D01*
X127130958Y-72315641D01*
X127166741Y-72197678D01*
X127178824Y-72075001D01*
X127178824Y-69924999D01*
X127166741Y-69802322D01*
X127130958Y-69684359D01*
X127072848Y-69575644D01*
X126994646Y-69480354D01*
X126899356Y-69402152D01*
X126790641Y-69344042D01*
X126672678Y-69308259D01*
X126550001Y-69296176D01*
X125824999Y-69296176D01*
X125702322Y-69308259D01*
X125584359Y-69344042D01*
X125475644Y-69402152D01*
X125380354Y-69480354D01*
X125302152Y-69575644D01*
X125244042Y-69684359D01*
X125208259Y-69802322D01*
X125196176Y-69924999D01*
X125196176Y-70445707D01*
X125172891Y-70448000D01*
X125091789Y-70455988D01*
X124987737Y-70487552D01*
X124891842Y-70538809D01*
X124807789Y-70607789D01*
X124790508Y-70628846D01*
X124328851Y-71090505D01*
X124307790Y-71107789D01*
X124249060Y-71179352D01*
X124238809Y-71191843D01*
X124187552Y-71287738D01*
X124172905Y-71336025D01*
X124155989Y-71391789D01*
X124154984Y-71401991D01*
X124145330Y-71500000D01*
X124148001Y-71527115D01*
X124148001Y-71953154D01*
X124096464Y-72004691D01*
X124011431Y-72131952D01*
X123952859Y-72273357D01*
X123923000Y-72423472D01*
X123923000Y-72576528D01*
X123952859Y-72726643D01*
X124011431Y-72868048D01*
X124096464Y-72995309D01*
X124174155Y-73073000D01*
X123325877Y-73073000D01*
X123299999Y-73070451D01*
X123294327Y-73071010D01*
X123395309Y-73003536D01*
X123503536Y-72895309D01*
X123588569Y-72768048D01*
X123647141Y-72626643D01*
X123677000Y-72476528D01*
X123677000Y-72368290D01*
X123854339Y-72190951D01*
X123874448Y-72174448D01*
X123940304Y-72094202D01*
X123989239Y-72002650D01*
X124019374Y-71903310D01*
X124027000Y-71825881D01*
X124027000Y-71825880D01*
X124029549Y-71800001D01*
X124027000Y-71774120D01*
X124027000Y-70005789D01*
X125398364Y-68634426D01*
X125475644Y-68697848D01*
X125584359Y-68755958D01*
X125702322Y-68791741D01*
X125824999Y-68803824D01*
X126550001Y-68803824D01*
X126672678Y-68791741D01*
X126790641Y-68755958D01*
X126899356Y-68697848D01*
X126994646Y-68619646D01*
X127072848Y-68524356D01*
X127130958Y-68415641D01*
X127166741Y-68297678D01*
X127178824Y-68175001D01*
X127178824Y-66024999D01*
X127166741Y-65902322D01*
X127130958Y-65784359D01*
X127072848Y-65675644D01*
X126994646Y-65580354D01*
X126899356Y-65502152D01*
X126790641Y-65444042D01*
X126672678Y-65408259D01*
X126550001Y-65396176D01*
X125824999Y-65396176D01*
X125702322Y-65408259D01*
X125584359Y-65444042D01*
X125475644Y-65502152D01*
X125380354Y-65580354D01*
X125302152Y-65675644D01*
X125244042Y-65784359D01*
X125208259Y-65902322D01*
X125196176Y-66024999D01*
X125196176Y-67346034D01*
X123145662Y-69396549D01*
X123125553Y-69413052D01*
X123070320Y-69480354D01*
X123059696Y-69493299D01*
X123010761Y-69584851D01*
X122980626Y-69684191D01*
X122970451Y-69787500D01*
X122973001Y-69813390D01*
X122973000Y-71581710D01*
X122931710Y-71623000D01*
X122823472Y-71623000D01*
X122673357Y-71652859D01*
X122531952Y-71711431D01*
X122404691Y-71796464D01*
X122296464Y-71904691D01*
X122211431Y-72031952D01*
X122152859Y-72173357D01*
X122123000Y-72323472D01*
X122123000Y-72476528D01*
X122152859Y-72626643D01*
X122211431Y-72768048D01*
X122296464Y-72895309D01*
X122404691Y-73003536D01*
X122531952Y-73088569D01*
X122673357Y-73147141D01*
X122823472Y-73177000D01*
X122976528Y-73177000D01*
X122987331Y-73174851D01*
X122928662Y-73223000D01*
X122823472Y-73223000D01*
X122673357Y-73252859D01*
X122531952Y-73311431D01*
X122404691Y-73396464D01*
X122296464Y-73504691D01*
X122211431Y-73631952D01*
X122152859Y-73773357D01*
X122123000Y-73923472D01*
X122123000Y-74076528D01*
X122152859Y-74226643D01*
X122211431Y-74368048D01*
X122281558Y-74473000D01*
X120271845Y-74473000D01*
X120200845Y-74402000D01*
X120275357Y-74402000D01*
X120300000Y-74404427D01*
X120324643Y-74402000D01*
X120324653Y-74402000D01*
X120398409Y-74394736D01*
X120493036Y-74366031D01*
X120580245Y-74319417D01*
X120656684Y-74256684D01*
X120672401Y-74237533D01*
X120837537Y-74072398D01*
X120856684Y-74056684D01*
X120872397Y-74037538D01*
X120872400Y-74037535D01*
X120919417Y-73980245D01*
X120948651Y-73925552D01*
X120966031Y-73893036D01*
X120984929Y-73830740D01*
X121059055Y-73781210D01*
X121181210Y-73659055D01*
X121277187Y-73515415D01*
X121343297Y-73355811D01*
X121377000Y-73186377D01*
X121377000Y-73013623D01*
X121343297Y-72844189D01*
X121277187Y-72684585D01*
X121181210Y-72540945D01*
X121059055Y-72418790D01*
X120915415Y-72322813D01*
X120755811Y-72256703D01*
X120586377Y-72223000D01*
X120413623Y-72223000D01*
X120244189Y-72256703D01*
X120084585Y-72322813D01*
X119940945Y-72418790D01*
X119818790Y-72540945D01*
X119722813Y-72684585D01*
X119656703Y-72844189D01*
X119623000Y-73013623D01*
X119623000Y-73186377D01*
X119656703Y-73355811D01*
X119674178Y-73398000D01*
X119003824Y-73398000D01*
X119003824Y-72449998D01*
X118991741Y-72327321D01*
X118955958Y-72209358D01*
X118897848Y-72100643D01*
X118819646Y-72005354D01*
X118724357Y-71927152D01*
X118615642Y-71869042D01*
X118497679Y-71833259D01*
X118375002Y-71821176D01*
X117299998Y-71821176D01*
X117177321Y-71833259D01*
X117059358Y-71869042D01*
X116950643Y-71927152D01*
X116855354Y-72005354D01*
X116777152Y-72100643D01*
X116719042Y-72209358D01*
X116683259Y-72327321D01*
X116671176Y-72449998D01*
X116671176Y-74556390D01*
X116562463Y-74665103D01*
X116543317Y-74680816D01*
X116527604Y-74699962D01*
X116527601Y-74699965D01*
X116480584Y-74757255D01*
X116433970Y-74844464D01*
X116405265Y-74939091D01*
X116395573Y-75037500D01*
X116398001Y-75062153D01*
X116398000Y-75803155D01*
X116296464Y-75904691D01*
X116211431Y-76031952D01*
X116152859Y-76173357D01*
X116123000Y-76323472D01*
X116123000Y-76476528D01*
X116152859Y-76626643D01*
X116192771Y-76723000D01*
X115207229Y-76723000D01*
X115247141Y-76626643D01*
X115277000Y-76476528D01*
X115277000Y-76323472D01*
X115247141Y-76173357D01*
X115188569Y-76031952D01*
X115103536Y-75904691D01*
X115002000Y-75803155D01*
X115002000Y-75762142D01*
X115004427Y-75737499D01*
X115002000Y-75712856D01*
X115002000Y-75712847D01*
X114994736Y-75639091D01*
X114966031Y-75544464D01*
X114919417Y-75457255D01*
X114856684Y-75380816D01*
X114837538Y-75365103D01*
X114728824Y-75256389D01*
X114728824Y-72449998D01*
X114716741Y-72327321D01*
X114680958Y-72209358D01*
X114622848Y-72100643D01*
X114544646Y-72005354D01*
X114449357Y-71927152D01*
X114340642Y-71869042D01*
X114222679Y-71833259D01*
X114100002Y-71821176D01*
X113024998Y-71821176D01*
X112902321Y-71833259D01*
X112784358Y-71869042D01*
X112675643Y-71927152D01*
X112580354Y-72005354D01*
X112502152Y-72100643D01*
X112444042Y-72209358D01*
X112408259Y-72327321D01*
X112396176Y-72449998D01*
X112396176Y-75256390D01*
X112154566Y-75498000D01*
X112019333Y-75498000D01*
X111981210Y-75440945D01*
X111859055Y-75318790D01*
X111715415Y-75222813D01*
X111555811Y-75156703D01*
X111386377Y-75123000D01*
X111213623Y-75123000D01*
X111044189Y-75156703D01*
X110884585Y-75222813D01*
X110740945Y-75318790D01*
X110618790Y-75440945D01*
X110522813Y-75584585D01*
X110456703Y-75744189D01*
X110423000Y-75913623D01*
X110423000Y-76086377D01*
X110456703Y-76255811D01*
X110522813Y-76415415D01*
X110618790Y-76559055D01*
X110740945Y-76681210D01*
X110884585Y-76777187D01*
X111044189Y-76843297D01*
X111213623Y-76877000D01*
X111386377Y-76877000D01*
X111555811Y-76843297D01*
X111715415Y-76777187D01*
X111859055Y-76681210D01*
X111981210Y-76559055D01*
X112019333Y-76502000D01*
X112337857Y-76502000D01*
X112362500Y-76504427D01*
X112387143Y-76502000D01*
X112387153Y-76502000D01*
X112460909Y-76494736D01*
X112555536Y-76466031D01*
X112642745Y-76419417D01*
X112719184Y-76356684D01*
X112734901Y-76337533D01*
X113093610Y-75978824D01*
X113846930Y-75978824D01*
X113811431Y-76031952D01*
X113752859Y-76173357D01*
X113723000Y-76323472D01*
X113723000Y-76476528D01*
X113752859Y-76626643D01*
X113792771Y-76723000D01*
X112400000Y-76723000D01*
X112363047Y-76724815D01*
X112167957Y-76744030D01*
X112095474Y-76758448D01*
X111907881Y-76815353D01*
X111839600Y-76843636D01*
X111666713Y-76936046D01*
X111605264Y-76977105D01*
X111453727Y-77101468D01*
X111401468Y-77153727D01*
X111277105Y-77305264D01*
X111236046Y-77366713D01*
X111143636Y-77539600D01*
X111115353Y-77607881D01*
X111058448Y-77795474D01*
X111044030Y-77867957D01*
X111024815Y-78063047D01*
X111023000Y-78100000D01*
X111023000Y-78781475D01*
X111009239Y-78921187D01*
X110973891Y-79037715D01*
X110916489Y-79145107D01*
X110839238Y-79239238D01*
X110745107Y-79316489D01*
X110637715Y-79373891D01*
X110521187Y-79409239D01*
X110381475Y-79423000D01*
X110307229Y-79423000D01*
X110347141Y-79326643D01*
X110377000Y-79176528D01*
X110377000Y-79023472D01*
X110347141Y-78873357D01*
X110288569Y-78731952D01*
X110203536Y-78604691D01*
X110095309Y-78496464D01*
X109968048Y-78411431D01*
X109826643Y-78352859D01*
X109676528Y-78323000D01*
X109523472Y-78323000D01*
X109373357Y-78352859D01*
X109231952Y-78411431D01*
X109163089Y-78457444D01*
X109147191Y-78441545D01*
X109222848Y-78349356D01*
X109280958Y-78240641D01*
X109316741Y-78122678D01*
X109328824Y-78000001D01*
X109328824Y-77349999D01*
X109316741Y-77227322D01*
X109280958Y-77109359D01*
X109222848Y-77000644D01*
X109144646Y-76905354D01*
X109049356Y-76827152D01*
X108940641Y-76769042D01*
X108822678Y-76733259D01*
X108700001Y-76721176D01*
X106499999Y-76721176D01*
X106377322Y-76733259D01*
X106259359Y-76769042D01*
X106150644Y-76827152D01*
X106055354Y-76905354D01*
X105977152Y-77000644D01*
X105919042Y-77109359D01*
X105883259Y-77227322D01*
X105871176Y-77349999D01*
X105871176Y-78000001D01*
X105883259Y-78122678D01*
X105919042Y-78240641D01*
X105977152Y-78349356D01*
X106055354Y-78444646D01*
X106150644Y-78522848D01*
X106259359Y-78580958D01*
X106377322Y-78616741D01*
X106499999Y-78628824D01*
X107773179Y-78628824D01*
X108567354Y-79423000D01*
X107900000Y-79423000D01*
X107863047Y-79424815D01*
X107667957Y-79444030D01*
X107595474Y-79458448D01*
X107407881Y-79515353D01*
X107339600Y-79543636D01*
X107166713Y-79636046D01*
X107105264Y-79677105D01*
X106953727Y-79801468D01*
X106901468Y-79853727D01*
X106777105Y-80005264D01*
X106736046Y-80066713D01*
X106643636Y-80239600D01*
X106615353Y-80307881D01*
X106558448Y-80495474D01*
X106544030Y-80567957D01*
X106524815Y-80763047D01*
X106523000Y-80800000D01*
X106523000Y-82600000D01*
X106524815Y-82636953D01*
X106544030Y-82832043D01*
X106558448Y-82904526D01*
X106615353Y-83092119D01*
X106643636Y-83160400D01*
X106736046Y-83333287D01*
X106777105Y-83394736D01*
X106901468Y-83546273D01*
X106953727Y-83598532D01*
X107105264Y-83722895D01*
X107166713Y-83763954D01*
X107339600Y-83856364D01*
X107407881Y-83884647D01*
X107595474Y-83941552D01*
X107659240Y-83954236D01*
X107488972Y-84093972D01*
X107333141Y-84283852D01*
X107217348Y-84500485D01*
X107146044Y-84735545D01*
X107121967Y-84980000D01*
X107146044Y-85224455D01*
X107217348Y-85459515D01*
X107333141Y-85676148D01*
X107488972Y-85866028D01*
X107678852Y-86021859D01*
X107895485Y-86137652D01*
X108130545Y-86208956D01*
X108313747Y-86227000D01*
X108886253Y-86227000D01*
X109069455Y-86208956D01*
X109304515Y-86137652D01*
X109521148Y-86021859D01*
X109711028Y-85866028D01*
X109723000Y-85851440D01*
X109723000Y-86648560D01*
X109711028Y-86633972D01*
X109521148Y-86478141D01*
X109304515Y-86362348D01*
X109069455Y-86291044D01*
X108886253Y-86273000D01*
X108313747Y-86273000D01*
X108130545Y-86291044D01*
X107895485Y-86362348D01*
X107678852Y-86478141D01*
X107488972Y-86633972D01*
X107333141Y-86823852D01*
X107217348Y-87040485D01*
X107146044Y-87275545D01*
X107121967Y-87520000D01*
X107146044Y-87764455D01*
X107217348Y-87999515D01*
X107333141Y-88216148D01*
X107488972Y-88406028D01*
X107678852Y-88561859D01*
X107895485Y-88677652D01*
X108130545Y-88748956D01*
X108313747Y-88767000D01*
X108886253Y-88767000D01*
X109069455Y-88748956D01*
X109304515Y-88677652D01*
X109521148Y-88561859D01*
X109711028Y-88406028D01*
X109723000Y-88391440D01*
X109723000Y-89188560D01*
X109711028Y-89173972D01*
X109521148Y-89018141D01*
X109304515Y-88902348D01*
X109069455Y-88831044D01*
X108886253Y-88813000D01*
X108313747Y-88813000D01*
X108130545Y-88831044D01*
X107895485Y-88902348D01*
X107678852Y-89018141D01*
X107488972Y-89173972D01*
X107333141Y-89363852D01*
X107217348Y-89580485D01*
X107146044Y-89815545D01*
X107121967Y-90060000D01*
X107146044Y-90304455D01*
X107217348Y-90539515D01*
X107333141Y-90756148D01*
X107488972Y-90946028D01*
X107678852Y-91101859D01*
X107895485Y-91217652D01*
X108130545Y-91288956D01*
X108313747Y-91307000D01*
X108886253Y-91307000D01*
X109069455Y-91288956D01*
X109304515Y-91217652D01*
X109521148Y-91101859D01*
X109711028Y-90946028D01*
X109866859Y-90756148D01*
X109934288Y-90629998D01*
X109936046Y-90633287D01*
X109977105Y-90694736D01*
X110101468Y-90846273D01*
X110153727Y-90898532D01*
X110305264Y-91022895D01*
X110366713Y-91063954D01*
X110539600Y-91156364D01*
X110607881Y-91184647D01*
X110795474Y-91241552D01*
X110867957Y-91255970D01*
X111063047Y-91275185D01*
X111100000Y-91277000D01*
X111231710Y-91277000D01*
X111709053Y-91754344D01*
X111725552Y-91774448D01*
X111805798Y-91840304D01*
X111897350Y-91889239D01*
X111996690Y-91919374D01*
X112100000Y-91929549D01*
X112125881Y-91927000D01*
X112428155Y-91927000D01*
X112504691Y-92003536D01*
X112631952Y-92088569D01*
X112773357Y-92147141D01*
X112923472Y-92177000D01*
X113076528Y-92177000D01*
X113226643Y-92147141D01*
X113368048Y-92088569D01*
X113495309Y-92003536D01*
X113603536Y-91895309D01*
X113688569Y-91768048D01*
X113747141Y-91626643D01*
X113777000Y-91476528D01*
X113777000Y-91323472D01*
X113767756Y-91277000D01*
X119000000Y-91277000D01*
X119042209Y-91274630D01*
X119123000Y-91265527D01*
X119123000Y-92700000D01*
X119126462Y-92735308D01*
X119129678Y-92770643D01*
X119130051Y-92771910D01*
X119130180Y-92773226D01*
X119140445Y-92807225D01*
X119150452Y-92841227D01*
X119151063Y-92842396D01*
X119151446Y-92843664D01*
X119168126Y-92875034D01*
X119184540Y-92906431D01*
X119185368Y-92907460D01*
X119185989Y-92908629D01*
X119208428Y-92936142D01*
X119230644Y-92963773D01*
X119231657Y-92964623D01*
X119232492Y-92965647D01*
X119259806Y-92988243D01*
X119287007Y-93011068D01*
X119288167Y-93011706D01*
X119289184Y-93012547D01*
X119320340Y-93029393D01*
X119351484Y-93046514D01*
X119352746Y-93046914D01*
X119353907Y-93047542D01*
X119387738Y-93058015D01*
X119421617Y-93068762D01*
X119422933Y-93068910D01*
X119424194Y-93069300D01*
X119459488Y-93073010D01*
X119494736Y-93076963D01*
X119497271Y-93076981D01*
X119497368Y-93076991D01*
X119497465Y-93076982D01*
X119500000Y-93077000D01*
X121500000Y-93077000D01*
X121535308Y-93073538D01*
X121570643Y-93070322D01*
X121571910Y-93069949D01*
X121573226Y-93069820D01*
X121607225Y-93059555D01*
X121641227Y-93049548D01*
X121642396Y-93048937D01*
X121643664Y-93048554D01*
X121675034Y-93031874D01*
X121706431Y-93015460D01*
X121707460Y-93014632D01*
X121708629Y-93014011D01*
X121736142Y-92991572D01*
X121763773Y-92969356D01*
X121764623Y-92968343D01*
X121765647Y-92967508D01*
X121788243Y-92940194D01*
X121811068Y-92912993D01*
X121811706Y-92911833D01*
X121812547Y-92910816D01*
X121829393Y-92879660D01*
X121846514Y-92848516D01*
X121846914Y-92847254D01*
X121847542Y-92846093D01*
X121858015Y-92812262D01*
X121868762Y-92778383D01*
X121868910Y-92777067D01*
X121869300Y-92775806D01*
X121873010Y-92740512D01*
X121876963Y-92705264D01*
X121876981Y-92702729D01*
X121876991Y-92702632D01*
X121876982Y-92702535D01*
X121877000Y-92700000D01*
X121877000Y-89877000D01*
X130900000Y-89877000D01*
X130936953Y-89875185D01*
X131132043Y-89855970D01*
X131204526Y-89841552D01*
X131392119Y-89784647D01*
X131460400Y-89756364D01*
X131633287Y-89663954D01*
X131694736Y-89622895D01*
X131846273Y-89498532D01*
X131898532Y-89446273D01*
X132022895Y-89294736D01*
X132063954Y-89233287D01*
X132156364Y-89060400D01*
X132184647Y-88992119D01*
X132241552Y-88804526D01*
X132255970Y-88732043D01*
X132275185Y-88536953D01*
X132277000Y-88500000D01*
X132277000Y-80052000D01*
X133471356Y-80052000D01*
X134390504Y-80971149D01*
X134407789Y-80992211D01*
X134491842Y-81061191D01*
X134587737Y-81112448D01*
X134691789Y-81144012D01*
X134772891Y-81152000D01*
X134772894Y-81152000D01*
X134800000Y-81154670D01*
X134827106Y-81152000D01*
X141871356Y-81152000D01*
X142006492Y-81287136D01*
X141975012Y-81346030D01*
X141953455Y-81417095D01*
X141946176Y-81491000D01*
X141946176Y-86091000D01*
X141953455Y-86164905D01*
X141975012Y-86235970D01*
X142010019Y-86301463D01*
X142057131Y-86358869D01*
X142114537Y-86405981D01*
X142180030Y-86440988D01*
X142251095Y-86462545D01*
X142325000Y-86469824D01*
X143425000Y-86469824D01*
X143498905Y-86462545D01*
X143569970Y-86440988D01*
X143635463Y-86405981D01*
X143692869Y-86358869D01*
X143739981Y-86301463D01*
X143774988Y-86235970D01*
X143796545Y-86164905D01*
X143803824Y-86091000D01*
X143803824Y-81491000D01*
X143796545Y-81417095D01*
X143774988Y-81346030D01*
X143739981Y-81280537D01*
X143692869Y-81223131D01*
X143635463Y-81176019D01*
X143590527Y-81152000D01*
X153740366Y-81152000D01*
X153737030Y-81153012D01*
X153671537Y-81188019D01*
X153614131Y-81235131D01*
X153567019Y-81292537D01*
X153532012Y-81358030D01*
X153510455Y-81429095D01*
X153503176Y-81503000D01*
X153503176Y-86103000D01*
X153510455Y-86176905D01*
X153532012Y-86247970D01*
X153567019Y-86313463D01*
X153614131Y-86370869D01*
X153671537Y-86417981D01*
X153737030Y-86452988D01*
X153808095Y-86474545D01*
X153882000Y-86481824D01*
X154982000Y-86481824D01*
X155055905Y-86474545D01*
X155126970Y-86452988D01*
X155192463Y-86417981D01*
X155249869Y-86370869D01*
X155296981Y-86313463D01*
X155331988Y-86247970D01*
X155353545Y-86176905D01*
X155360824Y-86103000D01*
X155360824Y-81503000D01*
X155353545Y-81429095D01*
X155331988Y-81358030D01*
X155296981Y-81292537D01*
X155249869Y-81235131D01*
X155192463Y-81188019D01*
X155126970Y-81153012D01*
X155055905Y-81131455D01*
X154984000Y-81124373D01*
X154984000Y-81059097D01*
X154986669Y-81031999D01*
X154984000Y-81004901D01*
X154984000Y-81004891D01*
X154976012Y-80923789D01*
X154944448Y-80819737D01*
X154904585Y-80745159D01*
X154900225Y-80737000D01*
X155441624Y-80737000D01*
X155524622Y-80745159D01*
X155568502Y-80758443D01*
X155608958Y-80780019D01*
X155644434Y-80809055D01*
X155673583Y-80844451D01*
X155695279Y-80884843D01*
X155708694Y-80928681D01*
X155717101Y-81011647D01*
X155759017Y-95005277D01*
X155762896Y-95079814D01*
X155782621Y-95274479D01*
X155812091Y-95420630D01*
X155869344Y-95607728D01*
X155926708Y-95745344D01*
X156019297Y-95917712D01*
X156102362Y-96041526D01*
X156226743Y-96192565D01*
X156332327Y-96297832D01*
X156483738Y-96421760D01*
X156607798Y-96504453D01*
X156780443Y-96596526D01*
X156918232Y-96653479D01*
X157105500Y-96710171D01*
X157251738Y-96739203D01*
X157446461Y-96758345D01*
X157521009Y-96762000D01*
X173500000Y-96762000D01*
X173574690Y-96758331D01*
X173769780Y-96739116D01*
X173916284Y-96709974D01*
X174103877Y-96653069D01*
X174241887Y-96595904D01*
X174298000Y-96565911D01*
X174298000Y-102048776D01*
X174225362Y-102184672D01*
X174116870Y-102316870D01*
X173984672Y-102425362D01*
X173848776Y-102498000D01*
X89551224Y-102498000D01*
X89415328Y-102425362D01*
X89283130Y-102316870D01*
X89174638Y-102184672D01*
X89102000Y-102048776D01*
X89102000Y-97611716D01*
X149373000Y-97611716D01*
X149373000Y-98188284D01*
X149485482Y-98753775D01*
X149706126Y-99286455D01*
X150026450Y-99765854D01*
X150434146Y-100173550D01*
X150913545Y-100493874D01*
X151446225Y-100714518D01*
X152011716Y-100827000D01*
X152588284Y-100827000D01*
X153153775Y-100714518D01*
X153686455Y-100493874D01*
X154165854Y-100173550D01*
X154573550Y-99765854D01*
X154893874Y-99286455D01*
X155114518Y-98753775D01*
X155227000Y-98188284D01*
X155227000Y-97611716D01*
X155114518Y-97046225D01*
X154893874Y-96513545D01*
X154573550Y-96034146D01*
X154165854Y-95626450D01*
X153686455Y-95306126D01*
X153153775Y-95085482D01*
X152588284Y-94973000D01*
X152011716Y-94973000D01*
X151446225Y-95085482D01*
X150913545Y-95306126D01*
X150434146Y-95626450D01*
X150026450Y-96034146D01*
X149706126Y-96513545D01*
X149485482Y-97046225D01*
X149373000Y-97611716D01*
X89102000Y-97611716D01*
X89102000Y-91979999D01*
X107126176Y-91979999D01*
X107126176Y-93220001D01*
X107138259Y-93342678D01*
X107174042Y-93460641D01*
X107232152Y-93569356D01*
X107310354Y-93664646D01*
X107405644Y-93742848D01*
X107514359Y-93800958D01*
X107632322Y-93836741D01*
X107754999Y-93848824D01*
X109445001Y-93848824D01*
X109567678Y-93836741D01*
X109685641Y-93800958D01*
X109794356Y-93742848D01*
X109889646Y-93664646D01*
X109967848Y-93569356D01*
X110025958Y-93460641D01*
X110061741Y-93342678D01*
X110073824Y-93220001D01*
X110073824Y-91979999D01*
X110061741Y-91857322D01*
X110025958Y-91739359D01*
X109967848Y-91630644D01*
X109889646Y-91535354D01*
X109794356Y-91457152D01*
X109685641Y-91399042D01*
X109567678Y-91363259D01*
X109445001Y-91351176D01*
X107754999Y-91351176D01*
X107632322Y-91363259D01*
X107514359Y-91399042D01*
X107405644Y-91457152D01*
X107310354Y-91535354D01*
X107232152Y-91630644D01*
X107174042Y-91739359D01*
X107138259Y-91857322D01*
X107126176Y-91979999D01*
X89102000Y-91979999D01*
X89102000Y-72011716D01*
X90273000Y-72011716D01*
X90273000Y-72588284D01*
X90385482Y-73153775D01*
X90606126Y-73686455D01*
X90926450Y-74165854D01*
X91334146Y-74573550D01*
X91813545Y-74893874D01*
X92346225Y-75114518D01*
X92911716Y-75227000D01*
X93488284Y-75227000D01*
X94053775Y-75114518D01*
X94586455Y-74893874D01*
X95065854Y-74573550D01*
X95473550Y-74165854D01*
X95793874Y-73686455D01*
X96014518Y-73153775D01*
X96127000Y-72588284D01*
X96127000Y-72011716D01*
X96014518Y-71446225D01*
X95793874Y-70913545D01*
X95473550Y-70434146D01*
X95065854Y-70026450D01*
X94586455Y-69706126D01*
X94053775Y-69485482D01*
X93488284Y-69373000D01*
X92911716Y-69373000D01*
X92346225Y-69485482D01*
X91813545Y-69706126D01*
X91334146Y-70026450D01*
X90926450Y-70434146D01*
X90606126Y-70913545D01*
X90385482Y-71446225D01*
X90273000Y-72011716D01*
X89102000Y-72011716D01*
X89102000Y-61200026D01*
X89450987Y-61549013D01*
X89547213Y-61627983D01*
X89656996Y-61686664D01*
X89776118Y-61722799D01*
X89900000Y-61735000D01*
X103400000Y-61735000D01*
X103523882Y-61722799D01*
X103643004Y-61686664D01*
X103752787Y-61627983D01*
X103849013Y-61549013D01*
X104849013Y-60549013D01*
X104927983Y-60452787D01*
X104986664Y-60343004D01*
X105022799Y-60223882D01*
X105035000Y-60100000D01*
X105035000Y-57963026D01*
X105663026Y-57335000D01*
X131136974Y-57335000D01*
X131765000Y-57963026D01*
G37*
G04 #@! TD.AperFunction*
G04 #@! TD*
D27*
G04 #@! TO.N,GNDD*
X125096176Y-77375001D02*
X125108259Y-77497678D01*
X125144042Y-77615641D01*
X125202152Y-77724356D01*
X125280354Y-77819646D01*
X125375644Y-77897848D01*
X125439378Y-77931915D01*
X125380354Y-77980354D01*
X125302152Y-78075644D01*
X125244042Y-78184359D01*
X125208259Y-78302322D01*
X125196176Y-78424999D01*
X125196176Y-78448000D01*
X125046845Y-78448000D01*
X124995309Y-78396464D01*
X124868048Y-78311431D01*
X124726643Y-78252859D01*
X124576528Y-78223000D01*
X124423472Y-78223000D01*
X124273357Y-78252859D01*
X124131952Y-78311431D01*
X124004691Y-78396464D01*
X123896464Y-78504691D01*
X123811431Y-78631952D01*
X123752859Y-78773357D01*
X123723000Y-78923472D01*
X123723000Y-79076528D01*
X123752859Y-79226643D01*
X123811431Y-79368048D01*
X123896464Y-79495309D01*
X124004691Y-79603536D01*
X124131952Y-79688569D01*
X124273357Y-79747141D01*
X124423472Y-79777000D01*
X124576528Y-79777000D01*
X124726643Y-79747141D01*
X124868048Y-79688569D01*
X124995309Y-79603536D01*
X125046845Y-79552000D01*
X125196176Y-79552000D01*
X125196176Y-80575001D01*
X125208259Y-80697678D01*
X125244042Y-80815641D01*
X125302152Y-80924356D01*
X125380354Y-81019646D01*
X125475644Y-81097848D01*
X125584359Y-81155958D01*
X125702322Y-81191741D01*
X125824999Y-81203824D01*
X126550001Y-81203824D01*
X126672678Y-81191741D01*
X126790641Y-81155958D01*
X126899356Y-81097848D01*
X126994646Y-81019646D01*
X127072848Y-80924356D01*
X127130958Y-80815641D01*
X127166741Y-80697678D01*
X127178824Y-80575001D01*
X127178824Y-78424999D01*
X127166741Y-78302322D01*
X127130958Y-78184359D01*
X127072848Y-78075644D01*
X126994646Y-77980354D01*
X126899356Y-77902152D01*
X126835622Y-77868085D01*
X126894646Y-77819646D01*
X126972848Y-77724356D01*
X127030958Y-77615641D01*
X127066741Y-77497678D01*
X127078824Y-77375001D01*
X127078824Y-77227000D01*
X129721176Y-77227000D01*
X129721176Y-77375001D01*
X129733259Y-77497678D01*
X129769042Y-77615641D01*
X129827152Y-77724356D01*
X129905354Y-77819646D01*
X130000644Y-77897848D01*
X130064378Y-77931915D01*
X130005354Y-77980354D01*
X129927152Y-78075644D01*
X129869042Y-78184359D01*
X129833259Y-78302322D01*
X129821176Y-78424999D01*
X129821176Y-80575001D01*
X129833259Y-80697678D01*
X129869042Y-80815641D01*
X129927152Y-80924356D01*
X130005354Y-81019646D01*
X130100644Y-81097848D01*
X130209359Y-81155958D01*
X130327322Y-81191741D01*
X130449999Y-81203824D01*
X131175001Y-81203824D01*
X131297678Y-81191741D01*
X131415641Y-81155958D01*
X131524356Y-81097848D01*
X131619646Y-81019646D01*
X131697848Y-80924356D01*
X131755958Y-80815641D01*
X131773000Y-80759460D01*
X131773000Y-84844471D01*
X131722848Y-84750644D01*
X131644646Y-84655354D01*
X131549356Y-84577152D01*
X131440641Y-84519042D01*
X131322678Y-84483259D01*
X131200001Y-84471176D01*
X128999999Y-84471176D01*
X128877322Y-84483259D01*
X128759359Y-84519042D01*
X128650644Y-84577152D01*
X128555354Y-84655354D01*
X128477152Y-84750644D01*
X128419042Y-84859359D01*
X128407321Y-84898000D01*
X128343291Y-84898000D01*
X128019711Y-84574420D01*
X128097678Y-84566741D01*
X128215641Y-84530958D01*
X128324356Y-84472848D01*
X128419646Y-84394646D01*
X128497848Y-84299356D01*
X128555958Y-84190641D01*
X128591741Y-84072678D01*
X128603824Y-83950001D01*
X128603824Y-83049999D01*
X128591741Y-82927322D01*
X128555958Y-82809359D01*
X128497848Y-82700644D01*
X128419646Y-82605354D01*
X128324356Y-82527152D01*
X128215641Y-82469042D01*
X128097678Y-82433259D01*
X127975001Y-82421176D01*
X125824999Y-82421176D01*
X125702322Y-82433259D01*
X125584359Y-82469042D01*
X125475644Y-82527152D01*
X125380354Y-82605354D01*
X125302152Y-82700644D01*
X125244042Y-82809359D01*
X125208259Y-82927322D01*
X125201298Y-82998000D01*
X124871933Y-82997999D01*
X124847141Y-82873357D01*
X124788569Y-82731952D01*
X124703536Y-82604691D01*
X124595309Y-82496464D01*
X124468048Y-82411431D01*
X124326643Y-82352859D01*
X124176528Y-82323000D01*
X124023472Y-82323000D01*
X123873357Y-82352859D01*
X123731952Y-82411431D01*
X123604691Y-82496464D01*
X123496464Y-82604691D01*
X123411431Y-82731952D01*
X123352859Y-82873357D01*
X123323000Y-83023472D01*
X123323000Y-83033821D01*
X123303536Y-83004691D01*
X123202000Y-82903155D01*
X123202000Y-82071933D01*
X123326643Y-82047141D01*
X123468048Y-81988569D01*
X123595309Y-81903536D01*
X123703536Y-81795309D01*
X123788569Y-81668048D01*
X123847141Y-81526643D01*
X123877000Y-81376528D01*
X123877000Y-81223472D01*
X123847141Y-81073357D01*
X123788569Y-80931952D01*
X123703536Y-80804691D01*
X123595309Y-80696464D01*
X123468048Y-80611431D01*
X123326643Y-80552859D01*
X123176528Y-80523000D01*
X123023472Y-80523000D01*
X122873357Y-80552859D01*
X122731952Y-80611431D01*
X122604691Y-80696464D01*
X122496464Y-80804691D01*
X122411431Y-80931952D01*
X122352859Y-81073357D01*
X122323000Y-81223472D01*
X122323000Y-81276577D01*
X122320693Y-81300000D01*
X122323000Y-81323423D01*
X122323000Y-81368071D01*
X122280584Y-81419755D01*
X122233970Y-81506964D01*
X122205265Y-81601591D01*
X122195573Y-81700000D01*
X122198001Y-81724653D01*
X122198000Y-82903155D01*
X122096464Y-83004691D01*
X122011431Y-83131952D01*
X121952859Y-83273357D01*
X121923000Y-83423472D01*
X121923000Y-83576528D01*
X121952859Y-83726643D01*
X122011431Y-83868048D01*
X122096464Y-83995309D01*
X122204691Y-84103536D01*
X122331952Y-84188569D01*
X122473357Y-84247141D01*
X122623472Y-84277000D01*
X122776528Y-84277000D01*
X122926643Y-84247141D01*
X123068048Y-84188569D01*
X123195309Y-84103536D01*
X123303536Y-83995309D01*
X123388569Y-83868048D01*
X123447141Y-83726643D01*
X123477000Y-83576528D01*
X123477000Y-83566179D01*
X123496464Y-83595309D01*
X123604691Y-83703536D01*
X123731952Y-83788569D01*
X123873357Y-83847141D01*
X124023472Y-83877000D01*
X124168071Y-83877000D01*
X124219753Y-83919415D01*
X124306962Y-83966029D01*
X124401589Y-83994734D01*
X124499998Y-84004426D01*
X124524651Y-84001998D01*
X125201297Y-84001999D01*
X125208259Y-84072678D01*
X125244042Y-84190641D01*
X125302152Y-84299356D01*
X125380354Y-84394646D01*
X125475644Y-84472848D01*
X125584359Y-84530958D01*
X125702322Y-84566741D01*
X125824999Y-84578824D01*
X126530884Y-84578824D01*
X126545666Y-84590955D01*
X127734053Y-85779344D01*
X127750552Y-85799448D01*
X127830798Y-85865304D01*
X127922350Y-85914239D01*
X128021690Y-85944374D01*
X128125000Y-85954549D01*
X128150881Y-85952000D01*
X128407321Y-85952000D01*
X128419042Y-85990641D01*
X128477152Y-86099356D01*
X128555354Y-86194646D01*
X128650644Y-86272848D01*
X128759359Y-86330958D01*
X128877322Y-86366741D01*
X128999999Y-86378824D01*
X131200001Y-86378824D01*
X131322678Y-86366741D01*
X131440641Y-86330958D01*
X131549356Y-86272848D01*
X131644646Y-86194646D01*
X131722848Y-86099356D01*
X131773000Y-86005529D01*
X131773000Y-88493766D01*
X131755624Y-88670189D01*
X131705978Y-88833850D01*
X131625362Y-88984672D01*
X131516870Y-89116870D01*
X131384672Y-89225362D01*
X131233850Y-89305978D01*
X131070189Y-89355624D01*
X130893766Y-89373000D01*
X121877000Y-89373000D01*
X121877000Y-88700000D01*
X121873538Y-88664692D01*
X121870322Y-88629357D01*
X121869949Y-88628090D01*
X121869820Y-88626774D01*
X121859555Y-88592775D01*
X121849548Y-88558773D01*
X121848937Y-88557604D01*
X121848554Y-88556336D01*
X121831874Y-88524966D01*
X121815460Y-88493569D01*
X121814632Y-88492540D01*
X121814011Y-88491371D01*
X121791572Y-88463858D01*
X121769356Y-88436227D01*
X121768343Y-88435377D01*
X121767508Y-88434353D01*
X121740194Y-88411757D01*
X121712993Y-88388932D01*
X121711833Y-88388294D01*
X121710816Y-88387453D01*
X121679660Y-88370607D01*
X121648516Y-88353486D01*
X121647254Y-88353086D01*
X121646093Y-88352458D01*
X121612262Y-88341985D01*
X121578383Y-88331238D01*
X121577067Y-88331090D01*
X121575806Y-88330700D01*
X121540512Y-88326990D01*
X121505264Y-88323037D01*
X121502729Y-88323019D01*
X121502632Y-88323009D01*
X121502535Y-88323018D01*
X121500000Y-88323000D01*
X119500000Y-88323000D01*
X119464692Y-88326462D01*
X119429357Y-88329678D01*
X119428090Y-88330051D01*
X119426774Y-88330180D01*
X119392775Y-88340445D01*
X119358773Y-88350452D01*
X119357604Y-88351063D01*
X119356336Y-88351446D01*
X119324966Y-88368126D01*
X119293569Y-88384540D01*
X119292540Y-88385368D01*
X119291371Y-88385989D01*
X119263858Y-88408428D01*
X119236227Y-88430644D01*
X119235377Y-88431657D01*
X119234353Y-88432492D01*
X119211757Y-88459806D01*
X119188932Y-88487007D01*
X119188294Y-88488167D01*
X119187453Y-88489184D01*
X119170607Y-88520340D01*
X119153486Y-88551484D01*
X119153086Y-88552746D01*
X119152458Y-88553907D01*
X119141985Y-88587738D01*
X119131238Y-88621617D01*
X119131090Y-88622933D01*
X119130700Y-88624194D01*
X119126990Y-88659488D01*
X119123037Y-88694736D01*
X119123019Y-88697271D01*
X119123009Y-88697368D01*
X119123018Y-88697465D01*
X119123000Y-88700000D01*
X119123000Y-90758338D01*
X118992873Y-90773000D01*
X113460193Y-90773000D01*
X113368048Y-90711431D01*
X113226643Y-90652859D01*
X113076528Y-90623000D01*
X112923472Y-90623000D01*
X112773357Y-90652859D01*
X112631952Y-90711431D01*
X112539807Y-90773000D01*
X112218291Y-90773000D01*
X111827000Y-90381711D01*
X111827000Y-88145434D01*
X113343611Y-86628824D01*
X115250002Y-86628824D01*
X115372679Y-86616741D01*
X115490642Y-86580958D01*
X115599357Y-86522848D01*
X115694646Y-86444646D01*
X115772848Y-86349357D01*
X115830958Y-86240642D01*
X115866741Y-86122679D01*
X115878824Y-86000002D01*
X115878824Y-84924998D01*
X115866741Y-84802321D01*
X115830958Y-84684358D01*
X115772848Y-84575643D01*
X115694646Y-84480354D01*
X115599357Y-84402152D01*
X115490642Y-84344042D01*
X115372679Y-84308259D01*
X115250002Y-84296176D01*
X112554570Y-84296176D01*
X112503309Y-84280626D01*
X112400000Y-84270451D01*
X112296691Y-84280626D01*
X112197351Y-84310761D01*
X112168847Y-84325997D01*
X112109358Y-84344042D01*
X112000643Y-84402152D01*
X111905354Y-84480354D01*
X111869424Y-84524135D01*
X111827000Y-84481711D01*
X111827000Y-84471845D01*
X111903536Y-84395309D01*
X111988569Y-84268048D01*
X112047141Y-84126643D01*
X112077000Y-83976528D01*
X112077000Y-83823472D01*
X112047141Y-83673357D01*
X111988569Y-83531952D01*
X111903536Y-83404691D01*
X111795309Y-83296464D01*
X111668048Y-83211431D01*
X111526643Y-83152859D01*
X111376528Y-83123000D01*
X111223472Y-83123000D01*
X111073357Y-83152859D01*
X110931952Y-83211431D01*
X110804691Y-83296464D01*
X110696464Y-83404691D01*
X110611431Y-83531952D01*
X110552859Y-83673357D01*
X110523000Y-83823472D01*
X110523000Y-83976528D01*
X110552859Y-84126643D01*
X110611431Y-84268048D01*
X110696464Y-84395309D01*
X110773000Y-84471845D01*
X110773000Y-84674119D01*
X110770451Y-84700000D01*
X110780626Y-84803309D01*
X110810761Y-84902649D01*
X110854616Y-84984696D01*
X110859697Y-84994202D01*
X110925553Y-85074448D01*
X110945661Y-85090950D01*
X111671553Y-85816844D01*
X111688052Y-85836948D01*
X111721176Y-85864132D01*
X111721176Y-86000002D01*
X111733259Y-86122679D01*
X111769042Y-86240642D01*
X111827152Y-86349357D01*
X111905354Y-86444646D01*
X112000643Y-86522848D01*
X112019590Y-86532976D01*
X111058585Y-87493981D01*
X111005798Y-87522196D01*
X110925552Y-87588052D01*
X110859696Y-87668298D01*
X110810761Y-87759851D01*
X110780626Y-87859191D01*
X110773000Y-87936620D01*
X110773001Y-90574109D01*
X110770451Y-90600000D01*
X110780626Y-90703309D01*
X110782985Y-90711085D01*
X110766150Y-90705978D01*
X110615328Y-90625362D01*
X110483130Y-90516870D01*
X110374638Y-90384672D01*
X110294022Y-90233850D01*
X110244376Y-90070189D01*
X110227000Y-89893766D01*
X110227000Y-84600000D01*
X110226388Y-84587552D01*
X110207173Y-84392462D01*
X110202317Y-84368044D01*
X110145412Y-84180451D01*
X110135884Y-84157450D01*
X110043474Y-83984563D01*
X110029642Y-83963862D01*
X109905279Y-83812325D01*
X109887675Y-83794721D01*
X109736138Y-83670358D01*
X109715437Y-83656526D01*
X109542550Y-83564116D01*
X109519549Y-83554588D01*
X109331956Y-83497683D01*
X109307538Y-83492827D01*
X109112448Y-83473612D01*
X109100000Y-83473000D01*
X107906234Y-83473000D01*
X107729811Y-83455624D01*
X107566150Y-83405978D01*
X107415328Y-83325362D01*
X107283130Y-83216870D01*
X107174638Y-83084672D01*
X107094022Y-82933850D01*
X107044376Y-82770189D01*
X107027000Y-82593766D01*
X107027000Y-82123472D01*
X117123000Y-82123472D01*
X117123000Y-82276528D01*
X117152859Y-82426643D01*
X117211431Y-82568048D01*
X117296464Y-82695309D01*
X117404691Y-82803536D01*
X117423001Y-82815770D01*
X117423001Y-83276575D01*
X117420694Y-83300000D01*
X117429903Y-83393507D01*
X117457178Y-83483422D01*
X117477796Y-83521995D01*
X117501472Y-83566289D01*
X117561080Y-83638921D01*
X117579271Y-83653850D01*
X117623000Y-83697579D01*
X117623000Y-83984230D01*
X117604691Y-83996464D01*
X117496464Y-84104691D01*
X117411431Y-84231952D01*
X117352859Y-84373357D01*
X117323000Y-84523472D01*
X117323000Y-84676528D01*
X117352859Y-84826643D01*
X117411431Y-84968048D01*
X117496464Y-85095309D01*
X117604691Y-85203536D01*
X117731952Y-85288569D01*
X117873357Y-85347141D01*
X118023472Y-85377000D01*
X118176528Y-85377000D01*
X118326643Y-85347141D01*
X118468048Y-85288569D01*
X118595309Y-85203536D01*
X118703536Y-85095309D01*
X118788569Y-84968048D01*
X118847141Y-84826643D01*
X118877000Y-84676528D01*
X118877000Y-84523472D01*
X118847141Y-84373357D01*
X118788569Y-84231952D01*
X118703536Y-84104691D01*
X118595309Y-83996464D01*
X118577000Y-83984230D01*
X118577000Y-83523415D01*
X118579306Y-83500000D01*
X118577000Y-83476585D01*
X118577000Y-83476577D01*
X118570097Y-83406492D01*
X118542822Y-83316577D01*
X118498529Y-83233711D01*
X118438921Y-83161079D01*
X118420724Y-83146145D01*
X118377000Y-83102421D01*
X118377000Y-82815770D01*
X118395309Y-82803536D01*
X118503536Y-82695309D01*
X118588569Y-82568048D01*
X118647141Y-82426643D01*
X118677000Y-82276528D01*
X118677000Y-82123472D01*
X118647141Y-81973357D01*
X118588569Y-81831952D01*
X118503536Y-81704691D01*
X118395309Y-81596464D01*
X118268048Y-81511431D01*
X118126643Y-81452859D01*
X117976528Y-81423000D01*
X117823472Y-81423000D01*
X117673357Y-81452859D01*
X117531952Y-81511431D01*
X117404691Y-81596464D01*
X117296464Y-81704691D01*
X117211431Y-81831952D01*
X117152859Y-81973357D01*
X117123000Y-82123472D01*
X107027000Y-82123472D01*
X107027000Y-80806234D01*
X107044376Y-80629811D01*
X107094022Y-80466150D01*
X107174638Y-80315328D01*
X107283130Y-80183130D01*
X107415328Y-80074638D01*
X107566150Y-79994022D01*
X107729811Y-79944376D01*
X107906234Y-79927000D01*
X110400000Y-79927000D01*
X110412448Y-79926388D01*
X110607538Y-79907173D01*
X110631956Y-79902317D01*
X110819549Y-79845412D01*
X110842550Y-79835884D01*
X111015437Y-79743474D01*
X111036138Y-79729642D01*
X111187675Y-79605279D01*
X111205279Y-79587675D01*
X111329642Y-79436138D01*
X111343474Y-79415437D01*
X111435884Y-79242550D01*
X111445412Y-79219549D01*
X111502317Y-79031956D01*
X111507173Y-79007538D01*
X111526388Y-78812448D01*
X111527000Y-78800000D01*
X111527000Y-78106234D01*
X111544376Y-77929811D01*
X111594022Y-77766150D01*
X111674638Y-77615328D01*
X111783130Y-77483130D01*
X111915328Y-77374638D01*
X112066150Y-77294022D01*
X112229811Y-77244376D01*
X112406234Y-77227000D01*
X125096176Y-77227000D01*
X125096176Y-77375001D01*
G04 #@! TA.AperFunction,Conductor*
D28*
G36*
X125096176Y-77375001D02*
G01*
X125108259Y-77497678D01*
X125144042Y-77615641D01*
X125202152Y-77724356D01*
X125280354Y-77819646D01*
X125375644Y-77897848D01*
X125439378Y-77931915D01*
X125380354Y-77980354D01*
X125302152Y-78075644D01*
X125244042Y-78184359D01*
X125208259Y-78302322D01*
X125196176Y-78424999D01*
X125196176Y-78448000D01*
X125046845Y-78448000D01*
X124995309Y-78396464D01*
X124868048Y-78311431D01*
X124726643Y-78252859D01*
X124576528Y-78223000D01*
X124423472Y-78223000D01*
X124273357Y-78252859D01*
X124131952Y-78311431D01*
X124004691Y-78396464D01*
X123896464Y-78504691D01*
X123811431Y-78631952D01*
X123752859Y-78773357D01*
X123723000Y-78923472D01*
X123723000Y-79076528D01*
X123752859Y-79226643D01*
X123811431Y-79368048D01*
X123896464Y-79495309D01*
X124004691Y-79603536D01*
X124131952Y-79688569D01*
X124273357Y-79747141D01*
X124423472Y-79777000D01*
X124576528Y-79777000D01*
X124726643Y-79747141D01*
X124868048Y-79688569D01*
X124995309Y-79603536D01*
X125046845Y-79552000D01*
X125196176Y-79552000D01*
X125196176Y-80575001D01*
X125208259Y-80697678D01*
X125244042Y-80815641D01*
X125302152Y-80924356D01*
X125380354Y-81019646D01*
X125475644Y-81097848D01*
X125584359Y-81155958D01*
X125702322Y-81191741D01*
X125824999Y-81203824D01*
X126550001Y-81203824D01*
X126672678Y-81191741D01*
X126790641Y-81155958D01*
X126899356Y-81097848D01*
X126994646Y-81019646D01*
X127072848Y-80924356D01*
X127130958Y-80815641D01*
X127166741Y-80697678D01*
X127178824Y-80575001D01*
X127178824Y-78424999D01*
X127166741Y-78302322D01*
X127130958Y-78184359D01*
X127072848Y-78075644D01*
X126994646Y-77980354D01*
X126899356Y-77902152D01*
X126835622Y-77868085D01*
X126894646Y-77819646D01*
X126972848Y-77724356D01*
X127030958Y-77615641D01*
X127066741Y-77497678D01*
X127078824Y-77375001D01*
X127078824Y-77227000D01*
X129721176Y-77227000D01*
X129721176Y-77375001D01*
X129733259Y-77497678D01*
X129769042Y-77615641D01*
X129827152Y-77724356D01*
X129905354Y-77819646D01*
X130000644Y-77897848D01*
X130064378Y-77931915D01*
X130005354Y-77980354D01*
X129927152Y-78075644D01*
X129869042Y-78184359D01*
X129833259Y-78302322D01*
X129821176Y-78424999D01*
X129821176Y-80575001D01*
X129833259Y-80697678D01*
X129869042Y-80815641D01*
X129927152Y-80924356D01*
X130005354Y-81019646D01*
X130100644Y-81097848D01*
X130209359Y-81155958D01*
X130327322Y-81191741D01*
X130449999Y-81203824D01*
X131175001Y-81203824D01*
X131297678Y-81191741D01*
X131415641Y-81155958D01*
X131524356Y-81097848D01*
X131619646Y-81019646D01*
X131697848Y-80924356D01*
X131755958Y-80815641D01*
X131773000Y-80759460D01*
X131773000Y-84844471D01*
X131722848Y-84750644D01*
X131644646Y-84655354D01*
X131549356Y-84577152D01*
X131440641Y-84519042D01*
X131322678Y-84483259D01*
X131200001Y-84471176D01*
X128999999Y-84471176D01*
X128877322Y-84483259D01*
X128759359Y-84519042D01*
X128650644Y-84577152D01*
X128555354Y-84655354D01*
X128477152Y-84750644D01*
X128419042Y-84859359D01*
X128407321Y-84898000D01*
X128343291Y-84898000D01*
X128019711Y-84574420D01*
X128097678Y-84566741D01*
X128215641Y-84530958D01*
X128324356Y-84472848D01*
X128419646Y-84394646D01*
X128497848Y-84299356D01*
X128555958Y-84190641D01*
X128591741Y-84072678D01*
X128603824Y-83950001D01*
X128603824Y-83049999D01*
X128591741Y-82927322D01*
X128555958Y-82809359D01*
X128497848Y-82700644D01*
X128419646Y-82605354D01*
X128324356Y-82527152D01*
X128215641Y-82469042D01*
X128097678Y-82433259D01*
X127975001Y-82421176D01*
X125824999Y-82421176D01*
X125702322Y-82433259D01*
X125584359Y-82469042D01*
X125475644Y-82527152D01*
X125380354Y-82605354D01*
X125302152Y-82700644D01*
X125244042Y-82809359D01*
X125208259Y-82927322D01*
X125201298Y-82998000D01*
X124871933Y-82997999D01*
X124847141Y-82873357D01*
X124788569Y-82731952D01*
X124703536Y-82604691D01*
X124595309Y-82496464D01*
X124468048Y-82411431D01*
X124326643Y-82352859D01*
X124176528Y-82323000D01*
X124023472Y-82323000D01*
X123873357Y-82352859D01*
X123731952Y-82411431D01*
X123604691Y-82496464D01*
X123496464Y-82604691D01*
X123411431Y-82731952D01*
X123352859Y-82873357D01*
X123323000Y-83023472D01*
X123323000Y-83033821D01*
X123303536Y-83004691D01*
X123202000Y-82903155D01*
X123202000Y-82071933D01*
X123326643Y-82047141D01*
X123468048Y-81988569D01*
X123595309Y-81903536D01*
X123703536Y-81795309D01*
X123788569Y-81668048D01*
X123847141Y-81526643D01*
X123877000Y-81376528D01*
X123877000Y-81223472D01*
X123847141Y-81073357D01*
X123788569Y-80931952D01*
X123703536Y-80804691D01*
X123595309Y-80696464D01*
X123468048Y-80611431D01*
X123326643Y-80552859D01*
X123176528Y-80523000D01*
X123023472Y-80523000D01*
X122873357Y-80552859D01*
X122731952Y-80611431D01*
X122604691Y-80696464D01*
X122496464Y-80804691D01*
X122411431Y-80931952D01*
X122352859Y-81073357D01*
X122323000Y-81223472D01*
X122323000Y-81276577D01*
X122320693Y-81300000D01*
X122323000Y-81323423D01*
X122323000Y-81368071D01*
X122280584Y-81419755D01*
X122233970Y-81506964D01*
X122205265Y-81601591D01*
X122195573Y-81700000D01*
X122198001Y-81724653D01*
X122198000Y-82903155D01*
X122096464Y-83004691D01*
X122011431Y-83131952D01*
X121952859Y-83273357D01*
X121923000Y-83423472D01*
X121923000Y-83576528D01*
X121952859Y-83726643D01*
X122011431Y-83868048D01*
X122096464Y-83995309D01*
X122204691Y-84103536D01*
X122331952Y-84188569D01*
X122473357Y-84247141D01*
X122623472Y-84277000D01*
X122776528Y-84277000D01*
X122926643Y-84247141D01*
X123068048Y-84188569D01*
X123195309Y-84103536D01*
X123303536Y-83995309D01*
X123388569Y-83868048D01*
X123447141Y-83726643D01*
X123477000Y-83576528D01*
X123477000Y-83566179D01*
X123496464Y-83595309D01*
X123604691Y-83703536D01*
X123731952Y-83788569D01*
X123873357Y-83847141D01*
X124023472Y-83877000D01*
X124168071Y-83877000D01*
X124219753Y-83919415D01*
X124306962Y-83966029D01*
X124401589Y-83994734D01*
X124499998Y-84004426D01*
X124524651Y-84001998D01*
X125201297Y-84001999D01*
X125208259Y-84072678D01*
X125244042Y-84190641D01*
X125302152Y-84299356D01*
X125380354Y-84394646D01*
X125475644Y-84472848D01*
X125584359Y-84530958D01*
X125702322Y-84566741D01*
X125824999Y-84578824D01*
X126530884Y-84578824D01*
X126545666Y-84590955D01*
X127734053Y-85779344D01*
X127750552Y-85799448D01*
X127830798Y-85865304D01*
X127922350Y-85914239D01*
X128021690Y-85944374D01*
X128125000Y-85954549D01*
X128150881Y-85952000D01*
X128407321Y-85952000D01*
X128419042Y-85990641D01*
X128477152Y-86099356D01*
X128555354Y-86194646D01*
X128650644Y-86272848D01*
X128759359Y-86330958D01*
X128877322Y-86366741D01*
X128999999Y-86378824D01*
X131200001Y-86378824D01*
X131322678Y-86366741D01*
X131440641Y-86330958D01*
X131549356Y-86272848D01*
X131644646Y-86194646D01*
X131722848Y-86099356D01*
X131773000Y-86005529D01*
X131773000Y-88493766D01*
X131755624Y-88670189D01*
X131705978Y-88833850D01*
X131625362Y-88984672D01*
X131516870Y-89116870D01*
X131384672Y-89225362D01*
X131233850Y-89305978D01*
X131070189Y-89355624D01*
X130893766Y-89373000D01*
X121877000Y-89373000D01*
X121877000Y-88700000D01*
X121873538Y-88664692D01*
X121870322Y-88629357D01*
X121869949Y-88628090D01*
X121869820Y-88626774D01*
X121859555Y-88592775D01*
X121849548Y-88558773D01*
X121848937Y-88557604D01*
X121848554Y-88556336D01*
X121831874Y-88524966D01*
X121815460Y-88493569D01*
X121814632Y-88492540D01*
X121814011Y-88491371D01*
X121791572Y-88463858D01*
X121769356Y-88436227D01*
X121768343Y-88435377D01*
X121767508Y-88434353D01*
X121740194Y-88411757D01*
X121712993Y-88388932D01*
X121711833Y-88388294D01*
X121710816Y-88387453D01*
X121679660Y-88370607D01*
X121648516Y-88353486D01*
X121647254Y-88353086D01*
X121646093Y-88352458D01*
X121612262Y-88341985D01*
X121578383Y-88331238D01*
X121577067Y-88331090D01*
X121575806Y-88330700D01*
X121540512Y-88326990D01*
X121505264Y-88323037D01*
X121502729Y-88323019D01*
X121502632Y-88323009D01*
X121502535Y-88323018D01*
X121500000Y-88323000D01*
X119500000Y-88323000D01*
X119464692Y-88326462D01*
X119429357Y-88329678D01*
X119428090Y-88330051D01*
X119426774Y-88330180D01*
X119392775Y-88340445D01*
X119358773Y-88350452D01*
X119357604Y-88351063D01*
X119356336Y-88351446D01*
X119324966Y-88368126D01*
X119293569Y-88384540D01*
X119292540Y-88385368D01*
X119291371Y-88385989D01*
X119263858Y-88408428D01*
X119236227Y-88430644D01*
X119235377Y-88431657D01*
X119234353Y-88432492D01*
X119211757Y-88459806D01*
X119188932Y-88487007D01*
X119188294Y-88488167D01*
X119187453Y-88489184D01*
X119170607Y-88520340D01*
X119153486Y-88551484D01*
X119153086Y-88552746D01*
X119152458Y-88553907D01*
X119141985Y-88587738D01*
X119131238Y-88621617D01*
X119131090Y-88622933D01*
X119130700Y-88624194D01*
X119126990Y-88659488D01*
X119123037Y-88694736D01*
X119123019Y-88697271D01*
X119123009Y-88697368D01*
X119123018Y-88697465D01*
X119123000Y-88700000D01*
X119123000Y-90758338D01*
X118992873Y-90773000D01*
X113460193Y-90773000D01*
X113368048Y-90711431D01*
X113226643Y-90652859D01*
X113076528Y-90623000D01*
X112923472Y-90623000D01*
X112773357Y-90652859D01*
X112631952Y-90711431D01*
X112539807Y-90773000D01*
X112218291Y-90773000D01*
X111827000Y-90381711D01*
X111827000Y-88145434D01*
X113343611Y-86628824D01*
X115250002Y-86628824D01*
X115372679Y-86616741D01*
X115490642Y-86580958D01*
X115599357Y-86522848D01*
X115694646Y-86444646D01*
X115772848Y-86349357D01*
X115830958Y-86240642D01*
X115866741Y-86122679D01*
X115878824Y-86000002D01*
X115878824Y-84924998D01*
X115866741Y-84802321D01*
X115830958Y-84684358D01*
X115772848Y-84575643D01*
X115694646Y-84480354D01*
X115599357Y-84402152D01*
X115490642Y-84344042D01*
X115372679Y-84308259D01*
X115250002Y-84296176D01*
X112554570Y-84296176D01*
X112503309Y-84280626D01*
X112400000Y-84270451D01*
X112296691Y-84280626D01*
X112197351Y-84310761D01*
X112168847Y-84325997D01*
X112109358Y-84344042D01*
X112000643Y-84402152D01*
X111905354Y-84480354D01*
X111869424Y-84524135D01*
X111827000Y-84481711D01*
X111827000Y-84471845D01*
X111903536Y-84395309D01*
X111988569Y-84268048D01*
X112047141Y-84126643D01*
X112077000Y-83976528D01*
X112077000Y-83823472D01*
X112047141Y-83673357D01*
X111988569Y-83531952D01*
X111903536Y-83404691D01*
X111795309Y-83296464D01*
X111668048Y-83211431D01*
X111526643Y-83152859D01*
X111376528Y-83123000D01*
X111223472Y-83123000D01*
X111073357Y-83152859D01*
X110931952Y-83211431D01*
X110804691Y-83296464D01*
X110696464Y-83404691D01*
X110611431Y-83531952D01*
X110552859Y-83673357D01*
X110523000Y-83823472D01*
X110523000Y-83976528D01*
X110552859Y-84126643D01*
X110611431Y-84268048D01*
X110696464Y-84395309D01*
X110773000Y-84471845D01*
X110773000Y-84674119D01*
X110770451Y-84700000D01*
X110780626Y-84803309D01*
X110810761Y-84902649D01*
X110854616Y-84984696D01*
X110859697Y-84994202D01*
X110925553Y-85074448D01*
X110945661Y-85090950D01*
X111671553Y-85816844D01*
X111688052Y-85836948D01*
X111721176Y-85864132D01*
X111721176Y-86000002D01*
X111733259Y-86122679D01*
X111769042Y-86240642D01*
X111827152Y-86349357D01*
X111905354Y-86444646D01*
X112000643Y-86522848D01*
X112019590Y-86532976D01*
X111058585Y-87493981D01*
X111005798Y-87522196D01*
X110925552Y-87588052D01*
X110859696Y-87668298D01*
X110810761Y-87759851D01*
X110780626Y-87859191D01*
X110773000Y-87936620D01*
X110773001Y-90574109D01*
X110770451Y-90600000D01*
X110780626Y-90703309D01*
X110782985Y-90711085D01*
X110766150Y-90705978D01*
X110615328Y-90625362D01*
X110483130Y-90516870D01*
X110374638Y-90384672D01*
X110294022Y-90233850D01*
X110244376Y-90070189D01*
X110227000Y-89893766D01*
X110227000Y-84600000D01*
X110226388Y-84587552D01*
X110207173Y-84392462D01*
X110202317Y-84368044D01*
X110145412Y-84180451D01*
X110135884Y-84157450D01*
X110043474Y-83984563D01*
X110029642Y-83963862D01*
X109905279Y-83812325D01*
X109887675Y-83794721D01*
X109736138Y-83670358D01*
X109715437Y-83656526D01*
X109542550Y-83564116D01*
X109519549Y-83554588D01*
X109331956Y-83497683D01*
X109307538Y-83492827D01*
X109112448Y-83473612D01*
X109100000Y-83473000D01*
X107906234Y-83473000D01*
X107729811Y-83455624D01*
X107566150Y-83405978D01*
X107415328Y-83325362D01*
X107283130Y-83216870D01*
X107174638Y-83084672D01*
X107094022Y-82933850D01*
X107044376Y-82770189D01*
X107027000Y-82593766D01*
X107027000Y-82123472D01*
X117123000Y-82123472D01*
X117123000Y-82276528D01*
X117152859Y-82426643D01*
X117211431Y-82568048D01*
X117296464Y-82695309D01*
X117404691Y-82803536D01*
X117423001Y-82815770D01*
X117423001Y-83276575D01*
X117420694Y-83300000D01*
X117429903Y-83393507D01*
X117457178Y-83483422D01*
X117477796Y-83521995D01*
X117501472Y-83566289D01*
X117561080Y-83638921D01*
X117579271Y-83653850D01*
X117623000Y-83697579D01*
X117623000Y-83984230D01*
X117604691Y-83996464D01*
X117496464Y-84104691D01*
X117411431Y-84231952D01*
X117352859Y-84373357D01*
X117323000Y-84523472D01*
X117323000Y-84676528D01*
X117352859Y-84826643D01*
X117411431Y-84968048D01*
X117496464Y-85095309D01*
X117604691Y-85203536D01*
X117731952Y-85288569D01*
X117873357Y-85347141D01*
X118023472Y-85377000D01*
X118176528Y-85377000D01*
X118326643Y-85347141D01*
X118468048Y-85288569D01*
X118595309Y-85203536D01*
X118703536Y-85095309D01*
X118788569Y-84968048D01*
X118847141Y-84826643D01*
X118877000Y-84676528D01*
X118877000Y-84523472D01*
X118847141Y-84373357D01*
X118788569Y-84231952D01*
X118703536Y-84104691D01*
X118595309Y-83996464D01*
X118577000Y-83984230D01*
X118577000Y-83523415D01*
X118579306Y-83500000D01*
X118577000Y-83476585D01*
X118577000Y-83476577D01*
X118570097Y-83406492D01*
X118542822Y-83316577D01*
X118498529Y-83233711D01*
X118438921Y-83161079D01*
X118420724Y-83146145D01*
X118377000Y-83102421D01*
X118377000Y-82815770D01*
X118395309Y-82803536D01*
X118503536Y-82695309D01*
X118588569Y-82568048D01*
X118647141Y-82426643D01*
X118677000Y-82276528D01*
X118677000Y-82123472D01*
X118647141Y-81973357D01*
X118588569Y-81831952D01*
X118503536Y-81704691D01*
X118395309Y-81596464D01*
X118268048Y-81511431D01*
X118126643Y-81452859D01*
X117976528Y-81423000D01*
X117823472Y-81423000D01*
X117673357Y-81452859D01*
X117531952Y-81511431D01*
X117404691Y-81596464D01*
X117296464Y-81704691D01*
X117211431Y-81831952D01*
X117152859Y-81973357D01*
X117123000Y-82123472D01*
X107027000Y-82123472D01*
X107027000Y-80806234D01*
X107044376Y-80629811D01*
X107094022Y-80466150D01*
X107174638Y-80315328D01*
X107283130Y-80183130D01*
X107415328Y-80074638D01*
X107566150Y-79994022D01*
X107729811Y-79944376D01*
X107906234Y-79927000D01*
X110400000Y-79927000D01*
X110412448Y-79926388D01*
X110607538Y-79907173D01*
X110631956Y-79902317D01*
X110819549Y-79845412D01*
X110842550Y-79835884D01*
X111015437Y-79743474D01*
X111036138Y-79729642D01*
X111187675Y-79605279D01*
X111205279Y-79587675D01*
X111329642Y-79436138D01*
X111343474Y-79415437D01*
X111435884Y-79242550D01*
X111445412Y-79219549D01*
X111502317Y-79031956D01*
X111507173Y-79007538D01*
X111526388Y-78812448D01*
X111527000Y-78800000D01*
X111527000Y-78106234D01*
X111544376Y-77929811D01*
X111594022Y-77766150D01*
X111674638Y-77615328D01*
X111783130Y-77483130D01*
X111915328Y-77374638D01*
X112066150Y-77294022D01*
X112229811Y-77244376D01*
X112406234Y-77227000D01*
X125096176Y-77227000D01*
X125096176Y-77375001D01*
G37*
G04 #@! TD.AperFunction*
G04 #@! TD*
M02*
