M48
INCH
T1C0.0118
T2C0.0157
T3C0.0315
T4C0.0469
T5C0.0728
T6C0.1260
%
G90
G05
T1
X4.5914Y-3.4764
X4.5914Y-3.5236
X4.6386Y-3.4764
X4.6386Y-3.5236
X4.6909Y-3.0925
X4.6909Y-3.1752
X4.7736Y-3.0925
X4.7736Y-3.1752
T2
X3.585Y-2.9988
X3.585Y-3.0488
X3.585Y-3.0988
X3.585Y-3.1488
X3.585Y-3.1988
X3.585Y-3.2488
X3.585Y-3.2988
X3.585Y-3.3488
X3.585Y-3.398
X3.6342Y-3.3488
X3.6342Y-3.398
X3.635Y-2.9988
X3.635Y-3.0488
X3.635Y-3.0988
X3.635Y-3.1488
X3.635Y-3.1988
X3.635Y-3.2488
X3.635Y-3.2988
X3.6834Y-3.3488
X3.6834Y-3.398
X3.685Y-2.9988
X3.685Y-3.0488
X3.685Y-3.0988
X3.685Y-3.1488
X3.685Y-3.1988
X3.685Y-3.2488
X3.685Y-3.2988
X3.7326Y-3.3488
X3.7326Y-3.398
X3.735Y-2.9988
X3.735Y-3.0488
X3.735Y-3.0988
X3.735Y-3.1488
X3.735Y-3.1988
X3.735Y-3.2488
X3.735Y-3.2988
X3.7819Y-3.3488
X3.7819Y-3.398
X3.785Y-2.9988
X3.785Y-3.0488
X3.785Y-3.0988
X3.785Y-3.1488
X3.785Y-3.1988
X3.785Y-3.2488
X3.785Y-3.2988
X3.8311Y-3.3488
X3.8311Y-3.398
X3.835Y-2.9988
X3.835Y-3.0488
X3.835Y-3.0988
X3.835Y-3.1488
X3.835Y-3.1988
X3.835Y-3.2488
X3.835Y-3.2988
X3.8803Y-3.3488
X3.8803Y-3.398
X3.885Y-2.9988
X3.885Y-3.0488
X3.885Y-3.0988
X3.885Y-3.1488
X3.885Y-3.1988
X3.885Y-3.2488
X3.885Y-3.2988
X3.935Y-2.9988
X3.935Y-3.0488
X3.935Y-3.0988
X3.935Y-3.1488
X3.935Y-3.1988
X3.935Y-3.248
X3.935Y-3.2972
X3.935Y-3.3465
X3.935Y-3.3957
X3.9842Y-3.1988
X3.9842Y-3.248
X3.9842Y-3.2972
X3.9842Y-3.3465
X3.9842Y-3.3957
X4.0334Y-3.1988
X4.0334Y-3.248
X4.0334Y-3.2972
X4.0334Y-3.3465
X4.0334Y-3.3957
X4.0826Y-3.1988
X4.0826Y-3.248
X4.0826Y-3.2972
X4.0826Y-3.3465
X4.0826Y-3.3957
X4.315Y-3.1142
X4.3268Y-3.0512
X4.5039Y-3.1535
X4.5079Y-3.0591
X4.5709Y-3.626
X4.6024Y-3.0551
X4.622Y-3.2244
X4.622Y-3.2677
X4.689Y-3.3701
X4.7126Y-2.9528
X4.8228Y-3.3268
X4.8386Y-2.9134
X4.8701Y-3.248
X4.878Y-3.315
X4.9016Y-1.7638
X4.9016Y-1.813
X4.9016Y-1.8622
X4.9016Y-1.9114
X4.9016Y-1.9606
X4.9016Y-2.0098
X4.9016Y-2.0591
X4.9016Y-2.1083
X4.9016Y-2.1575
X4.9016Y-2.2067
X4.9016Y-2.2559
X4.9016Y-2.3051
X4.9016Y-2.3543
X4.9016Y-2.4035
X4.9016Y-3.1102
X4.9094Y-2.8543
X4.9508Y-1.7638
X4.9508Y-1.813
X4.9508Y-1.8622
X4.9508Y-1.9114
X4.9508Y-1.9606
X4.9508Y-2.0098
X4.9508Y-2.0591
X4.9508Y-2.1083
X4.9508Y-2.1575
X4.9508Y-2.2067
X4.9508Y-2.2559
X4.9508Y-2.3051
X4.9508Y-2.3543
X4.9508Y-2.4035
X5.0Y-1.7638
X5.0Y-1.813
X5.0Y-1.8622
X5.0Y-1.9114
X5.0Y-1.9606
X5.0Y-2.0098
X5.0Y-2.0591
X5.0Y-2.1083
X5.0Y-2.1575
X5.0Y-2.2067
X5.0Y-2.2559
X5.0Y-2.3051
X5.0Y-2.3543
X5.0Y-2.4035
X5.0492Y-1.7638
X5.0492Y-1.813
X5.0492Y-1.8622
X5.0492Y-1.9114
X5.0492Y-1.9606
X5.0492Y-2.0098
X5.0492Y-2.0591
X5.0492Y-2.1083
X5.0492Y-2.1575
X5.0492Y-2.2067
X5.0492Y-2.2559
X5.0492Y-2.3051
X5.0492Y-2.3543
X5.0492Y-2.4035
X5.0748Y-3.1929
X5.0984Y-1.7638
X5.0984Y-1.813
X5.0984Y-1.8622
X5.0984Y-1.9114
X5.0984Y-1.9606
X5.0984Y-2.0098
X5.0984Y-2.0591
X5.0984Y-2.1083
X5.0984Y-2.1575
X5.0984Y-2.2067
X5.0984Y-2.2559
X5.0984Y-2.3051
X5.0984Y-2.3543
X5.0984Y-2.4035
X5.1476Y-1.7638
X5.1476Y-1.813
X5.1476Y-1.8622
X5.1476Y-1.9114
X5.1476Y-1.9606
X5.1476Y-2.0098
X5.1476Y-2.0591
X5.1476Y-2.1083
X5.1476Y-2.1575
X5.1476Y-2.2067
X5.1476Y-2.2559
X5.1476Y-2.3051
X5.1476Y-2.3543
X5.1476Y-2.4035
X5.1969Y-1.7638
X5.1969Y-1.813
X5.1969Y-1.8622
X5.1969Y-1.9114
X5.1969Y-1.9606
X5.1969Y-2.0098
X5.1969Y-2.0591
X5.1969Y-2.1083
X5.1969Y-2.1575
X5.1969Y-2.2067
X5.1969Y-2.2559
X5.1969Y-2.3051
X5.1969Y-2.3543
X5.1969Y-2.4035
X5.2461Y-1.7638
X5.2461Y-1.813
X5.2461Y-1.8622
X5.2461Y-1.9114
X5.2461Y-1.9606
X5.2461Y-2.0098
X5.2461Y-2.0591
X5.2461Y-2.1083
X5.2461Y-2.1575
X5.2461Y-2.2067
X5.2461Y-2.2559
X5.2461Y-2.3051
X5.2461Y-2.3543
X5.2461Y-2.4035
X5.252Y-2.9528
X5.2953Y-1.7638
X5.2953Y-1.813
X5.2953Y-1.8622
X5.2953Y-1.9114
X5.2953Y-1.9606
X5.3425Y-3.691
X5.3425Y-3.7402
X5.3425Y-3.7894
X5.3425Y-3.8386
X5.3425Y-3.8878
X5.3425Y-3.937
X5.3425Y-3.9863
X5.3445Y-1.7638
X5.3445Y-1.813
X5.3445Y-1.8622
X5.3445Y-1.9114
X5.3445Y-1.9606
X5.3917Y-3.691
X5.3917Y-3.7402
X5.3917Y-3.7894
X5.3917Y-3.8386
X5.3917Y-3.8878
X5.3917Y-3.937
X5.3917Y-3.9863
X5.3937Y-1.7638
X5.3937Y-1.813
X5.3937Y-1.8622
X5.3937Y-1.9114
X5.3937Y-1.9606
X5.4409Y-3.691
X5.4409Y-3.7402
X5.4409Y-3.7894
X5.4409Y-3.8386
X5.4409Y-3.8878
X5.4409Y-3.937
X5.4409Y-3.9863
X5.4429Y-1.7638
X5.4429Y-1.813
X5.4429Y-1.8622
X5.4429Y-1.9114
X5.4429Y-1.9606
X5.4902Y-3.691
X5.4902Y-3.7402
X5.4902Y-3.7894
X5.4902Y-3.8386
X5.4902Y-3.8878
X5.4902Y-3.937
X5.4902Y-3.9863
X5.4921Y-1.7638
X5.4921Y-1.813
X5.4921Y-1.8622
X5.4921Y-1.9114
X5.4921Y-1.9606
X5.5394Y-3.691
X5.5394Y-3.7402
X5.5394Y-3.7894
X5.5394Y-3.8386
X5.5394Y-3.8878
X5.5394Y-3.937
X5.5394Y-3.9863
X5.5413Y-1.7638
X5.5413Y-1.813
X5.5413Y-1.8622
X5.5413Y-1.9114
X5.5413Y-1.9606
X5.5886Y-3.691
X5.5886Y-3.7402
X5.5886Y-3.7894
X5.5886Y-3.8386
X5.5886Y-3.8878
X5.5886Y-3.937
X5.5886Y-3.9863
X5.5906Y-1.7638
X5.5906Y-1.813
X5.5906Y-1.8622
X5.5906Y-1.9114
X5.5906Y-1.9606
X5.6378Y-3.691
X5.6378Y-3.7402
X5.6378Y-3.7894
X5.6378Y-3.8386
X5.6378Y-3.8878
X5.6378Y-3.937
X5.6378Y-3.9863
X5.6398Y-1.7638
X5.6398Y-1.813
X5.6398Y-1.8622
X5.6398Y-1.9114
X5.6398Y-1.9606
X5.687Y-3.691
X5.687Y-3.7402
X5.687Y-3.7894
X5.687Y-3.8386
X5.687Y-3.8878
X5.687Y-3.937
X5.687Y-3.9863
X5.689Y-1.7638
X5.689Y-1.813
X5.689Y-1.8622
X5.689Y-1.9114
X5.689Y-1.9606
X5.7362Y-3.691
X5.7362Y-3.7402
X5.7362Y-3.7894
X5.7362Y-3.8386
X5.7362Y-3.8878
X5.7362Y-3.937
X5.7362Y-3.9863
X5.7382Y-1.7638
X5.7382Y-1.813
X5.7382Y-1.8622
X5.7382Y-1.9114
X5.7382Y-1.9606
X5.7854Y-3.691
X5.7854Y-3.7402
X5.7854Y-3.7894
X5.7854Y-3.8386
X5.7854Y-3.8878
X5.7854Y-3.937
X5.7854Y-3.9863
X5.7874Y-1.7638
X5.7874Y-1.813
X5.7874Y-1.8622
X5.7874Y-1.9114
X5.7874Y-1.9606
X5.8366Y-1.7638
X5.8366Y-1.813
X5.8366Y-1.8622
X5.8366Y-1.9114
X5.8366Y-1.9606
X5.8858Y-1.7638
X5.8858Y-1.813
X5.8858Y-1.8622
X5.8858Y-1.9114
X5.8858Y-1.9606
X5.935Y-1.7638
X5.935Y-1.813
X5.935Y-1.8622
X5.935Y-1.9114
X5.935Y-1.9606
X5.9843Y-1.7638
X5.9843Y-1.813
X5.9843Y-1.8622
X5.9843Y-1.9114
X5.9843Y-1.9606
X6.0335Y-1.7638
X6.0335Y-1.813
X6.0335Y-1.8622
X6.0335Y-1.9114
X6.0335Y-1.9606
X6.0827Y-1.7638
X6.0827Y-1.813
X6.0827Y-1.8622
X6.0827Y-1.9114
X6.0827Y-1.9606
X6.1319Y-1.7638
X6.1319Y-1.813
X6.1319Y-1.8622
X6.1319Y-1.9114
X6.1319Y-1.9606
X6.1811Y-1.7638
X6.1811Y-1.813
X6.1811Y-1.8622
X6.1811Y-1.9114
X6.1811Y-1.9606
T3
X6.685Y-2.9646
X6.685Y-3.063
T4
X4.2756Y-3.2457
X4.2756Y-3.3457
X4.2756Y-3.4457
X4.2756Y-3.5457
X4.2756Y-3.6457
T5
X3.6204Y-1.8608
X3.6204Y-2.0354
X3.6204Y-2.21
X3.6207Y-3.5301
X3.6207Y-3.7047
X3.6207Y-3.8793
X3.795Y-1.8608
X3.795Y-2.0354
X3.795Y-2.21
X3.7953Y-3.5301
X3.7953Y-3.7047
X3.7953Y-3.8793
X3.9696Y-1.8608
X3.9696Y-2.0354
X3.9696Y-2.21
X3.9699Y-3.5301
X3.9699Y-3.7047
X3.9699Y-3.8793
X6.3687Y-2.3844
X6.3687Y-2.5591
X6.3687Y-2.7337
X6.3687Y-3.2781
X6.3687Y-3.4528
X6.3687Y-3.6274
X6.5433Y-2.3844
X6.5433Y-2.5591
X6.5433Y-2.7337
X6.5433Y-3.2781
X6.5433Y-3.4528
X6.5433Y-3.6274
X6.7179Y-2.3844
X6.7179Y-2.5591
X6.7179Y-2.7337
X6.7179Y-3.2781
X6.7179Y-3.4528
X6.7179Y-3.6274
T6
X3.6693Y-2.8465
X5.9961Y-3.8543
X6.3346Y-1.8858
T0
M30
