M48
; DRILL file {KiCad (5.1.10)-1} date 05/12/21 23:59:50
; FORMAT={-:-/ absolute / metric / decimal}
; #@! TF.CreationDate,2021-05-12T23:59:50-04:00
; #@! TF.GenerationSoftware,Kicad,Pcbnew,(5.1.10)-1
; #@! TF.FileFunction,Plated,1,2,PTH
FMAT,2
METRIC
T1C0.200
T2C0.400
T3C1.190
T4C1.850
%
G90
G05
T1
X116.171Y-87.85
X116.171Y-89.95
X118.271Y-87.85
X118.271Y-89.95
X119.55Y-77.005
X119.55Y-78.105
X119.55Y-79.205
X120.65Y-77.005
X120.65Y-78.105
X120.65Y-79.205
X121.75Y-77.005
X121.75Y-78.105
X121.75Y-79.205
T2
X91.059Y-77.47
X91.059Y-78.74
X91.059Y-80.01
X91.059Y-81.28
X91.059Y-82.55
X91.059Y-83.82
X91.059Y-85.09
X91.059Y-86.36
X92.329Y-77.47
X92.329Y-78.74
X92.329Y-80.01
X92.329Y-81.28
X92.329Y-82.55
X92.329Y-83.82
X92.329Y-85.09
X92.329Y-86.36
X93.599Y-77.47
X93.599Y-78.74
X93.599Y-80.01
X93.599Y-81.28
X93.599Y-82.55
X93.599Y-83.82
X93.599Y-85.09
X93.599Y-86.36
X94.869Y-77.47
X94.869Y-78.74
X94.869Y-80.01
X94.869Y-81.28
X94.869Y-82.55
X94.869Y-83.82
X94.869Y-85.09
X94.869Y-86.36
X96.139Y-77.47
X96.139Y-78.74
X96.139Y-80.01
X96.139Y-81.28
X96.139Y-82.55
X96.139Y-83.82
X96.139Y-85.09
X96.139Y-86.36
X97.409Y-77.47
X97.409Y-78.74
X97.409Y-80.01
X97.409Y-81.28
X97.409Y-82.55
X97.409Y-83.82
X97.409Y-85.09
X97.409Y-86.36
X98.679Y-77.47
X98.679Y-78.74
X98.679Y-80.01
X98.679Y-81.28
X98.679Y-82.55
X98.679Y-83.82
X98.679Y-85.09
X98.679Y-86.36
X99.949Y-77.47
X99.949Y-78.74
X99.949Y-80.01
X99.949Y-81.28
X99.949Y-82.55
X99.949Y-83.82
X99.949Y-85.09
X99.949Y-86.36
X105.156Y-82.677
X115.062Y-80.137
X115.316Y-81.661
X115.443Y-74.168
X115.951Y-76.327
X116.459Y-85.598
X117.475Y-85.09
X117.729Y-74.803
X119.126Y-65.024
X120.015Y-65.024
X120.904Y-65.024
X121.158Y-85.471
X122.301Y-82.677
X123.063Y-81.534
X123.444Y-62.611
X123.825Y-80.137
X124.079Y-74.93
X124.333Y-71.755
X124.46Y-38.735
X124.46Y-40.005
X124.46Y-41.275
X124.46Y-42.545
X124.46Y-43.815
X124.46Y-45.085
X124.46Y-46.355
X124.46Y-47.625
X124.587Y-79.248
X124.714Y-76.327
X124.714Y-77.343
X125.349Y-78.232
X125.73Y-38.735
X125.73Y-40.005
X125.73Y-41.275
X125.73Y-42.545
X125.73Y-43.815
X125.73Y-45.085
X125.73Y-46.355
X125.73Y-47.625
X127.0Y-38.735
X127.0Y-40.005
X127.0Y-41.275
X127.0Y-42.545
X127.0Y-43.815
X127.0Y-45.085
X127.0Y-46.355
X127.0Y-47.625
X127.508Y-58.293
X128.121Y-68.812
X128.27Y-38.735
X128.27Y-40.005
X128.27Y-41.275
X128.27Y-42.545
X128.27Y-43.815
X128.27Y-45.085
X128.27Y-46.355
X128.27Y-47.625
X129.54Y-38.735
X129.54Y-40.005
X129.54Y-41.275
X129.54Y-42.545
X129.54Y-43.815
X129.54Y-45.085
X129.54Y-46.355
X129.54Y-47.625
X130.81Y-38.735
X130.81Y-40.005
X130.81Y-41.275
X130.81Y-42.545
X130.81Y-43.815
X130.81Y-45.085
X130.81Y-46.355
X130.81Y-47.625
X132.08Y-38.735
X132.08Y-40.005
X132.08Y-41.275
X132.08Y-42.545
X132.08Y-43.815
X132.08Y-45.085
X132.08Y-46.355
X132.08Y-47.625
X133.35Y-38.735
X133.35Y-40.005
X133.35Y-41.275
X133.35Y-42.545
X133.35Y-43.815
X133.35Y-45.085
X133.35Y-46.355
X133.35Y-47.625
X137.795Y-73.787
T3
X109.728Y-86.868
X109.728Y-89.408
X109.728Y-91.948
X109.728Y-94.488
T4
X91.958Y-39.634
X91.958Y-44.069
X91.958Y-48.504
X92.212Y-89.672
X92.212Y-94.107
X92.212Y-98.542
X96.393Y-39.634
X96.393Y-44.069
X96.393Y-48.504
X96.647Y-89.672
X96.647Y-94.107
X96.647Y-98.542
X100.828Y-39.634
X100.828Y-44.069
X100.828Y-48.504
X101.082Y-89.672
X101.082Y-94.107
X101.082Y-98.542
X162.189Y-51.191
X162.189Y-55.626
X162.189Y-60.061
X162.189Y-67.828
X162.189Y-72.263
X162.189Y-76.698
X166.624Y-51.191
X166.624Y-55.626
X166.624Y-60.061
X166.624Y-67.828
X166.624Y-72.263
X166.624Y-76.698
X171.059Y-51.191
X171.059Y-55.626
X171.059Y-60.061
X171.059Y-67.828
X171.059Y-72.263
X171.059Y-76.698
T0
M30
