G04 #@! TF.GenerationSoftware,KiCad,Pcbnew,(5.1.9)-1*
G04 #@! TF.CreationDate,2021-06-30T16:08:22-04:00*
G04 #@! TF.ProjectId,Motor Controller 2020,4d6f746f-7220-4436-9f6e-74726f6c6c65,rev?*
G04 #@! TF.SameCoordinates,Original*
G04 #@! TF.FileFunction,Copper,L2,Bot*
G04 #@! TF.FilePolarity,Positive*
%FSLAX46Y46*%
G04 Gerber Fmt 4.6, Leading zero omitted, Abs format (unit mm)*
G04 Created by KiCad (PCBNEW (5.1.9)-1) date 2021-06-30 16:08:22*
%MOMM*%
%LPD*%
G01*
G04 APERTURE LIST*
G04 #@! TA.AperFunction,Profile*
%ADD10C,0.050000*%
G04 #@! TD*
G04 #@! TA.AperFunction,ComponentPad*
%ADD11C,3.200000*%
G04 #@! TD*
G04 #@! TA.AperFunction,ComponentPad*
%ADD12O,2.190000X1.740000*%
G04 #@! TD*
G04 #@! TA.AperFunction,SMDPad,CuDef*
%ADD13R,10.800000X9.400000*%
G04 #@! TD*
G04 #@! TA.AperFunction,SMDPad,CuDef*
%ADD14R,1.100000X4.600000*%
G04 #@! TD*
G04 #@! TA.AperFunction,ComponentPad*
%ADD15C,0.500000*%
G04 #@! TD*
G04 #@! TA.AperFunction,SMDPad,CuDef*
%ADD16R,2.600000X2.600000*%
G04 #@! TD*
G04 #@! TA.AperFunction,SMDPad,CuDef*
%ADD17R,1.700000X1.700000*%
G04 #@! TD*
G04 #@! TA.AperFunction,ViaPad*
%ADD18C,0.800000*%
G04 #@! TD*
G04 #@! TA.AperFunction,Conductor*
%ADD19C,0.250000*%
G04 #@! TD*
G04 #@! TA.AperFunction,Conductor*
%ADD20C,0.200000*%
G04 #@! TD*
G04 #@! TA.AperFunction,Conductor*
%ADD21C,0.254000*%
G04 #@! TD*
G04 #@! TA.AperFunction,Conductor*
%ADD22C,0.150000*%
G04 #@! TD*
G04 APERTURE END LIST*
D10*
X174700000Y-102900000D02*
X174700000Y-42900000D01*
X88700000Y-42900000D02*
X174700000Y-42900000D01*
X88700000Y-102900000D02*
X88700000Y-42900000D01*
X88700000Y-102900000D02*
X174700000Y-102900000D01*
G04 #@! TO.P,C3,1*
G04 #@! TO.N,Net-(C3-Pad1)*
G04 #@! TA.AperFunction,SMDPad,CuDef*
G36*
G01*
X110275000Y-74850002D02*
X110275000Y-71949998D01*
G75*
G02*
X110524998Y-71700000I249998J0D01*
G01*
X111600002Y-71700000D01*
G75*
G02*
X111850000Y-71949998I0J-249998D01*
G01*
X111850000Y-74850002D01*
G75*
G02*
X111600002Y-75100000I-249998J0D01*
G01*
X110524998Y-75100000D01*
G75*
G02*
X110275000Y-74850002I0J249998D01*
G01*
G37*
G04 #@! TD.AperFunction*
G04 #@! TO.P,C3,2*
G04 #@! TO.N,Net-(C3-Pad2)*
G04 #@! TA.AperFunction,SMDPad,CuDef*
G36*
G01*
X114550000Y-74850002D02*
X114550000Y-71949998D01*
G75*
G02*
X114799998Y-71700000I249998J0D01*
G01*
X115875002Y-71700000D01*
G75*
G02*
X116125000Y-71949998I0J-249998D01*
G01*
X116125000Y-74850002D01*
G75*
G02*
X115875002Y-75100000I-249998J0D01*
G01*
X114799998Y-75100000D01*
G75*
G02*
X114550000Y-74850002I0J249998D01*
G01*
G37*
G04 #@! TD.AperFunction*
G04 #@! TD*
D11*
G04 #@! TO.P,J4,1*
G04 #@! TO.N,MOTOR+*
X166200000Y-65000000D03*
X166200000Y-69435000D03*
X170635000Y-65000000D03*
X166200000Y-60565000D03*
X161765000Y-65000000D03*
X161765000Y-69435000D03*
X161765000Y-60565000D03*
X170635000Y-60565000D03*
X170635000Y-69435000D03*
G04 #@! TD*
G04 #@! TO.P,R6,1*
G04 #@! TO.N,Net-(Q5-Pad1)*
G04 #@! TA.AperFunction,SMDPad,CuDef*
G36*
G01*
X132225000Y-78124999D02*
X132225000Y-80275001D01*
G75*
G02*
X131975001Y-80525000I-249999J0D01*
G01*
X131249999Y-80525000D01*
G75*
G02*
X131000000Y-80275001I0J249999D01*
G01*
X131000000Y-78124999D01*
G75*
G02*
X131249999Y-77875000I249999J0D01*
G01*
X131975001Y-77875000D01*
G75*
G02*
X132225000Y-78124999I0J-249999D01*
G01*
G37*
G04 #@! TD.AperFunction*
G04 #@! TO.P,R6,2*
G04 #@! TO.N,GLB*
G04 #@! TA.AperFunction,SMDPad,CuDef*
G36*
G01*
X127600000Y-78124999D02*
X127600000Y-80275001D01*
G75*
G02*
X127350001Y-80525000I-249999J0D01*
G01*
X126624999Y-80525000D01*
G75*
G02*
X126375000Y-80275001I0J249999D01*
G01*
X126375000Y-78124999D01*
G75*
G02*
X126624999Y-77875000I249999J0D01*
G01*
X127350001Y-77875000D01*
G75*
G02*
X127600000Y-78124999I0J-249999D01*
G01*
G37*
G04 #@! TD.AperFunction*
G04 #@! TD*
G04 #@! TO.P,J3,1*
G04 #@! TO.N,A_RESET*
G04 #@! TA.AperFunction,ComponentPad*
G36*
G01*
X109445001Y-93470000D02*
X107754999Y-93470000D01*
G75*
G02*
X107505000Y-93220001I0J249999D01*
G01*
X107505000Y-91979999D01*
G75*
G02*
X107754999Y-91730000I249999J0D01*
G01*
X109445001Y-91730000D01*
G75*
G02*
X109695000Y-91979999I0J-249999D01*
G01*
X109695000Y-93220001D01*
G75*
G02*
X109445001Y-93470000I-249999J0D01*
G01*
G37*
G04 #@! TD.AperFunction*
D12*
G04 #@! TO.P,J3,2*
G04 #@! TO.N,SCK_SCL*
X108600000Y-90060000D03*
G04 #@! TO.P,J3,3*
G04 #@! TO.N,MISO*
X108600000Y-87520000D03*
G04 #@! TO.P,J3,4*
G04 #@! TO.N,SDA_MOSI*
X108600000Y-84980000D03*
G04 #@! TO.P,J3,5*
G04 #@! TO.N,GND*
X108600000Y-82440000D03*
G04 #@! TD*
G04 #@! TO.P,C11,1*
G04 #@! TO.N,GND*
G04 #@! TA.AperFunction,SMDPad,CuDef*
G36*
G01*
X112649998Y-81275000D02*
X115550002Y-81275000D01*
G75*
G02*
X115800000Y-81524998I0J-249998D01*
G01*
X115800000Y-82600002D01*
G75*
G02*
X115550002Y-82850000I-249998J0D01*
G01*
X112649998Y-82850000D01*
G75*
G02*
X112400000Y-82600002I0J249998D01*
G01*
X112400000Y-81524998D01*
G75*
G02*
X112649998Y-81275000I249998J0D01*
G01*
G37*
G04 #@! TD.AperFunction*
G04 #@! TO.P,C11,2*
G04 #@! TO.N,+5V*
G04 #@! TA.AperFunction,SMDPad,CuDef*
G36*
G01*
X112649998Y-85550000D02*
X115550002Y-85550000D01*
G75*
G02*
X115800000Y-85799998I0J-249998D01*
G01*
X115800000Y-86875002D01*
G75*
G02*
X115550002Y-87125000I-249998J0D01*
G01*
X112649998Y-87125000D01*
G75*
G02*
X112400000Y-86875002I0J249998D01*
G01*
X112400000Y-85799998D01*
G75*
G02*
X112649998Y-85550000I249998J0D01*
G01*
G37*
G04 #@! TD.AperFunction*
G04 #@! TD*
D11*
G04 #@! TO.P,J1,1*
G04 #@! TO.N,+12V*
X100828000Y-56135000D03*
X100828000Y-47265000D03*
X91958000Y-47265000D03*
X91958000Y-56135000D03*
X91958000Y-51700000D03*
X96393000Y-47265000D03*
X100828000Y-51700000D03*
X96393000Y-56135000D03*
X96393000Y-51700000D03*
G04 #@! TD*
G04 #@! TO.P,J2,1*
G04 #@! TO.N,GND*
X96400000Y-94100000D03*
X96400000Y-98535000D03*
X100835000Y-94100000D03*
X96400000Y-89665000D03*
X91965000Y-94100000D03*
X91965000Y-98535000D03*
X91965000Y-89665000D03*
X100835000Y-89665000D03*
X100835000Y-98535000D03*
G04 #@! TD*
G04 #@! TO.P,J5,1*
G04 #@! TO.N,MOTOR-*
X170635000Y-92135000D03*
X170635000Y-83265000D03*
X161765000Y-83265000D03*
X161765000Y-92135000D03*
X161765000Y-87700000D03*
X166200000Y-83265000D03*
X170635000Y-87700000D03*
X166200000Y-92135000D03*
X166200000Y-87700000D03*
G04 #@! TD*
D13*
G04 #@! TO.P,Q5,2*
G04 #@! TO.N,MOTOR-*
X151892000Y-74653000D03*
D14*
G04 #@! TO.P,Q5,3*
G04 #@! TO.N,GND*
X149352000Y-83803000D03*
G04 #@! TO.P,Q5,2*
G04 #@! TO.N,MOTOR-*
X151892000Y-83803000D03*
G04 #@! TO.P,Q5,1*
G04 #@! TO.N,Net-(Q5-Pad1)*
X154432000Y-83803000D03*
G04 #@! TD*
G04 #@! TO.P,Q6,1*
G04 #@! TO.N,Net-(Q6-Pad1)*
X142748000Y-65376000D03*
G04 #@! TO.P,Q6,2*
G04 #@! TO.N,+12V*
X140208000Y-65376000D03*
G04 #@! TO.P,Q6,3*
G04 #@! TO.N,MOTOR-*
X137668000Y-65376000D03*
D13*
G04 #@! TO.P,Q6,2*
G04 #@! TO.N,+12V*
X140208000Y-56226000D03*
G04 #@! TD*
D14*
G04 #@! TO.P,Q8,1*
G04 #@! TO.N,Net-(Q5-Pad1)*
X142875000Y-83791000D03*
G04 #@! TO.P,Q8,2*
G04 #@! TO.N,MOTOR-*
X140335000Y-83791000D03*
G04 #@! TO.P,Q8,3*
G04 #@! TO.N,GND*
X137795000Y-83791000D03*
D13*
G04 #@! TO.P,Q8,2*
G04 #@! TO.N,MOTOR-*
X140335000Y-74641000D03*
G04 #@! TD*
D14*
G04 #@! TO.P,Q7,1*
G04 #@! TO.N,Net-(Q6-Pad1)*
X154432000Y-65376000D03*
G04 #@! TO.P,Q7,2*
G04 #@! TO.N,+12V*
X151892000Y-65376000D03*
G04 #@! TO.P,Q7,3*
G04 #@! TO.N,MOTOR-*
X149352000Y-65376000D03*
D13*
G04 #@! TO.P,Q7,2*
G04 #@! TO.N,+12V*
X151892000Y-56226000D03*
G04 #@! TD*
G04 #@! TO.P,JP2,2*
G04 #@! TO.N,GND*
G04 #@! TA.AperFunction,SMDPad,CuDef*
G36*
G01*
X152950000Y-89774999D02*
X152950000Y-92625001D01*
G75*
G02*
X152700001Y-92875000I-249999J0D01*
G01*
X151974999Y-92875000D01*
G75*
G02*
X151725000Y-92625001I0J249999D01*
G01*
X151725000Y-89774999D01*
G75*
G02*
X151974999Y-89525000I249999J0D01*
G01*
X152700001Y-89525000D01*
G75*
G02*
X152950000Y-89774999I0J-249999D01*
G01*
G37*
G04 #@! TD.AperFunction*
G04 #@! TO.P,JP2,1*
G04 #@! TO.N,MOTOR-*
G04 #@! TA.AperFunction,SMDPad,CuDef*
G36*
G01*
X158875000Y-89774999D02*
X158875000Y-92625001D01*
G75*
G02*
X158625001Y-92875000I-249999J0D01*
G01*
X157899999Y-92875000D01*
G75*
G02*
X157650000Y-92625001I0J249999D01*
G01*
X157650000Y-89774999D01*
G75*
G02*
X157899999Y-89525000I249999J0D01*
G01*
X158625001Y-89525000D01*
G75*
G02*
X158875000Y-89774999I0J-249999D01*
G01*
G37*
G04 #@! TD.AperFunction*
G04 #@! TD*
G04 #@! TO.P,R5,2*
G04 #@! TO.N,GHB*
G04 #@! TA.AperFunction,SMDPad,CuDef*
G36*
G01*
X128100000Y-64224999D02*
X128100000Y-66375001D01*
G75*
G02*
X127850001Y-66625000I-249999J0D01*
G01*
X127124999Y-66625000D01*
G75*
G02*
X126875000Y-66375001I0J249999D01*
G01*
X126875000Y-64224999D01*
G75*
G02*
X127124999Y-63975000I249999J0D01*
G01*
X127850001Y-63975000D01*
G75*
G02*
X128100000Y-64224999I0J-249999D01*
G01*
G37*
G04 #@! TD.AperFunction*
G04 #@! TO.P,R5,1*
G04 #@! TO.N,Net-(Q6-Pad1)*
G04 #@! TA.AperFunction,SMDPad,CuDef*
G36*
G01*
X132725000Y-64224999D02*
X132725000Y-66375001D01*
G75*
G02*
X132475001Y-66625000I-249999J0D01*
G01*
X131749999Y-66625000D01*
G75*
G02*
X131500000Y-66375001I0J249999D01*
G01*
X131500000Y-64224999D01*
G75*
G02*
X131749999Y-63975000I249999J0D01*
G01*
X132475001Y-63975000D01*
G75*
G02*
X132725000Y-64224999I0J-249999D01*
G01*
G37*
G04 #@! TD.AperFunction*
G04 #@! TD*
D15*
G04 #@! TO.P,U2,21*
G04 #@! TO.N,GND*
X121250000Y-80650000D03*
X119150000Y-80650000D03*
X121250000Y-78550000D03*
X119150000Y-78550000D03*
D16*
X120200000Y-79600000D03*
G04 #@! TD*
D15*
G04 #@! TO.P,U3,21*
G04 #@! TO.N,GND*
X117821000Y-89500000D03*
X116621000Y-89500000D03*
X117821000Y-88300000D03*
X116621000Y-88300000D03*
D17*
X117221000Y-88900000D03*
G04 #@! TD*
G04 #@! TO.P,C6,1*
G04 #@! TO.N,Net-(C6-Pad1)*
G04 #@! TA.AperFunction,SMDPad,CuDef*
G36*
G01*
X124950000Y-89000001D02*
X124950000Y-86799999D01*
G75*
G02*
X125199999Y-86550000I249999J0D01*
G01*
X125850001Y-86550000D01*
G75*
G02*
X126100000Y-86799999I0J-249999D01*
G01*
X126100000Y-89000001D01*
G75*
G02*
X125850001Y-89250000I-249999J0D01*
G01*
X125199999Y-89250000D01*
G75*
G02*
X124950000Y-89000001I0J249999D01*
G01*
G37*
G04 #@! TD.AperFunction*
G04 #@! TO.P,C6,2*
G04 #@! TO.N,GND*
G04 #@! TA.AperFunction,SMDPad,CuDef*
G36*
G01*
X127900000Y-89000001D02*
X127900000Y-86799999D01*
G75*
G02*
X128149999Y-86550000I249999J0D01*
G01*
X128800001Y-86550000D01*
G75*
G02*
X129050000Y-86799999I0J-249999D01*
G01*
X129050000Y-89000001D01*
G75*
G02*
X128800001Y-89250000I-249999J0D01*
G01*
X128149999Y-89250000D01*
G75*
G02*
X127900000Y-89000001I0J249999D01*
G01*
G37*
G04 #@! TD.AperFunction*
G04 #@! TD*
G04 #@! TO.P,R2,1*
G04 #@! TO.N,GND*
G04 #@! TA.AperFunction,SMDPad,CuDef*
G36*
G01*
X131075001Y-83530000D02*
X131075001Y-85680002D01*
G75*
G02*
X130825002Y-85930001I-249999J0D01*
G01*
X129925000Y-85930001D01*
G75*
G02*
X129675001Y-85680002I0J249999D01*
G01*
X129675001Y-83530000D01*
G75*
G02*
X129925000Y-83280001I249999J0D01*
G01*
X130825002Y-83280001D01*
G75*
G02*
X131075001Y-83530000I0J-249999D01*
G01*
G37*
G04 #@! TD.AperFunction*
G04 #@! TO.P,R2,2*
G04 #@! TO.N,Net-(C6-Pad1)*
G04 #@! TA.AperFunction,SMDPad,CuDef*
G36*
G01*
X126275001Y-83530000D02*
X126275001Y-85680002D01*
G75*
G02*
X126025002Y-85930001I-249999J0D01*
G01*
X125125000Y-85930001D01*
G75*
G02*
X124875001Y-85680002I0J249999D01*
G01*
X124875001Y-83530000D01*
G75*
G02*
X125125000Y-83280001I249999J0D01*
G01*
X126025002Y-83280001D01*
G75*
G02*
X126275001Y-83530000I0J-249999D01*
G01*
G37*
G04 #@! TD.AperFunction*
G04 #@! TD*
G04 #@! TO.P,C2,2*
G04 #@! TO.N,GND*
G04 #@! TA.AperFunction,SMDPad,CuDef*
G36*
G01*
X107900001Y-76400000D02*
X105699999Y-76400000D01*
G75*
G02*
X105450000Y-76150001I0J249999D01*
G01*
X105450000Y-75499999D01*
G75*
G02*
X105699999Y-75250000I249999J0D01*
G01*
X107900001Y-75250000D01*
G75*
G02*
X108150000Y-75499999I0J-249999D01*
G01*
X108150000Y-76150001D01*
G75*
G02*
X107900001Y-76400000I-249999J0D01*
G01*
G37*
G04 #@! TD.AperFunction*
G04 #@! TO.P,C2,1*
G04 #@! TO.N,+5V*
G04 #@! TA.AperFunction,SMDPad,CuDef*
G36*
G01*
X107900001Y-79350000D02*
X105699999Y-79350000D01*
G75*
G02*
X105450000Y-79100001I0J249999D01*
G01*
X105450000Y-78449999D01*
G75*
G02*
X105699999Y-78200000I249999J0D01*
G01*
X107900001Y-78200000D01*
G75*
G02*
X108150000Y-78449999I0J-249999D01*
G01*
X108150000Y-79100001D01*
G75*
G02*
X107900001Y-79350000I-249999J0D01*
G01*
G37*
G04 #@! TD.AperFunction*
G04 #@! TD*
D18*
G04 #@! TO.N,GND*
X109900000Y-77500000D03*
X91059000Y-77470000D03*
X92329000Y-77470000D03*
X93599000Y-77470000D03*
X94869000Y-77470000D03*
X96139000Y-77470000D03*
X97409000Y-77470000D03*
X98679000Y-77470000D03*
X99949000Y-77470000D03*
X91059000Y-78740000D03*
X92329000Y-78740000D03*
X93599000Y-78740000D03*
X94869000Y-78740000D03*
X96139000Y-78740000D03*
X97409000Y-78740000D03*
X98679000Y-78740000D03*
X99949000Y-78740000D03*
X91059000Y-80010000D03*
X92329000Y-80010000D03*
X93599000Y-80010000D03*
X94869000Y-80010000D03*
X96139000Y-80010000D03*
X97409000Y-80010000D03*
X98679000Y-80010000D03*
X99949000Y-80010000D03*
X91059000Y-81280000D03*
X92329000Y-81280000D03*
X93599000Y-81280000D03*
X94869000Y-81280000D03*
X96139000Y-81280000D03*
X97409000Y-81280000D03*
X98679000Y-81280000D03*
X99949000Y-81280000D03*
X91059000Y-82550000D03*
X92329000Y-82550000D03*
X93599000Y-82550000D03*
X94869000Y-82550000D03*
X96139000Y-82550000D03*
X97409000Y-82550000D03*
X98679000Y-82550000D03*
X99949000Y-82550000D03*
X91059000Y-83820000D03*
X92329000Y-83820000D03*
X93599000Y-83820000D03*
X94869000Y-83820000D03*
X96139000Y-83820000D03*
X97409000Y-83820000D03*
X98679000Y-83820000D03*
X99949000Y-83820000D03*
X91059000Y-85090000D03*
X92329000Y-85090000D03*
X93599000Y-85090000D03*
X94869000Y-85090000D03*
X96139000Y-85090000D03*
X97409000Y-85090000D03*
X98679000Y-85090000D03*
X99949000Y-85090000D03*
X91059000Y-86360000D03*
X92329000Y-86360000D03*
X93599000Y-86360000D03*
X94869000Y-86360000D03*
X96139000Y-86360000D03*
X97409000Y-86360000D03*
X98679000Y-86360000D03*
X99949000Y-86360000D03*
G04 #@! TO.N,+12V*
X124560000Y-51335000D03*
X125830000Y-51335000D03*
X127100000Y-51335000D03*
X128370000Y-51335000D03*
X129640000Y-51335000D03*
X130910000Y-51335000D03*
X132180000Y-51335000D03*
X133450000Y-51335000D03*
X124560000Y-52605000D03*
X125830000Y-52605000D03*
X127100000Y-52605000D03*
X128370000Y-52605000D03*
X129640000Y-52605000D03*
X130910000Y-52605000D03*
X132180000Y-52605000D03*
X133450000Y-52605000D03*
X124560000Y-53875000D03*
X125830000Y-53875000D03*
X127100000Y-53875000D03*
X128370000Y-53875000D03*
X129640000Y-53875000D03*
X130910000Y-53875000D03*
X132180000Y-53875000D03*
X133450000Y-53875000D03*
X124560000Y-55145000D03*
X125830000Y-55145000D03*
X127100000Y-55145000D03*
X128370000Y-55145000D03*
X129640000Y-55145000D03*
X130910000Y-55145000D03*
X132180000Y-55145000D03*
X133450000Y-55145000D03*
X124560000Y-56415000D03*
X125830000Y-56415000D03*
X127100000Y-56415000D03*
X128370000Y-56415000D03*
X129640000Y-56415000D03*
X130910000Y-56415000D03*
X132180000Y-56415000D03*
X124560000Y-57685000D03*
X125830000Y-57685000D03*
X127100000Y-57685000D03*
X128370000Y-57685000D03*
X129640000Y-57685000D03*
X130910000Y-57685000D03*
X132180000Y-57685000D03*
X133450000Y-57685000D03*
X124560000Y-58955000D03*
X125830000Y-58955000D03*
X127100000Y-58955000D03*
X128370000Y-58955000D03*
X129640000Y-58955000D03*
X130910000Y-58955000D03*
X132180000Y-58955000D03*
X133450000Y-58955000D03*
X124560000Y-60225000D03*
X125830000Y-60225000D03*
X127100000Y-60225000D03*
X128370000Y-60225000D03*
X129640000Y-60225000D03*
X130910000Y-60225000D03*
X132180000Y-60225000D03*
X133450000Y-60225000D03*
X133450000Y-56415000D03*
G04 #@! TO.N,+5V*
X112700000Y-91700000D03*
X109600000Y-79100000D03*
X116650000Y-82750000D03*
G04 #@! TO.N,MOTOR+*
X133400000Y-75000000D03*
X121500000Y-73100000D03*
G04 #@! TO.N,MOTOR-*
X126300000Y-73600000D03*
G04 #@! TO.N,GHB*
X124100000Y-74600000D03*
G04 #@! TO.N,GLB*
X125300000Y-79100000D03*
G04 #@! TO.N,Net-(C3-Pad1)*
X114400000Y-78000000D03*
G04 #@! TO.N,Net-(C3-Pad2)*
X116900000Y-76700000D03*
G04 #@! TO.N,Fault*
X119100000Y-85100000D03*
X116800000Y-81300000D03*
G04 #@! TO.N,Mode*
X123900000Y-81600000D03*
X117500000Y-86000000D03*
G04 #@! TO.N,Net-(C6-Pad1)*
X122500000Y-83100000D03*
G04 #@! TD*
D19*
G04 #@! TO.N,+5V*
X114500000Y-89900000D02*
X112700000Y-91700000D01*
X114500000Y-86337500D02*
X114500000Y-89900000D01*
X114100000Y-86337500D02*
X116700000Y-83737500D01*
X116700000Y-82800000D02*
X116650000Y-82750000D01*
X116700000Y-83737500D02*
X116700000Y-82800000D01*
X109275000Y-78775000D02*
X109600000Y-79100000D01*
X106800000Y-78775000D02*
X109275000Y-78775000D01*
G04 #@! TO.N,MOTOR+*
X126600000Y-75000000D02*
X129200000Y-75000000D01*
X126000000Y-75600000D02*
X126600000Y-75000000D01*
X129200000Y-75000000D02*
X129100000Y-75000000D01*
X133400000Y-75000000D02*
X129200000Y-75000000D01*
X121500000Y-73100000D02*
X122800000Y-74400000D01*
X122800000Y-74400000D02*
X122800000Y-74700000D01*
X123700000Y-75600000D02*
X126000000Y-75600000D01*
X122800000Y-74700000D02*
X123700000Y-75600000D01*
G04 #@! TO.N,MOTOR-*
X138476000Y-76500000D02*
X140335000Y-74641000D01*
X139294000Y-73600000D02*
X140335000Y-74641000D01*
X126300000Y-73600000D02*
X139294000Y-73600000D01*
G04 #@! TO.N,GHB*
X127487500Y-66512500D02*
X127487500Y-65300000D01*
X124100000Y-69900000D02*
X127487500Y-66512500D01*
X124100000Y-74600000D02*
X124100000Y-69900000D01*
G04 #@! TO.N,GLB*
X126887500Y-79100000D02*
X126987500Y-79200000D01*
X125300000Y-79100000D02*
X126887500Y-79100000D01*
G04 #@! TO.N,Net-(Q5-Pad1)*
X154559000Y-83930000D02*
X154432000Y-83803000D01*
X154432000Y-81118000D02*
X154432000Y-83803000D01*
X153543000Y-80229000D02*
X154432000Y-81118000D01*
X143256000Y-80229000D02*
X153543000Y-80229000D01*
X142875000Y-80610000D02*
X143256000Y-80229000D01*
X142875000Y-80775000D02*
X142875000Y-80575000D01*
X142875000Y-83791000D02*
X142875000Y-80775000D01*
X142875000Y-80775000D02*
X142875000Y-80610000D01*
X142875000Y-80575000D02*
X142850000Y-80600000D01*
X133012500Y-80600000D02*
X131612500Y-79200000D01*
X142850000Y-80600000D02*
X133012500Y-80600000D01*
G04 #@! TO.N,Net-(Q6-Pad1)*
X153797000Y-62449000D02*
X154432000Y-63084000D01*
X154432000Y-63084000D02*
X154432000Y-65376000D01*
X142748000Y-62703000D02*
X142494000Y-62449000D01*
X142748000Y-65376000D02*
X142748000Y-62703000D01*
X132112500Y-65300000D02*
X132112500Y-63287500D01*
X132112500Y-63287500D02*
X132951000Y-62449000D01*
X132951000Y-62449000D02*
X142751000Y-62449000D01*
X142751000Y-62449000D02*
X153797000Y-62449000D01*
X142494000Y-62449000D02*
X142751000Y-62449000D01*
G04 #@! TO.N,Net-(C3-Pad1)*
X114300000Y-77900000D02*
X114400000Y-78000000D01*
X114400000Y-78000000D02*
X114400000Y-76900000D01*
X111062500Y-73562500D02*
X111062500Y-73400000D01*
X114400000Y-76900000D02*
X111062500Y-73562500D01*
G04 #@! TO.N,Net-(C3-Pad2)*
X115337500Y-75137500D02*
X116900000Y-76700000D01*
X115337500Y-73400000D02*
X115337500Y-75137500D01*
G04 #@! TO.N,Fault*
X117400000Y-81900000D02*
X117400000Y-84400000D01*
X116800000Y-81300000D02*
X117400000Y-81900000D01*
X117400000Y-84400000D02*
X118100000Y-85100000D01*
X119100000Y-85100000D02*
X118100000Y-85100000D01*
G04 #@! TO.N,Mode*
X124000000Y-81700000D02*
X123900000Y-81600000D01*
D20*
X119600000Y-86000000D02*
X120100000Y-85500000D01*
X120100000Y-85500000D02*
X120100000Y-83600000D01*
X120100000Y-83600000D02*
X121500000Y-82200000D01*
X121500000Y-82200000D02*
X123300000Y-82200000D01*
X123300000Y-82200000D02*
X123900000Y-81600000D01*
X117500000Y-86000000D02*
X118200000Y-86000000D01*
X118200000Y-86000000D02*
X119600000Y-86000000D01*
X118100000Y-86000000D02*
X118200000Y-86000000D01*
G04 #@! TO.N,Net-(C6-Pad1)*
X125400000Y-84780002D02*
X125575001Y-84605001D01*
X125525000Y-84655002D02*
X125575001Y-84605001D01*
X125525000Y-87900000D02*
X125525000Y-84655002D01*
X125575001Y-84605001D02*
X124405001Y-84605001D01*
X124405001Y-84605001D02*
X123400000Y-83600000D01*
X123000000Y-83600000D02*
X122500000Y-83100000D01*
X123400000Y-83600000D02*
X123000000Y-83600000D01*
G04 #@! TD*
D21*
G04 #@! TO.N,MOTOR-*
X158473000Y-71700000D02*
X158475440Y-71724776D01*
X158482667Y-71748601D01*
X158494403Y-71770557D01*
X158510197Y-71789803D01*
X158529443Y-71805597D01*
X158551399Y-71817333D01*
X158575224Y-71824560D01*
X158600000Y-71827000D01*
X173913001Y-71827000D01*
X173913000Y-95873000D01*
X156650620Y-95873000D01*
X156602999Y-79974620D01*
X156600485Y-79949851D01*
X156593187Y-79926048D01*
X156581385Y-79904127D01*
X156565533Y-79884929D01*
X156546241Y-79869192D01*
X156524249Y-79857522D01*
X156500403Y-79850367D01*
X156476000Y-79848000D01*
X154416408Y-79848000D01*
X154201013Y-79632605D01*
X154173238Y-79598762D01*
X154038175Y-79487919D01*
X153884082Y-79405554D01*
X153716882Y-79354835D01*
X153586567Y-79342000D01*
X153543000Y-79337709D01*
X153499433Y-79342000D01*
X143299556Y-79342000D01*
X143255999Y-79337710D01*
X143212442Y-79342000D01*
X143212433Y-79342000D01*
X143082118Y-79354835D01*
X142914918Y-79405554D01*
X142760825Y-79487919D01*
X142625762Y-79598762D01*
X142597983Y-79632611D01*
X142517594Y-79713000D01*
X134927000Y-79713000D01*
X134927000Y-63337941D01*
X138892314Y-63336108D01*
X138892314Y-67676000D01*
X138907026Y-67825378D01*
X138950598Y-67969015D01*
X139021355Y-68101392D01*
X139116578Y-68217422D01*
X139232608Y-68312645D01*
X139364985Y-68383402D01*
X139508622Y-68426974D01*
X139658000Y-68441686D01*
X140758000Y-68441686D01*
X140907378Y-68426974D01*
X141051015Y-68383402D01*
X141183392Y-68312645D01*
X141299422Y-68217422D01*
X141394645Y-68101392D01*
X141465402Y-67969015D01*
X141478000Y-67927485D01*
X141490598Y-67969015D01*
X141561355Y-68101392D01*
X141656578Y-68217422D01*
X141772608Y-68312645D01*
X141904985Y-68383402D01*
X142048622Y-68426974D01*
X142198000Y-68441686D01*
X143298000Y-68441686D01*
X143447378Y-68426974D01*
X143591015Y-68383402D01*
X143723392Y-68312645D01*
X143839422Y-68217422D01*
X143934645Y-68101392D01*
X144005402Y-67969015D01*
X144048974Y-67825378D01*
X144063686Y-67676000D01*
X144063686Y-63336000D01*
X150576314Y-63336000D01*
X150576314Y-67676000D01*
X150591026Y-67825378D01*
X150634598Y-67969015D01*
X150705355Y-68101392D01*
X150800578Y-68217422D01*
X150916608Y-68312645D01*
X151048985Y-68383402D01*
X151192622Y-68426974D01*
X151342000Y-68441686D01*
X152442000Y-68441686D01*
X152591378Y-68426974D01*
X152735015Y-68383402D01*
X152867392Y-68312645D01*
X152983422Y-68217422D01*
X153078645Y-68101392D01*
X153149402Y-67969015D01*
X153162000Y-67927485D01*
X153174598Y-67969015D01*
X153245355Y-68101392D01*
X153340578Y-68217422D01*
X153456608Y-68312645D01*
X153588985Y-68383402D01*
X153732622Y-68426974D01*
X153882000Y-68441686D01*
X154982000Y-68441686D01*
X155131378Y-68426974D01*
X155275015Y-68383402D01*
X155407392Y-68312645D01*
X155523422Y-68217422D01*
X155618645Y-68101392D01*
X155689402Y-67969015D01*
X155732974Y-67825378D01*
X155747686Y-67676000D01*
X155747686Y-63328319D01*
X158473000Y-63327059D01*
X158473000Y-71700000D01*
G04 #@! TA.AperFunction,Conductor*
D22*
G36*
X158473000Y-71700000D02*
G01*
X158475440Y-71724776D01*
X158482667Y-71748601D01*
X158494403Y-71770557D01*
X158510197Y-71789803D01*
X158529443Y-71805597D01*
X158551399Y-71817333D01*
X158575224Y-71824560D01*
X158600000Y-71827000D01*
X173913001Y-71827000D01*
X173913000Y-95873000D01*
X156650620Y-95873000D01*
X156602999Y-79974620D01*
X156600485Y-79949851D01*
X156593187Y-79926048D01*
X156581385Y-79904127D01*
X156565533Y-79884929D01*
X156546241Y-79869192D01*
X156524249Y-79857522D01*
X156500403Y-79850367D01*
X156476000Y-79848000D01*
X154416408Y-79848000D01*
X154201013Y-79632605D01*
X154173238Y-79598762D01*
X154038175Y-79487919D01*
X153884082Y-79405554D01*
X153716882Y-79354835D01*
X153586567Y-79342000D01*
X153543000Y-79337709D01*
X153499433Y-79342000D01*
X143299556Y-79342000D01*
X143255999Y-79337710D01*
X143212442Y-79342000D01*
X143212433Y-79342000D01*
X143082118Y-79354835D01*
X142914918Y-79405554D01*
X142760825Y-79487919D01*
X142625762Y-79598762D01*
X142597983Y-79632611D01*
X142517594Y-79713000D01*
X134927000Y-79713000D01*
X134927000Y-63337941D01*
X138892314Y-63336108D01*
X138892314Y-67676000D01*
X138907026Y-67825378D01*
X138950598Y-67969015D01*
X139021355Y-68101392D01*
X139116578Y-68217422D01*
X139232608Y-68312645D01*
X139364985Y-68383402D01*
X139508622Y-68426974D01*
X139658000Y-68441686D01*
X140758000Y-68441686D01*
X140907378Y-68426974D01*
X141051015Y-68383402D01*
X141183392Y-68312645D01*
X141299422Y-68217422D01*
X141394645Y-68101392D01*
X141465402Y-67969015D01*
X141478000Y-67927485D01*
X141490598Y-67969015D01*
X141561355Y-68101392D01*
X141656578Y-68217422D01*
X141772608Y-68312645D01*
X141904985Y-68383402D01*
X142048622Y-68426974D01*
X142198000Y-68441686D01*
X143298000Y-68441686D01*
X143447378Y-68426974D01*
X143591015Y-68383402D01*
X143723392Y-68312645D01*
X143839422Y-68217422D01*
X143934645Y-68101392D01*
X144005402Y-67969015D01*
X144048974Y-67825378D01*
X144063686Y-67676000D01*
X144063686Y-63336000D01*
X150576314Y-63336000D01*
X150576314Y-67676000D01*
X150591026Y-67825378D01*
X150634598Y-67969015D01*
X150705355Y-68101392D01*
X150800578Y-68217422D01*
X150916608Y-68312645D01*
X151048985Y-68383402D01*
X151192622Y-68426974D01*
X151342000Y-68441686D01*
X152442000Y-68441686D01*
X152591378Y-68426974D01*
X152735015Y-68383402D01*
X152867392Y-68312645D01*
X152983422Y-68217422D01*
X153078645Y-68101392D01*
X153149402Y-67969015D01*
X153162000Y-67927485D01*
X153174598Y-67969015D01*
X153245355Y-68101392D01*
X153340578Y-68217422D01*
X153456608Y-68312645D01*
X153588985Y-68383402D01*
X153732622Y-68426974D01*
X153882000Y-68441686D01*
X154982000Y-68441686D01*
X155131378Y-68426974D01*
X155275015Y-68383402D01*
X155407392Y-68312645D01*
X155523422Y-68217422D01*
X155618645Y-68101392D01*
X155689402Y-67969015D01*
X155732974Y-67825378D01*
X155747686Y-67676000D01*
X155747686Y-63328319D01*
X158473000Y-63327059D01*
X158473000Y-71700000D01*
G37*
G04 #@! TD.AperFunction*
G04 #@! TD*
D21*
G04 #@! TO.N,+12V*
X174040001Y-55073000D02*
X158300000Y-55073000D01*
X158275224Y-55075440D01*
X158251399Y-55082667D01*
X158229443Y-55094403D01*
X158210197Y-55110197D01*
X158194403Y-55129443D01*
X158182667Y-55151399D01*
X158175440Y-55175224D01*
X158173000Y-55200000D01*
X158173000Y-61814000D01*
X154221227Y-61814000D01*
X154089247Y-61743454D01*
X153945986Y-61699997D01*
X153834333Y-61689000D01*
X153834322Y-61689000D01*
X153797000Y-61685324D01*
X153759678Y-61689000D01*
X142531322Y-61689000D01*
X142494000Y-61685324D01*
X142456678Y-61689000D01*
X132988322Y-61689000D01*
X132950999Y-61685324D01*
X132913676Y-61689000D01*
X132913667Y-61689000D01*
X132802014Y-61699997D01*
X132658753Y-61743454D01*
X132526772Y-61814000D01*
X123771189Y-61814000D01*
X123792295Y-47611716D01*
X157973000Y-47611716D01*
X157973000Y-48188284D01*
X158085482Y-48753775D01*
X158306126Y-49286455D01*
X158626450Y-49765854D01*
X159034146Y-50173550D01*
X159513545Y-50493874D01*
X160046225Y-50714518D01*
X160611716Y-50827000D01*
X161188284Y-50827000D01*
X161753775Y-50714518D01*
X162286455Y-50493874D01*
X162765854Y-50173550D01*
X163173550Y-49765854D01*
X163493874Y-49286455D01*
X163714518Y-48753775D01*
X163827000Y-48188284D01*
X163827000Y-47611716D01*
X163714518Y-47046225D01*
X163493874Y-46513545D01*
X163173550Y-46034146D01*
X162765854Y-45626450D01*
X162286455Y-45306126D01*
X161753775Y-45085482D01*
X161188284Y-44973000D01*
X160611716Y-44973000D01*
X160046225Y-45085482D01*
X159513545Y-45306126D01*
X159034146Y-45626450D01*
X158626450Y-46034146D01*
X158306126Y-46513545D01*
X158085482Y-47046225D01*
X157973000Y-47611716D01*
X123792295Y-47611716D01*
X123798317Y-43560000D01*
X174040001Y-43560000D01*
X174040001Y-55073000D01*
G04 #@! TA.AperFunction,Conductor*
D22*
G36*
X174040001Y-55073000D02*
G01*
X158300000Y-55073000D01*
X158275224Y-55075440D01*
X158251399Y-55082667D01*
X158229443Y-55094403D01*
X158210197Y-55110197D01*
X158194403Y-55129443D01*
X158182667Y-55151399D01*
X158175440Y-55175224D01*
X158173000Y-55200000D01*
X158173000Y-61814000D01*
X154221227Y-61814000D01*
X154089247Y-61743454D01*
X153945986Y-61699997D01*
X153834333Y-61689000D01*
X153834322Y-61689000D01*
X153797000Y-61685324D01*
X153759678Y-61689000D01*
X142531322Y-61689000D01*
X142494000Y-61685324D01*
X142456678Y-61689000D01*
X132988322Y-61689000D01*
X132950999Y-61685324D01*
X132913676Y-61689000D01*
X132913667Y-61689000D01*
X132802014Y-61699997D01*
X132658753Y-61743454D01*
X132526772Y-61814000D01*
X123771189Y-61814000D01*
X123792295Y-47611716D01*
X157973000Y-47611716D01*
X157973000Y-48188284D01*
X158085482Y-48753775D01*
X158306126Y-49286455D01*
X158626450Y-49765854D01*
X159034146Y-50173550D01*
X159513545Y-50493874D01*
X160046225Y-50714518D01*
X160611716Y-50827000D01*
X161188284Y-50827000D01*
X161753775Y-50714518D01*
X162286455Y-50493874D01*
X162765854Y-50173550D01*
X163173550Y-49765854D01*
X163493874Y-49286455D01*
X163714518Y-48753775D01*
X163827000Y-48188284D01*
X163827000Y-47611716D01*
X163714518Y-47046225D01*
X163493874Y-46513545D01*
X163173550Y-46034146D01*
X162765854Y-45626450D01*
X162286455Y-45306126D01*
X161753775Y-45085482D01*
X161188284Y-44973000D01*
X160611716Y-44973000D01*
X160046225Y-45085482D01*
X159513545Y-45306126D01*
X159034146Y-45626450D01*
X158626450Y-46034146D01*
X158306126Y-46513545D01*
X158085482Y-47046225D01*
X157973000Y-47611716D01*
X123792295Y-47611716D01*
X123798317Y-43560000D01*
X174040001Y-43560000D01*
X174040001Y-55073000D01*
G37*
G04 #@! TD.AperFunction*
G04 #@! TD*
D21*
G04 #@! TO.N,GND*
X123009001Y-61940056D02*
X123021201Y-62064882D01*
X123057336Y-62184004D01*
X123116017Y-62293787D01*
X123194987Y-62390013D01*
X123291213Y-62468983D01*
X123400996Y-62527664D01*
X123520118Y-62563799D01*
X123644000Y-62576000D01*
X125273000Y-62576000D01*
X125273000Y-67652198D01*
X123588998Y-69336201D01*
X123560000Y-69359999D01*
X123536202Y-69388997D01*
X123536201Y-69388998D01*
X123465026Y-69475724D01*
X123394454Y-69607754D01*
X123350998Y-69751015D01*
X123336324Y-69900000D01*
X123340001Y-69937332D01*
X123340000Y-73859998D01*
X123311004Y-73836202D01*
X122535000Y-73060199D01*
X122535000Y-72998061D01*
X122495226Y-72798102D01*
X122417205Y-72609744D01*
X122303937Y-72440226D01*
X122159774Y-72296063D01*
X121990256Y-72182795D01*
X121801898Y-72104774D01*
X121601939Y-72065000D01*
X121398061Y-72065000D01*
X121198102Y-72104774D01*
X121009744Y-72182795D01*
X120840226Y-72296063D01*
X120696063Y-72440226D01*
X120582795Y-72609744D01*
X120504774Y-72798102D01*
X120465000Y-72998061D01*
X120465000Y-73201939D01*
X120504774Y-73401898D01*
X120582795Y-73590256D01*
X120696063Y-73759774D01*
X120840226Y-73903937D01*
X121009744Y-74017205D01*
X121198102Y-74095226D01*
X121398061Y-74135000D01*
X121460199Y-74135000D01*
X122037540Y-74712341D01*
X122040000Y-74737322D01*
X122040000Y-74737333D01*
X122050997Y-74848986D01*
X122094454Y-74992247D01*
X122165026Y-75124276D01*
X122259999Y-75240001D01*
X122289001Y-75263802D01*
X123136201Y-76111003D01*
X123159999Y-76140001D01*
X123275724Y-76234974D01*
X123407753Y-76305546D01*
X123551014Y-76349003D01*
X123662667Y-76360000D01*
X123662676Y-76360000D01*
X123699999Y-76363676D01*
X123737322Y-76360000D01*
X124573000Y-76360000D01*
X124573000Y-78363289D01*
X124496063Y-78440226D01*
X124382795Y-78609744D01*
X124304774Y-78798102D01*
X124265000Y-78998061D01*
X124265000Y-79201939D01*
X124304774Y-79401898D01*
X124382795Y-79590256D01*
X124496063Y-79759774D01*
X124573000Y-79836711D01*
X124573000Y-80809289D01*
X124559774Y-80796063D01*
X124390256Y-80682795D01*
X124201898Y-80604774D01*
X124001939Y-80565000D01*
X123798061Y-80565000D01*
X123598102Y-80604774D01*
X123409744Y-80682795D01*
X123240226Y-80796063D01*
X123096063Y-80940226D01*
X122982795Y-81109744D01*
X122904774Y-81298102D01*
X122871576Y-81465000D01*
X121536105Y-81465000D01*
X121500000Y-81461444D01*
X121355914Y-81475635D01*
X121313886Y-81488384D01*
X121217367Y-81517663D01*
X121089680Y-81585913D01*
X120977762Y-81677762D01*
X120954746Y-81705807D01*
X119605808Y-83054746D01*
X119577763Y-83077762D01*
X119485914Y-83189680D01*
X119467422Y-83224276D01*
X119417664Y-83317367D01*
X119375635Y-83455915D01*
X119361444Y-83600000D01*
X119365001Y-83636115D01*
X119365001Y-84097435D01*
X119201939Y-84065000D01*
X118998061Y-84065000D01*
X118798102Y-84104774D01*
X118609744Y-84182795D01*
X118440226Y-84296063D01*
X118405546Y-84330743D01*
X118160000Y-84085198D01*
X118160000Y-81937322D01*
X118163676Y-81899999D01*
X118160000Y-81862676D01*
X118160000Y-81862667D01*
X118149003Y-81751014D01*
X118105546Y-81607753D01*
X118075218Y-81551014D01*
X118034974Y-81475723D01*
X117963799Y-81388997D01*
X117940001Y-81359999D01*
X117911004Y-81336202D01*
X117835000Y-81260198D01*
X117835000Y-81198061D01*
X117795226Y-80998102D01*
X117717205Y-80809744D01*
X117603937Y-80640226D01*
X117459774Y-80496063D01*
X117290256Y-80382795D01*
X117101898Y-80304774D01*
X116901939Y-80265000D01*
X116698061Y-80265000D01*
X116498102Y-80304774D01*
X116309744Y-80382795D01*
X116140226Y-80496063D01*
X115996063Y-80640226D01*
X115882795Y-80809744D01*
X115804774Y-80998102D01*
X115765000Y-81198061D01*
X115765000Y-81401939D01*
X115804774Y-81601898D01*
X115882795Y-81790256D01*
X115988233Y-81948056D01*
X115846063Y-82090226D01*
X115732795Y-82259744D01*
X115654774Y-82448102D01*
X115615000Y-82648061D01*
X115615000Y-82851939D01*
X115654774Y-83051898D01*
X115732795Y-83240256D01*
X115846063Y-83409774D01*
X115899494Y-83463205D01*
X114450771Y-84911928D01*
X112649998Y-84911928D01*
X112476744Y-84928992D01*
X112310148Y-84979528D01*
X112156613Y-85061595D01*
X112022038Y-85172038D01*
X111911595Y-85306613D01*
X111829528Y-85460148D01*
X111778992Y-85626744D01*
X111761928Y-85799998D01*
X111761928Y-86875002D01*
X111778992Y-87048256D01*
X111829528Y-87214852D01*
X111911595Y-87368387D01*
X112022038Y-87502962D01*
X112156613Y-87613405D01*
X112310148Y-87695472D01*
X112476744Y-87746008D01*
X112649998Y-87763072D01*
X113740000Y-87763072D01*
X113740001Y-89585196D01*
X112660198Y-90665000D01*
X112598061Y-90665000D01*
X112398102Y-90704774D01*
X112209744Y-90782795D01*
X112040226Y-90896063D01*
X111896063Y-91040226D01*
X111782795Y-91209744D01*
X111704774Y-91398102D01*
X111665000Y-91598061D01*
X111665000Y-91801939D01*
X111704774Y-92001898D01*
X111782795Y-92190256D01*
X111896063Y-92359774D01*
X112040226Y-92503937D01*
X112209744Y-92617205D01*
X112398102Y-92695226D01*
X112598061Y-92735000D01*
X112801939Y-92735000D01*
X113001898Y-92695226D01*
X113190256Y-92617205D01*
X113359774Y-92503937D01*
X113503937Y-92359774D01*
X113617205Y-92190256D01*
X113695226Y-92001898D01*
X113735000Y-91801939D01*
X113735000Y-91739802D01*
X115011008Y-90463795D01*
X115040001Y-90440001D01*
X115063795Y-90411008D01*
X115063799Y-90411004D01*
X115134973Y-90324277D01*
X115134974Y-90324276D01*
X115205546Y-90192247D01*
X115249003Y-90048986D01*
X115260000Y-89937333D01*
X115260000Y-89937324D01*
X115263676Y-89900001D01*
X115260000Y-89862678D01*
X115260000Y-87763072D01*
X115550002Y-87763072D01*
X115723256Y-87746008D01*
X115889852Y-87695472D01*
X116043387Y-87613405D01*
X116177962Y-87502962D01*
X116288405Y-87368387D01*
X116370472Y-87214852D01*
X116421008Y-87048256D01*
X116438072Y-86875002D01*
X116438072Y-85799998D01*
X116421008Y-85626744D01*
X116370472Y-85460148D01*
X116288405Y-85306613D01*
X116251120Y-85261181D01*
X116738205Y-84774097D01*
X116765026Y-84824276D01*
X116836201Y-84911002D01*
X116860000Y-84940001D01*
X116888997Y-84963799D01*
X117008695Y-85083496D01*
X116840226Y-85196063D01*
X116696063Y-85340226D01*
X116582795Y-85509744D01*
X116504774Y-85698102D01*
X116465000Y-85898061D01*
X116465000Y-86101939D01*
X116504774Y-86301898D01*
X116582795Y-86490256D01*
X116696063Y-86659774D01*
X116840226Y-86803937D01*
X117009744Y-86917205D01*
X117198102Y-86995226D01*
X117398061Y-87035000D01*
X117601939Y-87035000D01*
X117801898Y-86995226D01*
X117990256Y-86917205D01*
X118159774Y-86803937D01*
X118228711Y-86735000D01*
X119563895Y-86735000D01*
X119600000Y-86738556D01*
X119636105Y-86735000D01*
X119744085Y-86724365D01*
X119882633Y-86682337D01*
X120010320Y-86614087D01*
X120122238Y-86522238D01*
X120145258Y-86494188D01*
X120594197Y-86045250D01*
X120622237Y-86022238D01*
X120645250Y-85994197D01*
X120645253Y-85994194D01*
X120714087Y-85910320D01*
X120739019Y-85863676D01*
X120782337Y-85782633D01*
X120824365Y-85644085D01*
X120835000Y-85536105D01*
X120835000Y-85536104D01*
X120838556Y-85500000D01*
X120835000Y-85463895D01*
X120835000Y-83904446D01*
X121477030Y-83262417D01*
X121504774Y-83401898D01*
X121582795Y-83590256D01*
X121696063Y-83759774D01*
X121840226Y-83903937D01*
X122009744Y-84017205D01*
X122198102Y-84095226D01*
X122398061Y-84135000D01*
X122493312Y-84135000D01*
X122589680Y-84214087D01*
X122717367Y-84282337D01*
X122849332Y-84322368D01*
X122855915Y-84324365D01*
X123000000Y-84338556D01*
X123036105Y-84335000D01*
X123095554Y-84335000D01*
X123859747Y-85099194D01*
X123882763Y-85127239D01*
X123994681Y-85219088D01*
X124122368Y-85287338D01*
X124218887Y-85316617D01*
X124236929Y-85322090D01*
X124236929Y-85680002D01*
X124253993Y-85853256D01*
X124304529Y-86019852D01*
X124386596Y-86173388D01*
X124478763Y-86285694D01*
X124461595Y-86306613D01*
X124379528Y-86460149D01*
X124328992Y-86626745D01*
X124311928Y-86799999D01*
X124311928Y-89000001D01*
X124328992Y-89173255D01*
X124379528Y-89339851D01*
X124461595Y-89493387D01*
X124572038Y-89627962D01*
X124706613Y-89738405D01*
X124860149Y-89820472D01*
X125026745Y-89871008D01*
X125199999Y-89888072D01*
X125850001Y-89888072D01*
X126023255Y-89871008D01*
X126189851Y-89820472D01*
X126343387Y-89738405D01*
X126477962Y-89627962D01*
X126588405Y-89493387D01*
X126670472Y-89339851D01*
X126721008Y-89173255D01*
X126738072Y-89000001D01*
X126738072Y-86799999D01*
X126721008Y-86626745D01*
X126670472Y-86460149D01*
X126608591Y-86344378D01*
X126652963Y-86307963D01*
X126763406Y-86173388D01*
X126845473Y-86019852D01*
X126896009Y-85853256D01*
X126913073Y-85680002D01*
X126913073Y-83530000D01*
X126896009Y-83356746D01*
X126845473Y-83190150D01*
X126763406Y-83036614D01*
X126652963Y-82902039D01*
X126518388Y-82791596D01*
X126364852Y-82709529D01*
X126198256Y-82658993D01*
X126025002Y-82641929D01*
X125125000Y-82641929D01*
X124951746Y-82658993D01*
X124785150Y-82709529D01*
X124631614Y-82791596D01*
X124497039Y-82902039D01*
X124386596Y-83036614D01*
X124304529Y-83190150D01*
X124253993Y-83356746D01*
X124248811Y-83409364D01*
X123945258Y-83105812D01*
X123922238Y-83077762D01*
X123810320Y-82985913D01*
X123682633Y-82917663D01*
X123574406Y-82884833D01*
X123582633Y-82882337D01*
X123710320Y-82814087D01*
X123822238Y-82722238D01*
X123845258Y-82694188D01*
X123904446Y-82635000D01*
X124001939Y-82635000D01*
X124201898Y-82595226D01*
X124390256Y-82517205D01*
X124559774Y-82403937D01*
X124703937Y-82259774D01*
X124817205Y-82090256D01*
X124895226Y-81901898D01*
X124935000Y-81701939D01*
X124935000Y-81498061D01*
X124900974Y-81327000D01*
X132790979Y-81327000D01*
X132863514Y-81349003D01*
X132975167Y-81360000D01*
X132975177Y-81360000D01*
X133012500Y-81363676D01*
X133049822Y-81360000D01*
X139161165Y-81360000D01*
X139159188Y-81366518D01*
X139146928Y-81491000D01*
X139146928Y-86091000D01*
X139159188Y-86215482D01*
X139195498Y-86335180D01*
X139254463Y-86445494D01*
X139333815Y-86542185D01*
X139430506Y-86621537D01*
X139540820Y-86680502D01*
X139660518Y-86716812D01*
X139785000Y-86729072D01*
X140885000Y-86729072D01*
X141009482Y-86716812D01*
X141129180Y-86680502D01*
X141239494Y-86621537D01*
X141336185Y-86542185D01*
X141415537Y-86445494D01*
X141474502Y-86335180D01*
X141510812Y-86215482D01*
X141523072Y-86091000D01*
X141523072Y-81491000D01*
X141510812Y-81366518D01*
X141508835Y-81360000D01*
X141701165Y-81360000D01*
X141699188Y-81366518D01*
X141686928Y-81491000D01*
X141686928Y-86091000D01*
X141699188Y-86215482D01*
X141735498Y-86335180D01*
X141794463Y-86445494D01*
X141873815Y-86542185D01*
X141970506Y-86621537D01*
X142080820Y-86680502D01*
X142200518Y-86716812D01*
X142325000Y-86729072D01*
X143425000Y-86729072D01*
X143549482Y-86716812D01*
X143669180Y-86680502D01*
X143779494Y-86621537D01*
X143876185Y-86542185D01*
X143955537Y-86445494D01*
X144014502Y-86335180D01*
X144050812Y-86215482D01*
X144063072Y-86091000D01*
X144063072Y-81491000D01*
X144050812Y-81366518D01*
X144014502Y-81246820D01*
X143955537Y-81136506D01*
X143876185Y-81039815D01*
X143814267Y-80989000D01*
X150967356Y-80989000D01*
X150890815Y-81051815D01*
X150811463Y-81148506D01*
X150752498Y-81258820D01*
X150716188Y-81378518D01*
X150703928Y-81503000D01*
X150703928Y-86103000D01*
X150716188Y-86227482D01*
X150752498Y-86347180D01*
X150811463Y-86457494D01*
X150890815Y-86554185D01*
X150987506Y-86633537D01*
X151097820Y-86692502D01*
X151217518Y-86728812D01*
X151342000Y-86741072D01*
X152442000Y-86741072D01*
X152566482Y-86728812D01*
X152686180Y-86692502D01*
X152796494Y-86633537D01*
X152893185Y-86554185D01*
X152972537Y-86457494D01*
X153031502Y-86347180D01*
X153067812Y-86227482D01*
X153080072Y-86103000D01*
X153080072Y-81503000D01*
X153067812Y-81378518D01*
X153031502Y-81258820D01*
X152972537Y-81148506D01*
X152893185Y-81051815D01*
X152816644Y-80989000D01*
X153228199Y-80989000D01*
X153367799Y-81128600D01*
X153351463Y-81148506D01*
X153292498Y-81258820D01*
X153256188Y-81378518D01*
X153243928Y-81503000D01*
X153243928Y-86103000D01*
X153256188Y-86227482D01*
X153292498Y-86347180D01*
X153351463Y-86457494D01*
X153430815Y-86554185D01*
X153527506Y-86633537D01*
X153637820Y-86692502D01*
X153757518Y-86728812D01*
X153882000Y-86741072D01*
X154982000Y-86741072D01*
X155106482Y-86728812D01*
X155226180Y-86692502D01*
X155336494Y-86633537D01*
X155433185Y-86554185D01*
X155512537Y-86457494D01*
X155571502Y-86347180D01*
X155607812Y-86227482D01*
X155620072Y-86103000D01*
X155620072Y-81503000D01*
X155607812Y-81378518D01*
X155571502Y-81258820D01*
X155512537Y-81148506D01*
X155433185Y-81051815D01*
X155336494Y-80972463D01*
X155226180Y-80913498D01*
X155157878Y-80892779D01*
X155137546Y-80825753D01*
X155090106Y-80737000D01*
X155716279Y-80737000D01*
X155762003Y-96002282D01*
X155776642Y-96148659D01*
X155820004Y-96291605D01*
X155890420Y-96423345D01*
X155985185Y-96538815D01*
X156100655Y-96633580D01*
X156232395Y-96703996D01*
X156375341Y-96747358D01*
X156524000Y-96762000D01*
X174040000Y-96762000D01*
X174040000Y-102240000D01*
X89360000Y-102240000D01*
X89360000Y-97611716D01*
X149373000Y-97611716D01*
X149373000Y-98188284D01*
X149485482Y-98753775D01*
X149706126Y-99286455D01*
X150026450Y-99765854D01*
X150434146Y-100173550D01*
X150913545Y-100493874D01*
X151446225Y-100714518D01*
X152011716Y-100827000D01*
X152588284Y-100827000D01*
X153153775Y-100714518D01*
X153686455Y-100493874D01*
X154165854Y-100173550D01*
X154573550Y-99765854D01*
X154893874Y-99286455D01*
X155114518Y-98753775D01*
X155227000Y-98188284D01*
X155227000Y-97611716D01*
X155114518Y-97046225D01*
X154893874Y-96513545D01*
X154573550Y-96034146D01*
X154165854Y-95626450D01*
X153686455Y-95306126D01*
X153153775Y-95085482D01*
X152588284Y-94973000D01*
X152011716Y-94973000D01*
X151446225Y-95085482D01*
X150913545Y-95306126D01*
X150434146Y-95626450D01*
X150026450Y-96034146D01*
X149706126Y-96513545D01*
X149485482Y-97046225D01*
X149373000Y-97611716D01*
X89360000Y-97611716D01*
X89360000Y-84980000D01*
X106862718Y-84980000D01*
X106891776Y-85275032D01*
X106977834Y-85558725D01*
X107117583Y-85820179D01*
X107305655Y-86049345D01*
X107534821Y-86237417D01*
X107558362Y-86250000D01*
X107534821Y-86262583D01*
X107305655Y-86450655D01*
X107117583Y-86679821D01*
X106977834Y-86941275D01*
X106891776Y-87224968D01*
X106862718Y-87520000D01*
X106891776Y-87815032D01*
X106977834Y-88098725D01*
X107117583Y-88360179D01*
X107305655Y-88589345D01*
X107534821Y-88777417D01*
X107558362Y-88790000D01*
X107534821Y-88802583D01*
X107305655Y-88990655D01*
X107117583Y-89219821D01*
X106977834Y-89481275D01*
X106891776Y-89764968D01*
X106862718Y-90060000D01*
X106891776Y-90355032D01*
X106977834Y-90638725D01*
X107117583Y-90900179D01*
X107305655Y-91129345D01*
X107371114Y-91183066D01*
X107261613Y-91241595D01*
X107127038Y-91352038D01*
X107016595Y-91486613D01*
X106934528Y-91640149D01*
X106883992Y-91806745D01*
X106866928Y-91979999D01*
X106866928Y-93220001D01*
X106883992Y-93393255D01*
X106934528Y-93559851D01*
X107016595Y-93713387D01*
X107127038Y-93847962D01*
X107261613Y-93958405D01*
X107415149Y-94040472D01*
X107581745Y-94091008D01*
X107754999Y-94108072D01*
X109445001Y-94108072D01*
X109618255Y-94091008D01*
X109784851Y-94040472D01*
X109938387Y-93958405D01*
X110072962Y-93847962D01*
X110183405Y-93713387D01*
X110265472Y-93559851D01*
X110316008Y-93393255D01*
X110333072Y-93220001D01*
X110333072Y-91979999D01*
X110316008Y-91806745D01*
X110265472Y-91640149D01*
X110183405Y-91486613D01*
X110072962Y-91352038D01*
X109938387Y-91241595D01*
X109828886Y-91183066D01*
X109894345Y-91129345D01*
X110082417Y-90900179D01*
X110222166Y-90638725D01*
X110308224Y-90355032D01*
X110337282Y-90060000D01*
X110308224Y-89764968D01*
X110222166Y-89481275D01*
X110082417Y-89219821D01*
X109894345Y-88990655D01*
X109665179Y-88802583D01*
X109641638Y-88790000D01*
X109665179Y-88777417D01*
X109894345Y-88589345D01*
X110082417Y-88360179D01*
X110222166Y-88098725D01*
X110308224Y-87815032D01*
X110337282Y-87520000D01*
X110308224Y-87224968D01*
X110222166Y-86941275D01*
X110082417Y-86679821D01*
X109894345Y-86450655D01*
X109665179Y-86262583D01*
X109641638Y-86250000D01*
X109665179Y-86237417D01*
X109894345Y-86049345D01*
X110082417Y-85820179D01*
X110222166Y-85558725D01*
X110308224Y-85275032D01*
X110337282Y-84980000D01*
X110308224Y-84684968D01*
X110222166Y-84401275D01*
X110082417Y-84139821D01*
X109894345Y-83910655D01*
X109665179Y-83722583D01*
X109403725Y-83582834D01*
X109120032Y-83496776D01*
X108898936Y-83475000D01*
X108301064Y-83475000D01*
X108079968Y-83496776D01*
X107796275Y-83582834D01*
X107534821Y-83722583D01*
X107305655Y-83910655D01*
X107117583Y-84139821D01*
X106977834Y-84401275D01*
X106891776Y-84684968D01*
X106862718Y-84980000D01*
X89360000Y-84980000D01*
X89360000Y-78449999D01*
X104811928Y-78449999D01*
X104811928Y-79100001D01*
X104828992Y-79273255D01*
X104879528Y-79439851D01*
X104961595Y-79593387D01*
X105072038Y-79727962D01*
X105206613Y-79838405D01*
X105360149Y-79920472D01*
X105526745Y-79971008D01*
X105699999Y-79988072D01*
X107900001Y-79988072D01*
X108073255Y-79971008D01*
X108239851Y-79920472D01*
X108393387Y-79838405D01*
X108527962Y-79727962D01*
X108638405Y-79593387D01*
X108664145Y-79545231D01*
X108682795Y-79590256D01*
X108796063Y-79759774D01*
X108940226Y-79903937D01*
X109109744Y-80017205D01*
X109298102Y-80095226D01*
X109498061Y-80135000D01*
X109701939Y-80135000D01*
X109901898Y-80095226D01*
X110090256Y-80017205D01*
X110259774Y-79903937D01*
X110403937Y-79759774D01*
X110517205Y-79590256D01*
X110595226Y-79401898D01*
X110635000Y-79201939D01*
X110635000Y-78998061D01*
X110595226Y-78798102D01*
X110517205Y-78609744D01*
X110403937Y-78440226D01*
X110259774Y-78296063D01*
X110090256Y-78182795D01*
X109901898Y-78104774D01*
X109701939Y-78065000D01*
X109552564Y-78065000D01*
X109423986Y-78025997D01*
X109312333Y-78015000D01*
X109312322Y-78015000D01*
X109275000Y-78011324D01*
X109237678Y-78015000D01*
X108669614Y-78015000D01*
X108638405Y-77956613D01*
X108527962Y-77822038D01*
X108393387Y-77711595D01*
X108239851Y-77629528D01*
X108073255Y-77578992D01*
X107900001Y-77561928D01*
X105699999Y-77561928D01*
X105526745Y-77578992D01*
X105360149Y-77629528D01*
X105206613Y-77711595D01*
X105072038Y-77822038D01*
X104961595Y-77956613D01*
X104879528Y-78110149D01*
X104828992Y-78276745D01*
X104811928Y-78449999D01*
X89360000Y-78449999D01*
X89360000Y-72011716D01*
X90273000Y-72011716D01*
X90273000Y-72588284D01*
X90385482Y-73153775D01*
X90606126Y-73686455D01*
X90926450Y-74165854D01*
X91334146Y-74573550D01*
X91813545Y-74893874D01*
X92346225Y-75114518D01*
X92911716Y-75227000D01*
X93488284Y-75227000D01*
X94053775Y-75114518D01*
X94586455Y-74893874D01*
X95065854Y-74573550D01*
X95473550Y-74165854D01*
X95793874Y-73686455D01*
X96014518Y-73153775D01*
X96127000Y-72588284D01*
X96127000Y-72011716D01*
X96114724Y-71949998D01*
X109636928Y-71949998D01*
X109636928Y-74850002D01*
X109653992Y-75023256D01*
X109704528Y-75189852D01*
X109786595Y-75343387D01*
X109897038Y-75477962D01*
X110031613Y-75588405D01*
X110185148Y-75670472D01*
X110351744Y-75721008D01*
X110524998Y-75738072D01*
X111600002Y-75738072D01*
X111773256Y-75721008D01*
X111939852Y-75670472D01*
X112041394Y-75616196D01*
X113640001Y-77214803D01*
X113640001Y-77296288D01*
X113596063Y-77340226D01*
X113482795Y-77509744D01*
X113404774Y-77698102D01*
X113365000Y-77898061D01*
X113365000Y-78101939D01*
X113404774Y-78301898D01*
X113482795Y-78490256D01*
X113596063Y-78659774D01*
X113740226Y-78803937D01*
X113909744Y-78917205D01*
X114098102Y-78995226D01*
X114298061Y-79035000D01*
X114501939Y-79035000D01*
X114701898Y-78995226D01*
X114890256Y-78917205D01*
X115059774Y-78803937D01*
X115203937Y-78659774D01*
X115317205Y-78490256D01*
X115395226Y-78301898D01*
X115435000Y-78101939D01*
X115435000Y-77898061D01*
X115395226Y-77698102D01*
X115317205Y-77509744D01*
X115203937Y-77340226D01*
X115160000Y-77296289D01*
X115160000Y-76937325D01*
X115163676Y-76900000D01*
X115160000Y-76862675D01*
X115160000Y-76862667D01*
X115149003Y-76751014D01*
X115105546Y-76607753D01*
X115034974Y-76475724D01*
X114940001Y-76359999D01*
X114911003Y-76336201D01*
X112488072Y-73913271D01*
X112488072Y-71949998D01*
X113911928Y-71949998D01*
X113911928Y-74850002D01*
X113928992Y-75023256D01*
X113979528Y-75189852D01*
X114061595Y-75343387D01*
X114172038Y-75477962D01*
X114306613Y-75588405D01*
X114460148Y-75670472D01*
X114626744Y-75721008D01*
X114799998Y-75738072D01*
X114863271Y-75738072D01*
X115865000Y-76739802D01*
X115865000Y-76801939D01*
X115904774Y-77001898D01*
X115982795Y-77190256D01*
X116096063Y-77359774D01*
X116240226Y-77503937D01*
X116409744Y-77617205D01*
X116598102Y-77695226D01*
X116798061Y-77735000D01*
X117001939Y-77735000D01*
X117201898Y-77695226D01*
X117390256Y-77617205D01*
X117559774Y-77503937D01*
X117703937Y-77359774D01*
X117817205Y-77190256D01*
X117895226Y-77001898D01*
X117935000Y-76801939D01*
X117935000Y-76598061D01*
X117895226Y-76398102D01*
X117817205Y-76209744D01*
X117703937Y-76040226D01*
X117559774Y-75896063D01*
X117390256Y-75782795D01*
X117201898Y-75704774D01*
X117001939Y-75665000D01*
X116939802Y-75665000D01*
X116615071Y-75340270D01*
X116695472Y-75189852D01*
X116746008Y-75023256D01*
X116763072Y-74850002D01*
X116763072Y-71949998D01*
X116746008Y-71776744D01*
X116695472Y-71610148D01*
X116613405Y-71456613D01*
X116502962Y-71322038D01*
X116368387Y-71211595D01*
X116214852Y-71129528D01*
X116048256Y-71078992D01*
X115875002Y-71061928D01*
X114799998Y-71061928D01*
X114626744Y-71078992D01*
X114460148Y-71129528D01*
X114306613Y-71211595D01*
X114172038Y-71322038D01*
X114061595Y-71456613D01*
X113979528Y-71610148D01*
X113928992Y-71776744D01*
X113911928Y-71949998D01*
X112488072Y-71949998D01*
X112471008Y-71776744D01*
X112420472Y-71610148D01*
X112338405Y-71456613D01*
X112227962Y-71322038D01*
X112093387Y-71211595D01*
X111939852Y-71129528D01*
X111773256Y-71078992D01*
X111600002Y-71061928D01*
X110524998Y-71061928D01*
X110351744Y-71078992D01*
X110185148Y-71129528D01*
X110031613Y-71211595D01*
X109897038Y-71322038D01*
X109786595Y-71456613D01*
X109704528Y-71610148D01*
X109653992Y-71776744D01*
X109636928Y-71949998D01*
X96114724Y-71949998D01*
X96014518Y-71446225D01*
X95793874Y-70913545D01*
X95473550Y-70434146D01*
X95065854Y-70026450D01*
X94586455Y-69706126D01*
X94053775Y-69485482D01*
X93488284Y-69373000D01*
X92911716Y-69373000D01*
X92346225Y-69485482D01*
X91813545Y-69706126D01*
X91334146Y-70026450D01*
X90926450Y-70434146D01*
X90606126Y-70913545D01*
X90385482Y-71446225D01*
X90273000Y-72011716D01*
X89360000Y-72011716D01*
X89360000Y-47044872D01*
X89723000Y-47044872D01*
X89723000Y-47485128D01*
X89808890Y-47916925D01*
X89977369Y-48323669D01*
X90221962Y-48689729D01*
X90533271Y-49001038D01*
X90899331Y-49245631D01*
X91306075Y-49414110D01*
X91649894Y-49482500D01*
X91306075Y-49550890D01*
X90899331Y-49719369D01*
X90533271Y-49963962D01*
X90221962Y-50275271D01*
X89977369Y-50641331D01*
X89808890Y-51048075D01*
X89723000Y-51479872D01*
X89723000Y-51920128D01*
X89808890Y-52351925D01*
X89977369Y-52758669D01*
X90221962Y-53124729D01*
X90533271Y-53436038D01*
X90899331Y-53680631D01*
X91306075Y-53849110D01*
X91649894Y-53917500D01*
X91306075Y-53985890D01*
X90899331Y-54154369D01*
X90533271Y-54398962D01*
X90221962Y-54710271D01*
X89977369Y-55076331D01*
X89808890Y-55483075D01*
X89723000Y-55914872D01*
X89723000Y-56355128D01*
X89808890Y-56786925D01*
X89977369Y-57193669D01*
X90221962Y-57559729D01*
X90533271Y-57871038D01*
X90899331Y-58115631D01*
X91306075Y-58284110D01*
X91737872Y-58370000D01*
X92178128Y-58370000D01*
X92609925Y-58284110D01*
X93016669Y-58115631D01*
X93382729Y-57871038D01*
X93694038Y-57559729D01*
X93938631Y-57193669D01*
X94107110Y-56786925D01*
X94175500Y-56443106D01*
X94243890Y-56786925D01*
X94412369Y-57193669D01*
X94656962Y-57559729D01*
X94968271Y-57871038D01*
X95334331Y-58115631D01*
X95741075Y-58284110D01*
X96172872Y-58370000D01*
X96613128Y-58370000D01*
X97044925Y-58284110D01*
X97451669Y-58115631D01*
X97817729Y-57871038D01*
X98129038Y-57559729D01*
X98373631Y-57193669D01*
X98542110Y-56786925D01*
X98610500Y-56443106D01*
X98678890Y-56786925D01*
X98847369Y-57193669D01*
X99091962Y-57559729D01*
X99403271Y-57871038D01*
X99769331Y-58115631D01*
X100176075Y-58284110D01*
X100607872Y-58370000D01*
X101048128Y-58370000D01*
X101479925Y-58284110D01*
X101886669Y-58115631D01*
X102252729Y-57871038D01*
X102564038Y-57559729D01*
X102808631Y-57193669D01*
X102977110Y-56786925D01*
X103063000Y-56355128D01*
X103063000Y-55914872D01*
X102977110Y-55483075D01*
X102808631Y-55076331D01*
X102564038Y-54710271D01*
X102252729Y-54398962D01*
X101886669Y-54154369D01*
X101479925Y-53985890D01*
X101136106Y-53917500D01*
X101479925Y-53849110D01*
X101886669Y-53680631D01*
X102252729Y-53436038D01*
X102564038Y-53124729D01*
X102808631Y-52758669D01*
X102977110Y-52351925D01*
X103063000Y-51920128D01*
X103063000Y-51479872D01*
X102977110Y-51048075D01*
X102808631Y-50641331D01*
X102564038Y-50275271D01*
X102252729Y-49963962D01*
X101886669Y-49719369D01*
X101479925Y-49550890D01*
X101136106Y-49482500D01*
X101479925Y-49414110D01*
X101886669Y-49245631D01*
X102252729Y-49001038D01*
X102564038Y-48689729D01*
X102808631Y-48323669D01*
X102977110Y-47916925D01*
X103063000Y-47485128D01*
X103063000Y-47044872D01*
X102977110Y-46613075D01*
X102808631Y-46206331D01*
X102564038Y-45840271D01*
X102252729Y-45528962D01*
X101886669Y-45284369D01*
X101479925Y-45115890D01*
X101048128Y-45030000D01*
X100607872Y-45030000D01*
X100176075Y-45115890D01*
X99769331Y-45284369D01*
X99403271Y-45528962D01*
X99091962Y-45840271D01*
X98847369Y-46206331D01*
X98678890Y-46613075D01*
X98610500Y-46956894D01*
X98542110Y-46613075D01*
X98373631Y-46206331D01*
X98129038Y-45840271D01*
X97817729Y-45528962D01*
X97451669Y-45284369D01*
X97044925Y-45115890D01*
X96613128Y-45030000D01*
X96172872Y-45030000D01*
X95741075Y-45115890D01*
X95334331Y-45284369D01*
X94968271Y-45528962D01*
X94656962Y-45840271D01*
X94412369Y-46206331D01*
X94243890Y-46613075D01*
X94175500Y-46956894D01*
X94107110Y-46613075D01*
X93938631Y-46206331D01*
X93694038Y-45840271D01*
X93382729Y-45528962D01*
X93016669Y-45284369D01*
X92609925Y-45115890D01*
X92178128Y-45030000D01*
X91737872Y-45030000D01*
X91306075Y-45115890D01*
X90899331Y-45284369D01*
X90533271Y-45528962D01*
X90221962Y-45840271D01*
X89977369Y-46206331D01*
X89808890Y-46613075D01*
X89723000Y-47044872D01*
X89360000Y-47044872D01*
X89360000Y-43560000D01*
X123036316Y-43560000D01*
X123009001Y-61940056D01*
G04 #@! TA.AperFunction,Conductor*
D22*
G36*
X123009001Y-61940056D02*
G01*
X123021201Y-62064882D01*
X123057336Y-62184004D01*
X123116017Y-62293787D01*
X123194987Y-62390013D01*
X123291213Y-62468983D01*
X123400996Y-62527664D01*
X123520118Y-62563799D01*
X123644000Y-62576000D01*
X125273000Y-62576000D01*
X125273000Y-67652198D01*
X123588998Y-69336201D01*
X123560000Y-69359999D01*
X123536202Y-69388997D01*
X123536201Y-69388998D01*
X123465026Y-69475724D01*
X123394454Y-69607754D01*
X123350998Y-69751015D01*
X123336324Y-69900000D01*
X123340001Y-69937332D01*
X123340000Y-73859998D01*
X123311004Y-73836202D01*
X122535000Y-73060199D01*
X122535000Y-72998061D01*
X122495226Y-72798102D01*
X122417205Y-72609744D01*
X122303937Y-72440226D01*
X122159774Y-72296063D01*
X121990256Y-72182795D01*
X121801898Y-72104774D01*
X121601939Y-72065000D01*
X121398061Y-72065000D01*
X121198102Y-72104774D01*
X121009744Y-72182795D01*
X120840226Y-72296063D01*
X120696063Y-72440226D01*
X120582795Y-72609744D01*
X120504774Y-72798102D01*
X120465000Y-72998061D01*
X120465000Y-73201939D01*
X120504774Y-73401898D01*
X120582795Y-73590256D01*
X120696063Y-73759774D01*
X120840226Y-73903937D01*
X121009744Y-74017205D01*
X121198102Y-74095226D01*
X121398061Y-74135000D01*
X121460199Y-74135000D01*
X122037540Y-74712341D01*
X122040000Y-74737322D01*
X122040000Y-74737333D01*
X122050997Y-74848986D01*
X122094454Y-74992247D01*
X122165026Y-75124276D01*
X122259999Y-75240001D01*
X122289001Y-75263802D01*
X123136201Y-76111003D01*
X123159999Y-76140001D01*
X123275724Y-76234974D01*
X123407753Y-76305546D01*
X123551014Y-76349003D01*
X123662667Y-76360000D01*
X123662676Y-76360000D01*
X123699999Y-76363676D01*
X123737322Y-76360000D01*
X124573000Y-76360000D01*
X124573000Y-78363289D01*
X124496063Y-78440226D01*
X124382795Y-78609744D01*
X124304774Y-78798102D01*
X124265000Y-78998061D01*
X124265000Y-79201939D01*
X124304774Y-79401898D01*
X124382795Y-79590256D01*
X124496063Y-79759774D01*
X124573000Y-79836711D01*
X124573000Y-80809289D01*
X124559774Y-80796063D01*
X124390256Y-80682795D01*
X124201898Y-80604774D01*
X124001939Y-80565000D01*
X123798061Y-80565000D01*
X123598102Y-80604774D01*
X123409744Y-80682795D01*
X123240226Y-80796063D01*
X123096063Y-80940226D01*
X122982795Y-81109744D01*
X122904774Y-81298102D01*
X122871576Y-81465000D01*
X121536105Y-81465000D01*
X121500000Y-81461444D01*
X121355914Y-81475635D01*
X121313886Y-81488384D01*
X121217367Y-81517663D01*
X121089680Y-81585913D01*
X120977762Y-81677762D01*
X120954746Y-81705807D01*
X119605808Y-83054746D01*
X119577763Y-83077762D01*
X119485914Y-83189680D01*
X119467422Y-83224276D01*
X119417664Y-83317367D01*
X119375635Y-83455915D01*
X119361444Y-83600000D01*
X119365001Y-83636115D01*
X119365001Y-84097435D01*
X119201939Y-84065000D01*
X118998061Y-84065000D01*
X118798102Y-84104774D01*
X118609744Y-84182795D01*
X118440226Y-84296063D01*
X118405546Y-84330743D01*
X118160000Y-84085198D01*
X118160000Y-81937322D01*
X118163676Y-81899999D01*
X118160000Y-81862676D01*
X118160000Y-81862667D01*
X118149003Y-81751014D01*
X118105546Y-81607753D01*
X118075218Y-81551014D01*
X118034974Y-81475723D01*
X117963799Y-81388997D01*
X117940001Y-81359999D01*
X117911004Y-81336202D01*
X117835000Y-81260198D01*
X117835000Y-81198061D01*
X117795226Y-80998102D01*
X117717205Y-80809744D01*
X117603937Y-80640226D01*
X117459774Y-80496063D01*
X117290256Y-80382795D01*
X117101898Y-80304774D01*
X116901939Y-80265000D01*
X116698061Y-80265000D01*
X116498102Y-80304774D01*
X116309744Y-80382795D01*
X116140226Y-80496063D01*
X115996063Y-80640226D01*
X115882795Y-80809744D01*
X115804774Y-80998102D01*
X115765000Y-81198061D01*
X115765000Y-81401939D01*
X115804774Y-81601898D01*
X115882795Y-81790256D01*
X115988233Y-81948056D01*
X115846063Y-82090226D01*
X115732795Y-82259744D01*
X115654774Y-82448102D01*
X115615000Y-82648061D01*
X115615000Y-82851939D01*
X115654774Y-83051898D01*
X115732795Y-83240256D01*
X115846063Y-83409774D01*
X115899494Y-83463205D01*
X114450771Y-84911928D01*
X112649998Y-84911928D01*
X112476744Y-84928992D01*
X112310148Y-84979528D01*
X112156613Y-85061595D01*
X112022038Y-85172038D01*
X111911595Y-85306613D01*
X111829528Y-85460148D01*
X111778992Y-85626744D01*
X111761928Y-85799998D01*
X111761928Y-86875002D01*
X111778992Y-87048256D01*
X111829528Y-87214852D01*
X111911595Y-87368387D01*
X112022038Y-87502962D01*
X112156613Y-87613405D01*
X112310148Y-87695472D01*
X112476744Y-87746008D01*
X112649998Y-87763072D01*
X113740000Y-87763072D01*
X113740001Y-89585196D01*
X112660198Y-90665000D01*
X112598061Y-90665000D01*
X112398102Y-90704774D01*
X112209744Y-90782795D01*
X112040226Y-90896063D01*
X111896063Y-91040226D01*
X111782795Y-91209744D01*
X111704774Y-91398102D01*
X111665000Y-91598061D01*
X111665000Y-91801939D01*
X111704774Y-92001898D01*
X111782795Y-92190256D01*
X111896063Y-92359774D01*
X112040226Y-92503937D01*
X112209744Y-92617205D01*
X112398102Y-92695226D01*
X112598061Y-92735000D01*
X112801939Y-92735000D01*
X113001898Y-92695226D01*
X113190256Y-92617205D01*
X113359774Y-92503937D01*
X113503937Y-92359774D01*
X113617205Y-92190256D01*
X113695226Y-92001898D01*
X113735000Y-91801939D01*
X113735000Y-91739802D01*
X115011008Y-90463795D01*
X115040001Y-90440001D01*
X115063795Y-90411008D01*
X115063799Y-90411004D01*
X115134973Y-90324277D01*
X115134974Y-90324276D01*
X115205546Y-90192247D01*
X115249003Y-90048986D01*
X115260000Y-89937333D01*
X115260000Y-89937324D01*
X115263676Y-89900001D01*
X115260000Y-89862678D01*
X115260000Y-87763072D01*
X115550002Y-87763072D01*
X115723256Y-87746008D01*
X115889852Y-87695472D01*
X116043387Y-87613405D01*
X116177962Y-87502962D01*
X116288405Y-87368387D01*
X116370472Y-87214852D01*
X116421008Y-87048256D01*
X116438072Y-86875002D01*
X116438072Y-85799998D01*
X116421008Y-85626744D01*
X116370472Y-85460148D01*
X116288405Y-85306613D01*
X116251120Y-85261181D01*
X116738205Y-84774097D01*
X116765026Y-84824276D01*
X116836201Y-84911002D01*
X116860000Y-84940001D01*
X116888997Y-84963799D01*
X117008695Y-85083496D01*
X116840226Y-85196063D01*
X116696063Y-85340226D01*
X116582795Y-85509744D01*
X116504774Y-85698102D01*
X116465000Y-85898061D01*
X116465000Y-86101939D01*
X116504774Y-86301898D01*
X116582795Y-86490256D01*
X116696063Y-86659774D01*
X116840226Y-86803937D01*
X117009744Y-86917205D01*
X117198102Y-86995226D01*
X117398061Y-87035000D01*
X117601939Y-87035000D01*
X117801898Y-86995226D01*
X117990256Y-86917205D01*
X118159774Y-86803937D01*
X118228711Y-86735000D01*
X119563895Y-86735000D01*
X119600000Y-86738556D01*
X119636105Y-86735000D01*
X119744085Y-86724365D01*
X119882633Y-86682337D01*
X120010320Y-86614087D01*
X120122238Y-86522238D01*
X120145258Y-86494188D01*
X120594197Y-86045250D01*
X120622237Y-86022238D01*
X120645250Y-85994197D01*
X120645253Y-85994194D01*
X120714087Y-85910320D01*
X120739019Y-85863676D01*
X120782337Y-85782633D01*
X120824365Y-85644085D01*
X120835000Y-85536105D01*
X120835000Y-85536104D01*
X120838556Y-85500000D01*
X120835000Y-85463895D01*
X120835000Y-83904446D01*
X121477030Y-83262417D01*
X121504774Y-83401898D01*
X121582795Y-83590256D01*
X121696063Y-83759774D01*
X121840226Y-83903937D01*
X122009744Y-84017205D01*
X122198102Y-84095226D01*
X122398061Y-84135000D01*
X122493312Y-84135000D01*
X122589680Y-84214087D01*
X122717367Y-84282337D01*
X122849332Y-84322368D01*
X122855915Y-84324365D01*
X123000000Y-84338556D01*
X123036105Y-84335000D01*
X123095554Y-84335000D01*
X123859747Y-85099194D01*
X123882763Y-85127239D01*
X123994681Y-85219088D01*
X124122368Y-85287338D01*
X124218887Y-85316617D01*
X124236929Y-85322090D01*
X124236929Y-85680002D01*
X124253993Y-85853256D01*
X124304529Y-86019852D01*
X124386596Y-86173388D01*
X124478763Y-86285694D01*
X124461595Y-86306613D01*
X124379528Y-86460149D01*
X124328992Y-86626745D01*
X124311928Y-86799999D01*
X124311928Y-89000001D01*
X124328992Y-89173255D01*
X124379528Y-89339851D01*
X124461595Y-89493387D01*
X124572038Y-89627962D01*
X124706613Y-89738405D01*
X124860149Y-89820472D01*
X125026745Y-89871008D01*
X125199999Y-89888072D01*
X125850001Y-89888072D01*
X126023255Y-89871008D01*
X126189851Y-89820472D01*
X126343387Y-89738405D01*
X126477962Y-89627962D01*
X126588405Y-89493387D01*
X126670472Y-89339851D01*
X126721008Y-89173255D01*
X126738072Y-89000001D01*
X126738072Y-86799999D01*
X126721008Y-86626745D01*
X126670472Y-86460149D01*
X126608591Y-86344378D01*
X126652963Y-86307963D01*
X126763406Y-86173388D01*
X126845473Y-86019852D01*
X126896009Y-85853256D01*
X126913073Y-85680002D01*
X126913073Y-83530000D01*
X126896009Y-83356746D01*
X126845473Y-83190150D01*
X126763406Y-83036614D01*
X126652963Y-82902039D01*
X126518388Y-82791596D01*
X126364852Y-82709529D01*
X126198256Y-82658993D01*
X126025002Y-82641929D01*
X125125000Y-82641929D01*
X124951746Y-82658993D01*
X124785150Y-82709529D01*
X124631614Y-82791596D01*
X124497039Y-82902039D01*
X124386596Y-83036614D01*
X124304529Y-83190150D01*
X124253993Y-83356746D01*
X124248811Y-83409364D01*
X123945258Y-83105812D01*
X123922238Y-83077762D01*
X123810320Y-82985913D01*
X123682633Y-82917663D01*
X123574406Y-82884833D01*
X123582633Y-82882337D01*
X123710320Y-82814087D01*
X123822238Y-82722238D01*
X123845258Y-82694188D01*
X123904446Y-82635000D01*
X124001939Y-82635000D01*
X124201898Y-82595226D01*
X124390256Y-82517205D01*
X124559774Y-82403937D01*
X124703937Y-82259774D01*
X124817205Y-82090256D01*
X124895226Y-81901898D01*
X124935000Y-81701939D01*
X124935000Y-81498061D01*
X124900974Y-81327000D01*
X132790979Y-81327000D01*
X132863514Y-81349003D01*
X132975167Y-81360000D01*
X132975177Y-81360000D01*
X133012500Y-81363676D01*
X133049822Y-81360000D01*
X139161165Y-81360000D01*
X139159188Y-81366518D01*
X139146928Y-81491000D01*
X139146928Y-86091000D01*
X139159188Y-86215482D01*
X139195498Y-86335180D01*
X139254463Y-86445494D01*
X139333815Y-86542185D01*
X139430506Y-86621537D01*
X139540820Y-86680502D01*
X139660518Y-86716812D01*
X139785000Y-86729072D01*
X140885000Y-86729072D01*
X141009482Y-86716812D01*
X141129180Y-86680502D01*
X141239494Y-86621537D01*
X141336185Y-86542185D01*
X141415537Y-86445494D01*
X141474502Y-86335180D01*
X141510812Y-86215482D01*
X141523072Y-86091000D01*
X141523072Y-81491000D01*
X141510812Y-81366518D01*
X141508835Y-81360000D01*
X141701165Y-81360000D01*
X141699188Y-81366518D01*
X141686928Y-81491000D01*
X141686928Y-86091000D01*
X141699188Y-86215482D01*
X141735498Y-86335180D01*
X141794463Y-86445494D01*
X141873815Y-86542185D01*
X141970506Y-86621537D01*
X142080820Y-86680502D01*
X142200518Y-86716812D01*
X142325000Y-86729072D01*
X143425000Y-86729072D01*
X143549482Y-86716812D01*
X143669180Y-86680502D01*
X143779494Y-86621537D01*
X143876185Y-86542185D01*
X143955537Y-86445494D01*
X144014502Y-86335180D01*
X144050812Y-86215482D01*
X144063072Y-86091000D01*
X144063072Y-81491000D01*
X144050812Y-81366518D01*
X144014502Y-81246820D01*
X143955537Y-81136506D01*
X143876185Y-81039815D01*
X143814267Y-80989000D01*
X150967356Y-80989000D01*
X150890815Y-81051815D01*
X150811463Y-81148506D01*
X150752498Y-81258820D01*
X150716188Y-81378518D01*
X150703928Y-81503000D01*
X150703928Y-86103000D01*
X150716188Y-86227482D01*
X150752498Y-86347180D01*
X150811463Y-86457494D01*
X150890815Y-86554185D01*
X150987506Y-86633537D01*
X151097820Y-86692502D01*
X151217518Y-86728812D01*
X151342000Y-86741072D01*
X152442000Y-86741072D01*
X152566482Y-86728812D01*
X152686180Y-86692502D01*
X152796494Y-86633537D01*
X152893185Y-86554185D01*
X152972537Y-86457494D01*
X153031502Y-86347180D01*
X153067812Y-86227482D01*
X153080072Y-86103000D01*
X153080072Y-81503000D01*
X153067812Y-81378518D01*
X153031502Y-81258820D01*
X152972537Y-81148506D01*
X152893185Y-81051815D01*
X152816644Y-80989000D01*
X153228199Y-80989000D01*
X153367799Y-81128600D01*
X153351463Y-81148506D01*
X153292498Y-81258820D01*
X153256188Y-81378518D01*
X153243928Y-81503000D01*
X153243928Y-86103000D01*
X153256188Y-86227482D01*
X153292498Y-86347180D01*
X153351463Y-86457494D01*
X153430815Y-86554185D01*
X153527506Y-86633537D01*
X153637820Y-86692502D01*
X153757518Y-86728812D01*
X153882000Y-86741072D01*
X154982000Y-86741072D01*
X155106482Y-86728812D01*
X155226180Y-86692502D01*
X155336494Y-86633537D01*
X155433185Y-86554185D01*
X155512537Y-86457494D01*
X155571502Y-86347180D01*
X155607812Y-86227482D01*
X155620072Y-86103000D01*
X155620072Y-81503000D01*
X155607812Y-81378518D01*
X155571502Y-81258820D01*
X155512537Y-81148506D01*
X155433185Y-81051815D01*
X155336494Y-80972463D01*
X155226180Y-80913498D01*
X155157878Y-80892779D01*
X155137546Y-80825753D01*
X155090106Y-80737000D01*
X155716279Y-80737000D01*
X155762003Y-96002282D01*
X155776642Y-96148659D01*
X155820004Y-96291605D01*
X155890420Y-96423345D01*
X155985185Y-96538815D01*
X156100655Y-96633580D01*
X156232395Y-96703996D01*
X156375341Y-96747358D01*
X156524000Y-96762000D01*
X174040000Y-96762000D01*
X174040000Y-102240000D01*
X89360000Y-102240000D01*
X89360000Y-97611716D01*
X149373000Y-97611716D01*
X149373000Y-98188284D01*
X149485482Y-98753775D01*
X149706126Y-99286455D01*
X150026450Y-99765854D01*
X150434146Y-100173550D01*
X150913545Y-100493874D01*
X151446225Y-100714518D01*
X152011716Y-100827000D01*
X152588284Y-100827000D01*
X153153775Y-100714518D01*
X153686455Y-100493874D01*
X154165854Y-100173550D01*
X154573550Y-99765854D01*
X154893874Y-99286455D01*
X155114518Y-98753775D01*
X155227000Y-98188284D01*
X155227000Y-97611716D01*
X155114518Y-97046225D01*
X154893874Y-96513545D01*
X154573550Y-96034146D01*
X154165854Y-95626450D01*
X153686455Y-95306126D01*
X153153775Y-95085482D01*
X152588284Y-94973000D01*
X152011716Y-94973000D01*
X151446225Y-95085482D01*
X150913545Y-95306126D01*
X150434146Y-95626450D01*
X150026450Y-96034146D01*
X149706126Y-96513545D01*
X149485482Y-97046225D01*
X149373000Y-97611716D01*
X89360000Y-97611716D01*
X89360000Y-84980000D01*
X106862718Y-84980000D01*
X106891776Y-85275032D01*
X106977834Y-85558725D01*
X107117583Y-85820179D01*
X107305655Y-86049345D01*
X107534821Y-86237417D01*
X107558362Y-86250000D01*
X107534821Y-86262583D01*
X107305655Y-86450655D01*
X107117583Y-86679821D01*
X106977834Y-86941275D01*
X106891776Y-87224968D01*
X106862718Y-87520000D01*
X106891776Y-87815032D01*
X106977834Y-88098725D01*
X107117583Y-88360179D01*
X107305655Y-88589345D01*
X107534821Y-88777417D01*
X107558362Y-88790000D01*
X107534821Y-88802583D01*
X107305655Y-88990655D01*
X107117583Y-89219821D01*
X106977834Y-89481275D01*
X106891776Y-89764968D01*
X106862718Y-90060000D01*
X106891776Y-90355032D01*
X106977834Y-90638725D01*
X107117583Y-90900179D01*
X107305655Y-91129345D01*
X107371114Y-91183066D01*
X107261613Y-91241595D01*
X107127038Y-91352038D01*
X107016595Y-91486613D01*
X106934528Y-91640149D01*
X106883992Y-91806745D01*
X106866928Y-91979999D01*
X106866928Y-93220001D01*
X106883992Y-93393255D01*
X106934528Y-93559851D01*
X107016595Y-93713387D01*
X107127038Y-93847962D01*
X107261613Y-93958405D01*
X107415149Y-94040472D01*
X107581745Y-94091008D01*
X107754999Y-94108072D01*
X109445001Y-94108072D01*
X109618255Y-94091008D01*
X109784851Y-94040472D01*
X109938387Y-93958405D01*
X110072962Y-93847962D01*
X110183405Y-93713387D01*
X110265472Y-93559851D01*
X110316008Y-93393255D01*
X110333072Y-93220001D01*
X110333072Y-91979999D01*
X110316008Y-91806745D01*
X110265472Y-91640149D01*
X110183405Y-91486613D01*
X110072962Y-91352038D01*
X109938387Y-91241595D01*
X109828886Y-91183066D01*
X109894345Y-91129345D01*
X110082417Y-90900179D01*
X110222166Y-90638725D01*
X110308224Y-90355032D01*
X110337282Y-90060000D01*
X110308224Y-89764968D01*
X110222166Y-89481275D01*
X110082417Y-89219821D01*
X109894345Y-88990655D01*
X109665179Y-88802583D01*
X109641638Y-88790000D01*
X109665179Y-88777417D01*
X109894345Y-88589345D01*
X110082417Y-88360179D01*
X110222166Y-88098725D01*
X110308224Y-87815032D01*
X110337282Y-87520000D01*
X110308224Y-87224968D01*
X110222166Y-86941275D01*
X110082417Y-86679821D01*
X109894345Y-86450655D01*
X109665179Y-86262583D01*
X109641638Y-86250000D01*
X109665179Y-86237417D01*
X109894345Y-86049345D01*
X110082417Y-85820179D01*
X110222166Y-85558725D01*
X110308224Y-85275032D01*
X110337282Y-84980000D01*
X110308224Y-84684968D01*
X110222166Y-84401275D01*
X110082417Y-84139821D01*
X109894345Y-83910655D01*
X109665179Y-83722583D01*
X109403725Y-83582834D01*
X109120032Y-83496776D01*
X108898936Y-83475000D01*
X108301064Y-83475000D01*
X108079968Y-83496776D01*
X107796275Y-83582834D01*
X107534821Y-83722583D01*
X107305655Y-83910655D01*
X107117583Y-84139821D01*
X106977834Y-84401275D01*
X106891776Y-84684968D01*
X106862718Y-84980000D01*
X89360000Y-84980000D01*
X89360000Y-78449999D01*
X104811928Y-78449999D01*
X104811928Y-79100001D01*
X104828992Y-79273255D01*
X104879528Y-79439851D01*
X104961595Y-79593387D01*
X105072038Y-79727962D01*
X105206613Y-79838405D01*
X105360149Y-79920472D01*
X105526745Y-79971008D01*
X105699999Y-79988072D01*
X107900001Y-79988072D01*
X108073255Y-79971008D01*
X108239851Y-79920472D01*
X108393387Y-79838405D01*
X108527962Y-79727962D01*
X108638405Y-79593387D01*
X108664145Y-79545231D01*
X108682795Y-79590256D01*
X108796063Y-79759774D01*
X108940226Y-79903937D01*
X109109744Y-80017205D01*
X109298102Y-80095226D01*
X109498061Y-80135000D01*
X109701939Y-80135000D01*
X109901898Y-80095226D01*
X110090256Y-80017205D01*
X110259774Y-79903937D01*
X110403937Y-79759774D01*
X110517205Y-79590256D01*
X110595226Y-79401898D01*
X110635000Y-79201939D01*
X110635000Y-78998061D01*
X110595226Y-78798102D01*
X110517205Y-78609744D01*
X110403937Y-78440226D01*
X110259774Y-78296063D01*
X110090256Y-78182795D01*
X109901898Y-78104774D01*
X109701939Y-78065000D01*
X109552564Y-78065000D01*
X109423986Y-78025997D01*
X109312333Y-78015000D01*
X109312322Y-78015000D01*
X109275000Y-78011324D01*
X109237678Y-78015000D01*
X108669614Y-78015000D01*
X108638405Y-77956613D01*
X108527962Y-77822038D01*
X108393387Y-77711595D01*
X108239851Y-77629528D01*
X108073255Y-77578992D01*
X107900001Y-77561928D01*
X105699999Y-77561928D01*
X105526745Y-77578992D01*
X105360149Y-77629528D01*
X105206613Y-77711595D01*
X105072038Y-77822038D01*
X104961595Y-77956613D01*
X104879528Y-78110149D01*
X104828992Y-78276745D01*
X104811928Y-78449999D01*
X89360000Y-78449999D01*
X89360000Y-72011716D01*
X90273000Y-72011716D01*
X90273000Y-72588284D01*
X90385482Y-73153775D01*
X90606126Y-73686455D01*
X90926450Y-74165854D01*
X91334146Y-74573550D01*
X91813545Y-74893874D01*
X92346225Y-75114518D01*
X92911716Y-75227000D01*
X93488284Y-75227000D01*
X94053775Y-75114518D01*
X94586455Y-74893874D01*
X95065854Y-74573550D01*
X95473550Y-74165854D01*
X95793874Y-73686455D01*
X96014518Y-73153775D01*
X96127000Y-72588284D01*
X96127000Y-72011716D01*
X96114724Y-71949998D01*
X109636928Y-71949998D01*
X109636928Y-74850002D01*
X109653992Y-75023256D01*
X109704528Y-75189852D01*
X109786595Y-75343387D01*
X109897038Y-75477962D01*
X110031613Y-75588405D01*
X110185148Y-75670472D01*
X110351744Y-75721008D01*
X110524998Y-75738072D01*
X111600002Y-75738072D01*
X111773256Y-75721008D01*
X111939852Y-75670472D01*
X112041394Y-75616196D01*
X113640001Y-77214803D01*
X113640001Y-77296288D01*
X113596063Y-77340226D01*
X113482795Y-77509744D01*
X113404774Y-77698102D01*
X113365000Y-77898061D01*
X113365000Y-78101939D01*
X113404774Y-78301898D01*
X113482795Y-78490256D01*
X113596063Y-78659774D01*
X113740226Y-78803937D01*
X113909744Y-78917205D01*
X114098102Y-78995226D01*
X114298061Y-79035000D01*
X114501939Y-79035000D01*
X114701898Y-78995226D01*
X114890256Y-78917205D01*
X115059774Y-78803937D01*
X115203937Y-78659774D01*
X115317205Y-78490256D01*
X115395226Y-78301898D01*
X115435000Y-78101939D01*
X115435000Y-77898061D01*
X115395226Y-77698102D01*
X115317205Y-77509744D01*
X115203937Y-77340226D01*
X115160000Y-77296289D01*
X115160000Y-76937325D01*
X115163676Y-76900000D01*
X115160000Y-76862675D01*
X115160000Y-76862667D01*
X115149003Y-76751014D01*
X115105546Y-76607753D01*
X115034974Y-76475724D01*
X114940001Y-76359999D01*
X114911003Y-76336201D01*
X112488072Y-73913271D01*
X112488072Y-71949998D01*
X113911928Y-71949998D01*
X113911928Y-74850002D01*
X113928992Y-75023256D01*
X113979528Y-75189852D01*
X114061595Y-75343387D01*
X114172038Y-75477962D01*
X114306613Y-75588405D01*
X114460148Y-75670472D01*
X114626744Y-75721008D01*
X114799998Y-75738072D01*
X114863271Y-75738072D01*
X115865000Y-76739802D01*
X115865000Y-76801939D01*
X115904774Y-77001898D01*
X115982795Y-77190256D01*
X116096063Y-77359774D01*
X116240226Y-77503937D01*
X116409744Y-77617205D01*
X116598102Y-77695226D01*
X116798061Y-77735000D01*
X117001939Y-77735000D01*
X117201898Y-77695226D01*
X117390256Y-77617205D01*
X117559774Y-77503937D01*
X117703937Y-77359774D01*
X117817205Y-77190256D01*
X117895226Y-77001898D01*
X117935000Y-76801939D01*
X117935000Y-76598061D01*
X117895226Y-76398102D01*
X117817205Y-76209744D01*
X117703937Y-76040226D01*
X117559774Y-75896063D01*
X117390256Y-75782795D01*
X117201898Y-75704774D01*
X117001939Y-75665000D01*
X116939802Y-75665000D01*
X116615071Y-75340270D01*
X116695472Y-75189852D01*
X116746008Y-75023256D01*
X116763072Y-74850002D01*
X116763072Y-71949998D01*
X116746008Y-71776744D01*
X116695472Y-71610148D01*
X116613405Y-71456613D01*
X116502962Y-71322038D01*
X116368387Y-71211595D01*
X116214852Y-71129528D01*
X116048256Y-71078992D01*
X115875002Y-71061928D01*
X114799998Y-71061928D01*
X114626744Y-71078992D01*
X114460148Y-71129528D01*
X114306613Y-71211595D01*
X114172038Y-71322038D01*
X114061595Y-71456613D01*
X113979528Y-71610148D01*
X113928992Y-71776744D01*
X113911928Y-71949998D01*
X112488072Y-71949998D01*
X112471008Y-71776744D01*
X112420472Y-71610148D01*
X112338405Y-71456613D01*
X112227962Y-71322038D01*
X112093387Y-71211595D01*
X111939852Y-71129528D01*
X111773256Y-71078992D01*
X111600002Y-71061928D01*
X110524998Y-71061928D01*
X110351744Y-71078992D01*
X110185148Y-71129528D01*
X110031613Y-71211595D01*
X109897038Y-71322038D01*
X109786595Y-71456613D01*
X109704528Y-71610148D01*
X109653992Y-71776744D01*
X109636928Y-71949998D01*
X96114724Y-71949998D01*
X96014518Y-71446225D01*
X95793874Y-70913545D01*
X95473550Y-70434146D01*
X95065854Y-70026450D01*
X94586455Y-69706126D01*
X94053775Y-69485482D01*
X93488284Y-69373000D01*
X92911716Y-69373000D01*
X92346225Y-69485482D01*
X91813545Y-69706126D01*
X91334146Y-70026450D01*
X90926450Y-70434146D01*
X90606126Y-70913545D01*
X90385482Y-71446225D01*
X90273000Y-72011716D01*
X89360000Y-72011716D01*
X89360000Y-47044872D01*
X89723000Y-47044872D01*
X89723000Y-47485128D01*
X89808890Y-47916925D01*
X89977369Y-48323669D01*
X90221962Y-48689729D01*
X90533271Y-49001038D01*
X90899331Y-49245631D01*
X91306075Y-49414110D01*
X91649894Y-49482500D01*
X91306075Y-49550890D01*
X90899331Y-49719369D01*
X90533271Y-49963962D01*
X90221962Y-50275271D01*
X89977369Y-50641331D01*
X89808890Y-51048075D01*
X89723000Y-51479872D01*
X89723000Y-51920128D01*
X89808890Y-52351925D01*
X89977369Y-52758669D01*
X90221962Y-53124729D01*
X90533271Y-53436038D01*
X90899331Y-53680631D01*
X91306075Y-53849110D01*
X91649894Y-53917500D01*
X91306075Y-53985890D01*
X90899331Y-54154369D01*
X90533271Y-54398962D01*
X90221962Y-54710271D01*
X89977369Y-55076331D01*
X89808890Y-55483075D01*
X89723000Y-55914872D01*
X89723000Y-56355128D01*
X89808890Y-56786925D01*
X89977369Y-57193669D01*
X90221962Y-57559729D01*
X90533271Y-57871038D01*
X90899331Y-58115631D01*
X91306075Y-58284110D01*
X91737872Y-58370000D01*
X92178128Y-58370000D01*
X92609925Y-58284110D01*
X93016669Y-58115631D01*
X93382729Y-57871038D01*
X93694038Y-57559729D01*
X93938631Y-57193669D01*
X94107110Y-56786925D01*
X94175500Y-56443106D01*
X94243890Y-56786925D01*
X94412369Y-57193669D01*
X94656962Y-57559729D01*
X94968271Y-57871038D01*
X95334331Y-58115631D01*
X95741075Y-58284110D01*
X96172872Y-58370000D01*
X96613128Y-58370000D01*
X97044925Y-58284110D01*
X97451669Y-58115631D01*
X97817729Y-57871038D01*
X98129038Y-57559729D01*
X98373631Y-57193669D01*
X98542110Y-56786925D01*
X98610500Y-56443106D01*
X98678890Y-56786925D01*
X98847369Y-57193669D01*
X99091962Y-57559729D01*
X99403271Y-57871038D01*
X99769331Y-58115631D01*
X100176075Y-58284110D01*
X100607872Y-58370000D01*
X101048128Y-58370000D01*
X101479925Y-58284110D01*
X101886669Y-58115631D01*
X102252729Y-57871038D01*
X102564038Y-57559729D01*
X102808631Y-57193669D01*
X102977110Y-56786925D01*
X103063000Y-56355128D01*
X103063000Y-55914872D01*
X102977110Y-55483075D01*
X102808631Y-55076331D01*
X102564038Y-54710271D01*
X102252729Y-54398962D01*
X101886669Y-54154369D01*
X101479925Y-53985890D01*
X101136106Y-53917500D01*
X101479925Y-53849110D01*
X101886669Y-53680631D01*
X102252729Y-53436038D01*
X102564038Y-53124729D01*
X102808631Y-52758669D01*
X102977110Y-52351925D01*
X103063000Y-51920128D01*
X103063000Y-51479872D01*
X102977110Y-51048075D01*
X102808631Y-50641331D01*
X102564038Y-50275271D01*
X102252729Y-49963962D01*
X101886669Y-49719369D01*
X101479925Y-49550890D01*
X101136106Y-49482500D01*
X101479925Y-49414110D01*
X101886669Y-49245631D01*
X102252729Y-49001038D01*
X102564038Y-48689729D01*
X102808631Y-48323669D01*
X102977110Y-47916925D01*
X103063000Y-47485128D01*
X103063000Y-47044872D01*
X102977110Y-46613075D01*
X102808631Y-46206331D01*
X102564038Y-45840271D01*
X102252729Y-45528962D01*
X101886669Y-45284369D01*
X101479925Y-45115890D01*
X101048128Y-45030000D01*
X100607872Y-45030000D01*
X100176075Y-45115890D01*
X99769331Y-45284369D01*
X99403271Y-45528962D01*
X99091962Y-45840271D01*
X98847369Y-46206331D01*
X98678890Y-46613075D01*
X98610500Y-46956894D01*
X98542110Y-46613075D01*
X98373631Y-46206331D01*
X98129038Y-45840271D01*
X97817729Y-45528962D01*
X97451669Y-45284369D01*
X97044925Y-45115890D01*
X96613128Y-45030000D01*
X96172872Y-45030000D01*
X95741075Y-45115890D01*
X95334331Y-45284369D01*
X94968271Y-45528962D01*
X94656962Y-45840271D01*
X94412369Y-46206331D01*
X94243890Y-46613075D01*
X94175500Y-46956894D01*
X94107110Y-46613075D01*
X93938631Y-46206331D01*
X93694038Y-45840271D01*
X93382729Y-45528962D01*
X93016669Y-45284369D01*
X92609925Y-45115890D01*
X92178128Y-45030000D01*
X91737872Y-45030000D01*
X91306075Y-45115890D01*
X90899331Y-45284369D01*
X90533271Y-45528962D01*
X90221962Y-45840271D01*
X89977369Y-46206331D01*
X89808890Y-46613075D01*
X89723000Y-47044872D01*
X89360000Y-47044872D01*
X89360000Y-43560000D01*
X123036316Y-43560000D01*
X123009001Y-61940056D01*
G37*
G04 #@! TD.AperFunction*
G04 #@! TD*
M02*
